G04 #@! TF.GenerationSoftware,KiCad,Pcbnew,5.1.9-73d0e3b20d~88~ubuntu18.04.1*
G04 #@! TF.CreationDate,2021-03-27T22:47:01+02:00*
G04 #@! TF.ProjectId,,58585858-5858-4585-9858-585858585858,1*
G04 #@! TF.SameCoordinates,Original*
G04 #@! TF.FileFunction,Legend,Top*
G04 #@! TF.FilePolarity,Positive*
%FSLAX46Y46*%
G04 Gerber Fmt 4.6, Leading zero omitted, Abs format (unit mm)*
G04 Created by KiCad (PCBNEW 5.1.9-73d0e3b20d~88~ubuntu18.04.1) date 2021-03-27 22:47:01*
%MOMM*%
%LPD*%
G01*
G04 APERTURE LIST*
%ADD10C,0.120000*%
%ADD11C,0.300000*%
%ADD12C,0.150000*%
%ADD13C,0.250000*%
%ADD14C,0.010000*%
G04 APERTURE END LIST*
D10*
X98962171Y-109925000D02*
G75*
G03*
X98962171Y-109925000I-237171J0D01*
G01*
X98725000Y-109675000D02*
X98725000Y-108850000D01*
X98852475Y-109925000D02*
G75*
G03*
X98852475Y-109925000I-127475J0D01*
G01*
X98780902Y-109925000D02*
G75*
G03*
X98780902Y-109925000I-55902J0D01*
G01*
D11*
X127442857Y-147242857D02*
X127942857Y-147242857D01*
X128157142Y-148028571D02*
X127442857Y-148028571D01*
X127442857Y-146528571D01*
X128157142Y-146528571D01*
X129014285Y-148028571D02*
X128871428Y-147957142D01*
X128800000Y-147814285D01*
X128800000Y-146528571D01*
X130157142Y-147957142D02*
X130014285Y-148028571D01*
X129728571Y-148028571D01*
X129585714Y-147957142D01*
X129514285Y-147814285D01*
X129514285Y-147242857D01*
X129585714Y-147100000D01*
X129728571Y-147028571D01*
X130014285Y-147028571D01*
X130157142Y-147100000D01*
X130228571Y-147242857D01*
X130228571Y-147385714D01*
X129514285Y-147528571D01*
X131514285Y-147957142D02*
X131371428Y-148028571D01*
X131085714Y-148028571D01*
X130942857Y-147957142D01*
X130871428Y-147885714D01*
X130800000Y-147742857D01*
X130800000Y-147314285D01*
X130871428Y-147171428D01*
X130942857Y-147100000D01*
X131085714Y-147028571D01*
X131371428Y-147028571D01*
X131514285Y-147100000D01*
X131942857Y-147028571D02*
X132514285Y-147028571D01*
X132157142Y-146528571D02*
X132157142Y-147814285D01*
X132228571Y-147957142D01*
X132371428Y-148028571D01*
X132514285Y-148028571D01*
X133014285Y-148028571D02*
X133014285Y-147028571D01*
X133014285Y-147314285D02*
X133085714Y-147171428D01*
X133157142Y-147100000D01*
X133300000Y-147028571D01*
X133442857Y-147028571D01*
X134585714Y-148028571D02*
X134585714Y-147242857D01*
X134514285Y-147100000D01*
X134371428Y-147028571D01*
X134085714Y-147028571D01*
X133942857Y-147100000D01*
X134585714Y-147957142D02*
X134442857Y-148028571D01*
X134085714Y-148028571D01*
X133942857Y-147957142D01*
X133871428Y-147814285D01*
X133871428Y-147671428D01*
X133942857Y-147528571D01*
X134085714Y-147457142D01*
X134442857Y-147457142D01*
X134585714Y-147385714D01*
X136228571Y-146528571D02*
X136728571Y-148028571D01*
X137228571Y-146528571D01*
X138300000Y-147957142D02*
X138157142Y-148028571D01*
X137871428Y-148028571D01*
X137728571Y-147957142D01*
X137657142Y-147814285D01*
X137657142Y-147242857D01*
X137728571Y-147100000D01*
X137871428Y-147028571D01*
X138157142Y-147028571D01*
X138300000Y-147100000D01*
X138371428Y-147242857D01*
X138371428Y-147385714D01*
X137657142Y-147528571D01*
X139014285Y-148028571D02*
X139014285Y-147028571D01*
X139014285Y-147314285D02*
X139085714Y-147171428D01*
X139157142Y-147100000D01*
X139300000Y-147028571D01*
X139442857Y-147028571D01*
X139942857Y-147885714D02*
X140014285Y-147957142D01*
X139942857Y-148028571D01*
X139871428Y-147957142D01*
X139942857Y-147885714D01*
X139942857Y-148028571D01*
X142585714Y-148028571D02*
X141728571Y-148028571D01*
X142157142Y-148028571D02*
X142157142Y-146528571D01*
X142014285Y-146742857D01*
X141871428Y-146885714D01*
X141728571Y-146957142D01*
X143228571Y-147885714D02*
X143300000Y-147957142D01*
X143228571Y-148028571D01*
X143157142Y-147957142D01*
X143228571Y-147885714D01*
X143228571Y-148028571D01*
X144228571Y-146528571D02*
X144371428Y-146528571D01*
X144514285Y-146600000D01*
X144585714Y-146671428D01*
X144657142Y-146814285D01*
X144728571Y-147100000D01*
X144728571Y-147457142D01*
X144657142Y-147742857D01*
X144585714Y-147885714D01*
X144514285Y-147957142D01*
X144371428Y-148028571D01*
X144228571Y-148028571D01*
X144085714Y-147957142D01*
X144014285Y-147885714D01*
X143942857Y-147742857D01*
X143871428Y-147457142D01*
X143871428Y-147100000D01*
X143942857Y-146814285D01*
X144014285Y-146671428D01*
X144085714Y-146600000D01*
X144228571Y-146528571D01*
D12*
X160588095Y-134852380D02*
X161159523Y-134852380D01*
X160873809Y-135852380D02*
X160873809Y-134852380D01*
X161397619Y-134852380D02*
X162064285Y-135852380D01*
X162064285Y-134852380D02*
X161397619Y-135852380D01*
X161383333Y-138452380D02*
X161050000Y-137976190D01*
X160811904Y-138452380D02*
X160811904Y-137452380D01*
X161192857Y-137452380D01*
X161288095Y-137500000D01*
X161335714Y-137547619D01*
X161383333Y-137642857D01*
X161383333Y-137785714D01*
X161335714Y-137880952D01*
X161288095Y-137928571D01*
X161192857Y-137976190D01*
X160811904Y-137976190D01*
X161716666Y-137452380D02*
X162383333Y-138452380D01*
X162383333Y-137452380D02*
X161716666Y-138452380D01*
X161288095Y-140100000D02*
X161192857Y-140052380D01*
X161050000Y-140052380D01*
X160907142Y-140100000D01*
X160811904Y-140195238D01*
X160764285Y-140290476D01*
X160716666Y-140480952D01*
X160716666Y-140623809D01*
X160764285Y-140814285D01*
X160811904Y-140909523D01*
X160907142Y-141004761D01*
X161050000Y-141052380D01*
X161145238Y-141052380D01*
X161288095Y-141004761D01*
X161335714Y-140957142D01*
X161335714Y-140623809D01*
X161145238Y-140623809D01*
X161764285Y-141052380D02*
X161764285Y-140052380D01*
X162335714Y-141052380D01*
X162335714Y-140052380D01*
X162811904Y-141052380D02*
X162811904Y-140052380D01*
X163050000Y-140052380D01*
X163192857Y-140100000D01*
X163288095Y-140195238D01*
X163335714Y-140290476D01*
X163383333Y-140480952D01*
X163383333Y-140623809D01*
X163335714Y-140814285D01*
X163288095Y-140909523D01*
X163192857Y-141004761D01*
X163050000Y-141052380D01*
X162811904Y-141052380D01*
X160811904Y-142552380D02*
X161430952Y-142552380D01*
X161097619Y-142933333D01*
X161240476Y-142933333D01*
X161335714Y-142980952D01*
X161383333Y-143028571D01*
X161430952Y-143123809D01*
X161430952Y-143361904D01*
X161383333Y-143457142D01*
X161335714Y-143504761D01*
X161240476Y-143552380D01*
X160954761Y-143552380D01*
X160859523Y-143504761D01*
X160811904Y-143457142D01*
X161716666Y-142552380D02*
X162050000Y-143552380D01*
X162383333Y-142552380D01*
X162621428Y-142552380D02*
X163240476Y-142552380D01*
X162907142Y-142933333D01*
X163050000Y-142933333D01*
X163145238Y-142980952D01*
X163192857Y-143028571D01*
X163240476Y-143123809D01*
X163240476Y-143361904D01*
X163192857Y-143457142D01*
X163145238Y-143504761D01*
X163050000Y-143552380D01*
X162764285Y-143552380D01*
X162669047Y-143504761D01*
X162621428Y-143457142D01*
X120414285Y-127650000D02*
X120328571Y-127607142D01*
X120200000Y-127607142D01*
X120071428Y-127650000D01*
X119985714Y-127735714D01*
X119942857Y-127821428D01*
X119900000Y-127992857D01*
X119900000Y-128121428D01*
X119942857Y-128292857D01*
X119985714Y-128378571D01*
X120071428Y-128464285D01*
X120200000Y-128507142D01*
X120285714Y-128507142D01*
X120414285Y-128464285D01*
X120457142Y-128421428D01*
X120457142Y-128121428D01*
X120285714Y-128121428D01*
X120842857Y-128507142D02*
X120842857Y-127607142D01*
X121357142Y-128507142D01*
X121357142Y-127607142D01*
X121785714Y-128507142D02*
X121785714Y-127607142D01*
X122000000Y-127607142D01*
X122128571Y-127650000D01*
X122214285Y-127735714D01*
X122257142Y-127821428D01*
X122300000Y-127992857D01*
X122300000Y-128121428D01*
X122257142Y-128292857D01*
X122214285Y-128378571D01*
X122128571Y-128464285D01*
X122000000Y-128507142D01*
X121785714Y-128507142D01*
X119885714Y-130207142D02*
X120442857Y-130207142D01*
X120142857Y-130550000D01*
X120271428Y-130550000D01*
X120357142Y-130592857D01*
X120400000Y-130635714D01*
X120442857Y-130721428D01*
X120442857Y-130935714D01*
X120400000Y-131021428D01*
X120357142Y-131064285D01*
X120271428Y-131107142D01*
X120014285Y-131107142D01*
X119928571Y-131064285D01*
X119885714Y-131021428D01*
X120700000Y-130207142D02*
X121000000Y-131107142D01*
X121300000Y-130207142D01*
X121514285Y-130207142D02*
X122071428Y-130207142D01*
X121771428Y-130550000D01*
X121900000Y-130550000D01*
X121985714Y-130592857D01*
X122028571Y-130635714D01*
X122071428Y-130721428D01*
X122071428Y-130935714D01*
X122028571Y-131021428D01*
X121985714Y-131064285D01*
X121900000Y-131107142D01*
X121642857Y-131107142D01*
X121557142Y-131064285D01*
X121514285Y-131021428D01*
X120007142Y-133264285D02*
X120135714Y-133307142D01*
X120350000Y-133307142D01*
X120435714Y-133264285D01*
X120478571Y-133221428D01*
X120521428Y-133135714D01*
X120521428Y-133050000D01*
X120478571Y-132964285D01*
X120435714Y-132921428D01*
X120350000Y-132878571D01*
X120178571Y-132835714D01*
X120092857Y-132792857D01*
X120050000Y-132750000D01*
X120007142Y-132664285D01*
X120007142Y-132578571D01*
X120050000Y-132492857D01*
X120092857Y-132450000D01*
X120178571Y-132407142D01*
X120392857Y-132407142D01*
X120521428Y-132450000D01*
X120907142Y-133307142D02*
X120907142Y-132407142D01*
X121121428Y-132407142D01*
X121250000Y-132450000D01*
X121335714Y-132535714D01*
X121378571Y-132621428D01*
X121421428Y-132792857D01*
X121421428Y-132921428D01*
X121378571Y-133092857D01*
X121335714Y-133178571D01*
X121250000Y-133264285D01*
X121121428Y-133307142D01*
X120907142Y-133307142D01*
X121764285Y-133050000D02*
X122192857Y-133050000D01*
X121678571Y-133307142D02*
X121978571Y-132407142D01*
X122278571Y-133307142D01*
X120128571Y-136064285D02*
X120257142Y-136107142D01*
X120471428Y-136107142D01*
X120557142Y-136064285D01*
X120600000Y-136021428D01*
X120642857Y-135935714D01*
X120642857Y-135850000D01*
X120600000Y-135764285D01*
X120557142Y-135721428D01*
X120471428Y-135678571D01*
X120300000Y-135635714D01*
X120214285Y-135592857D01*
X120171428Y-135550000D01*
X120128571Y-135464285D01*
X120128571Y-135378571D01*
X120171428Y-135292857D01*
X120214285Y-135250000D01*
X120300000Y-135207142D01*
X120514285Y-135207142D01*
X120642857Y-135250000D01*
X121028571Y-136107142D02*
X121028571Y-135207142D01*
X121242857Y-135207142D01*
X121371428Y-135250000D01*
X121457142Y-135335714D01*
X121500000Y-135421428D01*
X121542857Y-135592857D01*
X121542857Y-135721428D01*
X121500000Y-135892857D01*
X121457142Y-135978571D01*
X121371428Y-136064285D01*
X121242857Y-136107142D01*
X121028571Y-136107142D01*
X122357142Y-136107142D02*
X121928571Y-136107142D01*
X121928571Y-135207142D01*
X152200000Y-120085714D02*
X152157142Y-120171428D01*
X152157142Y-120300000D01*
X152200000Y-120428571D01*
X152285714Y-120514285D01*
X152371428Y-120557142D01*
X152542857Y-120600000D01*
X152671428Y-120600000D01*
X152842857Y-120557142D01*
X152928571Y-120514285D01*
X153014285Y-120428571D01*
X153057142Y-120300000D01*
X153057142Y-120214285D01*
X153014285Y-120085714D01*
X152971428Y-120042857D01*
X152671428Y-120042857D01*
X152671428Y-120214285D01*
X153057142Y-119657142D02*
X152157142Y-119657142D01*
X153057142Y-119142857D01*
X152157142Y-119142857D01*
X153057142Y-118714285D02*
X152157142Y-118714285D01*
X152157142Y-118500000D01*
X152200000Y-118371428D01*
X152285714Y-118285714D01*
X152371428Y-118242857D01*
X152542857Y-118200000D01*
X152671428Y-118200000D01*
X152842857Y-118242857D01*
X152928571Y-118285714D01*
X153014285Y-118371428D01*
X153057142Y-118500000D01*
X153057142Y-118714285D01*
X144557142Y-119171428D02*
X144557142Y-119600000D01*
X144985714Y-119642857D01*
X144942857Y-119600000D01*
X144900000Y-119514285D01*
X144900000Y-119300000D01*
X144942857Y-119214285D01*
X144985714Y-119171428D01*
X145071428Y-119128571D01*
X145285714Y-119128571D01*
X145371428Y-119171428D01*
X145414285Y-119214285D01*
X145457142Y-119300000D01*
X145457142Y-119514285D01*
X145414285Y-119600000D01*
X145371428Y-119642857D01*
X144557142Y-118871428D02*
X145457142Y-118571428D01*
X144557142Y-118271428D01*
X147957142Y-120807142D02*
X147057142Y-120807142D01*
X147057142Y-120592857D01*
X147100000Y-120464285D01*
X147185714Y-120378571D01*
X147271428Y-120335714D01*
X147442857Y-120292857D01*
X147571428Y-120292857D01*
X147742857Y-120335714D01*
X147828571Y-120378571D01*
X147914285Y-120464285D01*
X147957142Y-120592857D01*
X147957142Y-120807142D01*
X147957142Y-119521428D02*
X147485714Y-119521428D01*
X147400000Y-119564285D01*
X147357142Y-119650000D01*
X147357142Y-119821428D01*
X147400000Y-119907142D01*
X147914285Y-119521428D02*
X147957142Y-119607142D01*
X147957142Y-119821428D01*
X147914285Y-119907142D01*
X147828571Y-119950000D01*
X147742857Y-119950000D01*
X147657142Y-119907142D01*
X147614285Y-119821428D01*
X147614285Y-119607142D01*
X147571428Y-119521428D01*
X147357142Y-119221428D02*
X147357142Y-118878571D01*
X147057142Y-119092857D02*
X147828571Y-119092857D01*
X147914285Y-119050000D01*
X147957142Y-118964285D01*
X147957142Y-118878571D01*
X147957142Y-118192857D02*
X147485714Y-118192857D01*
X147400000Y-118235714D01*
X147357142Y-118321428D01*
X147357142Y-118492857D01*
X147400000Y-118578571D01*
X147914285Y-118192857D02*
X147957142Y-118278571D01*
X147957142Y-118492857D01*
X147914285Y-118578571D01*
X147828571Y-118621428D01*
X147742857Y-118621428D01*
X147657142Y-118578571D01*
X147614285Y-118492857D01*
X147614285Y-118278571D01*
X147571428Y-118192857D01*
X108625000Y-106086904D02*
X108577380Y-106182142D01*
X108577380Y-106325000D01*
X108625000Y-106467857D01*
X108720238Y-106563095D01*
X108815476Y-106610714D01*
X109005952Y-106658333D01*
X109148809Y-106658333D01*
X109339285Y-106610714D01*
X109434523Y-106563095D01*
X109529761Y-106467857D01*
X109577380Y-106325000D01*
X109577380Y-106229761D01*
X109529761Y-106086904D01*
X109482142Y-106039285D01*
X109148809Y-106039285D01*
X109148809Y-106229761D01*
X109577380Y-105610714D02*
X108577380Y-105610714D01*
X109577380Y-105039285D01*
X108577380Y-105039285D01*
X109577380Y-104563095D02*
X108577380Y-104563095D01*
X108577380Y-104325000D01*
X108625000Y-104182142D01*
X108720238Y-104086904D01*
X108815476Y-104039285D01*
X109005952Y-103991666D01*
X109148809Y-103991666D01*
X109339285Y-104039285D01*
X109434523Y-104086904D01*
X109529761Y-104182142D01*
X109577380Y-104325000D01*
X109577380Y-104563095D01*
X108577380Y-112120238D02*
X109577380Y-111786904D01*
X108577380Y-111453571D01*
X109577380Y-111120238D02*
X108577380Y-111120238D01*
X109577380Y-110644047D02*
X108577380Y-110644047D01*
X109577380Y-110072619D01*
X108577380Y-110072619D01*
D11*
X194610714Y-129100000D02*
X194682142Y-129171428D01*
X194753571Y-129385714D01*
X194753571Y-129528571D01*
X194682142Y-129742857D01*
X194539285Y-129885714D01*
X194396428Y-129957142D01*
X194110714Y-130028571D01*
X193896428Y-130028571D01*
X193610714Y-129957142D01*
X193467857Y-129885714D01*
X193325000Y-129742857D01*
X193253571Y-129528571D01*
X193253571Y-129385714D01*
X193325000Y-129171428D01*
X193396428Y-129100000D01*
X194325000Y-128528571D02*
X194325000Y-127814285D01*
X194753571Y-128671428D02*
X193253571Y-128171428D01*
X194753571Y-127671428D01*
X193253571Y-127171428D02*
X194467857Y-127171428D01*
X194610714Y-127100000D01*
X194682142Y-127028571D01*
X194753571Y-126885714D01*
X194753571Y-126600000D01*
X194682142Y-126457142D01*
X194610714Y-126385714D01*
X194467857Y-126314285D01*
X193253571Y-126314285D01*
X193253571Y-125814285D02*
X193253571Y-124957142D01*
X194753571Y-125385714D02*
X193253571Y-125385714D01*
X194753571Y-124457142D02*
X193253571Y-124457142D01*
X193253571Y-123457142D02*
X193253571Y-123171428D01*
X193325000Y-123028571D01*
X193467857Y-122885714D01*
X193753571Y-122814285D01*
X194253571Y-122814285D01*
X194539285Y-122885714D01*
X194682142Y-123028571D01*
X194753571Y-123171428D01*
X194753571Y-123457142D01*
X194682142Y-123600000D01*
X194539285Y-123742857D01*
X194253571Y-123814285D01*
X193753571Y-123814285D01*
X193467857Y-123742857D01*
X193325000Y-123600000D01*
X193253571Y-123457142D01*
X194753571Y-122171428D02*
X193253571Y-122171428D01*
X194753571Y-121314285D01*
X193253571Y-121314285D01*
X194610714Y-120600000D02*
X194682142Y-120528571D01*
X194753571Y-120600000D01*
X194682142Y-120671428D01*
X194610714Y-120600000D01*
X194753571Y-120600000D01*
X194182142Y-120600000D02*
X193325000Y-120671428D01*
X193253571Y-120600000D01*
X193325000Y-120528571D01*
X194182142Y-120600000D01*
X193253571Y-120600000D01*
X194325000Y-118814285D02*
X194325000Y-118100000D01*
X194753571Y-118957142D02*
X193253571Y-118457142D01*
X194753571Y-117957142D01*
X194610714Y-116600000D02*
X194682142Y-116671428D01*
X194753571Y-116885714D01*
X194753571Y-117028571D01*
X194682142Y-117242857D01*
X194539285Y-117385714D01*
X194396428Y-117457142D01*
X194110714Y-117528571D01*
X193896428Y-117528571D01*
X193610714Y-117457142D01*
X193467857Y-117385714D01*
X193325000Y-117242857D01*
X193253571Y-117028571D01*
X193253571Y-116885714D01*
X193325000Y-116671428D01*
X193396428Y-116600000D01*
X193253571Y-115028571D02*
X194753571Y-114528571D01*
X193253571Y-114028571D01*
X194753571Y-113314285D02*
X194682142Y-113457142D01*
X194610714Y-113528571D01*
X194467857Y-113600000D01*
X194039285Y-113600000D01*
X193896428Y-113528571D01*
X193825000Y-113457142D01*
X193753571Y-113314285D01*
X193753571Y-113100000D01*
X193825000Y-112957142D01*
X193896428Y-112885714D01*
X194039285Y-112814285D01*
X194467857Y-112814285D01*
X194610714Y-112885714D01*
X194682142Y-112957142D01*
X194753571Y-113100000D01*
X194753571Y-113314285D01*
X194753571Y-111957142D02*
X194682142Y-112100000D01*
X194539285Y-112171428D01*
X193253571Y-112171428D01*
X193753571Y-111600000D02*
X193753571Y-111028571D01*
X193253571Y-111385714D02*
X194539285Y-111385714D01*
X194682142Y-111314285D01*
X194753571Y-111171428D01*
X194753571Y-111028571D01*
X194753571Y-109885714D02*
X193967857Y-109885714D01*
X193825000Y-109957142D01*
X193753571Y-110100000D01*
X193753571Y-110385714D01*
X193825000Y-110528571D01*
X194682142Y-109885714D02*
X194753571Y-110028571D01*
X194753571Y-110385714D01*
X194682142Y-110528571D01*
X194539285Y-110600000D01*
X194396428Y-110600000D01*
X194253571Y-110528571D01*
X194182142Y-110385714D01*
X194182142Y-110028571D01*
X194110714Y-109885714D01*
X193753571Y-108528571D02*
X194967857Y-108528571D01*
X195110714Y-108600000D01*
X195182142Y-108671428D01*
X195253571Y-108814285D01*
X195253571Y-109028571D01*
X195182142Y-109171428D01*
X194682142Y-108528571D02*
X194753571Y-108671428D01*
X194753571Y-108957142D01*
X194682142Y-109100000D01*
X194610714Y-109171428D01*
X194467857Y-109242857D01*
X194039285Y-109242857D01*
X193896428Y-109171428D01*
X193825000Y-109100000D01*
X193753571Y-108957142D01*
X193753571Y-108671428D01*
X193825000Y-108528571D01*
X194682142Y-107242857D02*
X194753571Y-107385714D01*
X194753571Y-107671428D01*
X194682142Y-107814285D01*
X194539285Y-107885714D01*
X193967857Y-107885714D01*
X193825000Y-107814285D01*
X193753571Y-107671428D01*
X193753571Y-107385714D01*
X193825000Y-107242857D01*
X193967857Y-107171428D01*
X194110714Y-107171428D01*
X194253571Y-107885714D01*
D13*
X112202380Y-141990476D02*
X112202380Y-142561904D01*
X112202380Y-142276190D02*
X111202380Y-142276190D01*
X111345238Y-142371428D01*
X111440476Y-142466666D01*
X111488095Y-142561904D01*
X111202380Y-141371428D02*
X111202380Y-141276190D01*
X111250000Y-141180952D01*
X111297619Y-141133333D01*
X111392857Y-141085714D01*
X111583333Y-141038095D01*
X111821428Y-141038095D01*
X112011904Y-141085714D01*
X112107142Y-141133333D01*
X112154761Y-141180952D01*
X112202380Y-141276190D01*
X112202380Y-141371428D01*
X112154761Y-141466666D01*
X112107142Y-141514285D01*
X112011904Y-141561904D01*
X111821428Y-141609523D01*
X111583333Y-141609523D01*
X111392857Y-141561904D01*
X111297619Y-141514285D01*
X111250000Y-141466666D01*
X111202380Y-141371428D01*
X112202380Y-140609523D02*
X111202380Y-140609523D01*
X112202380Y-140038095D02*
X111630952Y-140466666D01*
X111202380Y-140038095D02*
X111773809Y-140609523D01*
D12*
X97342857Y-134857142D02*
X97042857Y-134428571D01*
X96828571Y-134857142D02*
X96828571Y-133957142D01*
X97171428Y-133957142D01*
X97257142Y-134000000D01*
X97300000Y-134042857D01*
X97342857Y-134128571D01*
X97342857Y-134257142D01*
X97300000Y-134342857D01*
X97257142Y-134385714D01*
X97171428Y-134428571D01*
X96828571Y-134428571D01*
X97685714Y-134042857D02*
X97728571Y-134000000D01*
X97814285Y-133957142D01*
X98028571Y-133957142D01*
X98114285Y-134000000D01*
X98157142Y-134042857D01*
X98200000Y-134128571D01*
X98200000Y-134214285D01*
X98157142Y-134342857D01*
X97642857Y-134857142D01*
X98200000Y-134857142D01*
X98757142Y-133957142D02*
X98842857Y-133957142D01*
X98928571Y-134000000D01*
X98971428Y-134042857D01*
X99014285Y-134128571D01*
X99057142Y-134300000D01*
X99057142Y-134514285D01*
X99014285Y-134685714D01*
X98971428Y-134771428D01*
X98928571Y-134814285D01*
X98842857Y-134857142D01*
X98757142Y-134857142D01*
X98671428Y-134814285D01*
X98628571Y-134771428D01*
X98585714Y-134685714D01*
X98542857Y-134514285D01*
X98542857Y-134300000D01*
X98585714Y-134128571D01*
X98628571Y-134042857D01*
X98671428Y-134000000D01*
X98757142Y-133957142D01*
X99357142Y-133957142D02*
X99957142Y-134857142D01*
X99957142Y-133957142D02*
X99357142Y-134857142D01*
X172515476Y-110077380D02*
X172515476Y-109077380D01*
X173086904Y-110077380D01*
X173086904Y-109077380D01*
X173753571Y-109077380D02*
X173944047Y-109077380D01*
X174039285Y-109125000D01*
X174134523Y-109220238D01*
X174182142Y-109410714D01*
X174182142Y-109744047D01*
X174134523Y-109934523D01*
X174039285Y-110029761D01*
X173944047Y-110077380D01*
X173753571Y-110077380D01*
X173658333Y-110029761D01*
X173563095Y-109934523D01*
X173515476Y-109744047D01*
X173515476Y-109410714D01*
X173563095Y-109220238D01*
X173658333Y-109125000D01*
X173753571Y-109077380D01*
X190515476Y-109927380D02*
X190515476Y-108927380D01*
X191086904Y-109927380D01*
X191086904Y-108927380D01*
X191753571Y-108927380D02*
X191944047Y-108927380D01*
X192039285Y-108975000D01*
X192134523Y-109070238D01*
X192182142Y-109260714D01*
X192182142Y-109594047D01*
X192134523Y-109784523D01*
X192039285Y-109879761D01*
X191944047Y-109927380D01*
X191753571Y-109927380D01*
X191658333Y-109879761D01*
X191563095Y-109784523D01*
X191515476Y-109594047D01*
X191515476Y-109260714D01*
X191563095Y-109070238D01*
X191658333Y-108975000D01*
X191753571Y-108927380D01*
X158689285Y-110077380D02*
X158689285Y-109077380D01*
X159260714Y-110077380D01*
X159260714Y-109077380D01*
X160308333Y-109982142D02*
X160260714Y-110029761D01*
X160117857Y-110077380D01*
X160022619Y-110077380D01*
X159879761Y-110029761D01*
X159784523Y-109934523D01*
X159736904Y-109839285D01*
X159689285Y-109648809D01*
X159689285Y-109505952D01*
X159736904Y-109315476D01*
X159784523Y-109220238D01*
X159879761Y-109125000D01*
X160022619Y-109077380D01*
X160117857Y-109077380D01*
X160260714Y-109125000D01*
X160308333Y-109172619D01*
X176564285Y-109977380D02*
X176564285Y-108977380D01*
X177135714Y-109977380D01*
X177135714Y-108977380D01*
X178183333Y-109882142D02*
X178135714Y-109929761D01*
X177992857Y-109977380D01*
X177897619Y-109977380D01*
X177754761Y-109929761D01*
X177659523Y-109834523D01*
X177611904Y-109739285D01*
X177564285Y-109548809D01*
X177564285Y-109405952D01*
X177611904Y-109215476D01*
X177659523Y-109120238D01*
X177754761Y-109025000D01*
X177897619Y-108977380D01*
X177992857Y-108977380D01*
X178135714Y-109025000D01*
X178183333Y-109072619D01*
X110632142Y-131632142D02*
X110117857Y-131632142D01*
X110375000Y-131632142D02*
X110375000Y-130732142D01*
X110289285Y-130860714D01*
X110203571Y-130946428D01*
X110117857Y-130989285D01*
X111189285Y-130732142D02*
X111275000Y-130732142D01*
X111360714Y-130775000D01*
X111403571Y-130817857D01*
X111446428Y-130903571D01*
X111489285Y-131075000D01*
X111489285Y-131289285D01*
X111446428Y-131460714D01*
X111403571Y-131546428D01*
X111360714Y-131589285D01*
X111275000Y-131632142D01*
X111189285Y-131632142D01*
X111103571Y-131589285D01*
X111060714Y-131546428D01*
X111017857Y-131460714D01*
X110975000Y-131289285D01*
X110975000Y-131075000D01*
X111017857Y-130903571D01*
X111060714Y-130817857D01*
X111103571Y-130775000D01*
X111189285Y-130732142D01*
X111789285Y-131632142D02*
X112260714Y-131032142D01*
X111789285Y-131032142D02*
X112260714Y-131632142D01*
X113075000Y-131632142D02*
X112560714Y-131632142D01*
X112817857Y-131632142D02*
X112817857Y-130732142D01*
X112732142Y-130860714D01*
X112646428Y-130946428D01*
X112560714Y-130989285D01*
X113632142Y-130732142D02*
X113717857Y-130732142D01*
X113803571Y-130775000D01*
X113846428Y-130817857D01*
X113889285Y-130903571D01*
X113932142Y-131075000D01*
X113932142Y-131289285D01*
X113889285Y-131460714D01*
X113846428Y-131546428D01*
X113803571Y-131589285D01*
X113717857Y-131632142D01*
X113632142Y-131632142D01*
X113546428Y-131589285D01*
X113503571Y-131546428D01*
X113460714Y-131460714D01*
X113417857Y-131289285D01*
X113417857Y-131075000D01*
X113460714Y-130903571D01*
X113503571Y-130817857D01*
X113546428Y-130775000D01*
X113632142Y-130732142D01*
D10*
X99337883Y-111937882D02*
G75*
G03*
X99337883Y-111937882I-612883J0D01*
G01*
X99362883Y-108187882D02*
G75*
G03*
X99362883Y-108187882I-612883J0D01*
G01*
X98725000Y-111325000D02*
X98725000Y-110600000D01*
X99124999Y-109475001D02*
G75*
G02*
X98325001Y-109475001I-399999J-474999D01*
G01*
D12*
X98369047Y-108196428D02*
X99130952Y-108196428D01*
X98750000Y-108577380D02*
X98750000Y-107815476D01*
X98721428Y-112330952D02*
X98721428Y-111569047D01*
X141805952Y-98427380D02*
X141805952Y-99141666D01*
X141758333Y-99284523D01*
X141663095Y-99379761D01*
X141520238Y-99427380D01*
X141425000Y-99427380D01*
X142758333Y-99427380D02*
X142282142Y-99427380D01*
X142282142Y-98427380D01*
X143663095Y-99332142D02*
X143615476Y-99379761D01*
X143472619Y-99427380D01*
X143377380Y-99427380D01*
X143234523Y-99379761D01*
X143139285Y-99284523D01*
X143091666Y-99189285D01*
X143044047Y-98998809D01*
X143044047Y-98855952D01*
X143091666Y-98665476D01*
X143139285Y-98570238D01*
X143234523Y-98475000D01*
X143377380Y-98427380D01*
X143472619Y-98427380D01*
X143615476Y-98475000D01*
X143663095Y-98522619D01*
X144377380Y-98427380D02*
X144377380Y-99141666D01*
X144329761Y-99284523D01*
X144234523Y-99379761D01*
X144091666Y-99427380D01*
X143996428Y-99427380D01*
X145329761Y-99427380D02*
X144853571Y-99427380D01*
X144853571Y-98427380D01*
X146234523Y-99332142D02*
X146186904Y-99379761D01*
X146044047Y-99427380D01*
X145948809Y-99427380D01*
X145805952Y-99379761D01*
X145710714Y-99284523D01*
X145663095Y-99189285D01*
X145615476Y-98998809D01*
X145615476Y-98855952D01*
X145663095Y-98665476D01*
X145710714Y-98570238D01*
X145805952Y-98475000D01*
X145948809Y-98427380D01*
X146044047Y-98427380D01*
X146186904Y-98475000D01*
X146234523Y-98522619D01*
X146948809Y-98427380D02*
X146948809Y-99141666D01*
X146901190Y-99284523D01*
X146805952Y-99379761D01*
X146663095Y-99427380D01*
X146567857Y-99427380D01*
X147901190Y-99427380D02*
X147425000Y-99427380D01*
X147425000Y-98427380D01*
X148805952Y-99332142D02*
X148758333Y-99379761D01*
X148615476Y-99427380D01*
X148520238Y-99427380D01*
X148377380Y-99379761D01*
X148282142Y-99284523D01*
X148234523Y-99189285D01*
X148186904Y-98998809D01*
X148186904Y-98855952D01*
X148234523Y-98665476D01*
X148282142Y-98570238D01*
X148377380Y-98475000D01*
X148520238Y-98427380D01*
X148615476Y-98427380D01*
X148758333Y-98475000D01*
X148805952Y-98522619D01*
X149520238Y-98427380D02*
X149520238Y-99141666D01*
X149472619Y-99284523D01*
X149377380Y-99379761D01*
X149234523Y-99427380D01*
X149139285Y-99427380D01*
X150472619Y-99427380D02*
X149996428Y-99427380D01*
X149996428Y-98427380D01*
X151377380Y-99332142D02*
X151329761Y-99379761D01*
X151186904Y-99427380D01*
X151091666Y-99427380D01*
X150948809Y-99379761D01*
X150853571Y-99284523D01*
X150805952Y-99189285D01*
X150758333Y-98998809D01*
X150758333Y-98855952D01*
X150805952Y-98665476D01*
X150853571Y-98570238D01*
X150948809Y-98475000D01*
X151091666Y-98427380D01*
X151186904Y-98427380D01*
X151329761Y-98475000D01*
X151377380Y-98522619D01*
X98721428Y-60830952D02*
X98721428Y-60069047D01*
X98369047Y-56696428D02*
X99130952Y-56696428D01*
X98750000Y-57077380D02*
X98750000Y-56315476D01*
D10*
X98780902Y-58425000D02*
G75*
G03*
X98780902Y-58425000I-55902J0D01*
G01*
X98852475Y-58425000D02*
G75*
G03*
X98852475Y-58425000I-127475J0D01*
G01*
X98962171Y-58425000D02*
G75*
G03*
X98962171Y-58425000I-237171J0D01*
G01*
X98725000Y-58175000D02*
X98725000Y-57350000D01*
X99124999Y-57975001D02*
G75*
G02*
X98325001Y-57975001I-399999J-474999D01*
G01*
X98725000Y-59825000D02*
X98725000Y-59100000D01*
X99362883Y-56687882D02*
G75*
G03*
X99362883Y-56687882I-612883J0D01*
G01*
X99337883Y-60437882D02*
G75*
G03*
X99337883Y-60437882I-612883J0D01*
G01*
D12*
X110632142Y-80132142D02*
X110117857Y-80132142D01*
X110375000Y-80132142D02*
X110375000Y-79232142D01*
X110289285Y-79360714D01*
X110203571Y-79446428D01*
X110117857Y-79489285D01*
X111189285Y-79232142D02*
X111275000Y-79232142D01*
X111360714Y-79275000D01*
X111403571Y-79317857D01*
X111446428Y-79403571D01*
X111489285Y-79575000D01*
X111489285Y-79789285D01*
X111446428Y-79960714D01*
X111403571Y-80046428D01*
X111360714Y-80089285D01*
X111275000Y-80132142D01*
X111189285Y-80132142D01*
X111103571Y-80089285D01*
X111060714Y-80046428D01*
X111017857Y-79960714D01*
X110975000Y-79789285D01*
X110975000Y-79575000D01*
X111017857Y-79403571D01*
X111060714Y-79317857D01*
X111103571Y-79275000D01*
X111189285Y-79232142D01*
X111789285Y-80132142D02*
X112260714Y-79532142D01*
X111789285Y-79532142D02*
X112260714Y-80132142D01*
X113075000Y-80132142D02*
X112560714Y-80132142D01*
X112817857Y-80132142D02*
X112817857Y-79232142D01*
X112732142Y-79360714D01*
X112646428Y-79446428D01*
X112560714Y-79489285D01*
X113632142Y-79232142D02*
X113717857Y-79232142D01*
X113803571Y-79275000D01*
X113846428Y-79317857D01*
X113889285Y-79403571D01*
X113932142Y-79575000D01*
X113932142Y-79789285D01*
X113889285Y-79960714D01*
X113846428Y-80046428D01*
X113803571Y-80089285D01*
X113717857Y-80132142D01*
X113632142Y-80132142D01*
X113546428Y-80089285D01*
X113503571Y-80046428D01*
X113460714Y-79960714D01*
X113417857Y-79789285D01*
X113417857Y-79575000D01*
X113460714Y-79403571D01*
X113503571Y-79317857D01*
X113546428Y-79275000D01*
X113632142Y-79232142D01*
X176564285Y-58477380D02*
X176564285Y-57477380D01*
X177135714Y-58477380D01*
X177135714Y-57477380D01*
X178183333Y-58382142D02*
X178135714Y-58429761D01*
X177992857Y-58477380D01*
X177897619Y-58477380D01*
X177754761Y-58429761D01*
X177659523Y-58334523D01*
X177611904Y-58239285D01*
X177564285Y-58048809D01*
X177564285Y-57905952D01*
X177611904Y-57715476D01*
X177659523Y-57620238D01*
X177754761Y-57525000D01*
X177897619Y-57477380D01*
X177992857Y-57477380D01*
X178135714Y-57525000D01*
X178183333Y-57572619D01*
X158689285Y-58577380D02*
X158689285Y-57577380D01*
X159260714Y-58577380D01*
X159260714Y-57577380D01*
X160308333Y-58482142D02*
X160260714Y-58529761D01*
X160117857Y-58577380D01*
X160022619Y-58577380D01*
X159879761Y-58529761D01*
X159784523Y-58434523D01*
X159736904Y-58339285D01*
X159689285Y-58148809D01*
X159689285Y-58005952D01*
X159736904Y-57815476D01*
X159784523Y-57720238D01*
X159879761Y-57625000D01*
X160022619Y-57577380D01*
X160117857Y-57577380D01*
X160260714Y-57625000D01*
X160308333Y-57672619D01*
X190515476Y-58427380D02*
X190515476Y-57427380D01*
X191086904Y-58427380D01*
X191086904Y-57427380D01*
X191753571Y-57427380D02*
X191944047Y-57427380D01*
X192039285Y-57475000D01*
X192134523Y-57570238D01*
X192182142Y-57760714D01*
X192182142Y-58094047D01*
X192134523Y-58284523D01*
X192039285Y-58379761D01*
X191944047Y-58427380D01*
X191753571Y-58427380D01*
X191658333Y-58379761D01*
X191563095Y-58284523D01*
X191515476Y-58094047D01*
X191515476Y-57760714D01*
X191563095Y-57570238D01*
X191658333Y-57475000D01*
X191753571Y-57427380D01*
X172515476Y-58577380D02*
X172515476Y-57577380D01*
X173086904Y-58577380D01*
X173086904Y-57577380D01*
X173753571Y-57577380D02*
X173944047Y-57577380D01*
X174039285Y-57625000D01*
X174134523Y-57720238D01*
X174182142Y-57910714D01*
X174182142Y-58244047D01*
X174134523Y-58434523D01*
X174039285Y-58529761D01*
X173944047Y-58577380D01*
X173753571Y-58577380D01*
X173658333Y-58529761D01*
X173563095Y-58434523D01*
X173515476Y-58244047D01*
X173515476Y-57910714D01*
X173563095Y-57720238D01*
X173658333Y-57625000D01*
X173753571Y-57577380D01*
X97342857Y-83357142D02*
X97042857Y-82928571D01*
X96828571Y-83357142D02*
X96828571Y-82457142D01*
X97171428Y-82457142D01*
X97257142Y-82500000D01*
X97300000Y-82542857D01*
X97342857Y-82628571D01*
X97342857Y-82757142D01*
X97300000Y-82842857D01*
X97257142Y-82885714D01*
X97171428Y-82928571D01*
X96828571Y-82928571D01*
X97685714Y-82542857D02*
X97728571Y-82500000D01*
X97814285Y-82457142D01*
X98028571Y-82457142D01*
X98114285Y-82500000D01*
X98157142Y-82542857D01*
X98200000Y-82628571D01*
X98200000Y-82714285D01*
X98157142Y-82842857D01*
X97642857Y-83357142D01*
X98200000Y-83357142D01*
X98757142Y-82457142D02*
X98842857Y-82457142D01*
X98928571Y-82500000D01*
X98971428Y-82542857D01*
X99014285Y-82628571D01*
X99057142Y-82800000D01*
X99057142Y-83014285D01*
X99014285Y-83185714D01*
X98971428Y-83271428D01*
X98928571Y-83314285D01*
X98842857Y-83357142D01*
X98757142Y-83357142D01*
X98671428Y-83314285D01*
X98628571Y-83271428D01*
X98585714Y-83185714D01*
X98542857Y-83014285D01*
X98542857Y-82800000D01*
X98585714Y-82628571D01*
X98628571Y-82542857D01*
X98671428Y-82500000D01*
X98757142Y-82457142D01*
X99357142Y-82457142D02*
X99957142Y-83357142D01*
X99957142Y-82457142D02*
X99357142Y-83357142D01*
D13*
X112202380Y-90490476D02*
X112202380Y-91061904D01*
X112202380Y-90776190D02*
X111202380Y-90776190D01*
X111345238Y-90871428D01*
X111440476Y-90966666D01*
X111488095Y-91061904D01*
X111202380Y-89871428D02*
X111202380Y-89776190D01*
X111250000Y-89680952D01*
X111297619Y-89633333D01*
X111392857Y-89585714D01*
X111583333Y-89538095D01*
X111821428Y-89538095D01*
X112011904Y-89585714D01*
X112107142Y-89633333D01*
X112154761Y-89680952D01*
X112202380Y-89776190D01*
X112202380Y-89871428D01*
X112154761Y-89966666D01*
X112107142Y-90014285D01*
X112011904Y-90061904D01*
X111821428Y-90109523D01*
X111583333Y-90109523D01*
X111392857Y-90061904D01*
X111297619Y-90014285D01*
X111250000Y-89966666D01*
X111202380Y-89871428D01*
X112202380Y-89109523D02*
X111202380Y-89109523D01*
X112202380Y-88538095D02*
X111630952Y-88966666D01*
X111202380Y-88538095D02*
X111773809Y-89109523D01*
D11*
X194610714Y-77600000D02*
X194682142Y-77671428D01*
X194753571Y-77885714D01*
X194753571Y-78028571D01*
X194682142Y-78242857D01*
X194539285Y-78385714D01*
X194396428Y-78457142D01*
X194110714Y-78528571D01*
X193896428Y-78528571D01*
X193610714Y-78457142D01*
X193467857Y-78385714D01*
X193325000Y-78242857D01*
X193253571Y-78028571D01*
X193253571Y-77885714D01*
X193325000Y-77671428D01*
X193396428Y-77600000D01*
X194325000Y-77028571D02*
X194325000Y-76314285D01*
X194753571Y-77171428D02*
X193253571Y-76671428D01*
X194753571Y-76171428D01*
X193253571Y-75671428D02*
X194467857Y-75671428D01*
X194610714Y-75600000D01*
X194682142Y-75528571D01*
X194753571Y-75385714D01*
X194753571Y-75100000D01*
X194682142Y-74957142D01*
X194610714Y-74885714D01*
X194467857Y-74814285D01*
X193253571Y-74814285D01*
X193253571Y-74314285D02*
X193253571Y-73457142D01*
X194753571Y-73885714D02*
X193253571Y-73885714D01*
X194753571Y-72957142D02*
X193253571Y-72957142D01*
X193253571Y-71957142D02*
X193253571Y-71671428D01*
X193325000Y-71528571D01*
X193467857Y-71385714D01*
X193753571Y-71314285D01*
X194253571Y-71314285D01*
X194539285Y-71385714D01*
X194682142Y-71528571D01*
X194753571Y-71671428D01*
X194753571Y-71957142D01*
X194682142Y-72100000D01*
X194539285Y-72242857D01*
X194253571Y-72314285D01*
X193753571Y-72314285D01*
X193467857Y-72242857D01*
X193325000Y-72100000D01*
X193253571Y-71957142D01*
X194753571Y-70671428D02*
X193253571Y-70671428D01*
X194753571Y-69814285D01*
X193253571Y-69814285D01*
X194610714Y-69100000D02*
X194682142Y-69028571D01*
X194753571Y-69100000D01*
X194682142Y-69171428D01*
X194610714Y-69100000D01*
X194753571Y-69100000D01*
X194182142Y-69100000D02*
X193325000Y-69171428D01*
X193253571Y-69100000D01*
X193325000Y-69028571D01*
X194182142Y-69100000D01*
X193253571Y-69100000D01*
X194325000Y-67314285D02*
X194325000Y-66600000D01*
X194753571Y-67457142D02*
X193253571Y-66957142D01*
X194753571Y-66457142D01*
X194610714Y-65100000D02*
X194682142Y-65171428D01*
X194753571Y-65385714D01*
X194753571Y-65528571D01*
X194682142Y-65742857D01*
X194539285Y-65885714D01*
X194396428Y-65957142D01*
X194110714Y-66028571D01*
X193896428Y-66028571D01*
X193610714Y-65957142D01*
X193467857Y-65885714D01*
X193325000Y-65742857D01*
X193253571Y-65528571D01*
X193253571Y-65385714D01*
X193325000Y-65171428D01*
X193396428Y-65100000D01*
X193253571Y-63528571D02*
X194753571Y-63028571D01*
X193253571Y-62528571D01*
X194753571Y-61814285D02*
X194682142Y-61957142D01*
X194610714Y-62028571D01*
X194467857Y-62100000D01*
X194039285Y-62100000D01*
X193896428Y-62028571D01*
X193825000Y-61957142D01*
X193753571Y-61814285D01*
X193753571Y-61600000D01*
X193825000Y-61457142D01*
X193896428Y-61385714D01*
X194039285Y-61314285D01*
X194467857Y-61314285D01*
X194610714Y-61385714D01*
X194682142Y-61457142D01*
X194753571Y-61600000D01*
X194753571Y-61814285D01*
X194753571Y-60457142D02*
X194682142Y-60600000D01*
X194539285Y-60671428D01*
X193253571Y-60671428D01*
X193753571Y-60100000D02*
X193753571Y-59528571D01*
X193253571Y-59885714D02*
X194539285Y-59885714D01*
X194682142Y-59814285D01*
X194753571Y-59671428D01*
X194753571Y-59528571D01*
X194753571Y-58385714D02*
X193967857Y-58385714D01*
X193825000Y-58457142D01*
X193753571Y-58600000D01*
X193753571Y-58885714D01*
X193825000Y-59028571D01*
X194682142Y-58385714D02*
X194753571Y-58528571D01*
X194753571Y-58885714D01*
X194682142Y-59028571D01*
X194539285Y-59100000D01*
X194396428Y-59100000D01*
X194253571Y-59028571D01*
X194182142Y-58885714D01*
X194182142Y-58528571D01*
X194110714Y-58385714D01*
X193753571Y-57028571D02*
X194967857Y-57028571D01*
X195110714Y-57100000D01*
X195182142Y-57171428D01*
X195253571Y-57314285D01*
X195253571Y-57528571D01*
X195182142Y-57671428D01*
X194682142Y-57028571D02*
X194753571Y-57171428D01*
X194753571Y-57457142D01*
X194682142Y-57600000D01*
X194610714Y-57671428D01*
X194467857Y-57742857D01*
X194039285Y-57742857D01*
X193896428Y-57671428D01*
X193825000Y-57600000D01*
X193753571Y-57457142D01*
X193753571Y-57171428D01*
X193825000Y-57028571D01*
X194682142Y-55742857D02*
X194753571Y-55885714D01*
X194753571Y-56171428D01*
X194682142Y-56314285D01*
X194539285Y-56385714D01*
X193967857Y-56385714D01*
X193825000Y-56314285D01*
X193753571Y-56171428D01*
X193753571Y-55885714D01*
X193825000Y-55742857D01*
X193967857Y-55671428D01*
X194110714Y-55671428D01*
X194253571Y-56385714D01*
D12*
X108577380Y-60620238D02*
X109577380Y-60286904D01*
X108577380Y-59953571D01*
X109577380Y-59620238D02*
X108577380Y-59620238D01*
X109577380Y-59144047D02*
X108577380Y-59144047D01*
X109577380Y-58572619D01*
X108577380Y-58572619D01*
X108625000Y-54586904D02*
X108577380Y-54682142D01*
X108577380Y-54825000D01*
X108625000Y-54967857D01*
X108720238Y-55063095D01*
X108815476Y-55110714D01*
X109005952Y-55158333D01*
X109148809Y-55158333D01*
X109339285Y-55110714D01*
X109434523Y-55063095D01*
X109529761Y-54967857D01*
X109577380Y-54825000D01*
X109577380Y-54729761D01*
X109529761Y-54586904D01*
X109482142Y-54539285D01*
X109148809Y-54539285D01*
X109148809Y-54729761D01*
X109577380Y-54110714D02*
X108577380Y-54110714D01*
X109577380Y-53539285D01*
X108577380Y-53539285D01*
X109577380Y-53063095D02*
X108577380Y-53063095D01*
X108577380Y-52825000D01*
X108625000Y-52682142D01*
X108720238Y-52586904D01*
X108815476Y-52539285D01*
X109005952Y-52491666D01*
X109148809Y-52491666D01*
X109339285Y-52539285D01*
X109434523Y-52586904D01*
X109529761Y-52682142D01*
X109577380Y-52825000D01*
X109577380Y-53063095D01*
X147957142Y-69307142D02*
X147057142Y-69307142D01*
X147057142Y-69092857D01*
X147100000Y-68964285D01*
X147185714Y-68878571D01*
X147271428Y-68835714D01*
X147442857Y-68792857D01*
X147571428Y-68792857D01*
X147742857Y-68835714D01*
X147828571Y-68878571D01*
X147914285Y-68964285D01*
X147957142Y-69092857D01*
X147957142Y-69307142D01*
X147957142Y-68021428D02*
X147485714Y-68021428D01*
X147400000Y-68064285D01*
X147357142Y-68150000D01*
X147357142Y-68321428D01*
X147400000Y-68407142D01*
X147914285Y-68021428D02*
X147957142Y-68107142D01*
X147957142Y-68321428D01*
X147914285Y-68407142D01*
X147828571Y-68450000D01*
X147742857Y-68450000D01*
X147657142Y-68407142D01*
X147614285Y-68321428D01*
X147614285Y-68107142D01*
X147571428Y-68021428D01*
X147357142Y-67721428D02*
X147357142Y-67378571D01*
X147057142Y-67592857D02*
X147828571Y-67592857D01*
X147914285Y-67550000D01*
X147957142Y-67464285D01*
X147957142Y-67378571D01*
X147957142Y-66692857D02*
X147485714Y-66692857D01*
X147400000Y-66735714D01*
X147357142Y-66821428D01*
X147357142Y-66992857D01*
X147400000Y-67078571D01*
X147914285Y-66692857D02*
X147957142Y-66778571D01*
X147957142Y-66992857D01*
X147914285Y-67078571D01*
X147828571Y-67121428D01*
X147742857Y-67121428D01*
X147657142Y-67078571D01*
X147614285Y-66992857D01*
X147614285Y-66778571D01*
X147571428Y-66692857D01*
X144557142Y-67671428D02*
X144557142Y-68100000D01*
X144985714Y-68142857D01*
X144942857Y-68100000D01*
X144900000Y-68014285D01*
X144900000Y-67800000D01*
X144942857Y-67714285D01*
X144985714Y-67671428D01*
X145071428Y-67628571D01*
X145285714Y-67628571D01*
X145371428Y-67671428D01*
X145414285Y-67714285D01*
X145457142Y-67800000D01*
X145457142Y-68014285D01*
X145414285Y-68100000D01*
X145371428Y-68142857D01*
X144557142Y-67371428D02*
X145457142Y-67071428D01*
X144557142Y-66771428D01*
X152200000Y-68585714D02*
X152157142Y-68671428D01*
X152157142Y-68800000D01*
X152200000Y-68928571D01*
X152285714Y-69014285D01*
X152371428Y-69057142D01*
X152542857Y-69100000D01*
X152671428Y-69100000D01*
X152842857Y-69057142D01*
X152928571Y-69014285D01*
X153014285Y-68928571D01*
X153057142Y-68800000D01*
X153057142Y-68714285D01*
X153014285Y-68585714D01*
X152971428Y-68542857D01*
X152671428Y-68542857D01*
X152671428Y-68714285D01*
X153057142Y-68157142D02*
X152157142Y-68157142D01*
X153057142Y-67642857D01*
X152157142Y-67642857D01*
X153057142Y-67214285D02*
X152157142Y-67214285D01*
X152157142Y-67000000D01*
X152200000Y-66871428D01*
X152285714Y-66785714D01*
X152371428Y-66742857D01*
X152542857Y-66700000D01*
X152671428Y-66700000D01*
X152842857Y-66742857D01*
X152928571Y-66785714D01*
X153014285Y-66871428D01*
X153057142Y-67000000D01*
X153057142Y-67214285D01*
X120128571Y-84564285D02*
X120257142Y-84607142D01*
X120471428Y-84607142D01*
X120557142Y-84564285D01*
X120600000Y-84521428D01*
X120642857Y-84435714D01*
X120642857Y-84350000D01*
X120600000Y-84264285D01*
X120557142Y-84221428D01*
X120471428Y-84178571D01*
X120300000Y-84135714D01*
X120214285Y-84092857D01*
X120171428Y-84050000D01*
X120128571Y-83964285D01*
X120128571Y-83878571D01*
X120171428Y-83792857D01*
X120214285Y-83750000D01*
X120300000Y-83707142D01*
X120514285Y-83707142D01*
X120642857Y-83750000D01*
X121028571Y-84607142D02*
X121028571Y-83707142D01*
X121242857Y-83707142D01*
X121371428Y-83750000D01*
X121457142Y-83835714D01*
X121500000Y-83921428D01*
X121542857Y-84092857D01*
X121542857Y-84221428D01*
X121500000Y-84392857D01*
X121457142Y-84478571D01*
X121371428Y-84564285D01*
X121242857Y-84607142D01*
X121028571Y-84607142D01*
X122357142Y-84607142D02*
X121928571Y-84607142D01*
X121928571Y-83707142D01*
X120007142Y-81764285D02*
X120135714Y-81807142D01*
X120350000Y-81807142D01*
X120435714Y-81764285D01*
X120478571Y-81721428D01*
X120521428Y-81635714D01*
X120521428Y-81550000D01*
X120478571Y-81464285D01*
X120435714Y-81421428D01*
X120350000Y-81378571D01*
X120178571Y-81335714D01*
X120092857Y-81292857D01*
X120050000Y-81250000D01*
X120007142Y-81164285D01*
X120007142Y-81078571D01*
X120050000Y-80992857D01*
X120092857Y-80950000D01*
X120178571Y-80907142D01*
X120392857Y-80907142D01*
X120521428Y-80950000D01*
X120907142Y-81807142D02*
X120907142Y-80907142D01*
X121121428Y-80907142D01*
X121250000Y-80950000D01*
X121335714Y-81035714D01*
X121378571Y-81121428D01*
X121421428Y-81292857D01*
X121421428Y-81421428D01*
X121378571Y-81592857D01*
X121335714Y-81678571D01*
X121250000Y-81764285D01*
X121121428Y-81807142D01*
X120907142Y-81807142D01*
X121764285Y-81550000D02*
X122192857Y-81550000D01*
X121678571Y-81807142D02*
X121978571Y-80907142D01*
X122278571Y-81807142D01*
X119885714Y-78707142D02*
X120442857Y-78707142D01*
X120142857Y-79050000D01*
X120271428Y-79050000D01*
X120357142Y-79092857D01*
X120400000Y-79135714D01*
X120442857Y-79221428D01*
X120442857Y-79435714D01*
X120400000Y-79521428D01*
X120357142Y-79564285D01*
X120271428Y-79607142D01*
X120014285Y-79607142D01*
X119928571Y-79564285D01*
X119885714Y-79521428D01*
X120700000Y-78707142D02*
X121000000Y-79607142D01*
X121300000Y-78707142D01*
X121514285Y-78707142D02*
X122071428Y-78707142D01*
X121771428Y-79050000D01*
X121900000Y-79050000D01*
X121985714Y-79092857D01*
X122028571Y-79135714D01*
X122071428Y-79221428D01*
X122071428Y-79435714D01*
X122028571Y-79521428D01*
X121985714Y-79564285D01*
X121900000Y-79607142D01*
X121642857Y-79607142D01*
X121557142Y-79564285D01*
X121514285Y-79521428D01*
X120414285Y-76150000D02*
X120328571Y-76107142D01*
X120200000Y-76107142D01*
X120071428Y-76150000D01*
X119985714Y-76235714D01*
X119942857Y-76321428D01*
X119900000Y-76492857D01*
X119900000Y-76621428D01*
X119942857Y-76792857D01*
X119985714Y-76878571D01*
X120071428Y-76964285D01*
X120200000Y-77007142D01*
X120285714Y-77007142D01*
X120414285Y-76964285D01*
X120457142Y-76921428D01*
X120457142Y-76621428D01*
X120285714Y-76621428D01*
X120842857Y-77007142D02*
X120842857Y-76107142D01*
X121357142Y-77007142D01*
X121357142Y-76107142D01*
X121785714Y-77007142D02*
X121785714Y-76107142D01*
X122000000Y-76107142D01*
X122128571Y-76150000D01*
X122214285Y-76235714D01*
X122257142Y-76321428D01*
X122300000Y-76492857D01*
X122300000Y-76621428D01*
X122257142Y-76792857D01*
X122214285Y-76878571D01*
X122128571Y-76964285D01*
X122000000Y-77007142D01*
X121785714Y-77007142D01*
X160811904Y-91052380D02*
X161430952Y-91052380D01*
X161097619Y-91433333D01*
X161240476Y-91433333D01*
X161335714Y-91480952D01*
X161383333Y-91528571D01*
X161430952Y-91623809D01*
X161430952Y-91861904D01*
X161383333Y-91957142D01*
X161335714Y-92004761D01*
X161240476Y-92052380D01*
X160954761Y-92052380D01*
X160859523Y-92004761D01*
X160811904Y-91957142D01*
X161716666Y-91052380D02*
X162050000Y-92052380D01*
X162383333Y-91052380D01*
X162621428Y-91052380D02*
X163240476Y-91052380D01*
X162907142Y-91433333D01*
X163050000Y-91433333D01*
X163145238Y-91480952D01*
X163192857Y-91528571D01*
X163240476Y-91623809D01*
X163240476Y-91861904D01*
X163192857Y-91957142D01*
X163145238Y-92004761D01*
X163050000Y-92052380D01*
X162764285Y-92052380D01*
X162669047Y-92004761D01*
X162621428Y-91957142D01*
X161288095Y-88600000D02*
X161192857Y-88552380D01*
X161050000Y-88552380D01*
X160907142Y-88600000D01*
X160811904Y-88695238D01*
X160764285Y-88790476D01*
X160716666Y-88980952D01*
X160716666Y-89123809D01*
X160764285Y-89314285D01*
X160811904Y-89409523D01*
X160907142Y-89504761D01*
X161050000Y-89552380D01*
X161145238Y-89552380D01*
X161288095Y-89504761D01*
X161335714Y-89457142D01*
X161335714Y-89123809D01*
X161145238Y-89123809D01*
X161764285Y-89552380D02*
X161764285Y-88552380D01*
X162335714Y-89552380D01*
X162335714Y-88552380D01*
X162811904Y-89552380D02*
X162811904Y-88552380D01*
X163050000Y-88552380D01*
X163192857Y-88600000D01*
X163288095Y-88695238D01*
X163335714Y-88790476D01*
X163383333Y-88980952D01*
X163383333Y-89123809D01*
X163335714Y-89314285D01*
X163288095Y-89409523D01*
X163192857Y-89504761D01*
X163050000Y-89552380D01*
X162811904Y-89552380D01*
X161383333Y-86952380D02*
X161050000Y-86476190D01*
X160811904Y-86952380D02*
X160811904Y-85952380D01*
X161192857Y-85952380D01*
X161288095Y-86000000D01*
X161335714Y-86047619D01*
X161383333Y-86142857D01*
X161383333Y-86285714D01*
X161335714Y-86380952D01*
X161288095Y-86428571D01*
X161192857Y-86476190D01*
X160811904Y-86476190D01*
X161716666Y-85952380D02*
X162383333Y-86952380D01*
X162383333Y-85952380D02*
X161716666Y-86952380D01*
X160588095Y-83352380D02*
X161159523Y-83352380D01*
X160873809Y-84352380D02*
X160873809Y-83352380D01*
X161397619Y-83352380D02*
X162064285Y-84352380D01*
X162064285Y-83352380D02*
X161397619Y-84352380D01*
D11*
X127442857Y-95742857D02*
X127942857Y-95742857D01*
X128157142Y-96528571D02*
X127442857Y-96528571D01*
X127442857Y-95028571D01*
X128157142Y-95028571D01*
X129014285Y-96528571D02*
X128871428Y-96457142D01*
X128800000Y-96314285D01*
X128800000Y-95028571D01*
X130157142Y-96457142D02*
X130014285Y-96528571D01*
X129728571Y-96528571D01*
X129585714Y-96457142D01*
X129514285Y-96314285D01*
X129514285Y-95742857D01*
X129585714Y-95600000D01*
X129728571Y-95528571D01*
X130014285Y-95528571D01*
X130157142Y-95600000D01*
X130228571Y-95742857D01*
X130228571Y-95885714D01*
X129514285Y-96028571D01*
X131514285Y-96457142D02*
X131371428Y-96528571D01*
X131085714Y-96528571D01*
X130942857Y-96457142D01*
X130871428Y-96385714D01*
X130800000Y-96242857D01*
X130800000Y-95814285D01*
X130871428Y-95671428D01*
X130942857Y-95600000D01*
X131085714Y-95528571D01*
X131371428Y-95528571D01*
X131514285Y-95600000D01*
X131942857Y-95528571D02*
X132514285Y-95528571D01*
X132157142Y-95028571D02*
X132157142Y-96314285D01*
X132228571Y-96457142D01*
X132371428Y-96528571D01*
X132514285Y-96528571D01*
X133014285Y-96528571D02*
X133014285Y-95528571D01*
X133014285Y-95814285D02*
X133085714Y-95671428D01*
X133157142Y-95600000D01*
X133300000Y-95528571D01*
X133442857Y-95528571D01*
X134585714Y-96528571D02*
X134585714Y-95742857D01*
X134514285Y-95600000D01*
X134371428Y-95528571D01*
X134085714Y-95528571D01*
X133942857Y-95600000D01*
X134585714Y-96457142D02*
X134442857Y-96528571D01*
X134085714Y-96528571D01*
X133942857Y-96457142D01*
X133871428Y-96314285D01*
X133871428Y-96171428D01*
X133942857Y-96028571D01*
X134085714Y-95957142D01*
X134442857Y-95957142D01*
X134585714Y-95885714D01*
X136228571Y-95028571D02*
X136728571Y-96528571D01*
X137228571Y-95028571D01*
X138300000Y-96457142D02*
X138157142Y-96528571D01*
X137871428Y-96528571D01*
X137728571Y-96457142D01*
X137657142Y-96314285D01*
X137657142Y-95742857D01*
X137728571Y-95600000D01*
X137871428Y-95528571D01*
X138157142Y-95528571D01*
X138300000Y-95600000D01*
X138371428Y-95742857D01*
X138371428Y-95885714D01*
X137657142Y-96028571D01*
X139014285Y-96528571D02*
X139014285Y-95528571D01*
X139014285Y-95814285D02*
X139085714Y-95671428D01*
X139157142Y-95600000D01*
X139300000Y-95528571D01*
X139442857Y-95528571D01*
X139942857Y-96385714D02*
X140014285Y-96457142D01*
X139942857Y-96528571D01*
X139871428Y-96457142D01*
X139942857Y-96385714D01*
X139942857Y-96528571D01*
X142585714Y-96528571D02*
X141728571Y-96528571D01*
X142157142Y-96528571D02*
X142157142Y-95028571D01*
X142014285Y-95242857D01*
X141871428Y-95385714D01*
X141728571Y-95457142D01*
X143228571Y-96385714D02*
X143300000Y-96457142D01*
X143228571Y-96528571D01*
X143157142Y-96457142D01*
X143228571Y-96385714D01*
X143228571Y-96528571D01*
X144228571Y-95028571D02*
X144371428Y-95028571D01*
X144514285Y-95100000D01*
X144585714Y-95171428D01*
X144657142Y-95314285D01*
X144728571Y-95600000D01*
X144728571Y-95957142D01*
X144657142Y-96242857D01*
X144585714Y-96385714D01*
X144514285Y-96457142D01*
X144371428Y-96528571D01*
X144228571Y-96528571D01*
X144085714Y-96457142D01*
X144014285Y-96385714D01*
X143942857Y-96242857D01*
X143871428Y-95957142D01*
X143871428Y-95600000D01*
X143942857Y-95314285D01*
X144014285Y-95171428D01*
X144085714Y-95100000D01*
X144228571Y-95028571D01*
D10*
X101640000Y-133400000D02*
X101640000Y-135200000D01*
X104860000Y-135200000D02*
X104860000Y-132750000D01*
X122534000Y-124596000D02*
X122534000Y-123336000D01*
X122534000Y-117776000D02*
X122534000Y-119036000D01*
X118774000Y-124596000D02*
X122534000Y-124596000D01*
X116524000Y-117776000D02*
X122534000Y-117776000D01*
X130718000Y-116360000D02*
G75*
G03*
X130718000Y-116360000I-950000J0D01*
G01*
X99395276Y-140872500D02*
X99904724Y-140872500D01*
X99395276Y-139827500D02*
X99904724Y-139827500D01*
X177650000Y-136525000D02*
G75*
G03*
X177650000Y-136525000I-950000J0D01*
G01*
X111050000Y-111925000D02*
X108450000Y-111925000D01*
X111050000Y-97225000D02*
X111050000Y-111925000D01*
X101850000Y-111925000D02*
X101850000Y-110025000D01*
X104550000Y-111925000D02*
X101850000Y-111925000D01*
X101850000Y-97225000D02*
X111050000Y-97225000D01*
X101850000Y-106025000D02*
X101850000Y-97225000D01*
X111250000Y-111075000D02*
X111250000Y-112125000D01*
X110200000Y-112125000D02*
X111250000Y-112125000D01*
X167570000Y-129500000D02*
X174070000Y-129500000D01*
X158670000Y-129500000D02*
X165170000Y-129500000D01*
X158670000Y-129500000D02*
X158670000Y-110300000D01*
X158670000Y-110300000D02*
X174070000Y-110300000D01*
X174070000Y-110300000D02*
X174070000Y-129500000D01*
X170670000Y-113800000D02*
X168370000Y-113800000D01*
X162070000Y-113800000D02*
X164370000Y-113800000D01*
X172370000Y-124300000D02*
X172370000Y-122000000D01*
X166370000Y-125400000D02*
X166370000Y-126300000D01*
X160370000Y-122000000D02*
X160370000Y-124300000D01*
X166370000Y-118500000D02*
X166370000Y-117000000D01*
X166370000Y-117000000D02*
X163670000Y-112500000D01*
X170070000Y-118500000D02*
X170070000Y-125400000D01*
X166370000Y-118500000D02*
X170070000Y-118500000D01*
X166370000Y-125400000D02*
X170070000Y-125400000D01*
X160370000Y-122000000D02*
X164870000Y-122000000D01*
X167870000Y-122000000D02*
X172370000Y-122000000D01*
X167870000Y-119500000D02*
X164870000Y-124500000D01*
X167870000Y-124500000D02*
X164870000Y-124500000D01*
X164870000Y-124500000D02*
X164870000Y-119500000D01*
X164870000Y-119500000D02*
X167870000Y-119500000D01*
X167870000Y-119500000D02*
X167870000Y-124500000D01*
X182346724Y-140504500D02*
X181837276Y-140504500D01*
X182346724Y-139459500D02*
X181837276Y-139459500D01*
X184742000Y-138540000D02*
X184742000Y-139950000D01*
X187062000Y-139950000D02*
X187062000Y-137920000D01*
X187062000Y-139950000D02*
X186402000Y-139950000D01*
X185402000Y-139950000D02*
X184742000Y-139950000D01*
X184659000Y-146040000D02*
X184659000Y-148500000D01*
X184659000Y-148500000D02*
X186129000Y-148500000D01*
X186129000Y-148500000D02*
X186129000Y-146040000D01*
X191514000Y-136084000D02*
X194064000Y-136084000D01*
X191514000Y-137784000D02*
X194064000Y-137784000D01*
X191514000Y-136084000D02*
X191514000Y-137784000D01*
X188704000Y-139950000D02*
X188044000Y-139950000D01*
X190364000Y-139950000D02*
X189704000Y-139950000D01*
X190364000Y-139950000D02*
X190364000Y-137920000D01*
X188044000Y-138540000D02*
X188044000Y-139950000D01*
X99395276Y-141377500D02*
X99904724Y-141377500D01*
X99395276Y-142422500D02*
X99904724Y-142422500D01*
X114410000Y-135523752D02*
X114410000Y-134101248D01*
X111690000Y-135523752D02*
X111690000Y-134101248D01*
X155811000Y-109096000D02*
X155811000Y-107846000D01*
X154561000Y-109096000D02*
X155811000Y-109096000D01*
X148661000Y-103596000D02*
X151711000Y-103596000D01*
X148661000Y-106546000D02*
X148661000Y-103596000D01*
X147911000Y-106546000D02*
X148661000Y-106546000D01*
X154761000Y-103596000D02*
X151711000Y-103596000D01*
X154761000Y-106546000D02*
X154761000Y-103596000D01*
X155511000Y-106546000D02*
X154761000Y-106546000D01*
X147911000Y-108796000D02*
X149711000Y-108796000D01*
X147911000Y-108046000D02*
X147911000Y-108796000D01*
X149711000Y-108046000D02*
X147911000Y-108046000D01*
X149711000Y-108796000D02*
X149711000Y-108046000D01*
X153711000Y-108796000D02*
X155511000Y-108796000D01*
X153711000Y-108046000D02*
X153711000Y-108796000D01*
X155511000Y-108046000D02*
X153711000Y-108046000D01*
X155511000Y-108796000D02*
X155511000Y-108046000D01*
X151211000Y-108796000D02*
X152211000Y-108796000D01*
X151211000Y-108046000D02*
X151211000Y-108796000D01*
X152211000Y-108046000D02*
X151211000Y-108046000D01*
X152211000Y-108796000D02*
X152211000Y-108046000D01*
X147901000Y-108806000D02*
X155521000Y-108806000D01*
X147901000Y-102836000D02*
X147901000Y-108806000D01*
X155521000Y-102836000D02*
X147901000Y-102836000D01*
X155521000Y-108806000D02*
X155521000Y-102836000D01*
X148616000Y-110910000D02*
X148616000Y-111840000D01*
X148616000Y-114070000D02*
X148616000Y-113140000D01*
X148616000Y-114070000D02*
X150776000Y-114070000D01*
X148616000Y-110910000D02*
X150076000Y-110910000D01*
X124696267Y-126485000D02*
X124403733Y-126485000D01*
X124696267Y-125465000D02*
X124403733Y-125465000D01*
X129395000Y-109096000D02*
X129395000Y-107846000D01*
X128145000Y-109096000D02*
X129395000Y-109096000D01*
X122245000Y-103596000D02*
X125295000Y-103596000D01*
X122245000Y-106546000D02*
X122245000Y-103596000D01*
X121495000Y-106546000D02*
X122245000Y-106546000D01*
X128345000Y-103596000D02*
X125295000Y-103596000D01*
X128345000Y-106546000D02*
X128345000Y-103596000D01*
X129095000Y-106546000D02*
X128345000Y-106546000D01*
X121495000Y-108796000D02*
X123295000Y-108796000D01*
X121495000Y-108046000D02*
X121495000Y-108796000D01*
X123295000Y-108046000D02*
X121495000Y-108046000D01*
X123295000Y-108796000D02*
X123295000Y-108046000D01*
X127295000Y-108796000D02*
X129095000Y-108796000D01*
X127295000Y-108046000D02*
X127295000Y-108796000D01*
X129095000Y-108046000D02*
X127295000Y-108046000D01*
X129095000Y-108796000D02*
X129095000Y-108046000D01*
X124795000Y-108796000D02*
X125795000Y-108796000D01*
X124795000Y-108046000D02*
X124795000Y-108796000D01*
X125795000Y-108046000D02*
X124795000Y-108046000D01*
X125795000Y-108796000D02*
X125795000Y-108046000D01*
X121485000Y-108806000D02*
X129105000Y-108806000D01*
X121485000Y-102836000D02*
X121485000Y-108806000D01*
X129105000Y-102836000D02*
X121485000Y-102836000D01*
X129105000Y-108806000D02*
X129105000Y-102836000D01*
X99333767Y-127090000D02*
X99041233Y-127090000D01*
X99333767Y-128110000D02*
X99041233Y-128110000D01*
X99904724Y-136727500D02*
X99395276Y-136727500D01*
X99904724Y-137772500D02*
X99395276Y-137772500D01*
X108970000Y-120480000D02*
X114170000Y-120480000D01*
X108970000Y-120420000D02*
X108970000Y-120480000D01*
X114170000Y-117820000D02*
X114170000Y-120480000D01*
X108970000Y-120420000D02*
X111570000Y-120420000D01*
X111570000Y-120420000D02*
X111570000Y-117820000D01*
X111570000Y-117820000D02*
X114170000Y-117820000D01*
X108970000Y-119150000D02*
X108970000Y-117820000D01*
X108970000Y-117820000D02*
X110300000Y-117820000D01*
X146631000Y-108806000D02*
X146631000Y-102836000D01*
X146631000Y-102836000D02*
X139011000Y-102836000D01*
X139011000Y-102836000D02*
X139011000Y-108806000D01*
X139011000Y-108806000D02*
X146631000Y-108806000D01*
X143321000Y-108796000D02*
X143321000Y-108046000D01*
X143321000Y-108046000D02*
X142321000Y-108046000D01*
X142321000Y-108046000D02*
X142321000Y-108796000D01*
X142321000Y-108796000D02*
X143321000Y-108796000D01*
X146621000Y-108796000D02*
X146621000Y-108046000D01*
X146621000Y-108046000D02*
X144821000Y-108046000D01*
X144821000Y-108046000D02*
X144821000Y-108796000D01*
X144821000Y-108796000D02*
X146621000Y-108796000D01*
X140821000Y-108796000D02*
X140821000Y-108046000D01*
X140821000Y-108046000D02*
X139021000Y-108046000D01*
X139021000Y-108046000D02*
X139021000Y-108796000D01*
X139021000Y-108796000D02*
X140821000Y-108796000D01*
X146621000Y-106546000D02*
X145871000Y-106546000D01*
X145871000Y-106546000D02*
X145871000Y-103596000D01*
X145871000Y-103596000D02*
X142821000Y-103596000D01*
X139021000Y-106546000D02*
X139771000Y-106546000D01*
X139771000Y-106546000D02*
X139771000Y-103596000D01*
X139771000Y-103596000D02*
X142821000Y-103596000D01*
X145671000Y-109096000D02*
X146921000Y-109096000D01*
X146921000Y-109096000D02*
X146921000Y-107846000D01*
X100498752Y-128840000D02*
X99076248Y-128840000D01*
X100498752Y-131560000D02*
X99076248Y-131560000D01*
X158670000Y-108320000D02*
X173910000Y-108320000D01*
X158670000Y-100700000D02*
X173910000Y-100700000D01*
X158670000Y-107050000D02*
X173910000Y-107050000D01*
X173910000Y-108320000D02*
X173910000Y-100700000D01*
X158670000Y-108320000D02*
X158670000Y-100700000D01*
X185870000Y-119500000D02*
X185870000Y-124500000D01*
X182870000Y-119500000D02*
X185870000Y-119500000D01*
X182870000Y-124500000D02*
X182870000Y-119500000D01*
X185870000Y-124500000D02*
X182870000Y-124500000D01*
X185870000Y-119500000D02*
X182870000Y-124500000D01*
X185870000Y-122000000D02*
X190370000Y-122000000D01*
X178370000Y-122000000D02*
X182870000Y-122000000D01*
X184370000Y-125400000D02*
X188070000Y-125400000D01*
X184370000Y-118500000D02*
X188070000Y-118500000D01*
X188070000Y-118500000D02*
X188070000Y-125400000D01*
X184370000Y-117000000D02*
X181670000Y-112500000D01*
X184370000Y-118500000D02*
X184370000Y-117000000D01*
X178370000Y-122000000D02*
X178370000Y-124300000D01*
X184370000Y-125400000D02*
X184370000Y-126300000D01*
X190370000Y-124300000D02*
X190370000Y-122000000D01*
X180070000Y-113800000D02*
X182370000Y-113800000D01*
X188670000Y-113800000D02*
X186370000Y-113800000D01*
X192070000Y-110300000D02*
X192070000Y-129500000D01*
X176670000Y-110300000D02*
X192070000Y-110300000D01*
X176670000Y-129500000D02*
X176670000Y-110300000D01*
X176670000Y-129500000D02*
X183170000Y-129500000D01*
X185570000Y-129500000D02*
X192070000Y-129500000D01*
X99395276Y-136247500D02*
X99904724Y-136247500D01*
X99395276Y-135202500D02*
X99904724Y-135202500D01*
X152620000Y-139410000D02*
X155280000Y-139410000D01*
X152620000Y-131730000D02*
X152620000Y-139410000D01*
X155280000Y-131730000D02*
X155280000Y-139410000D01*
X152620000Y-131730000D02*
X155280000Y-131730000D01*
X152620000Y-130460000D02*
X152620000Y-129130000D01*
X152620000Y-129130000D02*
X153950000Y-129130000D01*
X114200000Y-128700000D02*
X114200000Y-131900000D01*
X114200000Y-131900000D02*
X103600000Y-131900000D01*
X103600000Y-131900000D02*
X103600000Y-128700000D01*
X103600000Y-124500000D02*
X103600000Y-121300000D01*
X103600000Y-121300000D02*
X114200000Y-121300000D01*
X114200000Y-121300000D02*
X114200000Y-124500000D01*
X124433000Y-110544000D02*
X122733000Y-110544000D01*
X118913000Y-110544000D02*
X120613000Y-110544000D01*
X118913000Y-114999563D02*
X118913000Y-110544000D01*
X124433000Y-114999563D02*
X124433000Y-110544000D01*
X123368563Y-116064000D02*
X122733000Y-116064000D01*
X119977437Y-116064000D02*
X120613000Y-116064000D01*
X119977437Y-116064000D02*
X118913000Y-114999563D01*
X123368563Y-116064000D02*
X124433000Y-114999563D01*
X119988000Y-116929000D02*
X119988000Y-116304000D01*
X119675500Y-116616500D02*
X120300500Y-116616500D01*
X157120000Y-134170000D02*
X158450000Y-134170000D01*
X157120000Y-135500000D02*
X157120000Y-134170000D01*
X157120000Y-136770000D02*
X159780000Y-136770000D01*
X159780000Y-136770000D02*
X159780000Y-144450000D01*
X157120000Y-136770000D02*
X157120000Y-144450000D01*
X157120000Y-144450000D02*
X159780000Y-144450000D01*
X113288500Y-116616500D02*
X113913500Y-116616500D01*
X113601000Y-116929000D02*
X113601000Y-116304000D01*
X116981563Y-116064000D02*
X118046000Y-114999563D01*
X113590437Y-116064000D02*
X112526000Y-114999563D01*
X113590437Y-116064000D02*
X114226000Y-116064000D01*
X116981563Y-116064000D02*
X116346000Y-116064000D01*
X118046000Y-114999563D02*
X118046000Y-110544000D01*
X112526000Y-114999563D02*
X112526000Y-110544000D01*
X112526000Y-110544000D02*
X114226000Y-110544000D01*
X118046000Y-110544000D02*
X116346000Y-110544000D01*
X119780000Y-126670000D02*
X117120000Y-126670000D01*
X119780000Y-139430000D02*
X119780000Y-126670000D01*
X117120000Y-139430000D02*
X117120000Y-126670000D01*
X119780000Y-139430000D02*
X117120000Y-139430000D01*
X119780000Y-140700000D02*
X119780000Y-142030000D01*
X119780000Y-142030000D02*
X118450000Y-142030000D01*
D14*
G36*
X192698918Y-132697471D02*
G01*
X192699888Y-132655538D01*
X192701365Y-132622416D01*
X192703234Y-132600673D01*
X192705375Y-132592880D01*
X192714204Y-132595739D01*
X192736966Y-132603944D01*
X192772170Y-132616935D01*
X192818325Y-132634154D01*
X192873940Y-132655043D01*
X192937525Y-132679043D01*
X193007588Y-132705595D01*
X193082639Y-132734140D01*
X193099669Y-132740632D01*
X193175461Y-132769449D01*
X193246477Y-132796290D01*
X193311245Y-132820611D01*
X193368294Y-132841866D01*
X193416150Y-132859510D01*
X193453342Y-132872997D01*
X193478399Y-132881783D01*
X193489847Y-132885322D01*
X193490400Y-132885337D01*
X193488461Y-132877138D01*
X193481464Y-132855270D01*
X193470044Y-132821565D01*
X193454839Y-132777857D01*
X193436482Y-132725979D01*
X193415609Y-132667763D01*
X193400455Y-132625910D01*
X193378256Y-132564430D01*
X193358171Y-132508019D01*
X193340833Y-132458516D01*
X193326873Y-132417759D01*
X193316925Y-132387589D01*
X193311620Y-132369843D01*
X193310981Y-132365818D01*
X193319006Y-132368354D01*
X193340855Y-132376945D01*
X193375217Y-132391037D01*
X193420783Y-132410075D01*
X193476241Y-132433507D01*
X193540281Y-132460776D01*
X193611592Y-132491331D01*
X193688863Y-132524617D01*
X193770784Y-132560079D01*
X193776641Y-132562621D01*
X194238589Y-132763138D01*
X194240949Y-132681548D01*
X194242565Y-132647471D01*
X194245033Y-132620936D01*
X194247966Y-132605309D01*
X194249987Y-132602613D01*
X194258394Y-132608432D01*
X194277459Y-132622920D01*
X194305224Y-132644511D01*
X194339729Y-132671638D01*
X194379015Y-132702736D01*
X194421123Y-132736240D01*
X194464095Y-132770582D01*
X194505971Y-132804199D01*
X194544793Y-132835522D01*
X194578601Y-132862988D01*
X194605437Y-132885030D01*
X194623341Y-132900082D01*
X194630354Y-132906578D01*
X194630386Y-132906665D01*
X194622721Y-132909273D01*
X194600838Y-132914659D01*
X194566718Y-132922390D01*
X194522344Y-132932028D01*
X194469697Y-132943138D01*
X194410757Y-132955286D01*
X194389271Y-132959649D01*
X194327666Y-132972140D01*
X194270796Y-132983725D01*
X194220822Y-132993959D01*
X194179906Y-133002399D01*
X194150209Y-133008600D01*
X194133891Y-133012117D01*
X194131928Y-133012582D01*
X194127746Y-133010013D01*
X194133466Y-132997176D01*
X194149506Y-132973320D01*
X194167022Y-132949763D01*
X194188299Y-132921473D01*
X194205214Y-132898341D01*
X194215642Y-132883308D01*
X194217945Y-132879191D01*
X194210507Y-132875449D01*
X194189491Y-132866802D01*
X194156848Y-132853975D01*
X194114527Y-132837689D01*
X194064477Y-132818669D01*
X194008648Y-132797637D01*
X193948990Y-132775317D01*
X193887451Y-132752431D01*
X193825982Y-132729703D01*
X193766532Y-132707857D01*
X193711050Y-132687614D01*
X193661486Y-132669699D01*
X193619790Y-132654835D01*
X193587910Y-132643744D01*
X193567797Y-132637150D01*
X193561379Y-132635640D01*
X193563110Y-132644023D01*
X193569744Y-132665947D01*
X193580617Y-132699407D01*
X193595061Y-132742397D01*
X193612412Y-132792910D01*
X193632003Y-132848942D01*
X193635041Y-132857549D01*
X193654978Y-132914116D01*
X193672930Y-132965332D01*
X193688210Y-133009212D01*
X193700130Y-133043776D01*
X193708003Y-133067041D01*
X193711143Y-133077023D01*
X193711163Y-133077253D01*
X193703079Y-133076061D01*
X193680135Y-133072176D01*
X193643722Y-133065843D01*
X193595232Y-133057310D01*
X193536056Y-133046823D01*
X193467586Y-133034628D01*
X193391212Y-133020973D01*
X193308326Y-133006104D01*
X193220319Y-132990268D01*
X193210533Y-132988504D01*
X193121873Y-132972539D01*
X193038043Y-132957477D01*
X192960454Y-132943570D01*
X192890515Y-132931068D01*
X192829638Y-132920224D01*
X192779232Y-132911288D01*
X192740708Y-132904511D01*
X192715478Y-132900145D01*
X192704950Y-132898440D01*
X192704763Y-132898426D01*
X192702810Y-132890591D01*
X192701110Y-132868812D01*
X192699767Y-132835660D01*
X192698885Y-132793706D01*
X192698570Y-132745644D01*
X192698918Y-132697471D01*
G37*
X192698918Y-132697471D02*
X192699888Y-132655538D01*
X192701365Y-132622416D01*
X192703234Y-132600673D01*
X192705375Y-132592880D01*
X192714204Y-132595739D01*
X192736966Y-132603944D01*
X192772170Y-132616935D01*
X192818325Y-132634154D01*
X192873940Y-132655043D01*
X192937525Y-132679043D01*
X193007588Y-132705595D01*
X193082639Y-132734140D01*
X193099669Y-132740632D01*
X193175461Y-132769449D01*
X193246477Y-132796290D01*
X193311245Y-132820611D01*
X193368294Y-132841866D01*
X193416150Y-132859510D01*
X193453342Y-132872997D01*
X193478399Y-132881783D01*
X193489847Y-132885322D01*
X193490400Y-132885337D01*
X193488461Y-132877138D01*
X193481464Y-132855270D01*
X193470044Y-132821565D01*
X193454839Y-132777857D01*
X193436482Y-132725979D01*
X193415609Y-132667763D01*
X193400455Y-132625910D01*
X193378256Y-132564430D01*
X193358171Y-132508019D01*
X193340833Y-132458516D01*
X193326873Y-132417759D01*
X193316925Y-132387589D01*
X193311620Y-132369843D01*
X193310981Y-132365818D01*
X193319006Y-132368354D01*
X193340855Y-132376945D01*
X193375217Y-132391037D01*
X193420783Y-132410075D01*
X193476241Y-132433507D01*
X193540281Y-132460776D01*
X193611592Y-132491331D01*
X193688863Y-132524617D01*
X193770784Y-132560079D01*
X193776641Y-132562621D01*
X194238589Y-132763138D01*
X194240949Y-132681548D01*
X194242565Y-132647471D01*
X194245033Y-132620936D01*
X194247966Y-132605309D01*
X194249987Y-132602613D01*
X194258394Y-132608432D01*
X194277459Y-132622920D01*
X194305224Y-132644511D01*
X194339729Y-132671638D01*
X194379015Y-132702736D01*
X194421123Y-132736240D01*
X194464095Y-132770582D01*
X194505971Y-132804199D01*
X194544793Y-132835522D01*
X194578601Y-132862988D01*
X194605437Y-132885030D01*
X194623341Y-132900082D01*
X194630354Y-132906578D01*
X194630386Y-132906665D01*
X194622721Y-132909273D01*
X194600838Y-132914659D01*
X194566718Y-132922390D01*
X194522344Y-132932028D01*
X194469697Y-132943138D01*
X194410757Y-132955286D01*
X194389271Y-132959649D01*
X194327666Y-132972140D01*
X194270796Y-132983725D01*
X194220822Y-132993959D01*
X194179906Y-133002399D01*
X194150209Y-133008600D01*
X194133891Y-133012117D01*
X194131928Y-133012582D01*
X194127746Y-133010013D01*
X194133466Y-132997176D01*
X194149506Y-132973320D01*
X194167022Y-132949763D01*
X194188299Y-132921473D01*
X194205214Y-132898341D01*
X194215642Y-132883308D01*
X194217945Y-132879191D01*
X194210507Y-132875449D01*
X194189491Y-132866802D01*
X194156848Y-132853975D01*
X194114527Y-132837689D01*
X194064477Y-132818669D01*
X194008648Y-132797637D01*
X193948990Y-132775317D01*
X193887451Y-132752431D01*
X193825982Y-132729703D01*
X193766532Y-132707857D01*
X193711050Y-132687614D01*
X193661486Y-132669699D01*
X193619790Y-132654835D01*
X193587910Y-132643744D01*
X193567797Y-132637150D01*
X193561379Y-132635640D01*
X193563110Y-132644023D01*
X193569744Y-132665947D01*
X193580617Y-132699407D01*
X193595061Y-132742397D01*
X193612412Y-132792910D01*
X193632003Y-132848942D01*
X193635041Y-132857549D01*
X193654978Y-132914116D01*
X193672930Y-132965332D01*
X193688210Y-133009212D01*
X193700130Y-133043776D01*
X193708003Y-133067041D01*
X193711143Y-133077023D01*
X193711163Y-133077253D01*
X193703079Y-133076061D01*
X193680135Y-133072176D01*
X193643722Y-133065843D01*
X193595232Y-133057310D01*
X193536056Y-133046823D01*
X193467586Y-133034628D01*
X193391212Y-133020973D01*
X193308326Y-133006104D01*
X193220319Y-132990268D01*
X193210533Y-132988504D01*
X193121873Y-132972539D01*
X193038043Y-132957477D01*
X192960454Y-132943570D01*
X192890515Y-132931068D01*
X192829638Y-132920224D01*
X192779232Y-132911288D01*
X192740708Y-132904511D01*
X192715478Y-132900145D01*
X192704950Y-132898440D01*
X192704763Y-132898426D01*
X192702810Y-132890591D01*
X192701110Y-132868812D01*
X192699767Y-132835660D01*
X192698885Y-132793706D01*
X192698570Y-132745644D01*
X192698918Y-132697471D01*
G36*
X192010273Y-132669488D02*
G01*
X192029231Y-132622090D01*
X192062682Y-132581548D01*
X192067870Y-132577041D01*
X192078651Y-132569962D01*
X192102888Y-132555348D01*
X192139691Y-132533703D01*
X192188170Y-132505528D01*
X192247435Y-132471326D01*
X192316595Y-132431602D01*
X192394759Y-132386856D01*
X192481037Y-132337592D01*
X192574539Y-132284313D01*
X192674375Y-132227522D01*
X192779653Y-132167721D01*
X192889484Y-132105412D01*
X193002977Y-132041100D01*
X193119241Y-131975286D01*
X193237387Y-131908473D01*
X193356523Y-131841165D01*
X193475760Y-131773863D01*
X193594207Y-131707071D01*
X193710973Y-131641292D01*
X193825168Y-131577027D01*
X193935903Y-131514781D01*
X194042285Y-131455055D01*
X194143425Y-131398353D01*
X194238433Y-131345177D01*
X194326417Y-131296030D01*
X194406488Y-131251414D01*
X194477756Y-131211833D01*
X194539329Y-131177790D01*
X194590317Y-131149786D01*
X194629831Y-131128326D01*
X194656978Y-131113911D01*
X194670870Y-131107044D01*
X194672107Y-131106583D01*
X194727676Y-131098288D01*
X194778938Y-131105476D01*
X194824309Y-131127491D01*
X194862205Y-131163678D01*
X194881411Y-131193238D01*
X194899187Y-131226268D01*
X194900587Y-132708485D01*
X194900699Y-132863972D01*
X194900740Y-133015167D01*
X194900711Y-133161232D01*
X194900617Y-133301325D01*
X194900459Y-133434605D01*
X194900241Y-133560232D01*
X194899964Y-133677366D01*
X194899633Y-133785166D01*
X194899250Y-133882791D01*
X194898817Y-133969400D01*
X194898337Y-134044154D01*
X194897814Y-134106211D01*
X194897249Y-134154731D01*
X194896646Y-134188874D01*
X194896007Y-134207798D01*
X194895646Y-134211399D01*
X194877979Y-134253483D01*
X194854067Y-134289224D01*
X194844121Y-134299720D01*
X194804905Y-134325698D01*
X194757898Y-134340050D01*
X194727845Y-134341174D01*
X194727845Y-134178197D01*
X194729179Y-134175271D01*
X194730400Y-134166054D01*
X194731514Y-134149934D01*
X194732523Y-134126300D01*
X194733433Y-134094538D01*
X194734247Y-134054039D01*
X194734971Y-134004190D01*
X194735608Y-133944379D01*
X194736162Y-133873995D01*
X194736639Y-133792426D01*
X194737042Y-133699061D01*
X194737375Y-133593287D01*
X194737644Y-133474492D01*
X194737852Y-133342066D01*
X194738004Y-133195397D01*
X194738104Y-133033872D01*
X194738156Y-132856880D01*
X194738166Y-132720871D01*
X194738147Y-132533330D01*
X194738085Y-132361676D01*
X194737977Y-132205280D01*
X194737818Y-132063516D01*
X194737603Y-131935755D01*
X194737327Y-131821369D01*
X194736987Y-131719730D01*
X194736578Y-131630211D01*
X194736095Y-131552183D01*
X194735533Y-131485018D01*
X194734889Y-131428089D01*
X194734157Y-131380767D01*
X194733333Y-131342425D01*
X194732412Y-131312434D01*
X194731391Y-131290167D01*
X194730264Y-131274996D01*
X194729026Y-131266293D01*
X194727674Y-131263429D01*
X194727633Y-131263427D01*
X194719580Y-131267409D01*
X194698038Y-131279022D01*
X194663895Y-131297767D01*
X194618035Y-131323145D01*
X194561346Y-131354658D01*
X194494713Y-131391804D01*
X194419024Y-131434086D01*
X194335165Y-131481005D01*
X194244022Y-131532061D01*
X194146480Y-131586754D01*
X194043428Y-131644587D01*
X193935751Y-131705059D01*
X193824335Y-131767672D01*
X193710067Y-131831926D01*
X193593833Y-131897322D01*
X193476520Y-131963362D01*
X193359014Y-132029545D01*
X193242201Y-132095373D01*
X193126967Y-132160347D01*
X193014200Y-132223967D01*
X192904785Y-132285734D01*
X192799609Y-132345150D01*
X192699559Y-132401715D01*
X192605519Y-132454929D01*
X192518378Y-132504294D01*
X192439021Y-132549311D01*
X192368335Y-132589480D01*
X192307205Y-132624302D01*
X192256519Y-132653279D01*
X192217163Y-132675910D01*
X192190023Y-132691697D01*
X192175985Y-132700141D01*
X192174220Y-132701367D01*
X192172049Y-132711466D01*
X192178348Y-132717127D01*
X192194474Y-132726746D01*
X192223494Y-132743731D01*
X192264530Y-132767577D01*
X192316701Y-132797780D01*
X192379128Y-132833836D01*
X192450932Y-132875242D01*
X192531233Y-132921492D01*
X192619152Y-132972084D01*
X192713809Y-133026513D01*
X192814324Y-133084275D01*
X192919819Y-133144866D01*
X193029414Y-133207782D01*
X193142229Y-133272519D01*
X193257385Y-133338573D01*
X193374003Y-133405440D01*
X193491202Y-133472617D01*
X193608103Y-133539598D01*
X193723828Y-133605880D01*
X193837496Y-133670959D01*
X193948227Y-133734331D01*
X194055143Y-133795492D01*
X194157365Y-133853938D01*
X194254011Y-133909165D01*
X194344204Y-133960669D01*
X194427063Y-134007945D01*
X194501709Y-134050490D01*
X194567262Y-134087801D01*
X194622844Y-134119372D01*
X194667574Y-134144699D01*
X194700573Y-134163280D01*
X194720962Y-134174609D01*
X194727845Y-134178197D01*
X194727845Y-134341174D01*
X194707821Y-134341924D01*
X194663849Y-134332174D01*
X194654035Y-134327111D01*
X194630798Y-134314313D01*
X194595027Y-134294291D01*
X194547610Y-134267553D01*
X194489435Y-134234608D01*
X194421391Y-134195966D01*
X194344364Y-134152137D01*
X194259245Y-134103630D01*
X194166919Y-134050954D01*
X194068277Y-133994618D01*
X193964205Y-133935131D01*
X193855592Y-133873004D01*
X193743326Y-133808745D01*
X193628295Y-133742864D01*
X193511387Y-133675870D01*
X193393490Y-133608272D01*
X193275493Y-133540580D01*
X193158283Y-133473304D01*
X193042749Y-133406951D01*
X192929779Y-133342033D01*
X192820261Y-133279057D01*
X192715082Y-133218534D01*
X192615132Y-133160972D01*
X192521298Y-133106882D01*
X192434468Y-133056772D01*
X192355531Y-133011152D01*
X192285374Y-132970531D01*
X192224885Y-132935418D01*
X192174954Y-132906323D01*
X192136467Y-132883756D01*
X192110313Y-132868224D01*
X192097947Y-132860614D01*
X192052562Y-132823243D01*
X192022631Y-132780455D01*
X192007861Y-132731801D01*
X192006722Y-132721585D01*
X192010273Y-132669488D01*
G37*
X192010273Y-132669488D02*
X192029231Y-132622090D01*
X192062682Y-132581548D01*
X192067870Y-132577041D01*
X192078651Y-132569962D01*
X192102888Y-132555348D01*
X192139691Y-132533703D01*
X192188170Y-132505528D01*
X192247435Y-132471326D01*
X192316595Y-132431602D01*
X192394759Y-132386856D01*
X192481037Y-132337592D01*
X192574539Y-132284313D01*
X192674375Y-132227522D01*
X192779653Y-132167721D01*
X192889484Y-132105412D01*
X193002977Y-132041100D01*
X193119241Y-131975286D01*
X193237387Y-131908473D01*
X193356523Y-131841165D01*
X193475760Y-131773863D01*
X193594207Y-131707071D01*
X193710973Y-131641292D01*
X193825168Y-131577027D01*
X193935903Y-131514781D01*
X194042285Y-131455055D01*
X194143425Y-131398353D01*
X194238433Y-131345177D01*
X194326417Y-131296030D01*
X194406488Y-131251414D01*
X194477756Y-131211833D01*
X194539329Y-131177790D01*
X194590317Y-131149786D01*
X194629831Y-131128326D01*
X194656978Y-131113911D01*
X194670870Y-131107044D01*
X194672107Y-131106583D01*
X194727676Y-131098288D01*
X194778938Y-131105476D01*
X194824309Y-131127491D01*
X194862205Y-131163678D01*
X194881411Y-131193238D01*
X194899187Y-131226268D01*
X194900587Y-132708485D01*
X194900699Y-132863972D01*
X194900740Y-133015167D01*
X194900711Y-133161232D01*
X194900617Y-133301325D01*
X194900459Y-133434605D01*
X194900241Y-133560232D01*
X194899964Y-133677366D01*
X194899633Y-133785166D01*
X194899250Y-133882791D01*
X194898817Y-133969400D01*
X194898337Y-134044154D01*
X194897814Y-134106211D01*
X194897249Y-134154731D01*
X194896646Y-134188874D01*
X194896007Y-134207798D01*
X194895646Y-134211399D01*
X194877979Y-134253483D01*
X194854067Y-134289224D01*
X194844121Y-134299720D01*
X194804905Y-134325698D01*
X194757898Y-134340050D01*
X194727845Y-134341174D01*
X194727845Y-134178197D01*
X194729179Y-134175271D01*
X194730400Y-134166054D01*
X194731514Y-134149934D01*
X194732523Y-134126300D01*
X194733433Y-134094538D01*
X194734247Y-134054039D01*
X194734971Y-134004190D01*
X194735608Y-133944379D01*
X194736162Y-133873995D01*
X194736639Y-133792426D01*
X194737042Y-133699061D01*
X194737375Y-133593287D01*
X194737644Y-133474492D01*
X194737852Y-133342066D01*
X194738004Y-133195397D01*
X194738104Y-133033872D01*
X194738156Y-132856880D01*
X194738166Y-132720871D01*
X194738147Y-132533330D01*
X194738085Y-132361676D01*
X194737977Y-132205280D01*
X194737818Y-132063516D01*
X194737603Y-131935755D01*
X194737327Y-131821369D01*
X194736987Y-131719730D01*
X194736578Y-131630211D01*
X194736095Y-131552183D01*
X194735533Y-131485018D01*
X194734889Y-131428089D01*
X194734157Y-131380767D01*
X194733333Y-131342425D01*
X194732412Y-131312434D01*
X194731391Y-131290167D01*
X194730264Y-131274996D01*
X194729026Y-131266293D01*
X194727674Y-131263429D01*
X194727633Y-131263427D01*
X194719580Y-131267409D01*
X194698038Y-131279022D01*
X194663895Y-131297767D01*
X194618035Y-131323145D01*
X194561346Y-131354658D01*
X194494713Y-131391804D01*
X194419024Y-131434086D01*
X194335165Y-131481005D01*
X194244022Y-131532061D01*
X194146480Y-131586754D01*
X194043428Y-131644587D01*
X193935751Y-131705059D01*
X193824335Y-131767672D01*
X193710067Y-131831926D01*
X193593833Y-131897322D01*
X193476520Y-131963362D01*
X193359014Y-132029545D01*
X193242201Y-132095373D01*
X193126967Y-132160347D01*
X193014200Y-132223967D01*
X192904785Y-132285734D01*
X192799609Y-132345150D01*
X192699559Y-132401715D01*
X192605519Y-132454929D01*
X192518378Y-132504294D01*
X192439021Y-132549311D01*
X192368335Y-132589480D01*
X192307205Y-132624302D01*
X192256519Y-132653279D01*
X192217163Y-132675910D01*
X192190023Y-132691697D01*
X192175985Y-132700141D01*
X192174220Y-132701367D01*
X192172049Y-132711466D01*
X192178348Y-132717127D01*
X192194474Y-132726746D01*
X192223494Y-132743731D01*
X192264530Y-132767577D01*
X192316701Y-132797780D01*
X192379128Y-132833836D01*
X192450932Y-132875242D01*
X192531233Y-132921492D01*
X192619152Y-132972084D01*
X192713809Y-133026513D01*
X192814324Y-133084275D01*
X192919819Y-133144866D01*
X193029414Y-133207782D01*
X193142229Y-133272519D01*
X193257385Y-133338573D01*
X193374003Y-133405440D01*
X193491202Y-133472617D01*
X193608103Y-133539598D01*
X193723828Y-133605880D01*
X193837496Y-133670959D01*
X193948227Y-133734331D01*
X194055143Y-133795492D01*
X194157365Y-133853938D01*
X194254011Y-133909165D01*
X194344204Y-133960669D01*
X194427063Y-134007945D01*
X194501709Y-134050490D01*
X194567262Y-134087801D01*
X194622844Y-134119372D01*
X194667574Y-134144699D01*
X194700573Y-134163280D01*
X194720962Y-134174609D01*
X194727845Y-134178197D01*
X194727845Y-134341174D01*
X194707821Y-134341924D01*
X194663849Y-134332174D01*
X194654035Y-134327111D01*
X194630798Y-134314313D01*
X194595027Y-134294291D01*
X194547610Y-134267553D01*
X194489435Y-134234608D01*
X194421391Y-134195966D01*
X194344364Y-134152137D01*
X194259245Y-134103630D01*
X194166919Y-134050954D01*
X194068277Y-133994618D01*
X193964205Y-133935131D01*
X193855592Y-133873004D01*
X193743326Y-133808745D01*
X193628295Y-133742864D01*
X193511387Y-133675870D01*
X193393490Y-133608272D01*
X193275493Y-133540580D01*
X193158283Y-133473304D01*
X193042749Y-133406951D01*
X192929779Y-133342033D01*
X192820261Y-133279057D01*
X192715082Y-133218534D01*
X192615132Y-133160972D01*
X192521298Y-133106882D01*
X192434468Y-133056772D01*
X192355531Y-133011152D01*
X192285374Y-132970531D01*
X192224885Y-132935418D01*
X192174954Y-132906323D01*
X192136467Y-132883756D01*
X192110313Y-132868224D01*
X192097947Y-132860614D01*
X192052562Y-132823243D01*
X192022631Y-132780455D01*
X192007861Y-132731801D01*
X192006722Y-132721585D01*
X192010273Y-132669488D01*
D10*
X176772500Y-143538724D02*
X176772500Y-143029276D01*
X175727500Y-143538724D02*
X175727500Y-143029276D01*
X189177000Y-148500000D02*
X189177000Y-146040000D01*
X187707000Y-148500000D02*
X189177000Y-148500000D01*
X187707000Y-146040000D02*
X187707000Y-148500000D01*
X102600000Y-115200000D02*
X99300000Y-115200000D01*
X99300000Y-115200000D02*
X99300000Y-120600000D01*
X102600000Y-115200000D02*
X102600000Y-120600000D01*
X104653733Y-119690000D02*
X104946267Y-119690000D01*
X104653733Y-120710000D02*
X104946267Y-120710000D01*
X183081000Y-148500000D02*
X183081000Y-146040000D01*
X181611000Y-148500000D02*
X183081000Y-148500000D01*
X181611000Y-146040000D02*
X181611000Y-148500000D01*
X178563000Y-146040000D02*
X178563000Y-148500000D01*
X178563000Y-148500000D02*
X180033000Y-148500000D01*
X180033000Y-148500000D02*
X180033000Y-146040000D01*
X120350000Y-105012500D02*
X119900000Y-105012500D01*
X120350000Y-103162500D02*
X120350000Y-105012500D01*
X112550000Y-100612500D02*
X112550000Y-100862500D01*
X120350000Y-100612500D02*
X120350000Y-100862500D01*
X112550000Y-103162500D02*
X112550000Y-105012500D01*
X112550000Y-105012500D02*
X113000000Y-105012500D01*
X118150000Y-105562500D02*
X117700000Y-105562500D01*
X118150000Y-105562500D02*
X118150000Y-105112500D01*
X175920000Y-108320000D02*
X175920000Y-100700000D01*
X191160000Y-108320000D02*
X191160000Y-100700000D01*
X175920000Y-107050000D02*
X191160000Y-107050000D01*
X175920000Y-100700000D02*
X191160000Y-100700000D01*
X175920000Y-108320000D02*
X191160000Y-108320000D01*
X108290000Y-135523752D02*
X108290000Y-134101248D01*
X111010000Y-135523752D02*
X111010000Y-134101248D01*
X124696267Y-127165000D02*
X124403733Y-127165000D01*
X124696267Y-128185000D02*
X124403733Y-128185000D01*
X96540000Y-141146267D02*
X96540000Y-140853733D01*
X97560000Y-141146267D02*
X97560000Y-140853733D01*
X154000000Y-118030000D02*
X154000000Y-115370000D01*
X146320000Y-118030000D02*
X154000000Y-118030000D01*
X146320000Y-115370000D02*
X154000000Y-115370000D01*
X146320000Y-118030000D02*
X146320000Y-115370000D01*
X145050000Y-118030000D02*
X143720000Y-118030000D01*
X143720000Y-118030000D02*
X143720000Y-116700000D01*
X99904724Y-138277500D02*
X99395276Y-138277500D01*
X99904724Y-139322500D02*
X99395276Y-139322500D01*
X137741000Y-108806000D02*
X137741000Y-102836000D01*
X137741000Y-102836000D02*
X130121000Y-102836000D01*
X130121000Y-102836000D02*
X130121000Y-108806000D01*
X130121000Y-108806000D02*
X137741000Y-108806000D01*
X134431000Y-108796000D02*
X134431000Y-108046000D01*
X134431000Y-108046000D02*
X133431000Y-108046000D01*
X133431000Y-108046000D02*
X133431000Y-108796000D01*
X133431000Y-108796000D02*
X134431000Y-108796000D01*
X137731000Y-108796000D02*
X137731000Y-108046000D01*
X137731000Y-108046000D02*
X135931000Y-108046000D01*
X135931000Y-108046000D02*
X135931000Y-108796000D01*
X135931000Y-108796000D02*
X137731000Y-108796000D01*
X131931000Y-108796000D02*
X131931000Y-108046000D01*
X131931000Y-108046000D02*
X130131000Y-108046000D01*
X130131000Y-108046000D02*
X130131000Y-108796000D01*
X130131000Y-108796000D02*
X131931000Y-108796000D01*
X137731000Y-106546000D02*
X136981000Y-106546000D01*
X136981000Y-106546000D02*
X136981000Y-103596000D01*
X136981000Y-103596000D02*
X133931000Y-103596000D01*
X130131000Y-106546000D02*
X130881000Y-106546000D01*
X130881000Y-106546000D02*
X130881000Y-103596000D01*
X130881000Y-103596000D02*
X133931000Y-103596000D01*
X136781000Y-109096000D02*
X138031000Y-109096000D01*
X138031000Y-109096000D02*
X138031000Y-107846000D01*
X139180500Y-112654224D02*
X139180500Y-112144776D01*
X138135500Y-112654224D02*
X138135500Y-112144776D01*
X184871500Y-143029276D02*
X184871500Y-143538724D01*
X185916500Y-143029276D02*
X185916500Y-143538724D01*
X182346724Y-137681500D02*
X181837276Y-137681500D01*
X182346724Y-138726500D02*
X181837276Y-138726500D01*
X188964500Y-143029276D02*
X188964500Y-143538724D01*
X187919500Y-143029276D02*
X187919500Y-143538724D01*
X104315500Y-141528724D02*
X104315500Y-141019276D01*
X105360500Y-141528724D02*
X105360500Y-141019276D01*
X141183500Y-112654224D02*
X141183500Y-112144776D01*
X142228500Y-112654224D02*
X142228500Y-112144776D01*
X106093500Y-141019276D02*
X106093500Y-141528724D01*
X107138500Y-141019276D02*
X107138500Y-141528724D01*
X179820500Y-143538724D02*
X179820500Y-143029276D01*
X178775500Y-143538724D02*
X178775500Y-143029276D01*
X108916500Y-141019276D02*
X108916500Y-141528724D01*
X107871500Y-141019276D02*
X107871500Y-141528724D01*
X103582500Y-141528724D02*
X103582500Y-141019276D01*
X102537500Y-141528724D02*
X102537500Y-141019276D01*
X147104500Y-112744724D02*
X147104500Y-112235276D01*
X146059500Y-112744724D02*
X146059500Y-112235276D01*
X151647500Y-112744724D02*
X151647500Y-112235276D01*
X152692500Y-112744724D02*
X152692500Y-112235276D01*
X177675000Y-139125000D02*
G75*
G03*
X177675000Y-139125000I-950000J0D01*
G01*
X127670000Y-116360000D02*
G75*
G03*
X127670000Y-116360000I-950000J0D01*
G01*
X127650000Y-120678000D02*
G75*
G03*
X127650000Y-120678000I-950000J0D01*
G01*
X101900000Y-125500000D02*
G75*
G03*
X101900000Y-125500000I-950000J0D01*
G01*
X127670000Y-112296000D02*
G75*
G03*
X127670000Y-112296000I-950000J0D01*
G01*
X181823500Y-143538724D02*
X181823500Y-143029276D01*
X182868500Y-143538724D02*
X182868500Y-143029276D01*
X109649500Y-141019276D02*
X109649500Y-141528724D01*
X110694500Y-141019276D02*
X110694500Y-141528724D01*
X128991500Y-112041276D02*
X128991500Y-112550724D01*
X130036500Y-112041276D02*
X130036500Y-112550724D01*
X133084500Y-112041276D02*
X133084500Y-112550724D01*
X132039500Y-112041276D02*
X132039500Y-112550724D01*
X136132500Y-112041276D02*
X136132500Y-112550724D01*
X135087500Y-112041276D02*
X135087500Y-112550724D01*
X109050000Y-143650000D02*
X102850000Y-143650000D01*
X102850000Y-147350000D02*
X109050000Y-147350000D01*
X109050000Y-147350000D02*
X109050000Y-146700000D01*
X109050000Y-144300000D02*
X109050000Y-143650000D01*
X102850000Y-143650000D02*
X102850000Y-144300000D01*
X102850000Y-147350000D02*
X102850000Y-146700000D01*
X111350000Y-147350000D02*
X111350000Y-146700000D01*
X111350000Y-143650000D02*
X111350000Y-144300000D01*
X117550000Y-144300000D02*
X117550000Y-143650000D01*
X117550000Y-147350000D02*
X117550000Y-146700000D01*
X111350000Y-147350000D02*
X117550000Y-147350000D01*
X117550000Y-143650000D02*
X111350000Y-143650000D01*
X191514000Y-138624000D02*
X191514000Y-140324000D01*
X191514000Y-140324000D02*
X194064000Y-140324000D01*
X191514000Y-138624000D02*
X194064000Y-138624000D01*
X175515000Y-146040000D02*
X175515000Y-148500000D01*
X175515000Y-148500000D02*
X176985000Y-148500000D01*
X176985000Y-148500000D02*
X176985000Y-146040000D01*
X181679684Y-97544549D02*
G75*
G02*
X181699999Y-100449999I-379684J-1455451D01*
G01*
X185920316Y-100455451D02*
G75*
G02*
X185900001Y-97550001I379684J1455451D01*
G01*
X110220316Y-100455451D02*
G75*
G02*
X110200001Y-97550001I379684J1455451D01*
G01*
X105979684Y-97544549D02*
G75*
G02*
X105999999Y-100449999I-379684J-1455451D01*
G01*
X146921000Y-57596000D02*
X146921000Y-56346000D01*
X145671000Y-57596000D02*
X146921000Y-57596000D01*
X139771000Y-52096000D02*
X142821000Y-52096000D01*
X139771000Y-55046000D02*
X139771000Y-52096000D01*
X139021000Y-55046000D02*
X139771000Y-55046000D01*
X145871000Y-52096000D02*
X142821000Y-52096000D01*
X145871000Y-55046000D02*
X145871000Y-52096000D01*
X146621000Y-55046000D02*
X145871000Y-55046000D01*
X139021000Y-57296000D02*
X140821000Y-57296000D01*
X139021000Y-56546000D02*
X139021000Y-57296000D01*
X140821000Y-56546000D02*
X139021000Y-56546000D01*
X140821000Y-57296000D02*
X140821000Y-56546000D01*
X144821000Y-57296000D02*
X146621000Y-57296000D01*
X144821000Y-56546000D02*
X144821000Y-57296000D01*
X146621000Y-56546000D02*
X144821000Y-56546000D01*
X146621000Y-57296000D02*
X146621000Y-56546000D01*
X142321000Y-57296000D02*
X143321000Y-57296000D01*
X142321000Y-56546000D02*
X142321000Y-57296000D01*
X143321000Y-56546000D02*
X142321000Y-56546000D01*
X143321000Y-57296000D02*
X143321000Y-56546000D01*
X139011000Y-57306000D02*
X146631000Y-57306000D01*
X139011000Y-51336000D02*
X139011000Y-57306000D01*
X146631000Y-51336000D02*
X139011000Y-51336000D01*
X146631000Y-57306000D02*
X146631000Y-51336000D01*
X110200000Y-60625000D02*
X111250000Y-60625000D01*
X111250000Y-59575000D02*
X111250000Y-60625000D01*
X101850000Y-54525000D02*
X101850000Y-45725000D01*
X101850000Y-45725000D02*
X111050000Y-45725000D01*
X104550000Y-60425000D02*
X101850000Y-60425000D01*
X101850000Y-60425000D02*
X101850000Y-58525000D01*
X111050000Y-45725000D02*
X111050000Y-60425000D01*
X111050000Y-60425000D02*
X108450000Y-60425000D01*
D14*
G36*
X192010273Y-81169488D02*
G01*
X192029231Y-81122090D01*
X192062682Y-81081548D01*
X192067870Y-81077041D01*
X192078651Y-81069962D01*
X192102888Y-81055348D01*
X192139691Y-81033703D01*
X192188170Y-81005528D01*
X192247435Y-80971326D01*
X192316595Y-80931602D01*
X192394759Y-80886856D01*
X192481037Y-80837592D01*
X192574539Y-80784313D01*
X192674375Y-80727522D01*
X192779653Y-80667721D01*
X192889484Y-80605412D01*
X193002977Y-80541100D01*
X193119241Y-80475286D01*
X193237387Y-80408473D01*
X193356523Y-80341165D01*
X193475760Y-80273863D01*
X193594207Y-80207071D01*
X193710973Y-80141292D01*
X193825168Y-80077027D01*
X193935903Y-80014781D01*
X194042285Y-79955055D01*
X194143425Y-79898353D01*
X194238433Y-79845177D01*
X194326417Y-79796030D01*
X194406488Y-79751414D01*
X194477756Y-79711833D01*
X194539329Y-79677790D01*
X194590317Y-79649786D01*
X194629831Y-79628326D01*
X194656978Y-79613911D01*
X194670870Y-79607044D01*
X194672107Y-79606583D01*
X194727676Y-79598288D01*
X194778938Y-79605476D01*
X194824309Y-79627491D01*
X194862205Y-79663678D01*
X194881411Y-79693238D01*
X194899187Y-79726268D01*
X194900587Y-81208485D01*
X194900699Y-81363972D01*
X194900740Y-81515167D01*
X194900711Y-81661232D01*
X194900617Y-81801325D01*
X194900459Y-81934605D01*
X194900241Y-82060232D01*
X194899964Y-82177366D01*
X194899633Y-82285166D01*
X194899250Y-82382791D01*
X194898817Y-82469400D01*
X194898337Y-82544154D01*
X194897814Y-82606211D01*
X194897249Y-82654731D01*
X194896646Y-82688874D01*
X194896007Y-82707798D01*
X194895646Y-82711399D01*
X194877979Y-82753483D01*
X194854067Y-82789224D01*
X194844121Y-82799720D01*
X194804905Y-82825698D01*
X194757898Y-82840050D01*
X194727845Y-82841174D01*
X194727845Y-82678197D01*
X194729179Y-82675271D01*
X194730400Y-82666054D01*
X194731514Y-82649934D01*
X194732523Y-82626300D01*
X194733433Y-82594538D01*
X194734247Y-82554039D01*
X194734971Y-82504190D01*
X194735608Y-82444379D01*
X194736162Y-82373995D01*
X194736639Y-82292426D01*
X194737042Y-82199061D01*
X194737375Y-82093287D01*
X194737644Y-81974492D01*
X194737852Y-81842066D01*
X194738004Y-81695397D01*
X194738104Y-81533872D01*
X194738156Y-81356880D01*
X194738166Y-81220871D01*
X194738147Y-81033330D01*
X194738085Y-80861676D01*
X194737977Y-80705280D01*
X194737818Y-80563516D01*
X194737603Y-80435755D01*
X194737327Y-80321369D01*
X194736987Y-80219730D01*
X194736578Y-80130211D01*
X194736095Y-80052183D01*
X194735533Y-79985018D01*
X194734889Y-79928089D01*
X194734157Y-79880767D01*
X194733333Y-79842425D01*
X194732412Y-79812434D01*
X194731391Y-79790167D01*
X194730264Y-79774996D01*
X194729026Y-79766293D01*
X194727674Y-79763429D01*
X194727633Y-79763427D01*
X194719580Y-79767409D01*
X194698038Y-79779022D01*
X194663895Y-79797767D01*
X194618035Y-79823145D01*
X194561346Y-79854658D01*
X194494713Y-79891804D01*
X194419024Y-79934086D01*
X194335165Y-79981005D01*
X194244022Y-80032061D01*
X194146480Y-80086754D01*
X194043428Y-80144587D01*
X193935751Y-80205059D01*
X193824335Y-80267672D01*
X193710067Y-80331926D01*
X193593833Y-80397322D01*
X193476520Y-80463362D01*
X193359014Y-80529545D01*
X193242201Y-80595373D01*
X193126967Y-80660347D01*
X193014200Y-80723967D01*
X192904785Y-80785734D01*
X192799609Y-80845150D01*
X192699559Y-80901715D01*
X192605519Y-80954929D01*
X192518378Y-81004294D01*
X192439021Y-81049311D01*
X192368335Y-81089480D01*
X192307205Y-81124302D01*
X192256519Y-81153279D01*
X192217163Y-81175910D01*
X192190023Y-81191697D01*
X192175985Y-81200141D01*
X192174220Y-81201367D01*
X192172049Y-81211466D01*
X192178348Y-81217127D01*
X192194474Y-81226746D01*
X192223494Y-81243731D01*
X192264530Y-81267577D01*
X192316701Y-81297780D01*
X192379128Y-81333836D01*
X192450932Y-81375242D01*
X192531233Y-81421492D01*
X192619152Y-81472084D01*
X192713809Y-81526513D01*
X192814324Y-81584275D01*
X192919819Y-81644866D01*
X193029414Y-81707782D01*
X193142229Y-81772519D01*
X193257385Y-81838573D01*
X193374003Y-81905440D01*
X193491202Y-81972617D01*
X193608103Y-82039598D01*
X193723828Y-82105880D01*
X193837496Y-82170959D01*
X193948227Y-82234331D01*
X194055143Y-82295492D01*
X194157365Y-82353938D01*
X194254011Y-82409165D01*
X194344204Y-82460669D01*
X194427063Y-82507945D01*
X194501709Y-82550490D01*
X194567262Y-82587801D01*
X194622844Y-82619372D01*
X194667574Y-82644699D01*
X194700573Y-82663280D01*
X194720962Y-82674609D01*
X194727845Y-82678197D01*
X194727845Y-82841174D01*
X194707821Y-82841924D01*
X194663849Y-82832174D01*
X194654035Y-82827111D01*
X194630798Y-82814313D01*
X194595027Y-82794291D01*
X194547610Y-82767553D01*
X194489435Y-82734608D01*
X194421391Y-82695966D01*
X194344364Y-82652137D01*
X194259245Y-82603630D01*
X194166919Y-82550954D01*
X194068277Y-82494618D01*
X193964205Y-82435131D01*
X193855592Y-82373004D01*
X193743326Y-82308745D01*
X193628295Y-82242864D01*
X193511387Y-82175870D01*
X193393490Y-82108272D01*
X193275493Y-82040580D01*
X193158283Y-81973304D01*
X193042749Y-81906951D01*
X192929779Y-81842033D01*
X192820261Y-81779057D01*
X192715082Y-81718534D01*
X192615132Y-81660972D01*
X192521298Y-81606882D01*
X192434468Y-81556772D01*
X192355531Y-81511152D01*
X192285374Y-81470531D01*
X192224885Y-81435418D01*
X192174954Y-81406323D01*
X192136467Y-81383756D01*
X192110313Y-81368224D01*
X192097947Y-81360614D01*
X192052562Y-81323243D01*
X192022631Y-81280455D01*
X192007861Y-81231801D01*
X192006722Y-81221585D01*
X192010273Y-81169488D01*
G37*
X192010273Y-81169488D02*
X192029231Y-81122090D01*
X192062682Y-81081548D01*
X192067870Y-81077041D01*
X192078651Y-81069962D01*
X192102888Y-81055348D01*
X192139691Y-81033703D01*
X192188170Y-81005528D01*
X192247435Y-80971326D01*
X192316595Y-80931602D01*
X192394759Y-80886856D01*
X192481037Y-80837592D01*
X192574539Y-80784313D01*
X192674375Y-80727522D01*
X192779653Y-80667721D01*
X192889484Y-80605412D01*
X193002977Y-80541100D01*
X193119241Y-80475286D01*
X193237387Y-80408473D01*
X193356523Y-80341165D01*
X193475760Y-80273863D01*
X193594207Y-80207071D01*
X193710973Y-80141292D01*
X193825168Y-80077027D01*
X193935903Y-80014781D01*
X194042285Y-79955055D01*
X194143425Y-79898353D01*
X194238433Y-79845177D01*
X194326417Y-79796030D01*
X194406488Y-79751414D01*
X194477756Y-79711833D01*
X194539329Y-79677790D01*
X194590317Y-79649786D01*
X194629831Y-79628326D01*
X194656978Y-79613911D01*
X194670870Y-79607044D01*
X194672107Y-79606583D01*
X194727676Y-79598288D01*
X194778938Y-79605476D01*
X194824309Y-79627491D01*
X194862205Y-79663678D01*
X194881411Y-79693238D01*
X194899187Y-79726268D01*
X194900587Y-81208485D01*
X194900699Y-81363972D01*
X194900740Y-81515167D01*
X194900711Y-81661232D01*
X194900617Y-81801325D01*
X194900459Y-81934605D01*
X194900241Y-82060232D01*
X194899964Y-82177366D01*
X194899633Y-82285166D01*
X194899250Y-82382791D01*
X194898817Y-82469400D01*
X194898337Y-82544154D01*
X194897814Y-82606211D01*
X194897249Y-82654731D01*
X194896646Y-82688874D01*
X194896007Y-82707798D01*
X194895646Y-82711399D01*
X194877979Y-82753483D01*
X194854067Y-82789224D01*
X194844121Y-82799720D01*
X194804905Y-82825698D01*
X194757898Y-82840050D01*
X194727845Y-82841174D01*
X194727845Y-82678197D01*
X194729179Y-82675271D01*
X194730400Y-82666054D01*
X194731514Y-82649934D01*
X194732523Y-82626300D01*
X194733433Y-82594538D01*
X194734247Y-82554039D01*
X194734971Y-82504190D01*
X194735608Y-82444379D01*
X194736162Y-82373995D01*
X194736639Y-82292426D01*
X194737042Y-82199061D01*
X194737375Y-82093287D01*
X194737644Y-81974492D01*
X194737852Y-81842066D01*
X194738004Y-81695397D01*
X194738104Y-81533872D01*
X194738156Y-81356880D01*
X194738166Y-81220871D01*
X194738147Y-81033330D01*
X194738085Y-80861676D01*
X194737977Y-80705280D01*
X194737818Y-80563516D01*
X194737603Y-80435755D01*
X194737327Y-80321369D01*
X194736987Y-80219730D01*
X194736578Y-80130211D01*
X194736095Y-80052183D01*
X194735533Y-79985018D01*
X194734889Y-79928089D01*
X194734157Y-79880767D01*
X194733333Y-79842425D01*
X194732412Y-79812434D01*
X194731391Y-79790167D01*
X194730264Y-79774996D01*
X194729026Y-79766293D01*
X194727674Y-79763429D01*
X194727633Y-79763427D01*
X194719580Y-79767409D01*
X194698038Y-79779022D01*
X194663895Y-79797767D01*
X194618035Y-79823145D01*
X194561346Y-79854658D01*
X194494713Y-79891804D01*
X194419024Y-79934086D01*
X194335165Y-79981005D01*
X194244022Y-80032061D01*
X194146480Y-80086754D01*
X194043428Y-80144587D01*
X193935751Y-80205059D01*
X193824335Y-80267672D01*
X193710067Y-80331926D01*
X193593833Y-80397322D01*
X193476520Y-80463362D01*
X193359014Y-80529545D01*
X193242201Y-80595373D01*
X193126967Y-80660347D01*
X193014200Y-80723967D01*
X192904785Y-80785734D01*
X192799609Y-80845150D01*
X192699559Y-80901715D01*
X192605519Y-80954929D01*
X192518378Y-81004294D01*
X192439021Y-81049311D01*
X192368335Y-81089480D01*
X192307205Y-81124302D01*
X192256519Y-81153279D01*
X192217163Y-81175910D01*
X192190023Y-81191697D01*
X192175985Y-81200141D01*
X192174220Y-81201367D01*
X192172049Y-81211466D01*
X192178348Y-81217127D01*
X192194474Y-81226746D01*
X192223494Y-81243731D01*
X192264530Y-81267577D01*
X192316701Y-81297780D01*
X192379128Y-81333836D01*
X192450932Y-81375242D01*
X192531233Y-81421492D01*
X192619152Y-81472084D01*
X192713809Y-81526513D01*
X192814324Y-81584275D01*
X192919819Y-81644866D01*
X193029414Y-81707782D01*
X193142229Y-81772519D01*
X193257385Y-81838573D01*
X193374003Y-81905440D01*
X193491202Y-81972617D01*
X193608103Y-82039598D01*
X193723828Y-82105880D01*
X193837496Y-82170959D01*
X193948227Y-82234331D01*
X194055143Y-82295492D01*
X194157365Y-82353938D01*
X194254011Y-82409165D01*
X194344204Y-82460669D01*
X194427063Y-82507945D01*
X194501709Y-82550490D01*
X194567262Y-82587801D01*
X194622844Y-82619372D01*
X194667574Y-82644699D01*
X194700573Y-82663280D01*
X194720962Y-82674609D01*
X194727845Y-82678197D01*
X194727845Y-82841174D01*
X194707821Y-82841924D01*
X194663849Y-82832174D01*
X194654035Y-82827111D01*
X194630798Y-82814313D01*
X194595027Y-82794291D01*
X194547610Y-82767553D01*
X194489435Y-82734608D01*
X194421391Y-82695966D01*
X194344364Y-82652137D01*
X194259245Y-82603630D01*
X194166919Y-82550954D01*
X194068277Y-82494618D01*
X193964205Y-82435131D01*
X193855592Y-82373004D01*
X193743326Y-82308745D01*
X193628295Y-82242864D01*
X193511387Y-82175870D01*
X193393490Y-82108272D01*
X193275493Y-82040580D01*
X193158283Y-81973304D01*
X193042749Y-81906951D01*
X192929779Y-81842033D01*
X192820261Y-81779057D01*
X192715082Y-81718534D01*
X192615132Y-81660972D01*
X192521298Y-81606882D01*
X192434468Y-81556772D01*
X192355531Y-81511152D01*
X192285374Y-81470531D01*
X192224885Y-81435418D01*
X192174954Y-81406323D01*
X192136467Y-81383756D01*
X192110313Y-81368224D01*
X192097947Y-81360614D01*
X192052562Y-81323243D01*
X192022631Y-81280455D01*
X192007861Y-81231801D01*
X192006722Y-81221585D01*
X192010273Y-81169488D01*
G36*
X192698918Y-81197471D02*
G01*
X192699888Y-81155538D01*
X192701365Y-81122416D01*
X192703234Y-81100673D01*
X192705375Y-81092880D01*
X192714204Y-81095739D01*
X192736966Y-81103944D01*
X192772170Y-81116935D01*
X192818325Y-81134154D01*
X192873940Y-81155043D01*
X192937525Y-81179043D01*
X193007588Y-81205595D01*
X193082639Y-81234140D01*
X193099669Y-81240632D01*
X193175461Y-81269449D01*
X193246477Y-81296290D01*
X193311245Y-81320611D01*
X193368294Y-81341866D01*
X193416150Y-81359510D01*
X193453342Y-81372997D01*
X193478399Y-81381783D01*
X193489847Y-81385322D01*
X193490400Y-81385337D01*
X193488461Y-81377138D01*
X193481464Y-81355270D01*
X193470044Y-81321565D01*
X193454839Y-81277857D01*
X193436482Y-81225979D01*
X193415609Y-81167763D01*
X193400455Y-81125910D01*
X193378256Y-81064430D01*
X193358171Y-81008019D01*
X193340833Y-80958516D01*
X193326873Y-80917759D01*
X193316925Y-80887589D01*
X193311620Y-80869843D01*
X193310981Y-80865818D01*
X193319006Y-80868354D01*
X193340855Y-80876945D01*
X193375217Y-80891037D01*
X193420783Y-80910075D01*
X193476241Y-80933507D01*
X193540281Y-80960776D01*
X193611592Y-80991331D01*
X193688863Y-81024617D01*
X193770784Y-81060079D01*
X193776641Y-81062621D01*
X194238589Y-81263138D01*
X194240949Y-81181548D01*
X194242565Y-81147471D01*
X194245033Y-81120936D01*
X194247966Y-81105309D01*
X194249987Y-81102613D01*
X194258394Y-81108432D01*
X194277459Y-81122920D01*
X194305224Y-81144511D01*
X194339729Y-81171638D01*
X194379015Y-81202736D01*
X194421123Y-81236240D01*
X194464095Y-81270582D01*
X194505971Y-81304199D01*
X194544793Y-81335522D01*
X194578601Y-81362988D01*
X194605437Y-81385030D01*
X194623341Y-81400082D01*
X194630354Y-81406578D01*
X194630386Y-81406665D01*
X194622721Y-81409273D01*
X194600838Y-81414659D01*
X194566718Y-81422390D01*
X194522344Y-81432028D01*
X194469697Y-81443138D01*
X194410757Y-81455286D01*
X194389271Y-81459649D01*
X194327666Y-81472140D01*
X194270796Y-81483725D01*
X194220822Y-81493959D01*
X194179906Y-81502399D01*
X194150209Y-81508600D01*
X194133891Y-81512117D01*
X194131928Y-81512582D01*
X194127746Y-81510013D01*
X194133466Y-81497176D01*
X194149506Y-81473320D01*
X194167022Y-81449763D01*
X194188299Y-81421473D01*
X194205214Y-81398341D01*
X194215642Y-81383308D01*
X194217945Y-81379191D01*
X194210507Y-81375449D01*
X194189491Y-81366802D01*
X194156848Y-81353975D01*
X194114527Y-81337689D01*
X194064477Y-81318669D01*
X194008648Y-81297637D01*
X193948990Y-81275317D01*
X193887451Y-81252431D01*
X193825982Y-81229703D01*
X193766532Y-81207857D01*
X193711050Y-81187614D01*
X193661486Y-81169699D01*
X193619790Y-81154835D01*
X193587910Y-81143744D01*
X193567797Y-81137150D01*
X193561379Y-81135640D01*
X193563110Y-81144023D01*
X193569744Y-81165947D01*
X193580617Y-81199407D01*
X193595061Y-81242397D01*
X193612412Y-81292910D01*
X193632003Y-81348942D01*
X193635041Y-81357549D01*
X193654978Y-81414116D01*
X193672930Y-81465332D01*
X193688210Y-81509212D01*
X193700130Y-81543776D01*
X193708003Y-81567041D01*
X193711143Y-81577023D01*
X193711163Y-81577253D01*
X193703079Y-81576061D01*
X193680135Y-81572176D01*
X193643722Y-81565843D01*
X193595232Y-81557310D01*
X193536056Y-81546823D01*
X193467586Y-81534628D01*
X193391212Y-81520973D01*
X193308326Y-81506104D01*
X193220319Y-81490268D01*
X193210533Y-81488504D01*
X193121873Y-81472539D01*
X193038043Y-81457477D01*
X192960454Y-81443570D01*
X192890515Y-81431068D01*
X192829638Y-81420224D01*
X192779232Y-81411288D01*
X192740708Y-81404511D01*
X192715478Y-81400145D01*
X192704950Y-81398440D01*
X192704763Y-81398426D01*
X192702810Y-81390591D01*
X192701110Y-81368812D01*
X192699767Y-81335660D01*
X192698885Y-81293706D01*
X192698570Y-81245644D01*
X192698918Y-81197471D01*
G37*
X192698918Y-81197471D02*
X192699888Y-81155538D01*
X192701365Y-81122416D01*
X192703234Y-81100673D01*
X192705375Y-81092880D01*
X192714204Y-81095739D01*
X192736966Y-81103944D01*
X192772170Y-81116935D01*
X192818325Y-81134154D01*
X192873940Y-81155043D01*
X192937525Y-81179043D01*
X193007588Y-81205595D01*
X193082639Y-81234140D01*
X193099669Y-81240632D01*
X193175461Y-81269449D01*
X193246477Y-81296290D01*
X193311245Y-81320611D01*
X193368294Y-81341866D01*
X193416150Y-81359510D01*
X193453342Y-81372997D01*
X193478399Y-81381783D01*
X193489847Y-81385322D01*
X193490400Y-81385337D01*
X193488461Y-81377138D01*
X193481464Y-81355270D01*
X193470044Y-81321565D01*
X193454839Y-81277857D01*
X193436482Y-81225979D01*
X193415609Y-81167763D01*
X193400455Y-81125910D01*
X193378256Y-81064430D01*
X193358171Y-81008019D01*
X193340833Y-80958516D01*
X193326873Y-80917759D01*
X193316925Y-80887589D01*
X193311620Y-80869843D01*
X193310981Y-80865818D01*
X193319006Y-80868354D01*
X193340855Y-80876945D01*
X193375217Y-80891037D01*
X193420783Y-80910075D01*
X193476241Y-80933507D01*
X193540281Y-80960776D01*
X193611592Y-80991331D01*
X193688863Y-81024617D01*
X193770784Y-81060079D01*
X193776641Y-81062621D01*
X194238589Y-81263138D01*
X194240949Y-81181548D01*
X194242565Y-81147471D01*
X194245033Y-81120936D01*
X194247966Y-81105309D01*
X194249987Y-81102613D01*
X194258394Y-81108432D01*
X194277459Y-81122920D01*
X194305224Y-81144511D01*
X194339729Y-81171638D01*
X194379015Y-81202736D01*
X194421123Y-81236240D01*
X194464095Y-81270582D01*
X194505971Y-81304199D01*
X194544793Y-81335522D01*
X194578601Y-81362988D01*
X194605437Y-81385030D01*
X194623341Y-81400082D01*
X194630354Y-81406578D01*
X194630386Y-81406665D01*
X194622721Y-81409273D01*
X194600838Y-81414659D01*
X194566718Y-81422390D01*
X194522344Y-81432028D01*
X194469697Y-81443138D01*
X194410757Y-81455286D01*
X194389271Y-81459649D01*
X194327666Y-81472140D01*
X194270796Y-81483725D01*
X194220822Y-81493959D01*
X194179906Y-81502399D01*
X194150209Y-81508600D01*
X194133891Y-81512117D01*
X194131928Y-81512582D01*
X194127746Y-81510013D01*
X194133466Y-81497176D01*
X194149506Y-81473320D01*
X194167022Y-81449763D01*
X194188299Y-81421473D01*
X194205214Y-81398341D01*
X194215642Y-81383308D01*
X194217945Y-81379191D01*
X194210507Y-81375449D01*
X194189491Y-81366802D01*
X194156848Y-81353975D01*
X194114527Y-81337689D01*
X194064477Y-81318669D01*
X194008648Y-81297637D01*
X193948990Y-81275317D01*
X193887451Y-81252431D01*
X193825982Y-81229703D01*
X193766532Y-81207857D01*
X193711050Y-81187614D01*
X193661486Y-81169699D01*
X193619790Y-81154835D01*
X193587910Y-81143744D01*
X193567797Y-81137150D01*
X193561379Y-81135640D01*
X193563110Y-81144023D01*
X193569744Y-81165947D01*
X193580617Y-81199407D01*
X193595061Y-81242397D01*
X193612412Y-81292910D01*
X193632003Y-81348942D01*
X193635041Y-81357549D01*
X193654978Y-81414116D01*
X193672930Y-81465332D01*
X193688210Y-81509212D01*
X193700130Y-81543776D01*
X193708003Y-81567041D01*
X193711143Y-81577023D01*
X193711163Y-81577253D01*
X193703079Y-81576061D01*
X193680135Y-81572176D01*
X193643722Y-81565843D01*
X193595232Y-81557310D01*
X193536056Y-81546823D01*
X193467586Y-81534628D01*
X193391212Y-81520973D01*
X193308326Y-81506104D01*
X193220319Y-81490268D01*
X193210533Y-81488504D01*
X193121873Y-81472539D01*
X193038043Y-81457477D01*
X192960454Y-81443570D01*
X192890515Y-81431068D01*
X192829638Y-81420224D01*
X192779232Y-81411288D01*
X192740708Y-81404511D01*
X192715478Y-81400145D01*
X192704950Y-81398440D01*
X192704763Y-81398426D01*
X192702810Y-81390591D01*
X192701110Y-81368812D01*
X192699767Y-81335660D01*
X192698885Y-81293706D01*
X192698570Y-81245644D01*
X192698918Y-81197471D01*
D10*
X129105000Y-57306000D02*
X129105000Y-51336000D01*
X129105000Y-51336000D02*
X121485000Y-51336000D01*
X121485000Y-51336000D02*
X121485000Y-57306000D01*
X121485000Y-57306000D02*
X129105000Y-57306000D01*
X125795000Y-57296000D02*
X125795000Y-56546000D01*
X125795000Y-56546000D02*
X124795000Y-56546000D01*
X124795000Y-56546000D02*
X124795000Y-57296000D01*
X124795000Y-57296000D02*
X125795000Y-57296000D01*
X129095000Y-57296000D02*
X129095000Y-56546000D01*
X129095000Y-56546000D02*
X127295000Y-56546000D01*
X127295000Y-56546000D02*
X127295000Y-57296000D01*
X127295000Y-57296000D02*
X129095000Y-57296000D01*
X123295000Y-57296000D02*
X123295000Y-56546000D01*
X123295000Y-56546000D02*
X121495000Y-56546000D01*
X121495000Y-56546000D02*
X121495000Y-57296000D01*
X121495000Y-57296000D02*
X123295000Y-57296000D01*
X129095000Y-55046000D02*
X128345000Y-55046000D01*
X128345000Y-55046000D02*
X128345000Y-52096000D01*
X128345000Y-52096000D02*
X125295000Y-52096000D01*
X121495000Y-55046000D02*
X122245000Y-55046000D01*
X122245000Y-55046000D02*
X122245000Y-52096000D01*
X122245000Y-52096000D02*
X125295000Y-52096000D01*
X128145000Y-57596000D02*
X129395000Y-57596000D01*
X129395000Y-57596000D02*
X129395000Y-56346000D01*
X99395276Y-90922500D02*
X99904724Y-90922500D01*
X99395276Y-89877500D02*
X99904724Y-89877500D01*
X99395276Y-88327500D02*
X99904724Y-88327500D01*
X99395276Y-89372500D02*
X99904724Y-89372500D01*
X99904724Y-87822500D02*
X99395276Y-87822500D01*
X99904724Y-86777500D02*
X99395276Y-86777500D01*
X99904724Y-86272500D02*
X99395276Y-86272500D01*
X99904724Y-85227500D02*
X99395276Y-85227500D01*
X99395276Y-83702500D02*
X99904724Y-83702500D01*
X99395276Y-84747500D02*
X99904724Y-84747500D01*
X185570000Y-78000000D02*
X192070000Y-78000000D01*
X176670000Y-78000000D02*
X183170000Y-78000000D01*
X176670000Y-78000000D02*
X176670000Y-58800000D01*
X176670000Y-58800000D02*
X192070000Y-58800000D01*
X192070000Y-58800000D02*
X192070000Y-78000000D01*
X188670000Y-62300000D02*
X186370000Y-62300000D01*
X180070000Y-62300000D02*
X182370000Y-62300000D01*
X190370000Y-72800000D02*
X190370000Y-70500000D01*
X184370000Y-73900000D02*
X184370000Y-74800000D01*
X178370000Y-70500000D02*
X178370000Y-72800000D01*
X184370000Y-67000000D02*
X184370000Y-65500000D01*
X184370000Y-65500000D02*
X181670000Y-61000000D01*
X188070000Y-67000000D02*
X188070000Y-73900000D01*
X184370000Y-67000000D02*
X188070000Y-67000000D01*
X184370000Y-73900000D02*
X188070000Y-73900000D01*
X178370000Y-70500000D02*
X182870000Y-70500000D01*
X185870000Y-70500000D02*
X190370000Y-70500000D01*
X185870000Y-68000000D02*
X182870000Y-73000000D01*
X185870000Y-73000000D02*
X182870000Y-73000000D01*
X182870000Y-73000000D02*
X182870000Y-68000000D01*
X182870000Y-68000000D02*
X185870000Y-68000000D01*
X185870000Y-68000000D02*
X185870000Y-73000000D01*
X143720000Y-66530000D02*
X143720000Y-65200000D01*
X145050000Y-66530000D02*
X143720000Y-66530000D01*
X146320000Y-66530000D02*
X146320000Y-63870000D01*
X146320000Y-63870000D02*
X154000000Y-63870000D01*
X146320000Y-66530000D02*
X154000000Y-66530000D01*
X154000000Y-66530000D02*
X154000000Y-63870000D01*
X167870000Y-68000000D02*
X167870000Y-73000000D01*
X164870000Y-68000000D02*
X167870000Y-68000000D01*
X164870000Y-73000000D02*
X164870000Y-68000000D01*
X167870000Y-73000000D02*
X164870000Y-73000000D01*
X167870000Y-68000000D02*
X164870000Y-73000000D01*
X167870000Y-70500000D02*
X172370000Y-70500000D01*
X160370000Y-70500000D02*
X164870000Y-70500000D01*
X166370000Y-73900000D02*
X170070000Y-73900000D01*
X166370000Y-67000000D02*
X170070000Y-67000000D01*
X170070000Y-67000000D02*
X170070000Y-73900000D01*
X166370000Y-65500000D02*
X163670000Y-61000000D01*
X166370000Y-67000000D02*
X166370000Y-65500000D01*
X160370000Y-70500000D02*
X160370000Y-72800000D01*
X166370000Y-73900000D02*
X166370000Y-74800000D01*
X172370000Y-72800000D02*
X172370000Y-70500000D01*
X162070000Y-62300000D02*
X164370000Y-62300000D01*
X170670000Y-62300000D02*
X168370000Y-62300000D01*
X174070000Y-58800000D02*
X174070000Y-78000000D01*
X158670000Y-58800000D02*
X174070000Y-58800000D01*
X158670000Y-78000000D02*
X158670000Y-58800000D01*
X158670000Y-78000000D02*
X165170000Y-78000000D01*
X167570000Y-78000000D02*
X174070000Y-78000000D01*
X152620000Y-77630000D02*
X153950000Y-77630000D01*
X152620000Y-78960000D02*
X152620000Y-77630000D01*
X152620000Y-80230000D02*
X155280000Y-80230000D01*
X155280000Y-80230000D02*
X155280000Y-87910000D01*
X152620000Y-80230000D02*
X152620000Y-87910000D01*
X152620000Y-87910000D02*
X155280000Y-87910000D01*
X155521000Y-57306000D02*
X155521000Y-51336000D01*
X155521000Y-51336000D02*
X147901000Y-51336000D01*
X147901000Y-51336000D02*
X147901000Y-57306000D01*
X147901000Y-57306000D02*
X155521000Y-57306000D01*
X152211000Y-57296000D02*
X152211000Y-56546000D01*
X152211000Y-56546000D02*
X151211000Y-56546000D01*
X151211000Y-56546000D02*
X151211000Y-57296000D01*
X151211000Y-57296000D02*
X152211000Y-57296000D01*
X155511000Y-57296000D02*
X155511000Y-56546000D01*
X155511000Y-56546000D02*
X153711000Y-56546000D01*
X153711000Y-56546000D02*
X153711000Y-57296000D01*
X153711000Y-57296000D02*
X155511000Y-57296000D01*
X149711000Y-57296000D02*
X149711000Y-56546000D01*
X149711000Y-56546000D02*
X147911000Y-56546000D01*
X147911000Y-56546000D02*
X147911000Y-57296000D01*
X147911000Y-57296000D02*
X149711000Y-57296000D01*
X155511000Y-55046000D02*
X154761000Y-55046000D01*
X154761000Y-55046000D02*
X154761000Y-52096000D01*
X154761000Y-52096000D02*
X151711000Y-52096000D01*
X147911000Y-55046000D02*
X148661000Y-55046000D01*
X148661000Y-55046000D02*
X148661000Y-52096000D01*
X148661000Y-52096000D02*
X151711000Y-52096000D01*
X154561000Y-57596000D02*
X155811000Y-57596000D01*
X155811000Y-57596000D02*
X155811000Y-56346000D01*
X175727500Y-92038724D02*
X175727500Y-91529276D01*
X176772500Y-92038724D02*
X176772500Y-91529276D01*
X118046000Y-59044000D02*
X116346000Y-59044000D01*
X112526000Y-59044000D02*
X114226000Y-59044000D01*
X112526000Y-63499563D02*
X112526000Y-59044000D01*
X118046000Y-63499563D02*
X118046000Y-59044000D01*
X116981563Y-64564000D02*
X116346000Y-64564000D01*
X113590437Y-64564000D02*
X114226000Y-64564000D01*
X113590437Y-64564000D02*
X112526000Y-63499563D01*
X116981563Y-64564000D02*
X118046000Y-63499563D01*
X113601000Y-65429000D02*
X113601000Y-64804000D01*
X113288500Y-65116500D02*
X113913500Y-65116500D01*
X114200000Y-69800000D02*
X114200000Y-73000000D01*
X103600000Y-69800000D02*
X114200000Y-69800000D01*
X103600000Y-73000000D02*
X103600000Y-69800000D01*
X103600000Y-80400000D02*
X103600000Y-77200000D01*
X114200000Y-80400000D02*
X103600000Y-80400000D01*
X114200000Y-77200000D02*
X114200000Y-80400000D01*
X158670000Y-56820000D02*
X158670000Y-49200000D01*
X173910000Y-56820000D02*
X173910000Y-49200000D01*
X158670000Y-55550000D02*
X173910000Y-55550000D01*
X158670000Y-49200000D02*
X173910000Y-49200000D01*
X158670000Y-56820000D02*
X173910000Y-56820000D01*
X100498752Y-80060000D02*
X99076248Y-80060000D01*
X100498752Y-77340000D02*
X99076248Y-77340000D01*
X99333767Y-76610000D02*
X99041233Y-76610000D01*
X99333767Y-75590000D02*
X99041233Y-75590000D01*
X104653733Y-69210000D02*
X104946267Y-69210000D01*
X104653733Y-68190000D02*
X104946267Y-68190000D01*
X111010000Y-84023752D02*
X111010000Y-82601248D01*
X108290000Y-84023752D02*
X108290000Y-82601248D01*
X111690000Y-84023752D02*
X111690000Y-82601248D01*
X114410000Y-84023752D02*
X114410000Y-82601248D01*
X97560000Y-89646267D02*
X97560000Y-89353733D01*
X96540000Y-89646267D02*
X96540000Y-89353733D01*
X119675500Y-65116500D02*
X120300500Y-65116500D01*
X119988000Y-65429000D02*
X119988000Y-64804000D01*
X123368563Y-64564000D02*
X124433000Y-63499563D01*
X119977437Y-64564000D02*
X118913000Y-63499563D01*
X119977437Y-64564000D02*
X120613000Y-64564000D01*
X123368563Y-64564000D02*
X122733000Y-64564000D01*
X124433000Y-63499563D02*
X124433000Y-59044000D01*
X118913000Y-63499563D02*
X118913000Y-59044000D01*
X118913000Y-59044000D02*
X120613000Y-59044000D01*
X124433000Y-59044000D02*
X122733000Y-59044000D01*
X124696267Y-73965000D02*
X124403733Y-73965000D01*
X124696267Y-74985000D02*
X124403733Y-74985000D01*
X124696267Y-76685000D02*
X124403733Y-76685000D01*
X124696267Y-75665000D02*
X124403733Y-75665000D01*
X102600000Y-63700000D02*
X102600000Y-69100000D01*
X99300000Y-63700000D02*
X99300000Y-69100000D01*
X102600000Y-63700000D02*
X99300000Y-63700000D01*
X176985000Y-97000000D02*
X176985000Y-94540000D01*
X175515000Y-97000000D02*
X176985000Y-97000000D01*
X175515000Y-94540000D02*
X175515000Y-97000000D01*
X187707000Y-94540000D02*
X187707000Y-97000000D01*
X187707000Y-97000000D02*
X189177000Y-97000000D01*
X189177000Y-97000000D02*
X189177000Y-94540000D01*
X191514000Y-84584000D02*
X191514000Y-86284000D01*
X191514000Y-86284000D02*
X194064000Y-86284000D01*
X191514000Y-84584000D02*
X194064000Y-84584000D01*
X186129000Y-97000000D02*
X186129000Y-94540000D01*
X184659000Y-97000000D02*
X186129000Y-97000000D01*
X184659000Y-94540000D02*
X184659000Y-97000000D01*
X191514000Y-87124000D02*
X194064000Y-87124000D01*
X191514000Y-88824000D02*
X194064000Y-88824000D01*
X191514000Y-87124000D02*
X191514000Y-88824000D01*
X180033000Y-97000000D02*
X180033000Y-94540000D01*
X178563000Y-97000000D02*
X180033000Y-97000000D01*
X178563000Y-94540000D02*
X178563000Y-97000000D01*
X181611000Y-94540000D02*
X181611000Y-97000000D01*
X181611000Y-97000000D02*
X183081000Y-97000000D01*
X183081000Y-97000000D02*
X183081000Y-94540000D01*
X119780000Y-90530000D02*
X118450000Y-90530000D01*
X119780000Y-89200000D02*
X119780000Y-90530000D01*
X119780000Y-87930000D02*
X117120000Y-87930000D01*
X117120000Y-87930000D02*
X117120000Y-75170000D01*
X119780000Y-87930000D02*
X119780000Y-75170000D01*
X119780000Y-75170000D02*
X117120000Y-75170000D01*
X157120000Y-92950000D02*
X159780000Y-92950000D01*
X157120000Y-85270000D02*
X157120000Y-92950000D01*
X159780000Y-85270000D02*
X159780000Y-92950000D01*
X157120000Y-85270000D02*
X159780000Y-85270000D01*
X157120000Y-84000000D02*
X157120000Y-82670000D01*
X157120000Y-82670000D02*
X158450000Y-82670000D01*
X118150000Y-54062500D02*
X118150000Y-53612500D01*
X118150000Y-54062500D02*
X117700000Y-54062500D01*
X112550000Y-53512500D02*
X113000000Y-53512500D01*
X112550000Y-51662500D02*
X112550000Y-53512500D01*
X120350000Y-49112500D02*
X120350000Y-49362500D01*
X112550000Y-49112500D02*
X112550000Y-49362500D01*
X120350000Y-51662500D02*
X120350000Y-53512500D01*
X120350000Y-53512500D02*
X119900000Y-53512500D01*
X108970000Y-66320000D02*
X110300000Y-66320000D01*
X108970000Y-67650000D02*
X108970000Y-66320000D01*
X111570000Y-66320000D02*
X114170000Y-66320000D01*
X111570000Y-68920000D02*
X111570000Y-66320000D01*
X108970000Y-68920000D02*
X111570000Y-68920000D01*
X114170000Y-66320000D02*
X114170000Y-68980000D01*
X108970000Y-68920000D02*
X108970000Y-68980000D01*
X108970000Y-68980000D02*
X114170000Y-68980000D01*
X175920000Y-56820000D02*
X191160000Y-56820000D01*
X175920000Y-49200000D02*
X191160000Y-49200000D01*
X175920000Y-55550000D02*
X191160000Y-55550000D01*
X191160000Y-56820000D02*
X191160000Y-49200000D01*
X175920000Y-56820000D02*
X175920000Y-49200000D01*
X138031000Y-57596000D02*
X138031000Y-56346000D01*
X136781000Y-57596000D02*
X138031000Y-57596000D01*
X130881000Y-52096000D02*
X133931000Y-52096000D01*
X130881000Y-55046000D02*
X130881000Y-52096000D01*
X130131000Y-55046000D02*
X130881000Y-55046000D01*
X136981000Y-52096000D02*
X133931000Y-52096000D01*
X136981000Y-55046000D02*
X136981000Y-52096000D01*
X137731000Y-55046000D02*
X136981000Y-55046000D01*
X130131000Y-57296000D02*
X131931000Y-57296000D01*
X130131000Y-56546000D02*
X130131000Y-57296000D01*
X131931000Y-56546000D02*
X130131000Y-56546000D01*
X131931000Y-57296000D02*
X131931000Y-56546000D01*
X135931000Y-57296000D02*
X137731000Y-57296000D01*
X135931000Y-56546000D02*
X135931000Y-57296000D01*
X137731000Y-56546000D02*
X135931000Y-56546000D01*
X137731000Y-57296000D02*
X137731000Y-56546000D01*
X133431000Y-57296000D02*
X134431000Y-57296000D01*
X133431000Y-56546000D02*
X133431000Y-57296000D01*
X134431000Y-56546000D02*
X133431000Y-56546000D01*
X134431000Y-57296000D02*
X134431000Y-56546000D01*
X130121000Y-57306000D02*
X137741000Y-57306000D01*
X130121000Y-51336000D02*
X130121000Y-57306000D01*
X137741000Y-51336000D02*
X130121000Y-51336000D01*
X137741000Y-57306000D02*
X137741000Y-51336000D01*
X188044000Y-87040000D02*
X188044000Y-88450000D01*
X190364000Y-88450000D02*
X190364000Y-86420000D01*
X190364000Y-88450000D02*
X189704000Y-88450000D01*
X188704000Y-88450000D02*
X188044000Y-88450000D01*
X185402000Y-88450000D02*
X184742000Y-88450000D01*
X187062000Y-88450000D02*
X186402000Y-88450000D01*
X187062000Y-88450000D02*
X187062000Y-86420000D01*
X184742000Y-87040000D02*
X184742000Y-88450000D01*
X148616000Y-59410000D02*
X150076000Y-59410000D01*
X148616000Y-62570000D02*
X150776000Y-62570000D01*
X148616000Y-62570000D02*
X148616000Y-61640000D01*
X148616000Y-59410000D02*
X148616000Y-60340000D01*
X182346724Y-87959500D02*
X181837276Y-87959500D01*
X182346724Y-89004500D02*
X181837276Y-89004500D01*
X187919500Y-91529276D02*
X187919500Y-92038724D01*
X188964500Y-91529276D02*
X188964500Y-92038724D01*
X182346724Y-87226500D02*
X181837276Y-87226500D01*
X182346724Y-86181500D02*
X181837276Y-86181500D01*
X185916500Y-91529276D02*
X185916500Y-92038724D01*
X184871500Y-91529276D02*
X184871500Y-92038724D01*
X138135500Y-61154224D02*
X138135500Y-60644776D01*
X139180500Y-61154224D02*
X139180500Y-60644776D01*
X142228500Y-61154224D02*
X142228500Y-60644776D01*
X141183500Y-61154224D02*
X141183500Y-60644776D01*
X105360500Y-90028724D02*
X105360500Y-89519276D01*
X104315500Y-90028724D02*
X104315500Y-89519276D01*
X102537500Y-90028724D02*
X102537500Y-89519276D01*
X103582500Y-90028724D02*
X103582500Y-89519276D01*
X107871500Y-89519276D02*
X107871500Y-90028724D01*
X108916500Y-89519276D02*
X108916500Y-90028724D01*
X178775500Y-92038724D02*
X178775500Y-91529276D01*
X179820500Y-92038724D02*
X179820500Y-91529276D01*
X107138500Y-89519276D02*
X107138500Y-90028724D01*
X106093500Y-89519276D02*
X106093500Y-90028724D01*
X110694500Y-89519276D02*
X110694500Y-90028724D01*
X109649500Y-89519276D02*
X109649500Y-90028724D01*
X182868500Y-92038724D02*
X182868500Y-91529276D01*
X181823500Y-92038724D02*
X181823500Y-91529276D01*
X135087500Y-60541276D02*
X135087500Y-61050724D01*
X136132500Y-60541276D02*
X136132500Y-61050724D01*
X132039500Y-60541276D02*
X132039500Y-61050724D01*
X133084500Y-60541276D02*
X133084500Y-61050724D01*
X130036500Y-60541276D02*
X130036500Y-61050724D01*
X128991500Y-60541276D02*
X128991500Y-61050724D01*
X152692500Y-61244724D02*
X152692500Y-60735276D01*
X151647500Y-61244724D02*
X151647500Y-60735276D01*
X146059500Y-61244724D02*
X146059500Y-60735276D01*
X147104500Y-61244724D02*
X147104500Y-60735276D01*
X117550000Y-92150000D02*
X111350000Y-92150000D01*
X111350000Y-95850000D02*
X117550000Y-95850000D01*
X117550000Y-95850000D02*
X117550000Y-95200000D01*
X117550000Y-92800000D02*
X117550000Y-92150000D01*
X111350000Y-92150000D02*
X111350000Y-92800000D01*
X111350000Y-95850000D02*
X111350000Y-95200000D01*
X102850000Y-95850000D02*
X102850000Y-95200000D01*
X102850000Y-92150000D02*
X102850000Y-92800000D01*
X109050000Y-92800000D02*
X109050000Y-92150000D01*
X109050000Y-95850000D02*
X109050000Y-95200000D01*
X102850000Y-95850000D02*
X109050000Y-95850000D01*
X109050000Y-92150000D02*
X102850000Y-92150000D01*
X127670000Y-60796000D02*
G75*
G03*
X127670000Y-60796000I-950000J0D01*
G01*
X101900000Y-74000000D02*
G75*
G03*
X101900000Y-74000000I-950000J0D01*
G01*
X127650000Y-69178000D02*
G75*
G03*
X127650000Y-69178000I-950000J0D01*
G01*
X127670000Y-64860000D02*
G75*
G03*
X127670000Y-64860000I-950000J0D01*
G01*
X177675000Y-87625000D02*
G75*
G03*
X177675000Y-87625000I-950000J0D01*
G01*
X177650000Y-85025000D02*
G75*
G03*
X177650000Y-85025000I-950000J0D01*
G01*
X130718000Y-64860000D02*
G75*
G03*
X130718000Y-64860000I-950000J0D01*
G01*
X116524000Y-66276000D02*
X122534000Y-66276000D01*
X118774000Y-73096000D02*
X122534000Y-73096000D01*
X122534000Y-66276000D02*
X122534000Y-67536000D01*
X122534000Y-73096000D02*
X122534000Y-71836000D01*
X104860000Y-83700000D02*
X104860000Y-81250000D01*
X101640000Y-81900000D02*
X101640000Y-83700000D01*
D12*
X103657142Y-136307142D02*
X103657142Y-137035714D01*
X103700000Y-137121428D01*
X103742857Y-137164285D01*
X103828571Y-137207142D01*
X104000000Y-137207142D01*
X104085714Y-137164285D01*
X104128571Y-137121428D01*
X104171428Y-137035714D01*
X104171428Y-136307142D01*
X104557142Y-136392857D02*
X104600000Y-136350000D01*
X104685714Y-136307142D01*
X104900000Y-136307142D01*
X104985714Y-136350000D01*
X105028571Y-136392857D01*
X105071428Y-136478571D01*
X105071428Y-136564285D01*
X105028571Y-136692857D01*
X104514285Y-137207142D01*
X105071428Y-137207142D01*
X105628571Y-136307142D02*
X105714285Y-136307142D01*
X105800000Y-136350000D01*
X105842857Y-136392857D01*
X105885714Y-136478571D01*
X105928571Y-136650000D01*
X105928571Y-136864285D01*
X105885714Y-137035714D01*
X105842857Y-137121428D01*
X105800000Y-137164285D01*
X105714285Y-137207142D01*
X105628571Y-137207142D01*
X105542857Y-137164285D01*
X105500000Y-137121428D01*
X105457142Y-137035714D01*
X105414285Y-136864285D01*
X105414285Y-136650000D01*
X105457142Y-136478571D01*
X105500000Y-136392857D01*
X105542857Y-136350000D01*
X105628571Y-136307142D01*
X106271428Y-136392857D02*
X106314285Y-136350000D01*
X106400000Y-136307142D01*
X106614285Y-136307142D01*
X106700000Y-136350000D01*
X106742857Y-136392857D01*
X106785714Y-136478571D01*
X106785714Y-136564285D01*
X106742857Y-136692857D01*
X106228571Y-137207142D01*
X106785714Y-137207142D01*
X120076380Y-122900285D02*
X120885904Y-122900285D01*
X120981142Y-122852666D01*
X121028761Y-122805047D01*
X121076380Y-122709809D01*
X121076380Y-122519333D01*
X121028761Y-122424095D01*
X120981142Y-122376476D01*
X120885904Y-122328857D01*
X120076380Y-122328857D01*
X120171619Y-121900285D02*
X120124000Y-121852666D01*
X120076380Y-121757428D01*
X120076380Y-121519333D01*
X120124000Y-121424095D01*
X120171619Y-121376476D01*
X120266857Y-121328857D01*
X120362095Y-121328857D01*
X120504952Y-121376476D01*
X121076380Y-121947904D01*
X121076380Y-121328857D01*
X120076380Y-120709809D02*
X120076380Y-120614571D01*
X120124000Y-120519333D01*
X120171619Y-120471714D01*
X120266857Y-120424095D01*
X120457333Y-120376476D01*
X120695428Y-120376476D01*
X120885904Y-120424095D01*
X120981142Y-120471714D01*
X121028761Y-120519333D01*
X121076380Y-120614571D01*
X121076380Y-120709809D01*
X121028761Y-120805047D01*
X120981142Y-120852666D01*
X120885904Y-120900285D01*
X120695428Y-120947904D01*
X120457333Y-120947904D01*
X120266857Y-120900285D01*
X120171619Y-120852666D01*
X120124000Y-120805047D01*
X120076380Y-120709809D01*
X121076380Y-119424095D02*
X121076380Y-119995523D01*
X121076380Y-119709809D02*
X120076380Y-119709809D01*
X120219238Y-119805047D01*
X120314476Y-119900285D01*
X120362095Y-119995523D01*
X99864285Y-139857142D02*
X99435714Y-139857142D01*
X99392857Y-140285714D01*
X99435714Y-140242857D01*
X99521428Y-140200000D01*
X99735714Y-140200000D01*
X99821428Y-140242857D01*
X99864285Y-140285714D01*
X99907142Y-140371428D01*
X99907142Y-140585714D01*
X99864285Y-140671428D01*
X99821428Y-140714285D01*
X99735714Y-140757142D01*
X99521428Y-140757142D01*
X99435714Y-140714285D01*
X99392857Y-140671428D01*
X159179523Y-121452380D02*
X159179523Y-120452380D01*
X159750952Y-121452380D02*
X159322380Y-120880952D01*
X159750952Y-120452380D02*
X159179523Y-121023809D01*
X160608095Y-120785714D02*
X160608095Y-121452380D01*
X160370000Y-120404761D02*
X160131904Y-121119047D01*
X160750952Y-121119047D01*
X161322380Y-120452380D02*
X161417619Y-120452380D01*
X161512857Y-120500000D01*
X161560476Y-120547619D01*
X161608095Y-120642857D01*
X161655714Y-120833333D01*
X161655714Y-121071428D01*
X161608095Y-121261904D01*
X161560476Y-121357142D01*
X161512857Y-121404761D01*
X161417619Y-121452380D01*
X161322380Y-121452380D01*
X161227142Y-121404761D01*
X161179523Y-121357142D01*
X161131904Y-121261904D01*
X161084285Y-121071428D01*
X161084285Y-120833333D01*
X161131904Y-120642857D01*
X161179523Y-120547619D01*
X161227142Y-120500000D01*
X161322380Y-120452380D01*
X162608095Y-121452380D02*
X162036666Y-121452380D01*
X162322380Y-121452380D02*
X162322380Y-120452380D01*
X162227142Y-120595238D01*
X162131904Y-120690476D01*
X162036666Y-120738095D01*
X99821428Y-141407142D02*
X99650000Y-141407142D01*
X99564285Y-141450000D01*
X99521428Y-141492857D01*
X99435714Y-141621428D01*
X99392857Y-141792857D01*
X99392857Y-142135714D01*
X99435714Y-142221428D01*
X99478571Y-142264285D01*
X99564285Y-142307142D01*
X99735714Y-142307142D01*
X99821428Y-142264285D01*
X99864285Y-142221428D01*
X99907142Y-142135714D01*
X99907142Y-141921428D01*
X99864285Y-141835714D01*
X99821428Y-141792857D01*
X99735714Y-141750000D01*
X99564285Y-141750000D01*
X99478571Y-141792857D01*
X99435714Y-141835714D01*
X99392857Y-141921428D01*
X112542857Y-138521428D02*
X112500000Y-138564285D01*
X112371428Y-138607142D01*
X112285714Y-138607142D01*
X112157142Y-138564285D01*
X112071428Y-138478571D01*
X112028571Y-138392857D01*
X111985714Y-138221428D01*
X111985714Y-138092857D01*
X112028571Y-137921428D01*
X112071428Y-137835714D01*
X112157142Y-137750000D01*
X112285714Y-137707142D01*
X112371428Y-137707142D01*
X112500000Y-137750000D01*
X112542857Y-137792857D01*
X112885714Y-137792857D02*
X112928571Y-137750000D01*
X113014285Y-137707142D01*
X113228571Y-137707142D01*
X113314285Y-137750000D01*
X113357142Y-137792857D01*
X113400000Y-137878571D01*
X113400000Y-137964285D01*
X113357142Y-138092857D01*
X112842857Y-138607142D01*
X113400000Y-138607142D01*
X113957142Y-137707142D02*
X114042857Y-137707142D01*
X114128571Y-137750000D01*
X114171428Y-137792857D01*
X114214285Y-137878571D01*
X114257142Y-138050000D01*
X114257142Y-138264285D01*
X114214285Y-138435714D01*
X114171428Y-138521428D01*
X114128571Y-138564285D01*
X114042857Y-138607142D01*
X113957142Y-138607142D01*
X113871428Y-138564285D01*
X113828571Y-138521428D01*
X113785714Y-138435714D01*
X113742857Y-138264285D01*
X113742857Y-138050000D01*
X113785714Y-137878571D01*
X113828571Y-137792857D01*
X113871428Y-137750000D01*
X113957142Y-137707142D01*
X115028571Y-137707142D02*
X114857142Y-137707142D01*
X114771428Y-137750000D01*
X114728571Y-137792857D01*
X114642857Y-137921428D01*
X114600000Y-138092857D01*
X114600000Y-138435714D01*
X114642857Y-138521428D01*
X114685714Y-138564285D01*
X114771428Y-138607142D01*
X114942857Y-138607142D01*
X115028571Y-138564285D01*
X115071428Y-138521428D01*
X115114285Y-138435714D01*
X115114285Y-138221428D01*
X115071428Y-138135714D01*
X115028571Y-138092857D01*
X114942857Y-138050000D01*
X114771428Y-138050000D01*
X114685714Y-138092857D01*
X114642857Y-138135714D01*
X114600000Y-138221428D01*
X127130952Y-126332142D02*
X127083333Y-126379761D01*
X126940476Y-126427380D01*
X126845238Y-126427380D01*
X126702380Y-126379761D01*
X126607142Y-126284523D01*
X126559523Y-126189285D01*
X126511904Y-125998809D01*
X126511904Y-125855952D01*
X126559523Y-125665476D01*
X126607142Y-125570238D01*
X126702380Y-125475000D01*
X126845238Y-125427380D01*
X126940476Y-125427380D01*
X127083333Y-125475000D01*
X127130952Y-125522619D01*
X127988095Y-125427380D02*
X127797619Y-125427380D01*
X127702380Y-125475000D01*
X127654761Y-125522619D01*
X127559523Y-125665476D01*
X127511904Y-125855952D01*
X127511904Y-126236904D01*
X127559523Y-126332142D01*
X127607142Y-126379761D01*
X127702380Y-126427380D01*
X127892857Y-126427380D01*
X127988095Y-126379761D01*
X128035714Y-126332142D01*
X128083333Y-126236904D01*
X128083333Y-125998809D01*
X128035714Y-125903571D01*
X127988095Y-125855952D01*
X127892857Y-125808333D01*
X127702380Y-125808333D01*
X127607142Y-125855952D01*
X127559523Y-125903571D01*
X127511904Y-125998809D01*
X128702380Y-125427380D02*
X128797619Y-125427380D01*
X128892857Y-125475000D01*
X128940476Y-125522619D01*
X128988095Y-125617857D01*
X129035714Y-125808333D01*
X129035714Y-126046428D01*
X128988095Y-126236904D01*
X128940476Y-126332142D01*
X128892857Y-126379761D01*
X128797619Y-126427380D01*
X128702380Y-126427380D01*
X128607142Y-126379761D01*
X128559523Y-126332142D01*
X128511904Y-126236904D01*
X128464285Y-126046428D01*
X128464285Y-125808333D01*
X128511904Y-125617857D01*
X128559523Y-125522619D01*
X128607142Y-125475000D01*
X128702380Y-125427380D01*
X129988095Y-126427380D02*
X129416666Y-126427380D01*
X129702380Y-126427380D02*
X129702380Y-125427380D01*
X129607142Y-125570238D01*
X129511904Y-125665476D01*
X129416666Y-125713095D01*
X97867142Y-126115047D02*
X97914761Y-126162666D01*
X97962380Y-126305523D01*
X97962380Y-126400761D01*
X97914761Y-126543619D01*
X97819523Y-126638857D01*
X97724285Y-126686476D01*
X97533809Y-126734095D01*
X97390952Y-126734095D01*
X97200476Y-126686476D01*
X97105238Y-126638857D01*
X97010000Y-126543619D01*
X96962380Y-126400761D01*
X96962380Y-126305523D01*
X97010000Y-126162666D01*
X97057619Y-126115047D01*
X97057619Y-125734095D02*
X97010000Y-125686476D01*
X96962380Y-125591238D01*
X96962380Y-125353142D01*
X97010000Y-125257904D01*
X97057619Y-125210285D01*
X97152857Y-125162666D01*
X97248095Y-125162666D01*
X97390952Y-125210285D01*
X97962380Y-125781714D01*
X97962380Y-125162666D01*
X96962380Y-124543619D02*
X96962380Y-124448380D01*
X97010000Y-124353142D01*
X97057619Y-124305523D01*
X97152857Y-124257904D01*
X97343333Y-124210285D01*
X97581428Y-124210285D01*
X97771904Y-124257904D01*
X97867142Y-124305523D01*
X97914761Y-124353142D01*
X97962380Y-124448380D01*
X97962380Y-124543619D01*
X97914761Y-124638857D01*
X97867142Y-124686476D01*
X97771904Y-124734095D01*
X97581428Y-124781714D01*
X97343333Y-124781714D01*
X97152857Y-124734095D01*
X97057619Y-124686476D01*
X97010000Y-124638857D01*
X96962380Y-124543619D01*
X97057619Y-123829333D02*
X97010000Y-123781714D01*
X96962380Y-123686476D01*
X96962380Y-123448380D01*
X97010000Y-123353142D01*
X97057619Y-123305523D01*
X97152857Y-123257904D01*
X97248095Y-123257904D01*
X97390952Y-123305523D01*
X97962380Y-123876952D01*
X97962380Y-123257904D01*
X99392857Y-136842857D02*
X99435714Y-136800000D01*
X99521428Y-136757142D01*
X99735714Y-136757142D01*
X99821428Y-136800000D01*
X99864285Y-136842857D01*
X99907142Y-136928571D01*
X99907142Y-137014285D01*
X99864285Y-137142857D01*
X99350000Y-137657142D01*
X99907142Y-137657142D01*
X97105142Y-131195047D02*
X97152761Y-131242666D01*
X97200380Y-131385523D01*
X97200380Y-131480761D01*
X97152761Y-131623619D01*
X97057523Y-131718857D01*
X96962285Y-131766476D01*
X96771809Y-131814095D01*
X96628952Y-131814095D01*
X96438476Y-131766476D01*
X96343238Y-131718857D01*
X96248000Y-131623619D01*
X96200380Y-131480761D01*
X96200380Y-131385523D01*
X96248000Y-131242666D01*
X96295619Y-131195047D01*
X96295619Y-130814095D02*
X96248000Y-130766476D01*
X96200380Y-130671238D01*
X96200380Y-130433142D01*
X96248000Y-130337904D01*
X96295619Y-130290285D01*
X96390857Y-130242666D01*
X96486095Y-130242666D01*
X96628952Y-130290285D01*
X97200380Y-130861714D01*
X97200380Y-130242666D01*
X96200380Y-129623619D02*
X96200380Y-129528380D01*
X96248000Y-129433142D01*
X96295619Y-129385523D01*
X96390857Y-129337904D01*
X96581333Y-129290285D01*
X96819428Y-129290285D01*
X97009904Y-129337904D01*
X97105142Y-129385523D01*
X97152761Y-129433142D01*
X97200380Y-129528380D01*
X97200380Y-129623619D01*
X97152761Y-129718857D01*
X97105142Y-129766476D01*
X97009904Y-129814095D01*
X96819428Y-129861714D01*
X96581333Y-129861714D01*
X96390857Y-129814095D01*
X96295619Y-129766476D01*
X96248000Y-129718857D01*
X96200380Y-129623619D01*
X97200380Y-128337904D02*
X97200380Y-128909333D01*
X97200380Y-128623619D02*
X96200380Y-128623619D01*
X96343238Y-128718857D01*
X96438476Y-128814095D01*
X96486095Y-128909333D01*
X177679523Y-121452380D02*
X177679523Y-120452380D01*
X178250952Y-121452380D02*
X177822380Y-120880952D01*
X178250952Y-120452380D02*
X177679523Y-121023809D01*
X178584285Y-120452380D02*
X179203333Y-120452380D01*
X178870000Y-120833333D01*
X179012857Y-120833333D01*
X179108095Y-120880952D01*
X179155714Y-120928571D01*
X179203333Y-121023809D01*
X179203333Y-121261904D01*
X179155714Y-121357142D01*
X179108095Y-121404761D01*
X179012857Y-121452380D01*
X178727142Y-121452380D01*
X178631904Y-121404761D01*
X178584285Y-121357142D01*
X179822380Y-120452380D02*
X179917619Y-120452380D01*
X180012857Y-120500000D01*
X180060476Y-120547619D01*
X180108095Y-120642857D01*
X180155714Y-120833333D01*
X180155714Y-121071428D01*
X180108095Y-121261904D01*
X180060476Y-121357142D01*
X180012857Y-121404761D01*
X179917619Y-121452380D01*
X179822380Y-121452380D01*
X179727142Y-121404761D01*
X179679523Y-121357142D01*
X179631904Y-121261904D01*
X179584285Y-121071428D01*
X179584285Y-120833333D01*
X179631904Y-120642857D01*
X179679523Y-120547619D01*
X179727142Y-120500000D01*
X179822380Y-120452380D01*
X181108095Y-121452380D02*
X180536666Y-121452380D01*
X180822380Y-121452380D02*
X180822380Y-120452380D01*
X180727142Y-120595238D01*
X180631904Y-120690476D01*
X180536666Y-120738095D01*
X99907142Y-136132142D02*
X99392857Y-136132142D01*
X99650000Y-136132142D02*
X99650000Y-135232142D01*
X99564285Y-135360714D01*
X99478571Y-135446428D01*
X99392857Y-135489285D01*
X107780952Y-127052380D02*
X107304761Y-127052380D01*
X107304761Y-126052380D01*
X108066666Y-126147619D02*
X108114285Y-126100000D01*
X108209523Y-126052380D01*
X108447619Y-126052380D01*
X108542857Y-126100000D01*
X108590476Y-126147619D01*
X108638095Y-126242857D01*
X108638095Y-126338095D01*
X108590476Y-126480952D01*
X108019047Y-127052380D01*
X108638095Y-127052380D01*
X109257142Y-126052380D02*
X109352380Y-126052380D01*
X109447619Y-126100000D01*
X109495238Y-126147619D01*
X109542857Y-126242857D01*
X109590476Y-126433333D01*
X109590476Y-126671428D01*
X109542857Y-126861904D01*
X109495238Y-126957142D01*
X109447619Y-127004761D01*
X109352380Y-127052380D01*
X109257142Y-127052380D01*
X109161904Y-127004761D01*
X109114285Y-126957142D01*
X109066666Y-126861904D01*
X109019047Y-126671428D01*
X109019047Y-126433333D01*
X109066666Y-126242857D01*
X109114285Y-126147619D01*
X109161904Y-126100000D01*
X109257142Y-126052380D01*
X110542857Y-127052380D02*
X109971428Y-127052380D01*
X110257142Y-127052380D02*
X110257142Y-126052380D01*
X110161904Y-126195238D01*
X110066666Y-126290476D01*
X109971428Y-126338095D01*
X120655952Y-113707142D02*
X120608333Y-113754761D01*
X120465476Y-113802380D01*
X120370238Y-113802380D01*
X120227380Y-113754761D01*
X120132142Y-113659523D01*
X120084523Y-113564285D01*
X120036904Y-113373809D01*
X120036904Y-113230952D01*
X120084523Y-113040476D01*
X120132142Y-112945238D01*
X120227380Y-112850000D01*
X120370238Y-112802380D01*
X120465476Y-112802380D01*
X120608333Y-112850000D01*
X120655952Y-112897619D01*
X121036904Y-112897619D02*
X121084523Y-112850000D01*
X121179761Y-112802380D01*
X121417857Y-112802380D01*
X121513095Y-112850000D01*
X121560714Y-112897619D01*
X121608333Y-112992857D01*
X121608333Y-113088095D01*
X121560714Y-113230952D01*
X120989285Y-113802380D01*
X121608333Y-113802380D01*
X122227380Y-112802380D02*
X122322619Y-112802380D01*
X122417857Y-112850000D01*
X122465476Y-112897619D01*
X122513095Y-112992857D01*
X122560714Y-113183333D01*
X122560714Y-113421428D01*
X122513095Y-113611904D01*
X122465476Y-113707142D01*
X122417857Y-113754761D01*
X122322619Y-113802380D01*
X122227380Y-113802380D01*
X122132142Y-113754761D01*
X122084523Y-113707142D01*
X122036904Y-113611904D01*
X121989285Y-113421428D01*
X121989285Y-113183333D01*
X122036904Y-112992857D01*
X122084523Y-112897619D01*
X122132142Y-112850000D01*
X122227380Y-112802380D01*
X123132142Y-113230952D02*
X123036904Y-113183333D01*
X122989285Y-113135714D01*
X122941666Y-113040476D01*
X122941666Y-112992857D01*
X122989285Y-112897619D01*
X123036904Y-112850000D01*
X123132142Y-112802380D01*
X123322619Y-112802380D01*
X123417857Y-112850000D01*
X123465476Y-112897619D01*
X123513095Y-112992857D01*
X123513095Y-113040476D01*
X123465476Y-113135714D01*
X123417857Y-113183333D01*
X123322619Y-113230952D01*
X123132142Y-113230952D01*
X123036904Y-113278571D01*
X122989285Y-113326190D01*
X122941666Y-113421428D01*
X122941666Y-113611904D01*
X122989285Y-113707142D01*
X123036904Y-113754761D01*
X123132142Y-113802380D01*
X123322619Y-113802380D01*
X123417857Y-113754761D01*
X123465476Y-113707142D01*
X123513095Y-113611904D01*
X123513095Y-113421428D01*
X123465476Y-113326190D01*
X123417857Y-113278571D01*
X123322619Y-113230952D01*
X114130952Y-113707142D02*
X114083333Y-113754761D01*
X113940476Y-113802380D01*
X113845238Y-113802380D01*
X113702380Y-113754761D01*
X113607142Y-113659523D01*
X113559523Y-113564285D01*
X113511904Y-113373809D01*
X113511904Y-113230952D01*
X113559523Y-113040476D01*
X113607142Y-112945238D01*
X113702380Y-112850000D01*
X113845238Y-112802380D01*
X113940476Y-112802380D01*
X114083333Y-112850000D01*
X114130952Y-112897619D01*
X114511904Y-112897619D02*
X114559523Y-112850000D01*
X114654761Y-112802380D01*
X114892857Y-112802380D01*
X114988095Y-112850000D01*
X115035714Y-112897619D01*
X115083333Y-112992857D01*
X115083333Y-113088095D01*
X115035714Y-113230952D01*
X114464285Y-113802380D01*
X115083333Y-113802380D01*
X115702380Y-112802380D02*
X115797619Y-112802380D01*
X115892857Y-112850000D01*
X115940476Y-112897619D01*
X115988095Y-112992857D01*
X116035714Y-113183333D01*
X116035714Y-113421428D01*
X115988095Y-113611904D01*
X115940476Y-113707142D01*
X115892857Y-113754761D01*
X115797619Y-113802380D01*
X115702380Y-113802380D01*
X115607142Y-113754761D01*
X115559523Y-113707142D01*
X115511904Y-113611904D01*
X115464285Y-113421428D01*
X115464285Y-113183333D01*
X115511904Y-112992857D01*
X115559523Y-112897619D01*
X115607142Y-112850000D01*
X115702380Y-112802380D01*
X116369047Y-112802380D02*
X116988095Y-112802380D01*
X116654761Y-113183333D01*
X116797619Y-113183333D01*
X116892857Y-113230952D01*
X116940476Y-113278571D01*
X116988095Y-113373809D01*
X116988095Y-113611904D01*
X116940476Y-113707142D01*
X116892857Y-113754761D01*
X116797619Y-113802380D01*
X116511904Y-113802380D01*
X116416666Y-113754761D01*
X116369047Y-113707142D01*
X98902380Y-120040476D02*
X97902380Y-120040476D01*
X97902380Y-119802380D01*
X97950000Y-119659523D01*
X98045238Y-119564285D01*
X98140476Y-119516666D01*
X98330952Y-119469047D01*
X98473809Y-119469047D01*
X98664285Y-119516666D01*
X98759523Y-119564285D01*
X98854761Y-119659523D01*
X98902380Y-119802380D01*
X98902380Y-120040476D01*
X97997619Y-119088095D02*
X97950000Y-119040476D01*
X97902380Y-118945238D01*
X97902380Y-118707142D01*
X97950000Y-118611904D01*
X97997619Y-118564285D01*
X98092857Y-118516666D01*
X98188095Y-118516666D01*
X98330952Y-118564285D01*
X98902380Y-119135714D01*
X98902380Y-118516666D01*
X97902380Y-117897619D02*
X97902380Y-117802380D01*
X97950000Y-117707142D01*
X97997619Y-117659523D01*
X98092857Y-117611904D01*
X98283333Y-117564285D01*
X98521428Y-117564285D01*
X98711904Y-117611904D01*
X98807142Y-117659523D01*
X98854761Y-117707142D01*
X98902380Y-117802380D01*
X98902380Y-117897619D01*
X98854761Y-117992857D01*
X98807142Y-118040476D01*
X98711904Y-118088095D01*
X98521428Y-118135714D01*
X98283333Y-118135714D01*
X98092857Y-118088095D01*
X97997619Y-118040476D01*
X97950000Y-117992857D01*
X97902380Y-117897619D01*
X98902380Y-116611904D02*
X98902380Y-117183333D01*
X98902380Y-116897619D02*
X97902380Y-116897619D01*
X98045238Y-116992857D01*
X98140476Y-117088095D01*
X98188095Y-117183333D01*
X103680952Y-119127142D02*
X103633333Y-119174761D01*
X103490476Y-119222380D01*
X103395238Y-119222380D01*
X103252380Y-119174761D01*
X103157142Y-119079523D01*
X103109523Y-118984285D01*
X103061904Y-118793809D01*
X103061904Y-118650952D01*
X103109523Y-118460476D01*
X103157142Y-118365238D01*
X103252380Y-118270000D01*
X103395238Y-118222380D01*
X103490476Y-118222380D01*
X103633333Y-118270000D01*
X103680952Y-118317619D01*
X104061904Y-118317619D02*
X104109523Y-118270000D01*
X104204761Y-118222380D01*
X104442857Y-118222380D01*
X104538095Y-118270000D01*
X104585714Y-118317619D01*
X104633333Y-118412857D01*
X104633333Y-118508095D01*
X104585714Y-118650952D01*
X104014285Y-119222380D01*
X104633333Y-119222380D01*
X105252380Y-118222380D02*
X105347619Y-118222380D01*
X105442857Y-118270000D01*
X105490476Y-118317619D01*
X105538095Y-118412857D01*
X105585714Y-118603333D01*
X105585714Y-118841428D01*
X105538095Y-119031904D01*
X105490476Y-119127142D01*
X105442857Y-119174761D01*
X105347619Y-119222380D01*
X105252380Y-119222380D01*
X105157142Y-119174761D01*
X105109523Y-119127142D01*
X105061904Y-119031904D01*
X105014285Y-118841428D01*
X105014285Y-118603333D01*
X105061904Y-118412857D01*
X105109523Y-118317619D01*
X105157142Y-118270000D01*
X105252380Y-118222380D01*
X106442857Y-118555714D02*
X106442857Y-119222380D01*
X106204761Y-118174761D02*
X105966666Y-118889047D01*
X106585714Y-118889047D01*
X108442857Y-138521428D02*
X108400000Y-138564285D01*
X108271428Y-138607142D01*
X108185714Y-138607142D01*
X108057142Y-138564285D01*
X107971428Y-138478571D01*
X107928571Y-138392857D01*
X107885714Y-138221428D01*
X107885714Y-138092857D01*
X107928571Y-137921428D01*
X107971428Y-137835714D01*
X108057142Y-137750000D01*
X108185714Y-137707142D01*
X108271428Y-137707142D01*
X108400000Y-137750000D01*
X108442857Y-137792857D01*
X108785714Y-137792857D02*
X108828571Y-137750000D01*
X108914285Y-137707142D01*
X109128571Y-137707142D01*
X109214285Y-137750000D01*
X109257142Y-137792857D01*
X109300000Y-137878571D01*
X109300000Y-137964285D01*
X109257142Y-138092857D01*
X108742857Y-138607142D01*
X109300000Y-138607142D01*
X109857142Y-137707142D02*
X109942857Y-137707142D01*
X110028571Y-137750000D01*
X110071428Y-137792857D01*
X110114285Y-137878571D01*
X110157142Y-138050000D01*
X110157142Y-138264285D01*
X110114285Y-138435714D01*
X110071428Y-138521428D01*
X110028571Y-138564285D01*
X109942857Y-138607142D01*
X109857142Y-138607142D01*
X109771428Y-138564285D01*
X109728571Y-138521428D01*
X109685714Y-138435714D01*
X109642857Y-138264285D01*
X109642857Y-138050000D01*
X109685714Y-137878571D01*
X109728571Y-137792857D01*
X109771428Y-137750000D01*
X109857142Y-137707142D01*
X110971428Y-137707142D02*
X110542857Y-137707142D01*
X110500000Y-138135714D01*
X110542857Y-138092857D01*
X110628571Y-138050000D01*
X110842857Y-138050000D01*
X110928571Y-138092857D01*
X110971428Y-138135714D01*
X111014285Y-138221428D01*
X111014285Y-138435714D01*
X110971428Y-138521428D01*
X110928571Y-138564285D01*
X110842857Y-138607142D01*
X110628571Y-138607142D01*
X110542857Y-138564285D01*
X110500000Y-138521428D01*
X127130952Y-127932142D02*
X127083333Y-127979761D01*
X126940476Y-128027380D01*
X126845238Y-128027380D01*
X126702380Y-127979761D01*
X126607142Y-127884523D01*
X126559523Y-127789285D01*
X126511904Y-127598809D01*
X126511904Y-127455952D01*
X126559523Y-127265476D01*
X126607142Y-127170238D01*
X126702380Y-127075000D01*
X126845238Y-127027380D01*
X126940476Y-127027380D01*
X127083333Y-127075000D01*
X127130952Y-127122619D01*
X127988095Y-127027380D02*
X127797619Y-127027380D01*
X127702380Y-127075000D01*
X127654761Y-127122619D01*
X127559523Y-127265476D01*
X127511904Y-127455952D01*
X127511904Y-127836904D01*
X127559523Y-127932142D01*
X127607142Y-127979761D01*
X127702380Y-128027380D01*
X127892857Y-128027380D01*
X127988095Y-127979761D01*
X128035714Y-127932142D01*
X128083333Y-127836904D01*
X128083333Y-127598809D01*
X128035714Y-127503571D01*
X127988095Y-127455952D01*
X127892857Y-127408333D01*
X127702380Y-127408333D01*
X127607142Y-127455952D01*
X127559523Y-127503571D01*
X127511904Y-127598809D01*
X128702380Y-127027380D02*
X128797619Y-127027380D01*
X128892857Y-127075000D01*
X128940476Y-127122619D01*
X128988095Y-127217857D01*
X129035714Y-127408333D01*
X129035714Y-127646428D01*
X128988095Y-127836904D01*
X128940476Y-127932142D01*
X128892857Y-127979761D01*
X128797619Y-128027380D01*
X128702380Y-128027380D01*
X128607142Y-127979761D01*
X128559523Y-127932142D01*
X128511904Y-127836904D01*
X128464285Y-127646428D01*
X128464285Y-127408333D01*
X128511904Y-127217857D01*
X128559523Y-127122619D01*
X128607142Y-127075000D01*
X128702380Y-127027380D01*
X129416666Y-127122619D02*
X129464285Y-127075000D01*
X129559523Y-127027380D01*
X129797619Y-127027380D01*
X129892857Y-127075000D01*
X129940476Y-127122619D01*
X129988095Y-127217857D01*
X129988095Y-127313095D01*
X129940476Y-127455952D01*
X129369047Y-128027380D01*
X129988095Y-128027380D01*
X97385714Y-138695238D02*
X97423809Y-138733333D01*
X97461904Y-138847619D01*
X97461904Y-138923809D01*
X97423809Y-139038095D01*
X97347619Y-139114285D01*
X97271428Y-139152380D01*
X97119047Y-139190476D01*
X97004761Y-139190476D01*
X96852380Y-139152380D01*
X96776190Y-139114285D01*
X96700000Y-139038095D01*
X96661904Y-138923809D01*
X96661904Y-138847619D01*
X96700000Y-138733333D01*
X96738095Y-138695238D01*
X96738095Y-138390476D02*
X96700000Y-138352380D01*
X96661904Y-138276190D01*
X96661904Y-138085714D01*
X96700000Y-138009523D01*
X96738095Y-137971428D01*
X96814285Y-137933333D01*
X96890476Y-137933333D01*
X97004761Y-137971428D01*
X97461904Y-138428571D01*
X97461904Y-137933333D01*
X96661904Y-137438095D02*
X96661904Y-137361904D01*
X96700000Y-137285714D01*
X96738095Y-137247619D01*
X96814285Y-137209523D01*
X96966666Y-137171428D01*
X97157142Y-137171428D01*
X97309523Y-137209523D01*
X97385714Y-137247619D01*
X97423809Y-137285714D01*
X97461904Y-137361904D01*
X97461904Y-137438095D01*
X97423809Y-137514285D01*
X97385714Y-137552380D01*
X97309523Y-137590476D01*
X97157142Y-137628571D01*
X96966666Y-137628571D01*
X96814285Y-137590476D01*
X96738095Y-137552380D01*
X96700000Y-137514285D01*
X96661904Y-137438095D01*
X96661904Y-136904761D02*
X96661904Y-136371428D01*
X97461904Y-136714285D01*
X99821428Y-138607142D02*
X99821428Y-139207142D01*
X99607142Y-138264285D02*
X99392857Y-138907142D01*
X99950000Y-138907142D01*
X131352380Y-114019047D02*
X130876190Y-114352380D01*
X131352380Y-114590476D02*
X130352380Y-114590476D01*
X130352380Y-114209523D01*
X130400000Y-114114285D01*
X130447619Y-114066666D01*
X130542857Y-114019047D01*
X130685714Y-114019047D01*
X130780952Y-114066666D01*
X130828571Y-114114285D01*
X130876190Y-114209523D01*
X130876190Y-114590476D01*
X130352380Y-113685714D02*
X130352380Y-113019047D01*
X131352380Y-113447619D01*
X130352380Y-112447619D02*
X130352380Y-112352380D01*
X130400000Y-112257142D01*
X130447619Y-112209523D01*
X130542857Y-112161904D01*
X130733333Y-112114285D01*
X130971428Y-112114285D01*
X131161904Y-112161904D01*
X131257142Y-112209523D01*
X131304761Y-112257142D01*
X131352380Y-112352380D01*
X131352380Y-112447619D01*
X131304761Y-112542857D01*
X131257142Y-112590476D01*
X131161904Y-112638095D01*
X130971428Y-112685714D01*
X130733333Y-112685714D01*
X130542857Y-112638095D01*
X130447619Y-112590476D01*
X130400000Y-112542857D01*
X130352380Y-112447619D01*
X130352380Y-111780952D02*
X130352380Y-111161904D01*
X130733333Y-111495238D01*
X130733333Y-111352380D01*
X130780952Y-111257142D01*
X130828571Y-111209523D01*
X130923809Y-111161904D01*
X131161904Y-111161904D01*
X131257142Y-111209523D01*
X131304761Y-111257142D01*
X131352380Y-111352380D01*
X131352380Y-111638095D01*
X131304761Y-111733333D01*
X131257142Y-111780952D01*
X134402380Y-114019047D02*
X133926190Y-114352380D01*
X134402380Y-114590476D02*
X133402380Y-114590476D01*
X133402380Y-114209523D01*
X133450000Y-114114285D01*
X133497619Y-114066666D01*
X133592857Y-114019047D01*
X133735714Y-114019047D01*
X133830952Y-114066666D01*
X133878571Y-114114285D01*
X133926190Y-114209523D01*
X133926190Y-114590476D01*
X133402380Y-113685714D02*
X133402380Y-113019047D01*
X134402380Y-113447619D01*
X133402380Y-112447619D02*
X133402380Y-112352380D01*
X133450000Y-112257142D01*
X133497619Y-112209523D01*
X133592857Y-112161904D01*
X133783333Y-112114285D01*
X134021428Y-112114285D01*
X134211904Y-112161904D01*
X134307142Y-112209523D01*
X134354761Y-112257142D01*
X134402380Y-112352380D01*
X134402380Y-112447619D01*
X134354761Y-112542857D01*
X134307142Y-112590476D01*
X134211904Y-112638095D01*
X134021428Y-112685714D01*
X133783333Y-112685714D01*
X133592857Y-112638095D01*
X133497619Y-112590476D01*
X133450000Y-112542857D01*
X133402380Y-112447619D01*
X133497619Y-111733333D02*
X133450000Y-111685714D01*
X133402380Y-111590476D01*
X133402380Y-111352380D01*
X133450000Y-111257142D01*
X133497619Y-111209523D01*
X133592857Y-111161904D01*
X133688095Y-111161904D01*
X133830952Y-111209523D01*
X134402380Y-111780952D01*
X134402380Y-111161904D01*
X137452380Y-114019047D02*
X136976190Y-114352380D01*
X137452380Y-114590476D02*
X136452380Y-114590476D01*
X136452380Y-114209523D01*
X136500000Y-114114285D01*
X136547619Y-114066666D01*
X136642857Y-114019047D01*
X136785714Y-114019047D01*
X136880952Y-114066666D01*
X136928571Y-114114285D01*
X136976190Y-114209523D01*
X136976190Y-114590476D01*
X136452380Y-113685714D02*
X136452380Y-113019047D01*
X137452380Y-113447619D01*
X136452380Y-112447619D02*
X136452380Y-112352380D01*
X136500000Y-112257142D01*
X136547619Y-112209523D01*
X136642857Y-112161904D01*
X136833333Y-112114285D01*
X137071428Y-112114285D01*
X137261904Y-112161904D01*
X137357142Y-112209523D01*
X137404761Y-112257142D01*
X137452380Y-112352380D01*
X137452380Y-112447619D01*
X137404761Y-112542857D01*
X137357142Y-112590476D01*
X137261904Y-112638095D01*
X137071428Y-112685714D01*
X136833333Y-112685714D01*
X136642857Y-112638095D01*
X136547619Y-112590476D01*
X136500000Y-112542857D01*
X136452380Y-112447619D01*
X137452380Y-111161904D02*
X137452380Y-111733333D01*
X137452380Y-111447619D02*
X136452380Y-111447619D01*
X136595238Y-111542857D01*
X136690476Y-111638095D01*
X136738095Y-111733333D01*
X99821428Y-89907142D02*
X99650000Y-89907142D01*
X99564285Y-89950000D01*
X99521428Y-89992857D01*
X99435714Y-90121428D01*
X99392857Y-90292857D01*
X99392857Y-90635714D01*
X99435714Y-90721428D01*
X99478571Y-90764285D01*
X99564285Y-90807142D01*
X99735714Y-90807142D01*
X99821428Y-90764285D01*
X99864285Y-90721428D01*
X99907142Y-90635714D01*
X99907142Y-90421428D01*
X99864285Y-90335714D01*
X99821428Y-90292857D01*
X99735714Y-90250000D01*
X99564285Y-90250000D01*
X99478571Y-90292857D01*
X99435714Y-90335714D01*
X99392857Y-90421428D01*
X99864285Y-88357142D02*
X99435714Y-88357142D01*
X99392857Y-88785714D01*
X99435714Y-88742857D01*
X99521428Y-88700000D01*
X99735714Y-88700000D01*
X99821428Y-88742857D01*
X99864285Y-88785714D01*
X99907142Y-88871428D01*
X99907142Y-89085714D01*
X99864285Y-89171428D01*
X99821428Y-89214285D01*
X99735714Y-89257142D01*
X99521428Y-89257142D01*
X99435714Y-89214285D01*
X99392857Y-89171428D01*
X99821428Y-87107142D02*
X99821428Y-87707142D01*
X99607142Y-86764285D02*
X99392857Y-87407142D01*
X99950000Y-87407142D01*
X99392857Y-85342857D02*
X99435714Y-85300000D01*
X99521428Y-85257142D01*
X99735714Y-85257142D01*
X99821428Y-85300000D01*
X99864285Y-85342857D01*
X99907142Y-85428571D01*
X99907142Y-85514285D01*
X99864285Y-85642857D01*
X99350000Y-86157142D01*
X99907142Y-86157142D01*
X99907142Y-84632142D02*
X99392857Y-84632142D01*
X99650000Y-84632142D02*
X99650000Y-83732142D01*
X99564285Y-83860714D01*
X99478571Y-83946428D01*
X99392857Y-83989285D01*
X177679523Y-69952380D02*
X177679523Y-68952380D01*
X178250952Y-69952380D02*
X177822380Y-69380952D01*
X178250952Y-68952380D02*
X177679523Y-69523809D01*
X178584285Y-68952380D02*
X179203333Y-68952380D01*
X178870000Y-69333333D01*
X179012857Y-69333333D01*
X179108095Y-69380952D01*
X179155714Y-69428571D01*
X179203333Y-69523809D01*
X179203333Y-69761904D01*
X179155714Y-69857142D01*
X179108095Y-69904761D01*
X179012857Y-69952380D01*
X178727142Y-69952380D01*
X178631904Y-69904761D01*
X178584285Y-69857142D01*
X179822380Y-68952380D02*
X179917619Y-68952380D01*
X180012857Y-69000000D01*
X180060476Y-69047619D01*
X180108095Y-69142857D01*
X180155714Y-69333333D01*
X180155714Y-69571428D01*
X180108095Y-69761904D01*
X180060476Y-69857142D01*
X180012857Y-69904761D01*
X179917619Y-69952380D01*
X179822380Y-69952380D01*
X179727142Y-69904761D01*
X179679523Y-69857142D01*
X179631904Y-69761904D01*
X179584285Y-69571428D01*
X179584285Y-69333333D01*
X179631904Y-69142857D01*
X179679523Y-69047619D01*
X179727142Y-69000000D01*
X179822380Y-68952380D01*
X181108095Y-69952380D02*
X180536666Y-69952380D01*
X180822380Y-69952380D02*
X180822380Y-68952380D01*
X180727142Y-69095238D01*
X180631904Y-69190476D01*
X180536666Y-69238095D01*
X159179523Y-69952380D02*
X159179523Y-68952380D01*
X159750952Y-69952380D02*
X159322380Y-69380952D01*
X159750952Y-68952380D02*
X159179523Y-69523809D01*
X160608095Y-69285714D02*
X160608095Y-69952380D01*
X160370000Y-68904761D02*
X160131904Y-69619047D01*
X160750952Y-69619047D01*
X161322380Y-68952380D02*
X161417619Y-68952380D01*
X161512857Y-69000000D01*
X161560476Y-69047619D01*
X161608095Y-69142857D01*
X161655714Y-69333333D01*
X161655714Y-69571428D01*
X161608095Y-69761904D01*
X161560476Y-69857142D01*
X161512857Y-69904761D01*
X161417619Y-69952380D01*
X161322380Y-69952380D01*
X161227142Y-69904761D01*
X161179523Y-69857142D01*
X161131904Y-69761904D01*
X161084285Y-69571428D01*
X161084285Y-69333333D01*
X161131904Y-69142857D01*
X161179523Y-69047619D01*
X161227142Y-69000000D01*
X161322380Y-68952380D01*
X162608095Y-69952380D02*
X162036666Y-69952380D01*
X162322380Y-69952380D02*
X162322380Y-68952380D01*
X162227142Y-69095238D01*
X162131904Y-69190476D01*
X162036666Y-69238095D01*
X114130952Y-62207142D02*
X114083333Y-62254761D01*
X113940476Y-62302380D01*
X113845238Y-62302380D01*
X113702380Y-62254761D01*
X113607142Y-62159523D01*
X113559523Y-62064285D01*
X113511904Y-61873809D01*
X113511904Y-61730952D01*
X113559523Y-61540476D01*
X113607142Y-61445238D01*
X113702380Y-61350000D01*
X113845238Y-61302380D01*
X113940476Y-61302380D01*
X114083333Y-61350000D01*
X114130952Y-61397619D01*
X114511904Y-61397619D02*
X114559523Y-61350000D01*
X114654761Y-61302380D01*
X114892857Y-61302380D01*
X114988095Y-61350000D01*
X115035714Y-61397619D01*
X115083333Y-61492857D01*
X115083333Y-61588095D01*
X115035714Y-61730952D01*
X114464285Y-62302380D01*
X115083333Y-62302380D01*
X115702380Y-61302380D02*
X115797619Y-61302380D01*
X115892857Y-61350000D01*
X115940476Y-61397619D01*
X115988095Y-61492857D01*
X116035714Y-61683333D01*
X116035714Y-61921428D01*
X115988095Y-62111904D01*
X115940476Y-62207142D01*
X115892857Y-62254761D01*
X115797619Y-62302380D01*
X115702380Y-62302380D01*
X115607142Y-62254761D01*
X115559523Y-62207142D01*
X115511904Y-62111904D01*
X115464285Y-61921428D01*
X115464285Y-61683333D01*
X115511904Y-61492857D01*
X115559523Y-61397619D01*
X115607142Y-61350000D01*
X115702380Y-61302380D01*
X116369047Y-61302380D02*
X116988095Y-61302380D01*
X116654761Y-61683333D01*
X116797619Y-61683333D01*
X116892857Y-61730952D01*
X116940476Y-61778571D01*
X116988095Y-61873809D01*
X116988095Y-62111904D01*
X116940476Y-62207142D01*
X116892857Y-62254761D01*
X116797619Y-62302380D01*
X116511904Y-62302380D01*
X116416666Y-62254761D01*
X116369047Y-62207142D01*
X107780952Y-75552380D02*
X107304761Y-75552380D01*
X107304761Y-74552380D01*
X108066666Y-74647619D02*
X108114285Y-74600000D01*
X108209523Y-74552380D01*
X108447619Y-74552380D01*
X108542857Y-74600000D01*
X108590476Y-74647619D01*
X108638095Y-74742857D01*
X108638095Y-74838095D01*
X108590476Y-74980952D01*
X108019047Y-75552380D01*
X108638095Y-75552380D01*
X109257142Y-74552380D02*
X109352380Y-74552380D01*
X109447619Y-74600000D01*
X109495238Y-74647619D01*
X109542857Y-74742857D01*
X109590476Y-74933333D01*
X109590476Y-75171428D01*
X109542857Y-75361904D01*
X109495238Y-75457142D01*
X109447619Y-75504761D01*
X109352380Y-75552380D01*
X109257142Y-75552380D01*
X109161904Y-75504761D01*
X109114285Y-75457142D01*
X109066666Y-75361904D01*
X109019047Y-75171428D01*
X109019047Y-74933333D01*
X109066666Y-74742857D01*
X109114285Y-74647619D01*
X109161904Y-74600000D01*
X109257142Y-74552380D01*
X110542857Y-75552380D02*
X109971428Y-75552380D01*
X110257142Y-75552380D02*
X110257142Y-74552380D01*
X110161904Y-74695238D01*
X110066666Y-74790476D01*
X109971428Y-74838095D01*
X97105142Y-79695047D02*
X97152761Y-79742666D01*
X97200380Y-79885523D01*
X97200380Y-79980761D01*
X97152761Y-80123619D01*
X97057523Y-80218857D01*
X96962285Y-80266476D01*
X96771809Y-80314095D01*
X96628952Y-80314095D01*
X96438476Y-80266476D01*
X96343238Y-80218857D01*
X96248000Y-80123619D01*
X96200380Y-79980761D01*
X96200380Y-79885523D01*
X96248000Y-79742666D01*
X96295619Y-79695047D01*
X96295619Y-79314095D02*
X96248000Y-79266476D01*
X96200380Y-79171238D01*
X96200380Y-78933142D01*
X96248000Y-78837904D01*
X96295619Y-78790285D01*
X96390857Y-78742666D01*
X96486095Y-78742666D01*
X96628952Y-78790285D01*
X97200380Y-79361714D01*
X97200380Y-78742666D01*
X96200380Y-78123619D02*
X96200380Y-78028380D01*
X96248000Y-77933142D01*
X96295619Y-77885523D01*
X96390857Y-77837904D01*
X96581333Y-77790285D01*
X96819428Y-77790285D01*
X97009904Y-77837904D01*
X97105142Y-77885523D01*
X97152761Y-77933142D01*
X97200380Y-78028380D01*
X97200380Y-78123619D01*
X97152761Y-78218857D01*
X97105142Y-78266476D01*
X97009904Y-78314095D01*
X96819428Y-78361714D01*
X96581333Y-78361714D01*
X96390857Y-78314095D01*
X96295619Y-78266476D01*
X96248000Y-78218857D01*
X96200380Y-78123619D01*
X97200380Y-76837904D02*
X97200380Y-77409333D01*
X97200380Y-77123619D02*
X96200380Y-77123619D01*
X96343238Y-77218857D01*
X96438476Y-77314095D01*
X96486095Y-77409333D01*
X97867142Y-74615047D02*
X97914761Y-74662666D01*
X97962380Y-74805523D01*
X97962380Y-74900761D01*
X97914761Y-75043619D01*
X97819523Y-75138857D01*
X97724285Y-75186476D01*
X97533809Y-75234095D01*
X97390952Y-75234095D01*
X97200476Y-75186476D01*
X97105238Y-75138857D01*
X97010000Y-75043619D01*
X96962380Y-74900761D01*
X96962380Y-74805523D01*
X97010000Y-74662666D01*
X97057619Y-74615047D01*
X97057619Y-74234095D02*
X97010000Y-74186476D01*
X96962380Y-74091238D01*
X96962380Y-73853142D01*
X97010000Y-73757904D01*
X97057619Y-73710285D01*
X97152857Y-73662666D01*
X97248095Y-73662666D01*
X97390952Y-73710285D01*
X97962380Y-74281714D01*
X97962380Y-73662666D01*
X96962380Y-73043619D02*
X96962380Y-72948380D01*
X97010000Y-72853142D01*
X97057619Y-72805523D01*
X97152857Y-72757904D01*
X97343333Y-72710285D01*
X97581428Y-72710285D01*
X97771904Y-72757904D01*
X97867142Y-72805523D01*
X97914761Y-72853142D01*
X97962380Y-72948380D01*
X97962380Y-73043619D01*
X97914761Y-73138857D01*
X97867142Y-73186476D01*
X97771904Y-73234095D01*
X97581428Y-73281714D01*
X97343333Y-73281714D01*
X97152857Y-73234095D01*
X97057619Y-73186476D01*
X97010000Y-73138857D01*
X96962380Y-73043619D01*
X97057619Y-72329333D02*
X97010000Y-72281714D01*
X96962380Y-72186476D01*
X96962380Y-71948380D01*
X97010000Y-71853142D01*
X97057619Y-71805523D01*
X97152857Y-71757904D01*
X97248095Y-71757904D01*
X97390952Y-71805523D01*
X97962380Y-72376952D01*
X97962380Y-71757904D01*
X103680952Y-67627142D02*
X103633333Y-67674761D01*
X103490476Y-67722380D01*
X103395238Y-67722380D01*
X103252380Y-67674761D01*
X103157142Y-67579523D01*
X103109523Y-67484285D01*
X103061904Y-67293809D01*
X103061904Y-67150952D01*
X103109523Y-66960476D01*
X103157142Y-66865238D01*
X103252380Y-66770000D01*
X103395238Y-66722380D01*
X103490476Y-66722380D01*
X103633333Y-66770000D01*
X103680952Y-66817619D01*
X104061904Y-66817619D02*
X104109523Y-66770000D01*
X104204761Y-66722380D01*
X104442857Y-66722380D01*
X104538095Y-66770000D01*
X104585714Y-66817619D01*
X104633333Y-66912857D01*
X104633333Y-67008095D01*
X104585714Y-67150952D01*
X104014285Y-67722380D01*
X104633333Y-67722380D01*
X105252380Y-66722380D02*
X105347619Y-66722380D01*
X105442857Y-66770000D01*
X105490476Y-66817619D01*
X105538095Y-66912857D01*
X105585714Y-67103333D01*
X105585714Y-67341428D01*
X105538095Y-67531904D01*
X105490476Y-67627142D01*
X105442857Y-67674761D01*
X105347619Y-67722380D01*
X105252380Y-67722380D01*
X105157142Y-67674761D01*
X105109523Y-67627142D01*
X105061904Y-67531904D01*
X105014285Y-67341428D01*
X105014285Y-67103333D01*
X105061904Y-66912857D01*
X105109523Y-66817619D01*
X105157142Y-66770000D01*
X105252380Y-66722380D01*
X106442857Y-67055714D02*
X106442857Y-67722380D01*
X106204761Y-66674761D02*
X105966666Y-67389047D01*
X106585714Y-67389047D01*
X108442857Y-87021428D02*
X108400000Y-87064285D01*
X108271428Y-87107142D01*
X108185714Y-87107142D01*
X108057142Y-87064285D01*
X107971428Y-86978571D01*
X107928571Y-86892857D01*
X107885714Y-86721428D01*
X107885714Y-86592857D01*
X107928571Y-86421428D01*
X107971428Y-86335714D01*
X108057142Y-86250000D01*
X108185714Y-86207142D01*
X108271428Y-86207142D01*
X108400000Y-86250000D01*
X108442857Y-86292857D01*
X108785714Y-86292857D02*
X108828571Y-86250000D01*
X108914285Y-86207142D01*
X109128571Y-86207142D01*
X109214285Y-86250000D01*
X109257142Y-86292857D01*
X109300000Y-86378571D01*
X109300000Y-86464285D01*
X109257142Y-86592857D01*
X108742857Y-87107142D01*
X109300000Y-87107142D01*
X109857142Y-86207142D02*
X109942857Y-86207142D01*
X110028571Y-86250000D01*
X110071428Y-86292857D01*
X110114285Y-86378571D01*
X110157142Y-86550000D01*
X110157142Y-86764285D01*
X110114285Y-86935714D01*
X110071428Y-87021428D01*
X110028571Y-87064285D01*
X109942857Y-87107142D01*
X109857142Y-87107142D01*
X109771428Y-87064285D01*
X109728571Y-87021428D01*
X109685714Y-86935714D01*
X109642857Y-86764285D01*
X109642857Y-86550000D01*
X109685714Y-86378571D01*
X109728571Y-86292857D01*
X109771428Y-86250000D01*
X109857142Y-86207142D01*
X110971428Y-86207142D02*
X110542857Y-86207142D01*
X110500000Y-86635714D01*
X110542857Y-86592857D01*
X110628571Y-86550000D01*
X110842857Y-86550000D01*
X110928571Y-86592857D01*
X110971428Y-86635714D01*
X111014285Y-86721428D01*
X111014285Y-86935714D01*
X110971428Y-87021428D01*
X110928571Y-87064285D01*
X110842857Y-87107142D01*
X110628571Y-87107142D01*
X110542857Y-87064285D01*
X110500000Y-87021428D01*
X112542857Y-87021428D02*
X112500000Y-87064285D01*
X112371428Y-87107142D01*
X112285714Y-87107142D01*
X112157142Y-87064285D01*
X112071428Y-86978571D01*
X112028571Y-86892857D01*
X111985714Y-86721428D01*
X111985714Y-86592857D01*
X112028571Y-86421428D01*
X112071428Y-86335714D01*
X112157142Y-86250000D01*
X112285714Y-86207142D01*
X112371428Y-86207142D01*
X112500000Y-86250000D01*
X112542857Y-86292857D01*
X112885714Y-86292857D02*
X112928571Y-86250000D01*
X113014285Y-86207142D01*
X113228571Y-86207142D01*
X113314285Y-86250000D01*
X113357142Y-86292857D01*
X113400000Y-86378571D01*
X113400000Y-86464285D01*
X113357142Y-86592857D01*
X112842857Y-87107142D01*
X113400000Y-87107142D01*
X113957142Y-86207142D02*
X114042857Y-86207142D01*
X114128571Y-86250000D01*
X114171428Y-86292857D01*
X114214285Y-86378571D01*
X114257142Y-86550000D01*
X114257142Y-86764285D01*
X114214285Y-86935714D01*
X114171428Y-87021428D01*
X114128571Y-87064285D01*
X114042857Y-87107142D01*
X113957142Y-87107142D01*
X113871428Y-87064285D01*
X113828571Y-87021428D01*
X113785714Y-86935714D01*
X113742857Y-86764285D01*
X113742857Y-86550000D01*
X113785714Y-86378571D01*
X113828571Y-86292857D01*
X113871428Y-86250000D01*
X113957142Y-86207142D01*
X115028571Y-86207142D02*
X114857142Y-86207142D01*
X114771428Y-86250000D01*
X114728571Y-86292857D01*
X114642857Y-86421428D01*
X114600000Y-86592857D01*
X114600000Y-86935714D01*
X114642857Y-87021428D01*
X114685714Y-87064285D01*
X114771428Y-87107142D01*
X114942857Y-87107142D01*
X115028571Y-87064285D01*
X115071428Y-87021428D01*
X115114285Y-86935714D01*
X115114285Y-86721428D01*
X115071428Y-86635714D01*
X115028571Y-86592857D01*
X114942857Y-86550000D01*
X114771428Y-86550000D01*
X114685714Y-86592857D01*
X114642857Y-86635714D01*
X114600000Y-86721428D01*
X97385714Y-87195238D02*
X97423809Y-87233333D01*
X97461904Y-87347619D01*
X97461904Y-87423809D01*
X97423809Y-87538095D01*
X97347619Y-87614285D01*
X97271428Y-87652380D01*
X97119047Y-87690476D01*
X97004761Y-87690476D01*
X96852380Y-87652380D01*
X96776190Y-87614285D01*
X96700000Y-87538095D01*
X96661904Y-87423809D01*
X96661904Y-87347619D01*
X96700000Y-87233333D01*
X96738095Y-87195238D01*
X96738095Y-86890476D02*
X96700000Y-86852380D01*
X96661904Y-86776190D01*
X96661904Y-86585714D01*
X96700000Y-86509523D01*
X96738095Y-86471428D01*
X96814285Y-86433333D01*
X96890476Y-86433333D01*
X97004761Y-86471428D01*
X97461904Y-86928571D01*
X97461904Y-86433333D01*
X96661904Y-85938095D02*
X96661904Y-85861904D01*
X96700000Y-85785714D01*
X96738095Y-85747619D01*
X96814285Y-85709523D01*
X96966666Y-85671428D01*
X97157142Y-85671428D01*
X97309523Y-85709523D01*
X97385714Y-85747619D01*
X97423809Y-85785714D01*
X97461904Y-85861904D01*
X97461904Y-85938095D01*
X97423809Y-86014285D01*
X97385714Y-86052380D01*
X97309523Y-86090476D01*
X97157142Y-86128571D01*
X96966666Y-86128571D01*
X96814285Y-86090476D01*
X96738095Y-86052380D01*
X96700000Y-86014285D01*
X96661904Y-85938095D01*
X96661904Y-85404761D02*
X96661904Y-84871428D01*
X97461904Y-85214285D01*
X120655952Y-62207142D02*
X120608333Y-62254761D01*
X120465476Y-62302380D01*
X120370238Y-62302380D01*
X120227380Y-62254761D01*
X120132142Y-62159523D01*
X120084523Y-62064285D01*
X120036904Y-61873809D01*
X120036904Y-61730952D01*
X120084523Y-61540476D01*
X120132142Y-61445238D01*
X120227380Y-61350000D01*
X120370238Y-61302380D01*
X120465476Y-61302380D01*
X120608333Y-61350000D01*
X120655952Y-61397619D01*
X121036904Y-61397619D02*
X121084523Y-61350000D01*
X121179761Y-61302380D01*
X121417857Y-61302380D01*
X121513095Y-61350000D01*
X121560714Y-61397619D01*
X121608333Y-61492857D01*
X121608333Y-61588095D01*
X121560714Y-61730952D01*
X120989285Y-62302380D01*
X121608333Y-62302380D01*
X122227380Y-61302380D02*
X122322619Y-61302380D01*
X122417857Y-61350000D01*
X122465476Y-61397619D01*
X122513095Y-61492857D01*
X122560714Y-61683333D01*
X122560714Y-61921428D01*
X122513095Y-62111904D01*
X122465476Y-62207142D01*
X122417857Y-62254761D01*
X122322619Y-62302380D01*
X122227380Y-62302380D01*
X122132142Y-62254761D01*
X122084523Y-62207142D01*
X122036904Y-62111904D01*
X121989285Y-61921428D01*
X121989285Y-61683333D01*
X122036904Y-61492857D01*
X122084523Y-61397619D01*
X122132142Y-61350000D01*
X122227380Y-61302380D01*
X123132142Y-61730952D02*
X123036904Y-61683333D01*
X122989285Y-61635714D01*
X122941666Y-61540476D01*
X122941666Y-61492857D01*
X122989285Y-61397619D01*
X123036904Y-61350000D01*
X123132142Y-61302380D01*
X123322619Y-61302380D01*
X123417857Y-61350000D01*
X123465476Y-61397619D01*
X123513095Y-61492857D01*
X123513095Y-61540476D01*
X123465476Y-61635714D01*
X123417857Y-61683333D01*
X123322619Y-61730952D01*
X123132142Y-61730952D01*
X123036904Y-61778571D01*
X122989285Y-61826190D01*
X122941666Y-61921428D01*
X122941666Y-62111904D01*
X122989285Y-62207142D01*
X123036904Y-62254761D01*
X123132142Y-62302380D01*
X123322619Y-62302380D01*
X123417857Y-62254761D01*
X123465476Y-62207142D01*
X123513095Y-62111904D01*
X123513095Y-61921428D01*
X123465476Y-61826190D01*
X123417857Y-61778571D01*
X123322619Y-61730952D01*
X127130952Y-74832142D02*
X127083333Y-74879761D01*
X126940476Y-74927380D01*
X126845238Y-74927380D01*
X126702380Y-74879761D01*
X126607142Y-74784523D01*
X126559523Y-74689285D01*
X126511904Y-74498809D01*
X126511904Y-74355952D01*
X126559523Y-74165476D01*
X126607142Y-74070238D01*
X126702380Y-73975000D01*
X126845238Y-73927380D01*
X126940476Y-73927380D01*
X127083333Y-73975000D01*
X127130952Y-74022619D01*
X127988095Y-73927380D02*
X127797619Y-73927380D01*
X127702380Y-73975000D01*
X127654761Y-74022619D01*
X127559523Y-74165476D01*
X127511904Y-74355952D01*
X127511904Y-74736904D01*
X127559523Y-74832142D01*
X127607142Y-74879761D01*
X127702380Y-74927380D01*
X127892857Y-74927380D01*
X127988095Y-74879761D01*
X128035714Y-74832142D01*
X128083333Y-74736904D01*
X128083333Y-74498809D01*
X128035714Y-74403571D01*
X127988095Y-74355952D01*
X127892857Y-74308333D01*
X127702380Y-74308333D01*
X127607142Y-74355952D01*
X127559523Y-74403571D01*
X127511904Y-74498809D01*
X128702380Y-73927380D02*
X128797619Y-73927380D01*
X128892857Y-73975000D01*
X128940476Y-74022619D01*
X128988095Y-74117857D01*
X129035714Y-74308333D01*
X129035714Y-74546428D01*
X128988095Y-74736904D01*
X128940476Y-74832142D01*
X128892857Y-74879761D01*
X128797619Y-74927380D01*
X128702380Y-74927380D01*
X128607142Y-74879761D01*
X128559523Y-74832142D01*
X128511904Y-74736904D01*
X128464285Y-74546428D01*
X128464285Y-74308333D01*
X128511904Y-74117857D01*
X128559523Y-74022619D01*
X128607142Y-73975000D01*
X128702380Y-73927380D01*
X129988095Y-74927380D02*
X129416666Y-74927380D01*
X129702380Y-74927380D02*
X129702380Y-73927380D01*
X129607142Y-74070238D01*
X129511904Y-74165476D01*
X129416666Y-74213095D01*
X127130952Y-76432142D02*
X127083333Y-76479761D01*
X126940476Y-76527380D01*
X126845238Y-76527380D01*
X126702380Y-76479761D01*
X126607142Y-76384523D01*
X126559523Y-76289285D01*
X126511904Y-76098809D01*
X126511904Y-75955952D01*
X126559523Y-75765476D01*
X126607142Y-75670238D01*
X126702380Y-75575000D01*
X126845238Y-75527380D01*
X126940476Y-75527380D01*
X127083333Y-75575000D01*
X127130952Y-75622619D01*
X127988095Y-75527380D02*
X127797619Y-75527380D01*
X127702380Y-75575000D01*
X127654761Y-75622619D01*
X127559523Y-75765476D01*
X127511904Y-75955952D01*
X127511904Y-76336904D01*
X127559523Y-76432142D01*
X127607142Y-76479761D01*
X127702380Y-76527380D01*
X127892857Y-76527380D01*
X127988095Y-76479761D01*
X128035714Y-76432142D01*
X128083333Y-76336904D01*
X128083333Y-76098809D01*
X128035714Y-76003571D01*
X127988095Y-75955952D01*
X127892857Y-75908333D01*
X127702380Y-75908333D01*
X127607142Y-75955952D01*
X127559523Y-76003571D01*
X127511904Y-76098809D01*
X128702380Y-75527380D02*
X128797619Y-75527380D01*
X128892857Y-75575000D01*
X128940476Y-75622619D01*
X128988095Y-75717857D01*
X129035714Y-75908333D01*
X129035714Y-76146428D01*
X128988095Y-76336904D01*
X128940476Y-76432142D01*
X128892857Y-76479761D01*
X128797619Y-76527380D01*
X128702380Y-76527380D01*
X128607142Y-76479761D01*
X128559523Y-76432142D01*
X128511904Y-76336904D01*
X128464285Y-76146428D01*
X128464285Y-75908333D01*
X128511904Y-75717857D01*
X128559523Y-75622619D01*
X128607142Y-75575000D01*
X128702380Y-75527380D01*
X129416666Y-75622619D02*
X129464285Y-75575000D01*
X129559523Y-75527380D01*
X129797619Y-75527380D01*
X129892857Y-75575000D01*
X129940476Y-75622619D01*
X129988095Y-75717857D01*
X129988095Y-75813095D01*
X129940476Y-75955952D01*
X129369047Y-76527380D01*
X129988095Y-76527380D01*
X98902380Y-68540476D02*
X97902380Y-68540476D01*
X97902380Y-68302380D01*
X97950000Y-68159523D01*
X98045238Y-68064285D01*
X98140476Y-68016666D01*
X98330952Y-67969047D01*
X98473809Y-67969047D01*
X98664285Y-68016666D01*
X98759523Y-68064285D01*
X98854761Y-68159523D01*
X98902380Y-68302380D01*
X98902380Y-68540476D01*
X97997619Y-67588095D02*
X97950000Y-67540476D01*
X97902380Y-67445238D01*
X97902380Y-67207142D01*
X97950000Y-67111904D01*
X97997619Y-67064285D01*
X98092857Y-67016666D01*
X98188095Y-67016666D01*
X98330952Y-67064285D01*
X98902380Y-67635714D01*
X98902380Y-67016666D01*
X97902380Y-66397619D02*
X97902380Y-66302380D01*
X97950000Y-66207142D01*
X97997619Y-66159523D01*
X98092857Y-66111904D01*
X98283333Y-66064285D01*
X98521428Y-66064285D01*
X98711904Y-66111904D01*
X98807142Y-66159523D01*
X98854761Y-66207142D01*
X98902380Y-66302380D01*
X98902380Y-66397619D01*
X98854761Y-66492857D01*
X98807142Y-66540476D01*
X98711904Y-66588095D01*
X98521428Y-66635714D01*
X98283333Y-66635714D01*
X98092857Y-66588095D01*
X97997619Y-66540476D01*
X97950000Y-66492857D01*
X97902380Y-66397619D01*
X98902380Y-65111904D02*
X98902380Y-65683333D01*
X98902380Y-65397619D02*
X97902380Y-65397619D01*
X98045238Y-65492857D01*
X98140476Y-65588095D01*
X98188095Y-65683333D01*
X137452380Y-62519047D02*
X136976190Y-62852380D01*
X137452380Y-63090476D02*
X136452380Y-63090476D01*
X136452380Y-62709523D01*
X136500000Y-62614285D01*
X136547619Y-62566666D01*
X136642857Y-62519047D01*
X136785714Y-62519047D01*
X136880952Y-62566666D01*
X136928571Y-62614285D01*
X136976190Y-62709523D01*
X136976190Y-63090476D01*
X136452380Y-62185714D02*
X136452380Y-61519047D01*
X137452380Y-61947619D01*
X136452380Y-60947619D02*
X136452380Y-60852380D01*
X136500000Y-60757142D01*
X136547619Y-60709523D01*
X136642857Y-60661904D01*
X136833333Y-60614285D01*
X137071428Y-60614285D01*
X137261904Y-60661904D01*
X137357142Y-60709523D01*
X137404761Y-60757142D01*
X137452380Y-60852380D01*
X137452380Y-60947619D01*
X137404761Y-61042857D01*
X137357142Y-61090476D01*
X137261904Y-61138095D01*
X137071428Y-61185714D01*
X136833333Y-61185714D01*
X136642857Y-61138095D01*
X136547619Y-61090476D01*
X136500000Y-61042857D01*
X136452380Y-60947619D01*
X137452380Y-59661904D02*
X137452380Y-60233333D01*
X137452380Y-59947619D02*
X136452380Y-59947619D01*
X136595238Y-60042857D01*
X136690476Y-60138095D01*
X136738095Y-60233333D01*
X134402380Y-62519047D02*
X133926190Y-62852380D01*
X134402380Y-63090476D02*
X133402380Y-63090476D01*
X133402380Y-62709523D01*
X133450000Y-62614285D01*
X133497619Y-62566666D01*
X133592857Y-62519047D01*
X133735714Y-62519047D01*
X133830952Y-62566666D01*
X133878571Y-62614285D01*
X133926190Y-62709523D01*
X133926190Y-63090476D01*
X133402380Y-62185714D02*
X133402380Y-61519047D01*
X134402380Y-61947619D01*
X133402380Y-60947619D02*
X133402380Y-60852380D01*
X133450000Y-60757142D01*
X133497619Y-60709523D01*
X133592857Y-60661904D01*
X133783333Y-60614285D01*
X134021428Y-60614285D01*
X134211904Y-60661904D01*
X134307142Y-60709523D01*
X134354761Y-60757142D01*
X134402380Y-60852380D01*
X134402380Y-60947619D01*
X134354761Y-61042857D01*
X134307142Y-61090476D01*
X134211904Y-61138095D01*
X134021428Y-61185714D01*
X133783333Y-61185714D01*
X133592857Y-61138095D01*
X133497619Y-61090476D01*
X133450000Y-61042857D01*
X133402380Y-60947619D01*
X133497619Y-60233333D02*
X133450000Y-60185714D01*
X133402380Y-60090476D01*
X133402380Y-59852380D01*
X133450000Y-59757142D01*
X133497619Y-59709523D01*
X133592857Y-59661904D01*
X133688095Y-59661904D01*
X133830952Y-59709523D01*
X134402380Y-60280952D01*
X134402380Y-59661904D01*
X131352380Y-62519047D02*
X130876190Y-62852380D01*
X131352380Y-63090476D02*
X130352380Y-63090476D01*
X130352380Y-62709523D01*
X130400000Y-62614285D01*
X130447619Y-62566666D01*
X130542857Y-62519047D01*
X130685714Y-62519047D01*
X130780952Y-62566666D01*
X130828571Y-62614285D01*
X130876190Y-62709523D01*
X130876190Y-63090476D01*
X130352380Y-62185714D02*
X130352380Y-61519047D01*
X131352380Y-61947619D01*
X130352380Y-60947619D02*
X130352380Y-60852380D01*
X130400000Y-60757142D01*
X130447619Y-60709523D01*
X130542857Y-60661904D01*
X130733333Y-60614285D01*
X130971428Y-60614285D01*
X131161904Y-60661904D01*
X131257142Y-60709523D01*
X131304761Y-60757142D01*
X131352380Y-60852380D01*
X131352380Y-60947619D01*
X131304761Y-61042857D01*
X131257142Y-61090476D01*
X131161904Y-61138095D01*
X130971428Y-61185714D01*
X130733333Y-61185714D01*
X130542857Y-61138095D01*
X130447619Y-61090476D01*
X130400000Y-61042857D01*
X130352380Y-60947619D01*
X130352380Y-60280952D02*
X130352380Y-59661904D01*
X130733333Y-59995238D01*
X130733333Y-59852380D01*
X130780952Y-59757142D01*
X130828571Y-59709523D01*
X130923809Y-59661904D01*
X131161904Y-59661904D01*
X131257142Y-59709523D01*
X131304761Y-59757142D01*
X131352380Y-59852380D01*
X131352380Y-60138095D01*
X131304761Y-60233333D01*
X131257142Y-60280952D01*
X120076380Y-71400285D02*
X120885904Y-71400285D01*
X120981142Y-71352666D01*
X121028761Y-71305047D01*
X121076380Y-71209809D01*
X121076380Y-71019333D01*
X121028761Y-70924095D01*
X120981142Y-70876476D01*
X120885904Y-70828857D01*
X120076380Y-70828857D01*
X120171619Y-70400285D02*
X120124000Y-70352666D01*
X120076380Y-70257428D01*
X120076380Y-70019333D01*
X120124000Y-69924095D01*
X120171619Y-69876476D01*
X120266857Y-69828857D01*
X120362095Y-69828857D01*
X120504952Y-69876476D01*
X121076380Y-70447904D01*
X121076380Y-69828857D01*
X120076380Y-69209809D02*
X120076380Y-69114571D01*
X120124000Y-69019333D01*
X120171619Y-68971714D01*
X120266857Y-68924095D01*
X120457333Y-68876476D01*
X120695428Y-68876476D01*
X120885904Y-68924095D01*
X120981142Y-68971714D01*
X121028761Y-69019333D01*
X121076380Y-69114571D01*
X121076380Y-69209809D01*
X121028761Y-69305047D01*
X120981142Y-69352666D01*
X120885904Y-69400285D01*
X120695428Y-69447904D01*
X120457333Y-69447904D01*
X120266857Y-69400285D01*
X120171619Y-69352666D01*
X120124000Y-69305047D01*
X120076380Y-69209809D01*
X121076380Y-67924095D02*
X121076380Y-68495523D01*
X121076380Y-68209809D02*
X120076380Y-68209809D01*
X120219238Y-68305047D01*
X120314476Y-68400285D01*
X120362095Y-68495523D01*
X103657142Y-84807142D02*
X103657142Y-85535714D01*
X103700000Y-85621428D01*
X103742857Y-85664285D01*
X103828571Y-85707142D01*
X104000000Y-85707142D01*
X104085714Y-85664285D01*
X104128571Y-85621428D01*
X104171428Y-85535714D01*
X104171428Y-84807142D01*
X104557142Y-84892857D02*
X104600000Y-84850000D01*
X104685714Y-84807142D01*
X104900000Y-84807142D01*
X104985714Y-84850000D01*
X105028571Y-84892857D01*
X105071428Y-84978571D01*
X105071428Y-85064285D01*
X105028571Y-85192857D01*
X104514285Y-85707142D01*
X105071428Y-85707142D01*
X105628571Y-84807142D02*
X105714285Y-84807142D01*
X105800000Y-84850000D01*
X105842857Y-84892857D01*
X105885714Y-84978571D01*
X105928571Y-85150000D01*
X105928571Y-85364285D01*
X105885714Y-85535714D01*
X105842857Y-85621428D01*
X105800000Y-85664285D01*
X105714285Y-85707142D01*
X105628571Y-85707142D01*
X105542857Y-85664285D01*
X105500000Y-85621428D01*
X105457142Y-85535714D01*
X105414285Y-85364285D01*
X105414285Y-85150000D01*
X105457142Y-84978571D01*
X105500000Y-84892857D01*
X105542857Y-84850000D01*
X105628571Y-84807142D01*
X106271428Y-84892857D02*
X106314285Y-84850000D01*
X106400000Y-84807142D01*
X106614285Y-84807142D01*
X106700000Y-84850000D01*
X106742857Y-84892857D01*
X106785714Y-84978571D01*
X106785714Y-85064285D01*
X106742857Y-85192857D01*
X106228571Y-85707142D01*
X106785714Y-85707142D01*
M02*
