G04 #@! TF.GenerationSoftware,KiCad,Pcbnew,5.1.9-73d0e3b20d~88~ubuntu18.04.1*
G04 #@! TF.CreationDate,2021-03-27T22:47:01+02:00*
G04 #@! TF.ProjectId,,58585858-5858-4585-9858-585858585858,1*
G04 #@! TF.SameCoordinates,Original*
G04 #@! TF.FileFunction,Soldermask,Top*
G04 #@! TF.FilePolarity,Negative*
%FSLAX46Y46*%
G04 Gerber Fmt 4.6, Leading zero omitted, Abs format (unit mm)*
G04 Created by KiCad (PCBNEW 5.1.9-73d0e3b20d~88~ubuntu18.04.1) date 2021-03-27 22:47:01*
%MOMM*%
%LPD*%
G01*
G04 APERTURE LIST*
%ADD10R,0.650000X1.060000*%
%ADD11R,2.000000X1.500000*%
%ADD12R,2.000000X3.800000*%
%ADD13C,1.500000*%
%ADD14R,3.500000X3.500000*%
%ADD15C,3.000000*%
%ADD16R,0.450000X0.700000*%
%ADD17R,0.600000X0.450000*%
%ADD18O,1.700000X2.000000*%
%ADD19C,0.700000*%
%ADD20C,4.400000*%
%ADD21R,0.900000X0.800000*%
%ADD22O,1.700000X1.700000*%
%ADD23R,1.700000X1.700000*%
%ADD24R,3.000000X3.000000*%
%ADD25R,2.700000X3.600000*%
%ADD26R,1.800000X2.500000*%
%ADD27R,1.200000X1.900000*%
%ADD28O,1.200000X1.900000*%
%ADD29R,1.500000X1.900000*%
%ADD30C,1.450000*%
%ADD31R,0.400000X1.350000*%
%ADD32C,2.600000*%
%ADD33C,3.500000*%
%ADD34R,2.000000X1.600000*%
%ADD35C,0.500000*%
G04 APERTURE END LIST*
D10*
X103250000Y-135400000D03*
X104200000Y-135400000D03*
X102300000Y-135400000D03*
X102300000Y-133200000D03*
X103250000Y-133200000D03*
X104200000Y-133200000D03*
D11*
X117474000Y-118886000D03*
X117474000Y-123486000D03*
X117474000Y-121186000D03*
D12*
X123774000Y-121186000D03*
D13*
X129768000Y-116360000D03*
G36*
G01*
X98250000Y-140587500D02*
X98250000Y-140112500D01*
G75*
G02*
X98487500Y-139875000I237500J0D01*
G01*
X98987500Y-139875000D01*
G75*
G02*
X99225000Y-140112500I0J-237500D01*
G01*
X99225000Y-140587500D01*
G75*
G02*
X98987500Y-140825000I-237500J0D01*
G01*
X98487500Y-140825000D01*
G75*
G02*
X98250000Y-140587500I0J237500D01*
G01*
G37*
G36*
G01*
X100075000Y-140587500D02*
X100075000Y-140112500D01*
G75*
G02*
X100312500Y-139875000I237500J0D01*
G01*
X100812500Y-139875000D01*
G75*
G02*
X101050000Y-140112500I0J-237500D01*
G01*
X101050000Y-140587500D01*
G75*
G02*
X100812500Y-140825000I-237500J0D01*
G01*
X100312500Y-140825000D01*
G75*
G02*
X100075000Y-140587500I0J237500D01*
G01*
G37*
X176700000Y-136525000D03*
D14*
X106450000Y-111025000D03*
G36*
G01*
X105450000Y-103525000D02*
X107450000Y-103525000D01*
G75*
G02*
X108200000Y-104275000I0J-750000D01*
G01*
X108200000Y-105775000D01*
G75*
G02*
X107450000Y-106525000I-750000J0D01*
G01*
X105450000Y-106525000D01*
G75*
G02*
X104700000Y-105775000I0J750000D01*
G01*
X104700000Y-104275000D01*
G75*
G02*
X105450000Y-103525000I750000J0D01*
G01*
G37*
G36*
G01*
X100875000Y-106275000D02*
X102625000Y-106275000D01*
G75*
G02*
X103500000Y-107150000I0J-875000D01*
G01*
X103500000Y-108900000D01*
G75*
G02*
X102625000Y-109775000I-875000J0D01*
G01*
X100875000Y-109775000D01*
G75*
G02*
X100000000Y-108900000I0J875000D01*
G01*
X100000000Y-107150000D01*
G75*
G02*
X100875000Y-106275000I875000J0D01*
G01*
G37*
D15*
X166370000Y-128000000D03*
X160370000Y-126000000D03*
X160370000Y-113800000D03*
X172370000Y-113800000D03*
X172370000Y-126000000D03*
G36*
G01*
X181667000Y-139744500D02*
X181667000Y-140219500D01*
G75*
G02*
X181429500Y-140457000I-237500J0D01*
G01*
X180929500Y-140457000D01*
G75*
G02*
X180692000Y-140219500I0J237500D01*
G01*
X180692000Y-139744500D01*
G75*
G02*
X180929500Y-139507000I237500J0D01*
G01*
X181429500Y-139507000D01*
G75*
G02*
X181667000Y-139744500I0J-237500D01*
G01*
G37*
G36*
G01*
X183492000Y-139744500D02*
X183492000Y-140219500D01*
G75*
G02*
X183254500Y-140457000I-237500J0D01*
G01*
X182754500Y-140457000D01*
G75*
G02*
X182517000Y-140219500I0J237500D01*
G01*
X182517000Y-139744500D01*
G75*
G02*
X182754500Y-139507000I237500J0D01*
G01*
X183254500Y-139507000D01*
G75*
G02*
X183492000Y-139744500I0J-237500D01*
G01*
G37*
D16*
X186552000Y-138220000D03*
X185252000Y-138220000D03*
X185902000Y-140220000D03*
G36*
G01*
X185631500Y-146490000D02*
X185156500Y-146490000D01*
G75*
G02*
X184919000Y-146252500I0J237500D01*
G01*
X184919000Y-145677500D01*
G75*
G02*
X185156500Y-145440000I237500J0D01*
G01*
X185631500Y-145440000D01*
G75*
G02*
X185869000Y-145677500I0J-237500D01*
G01*
X185869000Y-146252500D01*
G75*
G02*
X185631500Y-146490000I-237500J0D01*
G01*
G37*
G36*
G01*
X185631500Y-148240000D02*
X185156500Y-148240000D01*
G75*
G02*
X184919000Y-148002500I0J237500D01*
G01*
X184919000Y-147427500D01*
G75*
G02*
X185156500Y-147190000I237500J0D01*
G01*
X185631500Y-147190000D01*
G75*
G02*
X185869000Y-147427500I0J-237500D01*
G01*
X185869000Y-148002500D01*
G75*
G02*
X185631500Y-148240000I-237500J0D01*
G01*
G37*
D17*
X191964000Y-136934000D03*
X194064000Y-136934000D03*
D16*
X189204000Y-140220000D03*
X188554000Y-138220000D03*
X189854000Y-138220000D03*
G36*
G01*
X100075000Y-142137500D02*
X100075000Y-141662500D01*
G75*
G02*
X100312500Y-141425000I237500J0D01*
G01*
X100812500Y-141425000D01*
G75*
G02*
X101050000Y-141662500I0J-237500D01*
G01*
X101050000Y-142137500D01*
G75*
G02*
X100812500Y-142375000I-237500J0D01*
G01*
X100312500Y-142375000D01*
G75*
G02*
X100075000Y-142137500I0J237500D01*
G01*
G37*
G36*
G01*
X98250000Y-142137500D02*
X98250000Y-141662500D01*
G75*
G02*
X98487500Y-141425000I237500J0D01*
G01*
X98987500Y-141425000D01*
G75*
G02*
X99225000Y-141662500I0J-237500D01*
G01*
X99225000Y-142137500D01*
G75*
G02*
X98987500Y-142375000I-237500J0D01*
G01*
X98487500Y-142375000D01*
G75*
G02*
X98250000Y-142137500I0J237500D01*
G01*
G37*
G36*
G01*
X114150003Y-137037500D02*
X111949997Y-137037500D01*
G75*
G02*
X111700000Y-136787503I0J249997D01*
G01*
X111700000Y-135962497D01*
G75*
G02*
X111949997Y-135712500I249997J0D01*
G01*
X114150003Y-135712500D01*
G75*
G02*
X114400000Y-135962497I0J-249997D01*
G01*
X114400000Y-136787503D01*
G75*
G02*
X114150003Y-137037500I-249997J0D01*
G01*
G37*
G36*
G01*
X114150003Y-133912500D02*
X111949997Y-133912500D01*
G75*
G02*
X111700000Y-133662503I0J249997D01*
G01*
X111700000Y-132837497D01*
G75*
G02*
X111949997Y-132587500I249997J0D01*
G01*
X114150003Y-132587500D01*
G75*
G02*
X114400000Y-132837497I0J-249997D01*
G01*
X114400000Y-133662503D01*
G75*
G02*
X114150003Y-133912500I-249997J0D01*
G01*
G37*
G36*
G01*
X153811000Y-105596000D02*
X153811000Y-107096000D01*
G75*
G02*
X153561000Y-107346000I-250000J0D01*
G01*
X152361000Y-107346000D01*
G75*
G02*
X152111000Y-107096000I0J250000D01*
G01*
X152111000Y-105596000D01*
G75*
G02*
X152361000Y-105346000I250000J0D01*
G01*
X153561000Y-105346000D01*
G75*
G02*
X153811000Y-105596000I0J-250000D01*
G01*
G37*
D18*
X150461000Y-106346000D03*
D19*
X100116726Y-102333274D03*
X98950000Y-101850000D03*
X97783274Y-102333274D03*
X97300000Y-103500000D03*
X97783274Y-104666726D03*
X98950000Y-105150000D03*
X100116726Y-104666726D03*
X100600000Y-103500000D03*
D20*
X98950000Y-103500000D03*
D19*
X194116726Y-144833274D03*
X192950000Y-144350000D03*
X191783274Y-144833274D03*
X191300000Y-146000000D03*
X191783274Y-147166726D03*
X192950000Y-147650000D03*
X194116726Y-147166726D03*
X194600000Y-146000000D03*
D20*
X192950000Y-146000000D03*
D21*
X148376000Y-112490000D03*
X150376000Y-111540000D03*
X150376000Y-113440000D03*
G36*
G01*
X124225000Y-125737500D02*
X124225000Y-126212500D01*
G75*
G02*
X123987500Y-126450000I-237500J0D01*
G01*
X123387500Y-126450000D01*
G75*
G02*
X123150000Y-126212500I0J237500D01*
G01*
X123150000Y-125737500D01*
G75*
G02*
X123387500Y-125500000I237500J0D01*
G01*
X123987500Y-125500000D01*
G75*
G02*
X124225000Y-125737500I0J-237500D01*
G01*
G37*
G36*
G01*
X125950000Y-125737500D02*
X125950000Y-126212500D01*
G75*
G02*
X125712500Y-126450000I-237500J0D01*
G01*
X125112500Y-126450000D01*
G75*
G02*
X124875000Y-126212500I0J237500D01*
G01*
X124875000Y-125737500D01*
G75*
G02*
X125112500Y-125500000I237500J0D01*
G01*
X125712500Y-125500000D01*
G75*
G02*
X125950000Y-125737500I0J-237500D01*
G01*
G37*
G36*
G01*
X127395000Y-105596000D02*
X127395000Y-107096000D01*
G75*
G02*
X127145000Y-107346000I-250000J0D01*
G01*
X125945000Y-107346000D01*
G75*
G02*
X125695000Y-107096000I0J250000D01*
G01*
X125695000Y-105596000D01*
G75*
G02*
X125945000Y-105346000I250000J0D01*
G01*
X127145000Y-105346000D01*
G75*
G02*
X127395000Y-105596000I0J-250000D01*
G01*
G37*
D18*
X124045000Y-106346000D03*
G36*
G01*
X100587500Y-127362500D02*
X100587500Y-127837500D01*
G75*
G02*
X100350000Y-128075000I-237500J0D01*
G01*
X99750000Y-128075000D01*
G75*
G02*
X99512500Y-127837500I0J237500D01*
G01*
X99512500Y-127362500D01*
G75*
G02*
X99750000Y-127125000I237500J0D01*
G01*
X100350000Y-127125000D01*
G75*
G02*
X100587500Y-127362500I0J-237500D01*
G01*
G37*
G36*
G01*
X98862500Y-127362500D02*
X98862500Y-127837500D01*
G75*
G02*
X98625000Y-128075000I-237500J0D01*
G01*
X98025000Y-128075000D01*
G75*
G02*
X97787500Y-127837500I0J237500D01*
G01*
X97787500Y-127362500D01*
G75*
G02*
X98025000Y-127125000I237500J0D01*
G01*
X98625000Y-127125000D01*
G75*
G02*
X98862500Y-127362500I0J-237500D01*
G01*
G37*
G36*
G01*
X101050000Y-137012500D02*
X101050000Y-137487500D01*
G75*
G02*
X100812500Y-137725000I-237500J0D01*
G01*
X100312500Y-137725000D01*
G75*
G02*
X100075000Y-137487500I0J237500D01*
G01*
X100075000Y-137012500D01*
G75*
G02*
X100312500Y-136775000I237500J0D01*
G01*
X100812500Y-136775000D01*
G75*
G02*
X101050000Y-137012500I0J-237500D01*
G01*
G37*
G36*
G01*
X99225000Y-137012500D02*
X99225000Y-137487500D01*
G75*
G02*
X98987500Y-137725000I-237500J0D01*
G01*
X98487500Y-137725000D01*
G75*
G02*
X98250000Y-137487500I0J237500D01*
G01*
X98250000Y-137012500D01*
G75*
G02*
X98487500Y-136775000I237500J0D01*
G01*
X98987500Y-136775000D01*
G75*
G02*
X99225000Y-137012500I0J-237500D01*
G01*
G37*
D22*
X112840000Y-119150000D03*
D23*
X110300000Y-119150000D03*
D18*
X141571000Y-106346000D03*
G36*
G01*
X144921000Y-105596000D02*
X144921000Y-107096000D01*
G75*
G02*
X144671000Y-107346000I-250000J0D01*
G01*
X143471000Y-107346000D01*
G75*
G02*
X143221000Y-107096000I0J250000D01*
G01*
X143221000Y-105596000D01*
G75*
G02*
X143471000Y-105346000I250000J0D01*
G01*
X144671000Y-105346000D01*
G75*
G02*
X144921000Y-105596000I0J-250000D01*
G01*
G37*
G36*
G01*
X102012500Y-129099997D02*
X102012500Y-131300003D01*
G75*
G02*
X101762503Y-131550000I-249997J0D01*
G01*
X100937497Y-131550000D01*
G75*
G02*
X100687500Y-131300003I0J249997D01*
G01*
X100687500Y-129099997D01*
G75*
G02*
X100937497Y-128850000I249997J0D01*
G01*
X101762503Y-128850000D01*
G75*
G02*
X102012500Y-129099997I0J-249997D01*
G01*
G37*
G36*
G01*
X98887500Y-129099997D02*
X98887500Y-131300003D01*
G75*
G02*
X98637503Y-131550000I-249997J0D01*
G01*
X97812497Y-131550000D01*
G75*
G02*
X97562500Y-131300003I0J249997D01*
G01*
X97562500Y-129099997D01*
G75*
G02*
X97812497Y-128850000I249997J0D01*
G01*
X98637503Y-128850000D01*
G75*
G02*
X98887500Y-129099997I0J-249997D01*
G01*
G37*
D24*
X161210000Y-104510000D03*
D15*
X166290000Y-104510000D03*
X171370000Y-104510000D03*
X190370000Y-126000000D03*
X190370000Y-113800000D03*
X178370000Y-113800000D03*
X178370000Y-126000000D03*
X184370000Y-128000000D03*
G36*
G01*
X98250000Y-135962500D02*
X98250000Y-135487500D01*
G75*
G02*
X98487500Y-135250000I237500J0D01*
G01*
X98987500Y-135250000D01*
G75*
G02*
X99225000Y-135487500I0J-237500D01*
G01*
X99225000Y-135962500D01*
G75*
G02*
X98987500Y-136200000I-237500J0D01*
G01*
X98487500Y-136200000D01*
G75*
G02*
X98250000Y-135962500I0J237500D01*
G01*
G37*
G36*
G01*
X100075000Y-135962500D02*
X100075000Y-135487500D01*
G75*
G02*
X100312500Y-135250000I237500J0D01*
G01*
X100812500Y-135250000D01*
G75*
G02*
X101050000Y-135487500I0J-237500D01*
G01*
X101050000Y-135962500D01*
G75*
G02*
X100812500Y-136200000I-237500J0D01*
G01*
X100312500Y-136200000D01*
G75*
G02*
X100075000Y-135962500I0J237500D01*
G01*
G37*
D23*
X153950000Y-130460000D03*
D22*
X153950000Y-133000000D03*
X153950000Y-135540000D03*
X153950000Y-138080000D03*
D25*
X113050000Y-126600000D03*
X104750000Y-126600000D03*
G36*
G01*
X122223000Y-112604000D02*
X121123000Y-112604000D01*
G75*
G02*
X120873000Y-112354000I0J250000D01*
G01*
X120873000Y-109854000D01*
G75*
G02*
X121123000Y-109604000I250000J0D01*
G01*
X122223000Y-109604000D01*
G75*
G02*
X122473000Y-109854000I0J-250000D01*
G01*
X122473000Y-112354000D01*
G75*
G02*
X122223000Y-112604000I-250000J0D01*
G01*
G37*
G36*
G01*
X122223000Y-117004000D02*
X121123000Y-117004000D01*
G75*
G02*
X120873000Y-116754000I0J250000D01*
G01*
X120873000Y-114254000D01*
G75*
G02*
X121123000Y-114004000I250000J0D01*
G01*
X122223000Y-114004000D01*
G75*
G02*
X122473000Y-114254000I0J-250000D01*
G01*
X122473000Y-116754000D01*
G75*
G02*
X122223000Y-117004000I-250000J0D01*
G01*
G37*
D23*
X158450000Y-135500000D03*
D22*
X158450000Y-138040000D03*
X158450000Y-140580000D03*
X158450000Y-143120000D03*
G36*
G01*
X115836000Y-117004000D02*
X114736000Y-117004000D01*
G75*
G02*
X114486000Y-116754000I0J250000D01*
G01*
X114486000Y-114254000D01*
G75*
G02*
X114736000Y-114004000I250000J0D01*
G01*
X115836000Y-114004000D01*
G75*
G02*
X116086000Y-114254000I0J-250000D01*
G01*
X116086000Y-116754000D01*
G75*
G02*
X115836000Y-117004000I-250000J0D01*
G01*
G37*
G36*
G01*
X115836000Y-112604000D02*
X114736000Y-112604000D01*
G75*
G02*
X114486000Y-112354000I0J250000D01*
G01*
X114486000Y-109854000D01*
G75*
G02*
X114736000Y-109604000I250000J0D01*
G01*
X115836000Y-109604000D01*
G75*
G02*
X116086000Y-109854000I0J-250000D01*
G01*
X116086000Y-112354000D01*
G75*
G02*
X115836000Y-112604000I-250000J0D01*
G01*
G37*
X118450000Y-128000000D03*
X118450000Y-130540000D03*
X118450000Y-133080000D03*
X118450000Y-135620000D03*
X118450000Y-138160000D03*
D23*
X118450000Y-140700000D03*
G36*
G01*
X176487500Y-144684000D02*
X176012500Y-144684000D01*
G75*
G02*
X175775000Y-144446500I0J237500D01*
G01*
X175775000Y-143946500D01*
G75*
G02*
X176012500Y-143709000I237500J0D01*
G01*
X176487500Y-143709000D01*
G75*
G02*
X176725000Y-143946500I0J-237500D01*
G01*
X176725000Y-144446500D01*
G75*
G02*
X176487500Y-144684000I-237500J0D01*
G01*
G37*
G36*
G01*
X176487500Y-142859000D02*
X176012500Y-142859000D01*
G75*
G02*
X175775000Y-142621500I0J237500D01*
G01*
X175775000Y-142121500D01*
G75*
G02*
X176012500Y-141884000I237500J0D01*
G01*
X176487500Y-141884000D01*
G75*
G02*
X176725000Y-142121500I0J-237500D01*
G01*
X176725000Y-142621500D01*
G75*
G02*
X176487500Y-142859000I-237500J0D01*
G01*
G37*
G36*
G01*
X188679500Y-148240000D02*
X188204500Y-148240000D01*
G75*
G02*
X187967000Y-148002500I0J237500D01*
G01*
X187967000Y-147427500D01*
G75*
G02*
X188204500Y-147190000I237500J0D01*
G01*
X188679500Y-147190000D01*
G75*
G02*
X188917000Y-147427500I0J-237500D01*
G01*
X188917000Y-148002500D01*
G75*
G02*
X188679500Y-148240000I-237500J0D01*
G01*
G37*
G36*
G01*
X188679500Y-146490000D02*
X188204500Y-146490000D01*
G75*
G02*
X187967000Y-146252500I0J237500D01*
G01*
X187967000Y-145677500D01*
G75*
G02*
X188204500Y-145440000I237500J0D01*
G01*
X188679500Y-145440000D01*
G75*
G02*
X188917000Y-145677500I0J-237500D01*
G01*
X188917000Y-146252500D01*
G75*
G02*
X188679500Y-146490000I-237500J0D01*
G01*
G37*
D26*
X100950000Y-120600000D03*
X100950000Y-116600000D03*
G36*
G01*
X105125000Y-120437500D02*
X105125000Y-119962500D01*
G75*
G02*
X105362500Y-119725000I237500J0D01*
G01*
X105962500Y-119725000D01*
G75*
G02*
X106200000Y-119962500I0J-237500D01*
G01*
X106200000Y-120437500D01*
G75*
G02*
X105962500Y-120675000I-237500J0D01*
G01*
X105362500Y-120675000D01*
G75*
G02*
X105125000Y-120437500I0J237500D01*
G01*
G37*
G36*
G01*
X103400000Y-120437500D02*
X103400000Y-119962500D01*
G75*
G02*
X103637500Y-119725000I237500J0D01*
G01*
X104237500Y-119725000D01*
G75*
G02*
X104475000Y-119962500I0J-237500D01*
G01*
X104475000Y-120437500D01*
G75*
G02*
X104237500Y-120675000I-237500J0D01*
G01*
X103637500Y-120675000D01*
G75*
G02*
X103400000Y-120437500I0J237500D01*
G01*
G37*
G36*
G01*
X182583500Y-148240000D02*
X182108500Y-148240000D01*
G75*
G02*
X181871000Y-148002500I0J237500D01*
G01*
X181871000Y-147427500D01*
G75*
G02*
X182108500Y-147190000I237500J0D01*
G01*
X182583500Y-147190000D01*
G75*
G02*
X182821000Y-147427500I0J-237500D01*
G01*
X182821000Y-148002500D01*
G75*
G02*
X182583500Y-148240000I-237500J0D01*
G01*
G37*
G36*
G01*
X182583500Y-146490000D02*
X182108500Y-146490000D01*
G75*
G02*
X181871000Y-146252500I0J237500D01*
G01*
X181871000Y-145677500D01*
G75*
G02*
X182108500Y-145440000I237500J0D01*
G01*
X182583500Y-145440000D01*
G75*
G02*
X182821000Y-145677500I0J-237500D01*
G01*
X182821000Y-146252500D01*
G75*
G02*
X182583500Y-146490000I-237500J0D01*
G01*
G37*
G36*
G01*
X179535500Y-146490000D02*
X179060500Y-146490000D01*
G75*
G02*
X178823000Y-146252500I0J237500D01*
G01*
X178823000Y-145677500D01*
G75*
G02*
X179060500Y-145440000I237500J0D01*
G01*
X179535500Y-145440000D01*
G75*
G02*
X179773000Y-145677500I0J-237500D01*
G01*
X179773000Y-146252500D01*
G75*
G02*
X179535500Y-146490000I-237500J0D01*
G01*
G37*
G36*
G01*
X179535500Y-148240000D02*
X179060500Y-148240000D01*
G75*
G02*
X178823000Y-148002500I0J237500D01*
G01*
X178823000Y-147427500D01*
G75*
G02*
X179060500Y-147190000I237500J0D01*
G01*
X179535500Y-147190000D01*
G75*
G02*
X179773000Y-147427500I0J-237500D01*
G01*
X179773000Y-148002500D01*
G75*
G02*
X179535500Y-148240000I-237500J0D01*
G01*
G37*
D27*
X119350000Y-102012500D03*
X113550000Y-102012500D03*
D28*
X112950000Y-102012500D03*
X119950000Y-102012500D03*
D29*
X117450000Y-102012500D03*
D30*
X113950000Y-104712500D03*
D31*
X116450000Y-104712500D03*
X115800000Y-104712500D03*
X115150000Y-104712500D03*
X117750000Y-104712500D03*
X117100000Y-104712500D03*
D30*
X118950000Y-104712500D03*
D29*
X115450000Y-102012500D03*
D15*
X188620000Y-104510000D03*
X183540000Y-104510000D03*
D24*
X178460000Y-104510000D03*
D32*
X193450000Y-103000000D03*
D33*
X193450000Y-103000000D03*
G36*
G01*
X110750003Y-133912500D02*
X108549997Y-133912500D01*
G75*
G02*
X108300000Y-133662503I0J249997D01*
G01*
X108300000Y-132837497D01*
G75*
G02*
X108549997Y-132587500I249997J0D01*
G01*
X110750003Y-132587500D01*
G75*
G02*
X111000000Y-132837497I0J-249997D01*
G01*
X111000000Y-133662503D01*
G75*
G02*
X110750003Y-133912500I-249997J0D01*
G01*
G37*
G36*
G01*
X110750003Y-137037500D02*
X108549997Y-137037500D01*
G75*
G02*
X108300000Y-136787503I0J249997D01*
G01*
X108300000Y-135962497D01*
G75*
G02*
X108549997Y-135712500I249997J0D01*
G01*
X110750003Y-135712500D01*
G75*
G02*
X111000000Y-135962497I0J-249997D01*
G01*
X111000000Y-136787503D01*
G75*
G02*
X110750003Y-137037500I-249997J0D01*
G01*
G37*
G36*
G01*
X125950000Y-127437500D02*
X125950000Y-127912500D01*
G75*
G02*
X125712500Y-128150000I-237500J0D01*
G01*
X125112500Y-128150000D01*
G75*
G02*
X124875000Y-127912500I0J237500D01*
G01*
X124875000Y-127437500D01*
G75*
G02*
X125112500Y-127200000I237500J0D01*
G01*
X125712500Y-127200000D01*
G75*
G02*
X125950000Y-127437500I0J-237500D01*
G01*
G37*
G36*
G01*
X124225000Y-127437500D02*
X124225000Y-127912500D01*
G75*
G02*
X123987500Y-128150000I-237500J0D01*
G01*
X123387500Y-128150000D01*
G75*
G02*
X123150000Y-127912500I0J237500D01*
G01*
X123150000Y-127437500D01*
G75*
G02*
X123387500Y-127200000I237500J0D01*
G01*
X123987500Y-127200000D01*
G75*
G02*
X124225000Y-127437500I0J-237500D01*
G01*
G37*
G36*
G01*
X97287500Y-140675000D02*
X96812500Y-140675000D01*
G75*
G02*
X96575000Y-140437500I0J237500D01*
G01*
X96575000Y-139837500D01*
G75*
G02*
X96812500Y-139600000I237500J0D01*
G01*
X97287500Y-139600000D01*
G75*
G02*
X97525000Y-139837500I0J-237500D01*
G01*
X97525000Y-140437500D01*
G75*
G02*
X97287500Y-140675000I-237500J0D01*
G01*
G37*
G36*
G01*
X97287500Y-142400000D02*
X96812500Y-142400000D01*
G75*
G02*
X96575000Y-142162500I0J237500D01*
G01*
X96575000Y-141562500D01*
G75*
G02*
X96812500Y-141325000I237500J0D01*
G01*
X97287500Y-141325000D01*
G75*
G02*
X97525000Y-141562500I0J-237500D01*
G01*
X97525000Y-142162500D01*
G75*
G02*
X97287500Y-142400000I-237500J0D01*
G01*
G37*
D22*
X152670000Y-116700000D03*
X150130000Y-116700000D03*
X147590000Y-116700000D03*
D23*
X145050000Y-116700000D03*
G36*
G01*
X101050000Y-138562500D02*
X101050000Y-139037500D01*
G75*
G02*
X100812500Y-139275000I-237500J0D01*
G01*
X100312500Y-139275000D01*
G75*
G02*
X100075000Y-139037500I0J237500D01*
G01*
X100075000Y-138562500D01*
G75*
G02*
X100312500Y-138325000I237500J0D01*
G01*
X100812500Y-138325000D01*
G75*
G02*
X101050000Y-138562500I0J-237500D01*
G01*
G37*
G36*
G01*
X99225000Y-138562500D02*
X99225000Y-139037500D01*
G75*
G02*
X98987500Y-139275000I-237500J0D01*
G01*
X98487500Y-139275000D01*
G75*
G02*
X98250000Y-139037500I0J237500D01*
G01*
X98250000Y-138562500D01*
G75*
G02*
X98487500Y-138325000I237500J0D01*
G01*
X98987500Y-138325000D01*
G75*
G02*
X99225000Y-138562500I0J-237500D01*
G01*
G37*
D20*
X98950000Y-146000000D03*
D19*
X100600000Y-146000000D03*
X100116726Y-147166726D03*
X98950000Y-147650000D03*
X97783274Y-147166726D03*
X97300000Y-146000000D03*
X97783274Y-144833274D03*
X98950000Y-144350000D03*
X100116726Y-144833274D03*
D18*
X132681000Y-106346000D03*
G36*
G01*
X136031000Y-105596000D02*
X136031000Y-107096000D01*
G75*
G02*
X135781000Y-107346000I-250000J0D01*
G01*
X134581000Y-107346000D01*
G75*
G02*
X134331000Y-107096000I0J250000D01*
G01*
X134331000Y-105596000D01*
G75*
G02*
X134581000Y-105346000I250000J0D01*
G01*
X135781000Y-105346000D01*
G75*
G02*
X136031000Y-105596000I0J-250000D01*
G01*
G37*
G36*
G01*
X138895500Y-113799500D02*
X138420500Y-113799500D01*
G75*
G02*
X138183000Y-113562000I0J237500D01*
G01*
X138183000Y-113062000D01*
G75*
G02*
X138420500Y-112824500I237500J0D01*
G01*
X138895500Y-112824500D01*
G75*
G02*
X139133000Y-113062000I0J-237500D01*
G01*
X139133000Y-113562000D01*
G75*
G02*
X138895500Y-113799500I-237500J0D01*
G01*
G37*
G36*
G01*
X138895500Y-111974500D02*
X138420500Y-111974500D01*
G75*
G02*
X138183000Y-111737000I0J237500D01*
G01*
X138183000Y-111237000D01*
G75*
G02*
X138420500Y-110999500I237500J0D01*
G01*
X138895500Y-110999500D01*
G75*
G02*
X139133000Y-111237000I0J-237500D01*
G01*
X139133000Y-111737000D01*
G75*
G02*
X138895500Y-111974500I-237500J0D01*
G01*
G37*
G36*
G01*
X185156500Y-141884000D02*
X185631500Y-141884000D01*
G75*
G02*
X185869000Y-142121500I0J-237500D01*
G01*
X185869000Y-142621500D01*
G75*
G02*
X185631500Y-142859000I-237500J0D01*
G01*
X185156500Y-142859000D01*
G75*
G02*
X184919000Y-142621500I0J237500D01*
G01*
X184919000Y-142121500D01*
G75*
G02*
X185156500Y-141884000I237500J0D01*
G01*
G37*
G36*
G01*
X185156500Y-143709000D02*
X185631500Y-143709000D01*
G75*
G02*
X185869000Y-143946500I0J-237500D01*
G01*
X185869000Y-144446500D01*
G75*
G02*
X185631500Y-144684000I-237500J0D01*
G01*
X185156500Y-144684000D01*
G75*
G02*
X184919000Y-144446500I0J237500D01*
G01*
X184919000Y-143946500D01*
G75*
G02*
X185156500Y-143709000I237500J0D01*
G01*
G37*
G36*
G01*
X183492000Y-137966500D02*
X183492000Y-138441500D01*
G75*
G02*
X183254500Y-138679000I-237500J0D01*
G01*
X182754500Y-138679000D01*
G75*
G02*
X182517000Y-138441500I0J237500D01*
G01*
X182517000Y-137966500D01*
G75*
G02*
X182754500Y-137729000I237500J0D01*
G01*
X183254500Y-137729000D01*
G75*
G02*
X183492000Y-137966500I0J-237500D01*
G01*
G37*
G36*
G01*
X181667000Y-137966500D02*
X181667000Y-138441500D01*
G75*
G02*
X181429500Y-138679000I-237500J0D01*
G01*
X180929500Y-138679000D01*
G75*
G02*
X180692000Y-138441500I0J237500D01*
G01*
X180692000Y-137966500D01*
G75*
G02*
X180929500Y-137729000I237500J0D01*
G01*
X181429500Y-137729000D01*
G75*
G02*
X181667000Y-137966500I0J-237500D01*
G01*
G37*
G36*
G01*
X188204500Y-143709000D02*
X188679500Y-143709000D01*
G75*
G02*
X188917000Y-143946500I0J-237500D01*
G01*
X188917000Y-144446500D01*
G75*
G02*
X188679500Y-144684000I-237500J0D01*
G01*
X188204500Y-144684000D01*
G75*
G02*
X187967000Y-144446500I0J237500D01*
G01*
X187967000Y-143946500D01*
G75*
G02*
X188204500Y-143709000I237500J0D01*
G01*
G37*
G36*
G01*
X188204500Y-141884000D02*
X188679500Y-141884000D01*
G75*
G02*
X188917000Y-142121500I0J-237500D01*
G01*
X188917000Y-142621500D01*
G75*
G02*
X188679500Y-142859000I-237500J0D01*
G01*
X188204500Y-142859000D01*
G75*
G02*
X187967000Y-142621500I0J237500D01*
G01*
X187967000Y-142121500D01*
G75*
G02*
X188204500Y-141884000I237500J0D01*
G01*
G37*
G36*
G01*
X105075500Y-140849000D02*
X104600500Y-140849000D01*
G75*
G02*
X104363000Y-140611500I0J237500D01*
G01*
X104363000Y-140111500D01*
G75*
G02*
X104600500Y-139874000I237500J0D01*
G01*
X105075500Y-139874000D01*
G75*
G02*
X105313000Y-140111500I0J-237500D01*
G01*
X105313000Y-140611500D01*
G75*
G02*
X105075500Y-140849000I-237500J0D01*
G01*
G37*
G36*
G01*
X105075500Y-142674000D02*
X104600500Y-142674000D01*
G75*
G02*
X104363000Y-142436500I0J237500D01*
G01*
X104363000Y-141936500D01*
G75*
G02*
X104600500Y-141699000I237500J0D01*
G01*
X105075500Y-141699000D01*
G75*
G02*
X105313000Y-141936500I0J-237500D01*
G01*
X105313000Y-142436500D01*
G75*
G02*
X105075500Y-142674000I-237500J0D01*
G01*
G37*
G36*
G01*
X141943500Y-111974500D02*
X141468500Y-111974500D01*
G75*
G02*
X141231000Y-111737000I0J237500D01*
G01*
X141231000Y-111237000D01*
G75*
G02*
X141468500Y-110999500I237500J0D01*
G01*
X141943500Y-110999500D01*
G75*
G02*
X142181000Y-111237000I0J-237500D01*
G01*
X142181000Y-111737000D01*
G75*
G02*
X141943500Y-111974500I-237500J0D01*
G01*
G37*
G36*
G01*
X141943500Y-113799500D02*
X141468500Y-113799500D01*
G75*
G02*
X141231000Y-113562000I0J237500D01*
G01*
X141231000Y-113062000D01*
G75*
G02*
X141468500Y-112824500I237500J0D01*
G01*
X141943500Y-112824500D01*
G75*
G02*
X142181000Y-113062000I0J-237500D01*
G01*
X142181000Y-113562000D01*
G75*
G02*
X141943500Y-113799500I-237500J0D01*
G01*
G37*
G36*
G01*
X106378500Y-139874000D02*
X106853500Y-139874000D01*
G75*
G02*
X107091000Y-140111500I0J-237500D01*
G01*
X107091000Y-140611500D01*
G75*
G02*
X106853500Y-140849000I-237500J0D01*
G01*
X106378500Y-140849000D01*
G75*
G02*
X106141000Y-140611500I0J237500D01*
G01*
X106141000Y-140111500D01*
G75*
G02*
X106378500Y-139874000I237500J0D01*
G01*
G37*
G36*
G01*
X106378500Y-141699000D02*
X106853500Y-141699000D01*
G75*
G02*
X107091000Y-141936500I0J-237500D01*
G01*
X107091000Y-142436500D01*
G75*
G02*
X106853500Y-142674000I-237500J0D01*
G01*
X106378500Y-142674000D01*
G75*
G02*
X106141000Y-142436500I0J237500D01*
G01*
X106141000Y-141936500D01*
G75*
G02*
X106378500Y-141699000I237500J0D01*
G01*
G37*
G36*
G01*
X179535500Y-144684000D02*
X179060500Y-144684000D01*
G75*
G02*
X178823000Y-144446500I0J237500D01*
G01*
X178823000Y-143946500D01*
G75*
G02*
X179060500Y-143709000I237500J0D01*
G01*
X179535500Y-143709000D01*
G75*
G02*
X179773000Y-143946500I0J-237500D01*
G01*
X179773000Y-144446500D01*
G75*
G02*
X179535500Y-144684000I-237500J0D01*
G01*
G37*
G36*
G01*
X179535500Y-142859000D02*
X179060500Y-142859000D01*
G75*
G02*
X178823000Y-142621500I0J237500D01*
G01*
X178823000Y-142121500D01*
G75*
G02*
X179060500Y-141884000I237500J0D01*
G01*
X179535500Y-141884000D01*
G75*
G02*
X179773000Y-142121500I0J-237500D01*
G01*
X179773000Y-142621500D01*
G75*
G02*
X179535500Y-142859000I-237500J0D01*
G01*
G37*
G36*
G01*
X108156500Y-141699000D02*
X108631500Y-141699000D01*
G75*
G02*
X108869000Y-141936500I0J-237500D01*
G01*
X108869000Y-142436500D01*
G75*
G02*
X108631500Y-142674000I-237500J0D01*
G01*
X108156500Y-142674000D01*
G75*
G02*
X107919000Y-142436500I0J237500D01*
G01*
X107919000Y-141936500D01*
G75*
G02*
X108156500Y-141699000I237500J0D01*
G01*
G37*
G36*
G01*
X108156500Y-139874000D02*
X108631500Y-139874000D01*
G75*
G02*
X108869000Y-140111500I0J-237500D01*
G01*
X108869000Y-140611500D01*
G75*
G02*
X108631500Y-140849000I-237500J0D01*
G01*
X108156500Y-140849000D01*
G75*
G02*
X107919000Y-140611500I0J237500D01*
G01*
X107919000Y-140111500D01*
G75*
G02*
X108156500Y-139874000I237500J0D01*
G01*
G37*
G36*
G01*
X103297500Y-142674000D02*
X102822500Y-142674000D01*
G75*
G02*
X102585000Y-142436500I0J237500D01*
G01*
X102585000Y-141936500D01*
G75*
G02*
X102822500Y-141699000I237500J0D01*
G01*
X103297500Y-141699000D01*
G75*
G02*
X103535000Y-141936500I0J-237500D01*
G01*
X103535000Y-142436500D01*
G75*
G02*
X103297500Y-142674000I-237500J0D01*
G01*
G37*
G36*
G01*
X103297500Y-140849000D02*
X102822500Y-140849000D01*
G75*
G02*
X102585000Y-140611500I0J237500D01*
G01*
X102585000Y-140111500D01*
G75*
G02*
X102822500Y-139874000I237500J0D01*
G01*
X103297500Y-139874000D01*
G75*
G02*
X103535000Y-140111500I0J-237500D01*
G01*
X103535000Y-140611500D01*
G75*
G02*
X103297500Y-140849000I-237500J0D01*
G01*
G37*
G36*
G01*
X146819500Y-113890000D02*
X146344500Y-113890000D01*
G75*
G02*
X146107000Y-113652500I0J237500D01*
G01*
X146107000Y-113152500D01*
G75*
G02*
X146344500Y-112915000I237500J0D01*
G01*
X146819500Y-112915000D01*
G75*
G02*
X147057000Y-113152500I0J-237500D01*
G01*
X147057000Y-113652500D01*
G75*
G02*
X146819500Y-113890000I-237500J0D01*
G01*
G37*
G36*
G01*
X146819500Y-112065000D02*
X146344500Y-112065000D01*
G75*
G02*
X146107000Y-111827500I0J237500D01*
G01*
X146107000Y-111327500D01*
G75*
G02*
X146344500Y-111090000I237500J0D01*
G01*
X146819500Y-111090000D01*
G75*
G02*
X147057000Y-111327500I0J-237500D01*
G01*
X147057000Y-111827500D01*
G75*
G02*
X146819500Y-112065000I-237500J0D01*
G01*
G37*
G36*
G01*
X152407500Y-112065000D02*
X151932500Y-112065000D01*
G75*
G02*
X151695000Y-111827500I0J237500D01*
G01*
X151695000Y-111327500D01*
G75*
G02*
X151932500Y-111090000I237500J0D01*
G01*
X152407500Y-111090000D01*
G75*
G02*
X152645000Y-111327500I0J-237500D01*
G01*
X152645000Y-111827500D01*
G75*
G02*
X152407500Y-112065000I-237500J0D01*
G01*
G37*
G36*
G01*
X152407500Y-113890000D02*
X151932500Y-113890000D01*
G75*
G02*
X151695000Y-113652500I0J237500D01*
G01*
X151695000Y-113152500D01*
G75*
G02*
X151932500Y-112915000I237500J0D01*
G01*
X152407500Y-112915000D01*
G75*
G02*
X152645000Y-113152500I0J-237500D01*
G01*
X152645000Y-113652500D01*
G75*
G02*
X152407500Y-113890000I-237500J0D01*
G01*
G37*
D13*
X176725000Y-139125000D03*
X126720000Y-116360000D03*
X126700000Y-120678000D03*
X100950000Y-125500000D03*
X126720000Y-112296000D03*
G36*
G01*
X182583500Y-142859000D02*
X182108500Y-142859000D01*
G75*
G02*
X181871000Y-142621500I0J237500D01*
G01*
X181871000Y-142121500D01*
G75*
G02*
X182108500Y-141884000I237500J0D01*
G01*
X182583500Y-141884000D01*
G75*
G02*
X182821000Y-142121500I0J-237500D01*
G01*
X182821000Y-142621500D01*
G75*
G02*
X182583500Y-142859000I-237500J0D01*
G01*
G37*
G36*
G01*
X182583500Y-144684000D02*
X182108500Y-144684000D01*
G75*
G02*
X181871000Y-144446500I0J237500D01*
G01*
X181871000Y-143946500D01*
G75*
G02*
X182108500Y-143709000I237500J0D01*
G01*
X182583500Y-143709000D01*
G75*
G02*
X182821000Y-143946500I0J-237500D01*
G01*
X182821000Y-144446500D01*
G75*
G02*
X182583500Y-144684000I-237500J0D01*
G01*
G37*
G36*
G01*
X109934500Y-139874000D02*
X110409500Y-139874000D01*
G75*
G02*
X110647000Y-140111500I0J-237500D01*
G01*
X110647000Y-140611500D01*
G75*
G02*
X110409500Y-140849000I-237500J0D01*
G01*
X109934500Y-140849000D01*
G75*
G02*
X109697000Y-140611500I0J237500D01*
G01*
X109697000Y-140111500D01*
G75*
G02*
X109934500Y-139874000I237500J0D01*
G01*
G37*
G36*
G01*
X109934500Y-141699000D02*
X110409500Y-141699000D01*
G75*
G02*
X110647000Y-141936500I0J-237500D01*
G01*
X110647000Y-142436500D01*
G75*
G02*
X110409500Y-142674000I-237500J0D01*
G01*
X109934500Y-142674000D01*
G75*
G02*
X109697000Y-142436500I0J237500D01*
G01*
X109697000Y-141936500D01*
G75*
G02*
X109934500Y-141699000I237500J0D01*
G01*
G37*
G36*
G01*
X129276500Y-110896000D02*
X129751500Y-110896000D01*
G75*
G02*
X129989000Y-111133500I0J-237500D01*
G01*
X129989000Y-111633500D01*
G75*
G02*
X129751500Y-111871000I-237500J0D01*
G01*
X129276500Y-111871000D01*
G75*
G02*
X129039000Y-111633500I0J237500D01*
G01*
X129039000Y-111133500D01*
G75*
G02*
X129276500Y-110896000I237500J0D01*
G01*
G37*
G36*
G01*
X129276500Y-112721000D02*
X129751500Y-112721000D01*
G75*
G02*
X129989000Y-112958500I0J-237500D01*
G01*
X129989000Y-113458500D01*
G75*
G02*
X129751500Y-113696000I-237500J0D01*
G01*
X129276500Y-113696000D01*
G75*
G02*
X129039000Y-113458500I0J237500D01*
G01*
X129039000Y-112958500D01*
G75*
G02*
X129276500Y-112721000I237500J0D01*
G01*
G37*
G36*
G01*
X132324500Y-112721000D02*
X132799500Y-112721000D01*
G75*
G02*
X133037000Y-112958500I0J-237500D01*
G01*
X133037000Y-113458500D01*
G75*
G02*
X132799500Y-113696000I-237500J0D01*
G01*
X132324500Y-113696000D01*
G75*
G02*
X132087000Y-113458500I0J237500D01*
G01*
X132087000Y-112958500D01*
G75*
G02*
X132324500Y-112721000I237500J0D01*
G01*
G37*
G36*
G01*
X132324500Y-110896000D02*
X132799500Y-110896000D01*
G75*
G02*
X133037000Y-111133500I0J-237500D01*
G01*
X133037000Y-111633500D01*
G75*
G02*
X132799500Y-111871000I-237500J0D01*
G01*
X132324500Y-111871000D01*
G75*
G02*
X132087000Y-111633500I0J237500D01*
G01*
X132087000Y-111133500D01*
G75*
G02*
X132324500Y-110896000I237500J0D01*
G01*
G37*
G36*
G01*
X135372500Y-112721000D02*
X135847500Y-112721000D01*
G75*
G02*
X136085000Y-112958500I0J-237500D01*
G01*
X136085000Y-113458500D01*
G75*
G02*
X135847500Y-113696000I-237500J0D01*
G01*
X135372500Y-113696000D01*
G75*
G02*
X135135000Y-113458500I0J237500D01*
G01*
X135135000Y-112958500D01*
G75*
G02*
X135372500Y-112721000I237500J0D01*
G01*
G37*
G36*
G01*
X135372500Y-110896000D02*
X135847500Y-110896000D01*
G75*
G02*
X136085000Y-111133500I0J-237500D01*
G01*
X136085000Y-111633500D01*
G75*
G02*
X135847500Y-111871000I-237500J0D01*
G01*
X135372500Y-111871000D01*
G75*
G02*
X135135000Y-111633500I0J237500D01*
G01*
X135135000Y-111133500D01*
G75*
G02*
X135372500Y-110896000I237500J0D01*
G01*
G37*
D34*
X103250000Y-145500000D03*
X108650000Y-145500000D03*
X117150000Y-145500000D03*
X111750000Y-145500000D03*
D17*
X194064000Y-139474000D03*
X191964000Y-139474000D03*
G36*
G01*
X176487500Y-146490000D02*
X176012500Y-146490000D01*
G75*
G02*
X175775000Y-146252500I0J237500D01*
G01*
X175775000Y-145677500D01*
G75*
G02*
X176012500Y-145440000I237500J0D01*
G01*
X176487500Y-145440000D01*
G75*
G02*
X176725000Y-145677500I0J-237500D01*
G01*
X176725000Y-146252500D01*
G75*
G02*
X176487500Y-146490000I-237500J0D01*
G01*
G37*
G36*
G01*
X176487500Y-148240000D02*
X176012500Y-148240000D01*
G75*
G02*
X175775000Y-148002500I0J237500D01*
G01*
X175775000Y-147427500D01*
G75*
G02*
X176012500Y-147190000I237500J0D01*
G01*
X176487500Y-147190000D01*
G75*
G02*
X176725000Y-147427500I0J-237500D01*
G01*
X176725000Y-148002500D01*
G75*
G02*
X176487500Y-148240000I-237500J0D01*
G01*
G37*
D35*
X154750000Y-100300000D03*
X154000000Y-97700000D03*
X154000000Y-100300000D03*
X153250000Y-100300000D03*
X154750000Y-97700000D03*
X153250000Y-97700000D03*
X152475000Y-100300000D03*
X151725000Y-97700000D03*
X151725000Y-100300000D03*
X150975000Y-100300000D03*
X152475000Y-97700000D03*
X150975000Y-97700000D03*
X150200000Y-100300000D03*
X149450000Y-97700000D03*
X149450000Y-100300000D03*
X148700000Y-100300000D03*
X150200000Y-97700000D03*
X148700000Y-97700000D03*
X147925000Y-100300000D03*
X147175000Y-97700000D03*
X147175000Y-100300000D03*
X146425000Y-100300000D03*
X147925000Y-97700000D03*
X146425000Y-97700000D03*
X145650000Y-100300000D03*
X144900000Y-97700000D03*
X144900000Y-100300000D03*
X144150000Y-100300000D03*
X145650000Y-97700000D03*
X144150000Y-97700000D03*
X143400000Y-100300000D03*
X142650000Y-97700000D03*
X142650000Y-100300000D03*
X141900000Y-100300000D03*
X143400000Y-97700000D03*
X141900000Y-97700000D03*
X141150000Y-100300000D03*
X140400000Y-97700000D03*
X140400000Y-100300000D03*
X139650000Y-100300000D03*
X141150000Y-97700000D03*
X139650000Y-97700000D03*
X138900000Y-100300000D03*
X138150000Y-100300000D03*
X137400000Y-100300000D03*
X138900000Y-97700000D03*
X138150000Y-97700000D03*
X137400000Y-97700000D03*
X183800000Y-97700000D03*
X183800000Y-100300000D03*
X184550000Y-97700000D03*
X183050000Y-97700000D03*
X183050000Y-100300000D03*
X184550000Y-100300000D03*
X108850000Y-100300000D03*
X107350000Y-100300000D03*
X107350000Y-97700000D03*
X108850000Y-97700000D03*
X108100000Y-100300000D03*
X108100000Y-97700000D03*
G36*
G01*
X144921000Y-54096000D02*
X144921000Y-55596000D01*
G75*
G02*
X144671000Y-55846000I-250000J0D01*
G01*
X143471000Y-55846000D01*
G75*
G02*
X143221000Y-55596000I0J250000D01*
G01*
X143221000Y-54096000D01*
G75*
G02*
X143471000Y-53846000I250000J0D01*
G01*
X144671000Y-53846000D01*
G75*
G02*
X144921000Y-54096000I0J-250000D01*
G01*
G37*
D18*
X141571000Y-54846000D03*
G36*
G01*
X100875000Y-54775000D02*
X102625000Y-54775000D01*
G75*
G02*
X103500000Y-55650000I0J-875000D01*
G01*
X103500000Y-57400000D01*
G75*
G02*
X102625000Y-58275000I-875000J0D01*
G01*
X100875000Y-58275000D01*
G75*
G02*
X100000000Y-57400000I0J875000D01*
G01*
X100000000Y-55650000D01*
G75*
G02*
X100875000Y-54775000I875000J0D01*
G01*
G37*
G36*
G01*
X105450000Y-52025000D02*
X107450000Y-52025000D01*
G75*
G02*
X108200000Y-52775000I0J-750000D01*
G01*
X108200000Y-54275000D01*
G75*
G02*
X107450000Y-55025000I-750000J0D01*
G01*
X105450000Y-55025000D01*
G75*
G02*
X104700000Y-54275000I0J750000D01*
G01*
X104700000Y-52775000D01*
G75*
G02*
X105450000Y-52025000I750000J0D01*
G01*
G37*
D14*
X106450000Y-59525000D03*
D18*
X124045000Y-54846000D03*
G36*
G01*
X127395000Y-54096000D02*
X127395000Y-55596000D01*
G75*
G02*
X127145000Y-55846000I-250000J0D01*
G01*
X125945000Y-55846000D01*
G75*
G02*
X125695000Y-55596000I0J250000D01*
G01*
X125695000Y-54096000D01*
G75*
G02*
X125945000Y-53846000I250000J0D01*
G01*
X127145000Y-53846000D01*
G75*
G02*
X127395000Y-54096000I0J-250000D01*
G01*
G37*
G36*
G01*
X98250000Y-90637500D02*
X98250000Y-90162500D01*
G75*
G02*
X98487500Y-89925000I237500J0D01*
G01*
X98987500Y-89925000D01*
G75*
G02*
X99225000Y-90162500I0J-237500D01*
G01*
X99225000Y-90637500D01*
G75*
G02*
X98987500Y-90875000I-237500J0D01*
G01*
X98487500Y-90875000D01*
G75*
G02*
X98250000Y-90637500I0J237500D01*
G01*
G37*
G36*
G01*
X100075000Y-90637500D02*
X100075000Y-90162500D01*
G75*
G02*
X100312500Y-89925000I237500J0D01*
G01*
X100812500Y-89925000D01*
G75*
G02*
X101050000Y-90162500I0J-237500D01*
G01*
X101050000Y-90637500D01*
G75*
G02*
X100812500Y-90875000I-237500J0D01*
G01*
X100312500Y-90875000D01*
G75*
G02*
X100075000Y-90637500I0J237500D01*
G01*
G37*
G36*
G01*
X100075000Y-89087500D02*
X100075000Y-88612500D01*
G75*
G02*
X100312500Y-88375000I237500J0D01*
G01*
X100812500Y-88375000D01*
G75*
G02*
X101050000Y-88612500I0J-237500D01*
G01*
X101050000Y-89087500D01*
G75*
G02*
X100812500Y-89325000I-237500J0D01*
G01*
X100312500Y-89325000D01*
G75*
G02*
X100075000Y-89087500I0J237500D01*
G01*
G37*
G36*
G01*
X98250000Y-89087500D02*
X98250000Y-88612500D01*
G75*
G02*
X98487500Y-88375000I237500J0D01*
G01*
X98987500Y-88375000D01*
G75*
G02*
X99225000Y-88612500I0J-237500D01*
G01*
X99225000Y-89087500D01*
G75*
G02*
X98987500Y-89325000I-237500J0D01*
G01*
X98487500Y-89325000D01*
G75*
G02*
X98250000Y-89087500I0J237500D01*
G01*
G37*
G36*
G01*
X99225000Y-87062500D02*
X99225000Y-87537500D01*
G75*
G02*
X98987500Y-87775000I-237500J0D01*
G01*
X98487500Y-87775000D01*
G75*
G02*
X98250000Y-87537500I0J237500D01*
G01*
X98250000Y-87062500D01*
G75*
G02*
X98487500Y-86825000I237500J0D01*
G01*
X98987500Y-86825000D01*
G75*
G02*
X99225000Y-87062500I0J-237500D01*
G01*
G37*
G36*
G01*
X101050000Y-87062500D02*
X101050000Y-87537500D01*
G75*
G02*
X100812500Y-87775000I-237500J0D01*
G01*
X100312500Y-87775000D01*
G75*
G02*
X100075000Y-87537500I0J237500D01*
G01*
X100075000Y-87062500D01*
G75*
G02*
X100312500Y-86825000I237500J0D01*
G01*
X100812500Y-86825000D01*
G75*
G02*
X101050000Y-87062500I0J-237500D01*
G01*
G37*
G36*
G01*
X99225000Y-85512500D02*
X99225000Y-85987500D01*
G75*
G02*
X98987500Y-86225000I-237500J0D01*
G01*
X98487500Y-86225000D01*
G75*
G02*
X98250000Y-85987500I0J237500D01*
G01*
X98250000Y-85512500D01*
G75*
G02*
X98487500Y-85275000I237500J0D01*
G01*
X98987500Y-85275000D01*
G75*
G02*
X99225000Y-85512500I0J-237500D01*
G01*
G37*
G36*
G01*
X101050000Y-85512500D02*
X101050000Y-85987500D01*
G75*
G02*
X100812500Y-86225000I-237500J0D01*
G01*
X100312500Y-86225000D01*
G75*
G02*
X100075000Y-85987500I0J237500D01*
G01*
X100075000Y-85512500D01*
G75*
G02*
X100312500Y-85275000I237500J0D01*
G01*
X100812500Y-85275000D01*
G75*
G02*
X101050000Y-85512500I0J-237500D01*
G01*
G37*
G36*
G01*
X100075000Y-84462500D02*
X100075000Y-83987500D01*
G75*
G02*
X100312500Y-83750000I237500J0D01*
G01*
X100812500Y-83750000D01*
G75*
G02*
X101050000Y-83987500I0J-237500D01*
G01*
X101050000Y-84462500D01*
G75*
G02*
X100812500Y-84700000I-237500J0D01*
G01*
X100312500Y-84700000D01*
G75*
G02*
X100075000Y-84462500I0J237500D01*
G01*
G37*
G36*
G01*
X98250000Y-84462500D02*
X98250000Y-83987500D01*
G75*
G02*
X98487500Y-83750000I237500J0D01*
G01*
X98987500Y-83750000D01*
G75*
G02*
X99225000Y-83987500I0J-237500D01*
G01*
X99225000Y-84462500D01*
G75*
G02*
X98987500Y-84700000I-237500J0D01*
G01*
X98487500Y-84700000D01*
G75*
G02*
X98250000Y-84462500I0J237500D01*
G01*
G37*
D33*
X193450000Y-51500000D03*
D32*
X193450000Y-51500000D03*
D15*
X184370000Y-76500000D03*
X178370000Y-74500000D03*
X178370000Y-62300000D03*
X190370000Y-62300000D03*
X190370000Y-74500000D03*
D23*
X145050000Y-65200000D03*
D22*
X147590000Y-65200000D03*
X150130000Y-65200000D03*
X152670000Y-65200000D03*
D15*
X172370000Y-74500000D03*
X172370000Y-62300000D03*
X160370000Y-62300000D03*
X160370000Y-74500000D03*
X166370000Y-76500000D03*
D22*
X153950000Y-86580000D03*
X153950000Y-84040000D03*
X153950000Y-81500000D03*
D23*
X153950000Y-78960000D03*
D18*
X150461000Y-54846000D03*
G36*
G01*
X153811000Y-54096000D02*
X153811000Y-55596000D01*
G75*
G02*
X153561000Y-55846000I-250000J0D01*
G01*
X152361000Y-55846000D01*
G75*
G02*
X152111000Y-55596000I0J250000D01*
G01*
X152111000Y-54096000D01*
G75*
G02*
X152361000Y-53846000I250000J0D01*
G01*
X153561000Y-53846000D01*
G75*
G02*
X153811000Y-54096000I0J-250000D01*
G01*
G37*
G36*
G01*
X176487500Y-91359000D02*
X176012500Y-91359000D01*
G75*
G02*
X175775000Y-91121500I0J237500D01*
G01*
X175775000Y-90621500D01*
G75*
G02*
X176012500Y-90384000I237500J0D01*
G01*
X176487500Y-90384000D01*
G75*
G02*
X176725000Y-90621500I0J-237500D01*
G01*
X176725000Y-91121500D01*
G75*
G02*
X176487500Y-91359000I-237500J0D01*
G01*
G37*
G36*
G01*
X176487500Y-93184000D02*
X176012500Y-93184000D01*
G75*
G02*
X175775000Y-92946500I0J237500D01*
G01*
X175775000Y-92446500D01*
G75*
G02*
X176012500Y-92209000I237500J0D01*
G01*
X176487500Y-92209000D01*
G75*
G02*
X176725000Y-92446500I0J-237500D01*
G01*
X176725000Y-92946500D01*
G75*
G02*
X176487500Y-93184000I-237500J0D01*
G01*
G37*
G36*
G01*
X115836000Y-61104000D02*
X114736000Y-61104000D01*
G75*
G02*
X114486000Y-60854000I0J250000D01*
G01*
X114486000Y-58354000D01*
G75*
G02*
X114736000Y-58104000I250000J0D01*
G01*
X115836000Y-58104000D01*
G75*
G02*
X116086000Y-58354000I0J-250000D01*
G01*
X116086000Y-60854000D01*
G75*
G02*
X115836000Y-61104000I-250000J0D01*
G01*
G37*
G36*
G01*
X115836000Y-65504000D02*
X114736000Y-65504000D01*
G75*
G02*
X114486000Y-65254000I0J250000D01*
G01*
X114486000Y-62754000D01*
G75*
G02*
X114736000Y-62504000I250000J0D01*
G01*
X115836000Y-62504000D01*
G75*
G02*
X116086000Y-62754000I0J-250000D01*
G01*
X116086000Y-65254000D01*
G75*
G02*
X115836000Y-65504000I-250000J0D01*
G01*
G37*
D25*
X104750000Y-75100000D03*
X113050000Y-75100000D03*
D20*
X98950000Y-52000000D03*
D19*
X100600000Y-52000000D03*
X100116726Y-53166726D03*
X98950000Y-53650000D03*
X97783274Y-53166726D03*
X97300000Y-52000000D03*
X97783274Y-50833274D03*
X98950000Y-50350000D03*
X100116726Y-50833274D03*
X100116726Y-93333274D03*
X98950000Y-92850000D03*
X97783274Y-93333274D03*
X97300000Y-94500000D03*
X97783274Y-95666726D03*
X98950000Y-96150000D03*
X100116726Y-95666726D03*
X100600000Y-94500000D03*
D20*
X98950000Y-94500000D03*
X192950000Y-94500000D03*
D19*
X194600000Y-94500000D03*
X194116726Y-95666726D03*
X192950000Y-96150000D03*
X191783274Y-95666726D03*
X191300000Y-94500000D03*
X191783274Y-93333274D03*
X192950000Y-92850000D03*
X194116726Y-93333274D03*
D15*
X171370000Y-53010000D03*
X166290000Y-53010000D03*
D24*
X161210000Y-53010000D03*
G36*
G01*
X98887500Y-77599997D02*
X98887500Y-79800003D01*
G75*
G02*
X98637503Y-80050000I-249997J0D01*
G01*
X97812497Y-80050000D01*
G75*
G02*
X97562500Y-79800003I0J249997D01*
G01*
X97562500Y-77599997D01*
G75*
G02*
X97812497Y-77350000I249997J0D01*
G01*
X98637503Y-77350000D01*
G75*
G02*
X98887500Y-77599997I0J-249997D01*
G01*
G37*
G36*
G01*
X102012500Y-77599997D02*
X102012500Y-79800003D01*
G75*
G02*
X101762503Y-80050000I-249997J0D01*
G01*
X100937497Y-80050000D01*
G75*
G02*
X100687500Y-79800003I0J249997D01*
G01*
X100687500Y-77599997D01*
G75*
G02*
X100937497Y-77350000I249997J0D01*
G01*
X101762503Y-77350000D01*
G75*
G02*
X102012500Y-77599997I0J-249997D01*
G01*
G37*
G36*
G01*
X98862500Y-75862500D02*
X98862500Y-76337500D01*
G75*
G02*
X98625000Y-76575000I-237500J0D01*
G01*
X98025000Y-76575000D01*
G75*
G02*
X97787500Y-76337500I0J237500D01*
G01*
X97787500Y-75862500D01*
G75*
G02*
X98025000Y-75625000I237500J0D01*
G01*
X98625000Y-75625000D01*
G75*
G02*
X98862500Y-75862500I0J-237500D01*
G01*
G37*
G36*
G01*
X100587500Y-75862500D02*
X100587500Y-76337500D01*
G75*
G02*
X100350000Y-76575000I-237500J0D01*
G01*
X99750000Y-76575000D01*
G75*
G02*
X99512500Y-76337500I0J237500D01*
G01*
X99512500Y-75862500D01*
G75*
G02*
X99750000Y-75625000I237500J0D01*
G01*
X100350000Y-75625000D01*
G75*
G02*
X100587500Y-75862500I0J-237500D01*
G01*
G37*
G36*
G01*
X103400000Y-68937500D02*
X103400000Y-68462500D01*
G75*
G02*
X103637500Y-68225000I237500J0D01*
G01*
X104237500Y-68225000D01*
G75*
G02*
X104475000Y-68462500I0J-237500D01*
G01*
X104475000Y-68937500D01*
G75*
G02*
X104237500Y-69175000I-237500J0D01*
G01*
X103637500Y-69175000D01*
G75*
G02*
X103400000Y-68937500I0J237500D01*
G01*
G37*
G36*
G01*
X105125000Y-68937500D02*
X105125000Y-68462500D01*
G75*
G02*
X105362500Y-68225000I237500J0D01*
G01*
X105962500Y-68225000D01*
G75*
G02*
X106200000Y-68462500I0J-237500D01*
G01*
X106200000Y-68937500D01*
G75*
G02*
X105962500Y-69175000I-237500J0D01*
G01*
X105362500Y-69175000D01*
G75*
G02*
X105125000Y-68937500I0J237500D01*
G01*
G37*
G36*
G01*
X110750003Y-85537500D02*
X108549997Y-85537500D01*
G75*
G02*
X108300000Y-85287503I0J249997D01*
G01*
X108300000Y-84462497D01*
G75*
G02*
X108549997Y-84212500I249997J0D01*
G01*
X110750003Y-84212500D01*
G75*
G02*
X111000000Y-84462497I0J-249997D01*
G01*
X111000000Y-85287503D01*
G75*
G02*
X110750003Y-85537500I-249997J0D01*
G01*
G37*
G36*
G01*
X110750003Y-82412500D02*
X108549997Y-82412500D01*
G75*
G02*
X108300000Y-82162503I0J249997D01*
G01*
X108300000Y-81337497D01*
G75*
G02*
X108549997Y-81087500I249997J0D01*
G01*
X110750003Y-81087500D01*
G75*
G02*
X111000000Y-81337497I0J-249997D01*
G01*
X111000000Y-82162503D01*
G75*
G02*
X110750003Y-82412500I-249997J0D01*
G01*
G37*
G36*
G01*
X114150003Y-82412500D02*
X111949997Y-82412500D01*
G75*
G02*
X111700000Y-82162503I0J249997D01*
G01*
X111700000Y-81337497D01*
G75*
G02*
X111949997Y-81087500I249997J0D01*
G01*
X114150003Y-81087500D01*
G75*
G02*
X114400000Y-81337497I0J-249997D01*
G01*
X114400000Y-82162503D01*
G75*
G02*
X114150003Y-82412500I-249997J0D01*
G01*
G37*
G36*
G01*
X114150003Y-85537500D02*
X111949997Y-85537500D01*
G75*
G02*
X111700000Y-85287503I0J249997D01*
G01*
X111700000Y-84462497D01*
G75*
G02*
X111949997Y-84212500I249997J0D01*
G01*
X114150003Y-84212500D01*
G75*
G02*
X114400000Y-84462497I0J-249997D01*
G01*
X114400000Y-85287503D01*
G75*
G02*
X114150003Y-85537500I-249997J0D01*
G01*
G37*
G36*
G01*
X97287500Y-90900000D02*
X96812500Y-90900000D01*
G75*
G02*
X96575000Y-90662500I0J237500D01*
G01*
X96575000Y-90062500D01*
G75*
G02*
X96812500Y-89825000I237500J0D01*
G01*
X97287500Y-89825000D01*
G75*
G02*
X97525000Y-90062500I0J-237500D01*
G01*
X97525000Y-90662500D01*
G75*
G02*
X97287500Y-90900000I-237500J0D01*
G01*
G37*
G36*
G01*
X97287500Y-89175000D02*
X96812500Y-89175000D01*
G75*
G02*
X96575000Y-88937500I0J237500D01*
G01*
X96575000Y-88337500D01*
G75*
G02*
X96812500Y-88100000I237500J0D01*
G01*
X97287500Y-88100000D01*
G75*
G02*
X97525000Y-88337500I0J-237500D01*
G01*
X97525000Y-88937500D01*
G75*
G02*
X97287500Y-89175000I-237500J0D01*
G01*
G37*
G36*
G01*
X122223000Y-65504000D02*
X121123000Y-65504000D01*
G75*
G02*
X120873000Y-65254000I0J250000D01*
G01*
X120873000Y-62754000D01*
G75*
G02*
X121123000Y-62504000I250000J0D01*
G01*
X122223000Y-62504000D01*
G75*
G02*
X122473000Y-62754000I0J-250000D01*
G01*
X122473000Y-65254000D01*
G75*
G02*
X122223000Y-65504000I-250000J0D01*
G01*
G37*
G36*
G01*
X122223000Y-61104000D02*
X121123000Y-61104000D01*
G75*
G02*
X120873000Y-60854000I0J250000D01*
G01*
X120873000Y-58354000D01*
G75*
G02*
X121123000Y-58104000I250000J0D01*
G01*
X122223000Y-58104000D01*
G75*
G02*
X122473000Y-58354000I0J-250000D01*
G01*
X122473000Y-60854000D01*
G75*
G02*
X122223000Y-61104000I-250000J0D01*
G01*
G37*
G36*
G01*
X125950000Y-74237500D02*
X125950000Y-74712500D01*
G75*
G02*
X125712500Y-74950000I-237500J0D01*
G01*
X125112500Y-74950000D01*
G75*
G02*
X124875000Y-74712500I0J237500D01*
G01*
X124875000Y-74237500D01*
G75*
G02*
X125112500Y-74000000I237500J0D01*
G01*
X125712500Y-74000000D01*
G75*
G02*
X125950000Y-74237500I0J-237500D01*
G01*
G37*
G36*
G01*
X124225000Y-74237500D02*
X124225000Y-74712500D01*
G75*
G02*
X123987500Y-74950000I-237500J0D01*
G01*
X123387500Y-74950000D01*
G75*
G02*
X123150000Y-74712500I0J237500D01*
G01*
X123150000Y-74237500D01*
G75*
G02*
X123387500Y-74000000I237500J0D01*
G01*
X123987500Y-74000000D01*
G75*
G02*
X124225000Y-74237500I0J-237500D01*
G01*
G37*
G36*
G01*
X124225000Y-75937500D02*
X124225000Y-76412500D01*
G75*
G02*
X123987500Y-76650000I-237500J0D01*
G01*
X123387500Y-76650000D01*
G75*
G02*
X123150000Y-76412500I0J237500D01*
G01*
X123150000Y-75937500D01*
G75*
G02*
X123387500Y-75700000I237500J0D01*
G01*
X123987500Y-75700000D01*
G75*
G02*
X124225000Y-75937500I0J-237500D01*
G01*
G37*
G36*
G01*
X125950000Y-75937500D02*
X125950000Y-76412500D01*
G75*
G02*
X125712500Y-76650000I-237500J0D01*
G01*
X125112500Y-76650000D01*
G75*
G02*
X124875000Y-76412500I0J237500D01*
G01*
X124875000Y-75937500D01*
G75*
G02*
X125112500Y-75700000I237500J0D01*
G01*
X125712500Y-75700000D01*
G75*
G02*
X125950000Y-75937500I0J-237500D01*
G01*
G37*
D26*
X100950000Y-65100000D03*
X100950000Y-69100000D03*
G36*
G01*
X176487500Y-96740000D02*
X176012500Y-96740000D01*
G75*
G02*
X175775000Y-96502500I0J237500D01*
G01*
X175775000Y-95927500D01*
G75*
G02*
X176012500Y-95690000I237500J0D01*
G01*
X176487500Y-95690000D01*
G75*
G02*
X176725000Y-95927500I0J-237500D01*
G01*
X176725000Y-96502500D01*
G75*
G02*
X176487500Y-96740000I-237500J0D01*
G01*
G37*
G36*
G01*
X176487500Y-94990000D02*
X176012500Y-94990000D01*
G75*
G02*
X175775000Y-94752500I0J237500D01*
G01*
X175775000Y-94177500D01*
G75*
G02*
X176012500Y-93940000I237500J0D01*
G01*
X176487500Y-93940000D01*
G75*
G02*
X176725000Y-94177500I0J-237500D01*
G01*
X176725000Y-94752500D01*
G75*
G02*
X176487500Y-94990000I-237500J0D01*
G01*
G37*
G36*
G01*
X188679500Y-94990000D02*
X188204500Y-94990000D01*
G75*
G02*
X187967000Y-94752500I0J237500D01*
G01*
X187967000Y-94177500D01*
G75*
G02*
X188204500Y-93940000I237500J0D01*
G01*
X188679500Y-93940000D01*
G75*
G02*
X188917000Y-94177500I0J-237500D01*
G01*
X188917000Y-94752500D01*
G75*
G02*
X188679500Y-94990000I-237500J0D01*
G01*
G37*
G36*
G01*
X188679500Y-96740000D02*
X188204500Y-96740000D01*
G75*
G02*
X187967000Y-96502500I0J237500D01*
G01*
X187967000Y-95927500D01*
G75*
G02*
X188204500Y-95690000I237500J0D01*
G01*
X188679500Y-95690000D01*
G75*
G02*
X188917000Y-95927500I0J-237500D01*
G01*
X188917000Y-96502500D01*
G75*
G02*
X188679500Y-96740000I-237500J0D01*
G01*
G37*
D17*
X194064000Y-85434000D03*
X191964000Y-85434000D03*
G36*
G01*
X185631500Y-96740000D02*
X185156500Y-96740000D01*
G75*
G02*
X184919000Y-96502500I0J237500D01*
G01*
X184919000Y-95927500D01*
G75*
G02*
X185156500Y-95690000I237500J0D01*
G01*
X185631500Y-95690000D01*
G75*
G02*
X185869000Y-95927500I0J-237500D01*
G01*
X185869000Y-96502500D01*
G75*
G02*
X185631500Y-96740000I-237500J0D01*
G01*
G37*
G36*
G01*
X185631500Y-94990000D02*
X185156500Y-94990000D01*
G75*
G02*
X184919000Y-94752500I0J237500D01*
G01*
X184919000Y-94177500D01*
G75*
G02*
X185156500Y-93940000I237500J0D01*
G01*
X185631500Y-93940000D01*
G75*
G02*
X185869000Y-94177500I0J-237500D01*
G01*
X185869000Y-94752500D01*
G75*
G02*
X185631500Y-94990000I-237500J0D01*
G01*
G37*
X191964000Y-87974000D03*
X194064000Y-87974000D03*
G36*
G01*
X179535500Y-96740000D02*
X179060500Y-96740000D01*
G75*
G02*
X178823000Y-96502500I0J237500D01*
G01*
X178823000Y-95927500D01*
G75*
G02*
X179060500Y-95690000I237500J0D01*
G01*
X179535500Y-95690000D01*
G75*
G02*
X179773000Y-95927500I0J-237500D01*
G01*
X179773000Y-96502500D01*
G75*
G02*
X179535500Y-96740000I-237500J0D01*
G01*
G37*
G36*
G01*
X179535500Y-94990000D02*
X179060500Y-94990000D01*
G75*
G02*
X178823000Y-94752500I0J237500D01*
G01*
X178823000Y-94177500D01*
G75*
G02*
X179060500Y-93940000I237500J0D01*
G01*
X179535500Y-93940000D01*
G75*
G02*
X179773000Y-94177500I0J-237500D01*
G01*
X179773000Y-94752500D01*
G75*
G02*
X179535500Y-94990000I-237500J0D01*
G01*
G37*
G36*
G01*
X182583500Y-94990000D02*
X182108500Y-94990000D01*
G75*
G02*
X181871000Y-94752500I0J237500D01*
G01*
X181871000Y-94177500D01*
G75*
G02*
X182108500Y-93940000I237500J0D01*
G01*
X182583500Y-93940000D01*
G75*
G02*
X182821000Y-94177500I0J-237500D01*
G01*
X182821000Y-94752500D01*
G75*
G02*
X182583500Y-94990000I-237500J0D01*
G01*
G37*
G36*
G01*
X182583500Y-96740000D02*
X182108500Y-96740000D01*
G75*
G02*
X181871000Y-96502500I0J237500D01*
G01*
X181871000Y-95927500D01*
G75*
G02*
X182108500Y-95690000I237500J0D01*
G01*
X182583500Y-95690000D01*
G75*
G02*
X182821000Y-95927500I0J-237500D01*
G01*
X182821000Y-96502500D01*
G75*
G02*
X182583500Y-96740000I-237500J0D01*
G01*
G37*
D23*
X118450000Y-89200000D03*
D22*
X118450000Y-86660000D03*
X118450000Y-84120000D03*
X118450000Y-81580000D03*
X118450000Y-79040000D03*
X118450000Y-76500000D03*
X158450000Y-91620000D03*
X158450000Y-89080000D03*
X158450000Y-86540000D03*
D23*
X158450000Y-84000000D03*
D29*
X115450000Y-50512500D03*
D30*
X118950000Y-53212500D03*
D31*
X117100000Y-53212500D03*
X117750000Y-53212500D03*
X115150000Y-53212500D03*
X115800000Y-53212500D03*
X116450000Y-53212500D03*
D30*
X113950000Y-53212500D03*
D29*
X117450000Y-50512500D03*
D28*
X119950000Y-50512500D03*
X112950000Y-50512500D03*
D27*
X113550000Y-50512500D03*
X119350000Y-50512500D03*
D23*
X110300000Y-67650000D03*
D22*
X112840000Y-67650000D03*
D24*
X178460000Y-53010000D03*
D15*
X183540000Y-53010000D03*
X188620000Y-53010000D03*
G36*
G01*
X136031000Y-54096000D02*
X136031000Y-55596000D01*
G75*
G02*
X135781000Y-55846000I-250000J0D01*
G01*
X134581000Y-55846000D01*
G75*
G02*
X134331000Y-55596000I0J250000D01*
G01*
X134331000Y-54096000D01*
G75*
G02*
X134581000Y-53846000I250000J0D01*
G01*
X135781000Y-53846000D01*
G75*
G02*
X136031000Y-54096000I0J-250000D01*
G01*
G37*
D18*
X132681000Y-54846000D03*
D16*
X189854000Y-86720000D03*
X188554000Y-86720000D03*
X189204000Y-88720000D03*
X185902000Y-88720000D03*
X185252000Y-86720000D03*
X186552000Y-86720000D03*
D21*
X150376000Y-61940000D03*
X150376000Y-60040000D03*
X148376000Y-60990000D03*
G36*
G01*
X183492000Y-88244500D02*
X183492000Y-88719500D01*
G75*
G02*
X183254500Y-88957000I-237500J0D01*
G01*
X182754500Y-88957000D01*
G75*
G02*
X182517000Y-88719500I0J237500D01*
G01*
X182517000Y-88244500D01*
G75*
G02*
X182754500Y-88007000I237500J0D01*
G01*
X183254500Y-88007000D01*
G75*
G02*
X183492000Y-88244500I0J-237500D01*
G01*
G37*
G36*
G01*
X181667000Y-88244500D02*
X181667000Y-88719500D01*
G75*
G02*
X181429500Y-88957000I-237500J0D01*
G01*
X180929500Y-88957000D01*
G75*
G02*
X180692000Y-88719500I0J237500D01*
G01*
X180692000Y-88244500D01*
G75*
G02*
X180929500Y-88007000I237500J0D01*
G01*
X181429500Y-88007000D01*
G75*
G02*
X181667000Y-88244500I0J-237500D01*
G01*
G37*
G36*
G01*
X188204500Y-90384000D02*
X188679500Y-90384000D01*
G75*
G02*
X188917000Y-90621500I0J-237500D01*
G01*
X188917000Y-91121500D01*
G75*
G02*
X188679500Y-91359000I-237500J0D01*
G01*
X188204500Y-91359000D01*
G75*
G02*
X187967000Y-91121500I0J237500D01*
G01*
X187967000Y-90621500D01*
G75*
G02*
X188204500Y-90384000I237500J0D01*
G01*
G37*
G36*
G01*
X188204500Y-92209000D02*
X188679500Y-92209000D01*
G75*
G02*
X188917000Y-92446500I0J-237500D01*
G01*
X188917000Y-92946500D01*
G75*
G02*
X188679500Y-93184000I-237500J0D01*
G01*
X188204500Y-93184000D01*
G75*
G02*
X187967000Y-92946500I0J237500D01*
G01*
X187967000Y-92446500D01*
G75*
G02*
X188204500Y-92209000I237500J0D01*
G01*
G37*
G36*
G01*
X181667000Y-86466500D02*
X181667000Y-86941500D01*
G75*
G02*
X181429500Y-87179000I-237500J0D01*
G01*
X180929500Y-87179000D01*
G75*
G02*
X180692000Y-86941500I0J237500D01*
G01*
X180692000Y-86466500D01*
G75*
G02*
X180929500Y-86229000I237500J0D01*
G01*
X181429500Y-86229000D01*
G75*
G02*
X181667000Y-86466500I0J-237500D01*
G01*
G37*
G36*
G01*
X183492000Y-86466500D02*
X183492000Y-86941500D01*
G75*
G02*
X183254500Y-87179000I-237500J0D01*
G01*
X182754500Y-87179000D01*
G75*
G02*
X182517000Y-86941500I0J237500D01*
G01*
X182517000Y-86466500D01*
G75*
G02*
X182754500Y-86229000I237500J0D01*
G01*
X183254500Y-86229000D01*
G75*
G02*
X183492000Y-86466500I0J-237500D01*
G01*
G37*
G36*
G01*
X185156500Y-92209000D02*
X185631500Y-92209000D01*
G75*
G02*
X185869000Y-92446500I0J-237500D01*
G01*
X185869000Y-92946500D01*
G75*
G02*
X185631500Y-93184000I-237500J0D01*
G01*
X185156500Y-93184000D01*
G75*
G02*
X184919000Y-92946500I0J237500D01*
G01*
X184919000Y-92446500D01*
G75*
G02*
X185156500Y-92209000I237500J0D01*
G01*
G37*
G36*
G01*
X185156500Y-90384000D02*
X185631500Y-90384000D01*
G75*
G02*
X185869000Y-90621500I0J-237500D01*
G01*
X185869000Y-91121500D01*
G75*
G02*
X185631500Y-91359000I-237500J0D01*
G01*
X185156500Y-91359000D01*
G75*
G02*
X184919000Y-91121500I0J237500D01*
G01*
X184919000Y-90621500D01*
G75*
G02*
X185156500Y-90384000I237500J0D01*
G01*
G37*
G36*
G01*
X138895500Y-60474500D02*
X138420500Y-60474500D01*
G75*
G02*
X138183000Y-60237000I0J237500D01*
G01*
X138183000Y-59737000D01*
G75*
G02*
X138420500Y-59499500I237500J0D01*
G01*
X138895500Y-59499500D01*
G75*
G02*
X139133000Y-59737000I0J-237500D01*
G01*
X139133000Y-60237000D01*
G75*
G02*
X138895500Y-60474500I-237500J0D01*
G01*
G37*
G36*
G01*
X138895500Y-62299500D02*
X138420500Y-62299500D01*
G75*
G02*
X138183000Y-62062000I0J237500D01*
G01*
X138183000Y-61562000D01*
G75*
G02*
X138420500Y-61324500I237500J0D01*
G01*
X138895500Y-61324500D01*
G75*
G02*
X139133000Y-61562000I0J-237500D01*
G01*
X139133000Y-62062000D01*
G75*
G02*
X138895500Y-62299500I-237500J0D01*
G01*
G37*
G36*
G01*
X141943500Y-62299500D02*
X141468500Y-62299500D01*
G75*
G02*
X141231000Y-62062000I0J237500D01*
G01*
X141231000Y-61562000D01*
G75*
G02*
X141468500Y-61324500I237500J0D01*
G01*
X141943500Y-61324500D01*
G75*
G02*
X142181000Y-61562000I0J-237500D01*
G01*
X142181000Y-62062000D01*
G75*
G02*
X141943500Y-62299500I-237500J0D01*
G01*
G37*
G36*
G01*
X141943500Y-60474500D02*
X141468500Y-60474500D01*
G75*
G02*
X141231000Y-60237000I0J237500D01*
G01*
X141231000Y-59737000D01*
G75*
G02*
X141468500Y-59499500I237500J0D01*
G01*
X141943500Y-59499500D01*
G75*
G02*
X142181000Y-59737000I0J-237500D01*
G01*
X142181000Y-60237000D01*
G75*
G02*
X141943500Y-60474500I-237500J0D01*
G01*
G37*
G36*
G01*
X105075500Y-91174000D02*
X104600500Y-91174000D01*
G75*
G02*
X104363000Y-90936500I0J237500D01*
G01*
X104363000Y-90436500D01*
G75*
G02*
X104600500Y-90199000I237500J0D01*
G01*
X105075500Y-90199000D01*
G75*
G02*
X105313000Y-90436500I0J-237500D01*
G01*
X105313000Y-90936500D01*
G75*
G02*
X105075500Y-91174000I-237500J0D01*
G01*
G37*
G36*
G01*
X105075500Y-89349000D02*
X104600500Y-89349000D01*
G75*
G02*
X104363000Y-89111500I0J237500D01*
G01*
X104363000Y-88611500D01*
G75*
G02*
X104600500Y-88374000I237500J0D01*
G01*
X105075500Y-88374000D01*
G75*
G02*
X105313000Y-88611500I0J-237500D01*
G01*
X105313000Y-89111500D01*
G75*
G02*
X105075500Y-89349000I-237500J0D01*
G01*
G37*
G36*
G01*
X103297500Y-89349000D02*
X102822500Y-89349000D01*
G75*
G02*
X102585000Y-89111500I0J237500D01*
G01*
X102585000Y-88611500D01*
G75*
G02*
X102822500Y-88374000I237500J0D01*
G01*
X103297500Y-88374000D01*
G75*
G02*
X103535000Y-88611500I0J-237500D01*
G01*
X103535000Y-89111500D01*
G75*
G02*
X103297500Y-89349000I-237500J0D01*
G01*
G37*
G36*
G01*
X103297500Y-91174000D02*
X102822500Y-91174000D01*
G75*
G02*
X102585000Y-90936500I0J237500D01*
G01*
X102585000Y-90436500D01*
G75*
G02*
X102822500Y-90199000I237500J0D01*
G01*
X103297500Y-90199000D01*
G75*
G02*
X103535000Y-90436500I0J-237500D01*
G01*
X103535000Y-90936500D01*
G75*
G02*
X103297500Y-91174000I-237500J0D01*
G01*
G37*
G36*
G01*
X108156500Y-88374000D02*
X108631500Y-88374000D01*
G75*
G02*
X108869000Y-88611500I0J-237500D01*
G01*
X108869000Y-89111500D01*
G75*
G02*
X108631500Y-89349000I-237500J0D01*
G01*
X108156500Y-89349000D01*
G75*
G02*
X107919000Y-89111500I0J237500D01*
G01*
X107919000Y-88611500D01*
G75*
G02*
X108156500Y-88374000I237500J0D01*
G01*
G37*
G36*
G01*
X108156500Y-90199000D02*
X108631500Y-90199000D01*
G75*
G02*
X108869000Y-90436500I0J-237500D01*
G01*
X108869000Y-90936500D01*
G75*
G02*
X108631500Y-91174000I-237500J0D01*
G01*
X108156500Y-91174000D01*
G75*
G02*
X107919000Y-90936500I0J237500D01*
G01*
X107919000Y-90436500D01*
G75*
G02*
X108156500Y-90199000I237500J0D01*
G01*
G37*
G36*
G01*
X179535500Y-91359000D02*
X179060500Y-91359000D01*
G75*
G02*
X178823000Y-91121500I0J237500D01*
G01*
X178823000Y-90621500D01*
G75*
G02*
X179060500Y-90384000I237500J0D01*
G01*
X179535500Y-90384000D01*
G75*
G02*
X179773000Y-90621500I0J-237500D01*
G01*
X179773000Y-91121500D01*
G75*
G02*
X179535500Y-91359000I-237500J0D01*
G01*
G37*
G36*
G01*
X179535500Y-93184000D02*
X179060500Y-93184000D01*
G75*
G02*
X178823000Y-92946500I0J237500D01*
G01*
X178823000Y-92446500D01*
G75*
G02*
X179060500Y-92209000I237500J0D01*
G01*
X179535500Y-92209000D01*
G75*
G02*
X179773000Y-92446500I0J-237500D01*
G01*
X179773000Y-92946500D01*
G75*
G02*
X179535500Y-93184000I-237500J0D01*
G01*
G37*
G36*
G01*
X106378500Y-90199000D02*
X106853500Y-90199000D01*
G75*
G02*
X107091000Y-90436500I0J-237500D01*
G01*
X107091000Y-90936500D01*
G75*
G02*
X106853500Y-91174000I-237500J0D01*
G01*
X106378500Y-91174000D01*
G75*
G02*
X106141000Y-90936500I0J237500D01*
G01*
X106141000Y-90436500D01*
G75*
G02*
X106378500Y-90199000I237500J0D01*
G01*
G37*
G36*
G01*
X106378500Y-88374000D02*
X106853500Y-88374000D01*
G75*
G02*
X107091000Y-88611500I0J-237500D01*
G01*
X107091000Y-89111500D01*
G75*
G02*
X106853500Y-89349000I-237500J0D01*
G01*
X106378500Y-89349000D01*
G75*
G02*
X106141000Y-89111500I0J237500D01*
G01*
X106141000Y-88611500D01*
G75*
G02*
X106378500Y-88374000I237500J0D01*
G01*
G37*
G36*
G01*
X109934500Y-90199000D02*
X110409500Y-90199000D01*
G75*
G02*
X110647000Y-90436500I0J-237500D01*
G01*
X110647000Y-90936500D01*
G75*
G02*
X110409500Y-91174000I-237500J0D01*
G01*
X109934500Y-91174000D01*
G75*
G02*
X109697000Y-90936500I0J237500D01*
G01*
X109697000Y-90436500D01*
G75*
G02*
X109934500Y-90199000I237500J0D01*
G01*
G37*
G36*
G01*
X109934500Y-88374000D02*
X110409500Y-88374000D01*
G75*
G02*
X110647000Y-88611500I0J-237500D01*
G01*
X110647000Y-89111500D01*
G75*
G02*
X110409500Y-89349000I-237500J0D01*
G01*
X109934500Y-89349000D01*
G75*
G02*
X109697000Y-89111500I0J237500D01*
G01*
X109697000Y-88611500D01*
G75*
G02*
X109934500Y-88374000I237500J0D01*
G01*
G37*
G36*
G01*
X182583500Y-93184000D02*
X182108500Y-93184000D01*
G75*
G02*
X181871000Y-92946500I0J237500D01*
G01*
X181871000Y-92446500D01*
G75*
G02*
X182108500Y-92209000I237500J0D01*
G01*
X182583500Y-92209000D01*
G75*
G02*
X182821000Y-92446500I0J-237500D01*
G01*
X182821000Y-92946500D01*
G75*
G02*
X182583500Y-93184000I-237500J0D01*
G01*
G37*
G36*
G01*
X182583500Y-91359000D02*
X182108500Y-91359000D01*
G75*
G02*
X181871000Y-91121500I0J237500D01*
G01*
X181871000Y-90621500D01*
G75*
G02*
X182108500Y-90384000I237500J0D01*
G01*
X182583500Y-90384000D01*
G75*
G02*
X182821000Y-90621500I0J-237500D01*
G01*
X182821000Y-91121500D01*
G75*
G02*
X182583500Y-91359000I-237500J0D01*
G01*
G37*
G36*
G01*
X135372500Y-59396000D02*
X135847500Y-59396000D01*
G75*
G02*
X136085000Y-59633500I0J-237500D01*
G01*
X136085000Y-60133500D01*
G75*
G02*
X135847500Y-60371000I-237500J0D01*
G01*
X135372500Y-60371000D01*
G75*
G02*
X135135000Y-60133500I0J237500D01*
G01*
X135135000Y-59633500D01*
G75*
G02*
X135372500Y-59396000I237500J0D01*
G01*
G37*
G36*
G01*
X135372500Y-61221000D02*
X135847500Y-61221000D01*
G75*
G02*
X136085000Y-61458500I0J-237500D01*
G01*
X136085000Y-61958500D01*
G75*
G02*
X135847500Y-62196000I-237500J0D01*
G01*
X135372500Y-62196000D01*
G75*
G02*
X135135000Y-61958500I0J237500D01*
G01*
X135135000Y-61458500D01*
G75*
G02*
X135372500Y-61221000I237500J0D01*
G01*
G37*
G36*
G01*
X132324500Y-59396000D02*
X132799500Y-59396000D01*
G75*
G02*
X133037000Y-59633500I0J-237500D01*
G01*
X133037000Y-60133500D01*
G75*
G02*
X132799500Y-60371000I-237500J0D01*
G01*
X132324500Y-60371000D01*
G75*
G02*
X132087000Y-60133500I0J237500D01*
G01*
X132087000Y-59633500D01*
G75*
G02*
X132324500Y-59396000I237500J0D01*
G01*
G37*
G36*
G01*
X132324500Y-61221000D02*
X132799500Y-61221000D01*
G75*
G02*
X133037000Y-61458500I0J-237500D01*
G01*
X133037000Y-61958500D01*
G75*
G02*
X132799500Y-62196000I-237500J0D01*
G01*
X132324500Y-62196000D01*
G75*
G02*
X132087000Y-61958500I0J237500D01*
G01*
X132087000Y-61458500D01*
G75*
G02*
X132324500Y-61221000I237500J0D01*
G01*
G37*
G36*
G01*
X129276500Y-61221000D02*
X129751500Y-61221000D01*
G75*
G02*
X129989000Y-61458500I0J-237500D01*
G01*
X129989000Y-61958500D01*
G75*
G02*
X129751500Y-62196000I-237500J0D01*
G01*
X129276500Y-62196000D01*
G75*
G02*
X129039000Y-61958500I0J237500D01*
G01*
X129039000Y-61458500D01*
G75*
G02*
X129276500Y-61221000I237500J0D01*
G01*
G37*
G36*
G01*
X129276500Y-59396000D02*
X129751500Y-59396000D01*
G75*
G02*
X129989000Y-59633500I0J-237500D01*
G01*
X129989000Y-60133500D01*
G75*
G02*
X129751500Y-60371000I-237500J0D01*
G01*
X129276500Y-60371000D01*
G75*
G02*
X129039000Y-60133500I0J237500D01*
G01*
X129039000Y-59633500D01*
G75*
G02*
X129276500Y-59396000I237500J0D01*
G01*
G37*
G36*
G01*
X152407500Y-62390000D02*
X151932500Y-62390000D01*
G75*
G02*
X151695000Y-62152500I0J237500D01*
G01*
X151695000Y-61652500D01*
G75*
G02*
X151932500Y-61415000I237500J0D01*
G01*
X152407500Y-61415000D01*
G75*
G02*
X152645000Y-61652500I0J-237500D01*
G01*
X152645000Y-62152500D01*
G75*
G02*
X152407500Y-62390000I-237500J0D01*
G01*
G37*
G36*
G01*
X152407500Y-60565000D02*
X151932500Y-60565000D01*
G75*
G02*
X151695000Y-60327500I0J237500D01*
G01*
X151695000Y-59827500D01*
G75*
G02*
X151932500Y-59590000I237500J0D01*
G01*
X152407500Y-59590000D01*
G75*
G02*
X152645000Y-59827500I0J-237500D01*
G01*
X152645000Y-60327500D01*
G75*
G02*
X152407500Y-60565000I-237500J0D01*
G01*
G37*
G36*
G01*
X146819500Y-60565000D02*
X146344500Y-60565000D01*
G75*
G02*
X146107000Y-60327500I0J237500D01*
G01*
X146107000Y-59827500D01*
G75*
G02*
X146344500Y-59590000I237500J0D01*
G01*
X146819500Y-59590000D01*
G75*
G02*
X147057000Y-59827500I0J-237500D01*
G01*
X147057000Y-60327500D01*
G75*
G02*
X146819500Y-60565000I-237500J0D01*
G01*
G37*
G36*
G01*
X146819500Y-62390000D02*
X146344500Y-62390000D01*
G75*
G02*
X146107000Y-62152500I0J237500D01*
G01*
X146107000Y-61652500D01*
G75*
G02*
X146344500Y-61415000I237500J0D01*
G01*
X146819500Y-61415000D01*
G75*
G02*
X147057000Y-61652500I0J-237500D01*
G01*
X147057000Y-62152500D01*
G75*
G02*
X146819500Y-62390000I-237500J0D01*
G01*
G37*
D34*
X111750000Y-94000000D03*
X117150000Y-94000000D03*
X108650000Y-94000000D03*
X103250000Y-94000000D03*
D13*
X126720000Y-60796000D03*
X100950000Y-74000000D03*
X126700000Y-69178000D03*
X126720000Y-64860000D03*
X176725000Y-87625000D03*
X176700000Y-85025000D03*
X129768000Y-64860000D03*
D12*
X123774000Y-69686000D03*
D11*
X117474000Y-69686000D03*
X117474000Y-71986000D03*
X117474000Y-67386000D03*
D10*
X104200000Y-81700000D03*
X103250000Y-81700000D03*
X102300000Y-81700000D03*
X102300000Y-83900000D03*
X104200000Y-83900000D03*
X103250000Y-83900000D03*
M02*
