G04 #@! TF.GenerationSoftware,KiCad,Pcbnew,5.1.9-73d0e3b20d~88~ubuntu18.04.1*
G04 #@! TF.CreationDate,2021-03-27T22:47:01+02:00*
G04 #@! TF.ProjectId,,58585858-5858-4585-9858-585858585858,1*
G04 #@! TF.SameCoordinates,Original*
G04 #@! TF.FileFunction,Legend,Bot*
G04 #@! TF.FilePolarity,Positive*
%FSLAX46Y46*%
G04 Gerber Fmt 4.6, Leading zero omitted, Abs format (unit mm)*
G04 Created by KiCad (PCBNEW 5.1.9-73d0e3b20d~88~ubuntu18.04.1) date 2021-03-27 22:47:01*
%MOMM*%
%LPD*%
G01*
G04 APERTURE LIST*
%ADD10C,0.150000*%
%ADD11C,0.300000*%
%ADD12C,0.250000*%
%ADD13C,0.120000*%
%ADD14C,0.010000*%
G04 APERTURE END LIST*
D10*
X108625000Y-106086904D02*
X108577380Y-106182142D01*
X108577380Y-106325000D01*
X108625000Y-106467857D01*
X108720238Y-106563095D01*
X108815476Y-106610714D01*
X109005952Y-106658333D01*
X109148809Y-106658333D01*
X109339285Y-106610714D01*
X109434523Y-106563095D01*
X109529761Y-106467857D01*
X109577380Y-106325000D01*
X109577380Y-106229761D01*
X109529761Y-106086904D01*
X109482142Y-106039285D01*
X109148809Y-106039285D01*
X109148809Y-106229761D01*
X109577380Y-105610714D02*
X108577380Y-105610714D01*
X109577380Y-105039285D01*
X108577380Y-105039285D01*
X109577380Y-104563095D02*
X108577380Y-104563095D01*
X108577380Y-104325000D01*
X108625000Y-104182142D01*
X108720238Y-104086904D01*
X108815476Y-104039285D01*
X109005952Y-103991666D01*
X109148809Y-103991666D01*
X109339285Y-104039285D01*
X109434523Y-104086904D01*
X109529761Y-104182142D01*
X109577380Y-104325000D01*
X109577380Y-104563095D01*
X108577380Y-112120238D02*
X109577380Y-111786904D01*
X108577380Y-111453571D01*
X109577380Y-111120238D02*
X108577380Y-111120238D01*
X109577380Y-110644047D02*
X108577380Y-110644047D01*
X109577380Y-110072619D01*
X108577380Y-110072619D01*
D11*
X116175000Y-146678571D02*
X116032142Y-146678571D01*
X115889285Y-146750000D01*
X115817857Y-146821428D01*
X115746428Y-146964285D01*
X115675000Y-147250000D01*
X115675000Y-147607142D01*
X115746428Y-147892857D01*
X115817857Y-148035714D01*
X115889285Y-148107142D01*
X116032142Y-148178571D01*
X116175000Y-148178571D01*
X116317857Y-148107142D01*
X116389285Y-148035714D01*
X116460714Y-147892857D01*
X116532142Y-147607142D01*
X116532142Y-147250000D01*
X116460714Y-146964285D01*
X116389285Y-146821428D01*
X116317857Y-146750000D01*
X116175000Y-146678571D01*
X114389285Y-146678571D02*
X114675000Y-146678571D01*
X114817857Y-146750000D01*
X114889285Y-146821428D01*
X115032142Y-147035714D01*
X115103571Y-147321428D01*
X115103571Y-147892857D01*
X115032142Y-148035714D01*
X114960714Y-148107142D01*
X114817857Y-148178571D01*
X114532142Y-148178571D01*
X114389285Y-148107142D01*
X114317857Y-148035714D01*
X114246428Y-147892857D01*
X114246428Y-147535714D01*
X114317857Y-147392857D01*
X114389285Y-147321428D01*
X114532142Y-147250000D01*
X114817857Y-147250000D01*
X114960714Y-147321428D01*
X115032142Y-147392857D01*
X115103571Y-147535714D01*
X113317857Y-146678571D02*
X113175000Y-146678571D01*
X113032142Y-146750000D01*
X112960714Y-146821428D01*
X112889285Y-146964285D01*
X112817857Y-147250000D01*
X112817857Y-147607142D01*
X112889285Y-147892857D01*
X112960714Y-148035714D01*
X113032142Y-148107142D01*
X113175000Y-148178571D01*
X113317857Y-148178571D01*
X113460714Y-148107142D01*
X113532142Y-148035714D01*
X113603571Y-147892857D01*
X113675000Y-147607142D01*
X113675000Y-147250000D01*
X113603571Y-146964285D01*
X113532142Y-146821428D01*
X113460714Y-146750000D01*
X113317857Y-146678571D01*
X112317857Y-146678571D02*
X111389285Y-146678571D01*
X111889285Y-147250000D01*
X111675000Y-147250000D01*
X111532142Y-147321428D01*
X111460714Y-147392857D01*
X111389285Y-147535714D01*
X111389285Y-147892857D01*
X111460714Y-148035714D01*
X111532142Y-148107142D01*
X111675000Y-148178571D01*
X112103571Y-148178571D01*
X112246428Y-148107142D01*
X112317857Y-148035714D01*
X110746428Y-147607142D02*
X109603571Y-147607142D01*
X108103571Y-148178571D02*
X108960714Y-148178571D01*
X108532142Y-148178571D02*
X108532142Y-146678571D01*
X108675000Y-146892857D01*
X108817857Y-147035714D01*
X108960714Y-147107142D01*
X107532142Y-146821428D02*
X107460714Y-146750000D01*
X107317857Y-146678571D01*
X106960714Y-146678571D01*
X106817857Y-146750000D01*
X106746428Y-146821428D01*
X106675000Y-146964285D01*
X106675000Y-147107142D01*
X106746428Y-147321428D01*
X107603571Y-148178571D01*
X106675000Y-148178571D01*
X105246428Y-148178571D02*
X106103571Y-148178571D01*
X105675000Y-148178571D02*
X105675000Y-146678571D01*
X105817857Y-146892857D01*
X105960714Y-147035714D01*
X106103571Y-147107142D01*
X104317857Y-146678571D02*
X104175000Y-146678571D01*
X104032142Y-146750000D01*
X103960714Y-146821428D01*
X103889285Y-146964285D01*
X103817857Y-147250000D01*
X103817857Y-147607142D01*
X103889285Y-147892857D01*
X103960714Y-148035714D01*
X104032142Y-148107142D01*
X104175000Y-148178571D01*
X104317857Y-148178571D01*
X104460714Y-148107142D01*
X104532142Y-148035714D01*
X104603571Y-147892857D01*
X104675000Y-147607142D01*
X104675000Y-147250000D01*
X104603571Y-146964285D01*
X104532142Y-146821428D01*
X104460714Y-146750000D01*
X104317857Y-146678571D01*
D12*
X177997619Y-121057142D02*
X178045238Y-121104761D01*
X178188095Y-121152380D01*
X178283333Y-121152380D01*
X178426190Y-121104761D01*
X178521428Y-121009523D01*
X178569047Y-120914285D01*
X178616666Y-120723809D01*
X178616666Y-120580952D01*
X178569047Y-120390476D01*
X178521428Y-120295238D01*
X178426190Y-120200000D01*
X178283333Y-120152380D01*
X178188095Y-120152380D01*
X178045238Y-120200000D01*
X177997619Y-120247619D01*
X177616666Y-120866666D02*
X177140476Y-120866666D01*
X177711904Y-121152380D02*
X177378571Y-120152380D01*
X177045238Y-121152380D01*
X176711904Y-120152380D02*
X176711904Y-120961904D01*
X176664285Y-121057142D01*
X176616666Y-121104761D01*
X176521428Y-121152380D01*
X176330952Y-121152380D01*
X176235714Y-121104761D01*
X176188095Y-121057142D01*
X176140476Y-120961904D01*
X176140476Y-120152380D01*
X175807142Y-120152380D02*
X175235714Y-120152380D01*
X175521428Y-121152380D02*
X175521428Y-120152380D01*
X174902380Y-121152380D02*
X174902380Y-120152380D01*
X174235714Y-120152380D02*
X174045238Y-120152380D01*
X173950000Y-120200000D01*
X173854761Y-120295238D01*
X173807142Y-120485714D01*
X173807142Y-120819047D01*
X173854761Y-121009523D01*
X173950000Y-121104761D01*
X174045238Y-121152380D01*
X174235714Y-121152380D01*
X174330952Y-121104761D01*
X174426190Y-121009523D01*
X174473809Y-120819047D01*
X174473809Y-120485714D01*
X174426190Y-120295238D01*
X174330952Y-120200000D01*
X174235714Y-120152380D01*
X173378571Y-121152380D02*
X173378571Y-120152380D01*
X172807142Y-121152380D01*
X172807142Y-120152380D01*
X172330952Y-121057142D02*
X172283333Y-121104761D01*
X172330952Y-121152380D01*
X172378571Y-121104761D01*
X172330952Y-121057142D01*
X172330952Y-121152380D01*
X172330952Y-120771428D02*
X172378571Y-120200000D01*
X172330952Y-120152380D01*
X172283333Y-120200000D01*
X172330952Y-120771428D01*
X172330952Y-120152380D01*
X179330952Y-122616666D02*
X178854761Y-122616666D01*
X179426190Y-122902380D02*
X179092857Y-121902380D01*
X178759523Y-122902380D01*
X177854761Y-122807142D02*
X177902380Y-122854761D01*
X178045238Y-122902380D01*
X178140476Y-122902380D01*
X178283333Y-122854761D01*
X178378571Y-122759523D01*
X178426190Y-122664285D01*
X178473809Y-122473809D01*
X178473809Y-122330952D01*
X178426190Y-122140476D01*
X178378571Y-122045238D01*
X178283333Y-121950000D01*
X178140476Y-121902380D01*
X178045238Y-121902380D01*
X177902380Y-121950000D01*
X177854761Y-121997619D01*
X176807142Y-121902380D02*
X176473809Y-122902380D01*
X176140476Y-121902380D01*
X175664285Y-122902380D02*
X175759523Y-122854761D01*
X175807142Y-122807142D01*
X175854761Y-122711904D01*
X175854761Y-122426190D01*
X175807142Y-122330952D01*
X175759523Y-122283333D01*
X175664285Y-122235714D01*
X175521428Y-122235714D01*
X175426190Y-122283333D01*
X175378571Y-122330952D01*
X175330952Y-122426190D01*
X175330952Y-122711904D01*
X175378571Y-122807142D01*
X175426190Y-122854761D01*
X175521428Y-122902380D01*
X175664285Y-122902380D01*
X174759523Y-122902380D02*
X174854761Y-122854761D01*
X174902380Y-122759523D01*
X174902380Y-121902380D01*
X174521428Y-122235714D02*
X174140476Y-122235714D01*
X174378571Y-121902380D02*
X174378571Y-122759523D01*
X174330952Y-122854761D01*
X174235714Y-122902380D01*
X174140476Y-122902380D01*
X173378571Y-122902380D02*
X173378571Y-122378571D01*
X173426190Y-122283333D01*
X173521428Y-122235714D01*
X173711904Y-122235714D01*
X173807142Y-122283333D01*
X173378571Y-122854761D02*
X173473809Y-122902380D01*
X173711904Y-122902380D01*
X173807142Y-122854761D01*
X173854761Y-122759523D01*
X173854761Y-122664285D01*
X173807142Y-122569047D01*
X173711904Y-122521428D01*
X173473809Y-122521428D01*
X173378571Y-122473809D01*
X172473809Y-122235714D02*
X172473809Y-123045238D01*
X172521428Y-123140476D01*
X172569047Y-123188095D01*
X172664285Y-123235714D01*
X172807142Y-123235714D01*
X172902380Y-123188095D01*
X172473809Y-122854761D02*
X172569047Y-122902380D01*
X172759523Y-122902380D01*
X172854761Y-122854761D01*
X172902380Y-122807142D01*
X172950000Y-122711904D01*
X172950000Y-122426190D01*
X172902380Y-122330952D01*
X172854761Y-122283333D01*
X172759523Y-122235714D01*
X172569047Y-122235714D01*
X172473809Y-122283333D01*
X171616666Y-122854761D02*
X171711904Y-122902380D01*
X171902380Y-122902380D01*
X171997619Y-122854761D01*
X172045238Y-122759523D01*
X172045238Y-122378571D01*
X171997619Y-122283333D01*
X171902380Y-122235714D01*
X171711904Y-122235714D01*
X171616666Y-122283333D01*
X171569047Y-122378571D01*
X171569047Y-122473809D01*
X172045238Y-122569047D01*
D10*
X147317857Y-102182142D02*
X147317857Y-101282142D01*
X147017857Y-101582142D02*
X146675000Y-101582142D01*
X146889285Y-102182142D02*
X146889285Y-101410714D01*
X146846428Y-101325000D01*
X146760714Y-101282142D01*
X146675000Y-101282142D01*
X145775000Y-101582142D02*
X145560714Y-102182142D01*
X145346428Y-101582142D02*
X145560714Y-102182142D01*
X145646428Y-102396428D01*
X145689285Y-102439285D01*
X145775000Y-102482142D01*
X144875000Y-102182142D02*
X144960714Y-102139285D01*
X145003571Y-102096428D01*
X145046428Y-102010714D01*
X145046428Y-101753571D01*
X145003571Y-101667857D01*
X144960714Y-101625000D01*
X144875000Y-101582142D01*
X144746428Y-101582142D01*
X144660714Y-101625000D01*
X144617857Y-101667857D01*
X144575000Y-101753571D01*
X144575000Y-102010714D01*
X144617857Y-102096428D01*
X144660714Y-102139285D01*
X144746428Y-102182142D01*
X144875000Y-102182142D01*
X143803571Y-101582142D02*
X143803571Y-102182142D01*
X144189285Y-101582142D02*
X144189285Y-102053571D01*
X144146428Y-102139285D01*
X144060714Y-102182142D01*
X143932142Y-102182142D01*
X143846428Y-102139285D01*
X143803571Y-102096428D01*
X142303571Y-102182142D02*
X142303571Y-101710714D01*
X142346428Y-101625000D01*
X142432142Y-101582142D01*
X142603571Y-101582142D01*
X142689285Y-101625000D01*
X142303571Y-102139285D02*
X142389285Y-102182142D01*
X142603571Y-102182142D01*
X142689285Y-102139285D01*
X142732142Y-102053571D01*
X142732142Y-101967857D01*
X142689285Y-101882142D01*
X142603571Y-101839285D01*
X142389285Y-101839285D01*
X142303571Y-101796428D01*
X141875000Y-102182142D02*
X141875000Y-101582142D01*
X141875000Y-101753571D02*
X141832142Y-101667857D01*
X141789285Y-101625000D01*
X141703571Y-101582142D01*
X141617857Y-101582142D01*
X140975000Y-102139285D02*
X141060714Y-102182142D01*
X141232142Y-102182142D01*
X141317857Y-102139285D01*
X141360714Y-102053571D01*
X141360714Y-101710714D01*
X141317857Y-101625000D01*
X141232142Y-101582142D01*
X141060714Y-101582142D01*
X140975000Y-101625000D01*
X140932142Y-101710714D01*
X140932142Y-101796428D01*
X141360714Y-101882142D01*
X139860714Y-102182142D02*
X139860714Y-101582142D01*
X139860714Y-101753571D02*
X139817857Y-101667857D01*
X139775000Y-101625000D01*
X139689285Y-101582142D01*
X139603571Y-101582142D01*
X138960714Y-102139285D02*
X139046428Y-102182142D01*
X139217857Y-102182142D01*
X139303571Y-102139285D01*
X139346428Y-102053571D01*
X139346428Y-101710714D01*
X139303571Y-101625000D01*
X139217857Y-101582142D01*
X139046428Y-101582142D01*
X138960714Y-101625000D01*
X138917857Y-101710714D01*
X138917857Y-101796428D01*
X139346428Y-101882142D01*
X138146428Y-102182142D02*
X138146428Y-101710714D01*
X138189285Y-101625000D01*
X138275000Y-101582142D01*
X138446428Y-101582142D01*
X138532142Y-101625000D01*
X138146428Y-102139285D02*
X138232142Y-102182142D01*
X138446428Y-102182142D01*
X138532142Y-102139285D01*
X138575000Y-102053571D01*
X138575000Y-101967857D01*
X138532142Y-101882142D01*
X138446428Y-101839285D01*
X138232142Y-101839285D01*
X138146428Y-101796428D01*
X137332142Y-102182142D02*
X137332142Y-101282142D01*
X137332142Y-102139285D02*
X137417857Y-102182142D01*
X137589285Y-102182142D01*
X137675000Y-102139285D01*
X137717857Y-102096428D01*
X137760714Y-102010714D01*
X137760714Y-101753571D01*
X137717857Y-101667857D01*
X137675000Y-101625000D01*
X137589285Y-101582142D01*
X137417857Y-101582142D01*
X137332142Y-101625000D01*
X136903571Y-102182142D02*
X136903571Y-101582142D01*
X136903571Y-101282142D02*
X136946428Y-101325000D01*
X136903571Y-101367857D01*
X136860714Y-101325000D01*
X136903571Y-101282142D01*
X136903571Y-101367857D01*
X136475000Y-101582142D02*
X136475000Y-102182142D01*
X136475000Y-101667857D02*
X136432142Y-101625000D01*
X136346428Y-101582142D01*
X136217857Y-101582142D01*
X136132142Y-101625000D01*
X136089285Y-101710714D01*
X136089285Y-102182142D01*
X135275000Y-101582142D02*
X135275000Y-102310714D01*
X135317857Y-102396428D01*
X135360714Y-102439285D01*
X135446428Y-102482142D01*
X135575000Y-102482142D01*
X135660714Y-102439285D01*
X135275000Y-102139285D02*
X135360714Y-102182142D01*
X135532142Y-102182142D01*
X135617857Y-102139285D01*
X135660714Y-102096428D01*
X135703571Y-102010714D01*
X135703571Y-101753571D01*
X135660714Y-101667857D01*
X135617857Y-101625000D01*
X135532142Y-101582142D01*
X135360714Y-101582142D01*
X135275000Y-101625000D01*
X134289285Y-101582142D02*
X133946428Y-101582142D01*
X134160714Y-101282142D02*
X134160714Y-102053571D01*
X134117857Y-102139285D01*
X134032142Y-102182142D01*
X133946428Y-102182142D01*
X133646428Y-102182142D02*
X133646428Y-101282142D01*
X133260714Y-102182142D02*
X133260714Y-101710714D01*
X133303571Y-101625000D01*
X133389285Y-101582142D01*
X133517857Y-101582142D01*
X133603571Y-101625000D01*
X133646428Y-101667857D01*
X132832142Y-102182142D02*
X132832142Y-101582142D01*
X132832142Y-101282142D02*
X132875000Y-101325000D01*
X132832142Y-101367857D01*
X132789285Y-101325000D01*
X132832142Y-101282142D01*
X132832142Y-101367857D01*
X132446428Y-102139285D02*
X132360714Y-102182142D01*
X132189285Y-102182142D01*
X132103571Y-102139285D01*
X132060714Y-102053571D01*
X132060714Y-102010714D01*
X132103571Y-101925000D01*
X132189285Y-101882142D01*
X132317857Y-101882142D01*
X132403571Y-101839285D01*
X132446428Y-101753571D01*
X132446428Y-101710714D01*
X132403571Y-101625000D01*
X132317857Y-101582142D01*
X132189285Y-101582142D01*
X132103571Y-101625000D01*
X131632142Y-102139285D02*
X131632142Y-102182142D01*
X131675000Y-102267857D01*
X131717857Y-102310714D01*
X150060714Y-103682142D02*
X150060714Y-102782142D01*
X148946428Y-103682142D02*
X148946428Y-102782142D01*
X148560714Y-103682142D02*
X148560714Y-103210714D01*
X148603571Y-103125000D01*
X148689285Y-103082142D01*
X148817857Y-103082142D01*
X148903571Y-103125000D01*
X148946428Y-103167857D01*
X148003571Y-103682142D02*
X148089285Y-103639285D01*
X148132142Y-103596428D01*
X148175000Y-103510714D01*
X148175000Y-103253571D01*
X148132142Y-103167857D01*
X148089285Y-103125000D01*
X148003571Y-103082142D01*
X147875000Y-103082142D01*
X147789285Y-103125000D01*
X147746428Y-103167857D01*
X147703571Y-103253571D01*
X147703571Y-103510714D01*
X147746428Y-103596428D01*
X147789285Y-103639285D01*
X147875000Y-103682142D01*
X148003571Y-103682142D01*
X147317857Y-103082142D02*
X147317857Y-103982142D01*
X147317857Y-103125000D02*
X147232142Y-103082142D01*
X147060714Y-103082142D01*
X146975000Y-103125000D01*
X146932142Y-103167857D01*
X146889285Y-103253571D01*
X146889285Y-103510714D01*
X146932142Y-103596428D01*
X146975000Y-103639285D01*
X147060714Y-103682142D01*
X147232142Y-103682142D01*
X147317857Y-103639285D01*
X146160714Y-103639285D02*
X146246428Y-103682142D01*
X146417857Y-103682142D01*
X146503571Y-103639285D01*
X146546428Y-103553571D01*
X146546428Y-103210714D01*
X146503571Y-103125000D01*
X146417857Y-103082142D01*
X146246428Y-103082142D01*
X146160714Y-103125000D01*
X146117857Y-103210714D01*
X146117857Y-103296428D01*
X146546428Y-103382142D01*
X145132142Y-103082142D02*
X144917857Y-103682142D01*
X144703571Y-103082142D02*
X144917857Y-103682142D01*
X145003571Y-103896428D01*
X145046428Y-103939285D01*
X145132142Y-103982142D01*
X144232142Y-103682142D02*
X144317857Y-103639285D01*
X144360714Y-103596428D01*
X144403571Y-103510714D01*
X144403571Y-103253571D01*
X144360714Y-103167857D01*
X144317857Y-103125000D01*
X144232142Y-103082142D01*
X144103571Y-103082142D01*
X144017857Y-103125000D01*
X143975000Y-103167857D01*
X143932142Y-103253571D01*
X143932142Y-103510714D01*
X143975000Y-103596428D01*
X144017857Y-103639285D01*
X144103571Y-103682142D01*
X144232142Y-103682142D01*
X143160714Y-103082142D02*
X143160714Y-103682142D01*
X143546428Y-103082142D02*
X143546428Y-103553571D01*
X143503571Y-103639285D01*
X143417857Y-103682142D01*
X143289285Y-103682142D01*
X143203571Y-103639285D01*
X143160714Y-103596428D01*
X142046428Y-103682142D02*
X142046428Y-102782142D01*
X141660714Y-103682142D02*
X141660714Y-103210714D01*
X141703571Y-103125000D01*
X141789285Y-103082142D01*
X141917857Y-103082142D01*
X142003571Y-103125000D01*
X142046428Y-103167857D01*
X140846428Y-103682142D02*
X140846428Y-103210714D01*
X140889285Y-103125000D01*
X140975000Y-103082142D01*
X141146428Y-103082142D01*
X141232142Y-103125000D01*
X140846428Y-103639285D02*
X140932142Y-103682142D01*
X141146428Y-103682142D01*
X141232142Y-103639285D01*
X141275000Y-103553571D01*
X141275000Y-103467857D01*
X141232142Y-103382142D01*
X141146428Y-103339285D01*
X140932142Y-103339285D01*
X140846428Y-103296428D01*
X140503571Y-103082142D02*
X140289285Y-103682142D01*
X140075000Y-103082142D01*
X139389285Y-103639285D02*
X139475000Y-103682142D01*
X139646428Y-103682142D01*
X139732142Y-103639285D01*
X139775000Y-103553571D01*
X139775000Y-103210714D01*
X139732142Y-103125000D01*
X139646428Y-103082142D01*
X139475000Y-103082142D01*
X139389285Y-103125000D01*
X139346428Y-103210714D01*
X139346428Y-103296428D01*
X139775000Y-103382142D01*
X137889285Y-103682142D02*
X137889285Y-103210714D01*
X137932142Y-103125000D01*
X138017857Y-103082142D01*
X138189285Y-103082142D01*
X138275000Y-103125000D01*
X137889285Y-103639285D02*
X137975000Y-103682142D01*
X138189285Y-103682142D01*
X138275000Y-103639285D01*
X138317857Y-103553571D01*
X138317857Y-103467857D01*
X138275000Y-103382142D01*
X138189285Y-103339285D01*
X137975000Y-103339285D01*
X137889285Y-103296428D01*
X136775000Y-103082142D02*
X136775000Y-103682142D01*
X136775000Y-103167857D02*
X136732142Y-103125000D01*
X136646428Y-103082142D01*
X136517857Y-103082142D01*
X136432142Y-103125000D01*
X136389285Y-103210714D01*
X136389285Y-103682142D01*
X135960714Y-103682142D02*
X135960714Y-103082142D01*
X135960714Y-102782142D02*
X136003571Y-102825000D01*
X135960714Y-102867857D01*
X135917857Y-102825000D01*
X135960714Y-102782142D01*
X135960714Y-102867857D01*
X135146428Y-103639285D02*
X135232142Y-103682142D01*
X135403571Y-103682142D01*
X135489285Y-103639285D01*
X135532142Y-103596428D01*
X135575000Y-103510714D01*
X135575000Y-103253571D01*
X135532142Y-103167857D01*
X135489285Y-103125000D01*
X135403571Y-103082142D01*
X135232142Y-103082142D01*
X135146428Y-103125000D01*
X134417857Y-103639285D02*
X134503571Y-103682142D01*
X134675000Y-103682142D01*
X134760714Y-103639285D01*
X134803571Y-103553571D01*
X134803571Y-103210714D01*
X134760714Y-103125000D01*
X134675000Y-103082142D01*
X134503571Y-103082142D01*
X134417857Y-103125000D01*
X134375000Y-103210714D01*
X134375000Y-103296428D01*
X134803571Y-103382142D01*
X132917857Y-103682142D02*
X132917857Y-102782142D01*
X132917857Y-103639285D02*
X133003571Y-103682142D01*
X133175000Y-103682142D01*
X133260714Y-103639285D01*
X133303571Y-103596428D01*
X133346428Y-103510714D01*
X133346428Y-103253571D01*
X133303571Y-103167857D01*
X133260714Y-103125000D01*
X133175000Y-103082142D01*
X133003571Y-103082142D01*
X132917857Y-103125000D01*
X132103571Y-103682142D02*
X132103571Y-103210714D01*
X132146428Y-103125000D01*
X132232142Y-103082142D01*
X132403571Y-103082142D01*
X132489285Y-103125000D01*
X132103571Y-103639285D02*
X132189285Y-103682142D01*
X132403571Y-103682142D01*
X132489285Y-103639285D01*
X132532142Y-103553571D01*
X132532142Y-103467857D01*
X132489285Y-103382142D01*
X132403571Y-103339285D01*
X132189285Y-103339285D01*
X132103571Y-103296428D01*
X131760714Y-103082142D02*
X131546428Y-103682142D01*
X131332142Y-103082142D02*
X131546428Y-103682142D01*
X131632142Y-103896428D01*
X131675000Y-103939285D01*
X131760714Y-103982142D01*
X130989285Y-103596428D02*
X130946428Y-103639285D01*
X130989285Y-103682142D01*
X131032142Y-103639285D01*
X130989285Y-103596428D01*
X130989285Y-103682142D01*
X130989285Y-103339285D02*
X131032142Y-102825000D01*
X130989285Y-102782142D01*
X130946428Y-102825000D01*
X130989285Y-103339285D01*
X130989285Y-102782142D01*
X147317857Y-50682142D02*
X147317857Y-49782142D01*
X147017857Y-50082142D02*
X146675000Y-50082142D01*
X146889285Y-50682142D02*
X146889285Y-49910714D01*
X146846428Y-49825000D01*
X146760714Y-49782142D01*
X146675000Y-49782142D01*
X145775000Y-50082142D02*
X145560714Y-50682142D01*
X145346428Y-50082142D02*
X145560714Y-50682142D01*
X145646428Y-50896428D01*
X145689285Y-50939285D01*
X145775000Y-50982142D01*
X144875000Y-50682142D02*
X144960714Y-50639285D01*
X145003571Y-50596428D01*
X145046428Y-50510714D01*
X145046428Y-50253571D01*
X145003571Y-50167857D01*
X144960714Y-50125000D01*
X144875000Y-50082142D01*
X144746428Y-50082142D01*
X144660714Y-50125000D01*
X144617857Y-50167857D01*
X144575000Y-50253571D01*
X144575000Y-50510714D01*
X144617857Y-50596428D01*
X144660714Y-50639285D01*
X144746428Y-50682142D01*
X144875000Y-50682142D01*
X143803571Y-50082142D02*
X143803571Y-50682142D01*
X144189285Y-50082142D02*
X144189285Y-50553571D01*
X144146428Y-50639285D01*
X144060714Y-50682142D01*
X143932142Y-50682142D01*
X143846428Y-50639285D01*
X143803571Y-50596428D01*
X142303571Y-50682142D02*
X142303571Y-50210714D01*
X142346428Y-50125000D01*
X142432142Y-50082142D01*
X142603571Y-50082142D01*
X142689285Y-50125000D01*
X142303571Y-50639285D02*
X142389285Y-50682142D01*
X142603571Y-50682142D01*
X142689285Y-50639285D01*
X142732142Y-50553571D01*
X142732142Y-50467857D01*
X142689285Y-50382142D01*
X142603571Y-50339285D01*
X142389285Y-50339285D01*
X142303571Y-50296428D01*
X141875000Y-50682142D02*
X141875000Y-50082142D01*
X141875000Y-50253571D02*
X141832142Y-50167857D01*
X141789285Y-50125000D01*
X141703571Y-50082142D01*
X141617857Y-50082142D01*
X140975000Y-50639285D02*
X141060714Y-50682142D01*
X141232142Y-50682142D01*
X141317857Y-50639285D01*
X141360714Y-50553571D01*
X141360714Y-50210714D01*
X141317857Y-50125000D01*
X141232142Y-50082142D01*
X141060714Y-50082142D01*
X140975000Y-50125000D01*
X140932142Y-50210714D01*
X140932142Y-50296428D01*
X141360714Y-50382142D01*
X139860714Y-50682142D02*
X139860714Y-50082142D01*
X139860714Y-50253571D02*
X139817857Y-50167857D01*
X139775000Y-50125000D01*
X139689285Y-50082142D01*
X139603571Y-50082142D01*
X138960714Y-50639285D02*
X139046428Y-50682142D01*
X139217857Y-50682142D01*
X139303571Y-50639285D01*
X139346428Y-50553571D01*
X139346428Y-50210714D01*
X139303571Y-50125000D01*
X139217857Y-50082142D01*
X139046428Y-50082142D01*
X138960714Y-50125000D01*
X138917857Y-50210714D01*
X138917857Y-50296428D01*
X139346428Y-50382142D01*
X138146428Y-50682142D02*
X138146428Y-50210714D01*
X138189285Y-50125000D01*
X138275000Y-50082142D01*
X138446428Y-50082142D01*
X138532142Y-50125000D01*
X138146428Y-50639285D02*
X138232142Y-50682142D01*
X138446428Y-50682142D01*
X138532142Y-50639285D01*
X138575000Y-50553571D01*
X138575000Y-50467857D01*
X138532142Y-50382142D01*
X138446428Y-50339285D01*
X138232142Y-50339285D01*
X138146428Y-50296428D01*
X137332142Y-50682142D02*
X137332142Y-49782142D01*
X137332142Y-50639285D02*
X137417857Y-50682142D01*
X137589285Y-50682142D01*
X137675000Y-50639285D01*
X137717857Y-50596428D01*
X137760714Y-50510714D01*
X137760714Y-50253571D01*
X137717857Y-50167857D01*
X137675000Y-50125000D01*
X137589285Y-50082142D01*
X137417857Y-50082142D01*
X137332142Y-50125000D01*
X136903571Y-50682142D02*
X136903571Y-50082142D01*
X136903571Y-49782142D02*
X136946428Y-49825000D01*
X136903571Y-49867857D01*
X136860714Y-49825000D01*
X136903571Y-49782142D01*
X136903571Y-49867857D01*
X136475000Y-50082142D02*
X136475000Y-50682142D01*
X136475000Y-50167857D02*
X136432142Y-50125000D01*
X136346428Y-50082142D01*
X136217857Y-50082142D01*
X136132142Y-50125000D01*
X136089285Y-50210714D01*
X136089285Y-50682142D01*
X135275000Y-50082142D02*
X135275000Y-50810714D01*
X135317857Y-50896428D01*
X135360714Y-50939285D01*
X135446428Y-50982142D01*
X135575000Y-50982142D01*
X135660714Y-50939285D01*
X135275000Y-50639285D02*
X135360714Y-50682142D01*
X135532142Y-50682142D01*
X135617857Y-50639285D01*
X135660714Y-50596428D01*
X135703571Y-50510714D01*
X135703571Y-50253571D01*
X135660714Y-50167857D01*
X135617857Y-50125000D01*
X135532142Y-50082142D01*
X135360714Y-50082142D01*
X135275000Y-50125000D01*
X134289285Y-50082142D02*
X133946428Y-50082142D01*
X134160714Y-49782142D02*
X134160714Y-50553571D01*
X134117857Y-50639285D01*
X134032142Y-50682142D01*
X133946428Y-50682142D01*
X133646428Y-50682142D02*
X133646428Y-49782142D01*
X133260714Y-50682142D02*
X133260714Y-50210714D01*
X133303571Y-50125000D01*
X133389285Y-50082142D01*
X133517857Y-50082142D01*
X133603571Y-50125000D01*
X133646428Y-50167857D01*
X132832142Y-50682142D02*
X132832142Y-50082142D01*
X132832142Y-49782142D02*
X132875000Y-49825000D01*
X132832142Y-49867857D01*
X132789285Y-49825000D01*
X132832142Y-49782142D01*
X132832142Y-49867857D01*
X132446428Y-50639285D02*
X132360714Y-50682142D01*
X132189285Y-50682142D01*
X132103571Y-50639285D01*
X132060714Y-50553571D01*
X132060714Y-50510714D01*
X132103571Y-50425000D01*
X132189285Y-50382142D01*
X132317857Y-50382142D01*
X132403571Y-50339285D01*
X132446428Y-50253571D01*
X132446428Y-50210714D01*
X132403571Y-50125000D01*
X132317857Y-50082142D01*
X132189285Y-50082142D01*
X132103571Y-50125000D01*
X131632142Y-50639285D02*
X131632142Y-50682142D01*
X131675000Y-50767857D01*
X131717857Y-50810714D01*
X150060714Y-52182142D02*
X150060714Y-51282142D01*
X148946428Y-52182142D02*
X148946428Y-51282142D01*
X148560714Y-52182142D02*
X148560714Y-51710714D01*
X148603571Y-51625000D01*
X148689285Y-51582142D01*
X148817857Y-51582142D01*
X148903571Y-51625000D01*
X148946428Y-51667857D01*
X148003571Y-52182142D02*
X148089285Y-52139285D01*
X148132142Y-52096428D01*
X148175000Y-52010714D01*
X148175000Y-51753571D01*
X148132142Y-51667857D01*
X148089285Y-51625000D01*
X148003571Y-51582142D01*
X147875000Y-51582142D01*
X147789285Y-51625000D01*
X147746428Y-51667857D01*
X147703571Y-51753571D01*
X147703571Y-52010714D01*
X147746428Y-52096428D01*
X147789285Y-52139285D01*
X147875000Y-52182142D01*
X148003571Y-52182142D01*
X147317857Y-51582142D02*
X147317857Y-52482142D01*
X147317857Y-51625000D02*
X147232142Y-51582142D01*
X147060714Y-51582142D01*
X146975000Y-51625000D01*
X146932142Y-51667857D01*
X146889285Y-51753571D01*
X146889285Y-52010714D01*
X146932142Y-52096428D01*
X146975000Y-52139285D01*
X147060714Y-52182142D01*
X147232142Y-52182142D01*
X147317857Y-52139285D01*
X146160714Y-52139285D02*
X146246428Y-52182142D01*
X146417857Y-52182142D01*
X146503571Y-52139285D01*
X146546428Y-52053571D01*
X146546428Y-51710714D01*
X146503571Y-51625000D01*
X146417857Y-51582142D01*
X146246428Y-51582142D01*
X146160714Y-51625000D01*
X146117857Y-51710714D01*
X146117857Y-51796428D01*
X146546428Y-51882142D01*
X145132142Y-51582142D02*
X144917857Y-52182142D01*
X144703571Y-51582142D02*
X144917857Y-52182142D01*
X145003571Y-52396428D01*
X145046428Y-52439285D01*
X145132142Y-52482142D01*
X144232142Y-52182142D02*
X144317857Y-52139285D01*
X144360714Y-52096428D01*
X144403571Y-52010714D01*
X144403571Y-51753571D01*
X144360714Y-51667857D01*
X144317857Y-51625000D01*
X144232142Y-51582142D01*
X144103571Y-51582142D01*
X144017857Y-51625000D01*
X143975000Y-51667857D01*
X143932142Y-51753571D01*
X143932142Y-52010714D01*
X143975000Y-52096428D01*
X144017857Y-52139285D01*
X144103571Y-52182142D01*
X144232142Y-52182142D01*
X143160714Y-51582142D02*
X143160714Y-52182142D01*
X143546428Y-51582142D02*
X143546428Y-52053571D01*
X143503571Y-52139285D01*
X143417857Y-52182142D01*
X143289285Y-52182142D01*
X143203571Y-52139285D01*
X143160714Y-52096428D01*
X142046428Y-52182142D02*
X142046428Y-51282142D01*
X141660714Y-52182142D02*
X141660714Y-51710714D01*
X141703571Y-51625000D01*
X141789285Y-51582142D01*
X141917857Y-51582142D01*
X142003571Y-51625000D01*
X142046428Y-51667857D01*
X140846428Y-52182142D02*
X140846428Y-51710714D01*
X140889285Y-51625000D01*
X140975000Y-51582142D01*
X141146428Y-51582142D01*
X141232142Y-51625000D01*
X140846428Y-52139285D02*
X140932142Y-52182142D01*
X141146428Y-52182142D01*
X141232142Y-52139285D01*
X141275000Y-52053571D01*
X141275000Y-51967857D01*
X141232142Y-51882142D01*
X141146428Y-51839285D01*
X140932142Y-51839285D01*
X140846428Y-51796428D01*
X140503571Y-51582142D02*
X140289285Y-52182142D01*
X140075000Y-51582142D01*
X139389285Y-52139285D02*
X139475000Y-52182142D01*
X139646428Y-52182142D01*
X139732142Y-52139285D01*
X139775000Y-52053571D01*
X139775000Y-51710714D01*
X139732142Y-51625000D01*
X139646428Y-51582142D01*
X139475000Y-51582142D01*
X139389285Y-51625000D01*
X139346428Y-51710714D01*
X139346428Y-51796428D01*
X139775000Y-51882142D01*
X137889285Y-52182142D02*
X137889285Y-51710714D01*
X137932142Y-51625000D01*
X138017857Y-51582142D01*
X138189285Y-51582142D01*
X138275000Y-51625000D01*
X137889285Y-52139285D02*
X137975000Y-52182142D01*
X138189285Y-52182142D01*
X138275000Y-52139285D01*
X138317857Y-52053571D01*
X138317857Y-51967857D01*
X138275000Y-51882142D01*
X138189285Y-51839285D01*
X137975000Y-51839285D01*
X137889285Y-51796428D01*
X136775000Y-51582142D02*
X136775000Y-52182142D01*
X136775000Y-51667857D02*
X136732142Y-51625000D01*
X136646428Y-51582142D01*
X136517857Y-51582142D01*
X136432142Y-51625000D01*
X136389285Y-51710714D01*
X136389285Y-52182142D01*
X135960714Y-52182142D02*
X135960714Y-51582142D01*
X135960714Y-51282142D02*
X136003571Y-51325000D01*
X135960714Y-51367857D01*
X135917857Y-51325000D01*
X135960714Y-51282142D01*
X135960714Y-51367857D01*
X135146428Y-52139285D02*
X135232142Y-52182142D01*
X135403571Y-52182142D01*
X135489285Y-52139285D01*
X135532142Y-52096428D01*
X135575000Y-52010714D01*
X135575000Y-51753571D01*
X135532142Y-51667857D01*
X135489285Y-51625000D01*
X135403571Y-51582142D01*
X135232142Y-51582142D01*
X135146428Y-51625000D01*
X134417857Y-52139285D02*
X134503571Y-52182142D01*
X134675000Y-52182142D01*
X134760714Y-52139285D01*
X134803571Y-52053571D01*
X134803571Y-51710714D01*
X134760714Y-51625000D01*
X134675000Y-51582142D01*
X134503571Y-51582142D01*
X134417857Y-51625000D01*
X134375000Y-51710714D01*
X134375000Y-51796428D01*
X134803571Y-51882142D01*
X132917857Y-52182142D02*
X132917857Y-51282142D01*
X132917857Y-52139285D02*
X133003571Y-52182142D01*
X133175000Y-52182142D01*
X133260714Y-52139285D01*
X133303571Y-52096428D01*
X133346428Y-52010714D01*
X133346428Y-51753571D01*
X133303571Y-51667857D01*
X133260714Y-51625000D01*
X133175000Y-51582142D01*
X133003571Y-51582142D01*
X132917857Y-51625000D01*
X132103571Y-52182142D02*
X132103571Y-51710714D01*
X132146428Y-51625000D01*
X132232142Y-51582142D01*
X132403571Y-51582142D01*
X132489285Y-51625000D01*
X132103571Y-52139285D02*
X132189285Y-52182142D01*
X132403571Y-52182142D01*
X132489285Y-52139285D01*
X132532142Y-52053571D01*
X132532142Y-51967857D01*
X132489285Y-51882142D01*
X132403571Y-51839285D01*
X132189285Y-51839285D01*
X132103571Y-51796428D01*
X131760714Y-51582142D02*
X131546428Y-52182142D01*
X131332142Y-51582142D02*
X131546428Y-52182142D01*
X131632142Y-52396428D01*
X131675000Y-52439285D01*
X131760714Y-52482142D01*
X130989285Y-52096428D02*
X130946428Y-52139285D01*
X130989285Y-52182142D01*
X131032142Y-52139285D01*
X130989285Y-52096428D01*
X130989285Y-52182142D01*
X130989285Y-51839285D02*
X131032142Y-51325000D01*
X130989285Y-51282142D01*
X130946428Y-51325000D01*
X130989285Y-51839285D01*
X130989285Y-51282142D01*
D12*
X177997619Y-69557142D02*
X178045238Y-69604761D01*
X178188095Y-69652380D01*
X178283333Y-69652380D01*
X178426190Y-69604761D01*
X178521428Y-69509523D01*
X178569047Y-69414285D01*
X178616666Y-69223809D01*
X178616666Y-69080952D01*
X178569047Y-68890476D01*
X178521428Y-68795238D01*
X178426190Y-68700000D01*
X178283333Y-68652380D01*
X178188095Y-68652380D01*
X178045238Y-68700000D01*
X177997619Y-68747619D01*
X177616666Y-69366666D02*
X177140476Y-69366666D01*
X177711904Y-69652380D02*
X177378571Y-68652380D01*
X177045238Y-69652380D01*
X176711904Y-68652380D02*
X176711904Y-69461904D01*
X176664285Y-69557142D01*
X176616666Y-69604761D01*
X176521428Y-69652380D01*
X176330952Y-69652380D01*
X176235714Y-69604761D01*
X176188095Y-69557142D01*
X176140476Y-69461904D01*
X176140476Y-68652380D01*
X175807142Y-68652380D02*
X175235714Y-68652380D01*
X175521428Y-69652380D02*
X175521428Y-68652380D01*
X174902380Y-69652380D02*
X174902380Y-68652380D01*
X174235714Y-68652380D02*
X174045238Y-68652380D01*
X173950000Y-68700000D01*
X173854761Y-68795238D01*
X173807142Y-68985714D01*
X173807142Y-69319047D01*
X173854761Y-69509523D01*
X173950000Y-69604761D01*
X174045238Y-69652380D01*
X174235714Y-69652380D01*
X174330952Y-69604761D01*
X174426190Y-69509523D01*
X174473809Y-69319047D01*
X174473809Y-68985714D01*
X174426190Y-68795238D01*
X174330952Y-68700000D01*
X174235714Y-68652380D01*
X173378571Y-69652380D02*
X173378571Y-68652380D01*
X172807142Y-69652380D01*
X172807142Y-68652380D01*
X172330952Y-69557142D02*
X172283333Y-69604761D01*
X172330952Y-69652380D01*
X172378571Y-69604761D01*
X172330952Y-69557142D01*
X172330952Y-69652380D01*
X172330952Y-69271428D02*
X172378571Y-68700000D01*
X172330952Y-68652380D01*
X172283333Y-68700000D01*
X172330952Y-69271428D01*
X172330952Y-68652380D01*
X179330952Y-71116666D02*
X178854761Y-71116666D01*
X179426190Y-71402380D02*
X179092857Y-70402380D01*
X178759523Y-71402380D01*
X177854761Y-71307142D02*
X177902380Y-71354761D01*
X178045238Y-71402380D01*
X178140476Y-71402380D01*
X178283333Y-71354761D01*
X178378571Y-71259523D01*
X178426190Y-71164285D01*
X178473809Y-70973809D01*
X178473809Y-70830952D01*
X178426190Y-70640476D01*
X178378571Y-70545238D01*
X178283333Y-70450000D01*
X178140476Y-70402380D01*
X178045238Y-70402380D01*
X177902380Y-70450000D01*
X177854761Y-70497619D01*
X176807142Y-70402380D02*
X176473809Y-71402380D01*
X176140476Y-70402380D01*
X175664285Y-71402380D02*
X175759523Y-71354761D01*
X175807142Y-71307142D01*
X175854761Y-71211904D01*
X175854761Y-70926190D01*
X175807142Y-70830952D01*
X175759523Y-70783333D01*
X175664285Y-70735714D01*
X175521428Y-70735714D01*
X175426190Y-70783333D01*
X175378571Y-70830952D01*
X175330952Y-70926190D01*
X175330952Y-71211904D01*
X175378571Y-71307142D01*
X175426190Y-71354761D01*
X175521428Y-71402380D01*
X175664285Y-71402380D01*
X174759523Y-71402380D02*
X174854761Y-71354761D01*
X174902380Y-71259523D01*
X174902380Y-70402380D01*
X174521428Y-70735714D02*
X174140476Y-70735714D01*
X174378571Y-70402380D02*
X174378571Y-71259523D01*
X174330952Y-71354761D01*
X174235714Y-71402380D01*
X174140476Y-71402380D01*
X173378571Y-71402380D02*
X173378571Y-70878571D01*
X173426190Y-70783333D01*
X173521428Y-70735714D01*
X173711904Y-70735714D01*
X173807142Y-70783333D01*
X173378571Y-71354761D02*
X173473809Y-71402380D01*
X173711904Y-71402380D01*
X173807142Y-71354761D01*
X173854761Y-71259523D01*
X173854761Y-71164285D01*
X173807142Y-71069047D01*
X173711904Y-71021428D01*
X173473809Y-71021428D01*
X173378571Y-70973809D01*
X172473809Y-70735714D02*
X172473809Y-71545238D01*
X172521428Y-71640476D01*
X172569047Y-71688095D01*
X172664285Y-71735714D01*
X172807142Y-71735714D01*
X172902380Y-71688095D01*
X172473809Y-71354761D02*
X172569047Y-71402380D01*
X172759523Y-71402380D01*
X172854761Y-71354761D01*
X172902380Y-71307142D01*
X172950000Y-71211904D01*
X172950000Y-70926190D01*
X172902380Y-70830952D01*
X172854761Y-70783333D01*
X172759523Y-70735714D01*
X172569047Y-70735714D01*
X172473809Y-70783333D01*
X171616666Y-71354761D02*
X171711904Y-71402380D01*
X171902380Y-71402380D01*
X171997619Y-71354761D01*
X172045238Y-71259523D01*
X172045238Y-70878571D01*
X171997619Y-70783333D01*
X171902380Y-70735714D01*
X171711904Y-70735714D01*
X171616666Y-70783333D01*
X171569047Y-70878571D01*
X171569047Y-70973809D01*
X172045238Y-71069047D01*
D11*
X116175000Y-95178571D02*
X116032142Y-95178571D01*
X115889285Y-95250000D01*
X115817857Y-95321428D01*
X115746428Y-95464285D01*
X115675000Y-95750000D01*
X115675000Y-96107142D01*
X115746428Y-96392857D01*
X115817857Y-96535714D01*
X115889285Y-96607142D01*
X116032142Y-96678571D01*
X116175000Y-96678571D01*
X116317857Y-96607142D01*
X116389285Y-96535714D01*
X116460714Y-96392857D01*
X116532142Y-96107142D01*
X116532142Y-95750000D01*
X116460714Y-95464285D01*
X116389285Y-95321428D01*
X116317857Y-95250000D01*
X116175000Y-95178571D01*
X114389285Y-95178571D02*
X114675000Y-95178571D01*
X114817857Y-95250000D01*
X114889285Y-95321428D01*
X115032142Y-95535714D01*
X115103571Y-95821428D01*
X115103571Y-96392857D01*
X115032142Y-96535714D01*
X114960714Y-96607142D01*
X114817857Y-96678571D01*
X114532142Y-96678571D01*
X114389285Y-96607142D01*
X114317857Y-96535714D01*
X114246428Y-96392857D01*
X114246428Y-96035714D01*
X114317857Y-95892857D01*
X114389285Y-95821428D01*
X114532142Y-95750000D01*
X114817857Y-95750000D01*
X114960714Y-95821428D01*
X115032142Y-95892857D01*
X115103571Y-96035714D01*
X113317857Y-95178571D02*
X113175000Y-95178571D01*
X113032142Y-95250000D01*
X112960714Y-95321428D01*
X112889285Y-95464285D01*
X112817857Y-95750000D01*
X112817857Y-96107142D01*
X112889285Y-96392857D01*
X112960714Y-96535714D01*
X113032142Y-96607142D01*
X113175000Y-96678571D01*
X113317857Y-96678571D01*
X113460714Y-96607142D01*
X113532142Y-96535714D01*
X113603571Y-96392857D01*
X113675000Y-96107142D01*
X113675000Y-95750000D01*
X113603571Y-95464285D01*
X113532142Y-95321428D01*
X113460714Y-95250000D01*
X113317857Y-95178571D01*
X112317857Y-95178571D02*
X111389285Y-95178571D01*
X111889285Y-95750000D01*
X111675000Y-95750000D01*
X111532142Y-95821428D01*
X111460714Y-95892857D01*
X111389285Y-96035714D01*
X111389285Y-96392857D01*
X111460714Y-96535714D01*
X111532142Y-96607142D01*
X111675000Y-96678571D01*
X112103571Y-96678571D01*
X112246428Y-96607142D01*
X112317857Y-96535714D01*
X110746428Y-96107142D02*
X109603571Y-96107142D01*
X108103571Y-96678571D02*
X108960714Y-96678571D01*
X108532142Y-96678571D02*
X108532142Y-95178571D01*
X108675000Y-95392857D01*
X108817857Y-95535714D01*
X108960714Y-95607142D01*
X107532142Y-95321428D02*
X107460714Y-95250000D01*
X107317857Y-95178571D01*
X106960714Y-95178571D01*
X106817857Y-95250000D01*
X106746428Y-95321428D01*
X106675000Y-95464285D01*
X106675000Y-95607142D01*
X106746428Y-95821428D01*
X107603571Y-96678571D01*
X106675000Y-96678571D01*
X105246428Y-96678571D02*
X106103571Y-96678571D01*
X105675000Y-96678571D02*
X105675000Y-95178571D01*
X105817857Y-95392857D01*
X105960714Y-95535714D01*
X106103571Y-95607142D01*
X104317857Y-95178571D02*
X104175000Y-95178571D01*
X104032142Y-95250000D01*
X103960714Y-95321428D01*
X103889285Y-95464285D01*
X103817857Y-95750000D01*
X103817857Y-96107142D01*
X103889285Y-96392857D01*
X103960714Y-96535714D01*
X104032142Y-96607142D01*
X104175000Y-96678571D01*
X104317857Y-96678571D01*
X104460714Y-96607142D01*
X104532142Y-96535714D01*
X104603571Y-96392857D01*
X104675000Y-96107142D01*
X104675000Y-95750000D01*
X104603571Y-95464285D01*
X104532142Y-95321428D01*
X104460714Y-95250000D01*
X104317857Y-95178571D01*
D10*
X108577380Y-60620238D02*
X109577380Y-60286904D01*
X108577380Y-59953571D01*
X109577380Y-59620238D02*
X108577380Y-59620238D01*
X109577380Y-59144047D02*
X108577380Y-59144047D01*
X109577380Y-58572619D01*
X108577380Y-58572619D01*
X108625000Y-54586904D02*
X108577380Y-54682142D01*
X108577380Y-54825000D01*
X108625000Y-54967857D01*
X108720238Y-55063095D01*
X108815476Y-55110714D01*
X109005952Y-55158333D01*
X109148809Y-55158333D01*
X109339285Y-55110714D01*
X109434523Y-55063095D01*
X109529761Y-54967857D01*
X109577380Y-54825000D01*
X109577380Y-54729761D01*
X109529761Y-54586904D01*
X109482142Y-54539285D01*
X109148809Y-54539285D01*
X109148809Y-54729761D01*
X109577380Y-54110714D02*
X108577380Y-54110714D01*
X109577380Y-53539285D01*
X108577380Y-53539285D01*
X109577380Y-53063095D02*
X108577380Y-53063095D01*
X108577380Y-52825000D01*
X108625000Y-52682142D01*
X108720238Y-52586904D01*
X108815476Y-52539285D01*
X109005952Y-52491666D01*
X109148809Y-52491666D01*
X109339285Y-52539285D01*
X109434523Y-52586904D01*
X109529761Y-52682142D01*
X109577380Y-52825000D01*
X109577380Y-53063095D01*
D13*
X127514000Y-148120000D02*
X143754000Y-148120000D01*
X143754000Y-148120000D02*
X143754000Y-140500000D01*
X143754000Y-124500000D02*
X143754000Y-123880000D01*
X143754000Y-123880000D02*
X141634000Y-123880000D01*
X129634000Y-123880000D02*
X127514000Y-123880000D01*
X127514000Y-123880000D02*
X127514000Y-124500000D01*
X127514000Y-140500000D02*
X127514000Y-148120000D01*
X127514000Y-140500000D02*
X126904000Y-140500000D01*
D14*
G36*
X175399172Y-129188249D02*
G01*
X175321750Y-129190040D01*
X175260594Y-129192766D01*
X175220450Y-129196217D01*
X175206062Y-129200170D01*
X175211341Y-129216472D01*
X175226489Y-129258499D01*
X175250475Y-129323497D01*
X175282268Y-129408714D01*
X175320836Y-129511399D01*
X175365147Y-129628797D01*
X175414171Y-129758158D01*
X175466876Y-129896727D01*
X175478861Y-129928171D01*
X175532067Y-130068108D01*
X175581626Y-130199228D01*
X175626530Y-130318812D01*
X175665774Y-130424142D01*
X175698350Y-130512502D01*
X175723252Y-130581172D01*
X175739474Y-130627434D01*
X175746009Y-130648571D01*
X175746036Y-130649592D01*
X175730898Y-130646012D01*
X175690521Y-130633093D01*
X175628291Y-130612009D01*
X175547591Y-130583934D01*
X175451806Y-130550041D01*
X175344322Y-130511503D01*
X175267047Y-130483524D01*
X175153533Y-130442537D01*
X175049379Y-130405454D01*
X174957979Y-130373441D01*
X174882730Y-130347666D01*
X174827025Y-130329298D01*
X174794260Y-130319504D01*
X174786828Y-130318324D01*
X174791511Y-130333140D01*
X174807373Y-130373481D01*
X174833391Y-130436926D01*
X174868542Y-130521056D01*
X174911804Y-130623450D01*
X174962154Y-130741689D01*
X175018568Y-130873354D01*
X175080025Y-131016022D01*
X175145501Y-131167276D01*
X175150194Y-131178091D01*
X175520415Y-132031003D01*
X175369773Y-132035359D01*
X175306854Y-132038344D01*
X175257862Y-132042900D01*
X175229010Y-132048317D01*
X175224031Y-132052048D01*
X175234776Y-132067570D01*
X175261526Y-132102770D01*
X175301389Y-132154033D01*
X175351476Y-132217740D01*
X175408894Y-132290276D01*
X175470752Y-132368022D01*
X175534160Y-132447363D01*
X175596227Y-132524681D01*
X175654062Y-132596359D01*
X175704772Y-132658780D01*
X175745469Y-132708328D01*
X175773260Y-132741384D01*
X175785254Y-132754333D01*
X175785414Y-132754392D01*
X175790229Y-132740240D01*
X175800175Y-132699836D01*
X175814448Y-132636840D01*
X175832243Y-132554911D01*
X175852757Y-132457706D01*
X175875186Y-132348883D01*
X175883241Y-132309213D01*
X175906303Y-132195469D01*
X175927693Y-132090467D01*
X175946590Y-131998199D01*
X175962173Y-131922654D01*
X175973621Y-131867823D01*
X175980114Y-131837695D01*
X175980973Y-131834069D01*
X175976231Y-131826349D01*
X175952528Y-131836909D01*
X175908482Y-131866524D01*
X175864988Y-131898865D01*
X175812756Y-131938151D01*
X175770046Y-131969381D01*
X175742290Y-131988634D01*
X175734689Y-131992887D01*
X175727780Y-131979154D01*
X175711815Y-131940352D01*
X175688131Y-131880082D01*
X175658062Y-131801942D01*
X175622944Y-131709533D01*
X175584112Y-131606454D01*
X175542902Y-131496304D01*
X175500647Y-131382683D01*
X175458684Y-131269190D01*
X175418347Y-131159425D01*
X175380973Y-131056987D01*
X175347896Y-130965475D01*
X175320451Y-130888490D01*
X175299973Y-130829629D01*
X175287798Y-130792494D01*
X175285012Y-130780645D01*
X175300489Y-130783840D01*
X175340969Y-130796089D01*
X175402747Y-130816163D01*
X175482120Y-130842832D01*
X175575385Y-130874867D01*
X175678838Y-130911039D01*
X175694730Y-130916648D01*
X175799172Y-130953460D01*
X175893733Y-130986605D01*
X175974752Y-131014816D01*
X176038568Y-131036824D01*
X176081522Y-131051361D01*
X176099954Y-131057159D01*
X176100378Y-131057196D01*
X176098178Y-131042269D01*
X176091003Y-130999907D01*
X176079311Y-130932677D01*
X176063556Y-130843148D01*
X176044193Y-130733889D01*
X176021678Y-130607469D01*
X175996466Y-130466457D01*
X175969013Y-130313422D01*
X175939774Y-130150931D01*
X175936518Y-130132863D01*
X175907040Y-129969167D01*
X175879231Y-129814389D01*
X175853553Y-129671132D01*
X175830471Y-129542002D01*
X175810449Y-129429601D01*
X175793950Y-129336535D01*
X175781437Y-129265408D01*
X175773376Y-129218823D01*
X175770230Y-129199386D01*
X175770203Y-129199040D01*
X175755737Y-129195434D01*
X175715526Y-129192295D01*
X175654316Y-129189816D01*
X175576854Y-129188188D01*
X175488115Y-129187605D01*
X175399172Y-129188249D01*
G37*
X175399172Y-129188249D02*
X175321750Y-129190040D01*
X175260594Y-129192766D01*
X175220450Y-129196217D01*
X175206062Y-129200170D01*
X175211341Y-129216472D01*
X175226489Y-129258499D01*
X175250475Y-129323497D01*
X175282268Y-129408714D01*
X175320836Y-129511399D01*
X175365147Y-129628797D01*
X175414171Y-129758158D01*
X175466876Y-129896727D01*
X175478861Y-129928171D01*
X175532067Y-130068108D01*
X175581626Y-130199228D01*
X175626530Y-130318812D01*
X175665774Y-130424142D01*
X175698350Y-130512502D01*
X175723252Y-130581172D01*
X175739474Y-130627434D01*
X175746009Y-130648571D01*
X175746036Y-130649592D01*
X175730898Y-130646012D01*
X175690521Y-130633093D01*
X175628291Y-130612009D01*
X175547591Y-130583934D01*
X175451806Y-130550041D01*
X175344322Y-130511503D01*
X175267047Y-130483524D01*
X175153533Y-130442537D01*
X175049379Y-130405454D01*
X174957979Y-130373441D01*
X174882730Y-130347666D01*
X174827025Y-130329298D01*
X174794260Y-130319504D01*
X174786828Y-130318324D01*
X174791511Y-130333140D01*
X174807373Y-130373481D01*
X174833391Y-130436926D01*
X174868542Y-130521056D01*
X174911804Y-130623450D01*
X174962154Y-130741689D01*
X175018568Y-130873354D01*
X175080025Y-131016022D01*
X175145501Y-131167276D01*
X175150194Y-131178091D01*
X175520415Y-132031003D01*
X175369773Y-132035359D01*
X175306854Y-132038344D01*
X175257862Y-132042900D01*
X175229010Y-132048317D01*
X175224031Y-132052048D01*
X175234776Y-132067570D01*
X175261526Y-132102770D01*
X175301389Y-132154033D01*
X175351476Y-132217740D01*
X175408894Y-132290276D01*
X175470752Y-132368022D01*
X175534160Y-132447363D01*
X175596227Y-132524681D01*
X175654062Y-132596359D01*
X175704772Y-132658780D01*
X175745469Y-132708328D01*
X175773260Y-132741384D01*
X175785254Y-132754333D01*
X175785414Y-132754392D01*
X175790229Y-132740240D01*
X175800175Y-132699836D01*
X175814448Y-132636840D01*
X175832243Y-132554911D01*
X175852757Y-132457706D01*
X175875186Y-132348883D01*
X175883241Y-132309213D01*
X175906303Y-132195469D01*
X175927693Y-132090467D01*
X175946590Y-131998199D01*
X175962173Y-131922654D01*
X175973621Y-131867823D01*
X175980114Y-131837695D01*
X175980973Y-131834069D01*
X175976231Y-131826349D01*
X175952528Y-131836909D01*
X175908482Y-131866524D01*
X175864988Y-131898865D01*
X175812756Y-131938151D01*
X175770046Y-131969381D01*
X175742290Y-131988634D01*
X175734689Y-131992887D01*
X175727780Y-131979154D01*
X175711815Y-131940352D01*
X175688131Y-131880082D01*
X175658062Y-131801942D01*
X175622944Y-131709533D01*
X175584112Y-131606454D01*
X175542902Y-131496304D01*
X175500647Y-131382683D01*
X175458684Y-131269190D01*
X175418347Y-131159425D01*
X175380973Y-131056987D01*
X175347896Y-130965475D01*
X175320451Y-130888490D01*
X175299973Y-130829629D01*
X175287798Y-130792494D01*
X175285012Y-130780645D01*
X175300489Y-130783840D01*
X175340969Y-130796089D01*
X175402747Y-130816163D01*
X175482120Y-130842832D01*
X175575385Y-130874867D01*
X175678838Y-130911039D01*
X175694730Y-130916648D01*
X175799172Y-130953460D01*
X175893733Y-130986605D01*
X175974752Y-131014816D01*
X176038568Y-131036824D01*
X176081522Y-131051361D01*
X176099954Y-131057159D01*
X176100378Y-131057196D01*
X176098178Y-131042269D01*
X176091003Y-130999907D01*
X176079311Y-130932677D01*
X176063556Y-130843148D01*
X176044193Y-130733889D01*
X176021678Y-130607469D01*
X175996466Y-130466457D01*
X175969013Y-130313422D01*
X175939774Y-130150931D01*
X175936518Y-130132863D01*
X175907040Y-129969167D01*
X175879231Y-129814389D01*
X175853553Y-129671132D01*
X175830471Y-129542002D01*
X175810449Y-129429601D01*
X175793950Y-129336535D01*
X175781437Y-129265408D01*
X175773376Y-129218823D01*
X175770230Y-129199386D01*
X175770203Y-129199040D01*
X175755737Y-129195434D01*
X175715526Y-129192295D01*
X175654316Y-129189816D01*
X175576854Y-129188188D01*
X175488115Y-129187605D01*
X175399172Y-129188249D01*
G36*
X175347506Y-127916777D02*
G01*
X175259994Y-127951779D01*
X175185138Y-128013541D01*
X175176818Y-128023121D01*
X175163747Y-128043025D01*
X175136765Y-128087775D01*
X175096800Y-128155727D01*
X175044780Y-128245236D01*
X174981632Y-128354658D01*
X174908287Y-128482350D01*
X174825671Y-128626668D01*
X174734714Y-128785967D01*
X174636343Y-128958604D01*
X174531487Y-129142934D01*
X174421073Y-129337313D01*
X174306031Y-129540098D01*
X174187289Y-129749644D01*
X174065774Y-129964307D01*
X173942415Y-130182444D01*
X173818141Y-130402411D01*
X173693879Y-130622562D01*
X173570559Y-130841255D01*
X173449107Y-131056845D01*
X173330454Y-131267688D01*
X173215525Y-131472141D01*
X173105251Y-131668559D01*
X173000560Y-131855298D01*
X172902379Y-132030714D01*
X172811636Y-132193163D01*
X172729261Y-132341002D01*
X172656182Y-132472585D01*
X172593326Y-132586270D01*
X172541622Y-132680412D01*
X172501999Y-132753367D01*
X172475384Y-132803491D01*
X172462706Y-132829140D01*
X172461854Y-132831423D01*
X172446538Y-132934023D01*
X172459810Y-133028670D01*
X172500457Y-133112439D01*
X172567270Y-133182409D01*
X172621849Y-133217870D01*
X172682833Y-133250690D01*
X175419508Y-133253276D01*
X175706588Y-133253483D01*
X175985747Y-133253557D01*
X176255431Y-133253504D01*
X176514090Y-133253330D01*
X176760171Y-133253038D01*
X176992121Y-133252635D01*
X177208390Y-133252125D01*
X177407424Y-133251514D01*
X177587673Y-133250806D01*
X177747584Y-133250007D01*
X177885604Y-133249121D01*
X178000183Y-133248155D01*
X178089768Y-133247112D01*
X178152806Y-133245998D01*
X178187747Y-133244819D01*
X178194396Y-133244153D01*
X178272097Y-133211534D01*
X178338086Y-133167383D01*
X178357465Y-133149020D01*
X178405430Y-133076614D01*
X178431928Y-132989822D01*
X178434005Y-132934334D01*
X178133093Y-132934334D01*
X178127691Y-132936797D01*
X178110674Y-132939053D01*
X178080911Y-132941109D01*
X178037273Y-132942972D01*
X177978631Y-132944652D01*
X177903856Y-132946156D01*
X177811817Y-132947491D01*
X177701387Y-132948667D01*
X177571434Y-132949691D01*
X177420830Y-132950571D01*
X177248445Y-132951315D01*
X177053151Y-132951931D01*
X176833816Y-132952427D01*
X176589313Y-132952811D01*
X176318512Y-132953092D01*
X176020282Y-132953276D01*
X175693496Y-132953372D01*
X175442377Y-132953392D01*
X175096112Y-132953355D01*
X174779180Y-132953242D01*
X174490421Y-132953042D01*
X174228677Y-132952748D01*
X173992786Y-132952351D01*
X173781591Y-132951842D01*
X173593932Y-132951215D01*
X173428649Y-132950459D01*
X173284582Y-132949567D01*
X173160574Y-132948530D01*
X173055463Y-132947340D01*
X172968091Y-132945988D01*
X172897298Y-132944467D01*
X172841925Y-132942768D01*
X172800813Y-132940881D01*
X172772802Y-132938800D01*
X172756732Y-132936516D01*
X172751445Y-132934020D01*
X172751440Y-132933943D01*
X172758793Y-132919074D01*
X172780235Y-132879301D01*
X172814845Y-132816261D01*
X172861702Y-132731588D01*
X172919884Y-132626921D01*
X172988469Y-132503895D01*
X173066536Y-132364147D01*
X173153164Y-132209315D01*
X173247430Y-132041033D01*
X173348413Y-131860939D01*
X173455191Y-131670669D01*
X173566843Y-131471861D01*
X173682447Y-131266149D01*
X173801082Y-131055172D01*
X173921826Y-130840565D01*
X174043757Y-130623965D01*
X174165954Y-130407009D01*
X174287495Y-130191332D01*
X174407459Y-129978573D01*
X174524923Y-129770366D01*
X174638967Y-129568350D01*
X174748668Y-129374159D01*
X174853106Y-129189431D01*
X174951358Y-129015803D01*
X175042503Y-128854911D01*
X175125619Y-128708391D01*
X175199784Y-128577880D01*
X175264078Y-128465014D01*
X175317578Y-128371431D01*
X175359363Y-128298766D01*
X175388511Y-128248656D01*
X175404101Y-128222738D01*
X175406366Y-128219478D01*
X175425010Y-128215470D01*
X175435464Y-128227101D01*
X175453224Y-128256874D01*
X175484584Y-128310455D01*
X175528611Y-128386221D01*
X175584376Y-128482546D01*
X175650948Y-128597808D01*
X175727397Y-128730382D01*
X175812791Y-128878645D01*
X175906200Y-129040973D01*
X176006694Y-129215742D01*
X176113342Y-129401328D01*
X176225214Y-129596108D01*
X176341378Y-129798457D01*
X176460905Y-130006752D01*
X176582863Y-130219369D01*
X176706323Y-130434684D01*
X176830353Y-130651073D01*
X176954023Y-130866913D01*
X177076402Y-131080579D01*
X177196560Y-131290448D01*
X177313567Y-131494897D01*
X177426491Y-131692300D01*
X177534402Y-131881035D01*
X177636369Y-132059477D01*
X177731462Y-132226003D01*
X177818751Y-132378989D01*
X177897304Y-132516810D01*
X177966191Y-132637844D01*
X178024482Y-132740467D01*
X178071245Y-132823054D01*
X178105552Y-132883982D01*
X178126469Y-132921626D01*
X178133093Y-132934334D01*
X178434005Y-132934334D01*
X178435390Y-132897364D01*
X178417388Y-132816177D01*
X178408039Y-132798056D01*
X178384410Y-132755153D01*
X178347442Y-132689108D01*
X178298074Y-132601560D01*
X178237247Y-132494150D01*
X178165902Y-132368516D01*
X178084978Y-132226300D01*
X177995417Y-132069140D01*
X177898159Y-131898676D01*
X177794144Y-131716548D01*
X177684312Y-131524396D01*
X177569604Y-131323860D01*
X177450960Y-131116579D01*
X177329321Y-130904192D01*
X177205628Y-130688341D01*
X177080820Y-130470664D01*
X176955837Y-130252801D01*
X176831622Y-130036393D01*
X176709112Y-129823078D01*
X176589251Y-129614497D01*
X176472976Y-129412289D01*
X176361230Y-129218094D01*
X176254952Y-129033552D01*
X176155083Y-128860302D01*
X176062563Y-128699985D01*
X175978333Y-128554239D01*
X175903333Y-128424706D01*
X175838503Y-128313024D01*
X175784784Y-128220833D01*
X175743116Y-128149773D01*
X175714440Y-128101484D01*
X175700389Y-128078654D01*
X175631390Y-127994856D01*
X175552389Y-127939595D01*
X175462556Y-127912324D01*
X175443695Y-127910220D01*
X175347506Y-127916777D01*
G37*
X175347506Y-127916777D02*
X175259994Y-127951779D01*
X175185138Y-128013541D01*
X175176818Y-128023121D01*
X175163747Y-128043025D01*
X175136765Y-128087775D01*
X175096800Y-128155727D01*
X175044780Y-128245236D01*
X174981632Y-128354658D01*
X174908287Y-128482350D01*
X174825671Y-128626668D01*
X174734714Y-128785967D01*
X174636343Y-128958604D01*
X174531487Y-129142934D01*
X174421073Y-129337313D01*
X174306031Y-129540098D01*
X174187289Y-129749644D01*
X174065774Y-129964307D01*
X173942415Y-130182444D01*
X173818141Y-130402411D01*
X173693879Y-130622562D01*
X173570559Y-130841255D01*
X173449107Y-131056845D01*
X173330454Y-131267688D01*
X173215525Y-131472141D01*
X173105251Y-131668559D01*
X173000560Y-131855298D01*
X172902379Y-132030714D01*
X172811636Y-132193163D01*
X172729261Y-132341002D01*
X172656182Y-132472585D01*
X172593326Y-132586270D01*
X172541622Y-132680412D01*
X172501999Y-132753367D01*
X172475384Y-132803491D01*
X172462706Y-132829140D01*
X172461854Y-132831423D01*
X172446538Y-132934023D01*
X172459810Y-133028670D01*
X172500457Y-133112439D01*
X172567270Y-133182409D01*
X172621849Y-133217870D01*
X172682833Y-133250690D01*
X175419508Y-133253276D01*
X175706588Y-133253483D01*
X175985747Y-133253557D01*
X176255431Y-133253504D01*
X176514090Y-133253330D01*
X176760171Y-133253038D01*
X176992121Y-133252635D01*
X177208390Y-133252125D01*
X177407424Y-133251514D01*
X177587673Y-133250806D01*
X177747584Y-133250007D01*
X177885604Y-133249121D01*
X178000183Y-133248155D01*
X178089768Y-133247112D01*
X178152806Y-133245998D01*
X178187747Y-133244819D01*
X178194396Y-133244153D01*
X178272097Y-133211534D01*
X178338086Y-133167383D01*
X178357465Y-133149020D01*
X178405430Y-133076614D01*
X178431928Y-132989822D01*
X178434005Y-132934334D01*
X178133093Y-132934334D01*
X178127691Y-132936797D01*
X178110674Y-132939053D01*
X178080911Y-132941109D01*
X178037273Y-132942972D01*
X177978631Y-132944652D01*
X177903856Y-132946156D01*
X177811817Y-132947491D01*
X177701387Y-132948667D01*
X177571434Y-132949691D01*
X177420830Y-132950571D01*
X177248445Y-132951315D01*
X177053151Y-132951931D01*
X176833816Y-132952427D01*
X176589313Y-132952811D01*
X176318512Y-132953092D01*
X176020282Y-132953276D01*
X175693496Y-132953372D01*
X175442377Y-132953392D01*
X175096112Y-132953355D01*
X174779180Y-132953242D01*
X174490421Y-132953042D01*
X174228677Y-132952748D01*
X173992786Y-132952351D01*
X173781591Y-132951842D01*
X173593932Y-132951215D01*
X173428649Y-132950459D01*
X173284582Y-132949567D01*
X173160574Y-132948530D01*
X173055463Y-132947340D01*
X172968091Y-132945988D01*
X172897298Y-132944467D01*
X172841925Y-132942768D01*
X172800813Y-132940881D01*
X172772802Y-132938800D01*
X172756732Y-132936516D01*
X172751445Y-132934020D01*
X172751440Y-132933943D01*
X172758793Y-132919074D01*
X172780235Y-132879301D01*
X172814845Y-132816261D01*
X172861702Y-132731588D01*
X172919884Y-132626921D01*
X172988469Y-132503895D01*
X173066536Y-132364147D01*
X173153164Y-132209315D01*
X173247430Y-132041033D01*
X173348413Y-131860939D01*
X173455191Y-131670669D01*
X173566843Y-131471861D01*
X173682447Y-131266149D01*
X173801082Y-131055172D01*
X173921826Y-130840565D01*
X174043757Y-130623965D01*
X174165954Y-130407009D01*
X174287495Y-130191332D01*
X174407459Y-129978573D01*
X174524923Y-129770366D01*
X174638967Y-129568350D01*
X174748668Y-129374159D01*
X174853106Y-129189431D01*
X174951358Y-129015803D01*
X175042503Y-128854911D01*
X175125619Y-128708391D01*
X175199784Y-128577880D01*
X175264078Y-128465014D01*
X175317578Y-128371431D01*
X175359363Y-128298766D01*
X175388511Y-128248656D01*
X175404101Y-128222738D01*
X175406366Y-128219478D01*
X175425010Y-128215470D01*
X175435464Y-128227101D01*
X175453224Y-128256874D01*
X175484584Y-128310455D01*
X175528611Y-128386221D01*
X175584376Y-128482546D01*
X175650948Y-128597808D01*
X175727397Y-128730382D01*
X175812791Y-128878645D01*
X175906200Y-129040973D01*
X176006694Y-129215742D01*
X176113342Y-129401328D01*
X176225214Y-129596108D01*
X176341378Y-129798457D01*
X176460905Y-130006752D01*
X176582863Y-130219369D01*
X176706323Y-130434684D01*
X176830353Y-130651073D01*
X176954023Y-130866913D01*
X177076402Y-131080579D01*
X177196560Y-131290448D01*
X177313567Y-131494897D01*
X177426491Y-131692300D01*
X177534402Y-131881035D01*
X177636369Y-132059477D01*
X177731462Y-132226003D01*
X177818751Y-132378989D01*
X177897304Y-132516810D01*
X177966191Y-132637844D01*
X178024482Y-132740467D01*
X178071245Y-132823054D01*
X178105552Y-132883982D01*
X178126469Y-132921626D01*
X178133093Y-132934334D01*
X178434005Y-132934334D01*
X178435390Y-132897364D01*
X178417388Y-132816177D01*
X178408039Y-132798056D01*
X178384410Y-132755153D01*
X178347442Y-132689108D01*
X178298074Y-132601560D01*
X178237247Y-132494150D01*
X178165902Y-132368516D01*
X178084978Y-132226300D01*
X177995417Y-132069140D01*
X177898159Y-131898676D01*
X177794144Y-131716548D01*
X177684312Y-131524396D01*
X177569604Y-131323860D01*
X177450960Y-131116579D01*
X177329321Y-130904192D01*
X177205628Y-130688341D01*
X177080820Y-130470664D01*
X176955837Y-130252801D01*
X176831622Y-130036393D01*
X176709112Y-129823078D01*
X176589251Y-129614497D01*
X176472976Y-129412289D01*
X176361230Y-129218094D01*
X176254952Y-129033552D01*
X176155083Y-128860302D01*
X176062563Y-128699985D01*
X175978333Y-128554239D01*
X175903333Y-128424706D01*
X175838503Y-128313024D01*
X175784784Y-128220833D01*
X175743116Y-128149773D01*
X175714440Y-128101484D01*
X175700389Y-128078654D01*
X175631390Y-127994856D01*
X175552389Y-127939595D01*
X175462556Y-127912324D01*
X175443695Y-127910220D01*
X175347506Y-127916777D01*
D13*
X186394000Y-144616000D02*
G75*
G03*
X185694000Y-143916000I-700000J0D01*
G01*
X185094000Y-143916000D02*
G75*
G03*
X184394000Y-144616000I0J-700000D01*
G01*
X184394000Y-146016000D02*
G75*
G03*
X185094000Y-146716000I700000J0D01*
G01*
X185694000Y-146716000D02*
G75*
G03*
X186394000Y-146016000I0J700000D01*
G01*
X186394000Y-146016000D02*
X186394000Y-144616000D01*
X185694000Y-143916000D02*
X185094000Y-143916000D01*
X184394000Y-144616000D02*
X184394000Y-146016000D01*
X185094000Y-146716000D02*
X185694000Y-146716000D01*
X188650000Y-146750000D02*
G75*
G03*
X189350000Y-146050000I0J700000D01*
G01*
X187350000Y-146050000D02*
G75*
G03*
X188050000Y-146750000I700000J0D01*
G01*
X188050000Y-143950000D02*
G75*
G03*
X187350000Y-144650000I0J-700000D01*
G01*
X189350000Y-144650000D02*
G75*
G03*
X188650000Y-143950000I-700000J0D01*
G01*
X188050000Y-146750000D02*
X188650000Y-146750000D01*
X187350000Y-144650000D02*
X187350000Y-146050000D01*
X188650000Y-143950000D02*
X188050000Y-143950000D01*
X189350000Y-146050000D02*
X189350000Y-144650000D01*
D14*
G36*
X175347506Y-76416777D02*
G01*
X175259994Y-76451779D01*
X175185138Y-76513541D01*
X175176818Y-76523121D01*
X175163747Y-76543025D01*
X175136765Y-76587775D01*
X175096800Y-76655727D01*
X175044780Y-76745236D01*
X174981632Y-76854658D01*
X174908287Y-76982350D01*
X174825671Y-77126668D01*
X174734714Y-77285967D01*
X174636343Y-77458604D01*
X174531487Y-77642934D01*
X174421073Y-77837313D01*
X174306031Y-78040098D01*
X174187289Y-78249644D01*
X174065774Y-78464307D01*
X173942415Y-78682444D01*
X173818141Y-78902411D01*
X173693879Y-79122562D01*
X173570559Y-79341255D01*
X173449107Y-79556845D01*
X173330454Y-79767688D01*
X173215525Y-79972141D01*
X173105251Y-80168559D01*
X173000560Y-80355298D01*
X172902379Y-80530714D01*
X172811636Y-80693163D01*
X172729261Y-80841002D01*
X172656182Y-80972585D01*
X172593326Y-81086270D01*
X172541622Y-81180412D01*
X172501999Y-81253367D01*
X172475384Y-81303491D01*
X172462706Y-81329140D01*
X172461854Y-81331423D01*
X172446538Y-81434023D01*
X172459810Y-81528670D01*
X172500457Y-81612439D01*
X172567270Y-81682409D01*
X172621849Y-81717870D01*
X172682833Y-81750690D01*
X175419508Y-81753276D01*
X175706588Y-81753483D01*
X175985747Y-81753557D01*
X176255431Y-81753504D01*
X176514090Y-81753330D01*
X176760171Y-81753038D01*
X176992121Y-81752635D01*
X177208390Y-81752125D01*
X177407424Y-81751514D01*
X177587673Y-81750806D01*
X177747584Y-81750007D01*
X177885604Y-81749121D01*
X178000183Y-81748155D01*
X178089768Y-81747112D01*
X178152806Y-81745998D01*
X178187747Y-81744819D01*
X178194396Y-81744153D01*
X178272097Y-81711534D01*
X178338086Y-81667383D01*
X178357465Y-81649020D01*
X178405430Y-81576614D01*
X178431928Y-81489822D01*
X178434005Y-81434334D01*
X178133093Y-81434334D01*
X178127691Y-81436797D01*
X178110674Y-81439053D01*
X178080911Y-81441109D01*
X178037273Y-81442972D01*
X177978631Y-81444652D01*
X177903856Y-81446156D01*
X177811817Y-81447491D01*
X177701387Y-81448667D01*
X177571434Y-81449691D01*
X177420830Y-81450571D01*
X177248445Y-81451315D01*
X177053151Y-81451931D01*
X176833816Y-81452427D01*
X176589313Y-81452811D01*
X176318512Y-81453092D01*
X176020282Y-81453276D01*
X175693496Y-81453372D01*
X175442377Y-81453392D01*
X175096112Y-81453355D01*
X174779180Y-81453242D01*
X174490421Y-81453042D01*
X174228677Y-81452748D01*
X173992786Y-81452351D01*
X173781591Y-81451842D01*
X173593932Y-81451215D01*
X173428649Y-81450459D01*
X173284582Y-81449567D01*
X173160574Y-81448530D01*
X173055463Y-81447340D01*
X172968091Y-81445988D01*
X172897298Y-81444467D01*
X172841925Y-81442768D01*
X172800813Y-81440881D01*
X172772802Y-81438800D01*
X172756732Y-81436516D01*
X172751445Y-81434020D01*
X172751440Y-81433943D01*
X172758793Y-81419074D01*
X172780235Y-81379301D01*
X172814845Y-81316261D01*
X172861702Y-81231588D01*
X172919884Y-81126921D01*
X172988469Y-81003895D01*
X173066536Y-80864147D01*
X173153164Y-80709315D01*
X173247430Y-80541033D01*
X173348413Y-80360939D01*
X173455191Y-80170669D01*
X173566843Y-79971861D01*
X173682447Y-79766149D01*
X173801082Y-79555172D01*
X173921826Y-79340565D01*
X174043757Y-79123965D01*
X174165954Y-78907009D01*
X174287495Y-78691332D01*
X174407459Y-78478573D01*
X174524923Y-78270366D01*
X174638967Y-78068350D01*
X174748668Y-77874159D01*
X174853106Y-77689431D01*
X174951358Y-77515803D01*
X175042503Y-77354911D01*
X175125619Y-77208391D01*
X175199784Y-77077880D01*
X175264078Y-76965014D01*
X175317578Y-76871431D01*
X175359363Y-76798766D01*
X175388511Y-76748656D01*
X175404101Y-76722738D01*
X175406366Y-76719478D01*
X175425010Y-76715470D01*
X175435464Y-76727101D01*
X175453224Y-76756874D01*
X175484584Y-76810455D01*
X175528611Y-76886221D01*
X175584376Y-76982546D01*
X175650948Y-77097808D01*
X175727397Y-77230382D01*
X175812791Y-77378645D01*
X175906200Y-77540973D01*
X176006694Y-77715742D01*
X176113342Y-77901328D01*
X176225214Y-78096108D01*
X176341378Y-78298457D01*
X176460905Y-78506752D01*
X176582863Y-78719369D01*
X176706323Y-78934684D01*
X176830353Y-79151073D01*
X176954023Y-79366913D01*
X177076402Y-79580579D01*
X177196560Y-79790448D01*
X177313567Y-79994897D01*
X177426491Y-80192300D01*
X177534402Y-80381035D01*
X177636369Y-80559477D01*
X177731462Y-80726003D01*
X177818751Y-80878989D01*
X177897304Y-81016810D01*
X177966191Y-81137844D01*
X178024482Y-81240467D01*
X178071245Y-81323054D01*
X178105552Y-81383982D01*
X178126469Y-81421626D01*
X178133093Y-81434334D01*
X178434005Y-81434334D01*
X178435390Y-81397364D01*
X178417388Y-81316177D01*
X178408039Y-81298056D01*
X178384410Y-81255153D01*
X178347442Y-81189108D01*
X178298074Y-81101560D01*
X178237247Y-80994150D01*
X178165902Y-80868516D01*
X178084978Y-80726300D01*
X177995417Y-80569140D01*
X177898159Y-80398676D01*
X177794144Y-80216548D01*
X177684312Y-80024396D01*
X177569604Y-79823860D01*
X177450960Y-79616579D01*
X177329321Y-79404192D01*
X177205628Y-79188341D01*
X177080820Y-78970664D01*
X176955837Y-78752801D01*
X176831622Y-78536393D01*
X176709112Y-78323078D01*
X176589251Y-78114497D01*
X176472976Y-77912289D01*
X176361230Y-77718094D01*
X176254952Y-77533552D01*
X176155083Y-77360302D01*
X176062563Y-77199985D01*
X175978333Y-77054239D01*
X175903333Y-76924706D01*
X175838503Y-76813024D01*
X175784784Y-76720833D01*
X175743116Y-76649773D01*
X175714440Y-76601484D01*
X175700389Y-76578654D01*
X175631390Y-76494856D01*
X175552389Y-76439595D01*
X175462556Y-76412324D01*
X175443695Y-76410220D01*
X175347506Y-76416777D01*
G37*
X175347506Y-76416777D02*
X175259994Y-76451779D01*
X175185138Y-76513541D01*
X175176818Y-76523121D01*
X175163747Y-76543025D01*
X175136765Y-76587775D01*
X175096800Y-76655727D01*
X175044780Y-76745236D01*
X174981632Y-76854658D01*
X174908287Y-76982350D01*
X174825671Y-77126668D01*
X174734714Y-77285967D01*
X174636343Y-77458604D01*
X174531487Y-77642934D01*
X174421073Y-77837313D01*
X174306031Y-78040098D01*
X174187289Y-78249644D01*
X174065774Y-78464307D01*
X173942415Y-78682444D01*
X173818141Y-78902411D01*
X173693879Y-79122562D01*
X173570559Y-79341255D01*
X173449107Y-79556845D01*
X173330454Y-79767688D01*
X173215525Y-79972141D01*
X173105251Y-80168559D01*
X173000560Y-80355298D01*
X172902379Y-80530714D01*
X172811636Y-80693163D01*
X172729261Y-80841002D01*
X172656182Y-80972585D01*
X172593326Y-81086270D01*
X172541622Y-81180412D01*
X172501999Y-81253367D01*
X172475384Y-81303491D01*
X172462706Y-81329140D01*
X172461854Y-81331423D01*
X172446538Y-81434023D01*
X172459810Y-81528670D01*
X172500457Y-81612439D01*
X172567270Y-81682409D01*
X172621849Y-81717870D01*
X172682833Y-81750690D01*
X175419508Y-81753276D01*
X175706588Y-81753483D01*
X175985747Y-81753557D01*
X176255431Y-81753504D01*
X176514090Y-81753330D01*
X176760171Y-81753038D01*
X176992121Y-81752635D01*
X177208390Y-81752125D01*
X177407424Y-81751514D01*
X177587673Y-81750806D01*
X177747584Y-81750007D01*
X177885604Y-81749121D01*
X178000183Y-81748155D01*
X178089768Y-81747112D01*
X178152806Y-81745998D01*
X178187747Y-81744819D01*
X178194396Y-81744153D01*
X178272097Y-81711534D01*
X178338086Y-81667383D01*
X178357465Y-81649020D01*
X178405430Y-81576614D01*
X178431928Y-81489822D01*
X178434005Y-81434334D01*
X178133093Y-81434334D01*
X178127691Y-81436797D01*
X178110674Y-81439053D01*
X178080911Y-81441109D01*
X178037273Y-81442972D01*
X177978631Y-81444652D01*
X177903856Y-81446156D01*
X177811817Y-81447491D01*
X177701387Y-81448667D01*
X177571434Y-81449691D01*
X177420830Y-81450571D01*
X177248445Y-81451315D01*
X177053151Y-81451931D01*
X176833816Y-81452427D01*
X176589313Y-81452811D01*
X176318512Y-81453092D01*
X176020282Y-81453276D01*
X175693496Y-81453372D01*
X175442377Y-81453392D01*
X175096112Y-81453355D01*
X174779180Y-81453242D01*
X174490421Y-81453042D01*
X174228677Y-81452748D01*
X173992786Y-81452351D01*
X173781591Y-81451842D01*
X173593932Y-81451215D01*
X173428649Y-81450459D01*
X173284582Y-81449567D01*
X173160574Y-81448530D01*
X173055463Y-81447340D01*
X172968091Y-81445988D01*
X172897298Y-81444467D01*
X172841925Y-81442768D01*
X172800813Y-81440881D01*
X172772802Y-81438800D01*
X172756732Y-81436516D01*
X172751445Y-81434020D01*
X172751440Y-81433943D01*
X172758793Y-81419074D01*
X172780235Y-81379301D01*
X172814845Y-81316261D01*
X172861702Y-81231588D01*
X172919884Y-81126921D01*
X172988469Y-81003895D01*
X173066536Y-80864147D01*
X173153164Y-80709315D01*
X173247430Y-80541033D01*
X173348413Y-80360939D01*
X173455191Y-80170669D01*
X173566843Y-79971861D01*
X173682447Y-79766149D01*
X173801082Y-79555172D01*
X173921826Y-79340565D01*
X174043757Y-79123965D01*
X174165954Y-78907009D01*
X174287495Y-78691332D01*
X174407459Y-78478573D01*
X174524923Y-78270366D01*
X174638967Y-78068350D01*
X174748668Y-77874159D01*
X174853106Y-77689431D01*
X174951358Y-77515803D01*
X175042503Y-77354911D01*
X175125619Y-77208391D01*
X175199784Y-77077880D01*
X175264078Y-76965014D01*
X175317578Y-76871431D01*
X175359363Y-76798766D01*
X175388511Y-76748656D01*
X175404101Y-76722738D01*
X175406366Y-76719478D01*
X175425010Y-76715470D01*
X175435464Y-76727101D01*
X175453224Y-76756874D01*
X175484584Y-76810455D01*
X175528611Y-76886221D01*
X175584376Y-76982546D01*
X175650948Y-77097808D01*
X175727397Y-77230382D01*
X175812791Y-77378645D01*
X175906200Y-77540973D01*
X176006694Y-77715742D01*
X176113342Y-77901328D01*
X176225214Y-78096108D01*
X176341378Y-78298457D01*
X176460905Y-78506752D01*
X176582863Y-78719369D01*
X176706323Y-78934684D01*
X176830353Y-79151073D01*
X176954023Y-79366913D01*
X177076402Y-79580579D01*
X177196560Y-79790448D01*
X177313567Y-79994897D01*
X177426491Y-80192300D01*
X177534402Y-80381035D01*
X177636369Y-80559477D01*
X177731462Y-80726003D01*
X177818751Y-80878989D01*
X177897304Y-81016810D01*
X177966191Y-81137844D01*
X178024482Y-81240467D01*
X178071245Y-81323054D01*
X178105552Y-81383982D01*
X178126469Y-81421626D01*
X178133093Y-81434334D01*
X178434005Y-81434334D01*
X178435390Y-81397364D01*
X178417388Y-81316177D01*
X178408039Y-81298056D01*
X178384410Y-81255153D01*
X178347442Y-81189108D01*
X178298074Y-81101560D01*
X178237247Y-80994150D01*
X178165902Y-80868516D01*
X178084978Y-80726300D01*
X177995417Y-80569140D01*
X177898159Y-80398676D01*
X177794144Y-80216548D01*
X177684312Y-80024396D01*
X177569604Y-79823860D01*
X177450960Y-79616579D01*
X177329321Y-79404192D01*
X177205628Y-79188341D01*
X177080820Y-78970664D01*
X176955837Y-78752801D01*
X176831622Y-78536393D01*
X176709112Y-78323078D01*
X176589251Y-78114497D01*
X176472976Y-77912289D01*
X176361230Y-77718094D01*
X176254952Y-77533552D01*
X176155083Y-77360302D01*
X176062563Y-77199985D01*
X175978333Y-77054239D01*
X175903333Y-76924706D01*
X175838503Y-76813024D01*
X175784784Y-76720833D01*
X175743116Y-76649773D01*
X175714440Y-76601484D01*
X175700389Y-76578654D01*
X175631390Y-76494856D01*
X175552389Y-76439595D01*
X175462556Y-76412324D01*
X175443695Y-76410220D01*
X175347506Y-76416777D01*
G36*
X175399172Y-77688249D02*
G01*
X175321750Y-77690040D01*
X175260594Y-77692766D01*
X175220450Y-77696217D01*
X175206062Y-77700170D01*
X175211341Y-77716472D01*
X175226489Y-77758499D01*
X175250475Y-77823497D01*
X175282268Y-77908714D01*
X175320836Y-78011399D01*
X175365147Y-78128797D01*
X175414171Y-78258158D01*
X175466876Y-78396727D01*
X175478861Y-78428171D01*
X175532067Y-78568108D01*
X175581626Y-78699228D01*
X175626530Y-78818812D01*
X175665774Y-78924142D01*
X175698350Y-79012502D01*
X175723252Y-79081172D01*
X175739474Y-79127434D01*
X175746009Y-79148571D01*
X175746036Y-79149592D01*
X175730898Y-79146012D01*
X175690521Y-79133093D01*
X175628291Y-79112009D01*
X175547591Y-79083934D01*
X175451806Y-79050041D01*
X175344322Y-79011503D01*
X175267047Y-78983524D01*
X175153533Y-78942537D01*
X175049379Y-78905454D01*
X174957979Y-78873441D01*
X174882730Y-78847666D01*
X174827025Y-78829298D01*
X174794260Y-78819504D01*
X174786828Y-78818324D01*
X174791511Y-78833140D01*
X174807373Y-78873481D01*
X174833391Y-78936926D01*
X174868542Y-79021056D01*
X174911804Y-79123450D01*
X174962154Y-79241689D01*
X175018568Y-79373354D01*
X175080025Y-79516022D01*
X175145501Y-79667276D01*
X175150194Y-79678091D01*
X175520415Y-80531003D01*
X175369773Y-80535359D01*
X175306854Y-80538344D01*
X175257862Y-80542900D01*
X175229010Y-80548317D01*
X175224031Y-80552048D01*
X175234776Y-80567570D01*
X175261526Y-80602770D01*
X175301389Y-80654033D01*
X175351476Y-80717740D01*
X175408894Y-80790276D01*
X175470752Y-80868022D01*
X175534160Y-80947363D01*
X175596227Y-81024681D01*
X175654062Y-81096359D01*
X175704772Y-81158780D01*
X175745469Y-81208328D01*
X175773260Y-81241384D01*
X175785254Y-81254333D01*
X175785414Y-81254392D01*
X175790229Y-81240240D01*
X175800175Y-81199836D01*
X175814448Y-81136840D01*
X175832243Y-81054911D01*
X175852757Y-80957706D01*
X175875186Y-80848883D01*
X175883241Y-80809213D01*
X175906303Y-80695469D01*
X175927693Y-80590467D01*
X175946590Y-80498199D01*
X175962173Y-80422654D01*
X175973621Y-80367823D01*
X175980114Y-80337695D01*
X175980973Y-80334069D01*
X175976231Y-80326349D01*
X175952528Y-80336909D01*
X175908482Y-80366524D01*
X175864988Y-80398865D01*
X175812756Y-80438151D01*
X175770046Y-80469381D01*
X175742290Y-80488634D01*
X175734689Y-80492887D01*
X175727780Y-80479154D01*
X175711815Y-80440352D01*
X175688131Y-80380082D01*
X175658062Y-80301942D01*
X175622944Y-80209533D01*
X175584112Y-80106454D01*
X175542902Y-79996304D01*
X175500647Y-79882683D01*
X175458684Y-79769190D01*
X175418347Y-79659425D01*
X175380973Y-79556987D01*
X175347896Y-79465475D01*
X175320451Y-79388490D01*
X175299973Y-79329629D01*
X175287798Y-79292494D01*
X175285012Y-79280645D01*
X175300489Y-79283840D01*
X175340969Y-79296089D01*
X175402747Y-79316163D01*
X175482120Y-79342832D01*
X175575385Y-79374867D01*
X175678838Y-79411039D01*
X175694730Y-79416648D01*
X175799172Y-79453460D01*
X175893733Y-79486605D01*
X175974752Y-79514816D01*
X176038568Y-79536824D01*
X176081522Y-79551361D01*
X176099954Y-79557159D01*
X176100378Y-79557196D01*
X176098178Y-79542269D01*
X176091003Y-79499907D01*
X176079311Y-79432677D01*
X176063556Y-79343148D01*
X176044193Y-79233889D01*
X176021678Y-79107469D01*
X175996466Y-78966457D01*
X175969013Y-78813422D01*
X175939774Y-78650931D01*
X175936518Y-78632863D01*
X175907040Y-78469167D01*
X175879231Y-78314389D01*
X175853553Y-78171132D01*
X175830471Y-78042002D01*
X175810449Y-77929601D01*
X175793950Y-77836535D01*
X175781437Y-77765408D01*
X175773376Y-77718823D01*
X175770230Y-77699386D01*
X175770203Y-77699040D01*
X175755737Y-77695434D01*
X175715526Y-77692295D01*
X175654316Y-77689816D01*
X175576854Y-77688188D01*
X175488115Y-77687605D01*
X175399172Y-77688249D01*
G37*
X175399172Y-77688249D02*
X175321750Y-77690040D01*
X175260594Y-77692766D01*
X175220450Y-77696217D01*
X175206062Y-77700170D01*
X175211341Y-77716472D01*
X175226489Y-77758499D01*
X175250475Y-77823497D01*
X175282268Y-77908714D01*
X175320836Y-78011399D01*
X175365147Y-78128797D01*
X175414171Y-78258158D01*
X175466876Y-78396727D01*
X175478861Y-78428171D01*
X175532067Y-78568108D01*
X175581626Y-78699228D01*
X175626530Y-78818812D01*
X175665774Y-78924142D01*
X175698350Y-79012502D01*
X175723252Y-79081172D01*
X175739474Y-79127434D01*
X175746009Y-79148571D01*
X175746036Y-79149592D01*
X175730898Y-79146012D01*
X175690521Y-79133093D01*
X175628291Y-79112009D01*
X175547591Y-79083934D01*
X175451806Y-79050041D01*
X175344322Y-79011503D01*
X175267047Y-78983524D01*
X175153533Y-78942537D01*
X175049379Y-78905454D01*
X174957979Y-78873441D01*
X174882730Y-78847666D01*
X174827025Y-78829298D01*
X174794260Y-78819504D01*
X174786828Y-78818324D01*
X174791511Y-78833140D01*
X174807373Y-78873481D01*
X174833391Y-78936926D01*
X174868542Y-79021056D01*
X174911804Y-79123450D01*
X174962154Y-79241689D01*
X175018568Y-79373354D01*
X175080025Y-79516022D01*
X175145501Y-79667276D01*
X175150194Y-79678091D01*
X175520415Y-80531003D01*
X175369773Y-80535359D01*
X175306854Y-80538344D01*
X175257862Y-80542900D01*
X175229010Y-80548317D01*
X175224031Y-80552048D01*
X175234776Y-80567570D01*
X175261526Y-80602770D01*
X175301389Y-80654033D01*
X175351476Y-80717740D01*
X175408894Y-80790276D01*
X175470752Y-80868022D01*
X175534160Y-80947363D01*
X175596227Y-81024681D01*
X175654062Y-81096359D01*
X175704772Y-81158780D01*
X175745469Y-81208328D01*
X175773260Y-81241384D01*
X175785254Y-81254333D01*
X175785414Y-81254392D01*
X175790229Y-81240240D01*
X175800175Y-81199836D01*
X175814448Y-81136840D01*
X175832243Y-81054911D01*
X175852757Y-80957706D01*
X175875186Y-80848883D01*
X175883241Y-80809213D01*
X175906303Y-80695469D01*
X175927693Y-80590467D01*
X175946590Y-80498199D01*
X175962173Y-80422654D01*
X175973621Y-80367823D01*
X175980114Y-80337695D01*
X175980973Y-80334069D01*
X175976231Y-80326349D01*
X175952528Y-80336909D01*
X175908482Y-80366524D01*
X175864988Y-80398865D01*
X175812756Y-80438151D01*
X175770046Y-80469381D01*
X175742290Y-80488634D01*
X175734689Y-80492887D01*
X175727780Y-80479154D01*
X175711815Y-80440352D01*
X175688131Y-80380082D01*
X175658062Y-80301942D01*
X175622944Y-80209533D01*
X175584112Y-80106454D01*
X175542902Y-79996304D01*
X175500647Y-79882683D01*
X175458684Y-79769190D01*
X175418347Y-79659425D01*
X175380973Y-79556987D01*
X175347896Y-79465475D01*
X175320451Y-79388490D01*
X175299973Y-79329629D01*
X175287798Y-79292494D01*
X175285012Y-79280645D01*
X175300489Y-79283840D01*
X175340969Y-79296089D01*
X175402747Y-79316163D01*
X175482120Y-79342832D01*
X175575385Y-79374867D01*
X175678838Y-79411039D01*
X175694730Y-79416648D01*
X175799172Y-79453460D01*
X175893733Y-79486605D01*
X175974752Y-79514816D01*
X176038568Y-79536824D01*
X176081522Y-79551361D01*
X176099954Y-79557159D01*
X176100378Y-79557196D01*
X176098178Y-79542269D01*
X176091003Y-79499907D01*
X176079311Y-79432677D01*
X176063556Y-79343148D01*
X176044193Y-79233889D01*
X176021678Y-79107469D01*
X175996466Y-78966457D01*
X175969013Y-78813422D01*
X175939774Y-78650931D01*
X175936518Y-78632863D01*
X175907040Y-78469167D01*
X175879231Y-78314389D01*
X175853553Y-78171132D01*
X175830471Y-78042002D01*
X175810449Y-77929601D01*
X175793950Y-77836535D01*
X175781437Y-77765408D01*
X175773376Y-77718823D01*
X175770230Y-77699386D01*
X175770203Y-77699040D01*
X175755737Y-77695434D01*
X175715526Y-77692295D01*
X175654316Y-77689816D01*
X175576854Y-77688188D01*
X175488115Y-77687605D01*
X175399172Y-77688249D01*
D13*
X189350000Y-94550000D02*
X189350000Y-93150000D01*
X188650000Y-92450000D02*
X188050000Y-92450000D01*
X187350000Y-93150000D02*
X187350000Y-94550000D01*
X188050000Y-95250000D02*
X188650000Y-95250000D01*
X189350000Y-93150000D02*
G75*
G03*
X188650000Y-92450000I-700000J0D01*
G01*
X188050000Y-92450000D02*
G75*
G03*
X187350000Y-93150000I0J-700000D01*
G01*
X187350000Y-94550000D02*
G75*
G03*
X188050000Y-95250000I700000J0D01*
G01*
X188650000Y-95250000D02*
G75*
G03*
X189350000Y-94550000I0J700000D01*
G01*
X185094000Y-95216000D02*
X185694000Y-95216000D01*
X184394000Y-93116000D02*
X184394000Y-94516000D01*
X185694000Y-92416000D02*
X185094000Y-92416000D01*
X186394000Y-94516000D02*
X186394000Y-93116000D01*
X185694000Y-95216000D02*
G75*
G03*
X186394000Y-94516000I0J700000D01*
G01*
X184394000Y-94516000D02*
G75*
G03*
X185094000Y-95216000I700000J0D01*
G01*
X185094000Y-92416000D02*
G75*
G03*
X184394000Y-93116000I0J-700000D01*
G01*
X186394000Y-93116000D02*
G75*
G03*
X185694000Y-92416000I-700000J0D01*
G01*
X127514000Y-89000000D02*
X126904000Y-89000000D01*
X127514000Y-89000000D02*
X127514000Y-96620000D01*
X127514000Y-72380000D02*
X127514000Y-73000000D01*
X129634000Y-72380000D02*
X127514000Y-72380000D01*
X143754000Y-72380000D02*
X141634000Y-72380000D01*
X143754000Y-73000000D02*
X143754000Y-72380000D01*
X143754000Y-96620000D02*
X143754000Y-89000000D01*
X127514000Y-96620000D02*
X143754000Y-96620000D01*
M02*
