G04 #@! TF.GenerationSoftware,KiCad,Pcbnew,5.1.9-73d0e3b20d~88~ubuntu18.04.1*
G04 #@! TF.CreationDate,2021-03-27T22:47:01+02:00*
G04 #@! TF.ProjectId,,58585858-5858-4585-9858-585858585858,1*
G04 #@! TF.SameCoordinates,Original*
G04 #@! TF.FileFunction,Soldermask,Bot*
G04 #@! TF.FilePolarity,Negative*
%FSLAX46Y46*%
G04 Gerber Fmt 4.6, Leading zero omitted, Abs format (unit mm)*
G04 Created by KiCad (PCBNEW 5.1.9-73d0e3b20d~88~ubuntu18.04.1) date 2021-03-27 22:47:01*
%MOMM*%
%LPD*%
G01*
G04 APERTURE LIST*
%ADD10R,2.500000X1.000000*%
%ADD11R,1.000000X1.800000*%
%ADD12R,3.500000X3.500000*%
%ADD13C,3.000000*%
%ADD14C,0.100000*%
%ADD15O,1.700000X2.000000*%
%ADD16C,0.700000*%
%ADD17C,4.400000*%
%ADD18O,1.700000X1.700000*%
%ADD19R,1.700000X1.700000*%
%ADD20R,3.000000X3.000000*%
%ADD21O,1.200000X1.900000*%
%ADD22C,1.450000*%
%ADD23C,2.600000*%
%ADD24C,0.500000*%
G04 APERTURE END LIST*
D10*
X143234000Y-139500000D03*
X143234000Y-137500000D03*
X143234000Y-135500000D03*
X143234000Y-133500000D03*
X143234000Y-131500000D03*
X143234000Y-129500000D03*
X143234000Y-127500000D03*
X143234000Y-125500000D03*
D11*
X140634000Y-124000000D03*
X138634000Y-124000000D03*
X136634000Y-124000000D03*
X134634000Y-124000000D03*
X132634000Y-124000000D03*
X130634000Y-124000000D03*
D10*
X128034000Y-125500000D03*
X128034000Y-127500000D03*
X128034000Y-129500000D03*
X128034000Y-131500000D03*
X128034000Y-133500000D03*
X128034000Y-135500000D03*
X128034000Y-137500000D03*
X128034000Y-139500000D03*
D12*
X106450000Y-111025000D03*
G36*
G01*
X105450000Y-103525000D02*
X107450000Y-103525000D01*
G75*
G02*
X108200000Y-104275000I0J-750000D01*
G01*
X108200000Y-105775000D01*
G75*
G02*
X107450000Y-106525000I-750000J0D01*
G01*
X105450000Y-106525000D01*
G75*
G02*
X104700000Y-105775000I0J750000D01*
G01*
X104700000Y-104275000D01*
G75*
G02*
X105450000Y-103525000I750000J0D01*
G01*
G37*
G36*
G01*
X100875000Y-106275000D02*
X102625000Y-106275000D01*
G75*
G02*
X103500000Y-107150000I0J-875000D01*
G01*
X103500000Y-108900000D01*
G75*
G02*
X102625000Y-109775000I-875000J0D01*
G01*
X100875000Y-109775000D01*
G75*
G02*
X100000000Y-108900000I0J875000D01*
G01*
X100000000Y-107150000D01*
G75*
G02*
X100875000Y-106275000I875000J0D01*
G01*
G37*
D13*
X166370000Y-128000000D03*
X160370000Y-126000000D03*
X160370000Y-113800000D03*
X172370000Y-113800000D03*
X172370000Y-126000000D03*
D14*
G36*
X184644602Y-144666000D02*
G01*
X184644602Y-144641466D01*
X184649412Y-144592635D01*
X184658984Y-144544510D01*
X184673228Y-144497555D01*
X184692005Y-144452222D01*
X184715136Y-144408949D01*
X184742396Y-144368150D01*
X184773524Y-144330221D01*
X184808221Y-144295524D01*
X184846150Y-144264396D01*
X184886949Y-144237136D01*
X184930222Y-144214005D01*
X184975555Y-144195228D01*
X185022510Y-144180984D01*
X185070635Y-144171412D01*
X185119466Y-144166602D01*
X185144000Y-144166602D01*
X185144000Y-144166000D01*
X185644000Y-144166000D01*
X185644000Y-144166602D01*
X185668534Y-144166602D01*
X185717365Y-144171412D01*
X185765490Y-144180984D01*
X185812445Y-144195228D01*
X185857778Y-144214005D01*
X185901051Y-144237136D01*
X185941850Y-144264396D01*
X185979779Y-144295524D01*
X186014476Y-144330221D01*
X186045604Y-144368150D01*
X186072864Y-144408949D01*
X186095995Y-144452222D01*
X186114772Y-144497555D01*
X186129016Y-144544510D01*
X186138588Y-144592635D01*
X186143398Y-144641466D01*
X186143398Y-144666000D01*
X186144000Y-144666000D01*
X186144000Y-145166000D01*
X184644000Y-145166000D01*
X184644000Y-144666000D01*
X184644602Y-144666000D01*
G37*
G36*
X186144000Y-145466000D02*
G01*
X186144000Y-145966000D01*
X186143398Y-145966000D01*
X186143398Y-145990534D01*
X186138588Y-146039365D01*
X186129016Y-146087490D01*
X186114772Y-146134445D01*
X186095995Y-146179778D01*
X186072864Y-146223051D01*
X186045604Y-146263850D01*
X186014476Y-146301779D01*
X185979779Y-146336476D01*
X185941850Y-146367604D01*
X185901051Y-146394864D01*
X185857778Y-146417995D01*
X185812445Y-146436772D01*
X185765490Y-146451016D01*
X185717365Y-146460588D01*
X185668534Y-146465398D01*
X185644000Y-146465398D01*
X185644000Y-146466000D01*
X185144000Y-146466000D01*
X185144000Y-146465398D01*
X185119466Y-146465398D01*
X185070635Y-146460588D01*
X185022510Y-146451016D01*
X184975555Y-146436772D01*
X184930222Y-146417995D01*
X184886949Y-146394864D01*
X184846150Y-146367604D01*
X184808221Y-146336476D01*
X184773524Y-146301779D01*
X184742396Y-146263850D01*
X184715136Y-146223051D01*
X184692005Y-146179778D01*
X184673228Y-146134445D01*
X184658984Y-146087490D01*
X184649412Y-146039365D01*
X184644602Y-145990534D01*
X184644602Y-145966000D01*
X184644000Y-145966000D01*
X184644000Y-145466000D01*
X186144000Y-145466000D01*
G37*
G36*
G01*
X153811000Y-105596000D02*
X153811000Y-107096000D01*
G75*
G02*
X153561000Y-107346000I-250000J0D01*
G01*
X152361000Y-107346000D01*
G75*
G02*
X152111000Y-107096000I0J250000D01*
G01*
X152111000Y-105596000D01*
G75*
G02*
X152361000Y-105346000I250000J0D01*
G01*
X153561000Y-105346000D01*
G75*
G02*
X153811000Y-105596000I0J-250000D01*
G01*
G37*
D15*
X150461000Y-106346000D03*
D16*
X100116726Y-102333274D03*
X98950000Y-101850000D03*
X97783274Y-102333274D03*
X97300000Y-103500000D03*
X97783274Y-104666726D03*
X98950000Y-105150000D03*
X100116726Y-104666726D03*
X100600000Y-103500000D03*
D17*
X98950000Y-103500000D03*
D16*
X194116726Y-144833274D03*
X192950000Y-144350000D03*
X191783274Y-144833274D03*
X191300000Y-146000000D03*
X191783274Y-147166726D03*
X192950000Y-147650000D03*
X194116726Y-147166726D03*
X194600000Y-146000000D03*
D17*
X192950000Y-146000000D03*
G36*
G01*
X127395000Y-105596000D02*
X127395000Y-107096000D01*
G75*
G02*
X127145000Y-107346000I-250000J0D01*
G01*
X125945000Y-107346000D01*
G75*
G02*
X125695000Y-107096000I0J250000D01*
G01*
X125695000Y-105596000D01*
G75*
G02*
X125945000Y-105346000I250000J0D01*
G01*
X127145000Y-105346000D01*
G75*
G02*
X127395000Y-105596000I0J-250000D01*
G01*
G37*
D15*
X124045000Y-106346000D03*
D18*
X112840000Y-119150000D03*
D19*
X110300000Y-119150000D03*
D15*
X141571000Y-106346000D03*
G36*
G01*
X144921000Y-105596000D02*
X144921000Y-107096000D01*
G75*
G02*
X144671000Y-107346000I-250000J0D01*
G01*
X143471000Y-107346000D01*
G75*
G02*
X143221000Y-107096000I0J250000D01*
G01*
X143221000Y-105596000D01*
G75*
G02*
X143471000Y-105346000I250000J0D01*
G01*
X144671000Y-105346000D01*
G75*
G02*
X144921000Y-105596000I0J-250000D01*
G01*
G37*
D20*
X161210000Y-104510000D03*
D13*
X166290000Y-104510000D03*
X171370000Y-104510000D03*
X190370000Y-126000000D03*
X190370000Y-113800000D03*
X178370000Y-113800000D03*
X178370000Y-126000000D03*
X184370000Y-128000000D03*
D19*
X153950000Y-130460000D03*
D18*
X153950000Y-133000000D03*
X153950000Y-135540000D03*
X153950000Y-138080000D03*
D19*
X158450000Y-135500000D03*
D18*
X158450000Y-138040000D03*
X158450000Y-140580000D03*
X158450000Y-143120000D03*
X118450000Y-128000000D03*
X118450000Y-130540000D03*
X118450000Y-133080000D03*
X118450000Y-135620000D03*
X118450000Y-138160000D03*
D19*
X118450000Y-140700000D03*
D21*
X112950000Y-102012500D03*
X119950000Y-102012500D03*
D22*
X113950000Y-104712500D03*
X118950000Y-104712500D03*
D13*
X188620000Y-104510000D03*
X183540000Y-104510000D03*
D20*
X178460000Y-104510000D03*
D23*
X193450000Y-103000000D03*
D18*
X152670000Y-116700000D03*
X150130000Y-116700000D03*
X147590000Y-116700000D03*
D19*
X145050000Y-116700000D03*
D17*
X98950000Y-146000000D03*
D16*
X100600000Y-146000000D03*
X100116726Y-147166726D03*
X98950000Y-147650000D03*
X97783274Y-147166726D03*
X97300000Y-146000000D03*
X97783274Y-144833274D03*
X98950000Y-144350000D03*
X100116726Y-144833274D03*
D15*
X132681000Y-106346000D03*
G36*
G01*
X136031000Y-105596000D02*
X136031000Y-107096000D01*
G75*
G02*
X135781000Y-107346000I-250000J0D01*
G01*
X134581000Y-107346000D01*
G75*
G02*
X134331000Y-107096000I0J250000D01*
G01*
X134331000Y-105596000D01*
G75*
G02*
X134581000Y-105346000I250000J0D01*
G01*
X135781000Y-105346000D01*
G75*
G02*
X136031000Y-105596000I0J-250000D01*
G01*
G37*
D14*
G36*
X189100000Y-145500000D02*
G01*
X189100000Y-146000000D01*
X189099398Y-146000000D01*
X189099398Y-146024534D01*
X189094588Y-146073365D01*
X189085016Y-146121490D01*
X189070772Y-146168445D01*
X189051995Y-146213778D01*
X189028864Y-146257051D01*
X189001604Y-146297850D01*
X188970476Y-146335779D01*
X188935779Y-146370476D01*
X188897850Y-146401604D01*
X188857051Y-146428864D01*
X188813778Y-146451995D01*
X188768445Y-146470772D01*
X188721490Y-146485016D01*
X188673365Y-146494588D01*
X188624534Y-146499398D01*
X188600000Y-146499398D01*
X188600000Y-146500000D01*
X188100000Y-146500000D01*
X188100000Y-146499398D01*
X188075466Y-146499398D01*
X188026635Y-146494588D01*
X187978510Y-146485016D01*
X187931555Y-146470772D01*
X187886222Y-146451995D01*
X187842949Y-146428864D01*
X187802150Y-146401604D01*
X187764221Y-146370476D01*
X187729524Y-146335779D01*
X187698396Y-146297850D01*
X187671136Y-146257051D01*
X187648005Y-146213778D01*
X187629228Y-146168445D01*
X187614984Y-146121490D01*
X187605412Y-146073365D01*
X187600602Y-146024534D01*
X187600602Y-146000000D01*
X187600000Y-146000000D01*
X187600000Y-145500000D01*
X189100000Y-145500000D01*
G37*
G36*
X187600602Y-144700000D02*
G01*
X187600602Y-144675466D01*
X187605412Y-144626635D01*
X187614984Y-144578510D01*
X187629228Y-144531555D01*
X187648005Y-144486222D01*
X187671136Y-144442949D01*
X187698396Y-144402150D01*
X187729524Y-144364221D01*
X187764221Y-144329524D01*
X187802150Y-144298396D01*
X187842949Y-144271136D01*
X187886222Y-144248005D01*
X187931555Y-144229228D01*
X187978510Y-144214984D01*
X188026635Y-144205412D01*
X188075466Y-144200602D01*
X188100000Y-144200602D01*
X188100000Y-144200000D01*
X188600000Y-144200000D01*
X188600000Y-144200602D01*
X188624534Y-144200602D01*
X188673365Y-144205412D01*
X188721490Y-144214984D01*
X188768445Y-144229228D01*
X188813778Y-144248005D01*
X188857051Y-144271136D01*
X188897850Y-144298396D01*
X188935779Y-144329524D01*
X188970476Y-144364221D01*
X189001604Y-144402150D01*
X189028864Y-144442949D01*
X189051995Y-144486222D01*
X189070772Y-144531555D01*
X189085016Y-144578510D01*
X189094588Y-144626635D01*
X189099398Y-144675466D01*
X189099398Y-144700000D01*
X189100000Y-144700000D01*
X189100000Y-145200000D01*
X187600000Y-145200000D01*
X187600000Y-144700000D01*
X187600602Y-144700000D01*
G37*
D24*
X154750000Y-100300000D03*
X154000000Y-97700000D03*
X154000000Y-100300000D03*
X153250000Y-100300000D03*
X154750000Y-97700000D03*
X153250000Y-97700000D03*
X152475000Y-100300000D03*
X151725000Y-97700000D03*
X151725000Y-100300000D03*
X150975000Y-100300000D03*
X152475000Y-97700000D03*
X150975000Y-97700000D03*
X150200000Y-100300000D03*
X149450000Y-97700000D03*
X149450000Y-100300000D03*
X148700000Y-100300000D03*
X150200000Y-97700000D03*
X148700000Y-97700000D03*
X147925000Y-100300000D03*
X147175000Y-97700000D03*
X147175000Y-100300000D03*
X146425000Y-100300000D03*
X147925000Y-97700000D03*
X146425000Y-97700000D03*
X145650000Y-100300000D03*
X144900000Y-97700000D03*
X144900000Y-100300000D03*
X144150000Y-100300000D03*
X145650000Y-97700000D03*
X144150000Y-97700000D03*
X143400000Y-100300000D03*
X142650000Y-97700000D03*
X142650000Y-100300000D03*
X141900000Y-100300000D03*
X143400000Y-97700000D03*
X141900000Y-97700000D03*
X141150000Y-100300000D03*
X140400000Y-97700000D03*
X140400000Y-100300000D03*
X139650000Y-100300000D03*
X141150000Y-97700000D03*
X139650000Y-97700000D03*
X138900000Y-100300000D03*
X138150000Y-100300000D03*
X137400000Y-100300000D03*
X138900000Y-97700000D03*
X138150000Y-97700000D03*
X137400000Y-97700000D03*
X183800000Y-97700000D03*
X183800000Y-100300000D03*
X184550000Y-97700000D03*
X183050000Y-97700000D03*
X183050000Y-100300000D03*
X184550000Y-100300000D03*
X108850000Y-100300000D03*
X107350000Y-100300000D03*
X107350000Y-97700000D03*
X108850000Y-97700000D03*
X108100000Y-100300000D03*
X108100000Y-97700000D03*
G36*
G01*
X144921000Y-54096000D02*
X144921000Y-55596000D01*
G75*
G02*
X144671000Y-55846000I-250000J0D01*
G01*
X143471000Y-55846000D01*
G75*
G02*
X143221000Y-55596000I0J250000D01*
G01*
X143221000Y-54096000D01*
G75*
G02*
X143471000Y-53846000I250000J0D01*
G01*
X144671000Y-53846000D01*
G75*
G02*
X144921000Y-54096000I0J-250000D01*
G01*
G37*
D15*
X141571000Y-54846000D03*
G36*
G01*
X100875000Y-54775000D02*
X102625000Y-54775000D01*
G75*
G02*
X103500000Y-55650000I0J-875000D01*
G01*
X103500000Y-57400000D01*
G75*
G02*
X102625000Y-58275000I-875000J0D01*
G01*
X100875000Y-58275000D01*
G75*
G02*
X100000000Y-57400000I0J875000D01*
G01*
X100000000Y-55650000D01*
G75*
G02*
X100875000Y-54775000I875000J0D01*
G01*
G37*
G36*
G01*
X105450000Y-52025000D02*
X107450000Y-52025000D01*
G75*
G02*
X108200000Y-52775000I0J-750000D01*
G01*
X108200000Y-54275000D01*
G75*
G02*
X107450000Y-55025000I-750000J0D01*
G01*
X105450000Y-55025000D01*
G75*
G02*
X104700000Y-54275000I0J750000D01*
G01*
X104700000Y-52775000D01*
G75*
G02*
X105450000Y-52025000I750000J0D01*
G01*
G37*
D12*
X106450000Y-59525000D03*
D15*
X124045000Y-54846000D03*
G36*
G01*
X127395000Y-54096000D02*
X127395000Y-55596000D01*
G75*
G02*
X127145000Y-55846000I-250000J0D01*
G01*
X125945000Y-55846000D01*
G75*
G02*
X125695000Y-55596000I0J250000D01*
G01*
X125695000Y-54096000D01*
G75*
G02*
X125945000Y-53846000I250000J0D01*
G01*
X127145000Y-53846000D01*
G75*
G02*
X127395000Y-54096000I0J-250000D01*
G01*
G37*
D23*
X193450000Y-51500000D03*
D13*
X184370000Y-76500000D03*
X178370000Y-74500000D03*
X178370000Y-62300000D03*
X190370000Y-62300000D03*
X190370000Y-74500000D03*
D19*
X145050000Y-65200000D03*
D18*
X147590000Y-65200000D03*
X150130000Y-65200000D03*
X152670000Y-65200000D03*
D13*
X172370000Y-74500000D03*
X172370000Y-62300000D03*
X160370000Y-62300000D03*
X160370000Y-74500000D03*
X166370000Y-76500000D03*
D18*
X153950000Y-86580000D03*
X153950000Y-84040000D03*
X153950000Y-81500000D03*
D19*
X153950000Y-78960000D03*
D15*
X150461000Y-54846000D03*
G36*
G01*
X153811000Y-54096000D02*
X153811000Y-55596000D01*
G75*
G02*
X153561000Y-55846000I-250000J0D01*
G01*
X152361000Y-55846000D01*
G75*
G02*
X152111000Y-55596000I0J250000D01*
G01*
X152111000Y-54096000D01*
G75*
G02*
X152361000Y-53846000I250000J0D01*
G01*
X153561000Y-53846000D01*
G75*
G02*
X153811000Y-54096000I0J-250000D01*
G01*
G37*
D17*
X98950000Y-52000000D03*
D16*
X100600000Y-52000000D03*
X100116726Y-53166726D03*
X98950000Y-53650000D03*
X97783274Y-53166726D03*
X97300000Y-52000000D03*
X97783274Y-50833274D03*
X98950000Y-50350000D03*
X100116726Y-50833274D03*
X100116726Y-93333274D03*
X98950000Y-92850000D03*
X97783274Y-93333274D03*
X97300000Y-94500000D03*
X97783274Y-95666726D03*
X98950000Y-96150000D03*
X100116726Y-95666726D03*
X100600000Y-94500000D03*
D17*
X98950000Y-94500000D03*
X192950000Y-94500000D03*
D16*
X194600000Y-94500000D03*
X194116726Y-95666726D03*
X192950000Y-96150000D03*
X191783274Y-95666726D03*
X191300000Y-94500000D03*
X191783274Y-93333274D03*
X192950000Y-92850000D03*
X194116726Y-93333274D03*
D13*
X171370000Y-53010000D03*
X166290000Y-53010000D03*
D20*
X161210000Y-53010000D03*
D19*
X118450000Y-89200000D03*
D18*
X118450000Y-86660000D03*
X118450000Y-84120000D03*
X118450000Y-81580000D03*
X118450000Y-79040000D03*
X118450000Y-76500000D03*
X158450000Y-91620000D03*
X158450000Y-89080000D03*
X158450000Y-86540000D03*
D19*
X158450000Y-84000000D03*
D22*
X118950000Y-53212500D03*
X113950000Y-53212500D03*
D21*
X119950000Y-50512500D03*
X112950000Y-50512500D03*
D19*
X110300000Y-67650000D03*
D18*
X112840000Y-67650000D03*
D20*
X178460000Y-53010000D03*
D13*
X183540000Y-53010000D03*
X188620000Y-53010000D03*
G36*
G01*
X136031000Y-54096000D02*
X136031000Y-55596000D01*
G75*
G02*
X135781000Y-55846000I-250000J0D01*
G01*
X134581000Y-55846000D01*
G75*
G02*
X134331000Y-55596000I0J250000D01*
G01*
X134331000Y-54096000D01*
G75*
G02*
X134581000Y-53846000I250000J0D01*
G01*
X135781000Y-53846000D01*
G75*
G02*
X136031000Y-54096000I0J-250000D01*
G01*
G37*
D15*
X132681000Y-54846000D03*
D14*
G36*
X187600602Y-93200000D02*
G01*
X187600602Y-93175466D01*
X187605412Y-93126635D01*
X187614984Y-93078510D01*
X187629228Y-93031555D01*
X187648005Y-92986222D01*
X187671136Y-92942949D01*
X187698396Y-92902150D01*
X187729524Y-92864221D01*
X187764221Y-92829524D01*
X187802150Y-92798396D01*
X187842949Y-92771136D01*
X187886222Y-92748005D01*
X187931555Y-92729228D01*
X187978510Y-92714984D01*
X188026635Y-92705412D01*
X188075466Y-92700602D01*
X188100000Y-92700602D01*
X188100000Y-92700000D01*
X188600000Y-92700000D01*
X188600000Y-92700602D01*
X188624534Y-92700602D01*
X188673365Y-92705412D01*
X188721490Y-92714984D01*
X188768445Y-92729228D01*
X188813778Y-92748005D01*
X188857051Y-92771136D01*
X188897850Y-92798396D01*
X188935779Y-92829524D01*
X188970476Y-92864221D01*
X189001604Y-92902150D01*
X189028864Y-92942949D01*
X189051995Y-92986222D01*
X189070772Y-93031555D01*
X189085016Y-93078510D01*
X189094588Y-93126635D01*
X189099398Y-93175466D01*
X189099398Y-93200000D01*
X189100000Y-93200000D01*
X189100000Y-93700000D01*
X187600000Y-93700000D01*
X187600000Y-93200000D01*
X187600602Y-93200000D01*
G37*
G36*
X189100000Y-94000000D02*
G01*
X189100000Y-94500000D01*
X189099398Y-94500000D01*
X189099398Y-94524534D01*
X189094588Y-94573365D01*
X189085016Y-94621490D01*
X189070772Y-94668445D01*
X189051995Y-94713778D01*
X189028864Y-94757051D01*
X189001604Y-94797850D01*
X188970476Y-94835779D01*
X188935779Y-94870476D01*
X188897850Y-94901604D01*
X188857051Y-94928864D01*
X188813778Y-94951995D01*
X188768445Y-94970772D01*
X188721490Y-94985016D01*
X188673365Y-94994588D01*
X188624534Y-94999398D01*
X188600000Y-94999398D01*
X188600000Y-95000000D01*
X188100000Y-95000000D01*
X188100000Y-94999398D01*
X188075466Y-94999398D01*
X188026635Y-94994588D01*
X187978510Y-94985016D01*
X187931555Y-94970772D01*
X187886222Y-94951995D01*
X187842949Y-94928864D01*
X187802150Y-94901604D01*
X187764221Y-94870476D01*
X187729524Y-94835779D01*
X187698396Y-94797850D01*
X187671136Y-94757051D01*
X187648005Y-94713778D01*
X187629228Y-94668445D01*
X187614984Y-94621490D01*
X187605412Y-94573365D01*
X187600602Y-94524534D01*
X187600602Y-94500000D01*
X187600000Y-94500000D01*
X187600000Y-94000000D01*
X189100000Y-94000000D01*
G37*
G36*
X186144000Y-93966000D02*
G01*
X186144000Y-94466000D01*
X186143398Y-94466000D01*
X186143398Y-94490534D01*
X186138588Y-94539365D01*
X186129016Y-94587490D01*
X186114772Y-94634445D01*
X186095995Y-94679778D01*
X186072864Y-94723051D01*
X186045604Y-94763850D01*
X186014476Y-94801779D01*
X185979779Y-94836476D01*
X185941850Y-94867604D01*
X185901051Y-94894864D01*
X185857778Y-94917995D01*
X185812445Y-94936772D01*
X185765490Y-94951016D01*
X185717365Y-94960588D01*
X185668534Y-94965398D01*
X185644000Y-94965398D01*
X185644000Y-94966000D01*
X185144000Y-94966000D01*
X185144000Y-94965398D01*
X185119466Y-94965398D01*
X185070635Y-94960588D01*
X185022510Y-94951016D01*
X184975555Y-94936772D01*
X184930222Y-94917995D01*
X184886949Y-94894864D01*
X184846150Y-94867604D01*
X184808221Y-94836476D01*
X184773524Y-94801779D01*
X184742396Y-94763850D01*
X184715136Y-94723051D01*
X184692005Y-94679778D01*
X184673228Y-94634445D01*
X184658984Y-94587490D01*
X184649412Y-94539365D01*
X184644602Y-94490534D01*
X184644602Y-94466000D01*
X184644000Y-94466000D01*
X184644000Y-93966000D01*
X186144000Y-93966000D01*
G37*
G36*
X184644602Y-93166000D02*
G01*
X184644602Y-93141466D01*
X184649412Y-93092635D01*
X184658984Y-93044510D01*
X184673228Y-92997555D01*
X184692005Y-92952222D01*
X184715136Y-92908949D01*
X184742396Y-92868150D01*
X184773524Y-92830221D01*
X184808221Y-92795524D01*
X184846150Y-92764396D01*
X184886949Y-92737136D01*
X184930222Y-92714005D01*
X184975555Y-92695228D01*
X185022510Y-92680984D01*
X185070635Y-92671412D01*
X185119466Y-92666602D01*
X185144000Y-92666602D01*
X185144000Y-92666000D01*
X185644000Y-92666000D01*
X185644000Y-92666602D01*
X185668534Y-92666602D01*
X185717365Y-92671412D01*
X185765490Y-92680984D01*
X185812445Y-92695228D01*
X185857778Y-92714005D01*
X185901051Y-92737136D01*
X185941850Y-92764396D01*
X185979779Y-92795524D01*
X186014476Y-92830221D01*
X186045604Y-92868150D01*
X186072864Y-92908949D01*
X186095995Y-92952222D01*
X186114772Y-92997555D01*
X186129016Y-93044510D01*
X186138588Y-93092635D01*
X186143398Y-93141466D01*
X186143398Y-93166000D01*
X186144000Y-93166000D01*
X186144000Y-93666000D01*
X184644000Y-93666000D01*
X184644000Y-93166000D01*
X184644602Y-93166000D01*
G37*
D10*
X128034000Y-88000000D03*
X128034000Y-86000000D03*
X128034000Y-84000000D03*
X128034000Y-82000000D03*
X128034000Y-80000000D03*
X128034000Y-78000000D03*
X128034000Y-76000000D03*
X128034000Y-74000000D03*
D11*
X130634000Y-72500000D03*
X132634000Y-72500000D03*
X134634000Y-72500000D03*
X136634000Y-72500000D03*
X138634000Y-72500000D03*
X140634000Y-72500000D03*
D10*
X143234000Y-74000000D03*
X143234000Y-76000000D03*
X143234000Y-78000000D03*
X143234000Y-80000000D03*
X143234000Y-82000000D03*
X143234000Y-84000000D03*
X143234000Y-86000000D03*
X143234000Y-88000000D03*
M02*
