M48
; DRILL file {KiCad 5.1.9-73d0e3b20d~88~ubuntu18.04.1} date Sat Mar 27 22:47:04 2021
; FORMAT={-:-/ absolute / inch / decimal}
; #@! TF.CreationDate,2021-03-27T22:47:04+02:00
; #@! TF.GenerationSoftware,Kicad,Pcbnew,5.1.9-73d0e3b20d~88~ubuntu18.04.1
; #@! TF.FileFunction,Plated,1,2,PTH
FMAT,2
INCH
T1C0.0157
T2C0.0236
T3C0.0335
T4C0.0394
T5C0.0512
T6C0.0598
T7C0.0866
%
G90
G05
T1
X3.8051Y-3.1437
X3.8051Y-5.1713
X3.8071Y-2.9203
X3.8071Y-3.0945
X3.8071Y-4.9478
X3.8071Y-5.122
X3.813Y-3.1909
X3.813Y-5.2185
X3.815Y-3.2303
X3.815Y-5.2579
X3.8169Y-3.2677
X3.8169Y-3.6102
X3.8169Y-5.2953
X3.8169Y-5.6378
X3.8307Y-2.0472
X3.8307Y-3.7205
X3.8307Y-4.0748
X3.8307Y-5.748
X3.8497Y-2.0013
X3.8497Y-2.0932
X3.8497Y-3.6745
X3.8497Y-3.7664
X3.8497Y-4.0289
X3.8497Y-4.1207
X3.8497Y-5.7021
X3.8497Y-5.794
X3.8622Y-3.1909
X3.8622Y-3.2323
X3.8622Y-5.2185
X3.8622Y-5.2598
X3.877Y-2.8484
X3.877Y-4.876
X3.8957Y-1.9823
X3.8957Y-2.1122
X3.8957Y-3.6555
X3.8957Y-3.7854
X3.8957Y-4.0098
X3.8957Y-4.1398
X3.8957Y-5.6831
X3.8957Y-5.813
X3.9272Y-2.8031
X3.9272Y-4.8307
X3.9301Y-2.4823
X3.9301Y-4.5098
X3.935Y-3.185
X3.935Y-3.2244
X3.935Y-5.2126
X3.935Y-5.252
X3.9416Y-2.0013
X3.9416Y-2.0932
X3.9416Y-3.6745
X3.9416Y-3.7664
X3.9416Y-4.0289
X3.9416Y-4.1207
X3.9416Y-5.7021
X3.9416Y-5.794
X3.9547Y-3.6122
X3.9547Y-5.6398
X3.9606Y-2.0472
X3.9606Y-3.7205
X3.9606Y-4.0748
X3.9606Y-5.748
X3.9705Y-2.4823
X3.9705Y-4.5098
X3.9744Y-2.8031
X3.9744Y-3.185
X3.9744Y-3.2244
X3.9744Y-4.8307
X3.9744Y-5.2126
X3.9744Y-5.252
X3.9961Y-3.6142
X3.9961Y-5.6417
X4.0098Y-2.4833
X4.0098Y-3.5374
X4.0098Y-3.5787
X4.0098Y-4.5108
X4.0098Y-5.565
X4.0098Y-5.6063
X4.0157Y-3.4803
X4.0157Y-5.5079
X4.0177Y-3.3543
X4.0177Y-5.3819
X4.0217Y-2.8031
X4.0217Y-4.8307
X4.0305Y-2.0276
X4.0305Y-4.0551
X4.0315Y-1.9685
X4.0315Y-3.9961
X4.0384Y-2.1093
X4.0384Y-4.1368
X4.0512Y-2.4843
X4.0512Y-4.5118
X4.0689Y-3.1654
X4.0689Y-3.2559
X4.0689Y-5.1929
X4.0689Y-5.2835
X4.0709Y-3.4075
X4.0709Y-5.435
X4.0719Y-3.0541
X4.0719Y-5.0817
X4.0728Y-2.5984
X4.0728Y-4.626
X4.0738Y-2.8543
X4.0738Y-4.8819
X4.0768Y-2.0226
X4.0768Y-4.0502
X4.0778Y-1.9695
X4.0778Y-3.997
X4.0906Y-2.4852
X4.0906Y-4.5128
X4.0915Y-2.5236
X4.0915Y-4.5512
X4.1093Y-2.8543
X4.1093Y-3.0541
X4.1093Y-4.8819
X4.1093Y-5.0817
X4.1102Y-3.3642
X4.1102Y-5.3917
X4.1122Y-2.5984
X4.1122Y-4.626
X4.1181Y-3.1516
X4.1181Y-5.1791
X4.1201Y-1.9695
X4.1201Y-3.997
X4.122Y-2.0236
X4.122Y-4.0512
X4.1319Y-2.4449
X4.1319Y-4.4724
X4.1329Y-2.4852
X4.1329Y-4.5128
X4.1339Y-2.5246
X4.1339Y-3.4429
X4.1339Y-4.5522
X4.1339Y-5.4705
X4.1417Y-3.6811
X4.1417Y-3.7205
X4.1417Y-5.7087
X4.1417Y-5.748
X4.1467Y-2.8543
X4.1467Y-3.0541
X4.1467Y-4.8819
X4.1467Y-5.0817
X4.1516Y-2.5984
X4.1516Y-4.626
X4.1575Y-3.1516
X4.1575Y-3.187
X4.1575Y-3.2244
X4.1575Y-3.2618
X4.1575Y-5.1791
X4.1575Y-5.2146
X4.1575Y-5.252
X4.1575Y-5.2894
X4.1654Y-2.0226
X4.1654Y-4.0502
X4.1663Y-1.9695
X4.1663Y-3.997
X4.1713Y-2.4459
X4.1713Y-4.4734
X4.1732Y-2.4862
X4.1732Y-4.5138
X4.1742Y-2.5266
X4.1742Y-4.5541
X4.1772Y-3.3937
X4.1772Y-5.4213
X4.1791Y-3.4311
X4.1791Y-5.4587
X4.1811Y-3.6811
X4.1811Y-3.7205
X4.1811Y-5.7087
X4.1811Y-5.748
X4.1821Y-3.0531
X4.1821Y-5.0807
X4.1831Y-2.8543
X4.1831Y-4.8819
X4.1909Y-2.5984
X4.1909Y-4.626
X4.1969Y-3.1516
X4.1969Y-5.1791
X4.1978Y-3.187
X4.1978Y-5.2146
X4.1988Y-3.2234
X4.1988Y-3.2608
X4.1988Y-5.251
X4.1988Y-5.2884
X4.2106Y-2.4469
X4.2106Y-4.4744
X4.2126Y-2.4872
X4.2126Y-4.5148
X4.2146Y-2.5276
X4.2146Y-4.5551
X4.2156Y-2.0207
X4.2156Y-4.0482
X4.2165Y-1.9695
X4.2165Y-3.997
X4.2205Y-3.4291
X4.2205Y-5.4567
X4.2303Y-2.5984
X4.2303Y-2.6378
X4.2303Y-2.6772
X4.2303Y-4.626
X4.2303Y-4.6654
X4.2303Y-4.7047
X4.239Y-3.3335
X4.239Y-3.3735
X4.239Y-5.3611
X4.239Y-5.4011
X4.252Y-2.4459
X4.252Y-4.4734
X4.2549Y-2.4882
X4.2549Y-4.5157
X4.2559Y-2.5276
X4.2559Y-4.5551
X4.2648Y-2.0207
X4.2648Y-4.0482
X4.2657Y-1.9715
X4.2657Y-3.999
X4.279Y-3.2935
X4.279Y-5.3211
X4.3051Y-2.0226
X4.3051Y-4.0502
X4.3071Y-1.9715
X4.3071Y-3.999
X4.3179Y-2.4911
X4.3179Y-4.5187
X4.3189Y-2.4498
X4.3189Y-2.5325
X4.3189Y-4.4774
X4.3189Y-4.56
X4.319Y-3.2935
X4.319Y-5.3211
X4.3199Y-2.4085
X4.3199Y-4.436
X4.3435Y-2.0797
X4.3435Y-2.1289
X4.3435Y-2.1781
X4.3435Y-2.2274
X4.3435Y-2.2766
X4.3435Y-2.3258
X4.3435Y-4.1073
X4.3435Y-4.1565
X4.3435Y-4.2057
X4.3435Y-4.2549
X4.3435Y-4.3041
X4.3435Y-4.3533
X4.3484Y-1.9734
X4.3484Y-2.0236
X4.3484Y-4.001
X4.3484Y-4.0512
X4.359Y-3.2935
X4.359Y-5.3211
X4.3602Y-2.4085
X4.3602Y-2.4498
X4.3602Y-2.4911
X4.3602Y-4.436
X4.3602Y-4.4774
X4.3602Y-4.5187
X4.3612Y-2.5354
X4.3612Y-4.563
X4.3976Y-3.4941
X4.3976Y-3.5335
X4.3976Y-3.5728
X4.3976Y-5.5217
X4.3976Y-5.561
X4.3976Y-5.6004
X4.4026Y-2.2559
X4.4026Y-4.2835
X4.4035Y-2.4931
X4.4035Y-2.5374
X4.4035Y-4.5207
X4.4035Y-4.565
X4.4045Y-2.4488
X4.4045Y-4.4764
X4.4065Y-2.4094
X4.4065Y-4.437
X4.4075Y-2.1949
X4.4075Y-4.2224
X4.4183Y-2.2963
X4.4183Y-4.3238
X4.419Y-3.2935
X4.419Y-5.3211
X4.4272Y-2.1654
X4.4272Y-2.2244
X4.4272Y-4.1929
X4.4272Y-4.252
X4.437Y-3.4941
X4.437Y-3.5335
X4.437Y-3.5728
X4.437Y-5.5217
X4.437Y-5.561
X4.437Y-5.6004
X4.4469Y-2.1949
X4.4469Y-4.2224
X4.4488Y-2.2569
X4.4488Y-4.2844
X4.459Y-3.2935
X4.459Y-5.3211
X4.4616Y-2.2982
X4.4616Y-4.3258
X4.4665Y-2.1654
X4.4665Y-2.2244
X4.4665Y-4.1929
X4.4665Y-4.252
X4.4764Y-3.4941
X4.4764Y-3.5335
X4.4764Y-3.5728
X4.4764Y-3.6811
X4.4764Y-3.7205
X4.4764Y-5.5217
X4.4764Y-5.561
X4.4764Y-5.6004
X4.4764Y-5.7087
X4.4764Y-5.748
X4.4788Y-2.3432
X4.4788Y-2.3832
X4.4788Y-2.4232
X4.4788Y-4.3708
X4.4788Y-4.4108
X4.4788Y-4.4508
X4.4862Y-2.1949
X4.4862Y-4.2224
X4.499Y-3.2935
X4.499Y-5.3211
X4.5059Y-2.1654
X4.5059Y-2.2244
X4.5059Y-4.1929
X4.5059Y-4.252
X4.5157Y-3.4941
X4.5157Y-3.5335
X4.5157Y-3.5728
X4.5157Y-3.6811
X4.5157Y-3.7205
X4.5157Y-5.5217
X4.5157Y-5.561
X4.5157Y-5.6004
X4.5157Y-5.7087
X4.5157Y-5.748
X4.5188Y-2.4232
X4.5188Y-4.4508
X4.519Y-2.5991
X4.519Y-2.6582
X4.519Y-4.6267
X4.519Y-4.6857
X4.5256Y-2.1949
X4.5256Y-4.2224
X4.5266Y-2.2559
X4.5266Y-4.2835
X4.529Y-3.3335
X4.529Y-3.3735
X4.529Y-5.3611
X4.529Y-5.4011
X4.5353Y-2.7172
X4.5353Y-4.7448
X4.5453Y-2.1654
X4.5453Y-2.2244
X4.5453Y-4.1929
X4.5453Y-4.252
X4.5551Y-2.9134
X4.5551Y-2.9724
X4.5551Y-3.0315
X4.5551Y-3.0906
X4.5551Y-3.1496
X4.5551Y-3.4941
X4.5551Y-3.5335
X4.5551Y-3.5728
X4.5551Y-4.9409
X4.5551Y-5.0
X4.5551Y-5.0591
X4.5551Y-5.1181
X4.5551Y-5.1772
X4.5551Y-5.5217
X4.5551Y-5.561
X4.5551Y-5.6004
X4.5588Y-2.4232
X4.5588Y-4.4508
X4.565Y-2.1949
X4.565Y-4.2224
X4.5846Y-2.1654
X4.5846Y-4.1929
X4.5925Y-2.2451
X4.5925Y-4.2726
X4.5988Y-2.3432
X4.5988Y-2.3832
X4.5988Y-2.4232
X4.5988Y-4.3708
X4.5988Y-4.4108
X4.5988Y-4.4508
X4.6014Y-2.2067
X4.6014Y-4.2343
X4.609Y-2.5835
X4.609Y-4.6111
X4.649Y-2.5435
X4.649Y-2.5835
X4.649Y-4.5711
X4.649Y-4.6111
X4.6693Y-2.2815
X4.6693Y-4.3091
X4.6732Y-2.1654
X4.6732Y-2.2047
X4.6732Y-4.1929
X4.6732Y-4.2323
X4.689Y-2.5435
X4.689Y-2.5835
X4.689Y-2.6235
X4.689Y-2.6635
X4.689Y-2.7035
X4.689Y-2.7435
X4.689Y-4.5711
X4.689Y-4.6111
X4.689Y-4.6511
X4.689Y-4.6911
X4.689Y-4.7311
X4.689Y-4.7711
X4.6929Y-2.2441
X4.6929Y-4.2717
X4.7028Y-3.7697
X4.7028Y-5.7972
X4.7126Y-2.1654
X4.7126Y-2.2047
X4.7126Y-4.1929
X4.7126Y-4.2323
X4.7264Y-2.9213
X4.7264Y-4.9488
X4.7303Y-2.3032
X4.7303Y-2.3432
X4.7303Y-2.3832
X4.7303Y-2.4232
X4.7303Y-4.3308
X4.7303Y-4.3708
X4.7303Y-4.4108
X4.7303Y-4.4508
X4.7323Y-2.2441
X4.7323Y-4.2717
X4.7421Y-3.1988
X4.7421Y-3.2677
X4.7421Y-3.3524
X4.7421Y-3.3957
X4.7421Y-3.4449
X4.7421Y-3.7303
X4.7421Y-5.2264
X4.7421Y-5.2953
X4.7421Y-5.3799
X4.7421Y-5.4232
X4.7421Y-5.4724
X4.7421Y-5.7579
X4.752Y-2.1654
X4.752Y-2.2047
X4.752Y-3.0571
X4.752Y-4.1929
X4.752Y-4.2323
X4.752Y-5.0846
X4.7579Y-2.9567
X4.7579Y-4.9843
X4.7618Y-3.7894
X4.7618Y-5.8169
X4.7703Y-2.4232
X4.7703Y-4.4508
X4.7776Y-2.9134
X4.7776Y-4.9409
X4.7815Y-3.6909
X4.7815Y-5.7185
X4.785Y-3.4425
X4.785Y-5.4701
X4.7913Y-3.1988
X4.7913Y-3.2677
X4.7913Y-3.3543
X4.7913Y-3.3957
X4.7913Y-5.2264
X4.7913Y-5.2953
X4.7913Y-5.3819
X4.7913Y-5.4232
X4.7963Y-3.0659
X4.7963Y-5.0935
X4.8012Y-3.7402
X4.8012Y-5.7677
X4.81Y-2.9636
X4.81Y-4.9911
X4.8103Y-2.4232
X4.8103Y-4.4508
X4.8179Y-2.1319
X4.8179Y-4.1594
X4.8189Y-2.1762
X4.8189Y-4.2037
X4.8209Y-3.6516
X4.8209Y-5.6791
X4.8268Y-3.0945
X4.8268Y-5.122
X4.8297Y-2.0846
X4.8297Y-4.1122
X4.8307Y-2.2313
X4.8307Y-3.7992
X4.8307Y-4.2589
X4.8307Y-5.8268
X4.8435Y-3.0581
X4.8435Y-5.0856
X4.8503Y-2.3032
X4.8503Y-2.3432
X4.8503Y-2.3832
X4.8503Y-2.4232
X4.8503Y-4.3308
X4.8503Y-4.3708
X4.8503Y-4.4108
X4.8503Y-4.4508
X4.8504Y-3.6909
X4.8504Y-5.7185
X4.8602Y-3.1988
X4.8602Y-3.6122
X4.8602Y-5.2264
X4.8602Y-5.6398
X4.8661Y-3.3528
X4.8661Y-5.3803
X4.8701Y-2.0807
X4.8701Y-3.75
X4.8701Y-4.1083
X4.8701Y-5.7776
X4.8756Y-3.2713
X4.8756Y-5.2988
X4.889Y-2.587
X4.889Y-4.6146
X4.8937Y-3.0778
X4.8937Y-5.1053
X4.8947Y-2.2254
X4.8947Y-4.253
X4.8986Y-2.2963
X4.8986Y-4.3238
X4.8996Y-3.5728
X4.8996Y-3.6417
X4.8996Y-3.7992
X4.8996Y-5.6004
X4.8996Y-5.6693
X4.8996Y-5.8268
X4.909Y-2.5201
X4.909Y-4.5476
X4.9094Y-3.7106
X4.9094Y-5.7382
X4.9163Y-3.1211
X4.9163Y-5.1486
X4.9173Y-2.0669
X4.9173Y-4.0945
X4.9193Y-3.1988
X4.9193Y-5.2264
X4.9296Y-3.3671
X4.9296Y-5.3947
X4.9354Y-3.2693
X4.9354Y-5.2969
X4.938Y-2.3396
X4.938Y-4.3671
X4.939Y-3.4843
X4.939Y-3.5335
X4.939Y-3.6024
X4.939Y-3.7598
X4.939Y-5.5118
X4.939Y-5.561
X4.939Y-5.6299
X4.939Y-5.7874
X4.9488Y-3.6713
X4.9488Y-5.6988
X4.9518Y-2.2933
X4.9518Y-4.3209
X4.9882Y-2.8642
X4.9882Y-4.8917
X4.989Y-2.7235
X4.989Y-4.7511
X4.9931Y-2.061
X4.9931Y-4.0886
X5.003Y-2.3051
X5.003Y-4.3327
X5.0374Y-2.6476
X5.0374Y-4.6752
X5.0492Y-2.0748
X5.0492Y-4.1024
X5.0502Y-2.1565
X5.0502Y-2.2067
X5.0502Y-4.1841
X5.0502Y-4.2343
X5.0571Y-2.4016
X5.0571Y-2.7067
X5.0571Y-2.7461
X5.0571Y-2.7854
X5.0571Y-2.8248
X5.0571Y-4.4291
X5.0571Y-4.7343
X5.0571Y-4.7736
X5.0571Y-4.813
X5.0571Y-4.8524
X5.1161Y-3.1004
X5.1161Y-3.189
X5.1161Y-5.128
X5.1161Y-5.2165
X5.123Y-2.0659
X5.123Y-4.0935
X5.126Y-3.0315
X5.126Y-5.0591
X5.1388Y-2.3061
X5.1388Y-4.3337
X5.1407Y-2.1398
X5.1407Y-4.1673
X5.1417Y-2.189
X5.1417Y-4.2165
X5.1421Y-3.274
X5.1421Y-5.3016
X5.1457Y-3.1299
X5.1457Y-3.4646
X5.1457Y-5.1575
X5.1457Y-5.4921
X5.1528Y-3.3827
X5.1528Y-5.4102
X5.1555Y-2.9232
X5.1555Y-2.9921
X5.1555Y-3.189
X5.1555Y-4.9508
X5.1555Y-5.0197
X5.1555Y-5.2165
X5.1752Y-2.5354
X5.1752Y-2.687
X5.1752Y-2.7953
X5.1752Y-3.0315
X5.1752Y-3.1004
X5.1752Y-4.563
X5.1752Y-4.7146
X5.1752Y-4.8228
X5.1752Y-5.0591
X5.1752Y-5.128
X5.185Y-2.5787
X5.185Y-2.6181
X5.185Y-2.9528
X5.185Y-4.6063
X5.185Y-4.6457
X5.185Y-4.9803
X5.1929Y-2.2864
X5.1929Y-4.314
X5.1949Y-2.2372
X5.1949Y-3.4646
X5.1949Y-4.2648
X5.1949Y-5.4921
X5.1998Y-2.0807
X5.1998Y-4.1083
X5.2047Y-2.6575
X5.2047Y-3.1299
X5.2047Y-3.189
X5.2047Y-4.685
X5.2047Y-5.1575
X5.2047Y-5.2165
X5.211Y-3.274
X5.211Y-5.3016
X5.2146Y-2.7953
X5.2146Y-2.9232
X5.2146Y-4.8228
X5.2146Y-4.9508
X5.2244Y-2.5295
X5.2244Y-3.0315
X5.2244Y-3.3563
X5.2244Y-4.5571
X5.2244Y-5.0591
X5.2244Y-5.3839
X5.2343Y-2.5787
X5.2343Y-2.628
X5.2343Y-3.1004
X5.2343Y-4.6063
X5.2343Y-4.6555
X5.2343Y-5.128
X5.2421Y-2.3002
X5.2421Y-4.3278
X5.2441Y-2.9528
X5.2441Y-3.4646
X5.2441Y-4.9803
X5.2441Y-5.4921
X5.247Y-2.0787
X5.247Y-4.1063
X5.249Y-2.2303
X5.249Y-4.2579
X5.2512Y-3.3937
X5.2512Y-5.4213
X5.2539Y-2.7953
X5.2539Y-4.8228
X5.2638Y-2.5295
X5.2638Y-2.5984
X5.2638Y-2.7461
X5.2638Y-3.1299
X5.2638Y-4.5571
X5.2638Y-4.626
X5.2638Y-4.7736
X5.2638Y-5.1575
X5.2736Y-2.9232
X5.2736Y-3.0315
X5.2736Y-4.9508
X5.2736Y-5.0591
X5.2904Y-2.0768
X5.2904Y-4.1043
X5.2933Y-2.7953
X5.2933Y-3.4646
X5.2933Y-4.8228
X5.2933Y-5.4921
X5.2943Y-2.2943
X5.2943Y-4.3219
X5.2953Y-2.2283
X5.2953Y-4.2559
X5.3016Y-3.348
X5.3016Y-5.3756
X5.3031Y-2.5295
X5.3031Y-2.5689
X5.3031Y-2.6969
X5.3031Y-2.9528
X5.3031Y-4.5571
X5.3031Y-4.5965
X5.3031Y-4.7244
X5.3031Y-4.9803
X5.313Y-2.7461
X5.313Y-4.7736
X5.3228Y-3.0315
X5.3228Y-5.0591
X5.3327Y-2.7953
X5.3327Y-2.9232
X5.3327Y-3.189
X5.3327Y-4.8228
X5.3327Y-4.9508
X5.3327Y-5.2165
X5.335Y-3.3929
X5.335Y-5.4205
X5.3406Y-2.0768
X5.3406Y-4.1043
X5.3425Y-2.6969
X5.3425Y-4.7244
X5.3524Y-2.7461
X5.3524Y-3.4646
X5.3524Y-4.7736
X5.3524Y-5.4921
X5.3622Y-2.6476
X5.3622Y-2.9528
X5.3622Y-4.6752
X5.3622Y-4.9803
X5.372Y-2.7953
X5.372Y-4.8228
X5.3732Y-3.2744
X5.3732Y-5.302
X5.3748Y-3.348
X5.3748Y-5.3756
X5.3819Y-2.6969
X5.3819Y-4.7244
X5.3898Y-2.314
X5.3898Y-4.3415
X5.3917Y-2.7461
X5.3917Y-2.9232
X5.3917Y-3.1299
X5.3917Y-4.7736
X5.3917Y-4.9508
X5.3917Y-5.1575
X5.3927Y-2.2165
X5.3927Y-4.2441
X5.3967Y-2.122
X5.3967Y-4.1496
X5.3976Y-2.1604
X5.3976Y-4.188
X5.3996Y-2.0709
X5.3996Y-4.0984
X5.4016Y-2.6476
X5.4016Y-4.6752
X5.4114Y-2.6083
X5.4114Y-2.7953
X5.4114Y-3.4646
X5.4114Y-4.6358
X5.4114Y-4.8228
X5.4114Y-5.4921
X5.4213Y-2.6969
X5.4213Y-4.7244
X5.4311Y-2.7461
X5.4311Y-3.0906
X5.4311Y-4.7736
X5.4311Y-5.1181
X5.4321Y-3.3868
X5.4321Y-5.4144
X5.4409Y-2.5787
X5.4409Y-2.6476
X5.4409Y-4.6063
X5.4409Y-4.6752
X5.4508Y-2.7953
X5.4508Y-4.8228
X5.4596Y-2.2913
X5.4596Y-4.3189
X5.4606Y-2.6969
X5.4606Y-4.7244
X5.4705Y-2.5394
X5.4705Y-2.6083
X5.4705Y-2.7461
X5.4705Y-3.0512
X5.4705Y-3.4646
X5.4705Y-4.5669
X5.4705Y-4.6358
X5.4705Y-4.7736
X5.4705Y-5.0787
X5.4705Y-5.4921
X5.474Y-3.3815
X5.474Y-5.4091
X5.4902Y-3.3071
X5.4902Y-5.3346
X5.5Y-2.2421
X5.5Y-2.5787
X5.5Y-4.2697
X5.5Y-4.6063
X5.503Y-2.0876
X5.503Y-4.1152
X5.5039Y-2.1339
X5.5039Y-4.1614
X5.5049Y-2.2982
X5.5049Y-4.3258
X5.5059Y-2.2008
X5.5059Y-4.2283
X5.5197Y-2.5394
X5.5197Y-4.5669
X5.5212Y-2.3617
X5.5212Y-4.3893
X5.5295Y-3.3661
X5.5295Y-3.4154
X5.5295Y-3.4646
X5.5295Y-5.3937
X5.5295Y-5.4429
X5.5295Y-5.4921
X5.5356Y-3.2344
X5.5356Y-5.262
X5.5394Y-2.6476
X5.5394Y-2.6969
X5.5394Y-2.7461
X5.5394Y-2.7854
X5.5394Y-4.6752
X5.5394Y-4.7244
X5.5394Y-4.7736
X5.5394Y-4.813
X5.5433Y-2.0846
X5.5433Y-4.1122
X5.5463Y-2.2913
X5.5463Y-4.3189
X5.5492Y-3.1201
X5.5492Y-5.1476
X5.5502Y-2.2283
X5.5502Y-4.2559
X5.5563Y-2.9563
X5.5563Y-4.9839
X5.5803Y-2.4809
X5.5803Y-4.5084
X5.5866Y-2.0817
X5.5866Y-4.1093
X5.5984Y-2.7165
X5.5984Y-2.7559
X5.5984Y-2.8051
X5.5984Y-4.7441
X5.5984Y-4.7835
X5.5984Y-4.8327
X5.6004Y-2.6654
X5.6004Y-4.6929
X5.6096Y-2.3311
X5.6096Y-4.3586
X5.6346Y-2.824
X5.6346Y-4.8516
X5.6476Y-2.8642
X5.6476Y-4.8917
X5.6772Y-2.7165
X5.6772Y-2.7559
X5.6772Y-4.7441
X5.6772Y-4.7835
X5.7028Y-2.4567
X5.7028Y-4.4843
X5.7146Y-2.4134
X5.7146Y-4.4409
X5.7165Y-2.7165
X5.7165Y-2.7559
X5.7165Y-2.7953
X5.7165Y-2.9134
X5.7165Y-4.7441
X5.7165Y-4.7835
X5.7165Y-4.8228
X5.7165Y-4.9409
X5.7209Y-2.9587
X5.7209Y-4.9862
X5.7264Y-2.6693
X5.7264Y-4.6969
X5.7441Y-2.1752
X5.7441Y-2.2264
X5.7441Y-4.2028
X5.7441Y-4.2539
X5.7461Y-2.8248
X5.7461Y-3.0315
X5.7461Y-3.622
X5.7461Y-3.6614
X5.7461Y-3.7106
X5.7461Y-3.7598
X5.7461Y-3.8091
X5.7461Y-4.8524
X5.7461Y-5.0591
X5.7461Y-5.6496
X5.7461Y-5.689
X5.7461Y-5.7382
X5.7461Y-5.7874
X5.7461Y-5.8366
X5.7559Y-2.7165
X5.7559Y-2.7559
X5.7559Y-4.7441
X5.7559Y-4.7835
X5.7748Y-2.9606
X5.7748Y-4.9882
X5.7756Y-2.7953
X5.7756Y-2.8543
X5.7756Y-4.8228
X5.7756Y-4.8819
X5.7953Y-2.7165
X5.7953Y-2.7559
X5.7953Y-3.6614
X5.7953Y-3.7106
X5.7953Y-3.7598
X5.7953Y-3.8091
X5.7953Y-4.7441
X5.7953Y-4.7835
X5.7953Y-5.689
X5.7953Y-5.7382
X5.7953Y-5.7874
X5.7953Y-5.8366
X5.8051Y-2.8839
X5.8051Y-4.9114
X5.8091Y-3.5335
X5.8091Y-5.561
X5.815Y-2.8346
X5.815Y-4.8622
X5.8238Y-2.2008
X5.8238Y-4.2283
X5.8248Y-2.7953
X5.8248Y-4.8228
X5.8346Y-2.7165
X5.8346Y-2.7559
X5.8346Y-2.9134
X5.8346Y-3.8091
X5.8346Y-4.7441
X5.8346Y-4.7835
X5.8346Y-4.9409
X5.8346Y-5.8366
X5.8445Y-3.7106
X5.8445Y-3.7598
X5.8445Y-5.7382
X5.8445Y-5.7874
X5.8543Y-2.874
X5.8543Y-2.9528
X5.8543Y-4.9016
X5.8543Y-4.9803
X5.8642Y-2.7953
X5.8642Y-2.8346
X5.8642Y-3.002
X5.8642Y-4.8228
X5.8642Y-4.8622
X5.8642Y-5.0295
X5.874Y-3.061
X5.874Y-3.1299
X5.874Y-3.1988
X5.874Y-3.2579
X5.874Y-3.3071
X5.874Y-3.3563
X5.874Y-3.8091
X5.874Y-5.0886
X5.874Y-5.1575
X5.874Y-5.2264
X5.874Y-5.2854
X5.874Y-5.3346
X5.874Y-5.3839
X5.874Y-5.8366
X5.8839Y-2.7165
X5.8839Y-2.7559
X5.8839Y-2.9134
X5.8839Y-4.7441
X5.8839Y-4.7835
X5.8839Y-4.9409
X5.8898Y-2.251
X5.8898Y-4.2785
X5.8937Y-2.874
X5.8937Y-2.9528
X5.8937Y-3.7598
X5.8937Y-4.9016
X5.8937Y-4.9803
X5.8937Y-5.7874
X5.9035Y-2.7953
X5.9035Y-2.8346
X5.9035Y-3.002
X5.9035Y-4.8228
X5.9035Y-4.8622
X5.9035Y-5.0295
X5.9134Y-3.8091
X5.9134Y-5.8366
X5.9154Y-2.4921
X5.9154Y-4.5197
X5.9232Y-3.5433
X5.9232Y-5.5709
X5.9232Y-2.7165
X5.9232Y-2.7559
X5.9232Y-2.9134
X5.9232Y-3.061
X5.9232Y-3.1299
X5.9232Y-3.1988
X5.9232Y-3.2579
X5.9232Y-3.3071
X5.9232Y-3.3563
X5.9232Y-4.7441
X5.9232Y-4.7835
X5.9232Y-4.9409
X5.9232Y-5.0886
X5.9232Y-5.1575
X5.9232Y-5.2264
X5.9232Y-5.2854
X5.9232Y-5.3346
X5.9232Y-5.3839
X5.926Y-3.4087
X5.926Y-5.4362
X5.9331Y-2.874
X5.9331Y-2.9528
X5.9331Y-4.9016
X5.9331Y-4.9803
X5.9429Y-2.0748
X5.9429Y-2.7953
X5.9429Y-2.8346
X5.9429Y-3.622
X5.9429Y-4.1024
X5.9429Y-4.8228
X5.9429Y-4.8622
X5.9429Y-5.6496
X5.9528Y-3.8091
X5.9528Y-5.8366
X5.9528Y-3.7205
X5.9528Y-5.748
X5.9626Y-2.7165
X5.9626Y-2.7559
X5.9626Y-2.9134
X5.9626Y-4.7441
X5.9626Y-4.7835
X5.9626Y-4.9409
X5.9724Y-2.9528
X5.9724Y-4.9803
X5.9764Y-2.2549
X5.9764Y-4.2825
X5.9823Y-2.874
X5.9823Y-3.6614
X5.9823Y-4.9016
X5.9823Y-5.689
X5.9921Y-2.7953
X5.9921Y-2.8346
X5.9921Y-4.8228
X5.9921Y-4.8622
X6.002Y-2.7165
X6.002Y-2.7559
X6.002Y-4.7441
X6.002Y-4.7835
X6.0118Y-2.9134
X6.0118Y-3.6909
X6.0118Y-4.9409
X6.0118Y-5.7185
X6.0148Y-2.0709
X6.0148Y-4.0984
X6.0217Y-3.002
X6.0217Y-5.0295
X6.0413Y-2.7165
X6.0413Y-2.7559
X6.0413Y-2.7953
X6.0413Y-2.8346
X6.0413Y-2.8839
X6.0413Y-4.7441
X6.0413Y-4.7835
X6.0413Y-4.8228
X6.0413Y-4.8622
X6.0413Y-4.9114
X6.0512Y-2.4508
X6.0512Y-4.4783
X6.061Y-2.9724
X6.061Y-5.0
X6.0709Y-3.0118
X6.0709Y-5.0394
X6.0807Y-2.4213
X6.0807Y-4.4488
X6.0817Y-2.0906
X6.0817Y-4.1181
X6.1201Y-3.7402
X6.1201Y-5.7677
X6.1303Y-3.5362
X6.1303Y-5.5638
X6.1496Y-3.3252
X6.1496Y-5.3528
X6.1693Y-3.7008
X6.1693Y-5.7283
X6.2776Y-3.7402
X6.2776Y-5.7677
X6.3268Y-3.7402
X6.3268Y-5.7677
X6.3465Y-3.3071
X6.3465Y-3.3465
X6.3465Y-3.4941
X6.3465Y-3.5335
X6.3465Y-5.3346
X6.3465Y-5.374
X6.3465Y-5.5217
X6.3465Y-5.561
X6.3563Y-3.6516
X6.3563Y-5.6791
X6.376Y-3.7402
X6.376Y-5.7677
X6.3957Y-3.5138
X6.3957Y-3.5531
X6.3957Y-3.6516
X6.3957Y-5.5413
X6.3957Y-5.5807
X6.3957Y-5.6791
X6.4154Y-3.3071
X6.4154Y-3.3465
X6.4154Y-3.3858
X6.4154Y-3.4252
X6.4154Y-5.3346
X6.4154Y-5.374
X6.4154Y-5.4134
X6.4154Y-5.4528
X6.4252Y-3.7402
X6.4252Y-5.7677
X6.435Y-3.6516
X6.435Y-5.6791
X6.4744Y-3.3858
X6.4744Y-3.4252
X6.4744Y-3.4646
X6.4744Y-3.7402
X6.4744Y-5.4134
X6.4744Y-5.4528
X6.4744Y-5.4921
X6.4744Y-5.7677
X6.4843Y-3.6516
X6.4843Y-5.6791
X6.5138Y-3.3071
X6.5138Y-5.3346
X6.5335Y-3.4252
X6.5335Y-3.4646
X6.5335Y-3.5039
X6.5335Y-5.4528
X6.5335Y-5.4921
X6.5335Y-5.5315
X6.5827Y-3.3071
X6.5827Y-3.3465
X6.5827Y-3.4646
X6.5827Y-3.5039
X6.5827Y-5.3346
X6.5827Y-5.374
X6.5827Y-5.4921
X6.5827Y-5.5315
X6.6024Y-3.8091
X6.6024Y-5.8366
X6.6319Y-3.4646
X6.6319Y-3.5039
X6.6319Y-5.4921
X6.6319Y-5.5315
X6.6417Y-3.7697
X6.6417Y-3.8091
X6.6417Y-5.7972
X6.6417Y-5.8366
X6.6516Y-3.3071
X6.6516Y-3.3465
X6.6516Y-3.3858
X6.6516Y-5.3346
X6.6516Y-5.374
X6.6516Y-5.4134
X6.6811Y-3.4646
X6.6811Y-3.7303
X6.6811Y-3.7697
X6.6811Y-3.8091
X6.6811Y-5.4921
X6.6811Y-5.7579
X6.6811Y-5.7972
X6.6811Y-5.8366
X6.7205Y-3.3071
X6.7205Y-3.3465
X6.7205Y-3.3858
X6.7205Y-3.6909
X6.7205Y-3.7303
X6.7205Y-3.7697
X6.7205Y-3.8091
X6.7205Y-5.3346
X6.7205Y-5.374
X6.7205Y-5.4134
X6.7205Y-5.7185
X6.7205Y-5.7579
X6.7205Y-5.7972
X6.7205Y-5.8366
X6.7598Y-3.6516
X6.7598Y-3.6909
X6.7598Y-3.7303
X6.7598Y-3.7697
X6.7598Y-3.8091
X6.7598Y-5.6791
X6.7598Y-5.7185
X6.7598Y-5.7579
X6.7598Y-5.7972
X6.7598Y-5.8366
X6.7835Y-3.4282
X6.7835Y-5.4557
X6.7894Y-3.3071
X6.7894Y-3.3465
X6.7894Y-5.3346
X6.7894Y-5.374
X6.7992Y-3.6516
X6.7992Y-3.6909
X6.7992Y-3.7303
X6.7992Y-3.7697
X6.7992Y-3.8091
X6.7992Y-5.6791
X6.7992Y-5.7185
X6.7992Y-5.7579
X6.7992Y-5.7972
X6.7992Y-5.8366
X6.8081Y-3.503
X6.8081Y-5.5305
X6.8386Y-3.6516
X6.8386Y-3.6909
X6.8386Y-3.7303
X6.8386Y-3.7697
X6.8386Y-3.8091
X6.8386Y-5.6791
X6.8386Y-5.7185
X6.8386Y-5.7579
X6.8386Y-5.7972
X6.8386Y-5.8366
X6.8406Y-3.5266
X6.8406Y-5.5541
X6.8583Y-3.3071
X6.8583Y-5.3346
X6.878Y-3.6516
X6.878Y-3.6909
X6.878Y-5.6791
X6.878Y-5.7185
X6.9961Y-3.6516
X6.9961Y-3.6909
X6.9961Y-3.7303
X6.9961Y-5.6791
X6.9961Y-5.7185
X6.9961Y-5.7579
X7.065Y-3.3563
X7.065Y-5.3839
X7.0681Y-3.4492
X7.0681Y-5.4768
X7.0945Y-3.2874
X7.0945Y-5.315
X7.0945Y-3.3268
X7.0945Y-5.3543
X7.1217Y-3.5417
X7.1217Y-5.5693
X7.124Y-3.3563
X7.124Y-3.6516
X7.124Y-3.6909
X7.124Y-3.7303
X7.124Y-5.3839
X7.124Y-5.6791
X7.124Y-5.7185
X7.124Y-5.7579
X7.1535Y-3.3268
X7.1535Y-5.3543
X7.1831Y-3.3563
X7.1831Y-5.3839
X7.2126Y-3.3268
X7.2126Y-5.3543
X7.2323Y-3.6909
X7.2323Y-3.7303
X7.2323Y-5.7185
X7.2323Y-5.7579
X7.2421Y-3.3563
X7.2421Y-3.5827
X7.2421Y-5.3839
X7.2421Y-5.6102
X7.2717Y-3.3268
X7.2717Y-5.3543
X7.3012Y-3.3563
X7.3012Y-5.3839
X7.3307Y-3.3268
X7.3307Y-5.3543
X7.359Y-3.7435
X7.359Y-5.7711
X7.3602Y-3.3563
X7.3602Y-5.3839
X7.3898Y-3.3268
X7.3898Y-5.3543
X7.4193Y-3.3563
X7.4193Y-5.3839
X7.4488Y-3.3268
X7.4488Y-5.3543
X7.4783Y-3.3563
X7.4783Y-5.3839
X7.479Y-3.7835
X7.479Y-5.8111
X7.5004Y-3.6378
X7.5004Y-5.6654
X7.5098Y-3.5689
X7.5098Y-5.5965
X7.5106Y-3.8087
X7.5106Y-5.8362
X7.5315Y-3.7205
X7.5315Y-5.748
X7.5472Y-3.2874
X7.5472Y-5.315
X7.5505Y-3.6745
X7.5505Y-3.7664
X7.5505Y-5.7021
X7.5505Y-5.794
X7.563Y-3.5974
X7.563Y-5.625
X7.5965Y-3.6555
X7.5965Y-3.7854
X7.5965Y-5.6831
X7.5965Y-5.813
X7.6028Y-3.2839
X7.6028Y-5.3114
X7.6407Y-3.5413
X7.6407Y-5.5689
X7.6424Y-3.6745
X7.6424Y-3.7664
X7.6424Y-5.7021
X7.6424Y-5.794
X7.6551Y-3.5941
X7.6551Y-5.6217
X7.6614Y-3.7205
X7.6614Y-5.748
X7.6795Y-3.2831
X7.6795Y-5.3106
T3
X4.4862Y-2.095
X4.4862Y-4.1225
X4.6831Y-2.095
X4.6831Y-4.1225
T4
X4.3425Y-2.6634
X4.3425Y-4.6909
X4.4425Y-2.6634
X4.4425Y-4.6909
X4.6634Y-3.0118
X4.6634Y-3.1118
X4.6634Y-3.2118
X4.6634Y-3.3118
X4.6634Y-3.4118
X4.6634Y-3.5118
X4.6634Y-5.0394
X4.6634Y-5.1394
X4.6634Y-5.2394
X4.6634Y-5.3394
X4.6634Y-5.4394
X4.6634Y-5.5394
X4.8837Y-2.1593
X4.8837Y-4.1869
X4.9821Y-2.1593
X4.9821Y-4.1869
X5.2237Y-2.1593
X5.2237Y-4.1869
X5.3221Y-2.1593
X5.3221Y-4.1869
X5.5737Y-2.1593
X5.5737Y-4.1869
X5.6721Y-2.1593
X5.6721Y-4.1869
X5.7106Y-2.5669
X5.7106Y-4.5945
X5.8106Y-2.5669
X5.8106Y-4.5945
X5.9106Y-2.5669
X5.9106Y-4.5945
X5.9237Y-2.1593
X5.9237Y-4.1869
X6.0106Y-2.5669
X6.0106Y-4.5945
X6.0221Y-2.1593
X6.0221Y-4.1869
X6.061Y-3.1087
X6.061Y-3.2087
X6.061Y-3.3087
X6.061Y-3.4087
X6.061Y-5.1362
X6.061Y-5.2362
X6.061Y-5.3362
X6.061Y-5.4362
X6.2382Y-3.3071
X6.2382Y-3.4071
X6.2382Y-3.5071
X6.2382Y-3.6071
X6.2382Y-5.3346
X6.2382Y-5.4346
X6.2382Y-5.5346
X6.2382Y-5.6346
T5
X6.3138Y-2.4528
X6.3138Y-2.9331
X6.3138Y-4.4803
X6.3138Y-4.9606
X6.55Y-3.0118
X6.55Y-5.0394
X6.7862Y-2.4528
X6.7862Y-2.9331
X6.7862Y-4.4803
X6.7862Y-4.9606
X7.0224Y-2.4528
X7.0224Y-2.9331
X7.0224Y-4.4803
X7.0224Y-4.9606
X7.2587Y-3.0118
X7.2587Y-5.0394
X7.4949Y-2.4528
X7.4949Y-2.9331
X7.4949Y-4.4803
X7.4949Y-4.9606
T6
X6.3469Y-2.087
X6.3469Y-4.1146
X6.5469Y-2.087
X6.5469Y-4.1146
X6.7469Y-2.087
X6.7469Y-4.1146
X7.026Y-2.087
X7.026Y-4.1146
X7.226Y-2.087
X7.226Y-4.1146
X7.426Y-2.087
X7.426Y-4.1146
T7
X3.8957Y-2.0472
X3.8957Y-3.7205
X3.8957Y-4.0748
X3.8957Y-5.748
X7.5965Y-3.7205
X7.5965Y-5.748
X7.6161Y-2.0276
X7.6161Y-4.0551
T2
G00X4.4469Y-2.0025
M15
G01X4.4469Y-1.9749
M16
G05
G00X4.4469Y-4.03
M15
G01X4.4469Y-4.0025
M16
G05
G00X4.7224Y-1.9749
M15
G01X4.7224Y-2.0025
M16
G05
G00X4.7224Y-4.0025
M15
G01X4.7224Y-4.03
M16
G05
T4
G00X4.0059Y-2.186
M15
G01X4.0059Y-2.2648
M16
G05
G00X4.0059Y-4.2136
M15
G01X4.0059Y-4.2923
M16
G05
G00X4.2303Y-2.1073
M15
G01X4.1516Y-2.1073
M16
G05
G00X4.2303Y-2.3435
M15
G01X4.1516Y-2.3435
M16
G05
G00X4.2303Y-4.1348
M15
G01X4.1516Y-4.1348
M16
G05
G00X4.2303Y-4.3711
M15
G01X4.1516Y-4.3711
M16
G05
T0
M30
