M48
; DRILL file {KiCad 5.1.9-73d0e3b20d~88~ubuntu18.04.1} date Sat Mar 27 22:47:04 2021
; FORMAT={-:-/ absolute / inch / decimal}
; #@! TF.CreationDate,2021-03-27T22:47:04+02:00
; #@! TF.GenerationSoftware,Kicad,Pcbnew,5.1.9-73d0e3b20d~88~ubuntu18.04.1
; #@! TF.FileFunction,NonPlated,1,2,NPTH
FMAT,2
INCH
T1C0.0197
%
G90
G05
T1
X4.2264Y-3.8465
X4.2264Y-3.9488
X4.2559Y-3.8465
X4.2559Y-3.9488
X4.2854Y-3.8465
X4.2854Y-3.9488
X5.4094Y-3.8465
X5.4094Y-3.9488
X5.439Y-3.8465
X5.439Y-3.9488
X5.4685Y-3.8465
X5.4685Y-3.9488
X5.498Y-3.8465
X5.498Y-3.9488
X5.5276Y-3.8465
X5.5276Y-3.9488
X5.5571Y-3.8465
X5.5571Y-3.9488
X5.5866Y-3.8465
X5.5866Y-3.9488
X5.6161Y-3.8465
X5.6161Y-3.9488
X5.6457Y-3.8465
X5.6457Y-3.9488
X5.6752Y-3.8465
X5.6752Y-3.9488
X5.7047Y-3.8465
X5.7047Y-3.9488
X5.7343Y-3.8465
X5.7343Y-3.9488
X5.7648Y-3.8465
X5.7648Y-3.9488
X5.7943Y-3.8465
X5.7943Y-3.9488
X5.8238Y-3.8465
X5.8238Y-3.9488
X5.8543Y-3.8465
X5.8543Y-3.9488
X5.8839Y-3.8465
X5.8839Y-3.9488
X5.9134Y-3.8465
X5.9134Y-3.9488
X5.9439Y-3.8465
X5.9439Y-3.9488
X5.9734Y-3.8465
X5.9734Y-3.9488
X6.003Y-3.8465
X6.003Y-3.9488
X6.0335Y-3.8465
X6.0335Y-3.9488
X6.063Y-3.8465
X6.063Y-3.9488
X6.0925Y-3.8465
X6.0925Y-3.9488
X7.2067Y-3.8465
X7.2067Y-3.9488
X7.2362Y-3.8465
X7.2362Y-3.9488
X7.2657Y-3.8465
X7.2657Y-3.9488
T0
M30
