G04 #@! TF.GenerationSoftware,KiCad,Pcbnew,5.1.9-73d0e3b20d~88~ubuntu18.04.1*
G04 #@! TF.CreationDate,2021-04-02T00:43:31+03:00*
G04 #@! TF.ProjectId,electra-100x100mm-2x1-panel,656c6563-7472-4612-9d31-303078313030,1*
G04 #@! TF.SameCoordinates,Original*
G04 #@! TF.FileFunction,Profile,NP*
%FSLAX46Y46*%
G04 Gerber Fmt 4.6, Leading zero omitted, Abs format (unit mm)*
G04 Created by KiCad (PCBNEW 5.1.9-73d0e3b20d~88~ubuntu18.04.1) date 2021-04-02 00:43:31*
%MOMM*%
%LPD*%
G01*
G04 APERTURE LIST*
G04 #@! TA.AperFunction,Profile*
%ADD10C,0.050000*%
G04 #@! TD*
G04 APERTURE END LIST*
D10*
X190765600Y-115638800D02*
X190905600Y-115633800D01*
X173564600Y-144562800D02*
X178195600Y-144562800D01*
X191385600Y-132867800D02*
X191385600Y-144337800D01*
X191610600Y-144562800D02*
X196241600Y-144562800D01*
X167016600Y-130352800D02*
X166291600Y-130352800D01*
X173426600Y-120053800D02*
G75*
G02*
X173201600Y-120278800I-225000J0D01*
G01*
X190540600Y-119993800D02*
X190540600Y-115863800D01*
X172389600Y-132642800D02*
X173114600Y-132642800D01*
X190210600Y-145237800D02*
X190210600Y-132867800D01*
X178651600Y-132672800D02*
X179376600Y-132672800D01*
X172389600Y-145462800D02*
G75*
G02*
X172164600Y-145237800I0J225000D01*
G01*
X191160600Y-132642800D02*
G75*
G02*
X191385600Y-132867800I0J-225000D01*
G01*
X184504600Y-130261800D02*
G75*
G02*
X184279600Y-130036800I0J225000D01*
G01*
X197422600Y-145462800D02*
X190435600Y-145462800D01*
X179376600Y-132672800D02*
G75*
G02*
X179601600Y-132897800I0J-225000D01*
G01*
X173061600Y-120278800D02*
G75*
G02*
X172836600Y-120053800I0J225000D01*
G01*
X191610600Y-144562800D02*
G75*
G02*
X191385600Y-144337800I0J225000D01*
G01*
X185454600Y-130036800D02*
G75*
G02*
X185229600Y-130261800I-225000J0D01*
G01*
X196472600Y-132897800D02*
G75*
G02*
X196697600Y-132672800I225000J0D01*
G01*
X195660600Y-115913800D02*
G75*
G02*
X195885600Y-115688800I225000J0D01*
G01*
X190435600Y-132642800D02*
X191160600Y-132642800D01*
X196025600Y-115683800D02*
G75*
G02*
X196250600Y-115908800I0J-225000D01*
G01*
X197422600Y-132672800D02*
G75*
G02*
X197647600Y-132897800I0J-225000D01*
G01*
X196020600Y-120268800D02*
X195885600Y-120268800D01*
X184279600Y-114236800D02*
G75*
G02*
X184504600Y-114011800I225000J0D01*
G01*
X197647600Y-145237800D02*
G75*
G02*
X197422600Y-145462800I-225000J0D01*
G01*
X195885600Y-115688800D02*
X196025600Y-115683800D01*
X177902600Y-120053800D02*
X177902600Y-115923800D01*
X177902600Y-115923800D02*
G75*
G02*
X178127600Y-115698800I225000J0D01*
G01*
X173339600Y-132867800D02*
X173339600Y-144337800D01*
X173564600Y-144562800D02*
G75*
G02*
X173339600Y-144337800I0J225000D01*
G01*
X178492600Y-120053800D02*
G75*
G02*
X178267600Y-120278800I-225000J0D01*
G01*
X179376600Y-145462800D02*
X172389600Y-145462800D01*
X190905600Y-115633800D02*
G75*
G02*
X191130600Y-115858800I0J-225000D01*
G01*
X166066600Y-114327800D02*
G75*
G02*
X166291600Y-114102800I225000J0D01*
G01*
X191130600Y-115858800D02*
X191130600Y-119993800D01*
X197647600Y-132897800D02*
X197647600Y-145237800D01*
X166291600Y-114102800D02*
X167016600Y-114102800D01*
X190210600Y-132867800D02*
G75*
G02*
X190435600Y-132642800I225000J0D01*
G01*
X184504600Y-114011800D02*
X185229600Y-114011800D01*
X172164600Y-132867800D02*
G75*
G02*
X172389600Y-132642800I225000J0D01*
G01*
X178267600Y-115693800D02*
G75*
G02*
X178492600Y-115918800I0J-225000D01*
G01*
X179601600Y-145237800D02*
G75*
G02*
X179376600Y-145462800I-225000J0D01*
G01*
X173201600Y-115693800D02*
G75*
G02*
X173426600Y-115918800I0J-225000D01*
G01*
X173114600Y-132642800D02*
G75*
G02*
X173339600Y-132867800I0J-225000D01*
G01*
X178420600Y-144337800D02*
G75*
G02*
X178195600Y-144562800I-225000J0D01*
G01*
X167241600Y-114327800D02*
X167241600Y-130127800D01*
X167241600Y-130127800D02*
G75*
G02*
X167016600Y-130352800I-225000J0D01*
G01*
X173196600Y-120278800D02*
X173061600Y-120278800D01*
X178426600Y-132897800D02*
G75*
G02*
X178651600Y-132672800I225000J0D01*
G01*
X172836600Y-120053800D02*
X172836600Y-115923800D01*
X166066600Y-130127800D02*
X166066600Y-114327800D01*
X178262600Y-120278800D02*
X178127600Y-120278800D01*
X184279600Y-130036800D02*
X184279600Y-114236800D01*
X173061600Y-115698800D02*
X173201600Y-115693800D01*
X196697600Y-132672800D02*
X197422600Y-132672800D01*
X178127600Y-115698800D02*
X178267600Y-115693800D01*
X179601600Y-132897800D02*
X179601600Y-145237800D01*
X173426600Y-115918800D02*
X173426600Y-120053800D01*
X195885600Y-120268800D02*
G75*
G02*
X195660600Y-120043800I0J225000D01*
G01*
X190900600Y-120218800D02*
X190765600Y-120218800D01*
X185229600Y-130261800D02*
X184504600Y-130261800D01*
X196250600Y-120043800D02*
G75*
G02*
X196025600Y-120268800I-225000J0D01*
G01*
X178127600Y-120278800D02*
G75*
G02*
X177902600Y-120053800I0J225000D01*
G01*
X172836600Y-115923800D02*
G75*
G02*
X173061600Y-115698800I225000J0D01*
G01*
X178420600Y-144337800D02*
X178426600Y-132897800D01*
X185454600Y-114236800D02*
X185454600Y-130036800D01*
X190540600Y-115863800D02*
G75*
G02*
X190765600Y-115638800I225000J0D01*
G01*
X166291600Y-130352800D02*
G75*
G02*
X166066600Y-130127800I0J225000D01*
G01*
X196466600Y-144337800D02*
G75*
G02*
X196241600Y-144562800I-225000J0D01*
G01*
X196250600Y-115908800D02*
X196250600Y-120043800D01*
X167016600Y-114102800D02*
G75*
G02*
X167241600Y-114327800I0J-225000D01*
G01*
X185229600Y-114011800D02*
G75*
G02*
X185454600Y-114236800I0J-225000D01*
G01*
X172164600Y-145237800D02*
X172164600Y-132867800D01*
X195660600Y-120043800D02*
X195660600Y-115913800D01*
X190765600Y-120218800D02*
G75*
G02*
X190540600Y-119993800I0J225000D01*
G01*
X178492600Y-115918800D02*
X178492600Y-120053800D01*
X196466600Y-144337800D02*
X196472600Y-132897800D01*
X190435600Y-145462800D02*
G75*
G02*
X190210600Y-145237800I0J225000D01*
G01*
X191130600Y-119993800D02*
G75*
G02*
X190905600Y-120218800I-225000J0D01*
G01*
X165630198Y-112674226D02*
G75*
G02*
X165630100Y-109674202I424902J1500026D01*
G01*
X165630099Y-109674201D02*
X191280100Y-109674202D01*
X145630099Y-112674198D02*
X119880099Y-112674198D01*
X145630101Y-109674202D02*
G75*
G02*
X145630099Y-112674198I-225001J-1499998D01*
G01*
X191280100Y-109674202D02*
G75*
G02*
X191280098Y-112674198I-275000J-1499998D01*
G01*
X195530100Y-112674199D02*
G75*
G02*
X195530101Y-109674201I450000J1499999D01*
G01*
X119880100Y-112674198D02*
G75*
G02*
X119880101Y-109674201I400000J1499998D01*
G01*
X115630100Y-109674201D02*
G75*
G02*
X115630099Y-112674199I-350000J-1499999D01*
G01*
X115630100Y-109674201D02*
X106830100Y-109674200D01*
X115630099Y-112674199D02*
X106830100Y-112674200D01*
X204330100Y-112674200D02*
X195530100Y-112674199D01*
X204330100Y-109674200D02*
X195530101Y-109674201D01*
X105580100Y-113924200D02*
G75*
G02*
X106830100Y-112674200I1250000J0D01*
G01*
X106830100Y-161174200D02*
G75*
G02*
X105580100Y-159924200I0J1250000D01*
G01*
X205580100Y-159924200D02*
G75*
G02*
X204330100Y-161174200I-1250000J0D01*
G01*
X204330100Y-112674200D02*
G75*
G02*
X205580100Y-113924200I0J-1250000D01*
G01*
X105580100Y-113924200D02*
X105580100Y-159924200D01*
X106830100Y-161174200D02*
X204330100Y-161174200D01*
X205580100Y-159924200D02*
X205580100Y-113924200D01*
X191280098Y-112674198D02*
X165630101Y-112674572D01*
X204330100Y-61174200D02*
G75*
G02*
X205580100Y-62424200I0J-1250000D01*
G01*
X205580100Y-108424200D02*
G75*
G02*
X204330100Y-109674200I-1250000J0D01*
G01*
X106830100Y-109674200D02*
G75*
G02*
X105580100Y-108424200I0J1250000D01*
G01*
X105580100Y-62424200D02*
G75*
G02*
X106830100Y-61174200I1250000J0D01*
G01*
X204330100Y-61174200D02*
X106830100Y-61174200D01*
X205580100Y-108424200D02*
X205580100Y-62424200D01*
X119880102Y-109674203D02*
X145630101Y-109674202D01*
X105580100Y-62424200D02*
X105580100Y-108424200D01*
X178420600Y-92837800D02*
G75*
G02*
X178195600Y-93062800I-225000J0D01*
G01*
X178426600Y-81397800D02*
G75*
G02*
X178651600Y-81172800I225000J0D01*
G01*
X173564600Y-93062800D02*
X178195600Y-93062800D01*
X178651600Y-81172800D02*
X179376600Y-81172800D01*
X178420600Y-92837800D02*
X178426600Y-81397800D01*
X179601600Y-81397800D02*
X179601600Y-93737800D01*
X172389600Y-93962800D02*
G75*
G02*
X172164600Y-93737800I0J225000D01*
G01*
X179601600Y-93737800D02*
G75*
G02*
X179376600Y-93962800I-225000J0D01*
G01*
X173114600Y-81142800D02*
G75*
G02*
X173339600Y-81367800I0J-225000D01*
G01*
X172389600Y-81142800D02*
X173114600Y-81142800D01*
X173564600Y-93062800D02*
G75*
G02*
X173339600Y-92837800I0J225000D01*
G01*
X172164600Y-93737800D02*
X172164600Y-81367800D01*
X173339600Y-81367800D02*
X173339600Y-92837800D01*
X179376600Y-93962800D02*
X172389600Y-93962800D01*
X179376600Y-81172800D02*
G75*
G02*
X179601600Y-81397800I0J-225000D01*
G01*
X172164600Y-81367800D02*
G75*
G02*
X172389600Y-81142800I225000J0D01*
G01*
X191610600Y-93062800D02*
G75*
G02*
X191385600Y-92837800I0J225000D01*
G01*
X196466600Y-92837800D02*
G75*
G02*
X196241600Y-93062800I-225000J0D01*
G01*
X185229600Y-62511800D02*
G75*
G02*
X185454600Y-62736800I0J-225000D01*
G01*
X184504600Y-62511800D02*
X185229600Y-62511800D01*
X185454600Y-62736800D02*
X185454600Y-78536800D01*
X185229600Y-78761800D02*
X184504600Y-78761800D01*
X184279600Y-78536800D02*
X184279600Y-62736800D01*
X184279600Y-62736800D02*
G75*
G02*
X184504600Y-62511800I225000J0D01*
G01*
X184504600Y-78761800D02*
G75*
G02*
X184279600Y-78536800I0J225000D01*
G01*
X185454600Y-78536800D02*
G75*
G02*
X185229600Y-78761800I-225000J0D01*
G01*
X196697600Y-81172800D02*
X197422600Y-81172800D01*
X197647600Y-81397800D02*
X197647600Y-93737800D01*
X196466600Y-92837800D02*
X196472600Y-81397800D01*
X196472600Y-81397800D02*
G75*
G02*
X196697600Y-81172800I225000J0D01*
G01*
X197422600Y-81172800D02*
G75*
G02*
X197647600Y-81397800I0J-225000D01*
G01*
X190435600Y-81142800D02*
X191160600Y-81142800D01*
X191385600Y-81367800D02*
X191385600Y-92837800D01*
X190210600Y-93737800D02*
X190210600Y-81367800D01*
X190210600Y-81367800D02*
G75*
G02*
X190435600Y-81142800I225000J0D01*
G01*
X191160600Y-81142800D02*
G75*
G02*
X191385600Y-81367800I0J-225000D01*
G01*
X197647600Y-93737800D02*
G75*
G02*
X197422600Y-93962800I-225000J0D01*
G01*
X190435600Y-93962800D02*
G75*
G02*
X190210600Y-93737800I0J225000D01*
G01*
X191610600Y-93062800D02*
X196241600Y-93062800D01*
X197422600Y-93962800D02*
X190435600Y-93962800D01*
X196025600Y-64183800D02*
G75*
G02*
X196250600Y-64408800I0J-225000D01*
G01*
X195660600Y-64413800D02*
G75*
G02*
X195885600Y-64188800I225000J0D01*
G01*
X195885600Y-68768800D02*
G75*
G02*
X195660600Y-68543800I0J225000D01*
G01*
X196020600Y-68768800D02*
X195885600Y-68768800D01*
X195660600Y-68543800D02*
X195660600Y-64413800D01*
X196250600Y-68543800D02*
G75*
G02*
X196025600Y-68768800I-225000J0D01*
G01*
X195885600Y-64188800D02*
X196025600Y-64183800D01*
X196250600Y-64408800D02*
X196250600Y-68543800D01*
X190905600Y-64133800D02*
G75*
G02*
X191130600Y-64358800I0J-225000D01*
G01*
X190540600Y-64363800D02*
G75*
G02*
X190765600Y-64138800I225000J0D01*
G01*
X190765600Y-68718800D02*
G75*
G02*
X190540600Y-68493800I0J225000D01*
G01*
X190900600Y-68718800D02*
X190765600Y-68718800D01*
X190540600Y-68493800D02*
X190540600Y-64363800D01*
X191130600Y-68493800D02*
G75*
G02*
X190905600Y-68718800I-225000J0D01*
G01*
X190765600Y-64138800D02*
X190905600Y-64133800D01*
X191130600Y-64358800D02*
X191130600Y-68493800D01*
X178267600Y-64193800D02*
G75*
G02*
X178492600Y-64418800I0J-225000D01*
G01*
X177902600Y-64423800D02*
G75*
G02*
X178127600Y-64198800I225000J0D01*
G01*
X178127600Y-68778800D02*
G75*
G02*
X177902600Y-68553800I0J225000D01*
G01*
X178262600Y-68778800D02*
X178127600Y-68778800D01*
X177902600Y-68553800D02*
X177902600Y-64423800D01*
X178492600Y-68553800D02*
G75*
G02*
X178267600Y-68778800I-225000J0D01*
G01*
X178127600Y-64198800D02*
X178267600Y-64193800D01*
X178492600Y-64418800D02*
X178492600Y-68553800D01*
X173201600Y-64193800D02*
G75*
G02*
X173426600Y-64418800I0J-225000D01*
G01*
X172836600Y-64423800D02*
G75*
G02*
X173061600Y-64198800I225000J0D01*
G01*
X173196600Y-68778800D02*
X173061600Y-68778800D01*
X173426600Y-68553800D02*
G75*
G02*
X173201600Y-68778800I-225000J0D01*
G01*
X173061600Y-64198800D02*
X173201600Y-64193800D01*
X173061600Y-68778800D02*
G75*
G02*
X172836600Y-68553800I0J225000D01*
G01*
X173426600Y-64418800D02*
X173426600Y-68553800D01*
X172836600Y-68553800D02*
X172836600Y-64423800D01*
X167241600Y-78627800D02*
G75*
G02*
X167016600Y-78852800I-225000J0D01*
G01*
X166291600Y-78852800D02*
G75*
G02*
X166066600Y-78627800I0J225000D01*
G01*
X167016600Y-62602800D02*
G75*
G02*
X167241600Y-62827800I0J-225000D01*
G01*
X166066600Y-62827800D02*
G75*
G02*
X166291600Y-62602800I225000J0D01*
G01*
X166066600Y-78627800D02*
X166066600Y-62827800D01*
X167016600Y-78852800D02*
X166291600Y-78852800D01*
X167241600Y-62827800D02*
X167241600Y-78627800D01*
X166291600Y-62602800D02*
X167016600Y-62602800D01*
M02*
