M48
; DRILL file {KiCad 5.1.9-73d0e3b20d~88~ubuntu18.04.1} date Fri Apr  2 00:43:39 2021
; FORMAT={-:-/ absolute / inch / decimal}
; #@! TF.CreationDate,2021-04-02T00:43:39+03:00
; #@! TF.GenerationSoftware,Kicad,Pcbnew,5.1.9-73d0e3b20d~88~ubuntu18.04.1
; #@! TF.FileFunction,NonPlated,1,2,NPTH
FMAT,2
INCH
T1C0.0197
%
G90
G05
T1
X4.6055Y-4.3258
X4.6055Y-4.4281
X4.635Y-4.3258
X4.635Y-4.4281
X4.6646Y-4.3258
X4.6646Y-4.4281
X5.7886Y-4.3258
X5.7886Y-4.4281
X5.8181Y-4.3258
X5.8181Y-4.4281
X5.8476Y-4.3258
X5.8476Y-4.4281
X5.8772Y-4.3258
X5.8772Y-4.4281
X5.9067Y-4.3258
X5.9067Y-4.4281
X5.9362Y-4.3258
X5.9362Y-4.4281
X5.9658Y-4.3258
X5.9658Y-4.4281
X5.9953Y-4.3258
X5.9953Y-4.4281
X6.0248Y-4.3258
X6.0248Y-4.4281
X6.0543Y-4.3258
X6.0543Y-4.4281
X6.0839Y-4.3258
X6.0839Y-4.4281
X6.1134Y-4.3258
X6.1134Y-4.4281
X6.1439Y-4.3258
X6.1439Y-4.4281
X6.1734Y-4.3258
X6.1734Y-4.4281
X6.203Y-4.3258
X6.203Y-4.4281
X6.2335Y-4.3258
X6.2335Y-4.4281
X6.263Y-4.3258
X6.263Y-4.4281
X6.2925Y-4.3258
X6.2925Y-4.4281
X6.323Y-4.3258
X6.323Y-4.4281
X6.3526Y-4.3258
X6.3526Y-4.4281
X6.3821Y-4.3258
X6.3821Y-4.4281
X6.4126Y-4.3258
X6.4126Y-4.4281
X6.4421Y-4.3258
X6.4421Y-4.4281
X6.4717Y-4.3258
X6.4717Y-4.4281
X7.5858Y-4.3258
X7.5858Y-4.4281
X7.6154Y-4.3258
X7.6154Y-4.4281
X7.6449Y-4.3258
X7.6449Y-4.4281
T0
M30
