M48
; DRILL file {KiCad 5.1.9-73d0e3b20d~88~ubuntu18.04.1} date Fri Apr  2 00:43:39 2021
; FORMAT={-:-/ absolute / inch / decimal}
; #@! TF.CreationDate,2021-04-02T00:43:39+03:00
; #@! TF.GenerationSoftware,Kicad,Pcbnew,5.1.9-73d0e3b20d~88~ubuntu18.04.1
; #@! TF.FileFunction,Plated,1,2,PTH
FMAT,2
INCH
T1C0.0157
T2C0.0236
T3C0.0335
T4C0.0394
T5C0.0512
T6C0.0598
T7C0.0866
%
G90
G05
T1
X4.2093Y-2.5263
X4.2093Y-4.1995
X4.2093Y-4.5539
X4.2093Y-6.2271
X4.2283Y-2.4804
X4.2283Y-2.5722
X4.2283Y-4.1536
X4.2283Y-4.2455
X4.2283Y-4.5079
X4.2283Y-4.5998
X4.2283Y-6.1811
X4.2283Y-6.273
X4.2743Y-2.4613
X4.2743Y-2.5913
X4.2743Y-4.1346
X4.2743Y-4.2645
X4.2743Y-4.4889
X4.2743Y-4.6188
X4.2743Y-6.1621
X4.2743Y-6.292
X4.3202Y-2.4804
X4.3202Y-2.5722
X4.3202Y-4.1536
X4.3202Y-4.2455
X4.3202Y-4.5079
X4.3202Y-4.5998
X4.3202Y-6.1811
X4.3202Y-6.273
X4.3262Y-2.8282
X4.3262Y-2.8682
X4.3262Y-4.8557
X4.3262Y-4.8957
X4.3392Y-2.5263
X4.3392Y-4.1995
X4.3392Y-4.5539
X4.3392Y-6.2271
X4.3762Y-2.8282
X4.3762Y-2.8682
X4.3762Y-4.8557
X4.3762Y-4.8957
X4.4262Y-2.8282
X4.4262Y-2.8682
X4.4262Y-4.8557
X4.4262Y-4.8957
X4.4612Y-3.9302
X4.4612Y-5.9577
X4.4622Y-3.5542
X4.4622Y-5.5817
X4.4632Y-3.6342
X4.4632Y-3.8462
X4.4632Y-5.6617
X4.4632Y-5.8737
X4.4637Y-3.7132
X4.4637Y-5.7407
X4.4752Y-3.9822
X4.4752Y-6.0097
X4.6182Y-2.9892
X4.6182Y-5.0167
X4.6192Y-3.0232
X4.6192Y-3.0592
X4.6192Y-5.0507
X4.6192Y-5.0867
X4.6202Y-3.0942
X4.6202Y-3.1292
X4.6202Y-5.1217
X4.6202Y-5.1567
X4.6252Y-3.5552
X4.6252Y-5.5827
X4.6282Y-3.6362
X4.6282Y-5.6637
X4.6512Y-3.9032
X4.6512Y-5.9307
X4.6537Y-3.7432
X4.6537Y-3.8232
X4.6537Y-5.7707
X4.6537Y-5.8507
X4.6782Y-3.1382
X4.6782Y-5.1657
X4.6792Y-2.9512
X4.6792Y-4.9787
X4.7112Y-3.5532
X4.7112Y-3.6357
X4.7112Y-5.5807
X4.7112Y-5.6632
X4.7162Y-3.7432
X4.7162Y-5.7707
X4.7187Y-3.8232
X4.7187Y-3.9032
X4.7187Y-5.8507
X4.7187Y-5.9307
X4.7342Y-2.9852
X4.7342Y-5.0127
X4.7352Y-3.0182
X4.7352Y-3.0512
X4.7352Y-3.0842
X4.7352Y-3.1192
X4.7352Y-5.0457
X4.7352Y-5.0787
X4.7352Y-5.1117
X4.7352Y-5.1467
X4.7762Y-2.9057
X4.7762Y-4.9332
X4.7912Y-4.1757
X4.7912Y-6.2557
X4.7997Y-3.8102
X4.7997Y-3.8582
X4.7997Y-5.8377
X4.7997Y-5.8857
X4.8122Y-4.1107
X4.8122Y-6.1382
X4.8322Y-3.3002
X4.8322Y-5.3277
X4.8332Y-3.2212
X4.8332Y-5.2487
X4.8362Y-3.3857
X4.8362Y-5.4132
X4.8372Y-2.7957
X4.8372Y-4.8232
X4.8382Y-2.7407
X4.8382Y-4.7682
X4.8397Y-2.6867
X4.8397Y-4.7142
X4.8592Y-3.3442
X4.8592Y-5.3717
X4.8602Y-3.2582
X4.8602Y-5.2857
X4.8612Y-3.4722
X4.8612Y-5.4997
X4.8632Y-3.4322
X4.8632Y-4.1502
X4.8632Y-5.4597
X4.8632Y-6.1777
X4.8697Y-3.7477
X4.8697Y-3.7977
X4.8697Y-3.8442
X4.8697Y-3.8902
X4.8697Y-5.7752
X4.8697Y-5.9177
X4.8712Y-3.5192
X4.8712Y-5.5467
X4.8752Y-2.9982
X4.8752Y-5.0257
X4.8862Y-2.6847
X4.8862Y-4.7122
X4.8882Y-2.7407
X4.8882Y-4.7682
X4.9062Y-4.1492
X4.9062Y-6.1767
X4.9362Y-2.7942
X4.9362Y-4.8217
X4.9527Y-4.1157
X4.9527Y-6.1432
X4.9587Y-4.1857
X4.9587Y-6.2607
X5.0462Y-3.3107
X5.0462Y-5.3382
X5.0587Y-4.1882
X5.0587Y-6.2632
X5.0622Y-2.6792
X5.0622Y-2.8642
X5.0622Y-4.7067
X5.0622Y-4.8917
X5.0632Y-2.8292
X5.0632Y-4.8567
X5.0642Y-3.1322
X5.0642Y-3.1682
X5.0642Y-3.2062
X5.0642Y-5.1597
X5.0642Y-5.1957
X5.0642Y-5.2337
X5.0652Y-3.0952
X5.0652Y-5.1227
X5.0682Y-2.7942
X5.0682Y-4.8217
X5.0887Y-3.3082
X5.0887Y-5.3357
X5.0987Y-3.8957
X5.0987Y-3.9557
X5.0987Y-4.0132
X5.0987Y-5.9232
X5.0987Y-5.9832
X5.0987Y-6.0407
X5.0992Y-2.9042
X5.0992Y-4.9317
X5.1002Y-3.2062
X5.1002Y-5.2337
X5.1012Y-3.0962
X5.1012Y-3.3682
X5.1012Y-5.1237
X5.1012Y-5.3957
X5.1032Y-2.7922
X5.1032Y-4.8197
X5.1207Y-3.6547
X5.1207Y-5.6822
X5.1217Y-3.5002
X5.1217Y-3.5472
X5.1217Y-5.5277
X5.1217Y-5.5747
X5.1232Y-3.7102
X5.1232Y-5.7377
X5.1252Y-3.7562
X5.1252Y-5.7837
X5.1287Y-3.3057
X5.1287Y-5.3332
X5.1342Y-2.9042
X5.1342Y-4.9317
X5.1352Y-3.0982
X5.1352Y-5.1257
X5.1362Y-3.2032
X5.1362Y-5.2307
X5.1412Y-2.7912
X5.1412Y-3.9932
X5.1412Y-4.1882
X5.1412Y-4.8187
X5.1412Y-6.0207
X5.1412Y-6.2682
X5.1462Y-3.9457
X5.1462Y-5.9732
X5.1487Y-3.3632
X5.1487Y-3.8957
X5.1487Y-5.3907
X5.1487Y-5.9232
X5.1572Y-3.0162
X5.1572Y-5.0437
X5.1652Y-3.4962
X5.1652Y-5.5237
X5.1677Y-3.5417
X5.1677Y-5.5692
X5.1682Y-2.9032
X5.1682Y-4.9307
X5.1692Y-3.0992
X5.1692Y-5.1267
X5.1702Y-3.1992
X5.1702Y-5.2267
X5.1712Y-3.3057
X5.1712Y-5.3332
X5.1732Y-3.6517
X5.1732Y-3.7112
X5.1732Y-5.6792
X5.1732Y-5.7387
X5.1742Y-3.7572
X5.1742Y-5.7847
X5.1762Y-2.7912
X5.1762Y-4.8187
X5.1937Y-3.9407
X5.1937Y-5.9682
X5.2012Y-3.8957
X5.2012Y-5.9232
X5.2042Y-2.9032
X5.2042Y-4.9307
X5.2092Y-2.7912
X5.2092Y-4.8187
X5.2152Y-2.4602
X5.2152Y-4.4877
X5.2162Y-2.5782
X5.2162Y-3.0007
X5.2162Y-4.6057
X5.2162Y-5.0282
X5.2287Y-4.1007
X5.2287Y-6.1282
X5.2437Y-3.7807
X5.2437Y-5.8082
X5.2602Y-3.0282
X5.2602Y-5.0557
X5.2762Y-3.3332
X5.2762Y-5.3607
X5.2777Y-3.2487
X5.2777Y-5.2762
X5.2872Y-3.1612
X5.2872Y-5.1887
X5.2902Y-2.5337
X5.2902Y-4.5612
X5.2972Y-2.7912
X5.2972Y-4.8187
X5.2992Y-2.4602
X5.2992Y-4.4877
X5.3012Y-3.7807
X5.3012Y-5.8082
X5.3062Y-3.5107
X5.3062Y-5.5382
X5.3072Y-3.9238
X5.3072Y-5.9513
X5.3087Y-3.2912
X5.3087Y-5.3187
X5.3092Y-3.6822
X5.3092Y-5.7097
X5.3112Y-3.6227
X5.3112Y-5.6502
X5.3117Y-3.2117
X5.3117Y-5.2392
X5.3162Y-3.3682
X5.3162Y-5.3957
X5.3187Y-4.0107
X5.3187Y-4.1007
X5.3187Y-6.0382
X5.3187Y-6.1282
X5.3362Y-2.5682
X5.3362Y-4.5957
X5.3522Y-3.7702
X5.3522Y-5.7977
X5.3522Y-3.5512
X5.3522Y-5.5787
X5.3822Y-3.9592
X5.3822Y-5.9867
X5.3902Y-2.4602
X5.3902Y-4.4877
X5.3922Y-3.7047
X5.3922Y-5.7322
X5.3937Y-4.0107
X5.3937Y-6.0382
X5.3962Y-4.1007
X5.3962Y-6.1282
X5.3977Y-3.3542
X5.3977Y-5.3817
X5.4007Y-3.5197
X5.4007Y-5.5472
X5.4012Y-3.0487
X5.4012Y-3.1407
X5.4012Y-3.4757
X5.4012Y-5.0762
X5.4012Y-5.1682
X5.4012Y-5.5032
X5.4152Y-3.4242
X5.4152Y-5.4517
X5.4177Y-3.6662
X5.4177Y-5.6937
X5.4312Y-2.7762
X5.4312Y-4.8037
X5.4422Y-2.5282
X5.4422Y-4.5557
X5.4482Y-3.1407
X5.4522Y-2.9972
X5.4522Y-5.0247
X5.4922Y-2.4602
X5.4922Y-4.4877
X5.4932Y-3.1397
X5.4932Y-5.1672
X5.5572Y-3.0012
X5.5572Y-5.0287
X5.5607Y-3.1762
X5.5607Y-5.2037
X5.5632Y-2.7772
X5.5632Y-4.8047
X5.5687Y-3.2247
X5.5847Y-3.4977
X5.5847Y-5.5252
X5.5862Y-3.2837
X5.5862Y-5.3112
X5.5907Y-3.5697
X5.5907Y-5.5972
X5.5937Y-3.1341
X5.5937Y-5.1616
X5.6002Y-2.4602
X5.6002Y-4.4877
X5.6077Y-3.2232
X5.6182Y-3.1717
X5.6182Y-5.1992
X5.6277Y-3.7067
X5.6277Y-5.7342
X5.6342Y-3.5337
X5.6342Y-5.5612
X5.6352Y-2.8122
X5.6352Y-4.8397
X5.6382Y-3.8272
X5.6382Y-5.8547
X5.6442Y-2.8812
X5.6442Y-4.9087
X5.6637Y-3.6192
X5.6637Y-5.6467
X5.6832Y-3.4482
X5.6832Y-5.4757
X5.6837Y-3.1672
X5.6837Y-5.1947
X5.6842Y-3.8632
X5.6842Y-5.8907
X5.6852Y-3.2792
X5.6852Y-5.3067
X5.6872Y-3.2177
X5.6892Y-2.8802
X5.6892Y-4.9077
X5.6902Y-2.8122
X5.6902Y-4.8397
X5.6912Y-2.4602
X5.6912Y-4.4877
X5.6937Y-3.7772
X5.6937Y-5.8047
X5.6942Y-3.9897
X5.6942Y-6.0172
X5.7462Y-2.5682
X5.7462Y-4.5957
X5.7622Y-3.4472
X5.7622Y-5.4747
X5.7627Y-3.1647
X5.7627Y-3.2167
X5.7627Y-5.1922
X5.7632Y-3.2772
X5.7632Y-5.3047
X5.7652Y-3.6007
X5.7652Y-5.6282
X5.7662Y-3.7697
X5.7662Y-5.7972
X5.8112Y-3.0297
X5.8112Y-5.0572
X5.8122Y-3.6727
X5.8122Y-5.7002
X5.8427Y-3.9912
X5.8427Y-6.0187
X5.8452Y-3.1617
X5.8452Y-3.7962
X5.8452Y-5.1892
X5.8452Y-5.8237
X5.8472Y-3.2622
X5.8472Y-5.2897
X5.8487Y-3.2157
X5.8662Y-2.5682
X5.8662Y-4.5957
X5.8897Y-2.7762
X5.8897Y-4.8037
X5.8962Y-2.9927
X5.8962Y-3.7537
X5.8962Y-5.0202
X5.8962Y-5.7812
X5.9152Y-3.9222
X5.9152Y-5.9497
X5.9227Y-3.5517
X5.9227Y-5.5792
X5.9237Y-3.4492
X5.9237Y-5.4767
X5.9257Y-3.8702
X5.9257Y-5.8977
X5.9332Y-3.7197
X5.9332Y-5.7472
X5.9432Y-3.1341
X5.9432Y-5.1616
X5.9462Y-2.7706
X5.9462Y-4.7982
X5.9482Y-2.9616
X5.9482Y-4.9892
X5.9547Y-3.2177
X5.9562Y-2.5682
X5.9637Y-3.9942
X5.9637Y-6.0217
X5.9707Y-3.2687
X5.9707Y-5.2962
X5.9727Y-3.5697
X5.9727Y-5.5972
X5.9772Y-3.6292
X5.9772Y-5.6567
X5.9862Y-3.7132
X5.9862Y-5.7407
X5.9982Y-3.2407
X5.9982Y-5.2682
X6.0002Y-2.7812
X6.0002Y-4.8087
X6.0237Y-3.8657
X6.0237Y-5.8932
X6.0262Y-4.5957
X6.0487Y-2.7997
X6.0487Y-4.8273
X6.0692Y-3.2767
X6.0692Y-3.3657
X6.0692Y-5.3042
X6.0692Y-5.3932
X6.0962Y-2.5682
X6.0962Y-3.1582
X6.0962Y-5.1857
X6.1067Y-3.3092
X6.1067Y-5.3367
X6.1122Y-3.3657
X6.1122Y-5.3932
X6.1362Y-2.9647
X6.1362Y-4.9922
X6.1552Y-3.3627
X6.1552Y-5.3902
X6.1562Y-2.6157
X6.1587Y-2.7132
X6.1587Y-4.7407
X6.1762Y-2.9707
X6.1762Y-4.5957
X6.1762Y-4.9982
X6.1822Y-3.4052
X6.1822Y-5.4327
X6.1862Y-3.1582
X6.1862Y-3.2557
X6.1862Y-3.4487
X6.1862Y-5.1857
X6.1862Y-5.2832
X6.1862Y-5.4762
X6.1942Y-3.9487
X6.1942Y-5.9763
X6.2032Y-3.4942
X6.2032Y-5.5217
X6.2212Y-4.1507
X6.2212Y-6.1782
X6.2237Y-4.2557
X6.2237Y-6.2832
X6.2247Y-3.4067
X6.2262Y-2.7782
X6.2262Y-4.8057
X6.2302Y-2.9727
X6.2302Y-5.0002
X6.2412Y-2.6557
X6.2412Y-4.6832
X6.2437Y-2.7082
X6.2437Y-3.6687
X6.2437Y-4.0432
X6.2437Y-4.7357
X6.2437Y-5.6962
X6.2437Y-6.0707
X6.2447Y-3.8847
X6.2447Y-3.8847
X6.2447Y-5.9122
X6.2447Y-5.9122
X6.2762Y-3.3382
X6.2762Y-5.3657
X6.2777Y-3.7607
X6.2777Y-5.7882
X6.2912Y-3.1607
X6.2912Y-3.2557
X6.2912Y-5.1882
X6.2912Y-5.2832
X6.2962Y-2.7557
X6.2962Y-4.7832
X6.3087Y-2.9832
X6.3087Y-5.0107
X6.3237Y-4.2632
X6.3237Y-6.2907
X6.3412Y-2.7782
X6.3412Y-3.3332
X6.3412Y-3.4482
X6.3412Y-4.8057
X6.3412Y-5.3607
X6.3412Y-5.4757
X6.3537Y-4.1557
X6.3537Y-6.1832
X6.3587Y-2.5782
X6.3587Y-4.6057
X6.3887Y-3.2707
X6.3887Y-5.2982
X6.3912Y-3.3907
X6.3912Y-3.5007
X6.3912Y-5.4182
X6.3912Y-5.5282
X6.4017Y-4.0447
X6.4017Y-6.0722
X6.4037Y-2.9757
X6.4037Y-5.0032
X6.4137Y-2.7207
X6.4137Y-4.7482
X6.4537Y-6.2857
X6.5034Y-3.9554
X6.5034Y-5.983
X6.5117Y-4.2842
X6.5142Y-3.8037
X6.5142Y-5.8312
X6.5172Y-3.9052
X6.5172Y-5.9327
X6.5197Y-4.1642
X6.5197Y-6.1917
X6.5207Y-4.0422
X6.5207Y-6.0697
X6.5287Y-3.8567
X6.5287Y-5.8842
X6.6002Y-4.2822
X6.6002Y-6.3097
X6.6902Y-4.2822
X6.6902Y-6.3097
X6.7112Y-3.8107
X6.7112Y-5.8382
X6.7437Y-4.1357
X6.7437Y-6.1632
X6.7522Y-4.0007
X6.7522Y-6.0282
X6.7822Y-3.8717
X6.7822Y-5.8992
X6.8187Y-3.8546
X6.8187Y-5.8822
X6.8877Y-4.2892
X6.8877Y-6.3167
X6.8907Y-4.1827
X6.8907Y-6.2102
X6.9032Y-4.1112
X6.9032Y-6.1387
X6.9962Y-4.0707
X6.9962Y-6.0982
X7.0412Y-4.1332
X7.0412Y-6.1607
X7.0627Y-3.8117
X7.0627Y-5.8392
X7.0787Y-4.0682
X7.0787Y-6.0957
X7.0802Y-4.2857
X7.0802Y-6.3132
X7.1387Y-4.0032
X7.1387Y-4.1332
X7.1387Y-6.0307
X7.1387Y-6.1607
X7.1812Y-3.7782
X7.1812Y-5.8057
X7.2062Y-3.9942
X7.2062Y-6.0217
X7.2262Y-4.2882
X7.2262Y-6.3157
X7.2937Y-3.8622
X7.2937Y-5.8897
X7.2962Y-3.7782
X7.2962Y-5.8057
X7.3452Y-4.2537
X7.3452Y-6.2813
X7.3637Y-3.8612
X7.3637Y-3.9922
X7.3637Y-5.8887
X7.3637Y-6.0197
X7.4062Y-3.7782
X7.4062Y-5.8057
X7.4282Y-3.8607
X7.4282Y-5.8882
X7.4737Y-4.1782
X7.4737Y-6.2057
X7.4987Y-3.8607
X7.4987Y-5.8882
X7.5062Y-3.9932
X7.5062Y-6.0207
X7.5534Y-3.8724
X7.5534Y-5.9
X7.5962Y-4.1732
X7.5962Y-6.2007
X7.6502Y-3.8092
X7.6502Y-5.8367
X7.7162Y-4.1707
X7.7162Y-6.1982
X7.7662Y-4.0082
X7.7662Y-6.0357
X7.8257Y-3.9547
X7.8257Y-5.9822
X7.8337Y-4.1782
X7.8337Y-6.2057
X7.8837Y-4.0132
X7.8837Y-6.0407
X7.8962Y-3.7807
X7.8962Y-5.8082
X7.9062Y-4.0907
X7.9062Y-6.1182
X7.9101Y-4.1995
X7.9101Y-6.2271
X7.9291Y-4.1536
X7.9291Y-4.2455
X7.9291Y-6.1811
X7.9291Y-6.273
X7.9322Y-3.9507
X7.9322Y-5.9782
X7.9751Y-4.1346
X7.9751Y-4.2645
X7.9751Y-6.1621
X7.9751Y-6.292
X8.021Y-4.1536
X8.021Y-4.2455
X8.021Y-6.1811
X8.021Y-6.273
X8.0262Y-3.7752
X8.0262Y-3.9732
X8.0262Y-5.8027
X8.0262Y-6.0007
X8.04Y-4.1995
X8.04Y-6.2271
X8.0512Y-3.8557
X8.0512Y-5.8832
T3
X4.9066Y-2.5708
X4.9066Y-4.5983
X5.1034Y-2.5708
X5.1034Y-4.5983
T4
X4.2562Y-3.3882
X4.2562Y-3.4882
X4.2562Y-3.5882
X4.2562Y-3.7382
X4.2562Y-3.8382
X4.2562Y-3.9382
X4.2562Y-5.4157
X4.2562Y-5.5157
X4.2562Y-5.6157
X4.2562Y-5.7657
X4.2562Y-5.8657
X4.2562Y-5.9657
X5.0172Y-3.4992
X5.0172Y-3.5992
X5.0172Y-3.6992
X5.0172Y-3.7992
X5.0172Y-3.8992
X5.0172Y-3.9992
X5.0172Y-5.5267
X5.0172Y-5.6267
X5.0172Y-5.7267
X5.0172Y-5.8267
X5.0172Y-5.9267
X5.0172Y-6.0267
X5.3117Y-2.6422
X5.3117Y-4.6697
X5.4102Y-2.6422
X5.4102Y-4.6697
X5.6457Y-2.6422
X5.6457Y-4.6697
X5.7442Y-2.6422
X5.7442Y-4.6697
X5.9797Y-2.6422
X5.9797Y-4.6697
X6.0462Y-3.0782
X6.0462Y-5.1057
X6.0782Y-2.6422
X6.0782Y-4.6697
X6.1462Y-3.0782
X6.1462Y-5.1057
X6.2462Y-3.0782
X6.2462Y-5.1057
X6.3147Y-2.6422
X6.3147Y-4.6697
X6.3462Y-3.0782
X6.3462Y-5.1057
X6.4132Y-2.6422
X6.4132Y-4.6697
X6.4167Y-3.6027
X6.4167Y-3.7027
X6.4167Y-3.8027
X6.4167Y-3.9027
X6.4167Y-5.6302
X6.4167Y-5.7302
X6.4167Y-5.8302
X6.4167Y-5.9302
X6.6222Y-3.8102
X6.6222Y-3.9102
X6.6222Y-4.0102
X6.6222Y-4.1102
X6.6222Y-5.8377
X6.6222Y-5.9377
X6.6222Y-6.0377
X6.6222Y-6.1377
T5
X6.6849Y-2.9696
X6.6849Y-3.4499
X6.6849Y-4.9972
X6.6849Y-5.4775
X6.9211Y-3.5287
X6.9211Y-5.5562
X7.1573Y-2.9696
X7.1573Y-3.4499
X7.1573Y-4.9972
X7.1573Y-5.4775
X7.4003Y-2.9661
X7.4003Y-3.4464
X7.4003Y-4.9936
X7.4003Y-5.4739
X7.6365Y-3.5251
X7.6365Y-5.5527
X7.8727Y-2.9661
X7.8727Y-3.4464
X7.8727Y-4.9936
X7.8727Y-5.4739
T6
X6.7156Y-2.6137
X6.7156Y-4.6413
X6.9156Y-2.6137
X6.9156Y-4.6413
X7.1156Y-2.6137
X7.1156Y-4.6413
X7.4144Y-2.6137
X7.4144Y-4.6413
X7.6144Y-2.6137
X7.6144Y-4.6413
X7.8144Y-2.6137
X7.8144Y-4.6413
T7
X4.2743Y-2.5263
X4.2743Y-4.1995
X4.2743Y-4.5539
X4.2743Y-6.2271
X7.9751Y-4.1995
X7.9751Y-6.2271
X8.0052Y-2.4962
X8.0052Y-4.5237
T2
G00X4.8672Y-2.4783
M15
G01X4.8672Y-2.4507
M16
G05
G00X4.8672Y-4.5058
M15
G01X4.8672Y-4.4783
M16
G05
G00X5.1428Y-2.4507
M15
G01X5.1428Y-2.4783
M16
G05
G00X5.1428Y-4.4783
M15
G01X5.1428Y-4.5058
M16
G05
T4
G00X4.4259Y-2.6542
M15
G01X4.4259Y-2.733
M16
G05
G00X4.4259Y-4.6818
M15
G01X4.4259Y-4.7605
M16
G05
G00X4.6503Y-2.5755
M15
G01X4.5715Y-2.5755
M16
G05
G00X4.6503Y-2.8117
M15
G01X4.5715Y-2.8117
M16
G05
G00X4.6503Y-4.6031
M15
G01X4.5715Y-4.6031
M16
G05
G00X4.6503Y-4.8393
M15
G01X4.5715Y-4.8393
M16
G05
T0
M30
