G04 #@! TF.GenerationSoftware,KiCad,Pcbnew,5.1.9-73d0e3b20d~88~ubuntu18.04.1*
G04 #@! TF.CreationDate,2021-04-02T00:43:31+03:00*
G04 #@! TF.ProjectId,electra-100x100mm-2x1-panel,656c6563-7472-4612-9d31-303078313030,1*
G04 #@! TF.SameCoordinates,Original*
G04 #@! TF.FileFunction,Soldermask,Top*
G04 #@! TF.FilePolarity,Negative*
%FSLAX46Y46*%
G04 Gerber Fmt 4.6, Leading zero omitted, Abs format (unit mm)*
G04 Created by KiCad (PCBNEW 5.1.9-73d0e3b20d~88~ubuntu18.04.1) date 2021-04-02 00:43:31*
%MOMM*%
%LPD*%
G01*
G04 APERTURE LIST*
%ADD10R,2.000000X1.500000*%
%ADD11R,2.000000X3.800000*%
%ADD12R,1.800000X3.500000*%
%ADD13C,4.400000*%
%ADD14C,0.700000*%
%ADD15O,1.700000X2.000000*%
%ADD16C,1.500000*%
%ADD17C,3.000000*%
%ADD18R,3.000000X3.000000*%
%ADD19R,1.300000X1.700000*%
%ADD20R,3.500000X3.500000*%
%ADD21R,3.500000X1.800000*%
%ADD22O,1.700000X1.700000*%
%ADD23R,1.700000X1.700000*%
%ADD24R,1.200000X1.900000*%
%ADD25O,1.200000X1.900000*%
%ADD26R,1.500000X1.900000*%
%ADD27C,1.450000*%
%ADD28R,0.400000X1.350000*%
%ADD29R,0.700000X0.450000*%
%ADD30C,2.600000*%
%ADD31C,3.500000*%
%ADD32R,1.500000X1.500000*%
%ADD33C,0.500000*%
G04 APERTURE END LIST*
G36*
G01*
X137216300Y-133963397D02*
X137216300Y-135263403D01*
G75*
G02*
X136966303Y-135513400I-249997J0D01*
G01*
X136141297Y-135513400D01*
G75*
G02*
X135891300Y-135263403I0J249997D01*
G01*
X135891300Y-133963397D01*
G75*
G02*
X136141297Y-133713400I249997J0D01*
G01*
X136966303Y-133713400D01*
G75*
G02*
X137216300Y-133963397I0J-249997D01*
G01*
G37*
G36*
G01*
X140341300Y-133963397D02*
X140341300Y-135263403D01*
G75*
G02*
X140091303Y-135513400I-249997J0D01*
G01*
X139266297Y-135513400D01*
G75*
G02*
X139016300Y-135263403I0J249997D01*
G01*
X139016300Y-133963397D01*
G75*
G02*
X139266297Y-133713400I249997J0D01*
G01*
X140091303Y-133713400D01*
G75*
G02*
X140341300Y-133963397I0J-249997D01*
G01*
G37*
D10*
X115370600Y-150499800D03*
X115370600Y-155099800D03*
X115370600Y-152799800D03*
D11*
X121670600Y-152799800D03*
G36*
G01*
X161942100Y-124192800D02*
X161467100Y-124192800D01*
G75*
G02*
X161229600Y-123955300I0J237500D01*
G01*
X161229600Y-123455300D01*
G75*
G02*
X161467100Y-123217800I237500J0D01*
G01*
X161942100Y-123217800D01*
G75*
G02*
X162179600Y-123455300I0J-237500D01*
G01*
X162179600Y-123955300D01*
G75*
G02*
X161942100Y-124192800I-237500J0D01*
G01*
G37*
G36*
G01*
X161942100Y-126017800D02*
X161467100Y-126017800D01*
G75*
G02*
X161229600Y-125780300I0J237500D01*
G01*
X161229600Y-125280300D01*
G75*
G02*
X161467100Y-125042800I237500J0D01*
G01*
X161942100Y-125042800D01*
G75*
G02*
X162179600Y-125280300I0J-237500D01*
G01*
X162179600Y-125780300D01*
G75*
G02*
X161942100Y-126017800I-237500J0D01*
G01*
G37*
G36*
G01*
X145969100Y-125030800D02*
X146444100Y-125030800D01*
G75*
G02*
X146681600Y-125268300I0J-237500D01*
G01*
X146681600Y-125768300D01*
G75*
G02*
X146444100Y-126005800I-237500J0D01*
G01*
X145969100Y-126005800D01*
G75*
G02*
X145731600Y-125768300I0J237500D01*
G01*
X145731600Y-125268300D01*
G75*
G02*
X145969100Y-125030800I237500J0D01*
G01*
G37*
G36*
G01*
X145969100Y-123205800D02*
X146444100Y-123205800D01*
G75*
G02*
X146681600Y-123443300I0J-237500D01*
G01*
X146681600Y-123943300D01*
G75*
G02*
X146444100Y-124180800I-237500J0D01*
G01*
X145969100Y-124180800D01*
G75*
G02*
X145731600Y-123943300I0J237500D01*
G01*
X145731600Y-123443300D01*
G75*
G02*
X145969100Y-123205800I237500J0D01*
G01*
G37*
G36*
G01*
X138591800Y-132445500D02*
X138591800Y-132920500D01*
G75*
G02*
X138354300Y-133158000I-237500J0D01*
G01*
X137754300Y-133158000D01*
G75*
G02*
X137516800Y-132920500I0J237500D01*
G01*
X137516800Y-132445500D01*
G75*
G02*
X137754300Y-132208000I237500J0D01*
G01*
X138354300Y-132208000D01*
G75*
G02*
X138591800Y-132445500I0J-237500D01*
G01*
G37*
G36*
G01*
X140316800Y-132445500D02*
X140316800Y-132920500D01*
G75*
G02*
X140079300Y-133158000I-237500J0D01*
G01*
X139479300Y-133158000D01*
G75*
G02*
X139241800Y-132920500I0J237500D01*
G01*
X139241800Y-132445500D01*
G75*
G02*
X139479300Y-132208000I237500J0D01*
G01*
X140079300Y-132208000D01*
G75*
G02*
X140316800Y-132445500I0J-237500D01*
G01*
G37*
D12*
X112848600Y-131767800D03*
X112848600Y-126767800D03*
D13*
X108566600Y-158167800D03*
D14*
X110216600Y-158167800D03*
X109733326Y-159334526D03*
X108566600Y-159817800D03*
X107399874Y-159334526D03*
X106916600Y-158167800D03*
X107399874Y-157001074D03*
X108566600Y-156517800D03*
X109733326Y-157001074D03*
D15*
X160394400Y-118611400D03*
G36*
G01*
X163744400Y-117861400D02*
X163744400Y-119361400D01*
G75*
G02*
X163494400Y-119611400I-250000J0D01*
G01*
X162294400Y-119611400D01*
G75*
G02*
X162044400Y-119361400I0J250000D01*
G01*
X162044400Y-117861400D01*
G75*
G02*
X162294400Y-117611400I250000J0D01*
G01*
X163494400Y-117611400D01*
G75*
G02*
X163744400Y-117861400I0J-250000D01*
G01*
G37*
D16*
X114393100Y-135400800D03*
G36*
G01*
X151270100Y-126005800D02*
X150795100Y-126005800D01*
G75*
G02*
X150557600Y-125768300I0J237500D01*
G01*
X150557600Y-125268300D01*
G75*
G02*
X150795100Y-125030800I237500J0D01*
G01*
X151270100Y-125030800D01*
G75*
G02*
X151507600Y-125268300I0J-237500D01*
G01*
X151507600Y-125768300D01*
G75*
G02*
X151270100Y-126005800I-237500J0D01*
G01*
G37*
G36*
G01*
X151270100Y-124180800D02*
X150795100Y-124180800D01*
G75*
G02*
X150557600Y-123943300I0J237500D01*
G01*
X150557600Y-123443300D01*
G75*
G02*
X150795100Y-123205800I237500J0D01*
G01*
X151270100Y-123205800D01*
G75*
G02*
X151507600Y-123443300I0J-237500D01*
G01*
X151507600Y-123943300D01*
G75*
G02*
X151270100Y-124180800I-237500J0D01*
G01*
G37*
D17*
X198486600Y-117887800D03*
X193406600Y-117887800D03*
D18*
X188326600Y-117887800D03*
G36*
G01*
X146751800Y-117861400D02*
X146751800Y-119361400D01*
G75*
G02*
X146501800Y-119611400I-250000J0D01*
G01*
X145301800Y-119611400D01*
G75*
G02*
X145051800Y-119361400I0J250000D01*
G01*
X145051800Y-117861400D01*
G75*
G02*
X145301800Y-117611400I250000J0D01*
G01*
X146501800Y-117611400D01*
G75*
G02*
X146751800Y-117861400I0J-250000D01*
G01*
G37*
D15*
X143401800Y-118611400D03*
X134918200Y-118611400D03*
G36*
G01*
X138268200Y-117861400D02*
X138268200Y-119361400D01*
G75*
G02*
X138018200Y-119611400I-250000J0D01*
G01*
X136818200Y-119611400D01*
G75*
G02*
X136568200Y-119361400I0J250000D01*
G01*
X136568200Y-117861400D01*
G75*
G02*
X136818200Y-117611400I250000J0D01*
G01*
X138018200Y-117611400D01*
G75*
G02*
X138268200Y-117861400I0J-250000D01*
G01*
G37*
D18*
X170576600Y-117887800D03*
D17*
X175656600Y-117887800D03*
X180736600Y-117887800D03*
D19*
X195949900Y-148316700D03*
X192449900Y-148316700D03*
G36*
G01*
X175728200Y-150466800D02*
X175728200Y-150941800D01*
G75*
G02*
X175490700Y-151179300I-237500J0D01*
G01*
X174990700Y-151179300D01*
G75*
G02*
X174753200Y-150941800I0J237500D01*
G01*
X174753200Y-150466800D01*
G75*
G02*
X174990700Y-150229300I237500J0D01*
G01*
X175490700Y-150229300D01*
G75*
G02*
X175728200Y-150466800I0J-237500D01*
G01*
G37*
G36*
G01*
X177553200Y-150466800D02*
X177553200Y-150941800D01*
G75*
G02*
X177315700Y-151179300I-237500J0D01*
G01*
X176815700Y-151179300D01*
G75*
G02*
X176578200Y-150941800I0J237500D01*
G01*
X176578200Y-150466800D01*
G75*
G02*
X176815700Y-150229300I237500J0D01*
G01*
X177315700Y-150229300D01*
G75*
G02*
X177553200Y-150466800I0J-237500D01*
G01*
G37*
G36*
G01*
X119324600Y-130667800D02*
X118224600Y-130667800D01*
G75*
G02*
X117974600Y-130417800I0J250000D01*
G01*
X117974600Y-127417800D01*
G75*
G02*
X118224600Y-127167800I250000J0D01*
G01*
X119324600Y-127167800D01*
G75*
G02*
X119574600Y-127417800I0J-250000D01*
G01*
X119574600Y-130417800D01*
G75*
G02*
X119324600Y-130667800I-250000J0D01*
G01*
G37*
G36*
G01*
X119324600Y-136267800D02*
X118224600Y-136267800D01*
G75*
G02*
X117974600Y-136017800I0J250000D01*
G01*
X117974600Y-133017800D01*
G75*
G02*
X118224600Y-132767800I250000J0D01*
G01*
X119324600Y-132767800D01*
G75*
G02*
X119574600Y-133017800I0J-250000D01*
G01*
X119574600Y-136017800D01*
G75*
G02*
X119324600Y-136267800I-250000J0D01*
G01*
G37*
G36*
G01*
X155842100Y-126005800D02*
X155367100Y-126005800D01*
G75*
G02*
X155129600Y-125768300I0J237500D01*
G01*
X155129600Y-125268300D01*
G75*
G02*
X155367100Y-125030800I237500J0D01*
G01*
X155842100Y-125030800D01*
G75*
G02*
X156079600Y-125268300I0J-237500D01*
G01*
X156079600Y-125768300D01*
G75*
G02*
X155842100Y-126005800I-237500J0D01*
G01*
G37*
G36*
G01*
X155842100Y-124180800D02*
X155367100Y-124180800D01*
G75*
G02*
X155129600Y-123943300I0J237500D01*
G01*
X155129600Y-123443300D01*
G75*
G02*
X155367100Y-123205800I237500J0D01*
G01*
X155842100Y-123205800D01*
G75*
G02*
X156079600Y-123443300I0J-237500D01*
G01*
X156079600Y-123943300D01*
G75*
G02*
X155842100Y-124180800I-237500J0D01*
G01*
G37*
G36*
G01*
X123622600Y-124393800D02*
X123622600Y-123293800D01*
G75*
G02*
X123872600Y-123043800I250000J0D01*
G01*
X126872600Y-123043800D01*
G75*
G02*
X127122600Y-123293800I0J-250000D01*
G01*
X127122600Y-124393800D01*
G75*
G02*
X126872600Y-124643800I-250000J0D01*
G01*
X123872600Y-124643800D01*
G75*
G02*
X123622600Y-124393800I0J250000D01*
G01*
G37*
G36*
G01*
X129222600Y-124393800D02*
X129222600Y-123293800D01*
G75*
G02*
X129472600Y-123043800I250000J0D01*
G01*
X132472600Y-123043800D01*
G75*
G02*
X132722600Y-123293800I0J-250000D01*
G01*
X132722600Y-124393800D01*
G75*
G02*
X132472600Y-124643800I-250000J0D01*
G01*
X129472600Y-124643800D01*
G75*
G02*
X129222600Y-124393800I0J250000D01*
G01*
G37*
G36*
G01*
X124583600Y-142951800D02*
X123633600Y-142951800D01*
G75*
G02*
X123383600Y-142701800I0J250000D01*
G01*
X123383600Y-142026800D01*
G75*
G02*
X123633600Y-141776800I250000J0D01*
G01*
X124583600Y-141776800D01*
G75*
G02*
X124833600Y-142026800I0J-250000D01*
G01*
X124833600Y-142701800D01*
G75*
G02*
X124583600Y-142951800I-250000J0D01*
G01*
G37*
G36*
G01*
X124583600Y-145026800D02*
X123633600Y-145026800D01*
G75*
G02*
X123383600Y-144776800I0J250000D01*
G01*
X123383600Y-144101800D01*
G75*
G02*
X123633600Y-143851800I250000J0D01*
G01*
X124583600Y-143851800D01*
G75*
G02*
X124833600Y-144101800I0J-250000D01*
G01*
X124833600Y-144776800D01*
G75*
G02*
X124583600Y-145026800I-250000J0D01*
G01*
G37*
G36*
G01*
X111541600Y-118167800D02*
X113291600Y-118167800D01*
G75*
G02*
X114166600Y-119042800I0J-875000D01*
G01*
X114166600Y-120792800D01*
G75*
G02*
X113291600Y-121667800I-875000J0D01*
G01*
X111541600Y-121667800D01*
G75*
G02*
X110666600Y-120792800I0J875000D01*
G01*
X110666600Y-119042800D01*
G75*
G02*
X111541600Y-118167800I875000J0D01*
G01*
G37*
G36*
G01*
X116116600Y-115417800D02*
X118116600Y-115417800D01*
G75*
G02*
X118866600Y-116167800I0J-750000D01*
G01*
X118866600Y-117667800D01*
G75*
G02*
X118116600Y-118417800I-750000J0D01*
G01*
X116116600Y-118417800D01*
G75*
G02*
X115366600Y-117667800I0J750000D01*
G01*
X115366600Y-116167800D01*
G75*
G02*
X116116600Y-115417800I750000J0D01*
G01*
G37*
D20*
X117116600Y-122917800D03*
D21*
X116020600Y-139591800D03*
X121020600Y-139591800D03*
D22*
X108106600Y-137559800D03*
X108106600Y-140099800D03*
D23*
X108106600Y-142639800D03*
G36*
G01*
X123633600Y-152931300D02*
X124583600Y-152931300D01*
G75*
G02*
X124833600Y-153181300I0J-250000D01*
G01*
X124833600Y-153856300D01*
G75*
G02*
X124583600Y-154106300I-250000J0D01*
G01*
X123633600Y-154106300D01*
G75*
G02*
X123383600Y-153856300I0J250000D01*
G01*
X123383600Y-153181300D01*
G75*
G02*
X123633600Y-152931300I250000J0D01*
G01*
G37*
G36*
G01*
X123633600Y-155006300D02*
X124583600Y-155006300D01*
G75*
G02*
X124833600Y-155256300I0J-250000D01*
G01*
X124833600Y-155931300D01*
G75*
G02*
X124583600Y-156181300I-250000J0D01*
G01*
X123633600Y-156181300D01*
G75*
G02*
X123383600Y-155931300I0J250000D01*
G01*
X123383600Y-155256300D01*
G75*
G02*
X123633600Y-155006300I250000J0D01*
G01*
G37*
D22*
X127436000Y-140379200D03*
X127436000Y-142919200D03*
X127436000Y-145459200D03*
X127436000Y-147999200D03*
X127436000Y-150539200D03*
D23*
X127436000Y-153079200D03*
G36*
G01*
X129222600Y-132013800D02*
X129222600Y-130913800D01*
G75*
G02*
X129472600Y-130663800I250000J0D01*
G01*
X132472600Y-130663800D01*
G75*
G02*
X132722600Y-130913800I0J-250000D01*
G01*
X132722600Y-132013800D01*
G75*
G02*
X132472600Y-132263800I-250000J0D01*
G01*
X129472600Y-132263800D01*
G75*
G02*
X129222600Y-132013800I0J250000D01*
G01*
G37*
G36*
G01*
X123622600Y-132013800D02*
X123622600Y-130913800D01*
G75*
G02*
X123872600Y-130663800I250000J0D01*
G01*
X126872600Y-130663800D01*
G75*
G02*
X127122600Y-130913800I0J-250000D01*
G01*
X127122600Y-132013800D01*
G75*
G02*
X126872600Y-132263800I-250000J0D01*
G01*
X123872600Y-132263800D01*
G75*
G02*
X123622600Y-132013800I0J250000D01*
G01*
G37*
X108106600Y-146449800D03*
D22*
X108106600Y-148989800D03*
X108106600Y-151529800D03*
D24*
X130026600Y-114097800D03*
X124226600Y-114097800D03*
D25*
X123626600Y-114097800D03*
X130626600Y-114097800D03*
D26*
X128126600Y-114097800D03*
D27*
X124626600Y-116797800D03*
D28*
X127126600Y-116797800D03*
X126476600Y-116797800D03*
X125826600Y-116797800D03*
X128426600Y-116797800D03*
X127776600Y-116797800D03*
D27*
X129626600Y-116797800D03*
D26*
X126126600Y-114097800D03*
D10*
X115370600Y-142879800D03*
X115370600Y-147479800D03*
X115370600Y-145179800D03*
D11*
X121670600Y-145179800D03*
G36*
G01*
X197752100Y-160803800D02*
X197277100Y-160803800D01*
G75*
G02*
X197039600Y-160566300I0J237500D01*
G01*
X197039600Y-159991300D01*
G75*
G02*
X197277100Y-159753800I237500J0D01*
G01*
X197752100Y-159753800D01*
G75*
G02*
X197989600Y-159991300I0J-237500D01*
G01*
X197989600Y-160566300D01*
G75*
G02*
X197752100Y-160803800I-237500J0D01*
G01*
G37*
G36*
G01*
X197752100Y-159053800D02*
X197277100Y-159053800D01*
G75*
G02*
X197039600Y-158816300I0J237500D01*
G01*
X197039600Y-158241300D01*
G75*
G02*
X197277100Y-158003800I237500J0D01*
G01*
X197752100Y-158003800D01*
G75*
G02*
X197989600Y-158241300I0J-237500D01*
G01*
X197989600Y-158816300D01*
G75*
G02*
X197752100Y-159053800I-237500J0D01*
G01*
G37*
D22*
X161192600Y-129685800D03*
X158652600Y-129685800D03*
X156112600Y-129685800D03*
D23*
X153572600Y-129685800D03*
G36*
G01*
X162987100Y-123217800D02*
X163462100Y-123217800D01*
G75*
G02*
X163699600Y-123455300I0J-237500D01*
G01*
X163699600Y-123955300D01*
G75*
G02*
X163462100Y-124192800I-237500J0D01*
G01*
X162987100Y-124192800D01*
G75*
G02*
X162749600Y-123955300I0J237500D01*
G01*
X162749600Y-123455300D01*
G75*
G02*
X162987100Y-123217800I237500J0D01*
G01*
G37*
G36*
G01*
X162987100Y-125042800D02*
X163462100Y-125042800D01*
G75*
G02*
X163699600Y-125280300I0J-237500D01*
G01*
X163699600Y-125780300D01*
G75*
G02*
X163462100Y-126017800I-237500J0D01*
G01*
X162987100Y-126017800D01*
G75*
G02*
X162749600Y-125780300I0J237500D01*
G01*
X162749600Y-125280300D01*
G75*
G02*
X162987100Y-125042800I237500J0D01*
G01*
G37*
G36*
G01*
X149017100Y-125030800D02*
X149492100Y-125030800D01*
G75*
G02*
X149729600Y-125268300I0J-237500D01*
G01*
X149729600Y-125768300D01*
G75*
G02*
X149492100Y-126005800I-237500J0D01*
G01*
X149017100Y-126005800D01*
G75*
G02*
X148779600Y-125768300I0J237500D01*
G01*
X148779600Y-125268300D01*
G75*
G02*
X149017100Y-125030800I237500J0D01*
G01*
G37*
G36*
G01*
X149017100Y-123205800D02*
X149492100Y-123205800D01*
G75*
G02*
X149729600Y-123443300I0J-237500D01*
G01*
X149729600Y-123943300D01*
G75*
G02*
X149492100Y-124180800I-237500J0D01*
G01*
X149017100Y-124180800D01*
G75*
G02*
X148779600Y-123943300I0J237500D01*
G01*
X148779600Y-123443300D01*
G75*
G02*
X149017100Y-123205800I237500J0D01*
G01*
G37*
G36*
G01*
X157366100Y-124180800D02*
X156891100Y-124180800D01*
G75*
G02*
X156653600Y-123943300I0J237500D01*
G01*
X156653600Y-123443300D01*
G75*
G02*
X156891100Y-123205800I237500J0D01*
G01*
X157366100Y-123205800D01*
G75*
G02*
X157603600Y-123443300I0J-237500D01*
G01*
X157603600Y-123943300D01*
G75*
G02*
X157366100Y-124180800I-237500J0D01*
G01*
G37*
G36*
G01*
X157366100Y-126005800D02*
X156891100Y-126005800D01*
G75*
G02*
X156653600Y-125768300I0J237500D01*
G01*
X156653600Y-125268300D01*
G75*
G02*
X156891100Y-125030800I237500J0D01*
G01*
X157366100Y-125030800D01*
G75*
G02*
X157603600Y-125268300I0J-237500D01*
G01*
X157603600Y-125768300D01*
G75*
G02*
X157366100Y-126005800I-237500J0D01*
G01*
G37*
D29*
X199727700Y-149292300D03*
X199727700Y-150592300D03*
X201727700Y-149942300D03*
D19*
X174479400Y-148316700D03*
X177979400Y-148316700D03*
D17*
X199966600Y-139037800D03*
X199966600Y-126837800D03*
X187966600Y-126837800D03*
X187966600Y-139037800D03*
X193966600Y-141037800D03*
D29*
X183341400Y-149916900D03*
X181341400Y-150566900D03*
X181341400Y-149266900D03*
G36*
G01*
X194229100Y-156526800D02*
X194704100Y-156526800D01*
G75*
G02*
X194941600Y-156764300I0J-237500D01*
G01*
X194941600Y-157264300D01*
G75*
G02*
X194704100Y-157501800I-237500J0D01*
G01*
X194229100Y-157501800D01*
G75*
G02*
X193991600Y-157264300I0J237500D01*
G01*
X193991600Y-156764300D01*
G75*
G02*
X194229100Y-156526800I237500J0D01*
G01*
G37*
G36*
G01*
X194229100Y-154701800D02*
X194704100Y-154701800D01*
G75*
G02*
X194941600Y-154939300I0J-237500D01*
G01*
X194941600Y-155439300D01*
G75*
G02*
X194704100Y-155676800I-237500J0D01*
G01*
X194229100Y-155676800D01*
G75*
G02*
X193991600Y-155439300I0J237500D01*
G01*
X193991600Y-154939300D01*
G75*
G02*
X194229100Y-154701800I237500J0D01*
G01*
G37*
G36*
G01*
X185306100Y-157501800D02*
X184831100Y-157501800D01*
G75*
G02*
X184593600Y-157264300I0J237500D01*
G01*
X184593600Y-156764300D01*
G75*
G02*
X184831100Y-156526800I237500J0D01*
G01*
X185306100Y-156526800D01*
G75*
G02*
X185543600Y-156764300I0J-237500D01*
G01*
X185543600Y-157264300D01*
G75*
G02*
X185306100Y-157501800I-237500J0D01*
G01*
G37*
G36*
G01*
X185306100Y-155676800D02*
X184831100Y-155676800D01*
G75*
G02*
X184593600Y-155439300I0J237500D01*
G01*
X184593600Y-154939300D01*
G75*
G02*
X184831100Y-154701800I237500J0D01*
G01*
X185306100Y-154701800D01*
G75*
G02*
X185543600Y-154939300I0J-237500D01*
G01*
X185543600Y-155439300D01*
G75*
G02*
X185306100Y-155676800I-237500J0D01*
G01*
G37*
G36*
G01*
X152794100Y-126005800D02*
X152319100Y-126005800D01*
G75*
G02*
X152081600Y-125768300I0J237500D01*
G01*
X152081600Y-125268300D01*
G75*
G02*
X152319100Y-125030800I237500J0D01*
G01*
X152794100Y-125030800D01*
G75*
G02*
X153031600Y-125268300I0J-237500D01*
G01*
X153031600Y-125768300D01*
G75*
G02*
X152794100Y-126005800I-237500J0D01*
G01*
G37*
G36*
G01*
X152794100Y-124180800D02*
X152319100Y-124180800D01*
G75*
G02*
X152081600Y-123943300I0J237500D01*
G01*
X152081600Y-123443300D01*
G75*
G02*
X152319100Y-123205800I237500J0D01*
G01*
X152794100Y-123205800D01*
G75*
G02*
X153031600Y-123443300I0J-237500D01*
G01*
X153031600Y-123943300D01*
G75*
G02*
X152794100Y-124180800I-237500J0D01*
G01*
G37*
G36*
G01*
X193863800Y-150428700D02*
X193863800Y-150903700D01*
G75*
G02*
X193626300Y-151141200I-237500J0D01*
G01*
X193126300Y-151141200D01*
G75*
G02*
X192888800Y-150903700I0J237500D01*
G01*
X192888800Y-150428700D01*
G75*
G02*
X193126300Y-150191200I237500J0D01*
G01*
X193626300Y-150191200D01*
G75*
G02*
X193863800Y-150428700I0J-237500D01*
G01*
G37*
G36*
G01*
X195688800Y-150428700D02*
X195688800Y-150903700D01*
G75*
G02*
X195451300Y-151141200I-237500J0D01*
G01*
X194951300Y-151141200D01*
G75*
G02*
X194713800Y-150903700I0J237500D01*
G01*
X194713800Y-150428700D01*
G75*
G02*
X194951300Y-150191200I237500J0D01*
G01*
X195451300Y-150191200D01*
G75*
G02*
X195688800Y-150428700I0J-237500D01*
G01*
G37*
D30*
X203331200Y-114903000D03*
D31*
X203331200Y-114903000D03*
D14*
X109733326Y-114501074D03*
X108566600Y-114017800D03*
X107399874Y-114501074D03*
X106916600Y-115667800D03*
X107399874Y-116834526D03*
X108566600Y-117317800D03*
X109733326Y-116834526D03*
X110216600Y-115667800D03*
D13*
X108566600Y-115667800D03*
D16*
X141152000Y-124047000D03*
G36*
G01*
X194704100Y-159053800D02*
X194229100Y-159053800D01*
G75*
G02*
X193991600Y-158816300I0J237500D01*
G01*
X193991600Y-158241300D01*
G75*
G02*
X194229100Y-158003800I237500J0D01*
G01*
X194704100Y-158003800D01*
G75*
G02*
X194941600Y-158241300I0J-237500D01*
G01*
X194941600Y-158816300D01*
G75*
G02*
X194704100Y-159053800I-237500J0D01*
G01*
G37*
G36*
G01*
X194704100Y-160803800D02*
X194229100Y-160803800D01*
G75*
G02*
X193991600Y-160566300I0J237500D01*
G01*
X193991600Y-159991300D01*
G75*
G02*
X194229100Y-159753800I237500J0D01*
G01*
X194704100Y-159753800D01*
G75*
G02*
X194941600Y-159991300I0J-237500D01*
G01*
X194941600Y-160566300D01*
G75*
G02*
X194704100Y-160803800I-237500J0D01*
G01*
G37*
G36*
G01*
X197277100Y-154701800D02*
X197752100Y-154701800D01*
G75*
G02*
X197989600Y-154939300I0J-237500D01*
G01*
X197989600Y-155439300D01*
G75*
G02*
X197752100Y-155676800I-237500J0D01*
G01*
X197277100Y-155676800D01*
G75*
G02*
X197039600Y-155439300I0J237500D01*
G01*
X197039600Y-154939300D01*
G75*
G02*
X197277100Y-154701800I237500J0D01*
G01*
G37*
G36*
G01*
X197277100Y-156526800D02*
X197752100Y-156526800D01*
G75*
G02*
X197989600Y-156764300I0J-237500D01*
G01*
X197989600Y-157264300D01*
G75*
G02*
X197752100Y-157501800I-237500J0D01*
G01*
X197277100Y-157501800D01*
G75*
G02*
X197039600Y-157264300I0J237500D01*
G01*
X197039600Y-156764300D01*
G75*
G02*
X197277100Y-156526800I237500J0D01*
G01*
G37*
D32*
X181348600Y-154781000D03*
X173548600Y-154781000D03*
G36*
G01*
X191656100Y-160803800D02*
X191181100Y-160803800D01*
G75*
G02*
X190943600Y-160566300I0J237500D01*
G01*
X190943600Y-159991300D01*
G75*
G02*
X191181100Y-159753800I237500J0D01*
G01*
X191656100Y-159753800D01*
G75*
G02*
X191893600Y-159991300I0J-237500D01*
G01*
X191893600Y-160566300D01*
G75*
G02*
X191656100Y-160803800I-237500J0D01*
G01*
G37*
G36*
G01*
X191656100Y-159053800D02*
X191181100Y-159053800D01*
G75*
G02*
X190943600Y-158816300I0J237500D01*
G01*
X190943600Y-158241300D01*
G75*
G02*
X191181100Y-158003800I237500J0D01*
G01*
X191656100Y-158003800D01*
G75*
G02*
X191893600Y-158241300I0J-237500D01*
G01*
X191893600Y-158816300D01*
G75*
G02*
X191656100Y-159053800I-237500J0D01*
G01*
G37*
G36*
G01*
X188820601Y-157447800D02*
X187920599Y-157447800D01*
G75*
G02*
X187670600Y-157197801I0J249999D01*
G01*
X187670600Y-156497799D01*
G75*
G02*
X187920599Y-156247800I249999J0D01*
G01*
X188820601Y-156247800D01*
G75*
G02*
X189070600Y-156497799I0J-249999D01*
G01*
X189070600Y-157197801D01*
G75*
G02*
X188820601Y-157447800I-249999J0D01*
G01*
G37*
G36*
G01*
X188820601Y-155447800D02*
X187920599Y-155447800D01*
G75*
G02*
X187670600Y-155197801I0J249999D01*
G01*
X187670600Y-154497799D01*
G75*
G02*
X187920599Y-154247800I249999J0D01*
G01*
X188820601Y-154247800D01*
G75*
G02*
X189070600Y-154497799I0J-249999D01*
G01*
X189070600Y-155197801D01*
G75*
G02*
X188820601Y-155447800I-249999J0D01*
G01*
G37*
D16*
X138510400Y-127730000D03*
D23*
X162983300Y-143008100D03*
D22*
X162983300Y-145548100D03*
X162983300Y-148088100D03*
X162983300Y-150628100D03*
D16*
X141152000Y-127730000D03*
D22*
X168203000Y-155898600D03*
X168203000Y-153358600D03*
X168203000Y-150818600D03*
D23*
X168203000Y-148278600D03*
D17*
X175796600Y-141127800D03*
X169796600Y-139127800D03*
X169796600Y-126927800D03*
X181796600Y-126927800D03*
X181796600Y-139127800D03*
G36*
G01*
X185356100Y-159053800D02*
X184881100Y-159053800D01*
G75*
G02*
X184643600Y-158816300I0J237500D01*
G01*
X184643600Y-158241300D01*
G75*
G02*
X184881100Y-158003800I237500J0D01*
G01*
X185356100Y-158003800D01*
G75*
G02*
X185593600Y-158241300I0J-237500D01*
G01*
X185593600Y-158816300D01*
G75*
G02*
X185356100Y-159053800I-237500J0D01*
G01*
G37*
G36*
G01*
X185356100Y-160803800D02*
X184881100Y-160803800D01*
G75*
G02*
X184643600Y-160566300I0J237500D01*
G01*
X184643600Y-159991300D01*
G75*
G02*
X184881100Y-159753800I237500J0D01*
G01*
X185356100Y-159753800D01*
G75*
G02*
X185593600Y-159991300I0J-237500D01*
G01*
X185593600Y-160566300D01*
G75*
G02*
X185356100Y-160803800I-237500J0D01*
G01*
G37*
D12*
X109308600Y-126717800D03*
X109308600Y-131717800D03*
D16*
X135792600Y-124097800D03*
D14*
X203733326Y-157001074D03*
X202566600Y-156517800D03*
X201399874Y-157001074D03*
X200916600Y-158167800D03*
X201399874Y-159334526D03*
X202566600Y-159817800D03*
X203733326Y-159334526D03*
X204216600Y-158167800D03*
D13*
X202566600Y-158167800D03*
D32*
X173548600Y-159022800D03*
X181348600Y-159022800D03*
D16*
X135818000Y-127730000D03*
G36*
G01*
X159939100Y-123205800D02*
X160414100Y-123205800D01*
G75*
G02*
X160651600Y-123443300I0J-237500D01*
G01*
X160651600Y-123943300D01*
G75*
G02*
X160414100Y-124180800I-237500J0D01*
G01*
X159939100Y-124180800D01*
G75*
G02*
X159701600Y-123943300I0J237500D01*
G01*
X159701600Y-123443300D01*
G75*
G02*
X159939100Y-123205800I237500J0D01*
G01*
G37*
G36*
G01*
X159939100Y-125030800D02*
X160414100Y-125030800D01*
G75*
G02*
X160651600Y-125268300I0J-237500D01*
G01*
X160651600Y-125768300D01*
G75*
G02*
X160414100Y-126005800I-237500J0D01*
G01*
X159939100Y-126005800D01*
G75*
G02*
X159701600Y-125768300I0J237500D01*
G01*
X159701600Y-125268300D01*
G75*
G02*
X159939100Y-125030800I237500J0D01*
G01*
G37*
G36*
G01*
X155235400Y-117861400D02*
X155235400Y-119361400D01*
G75*
G02*
X154985400Y-119611400I-250000J0D01*
G01*
X153785400Y-119611400D01*
G75*
G02*
X153535400Y-119361400I0J250000D01*
G01*
X153535400Y-117861400D01*
G75*
G02*
X153785400Y-117611400I250000J0D01*
G01*
X154985400Y-117611400D01*
G75*
G02*
X155235400Y-117861400I0J-250000D01*
G01*
G37*
D15*
X151885400Y-118611400D03*
D16*
X138485000Y-124072400D03*
G36*
G01*
X188608100Y-159053800D02*
X188133100Y-159053800D01*
G75*
G02*
X187895600Y-158816300I0J237500D01*
G01*
X187895600Y-158241300D01*
G75*
G02*
X188133100Y-158003800I237500J0D01*
G01*
X188608100Y-158003800D01*
G75*
G02*
X188845600Y-158241300I0J-237500D01*
G01*
X188845600Y-158816300D01*
G75*
G02*
X188608100Y-159053800I-237500J0D01*
G01*
G37*
G36*
G01*
X188608100Y-160803800D02*
X188133100Y-160803800D01*
G75*
G02*
X187895600Y-160566300I0J237500D01*
G01*
X187895600Y-159991300D01*
G75*
G02*
X188133100Y-159753800I237500J0D01*
G01*
X188608100Y-159753800D01*
G75*
G02*
X188845600Y-159991300I0J-237500D01*
G01*
X188845600Y-160566300D01*
G75*
G02*
X188608100Y-160803800I-237500J0D01*
G01*
G37*
G36*
G01*
X147493100Y-123205800D02*
X147968100Y-123205800D01*
G75*
G02*
X148205600Y-123443300I0J-237500D01*
G01*
X148205600Y-123943300D01*
G75*
G02*
X147968100Y-124180800I-237500J0D01*
G01*
X147493100Y-124180800D01*
G75*
G02*
X147255600Y-123943300I0J237500D01*
G01*
X147255600Y-123443300D01*
G75*
G02*
X147493100Y-123205800I237500J0D01*
G01*
G37*
G36*
G01*
X147493100Y-125030800D02*
X147968100Y-125030800D01*
G75*
G02*
X148205600Y-125268300I0J-237500D01*
G01*
X148205600Y-125768300D01*
G75*
G02*
X147968100Y-126005800I-237500J0D01*
G01*
X147493100Y-126005800D01*
G75*
G02*
X147255600Y-125768300I0J237500D01*
G01*
X147255600Y-125268300D01*
G75*
G02*
X147493100Y-125030800I237500J0D01*
G01*
G37*
G36*
G01*
X191868601Y-155447800D02*
X190968599Y-155447800D01*
G75*
G02*
X190718600Y-155197801I0J249999D01*
G01*
X190718600Y-154497799D01*
G75*
G02*
X190968599Y-154247800I249999J0D01*
G01*
X191868601Y-154247800D01*
G75*
G02*
X192118600Y-154497799I0J-249999D01*
G01*
X192118600Y-155197801D01*
G75*
G02*
X191868601Y-155447800I-249999J0D01*
G01*
G37*
G36*
G01*
X191868601Y-157447800D02*
X190968599Y-157447800D01*
G75*
G02*
X190718600Y-157197801I0J249999D01*
G01*
X190718600Y-156497799D01*
G75*
G02*
X190968599Y-156247800I249999J0D01*
G01*
X191868601Y-156247800D01*
G75*
G02*
X192118600Y-156497799I0J-249999D01*
G01*
X192118600Y-157197801D01*
G75*
G02*
X191868601Y-157447800I-249999J0D01*
G01*
G37*
G36*
G01*
X158415100Y-125030800D02*
X158890100Y-125030800D01*
G75*
G02*
X159127600Y-125268300I0J-237500D01*
G01*
X159127600Y-125768300D01*
G75*
G02*
X158890100Y-126005800I-237500J0D01*
G01*
X158415100Y-126005800D01*
G75*
G02*
X158177600Y-125768300I0J237500D01*
G01*
X158177600Y-125268300D01*
G75*
G02*
X158415100Y-125030800I237500J0D01*
G01*
G37*
G36*
G01*
X158415100Y-123205800D02*
X158890100Y-123205800D01*
G75*
G02*
X159127600Y-123443300I0J-237500D01*
G01*
X159127600Y-123943300D01*
G75*
G02*
X158890100Y-124180800I-237500J0D01*
G01*
X158415100Y-124180800D01*
G75*
G02*
X158177600Y-123943300I0J237500D01*
G01*
X158177600Y-123443300D01*
G75*
G02*
X158415100Y-123205800I237500J0D01*
G01*
G37*
G36*
G01*
X153843100Y-125030800D02*
X154318100Y-125030800D01*
G75*
G02*
X154555600Y-125268300I0J-237500D01*
G01*
X154555600Y-125768300D01*
G75*
G02*
X154318100Y-126005800I-237500J0D01*
G01*
X153843100Y-126005800D01*
G75*
G02*
X153605600Y-125768300I0J237500D01*
G01*
X153605600Y-125268300D01*
G75*
G02*
X153843100Y-125030800I237500J0D01*
G01*
G37*
G36*
G01*
X153843100Y-123205800D02*
X154318100Y-123205800D01*
G75*
G02*
X154555600Y-123443300I0J-237500D01*
G01*
X154555600Y-123943300D01*
G75*
G02*
X154318100Y-124180800I-237500J0D01*
G01*
X153843100Y-124180800D01*
G75*
G02*
X153605600Y-123943300I0J237500D01*
G01*
X153605600Y-123443300D01*
G75*
G02*
X153843100Y-123205800I237500J0D01*
G01*
G37*
D33*
X164380100Y-112474200D03*
X163630100Y-109874200D03*
X163630100Y-112474200D03*
X162880100Y-112474200D03*
X164380100Y-109874200D03*
X162880100Y-109874200D03*
X162105100Y-112474200D03*
X161355100Y-109874200D03*
X161355100Y-112474200D03*
X160605100Y-112474200D03*
X162105100Y-109874200D03*
X160605100Y-109874200D03*
X159830100Y-112474200D03*
X159080100Y-109874200D03*
X159080100Y-112474200D03*
X158330100Y-112474200D03*
X159830100Y-109874200D03*
X158330100Y-109874200D03*
X157555100Y-112474200D03*
X156805100Y-109874200D03*
X156805100Y-112474200D03*
X156055100Y-112474200D03*
X157555100Y-109874200D03*
X156055100Y-109874200D03*
X155280100Y-112474200D03*
X154530100Y-109874200D03*
X154530100Y-112474200D03*
X153780100Y-112474200D03*
X155280100Y-109874200D03*
X153780100Y-109874200D03*
X153030100Y-112474200D03*
X152280100Y-109874200D03*
X152280100Y-112474200D03*
X151530100Y-112474200D03*
X153030100Y-109874200D03*
X151530100Y-109874200D03*
X150780100Y-112474200D03*
X150030100Y-109874200D03*
X150030100Y-112474200D03*
X149280100Y-112474200D03*
X150780100Y-109874200D03*
X149280100Y-109874200D03*
X148530100Y-112474200D03*
X147780100Y-112474200D03*
X147030100Y-112474200D03*
X148530100Y-109874200D03*
X147780100Y-109874200D03*
X147030100Y-109874200D03*
X193430100Y-109874200D03*
X193430100Y-112474200D03*
X194180100Y-109874200D03*
X192680100Y-109874200D03*
X192680100Y-112474200D03*
X194180100Y-112474200D03*
X118480100Y-112474200D03*
X116980100Y-112474200D03*
X116980100Y-109874200D03*
X118480100Y-109874200D03*
X117730100Y-112474200D03*
X117730100Y-109874200D03*
D31*
X203331200Y-63403000D03*
D30*
X203331200Y-63403000D03*
D22*
X162983300Y-99128100D03*
X162983300Y-96588100D03*
X162983300Y-94048100D03*
D23*
X162983300Y-91508100D03*
D13*
X108566600Y-64167800D03*
D14*
X110216600Y-64167800D03*
X109733326Y-65334526D03*
X108566600Y-65817800D03*
X107399874Y-65334526D03*
X106916600Y-64167800D03*
X107399874Y-63001074D03*
X108566600Y-62517800D03*
X109733326Y-63001074D03*
X109733326Y-105501074D03*
X108566600Y-105017800D03*
X107399874Y-105501074D03*
X106916600Y-106667800D03*
X107399874Y-107834526D03*
X108566600Y-108317800D03*
X109733326Y-107834526D03*
X110216600Y-106667800D03*
D13*
X108566600Y-106667800D03*
X202566600Y-106667800D03*
D14*
X204216600Y-106667800D03*
X203733326Y-107834526D03*
X202566600Y-108317800D03*
X201399874Y-107834526D03*
X200916600Y-106667800D03*
X201399874Y-105501074D03*
X202566600Y-105017800D03*
X203733326Y-105501074D03*
G36*
G01*
X140316800Y-80945500D02*
X140316800Y-81420500D01*
G75*
G02*
X140079300Y-81658000I-237500J0D01*
G01*
X139479300Y-81658000D01*
G75*
G02*
X139241800Y-81420500I0J237500D01*
G01*
X139241800Y-80945500D01*
G75*
G02*
X139479300Y-80708000I237500J0D01*
G01*
X140079300Y-80708000D01*
G75*
G02*
X140316800Y-80945500I0J-237500D01*
G01*
G37*
G36*
G01*
X138591800Y-80945500D02*
X138591800Y-81420500D01*
G75*
G02*
X138354300Y-81658000I-237500J0D01*
G01*
X137754300Y-81658000D01*
G75*
G02*
X137516800Y-81420500I0J237500D01*
G01*
X137516800Y-80945500D01*
G75*
G02*
X137754300Y-80708000I237500J0D01*
G01*
X138354300Y-80708000D01*
G75*
G02*
X138591800Y-80945500I0J-237500D01*
G01*
G37*
G36*
G01*
X140341300Y-82463397D02*
X140341300Y-83763403D01*
G75*
G02*
X140091303Y-84013400I-249997J0D01*
G01*
X139266297Y-84013400D01*
G75*
G02*
X139016300Y-83763403I0J249997D01*
G01*
X139016300Y-82463397D01*
G75*
G02*
X139266297Y-82213400I249997J0D01*
G01*
X140091303Y-82213400D01*
G75*
G02*
X140341300Y-82463397I0J-249997D01*
G01*
G37*
G36*
G01*
X137216300Y-82463397D02*
X137216300Y-83763403D01*
G75*
G02*
X136966303Y-84013400I-249997J0D01*
G01*
X136141297Y-84013400D01*
G75*
G02*
X135891300Y-83763403I0J249997D01*
G01*
X135891300Y-82463397D01*
G75*
G02*
X136141297Y-82213400I249997J0D01*
G01*
X136966303Y-82213400D01*
G75*
G02*
X137216300Y-82463397I0J-249997D01*
G01*
G37*
D12*
X109308600Y-80217800D03*
X109308600Y-75217800D03*
X112848600Y-75267800D03*
X112848600Y-80267800D03*
G36*
G01*
X185356100Y-109303800D02*
X184881100Y-109303800D01*
G75*
G02*
X184643600Y-109066300I0J237500D01*
G01*
X184643600Y-108491300D01*
G75*
G02*
X184881100Y-108253800I237500J0D01*
G01*
X185356100Y-108253800D01*
G75*
G02*
X185593600Y-108491300I0J-237500D01*
G01*
X185593600Y-109066300D01*
G75*
G02*
X185356100Y-109303800I-237500J0D01*
G01*
G37*
G36*
G01*
X185356100Y-107553800D02*
X184881100Y-107553800D01*
G75*
G02*
X184643600Y-107316300I0J237500D01*
G01*
X184643600Y-106741300D01*
G75*
G02*
X184881100Y-106503800I237500J0D01*
G01*
X185356100Y-106503800D01*
G75*
G02*
X185593600Y-106741300I0J-237500D01*
G01*
X185593600Y-107316300D01*
G75*
G02*
X185356100Y-107553800I-237500J0D01*
G01*
G37*
G36*
G01*
X194704100Y-109303800D02*
X194229100Y-109303800D01*
G75*
G02*
X193991600Y-109066300I0J237500D01*
G01*
X193991600Y-108491300D01*
G75*
G02*
X194229100Y-108253800I237500J0D01*
G01*
X194704100Y-108253800D01*
G75*
G02*
X194941600Y-108491300I0J-237500D01*
G01*
X194941600Y-109066300D01*
G75*
G02*
X194704100Y-109303800I-237500J0D01*
G01*
G37*
G36*
G01*
X194704100Y-107553800D02*
X194229100Y-107553800D01*
G75*
G02*
X193991600Y-107316300I0J237500D01*
G01*
X193991600Y-106741300D01*
G75*
G02*
X194229100Y-106503800I237500J0D01*
G01*
X194704100Y-106503800D01*
G75*
G02*
X194941600Y-106741300I0J-237500D01*
G01*
X194941600Y-107316300D01*
G75*
G02*
X194704100Y-107553800I-237500J0D01*
G01*
G37*
G36*
G01*
X191656100Y-107553800D02*
X191181100Y-107553800D01*
G75*
G02*
X190943600Y-107316300I0J237500D01*
G01*
X190943600Y-106741300D01*
G75*
G02*
X191181100Y-106503800I237500J0D01*
G01*
X191656100Y-106503800D01*
G75*
G02*
X191893600Y-106741300I0J-237500D01*
G01*
X191893600Y-107316300D01*
G75*
G02*
X191656100Y-107553800I-237500J0D01*
G01*
G37*
G36*
G01*
X191656100Y-109303800D02*
X191181100Y-109303800D01*
G75*
G02*
X190943600Y-109066300I0J237500D01*
G01*
X190943600Y-108491300D01*
G75*
G02*
X191181100Y-108253800I237500J0D01*
G01*
X191656100Y-108253800D01*
G75*
G02*
X191893600Y-108491300I0J-237500D01*
G01*
X191893600Y-109066300D01*
G75*
G02*
X191656100Y-109303800I-237500J0D01*
G01*
G37*
G36*
G01*
X188608100Y-109303800D02*
X188133100Y-109303800D01*
G75*
G02*
X187895600Y-109066300I0J237500D01*
G01*
X187895600Y-108491300D01*
G75*
G02*
X188133100Y-108253800I237500J0D01*
G01*
X188608100Y-108253800D01*
G75*
G02*
X188845600Y-108491300I0J-237500D01*
G01*
X188845600Y-109066300D01*
G75*
G02*
X188608100Y-109303800I-237500J0D01*
G01*
G37*
G36*
G01*
X188608100Y-107553800D02*
X188133100Y-107553800D01*
G75*
G02*
X187895600Y-107316300I0J237500D01*
G01*
X187895600Y-106741300D01*
G75*
G02*
X188133100Y-106503800I237500J0D01*
G01*
X188608100Y-106503800D01*
G75*
G02*
X188845600Y-106741300I0J-237500D01*
G01*
X188845600Y-107316300D01*
G75*
G02*
X188608100Y-107553800I-237500J0D01*
G01*
G37*
G36*
G01*
X197752100Y-107553800D02*
X197277100Y-107553800D01*
G75*
G02*
X197039600Y-107316300I0J237500D01*
G01*
X197039600Y-106741300D01*
G75*
G02*
X197277100Y-106503800I237500J0D01*
G01*
X197752100Y-106503800D01*
G75*
G02*
X197989600Y-106741300I0J-237500D01*
G01*
X197989600Y-107316300D01*
G75*
G02*
X197752100Y-107553800I-237500J0D01*
G01*
G37*
G36*
G01*
X197752100Y-109303800D02*
X197277100Y-109303800D01*
G75*
G02*
X197039600Y-109066300I0J237500D01*
G01*
X197039600Y-108491300D01*
G75*
G02*
X197277100Y-108253800I237500J0D01*
G01*
X197752100Y-108253800D01*
G75*
G02*
X197989600Y-108491300I0J-237500D01*
G01*
X197989600Y-109066300D01*
G75*
G02*
X197752100Y-109303800I-237500J0D01*
G01*
G37*
D17*
X180736600Y-66387800D03*
X175656600Y-66387800D03*
D18*
X170576600Y-66387800D03*
G36*
G01*
X163744400Y-66361400D02*
X163744400Y-67861400D01*
G75*
G02*
X163494400Y-68111400I-250000J0D01*
G01*
X162294400Y-68111400D01*
G75*
G02*
X162044400Y-67861400I0J250000D01*
G01*
X162044400Y-66361400D01*
G75*
G02*
X162294400Y-66111400I250000J0D01*
G01*
X163494400Y-66111400D01*
G75*
G02*
X163744400Y-66361400I0J-250000D01*
G01*
G37*
D15*
X160394400Y-67111400D03*
X151885400Y-67111400D03*
G36*
G01*
X155235400Y-66361400D02*
X155235400Y-67861400D01*
G75*
G02*
X154985400Y-68111400I-250000J0D01*
G01*
X153785400Y-68111400D01*
G75*
G02*
X153535400Y-67861400I0J250000D01*
G01*
X153535400Y-66361400D01*
G75*
G02*
X153785400Y-66111400I250000J0D01*
G01*
X154985400Y-66111400D01*
G75*
G02*
X155235400Y-66361400I0J-250000D01*
G01*
G37*
X143401800Y-67111400D03*
G36*
G01*
X146751800Y-66361400D02*
X146751800Y-67861400D01*
G75*
G02*
X146501800Y-68111400I-250000J0D01*
G01*
X145301800Y-68111400D01*
G75*
G02*
X145051800Y-67861400I0J250000D01*
G01*
X145051800Y-66361400D01*
G75*
G02*
X145301800Y-66111400I250000J0D01*
G01*
X146501800Y-66111400D01*
G75*
G02*
X146751800Y-66361400I0J-250000D01*
G01*
G37*
G36*
G01*
X138268200Y-66361400D02*
X138268200Y-67861400D01*
G75*
G02*
X138018200Y-68111400I-250000J0D01*
G01*
X136818200Y-68111400D01*
G75*
G02*
X136568200Y-67861400I0J250000D01*
G01*
X136568200Y-66361400D01*
G75*
G02*
X136818200Y-66111400I250000J0D01*
G01*
X138018200Y-66111400D01*
G75*
G02*
X138268200Y-66361400I0J-250000D01*
G01*
G37*
X134918200Y-67111400D03*
D23*
X153572600Y-78185800D03*
D22*
X156112600Y-78185800D03*
X158652600Y-78185800D03*
X161192600Y-78185800D03*
D18*
X188326600Y-66387800D03*
D17*
X193406600Y-66387800D03*
X198486600Y-66387800D03*
X181796600Y-87627800D03*
X181796600Y-75427800D03*
X169796600Y-75427800D03*
X169796600Y-87627800D03*
X175796600Y-89627800D03*
X193966600Y-89537800D03*
X187966600Y-87537800D03*
X187966600Y-75337800D03*
X199966600Y-75337800D03*
X199966600Y-87537800D03*
D29*
X181341400Y-97766900D03*
X181341400Y-99066900D03*
X183341400Y-98416900D03*
X201727700Y-98442300D03*
X199727700Y-99092300D03*
X199727700Y-97792300D03*
G36*
G01*
X185306100Y-104176800D02*
X184831100Y-104176800D01*
G75*
G02*
X184593600Y-103939300I0J237500D01*
G01*
X184593600Y-103439300D01*
G75*
G02*
X184831100Y-103201800I237500J0D01*
G01*
X185306100Y-103201800D01*
G75*
G02*
X185543600Y-103439300I0J-237500D01*
G01*
X185543600Y-103939300D01*
G75*
G02*
X185306100Y-104176800I-237500J0D01*
G01*
G37*
G36*
G01*
X185306100Y-106001800D02*
X184831100Y-106001800D01*
G75*
G02*
X184593600Y-105764300I0J237500D01*
G01*
X184593600Y-105264300D01*
G75*
G02*
X184831100Y-105026800I237500J0D01*
G01*
X185306100Y-105026800D01*
G75*
G02*
X185543600Y-105264300I0J-237500D01*
G01*
X185543600Y-105764300D01*
G75*
G02*
X185306100Y-106001800I-237500J0D01*
G01*
G37*
G36*
G01*
X177553200Y-98966800D02*
X177553200Y-99441800D01*
G75*
G02*
X177315700Y-99679300I-237500J0D01*
G01*
X176815700Y-99679300D01*
G75*
G02*
X176578200Y-99441800I0J237500D01*
G01*
X176578200Y-98966800D01*
G75*
G02*
X176815700Y-98729300I237500J0D01*
G01*
X177315700Y-98729300D01*
G75*
G02*
X177553200Y-98966800I0J-237500D01*
G01*
G37*
G36*
G01*
X175728200Y-98966800D02*
X175728200Y-99441800D01*
G75*
G02*
X175490700Y-99679300I-237500J0D01*
G01*
X174990700Y-99679300D01*
G75*
G02*
X174753200Y-99441800I0J237500D01*
G01*
X174753200Y-98966800D01*
G75*
G02*
X174990700Y-98729300I237500J0D01*
G01*
X175490700Y-98729300D01*
G75*
G02*
X175728200Y-98966800I0J-237500D01*
G01*
G37*
G36*
G01*
X194229100Y-103201800D02*
X194704100Y-103201800D01*
G75*
G02*
X194941600Y-103439300I0J-237500D01*
G01*
X194941600Y-103939300D01*
G75*
G02*
X194704100Y-104176800I-237500J0D01*
G01*
X194229100Y-104176800D01*
G75*
G02*
X193991600Y-103939300I0J237500D01*
G01*
X193991600Y-103439300D01*
G75*
G02*
X194229100Y-103201800I237500J0D01*
G01*
G37*
G36*
G01*
X194229100Y-105026800D02*
X194704100Y-105026800D01*
G75*
G02*
X194941600Y-105264300I0J-237500D01*
G01*
X194941600Y-105764300D01*
G75*
G02*
X194704100Y-106001800I-237500J0D01*
G01*
X194229100Y-106001800D01*
G75*
G02*
X193991600Y-105764300I0J237500D01*
G01*
X193991600Y-105264300D01*
G75*
G02*
X194229100Y-105026800I237500J0D01*
G01*
G37*
G36*
G01*
X152794100Y-72680800D02*
X152319100Y-72680800D01*
G75*
G02*
X152081600Y-72443300I0J237500D01*
G01*
X152081600Y-71943300D01*
G75*
G02*
X152319100Y-71705800I237500J0D01*
G01*
X152794100Y-71705800D01*
G75*
G02*
X153031600Y-71943300I0J-237500D01*
G01*
X153031600Y-72443300D01*
G75*
G02*
X152794100Y-72680800I-237500J0D01*
G01*
G37*
G36*
G01*
X152794100Y-74505800D02*
X152319100Y-74505800D01*
G75*
G02*
X152081600Y-74268300I0J237500D01*
G01*
X152081600Y-73768300D01*
G75*
G02*
X152319100Y-73530800I237500J0D01*
G01*
X152794100Y-73530800D01*
G75*
G02*
X153031600Y-73768300I0J-237500D01*
G01*
X153031600Y-74268300D01*
G75*
G02*
X152794100Y-74505800I-237500J0D01*
G01*
G37*
G36*
G01*
X151270100Y-72680800D02*
X150795100Y-72680800D01*
G75*
G02*
X150557600Y-72443300I0J237500D01*
G01*
X150557600Y-71943300D01*
G75*
G02*
X150795100Y-71705800I237500J0D01*
G01*
X151270100Y-71705800D01*
G75*
G02*
X151507600Y-71943300I0J-237500D01*
G01*
X151507600Y-72443300D01*
G75*
G02*
X151270100Y-72680800I-237500J0D01*
G01*
G37*
G36*
G01*
X151270100Y-74505800D02*
X150795100Y-74505800D01*
G75*
G02*
X150557600Y-74268300I0J237500D01*
G01*
X150557600Y-73768300D01*
G75*
G02*
X150795100Y-73530800I237500J0D01*
G01*
X151270100Y-73530800D01*
G75*
G02*
X151507600Y-73768300I0J-237500D01*
G01*
X151507600Y-74268300D01*
G75*
G02*
X151270100Y-74505800I-237500J0D01*
G01*
G37*
G36*
G01*
X157366100Y-74505800D02*
X156891100Y-74505800D01*
G75*
G02*
X156653600Y-74268300I0J237500D01*
G01*
X156653600Y-73768300D01*
G75*
G02*
X156891100Y-73530800I237500J0D01*
G01*
X157366100Y-73530800D01*
G75*
G02*
X157603600Y-73768300I0J-237500D01*
G01*
X157603600Y-74268300D01*
G75*
G02*
X157366100Y-74505800I-237500J0D01*
G01*
G37*
G36*
G01*
X157366100Y-72680800D02*
X156891100Y-72680800D01*
G75*
G02*
X156653600Y-72443300I0J237500D01*
G01*
X156653600Y-71943300D01*
G75*
G02*
X156891100Y-71705800I237500J0D01*
G01*
X157366100Y-71705800D01*
G75*
G02*
X157603600Y-71943300I0J-237500D01*
G01*
X157603600Y-72443300D01*
G75*
G02*
X157366100Y-72680800I-237500J0D01*
G01*
G37*
G36*
G01*
X155842100Y-72680800D02*
X155367100Y-72680800D01*
G75*
G02*
X155129600Y-72443300I0J237500D01*
G01*
X155129600Y-71943300D01*
G75*
G02*
X155367100Y-71705800I237500J0D01*
G01*
X155842100Y-71705800D01*
G75*
G02*
X156079600Y-71943300I0J-237500D01*
G01*
X156079600Y-72443300D01*
G75*
G02*
X155842100Y-72680800I-237500J0D01*
G01*
G37*
G36*
G01*
X155842100Y-74505800D02*
X155367100Y-74505800D01*
G75*
G02*
X155129600Y-74268300I0J237500D01*
G01*
X155129600Y-73768300D01*
G75*
G02*
X155367100Y-73530800I237500J0D01*
G01*
X155842100Y-73530800D01*
G75*
G02*
X156079600Y-73768300I0J-237500D01*
G01*
X156079600Y-74268300D01*
G75*
G02*
X155842100Y-74505800I-237500J0D01*
G01*
G37*
G36*
G01*
X153843100Y-71705800D02*
X154318100Y-71705800D01*
G75*
G02*
X154555600Y-71943300I0J-237500D01*
G01*
X154555600Y-72443300D01*
G75*
G02*
X154318100Y-72680800I-237500J0D01*
G01*
X153843100Y-72680800D01*
G75*
G02*
X153605600Y-72443300I0J237500D01*
G01*
X153605600Y-71943300D01*
G75*
G02*
X153843100Y-71705800I237500J0D01*
G01*
G37*
G36*
G01*
X153843100Y-73530800D02*
X154318100Y-73530800D01*
G75*
G02*
X154555600Y-73768300I0J-237500D01*
G01*
X154555600Y-74268300D01*
G75*
G02*
X154318100Y-74505800I-237500J0D01*
G01*
X153843100Y-74505800D01*
G75*
G02*
X153605600Y-74268300I0J237500D01*
G01*
X153605600Y-73768300D01*
G75*
G02*
X153843100Y-73530800I237500J0D01*
G01*
G37*
G36*
G01*
X191868601Y-105947800D02*
X190968599Y-105947800D01*
G75*
G02*
X190718600Y-105697801I0J249999D01*
G01*
X190718600Y-104997799D01*
G75*
G02*
X190968599Y-104747800I249999J0D01*
G01*
X191868601Y-104747800D01*
G75*
G02*
X192118600Y-104997799I0J-249999D01*
G01*
X192118600Y-105697801D01*
G75*
G02*
X191868601Y-105947800I-249999J0D01*
G01*
G37*
G36*
G01*
X191868601Y-103947800D02*
X190968599Y-103947800D01*
G75*
G02*
X190718600Y-103697801I0J249999D01*
G01*
X190718600Y-102997799D01*
G75*
G02*
X190968599Y-102747800I249999J0D01*
G01*
X191868601Y-102747800D01*
G75*
G02*
X192118600Y-102997799I0J-249999D01*
G01*
X192118600Y-103697801D01*
G75*
G02*
X191868601Y-103947800I-249999J0D01*
G01*
G37*
G36*
G01*
X158415100Y-71705800D02*
X158890100Y-71705800D01*
G75*
G02*
X159127600Y-71943300I0J-237500D01*
G01*
X159127600Y-72443300D01*
G75*
G02*
X158890100Y-72680800I-237500J0D01*
G01*
X158415100Y-72680800D01*
G75*
G02*
X158177600Y-72443300I0J237500D01*
G01*
X158177600Y-71943300D01*
G75*
G02*
X158415100Y-71705800I237500J0D01*
G01*
G37*
G36*
G01*
X158415100Y-73530800D02*
X158890100Y-73530800D01*
G75*
G02*
X159127600Y-73768300I0J-237500D01*
G01*
X159127600Y-74268300D01*
G75*
G02*
X158890100Y-74505800I-237500J0D01*
G01*
X158415100Y-74505800D01*
G75*
G02*
X158177600Y-74268300I0J237500D01*
G01*
X158177600Y-73768300D01*
G75*
G02*
X158415100Y-73530800I237500J0D01*
G01*
G37*
G36*
G01*
X159939100Y-73530800D02*
X160414100Y-73530800D01*
G75*
G02*
X160651600Y-73768300I0J-237500D01*
G01*
X160651600Y-74268300D01*
G75*
G02*
X160414100Y-74505800I-237500J0D01*
G01*
X159939100Y-74505800D01*
G75*
G02*
X159701600Y-74268300I0J237500D01*
G01*
X159701600Y-73768300D01*
G75*
G02*
X159939100Y-73530800I237500J0D01*
G01*
G37*
G36*
G01*
X159939100Y-71705800D02*
X160414100Y-71705800D01*
G75*
G02*
X160651600Y-71943300I0J-237500D01*
G01*
X160651600Y-72443300D01*
G75*
G02*
X160414100Y-72680800I-237500J0D01*
G01*
X159939100Y-72680800D01*
G75*
G02*
X159701600Y-72443300I0J237500D01*
G01*
X159701600Y-71943300D01*
G75*
G02*
X159939100Y-71705800I237500J0D01*
G01*
G37*
G36*
G01*
X188820601Y-103947800D02*
X187920599Y-103947800D01*
G75*
G02*
X187670600Y-103697801I0J249999D01*
G01*
X187670600Y-102997799D01*
G75*
G02*
X187920599Y-102747800I249999J0D01*
G01*
X188820601Y-102747800D01*
G75*
G02*
X189070600Y-102997799I0J-249999D01*
G01*
X189070600Y-103697801D01*
G75*
G02*
X188820601Y-103947800I-249999J0D01*
G01*
G37*
G36*
G01*
X188820601Y-105947800D02*
X187920599Y-105947800D01*
G75*
G02*
X187670600Y-105697801I0J249999D01*
G01*
X187670600Y-104997799D01*
G75*
G02*
X187920599Y-104747800I249999J0D01*
G01*
X188820601Y-104747800D01*
G75*
G02*
X189070600Y-104997799I0J-249999D01*
G01*
X189070600Y-105697801D01*
G75*
G02*
X188820601Y-105947800I-249999J0D01*
G01*
G37*
G36*
G01*
X149017100Y-71705800D02*
X149492100Y-71705800D01*
G75*
G02*
X149729600Y-71943300I0J-237500D01*
G01*
X149729600Y-72443300D01*
G75*
G02*
X149492100Y-72680800I-237500J0D01*
G01*
X149017100Y-72680800D01*
G75*
G02*
X148779600Y-72443300I0J237500D01*
G01*
X148779600Y-71943300D01*
G75*
G02*
X149017100Y-71705800I237500J0D01*
G01*
G37*
G36*
G01*
X149017100Y-73530800D02*
X149492100Y-73530800D01*
G75*
G02*
X149729600Y-73768300I0J-237500D01*
G01*
X149729600Y-74268300D01*
G75*
G02*
X149492100Y-74505800I-237500J0D01*
G01*
X149017100Y-74505800D01*
G75*
G02*
X148779600Y-74268300I0J237500D01*
G01*
X148779600Y-73768300D01*
G75*
G02*
X149017100Y-73530800I237500J0D01*
G01*
G37*
G36*
G01*
X147493100Y-73530800D02*
X147968100Y-73530800D01*
G75*
G02*
X148205600Y-73768300I0J-237500D01*
G01*
X148205600Y-74268300D01*
G75*
G02*
X147968100Y-74505800I-237500J0D01*
G01*
X147493100Y-74505800D01*
G75*
G02*
X147255600Y-74268300I0J237500D01*
G01*
X147255600Y-73768300D01*
G75*
G02*
X147493100Y-73530800I237500J0D01*
G01*
G37*
G36*
G01*
X147493100Y-71705800D02*
X147968100Y-71705800D01*
G75*
G02*
X148205600Y-71943300I0J-237500D01*
G01*
X148205600Y-72443300D01*
G75*
G02*
X147968100Y-72680800I-237500J0D01*
G01*
X147493100Y-72680800D01*
G75*
G02*
X147255600Y-72443300I0J237500D01*
G01*
X147255600Y-71943300D01*
G75*
G02*
X147493100Y-71705800I237500J0D01*
G01*
G37*
G36*
G01*
X145969100Y-71705800D02*
X146444100Y-71705800D01*
G75*
G02*
X146681600Y-71943300I0J-237500D01*
G01*
X146681600Y-72443300D01*
G75*
G02*
X146444100Y-72680800I-237500J0D01*
G01*
X145969100Y-72680800D01*
G75*
G02*
X145731600Y-72443300I0J237500D01*
G01*
X145731600Y-71943300D01*
G75*
G02*
X145969100Y-71705800I237500J0D01*
G01*
G37*
G36*
G01*
X145969100Y-73530800D02*
X146444100Y-73530800D01*
G75*
G02*
X146681600Y-73768300I0J-237500D01*
G01*
X146681600Y-74268300D01*
G75*
G02*
X146444100Y-74505800I-237500J0D01*
G01*
X145969100Y-74505800D01*
G75*
G02*
X145731600Y-74268300I0J237500D01*
G01*
X145731600Y-73768300D01*
G75*
G02*
X145969100Y-73530800I237500J0D01*
G01*
G37*
G36*
G01*
X162987100Y-73542800D02*
X163462100Y-73542800D01*
G75*
G02*
X163699600Y-73780300I0J-237500D01*
G01*
X163699600Y-74280300D01*
G75*
G02*
X163462100Y-74517800I-237500J0D01*
G01*
X162987100Y-74517800D01*
G75*
G02*
X162749600Y-74280300I0J237500D01*
G01*
X162749600Y-73780300D01*
G75*
G02*
X162987100Y-73542800I237500J0D01*
G01*
G37*
G36*
G01*
X162987100Y-71717800D02*
X163462100Y-71717800D01*
G75*
G02*
X163699600Y-71955300I0J-237500D01*
G01*
X163699600Y-72455300D01*
G75*
G02*
X163462100Y-72692800I-237500J0D01*
G01*
X162987100Y-72692800D01*
G75*
G02*
X162749600Y-72455300I0J237500D01*
G01*
X162749600Y-71955300D01*
G75*
G02*
X162987100Y-71717800I237500J0D01*
G01*
G37*
G36*
G01*
X161942100Y-74517800D02*
X161467100Y-74517800D01*
G75*
G02*
X161229600Y-74280300I0J237500D01*
G01*
X161229600Y-73780300D01*
G75*
G02*
X161467100Y-73542800I237500J0D01*
G01*
X161942100Y-73542800D01*
G75*
G02*
X162179600Y-73780300I0J-237500D01*
G01*
X162179600Y-74280300D01*
G75*
G02*
X161942100Y-74517800I-237500J0D01*
G01*
G37*
G36*
G01*
X161942100Y-72692800D02*
X161467100Y-72692800D01*
G75*
G02*
X161229600Y-72455300I0J237500D01*
G01*
X161229600Y-71955300D01*
G75*
G02*
X161467100Y-71717800I237500J0D01*
G01*
X161942100Y-71717800D01*
G75*
G02*
X162179600Y-71955300I0J-237500D01*
G01*
X162179600Y-72455300D01*
G75*
G02*
X161942100Y-72692800I-237500J0D01*
G01*
G37*
G36*
G01*
X195688800Y-98928700D02*
X195688800Y-99403700D01*
G75*
G02*
X195451300Y-99641200I-237500J0D01*
G01*
X194951300Y-99641200D01*
G75*
G02*
X194713800Y-99403700I0J237500D01*
G01*
X194713800Y-98928700D01*
G75*
G02*
X194951300Y-98691200I237500J0D01*
G01*
X195451300Y-98691200D01*
G75*
G02*
X195688800Y-98928700I0J-237500D01*
G01*
G37*
G36*
G01*
X193863800Y-98928700D02*
X193863800Y-99403700D01*
G75*
G02*
X193626300Y-99641200I-237500J0D01*
G01*
X193126300Y-99641200D01*
G75*
G02*
X192888800Y-99403700I0J237500D01*
G01*
X192888800Y-98928700D01*
G75*
G02*
X193126300Y-98691200I237500J0D01*
G01*
X193626300Y-98691200D01*
G75*
G02*
X193863800Y-98928700I0J-237500D01*
G01*
G37*
G36*
G01*
X197277100Y-105026800D02*
X197752100Y-105026800D01*
G75*
G02*
X197989600Y-105264300I0J-237500D01*
G01*
X197989600Y-105764300D01*
G75*
G02*
X197752100Y-106001800I-237500J0D01*
G01*
X197277100Y-106001800D01*
G75*
G02*
X197039600Y-105764300I0J237500D01*
G01*
X197039600Y-105264300D01*
G75*
G02*
X197277100Y-105026800I237500J0D01*
G01*
G37*
G36*
G01*
X197277100Y-103201800D02*
X197752100Y-103201800D01*
G75*
G02*
X197989600Y-103439300I0J-237500D01*
G01*
X197989600Y-103939300D01*
G75*
G02*
X197752100Y-104176800I-237500J0D01*
G01*
X197277100Y-104176800D01*
G75*
G02*
X197039600Y-103939300I0J237500D01*
G01*
X197039600Y-103439300D01*
G75*
G02*
X197277100Y-103201800I237500J0D01*
G01*
G37*
D32*
X181348600Y-107522800D03*
X173548600Y-107522800D03*
X173548600Y-103281000D03*
X181348600Y-103281000D03*
D16*
X135792600Y-72597800D03*
X114393100Y-83900800D03*
X138485000Y-72572400D03*
X141152000Y-72547000D03*
X138510400Y-76230000D03*
X135818000Y-76230000D03*
X141152000Y-76230000D03*
D11*
X121670600Y-101299800D03*
D10*
X115370600Y-101299800D03*
X115370600Y-103599800D03*
X115370600Y-98999800D03*
D19*
X177979400Y-96816700D03*
X174479400Y-96816700D03*
X192449900Y-96816700D03*
X195949900Y-96816700D03*
G36*
G01*
X119324600Y-84767800D02*
X118224600Y-84767800D01*
G75*
G02*
X117974600Y-84517800I0J250000D01*
G01*
X117974600Y-81517800D01*
G75*
G02*
X118224600Y-81267800I250000J0D01*
G01*
X119324600Y-81267800D01*
G75*
G02*
X119574600Y-81517800I0J-250000D01*
G01*
X119574600Y-84517800D01*
G75*
G02*
X119324600Y-84767800I-250000J0D01*
G01*
G37*
G36*
G01*
X119324600Y-79167800D02*
X118224600Y-79167800D01*
G75*
G02*
X117974600Y-78917800I0J250000D01*
G01*
X117974600Y-75917800D01*
G75*
G02*
X118224600Y-75667800I250000J0D01*
G01*
X119324600Y-75667800D01*
G75*
G02*
X119574600Y-75917800I0J-250000D01*
G01*
X119574600Y-78917800D01*
G75*
G02*
X119324600Y-79167800I-250000J0D01*
G01*
G37*
G36*
G01*
X123633600Y-103506300D02*
X124583600Y-103506300D01*
G75*
G02*
X124833600Y-103756300I0J-250000D01*
G01*
X124833600Y-104431300D01*
G75*
G02*
X124583600Y-104681300I-250000J0D01*
G01*
X123633600Y-104681300D01*
G75*
G02*
X123383600Y-104431300I0J250000D01*
G01*
X123383600Y-103756300D01*
G75*
G02*
X123633600Y-103506300I250000J0D01*
G01*
G37*
G36*
G01*
X123633600Y-101431300D02*
X124583600Y-101431300D01*
G75*
G02*
X124833600Y-101681300I0J-250000D01*
G01*
X124833600Y-102356300D01*
G75*
G02*
X124583600Y-102606300I-250000J0D01*
G01*
X123633600Y-102606300D01*
G75*
G02*
X123383600Y-102356300I0J250000D01*
G01*
X123383600Y-101681300D01*
G75*
G02*
X123633600Y-101431300I250000J0D01*
G01*
G37*
G36*
G01*
X124583600Y-93526800D02*
X123633600Y-93526800D01*
G75*
G02*
X123383600Y-93276800I0J250000D01*
G01*
X123383600Y-92601800D01*
G75*
G02*
X123633600Y-92351800I250000J0D01*
G01*
X124583600Y-92351800D01*
G75*
G02*
X124833600Y-92601800I0J-250000D01*
G01*
X124833600Y-93276800D01*
G75*
G02*
X124583600Y-93526800I-250000J0D01*
G01*
G37*
G36*
G01*
X124583600Y-91451800D02*
X123633600Y-91451800D01*
G75*
G02*
X123383600Y-91201800I0J250000D01*
G01*
X123383600Y-90526800D01*
G75*
G02*
X123633600Y-90276800I250000J0D01*
G01*
X124583600Y-90276800D01*
G75*
G02*
X124833600Y-90526800I0J-250000D01*
G01*
X124833600Y-91201800D01*
G75*
G02*
X124583600Y-91451800I-250000J0D01*
G01*
G37*
G36*
G01*
X123622600Y-80513800D02*
X123622600Y-79413800D01*
G75*
G02*
X123872600Y-79163800I250000J0D01*
G01*
X126872600Y-79163800D01*
G75*
G02*
X127122600Y-79413800I0J-250000D01*
G01*
X127122600Y-80513800D01*
G75*
G02*
X126872600Y-80763800I-250000J0D01*
G01*
X123872600Y-80763800D01*
G75*
G02*
X123622600Y-80513800I0J250000D01*
G01*
G37*
G36*
G01*
X129222600Y-80513800D02*
X129222600Y-79413800D01*
G75*
G02*
X129472600Y-79163800I250000J0D01*
G01*
X132472600Y-79163800D01*
G75*
G02*
X132722600Y-79413800I0J-250000D01*
G01*
X132722600Y-80513800D01*
G75*
G02*
X132472600Y-80763800I-250000J0D01*
G01*
X129472600Y-80763800D01*
G75*
G02*
X129222600Y-80513800I0J250000D01*
G01*
G37*
G36*
G01*
X129222600Y-72893800D02*
X129222600Y-71793800D01*
G75*
G02*
X129472600Y-71543800I250000J0D01*
G01*
X132472600Y-71543800D01*
G75*
G02*
X132722600Y-71793800I0J-250000D01*
G01*
X132722600Y-72893800D01*
G75*
G02*
X132472600Y-73143800I-250000J0D01*
G01*
X129472600Y-73143800D01*
G75*
G02*
X129222600Y-72893800I0J250000D01*
G01*
G37*
G36*
G01*
X123622600Y-72893800D02*
X123622600Y-71793800D01*
G75*
G02*
X123872600Y-71543800I250000J0D01*
G01*
X126872600Y-71543800D01*
G75*
G02*
X127122600Y-71793800I0J-250000D01*
G01*
X127122600Y-72893800D01*
G75*
G02*
X126872600Y-73143800I-250000J0D01*
G01*
X123872600Y-73143800D01*
G75*
G02*
X123622600Y-72893800I0J250000D01*
G01*
G37*
D21*
X121020600Y-88091800D03*
X116020600Y-88091800D03*
D23*
X108106600Y-91139800D03*
D22*
X108106600Y-88599800D03*
X108106600Y-86059800D03*
D23*
X127436000Y-101579200D03*
D22*
X127436000Y-99039200D03*
X127436000Y-96499200D03*
X127436000Y-93959200D03*
X127436000Y-91419200D03*
X127436000Y-88879200D03*
X108106600Y-100029800D03*
X108106600Y-97489800D03*
D23*
X108106600Y-94949800D03*
X168203000Y-96778600D03*
D22*
X168203000Y-99318600D03*
X168203000Y-101858600D03*
X168203000Y-104398600D03*
D26*
X126126600Y-62597800D03*
D27*
X129626600Y-65297800D03*
D28*
X127776600Y-65297800D03*
X128426600Y-65297800D03*
X125826600Y-65297800D03*
X126476600Y-65297800D03*
X127126600Y-65297800D03*
D27*
X124626600Y-65297800D03*
D26*
X128126600Y-62597800D03*
D25*
X130626600Y-62597800D03*
X123626600Y-62597800D03*
D24*
X124226600Y-62597800D03*
X130026600Y-62597800D03*
D20*
X117116600Y-71417800D03*
G36*
G01*
X116116600Y-63917800D02*
X118116600Y-63917800D01*
G75*
G02*
X118866600Y-64667800I0J-750000D01*
G01*
X118866600Y-66167800D01*
G75*
G02*
X118116600Y-66917800I-750000J0D01*
G01*
X116116600Y-66917800D01*
G75*
G02*
X115366600Y-66167800I0J750000D01*
G01*
X115366600Y-64667800D01*
G75*
G02*
X116116600Y-63917800I750000J0D01*
G01*
G37*
G36*
G01*
X111541600Y-66667800D02*
X113291600Y-66667800D01*
G75*
G02*
X114166600Y-67542800I0J-875000D01*
G01*
X114166600Y-69292800D01*
G75*
G02*
X113291600Y-70167800I-875000J0D01*
G01*
X111541600Y-70167800D01*
G75*
G02*
X110666600Y-69292800I0J875000D01*
G01*
X110666600Y-67542800D01*
G75*
G02*
X111541600Y-66667800I875000J0D01*
G01*
G37*
D11*
X121670600Y-93679800D03*
D10*
X115370600Y-93679800D03*
X115370600Y-95979800D03*
X115370600Y-91379800D03*
M02*
