%TF.GenerationSoftware,KiCad,Pcbnew,5.1.9-73d0e3b20d~88~ubuntu18.04.1*%
%TF.CreationDate,2021-03-24T04:21:48+02:00*%
%TF.ProjectId,Electra,456c6563-7472-4612-9e6b-696361645f70,rev?*%
%TF.SameCoordinates,Original*%
%TF.FileFunction,Soldermask,Top*%
%TF.FilePolarity,Negative*%
%FSLAX46Y46*%
G04 Gerber Fmt 4.6, Leading zero omitted, Abs format (unit mm)*
G04 Created by KiCad (PCBNEW 5.1.9-73d0e3b20d~88~ubuntu18.04.1) date 2021-03-24 04:21:48*
%MOMM*%
%LPD*%
G01*
G04 APERTURE LIST*
%ADD10C,3.500000*%
%ADD11C,2.600000*%
%ADD12C,3.000000*%
%ADD13R,1.700000X1.700000*%
%ADD14O,1.700000X1.700000*%
%ADD15O,1.700000X2.000000*%
%ADD16R,2.700000X3.600000*%
%ADD17C,4.400000*%
%ADD18C,0.700000*%
%ADD19R,3.000000X3.000000*%
%ADD20R,1.800000X2.500000*%
%ADD21R,0.600000X0.450000*%
%ADD22R,3.500000X3.500000*%
%ADD23R,1.500000X1.900000*%
%ADD24C,1.450000*%
%ADD25R,0.400000X1.350000*%
%ADD26O,1.200000X1.900000*%
%ADD27R,1.200000X1.900000*%
%ADD28R,0.450000X0.700000*%
%ADD29R,0.900000X0.800000*%
%ADD30R,2.000000X1.600000*%
%ADD31C,1.500000*%
%ADD32R,2.000000X3.800000*%
%ADD33R,2.000000X1.500000*%
%ADD34R,0.650000X1.060000*%
G04 APERTURE END LIST*
%TO.C,R206*%
G36*
G01*
X101625000Y-112137500D02*
X101625000Y-111662500D01*
G75*
G02*
X101862500Y-111425000I237500J0D01*
G01*
X102362500Y-111425000D01*
G75*
G02*
X102600000Y-111662500I0J-237500D01*
G01*
X102600000Y-112137500D01*
G75*
G02*
X102362500Y-112375000I-237500J0D01*
G01*
X101862500Y-112375000D01*
G75*
G02*
X101625000Y-112137500I0J237500D01*
G01*
G37*
G36*
G01*
X99800000Y-112137500D02*
X99800000Y-111662500D01*
G75*
G02*
X100037500Y-111425000I237500J0D01*
G01*
X100537500Y-111425000D01*
G75*
G02*
X100775000Y-111662500I0J-237500D01*
G01*
X100775000Y-112137500D01*
G75*
G02*
X100537500Y-112375000I-237500J0D01*
G01*
X100037500Y-112375000D01*
G75*
G02*
X99800000Y-112137500I0J237500D01*
G01*
G37*
%TD*%
%TO.C,R205*%
G36*
G01*
X101625000Y-110587500D02*
X101625000Y-110112500D01*
G75*
G02*
X101862500Y-109875000I237500J0D01*
G01*
X102362500Y-109875000D01*
G75*
G02*
X102600000Y-110112500I0J-237500D01*
G01*
X102600000Y-110587500D01*
G75*
G02*
X102362500Y-110825000I-237500J0D01*
G01*
X101862500Y-110825000D01*
G75*
G02*
X101625000Y-110587500I0J237500D01*
G01*
G37*
G36*
G01*
X99800000Y-110587500D02*
X99800000Y-110112500D01*
G75*
G02*
X100037500Y-109875000I237500J0D01*
G01*
X100537500Y-109875000D01*
G75*
G02*
X100775000Y-110112500I0J-237500D01*
G01*
X100775000Y-110587500D01*
G75*
G02*
X100537500Y-110825000I-237500J0D01*
G01*
X100037500Y-110825000D01*
G75*
G02*
X99800000Y-110587500I0J237500D01*
G01*
G37*
%TD*%
%TO.C,R204*%
G36*
G01*
X100775000Y-108562500D02*
X100775000Y-109037500D01*
G75*
G02*
X100537500Y-109275000I-237500J0D01*
G01*
X100037500Y-109275000D01*
G75*
G02*
X99800000Y-109037500I0J237500D01*
G01*
X99800000Y-108562500D01*
G75*
G02*
X100037500Y-108325000I237500J0D01*
G01*
X100537500Y-108325000D01*
G75*
G02*
X100775000Y-108562500I0J-237500D01*
G01*
G37*
G36*
G01*
X102600000Y-108562500D02*
X102600000Y-109037500D01*
G75*
G02*
X102362500Y-109275000I-237500J0D01*
G01*
X101862500Y-109275000D01*
G75*
G02*
X101625000Y-109037500I0J237500D01*
G01*
X101625000Y-108562500D01*
G75*
G02*
X101862500Y-108325000I237500J0D01*
G01*
X102362500Y-108325000D01*
G75*
G02*
X102600000Y-108562500I0J-237500D01*
G01*
G37*
%TD*%
%TO.C,R202*%
G36*
G01*
X100775000Y-107012500D02*
X100775000Y-107487500D01*
G75*
G02*
X100537500Y-107725000I-237500J0D01*
G01*
X100037500Y-107725000D01*
G75*
G02*
X99800000Y-107487500I0J237500D01*
G01*
X99800000Y-107012500D01*
G75*
G02*
X100037500Y-106775000I237500J0D01*
G01*
X100537500Y-106775000D01*
G75*
G02*
X100775000Y-107012500I0J-237500D01*
G01*
G37*
G36*
G01*
X102600000Y-107012500D02*
X102600000Y-107487500D01*
G75*
G02*
X102362500Y-107725000I-237500J0D01*
G01*
X101862500Y-107725000D01*
G75*
G02*
X101625000Y-107487500I0J237500D01*
G01*
X101625000Y-107012500D01*
G75*
G02*
X101862500Y-106775000I237500J0D01*
G01*
X102362500Y-106775000D01*
G75*
G02*
X102600000Y-107012500I0J-237500D01*
G01*
G37*
%TD*%
%TO.C,R201*%
G36*
G01*
X101662500Y-105987500D02*
X101662500Y-105512500D01*
G75*
G02*
X101900000Y-105275000I237500J0D01*
G01*
X102400000Y-105275000D01*
G75*
G02*
X102637500Y-105512500I0J-237500D01*
G01*
X102637500Y-105987500D01*
G75*
G02*
X102400000Y-106225000I-237500J0D01*
G01*
X101900000Y-106225000D01*
G75*
G02*
X101662500Y-105987500I0J237500D01*
G01*
G37*
G36*
G01*
X99837500Y-105987500D02*
X99837500Y-105512500D01*
G75*
G02*
X100075000Y-105275000I237500J0D01*
G01*
X100575000Y-105275000D01*
G75*
G02*
X100812500Y-105512500I0J-237500D01*
G01*
X100812500Y-105987500D01*
G75*
G02*
X100575000Y-106225000I-237500J0D01*
G01*
X100075000Y-106225000D01*
G75*
G02*
X99837500Y-105987500I0J237500D01*
G01*
G37*
%TD*%
D10*
%TO.C,REF\u002A\u002A*%
X195000000Y-73000000D03*
D11*
X195000000Y-73000000D03*
%TD*%
D12*
%TO.C,K301*%
X185920000Y-98000000D03*
X179920000Y-96000000D03*
X179920000Y-83800000D03*
X191920000Y-83800000D03*
X191920000Y-96000000D03*
%TD*%
D13*
%TO.C,J801*%
X148000000Y-86600000D03*
D14*
X150540000Y-86600000D03*
X153080000Y-86600000D03*
X155620000Y-86600000D03*
%TD*%
D12*
%TO.C,K401*%
X173920000Y-96000000D03*
X173920000Y-83800000D03*
X161920000Y-83800000D03*
X161920000Y-96000000D03*
X167920000Y-98000000D03*
%TD*%
D14*
%TO.C,REF\u002A\u002A*%
X155500000Y-108080000D03*
X155500000Y-105540000D03*
X155500000Y-103000000D03*
D13*
X155500000Y-100460000D03*
%TD*%
D15*
%TO.C,J501*%
X152186000Y-75946000D03*
G36*
G01*
X155536000Y-75196000D02*
X155536000Y-76696000D01*
G75*
G02*
X155286000Y-76946000I-250000J0D01*
G01*
X154086000Y-76946000D01*
G75*
G02*
X153836000Y-76696000I0J250000D01*
G01*
X153836000Y-75196000D01*
G75*
G02*
X154086000Y-74946000I250000J0D01*
G01*
X155286000Y-74946000D01*
G75*
G02*
X155536000Y-75196000I0J-250000D01*
G01*
G37*
%TD*%
%TO.C,R203*%
G36*
G01*
X178037500Y-112859000D02*
X177562500Y-112859000D01*
G75*
G02*
X177325000Y-112621500I0J237500D01*
G01*
X177325000Y-112121500D01*
G75*
G02*
X177562500Y-111884000I237500J0D01*
G01*
X178037500Y-111884000D01*
G75*
G02*
X178275000Y-112121500I0J-237500D01*
G01*
X178275000Y-112621500D01*
G75*
G02*
X178037500Y-112859000I-237500J0D01*
G01*
G37*
G36*
G01*
X178037500Y-114684000D02*
X177562500Y-114684000D01*
G75*
G02*
X177325000Y-114446500I0J237500D01*
G01*
X177325000Y-113946500D01*
G75*
G02*
X177562500Y-113709000I237500J0D01*
G01*
X178037500Y-113709000D01*
G75*
G02*
X178275000Y-113946500I0J-237500D01*
G01*
X178275000Y-114446500D01*
G75*
G02*
X178037500Y-114684000I-237500J0D01*
G01*
G37*
%TD*%
%TO.C,C203*%
G36*
G01*
X117136000Y-82104000D02*
X116036000Y-82104000D01*
G75*
G02*
X115786000Y-81854000I0J250000D01*
G01*
X115786000Y-79354000D01*
G75*
G02*
X116036000Y-79104000I250000J0D01*
G01*
X117136000Y-79104000D01*
G75*
G02*
X117386000Y-79354000I0J-250000D01*
G01*
X117386000Y-81854000D01*
G75*
G02*
X117136000Y-82104000I-250000J0D01*
G01*
G37*
G36*
G01*
X117136000Y-86504000D02*
X116036000Y-86504000D01*
G75*
G02*
X115786000Y-86254000I0J250000D01*
G01*
X115786000Y-83754000D01*
G75*
G02*
X116036000Y-83504000I250000J0D01*
G01*
X117136000Y-83504000D01*
G75*
G02*
X117386000Y-83754000I0J-250000D01*
G01*
X117386000Y-86254000D01*
G75*
G02*
X117136000Y-86504000I-250000J0D01*
G01*
G37*
%TD*%
D16*
%TO.C,L201*%
X106300000Y-96600000D03*
X114600000Y-96600000D03*
%TD*%
D17*
%TO.C,REF\u002A\u002A*%
X100500000Y-73500000D03*
D18*
X102150000Y-73500000D03*
X101666726Y-74666726D03*
X100500000Y-75150000D03*
X99333274Y-74666726D03*
X98850000Y-73500000D03*
X99333274Y-72333274D03*
X100500000Y-71850000D03*
X101666726Y-72333274D03*
%TD*%
%TO.C,REF\u002A\u002A*%
X101666726Y-114833274D03*
X100500000Y-114350000D03*
X99333274Y-114833274D03*
X98850000Y-116000000D03*
X99333274Y-117166726D03*
X100500000Y-117650000D03*
X101666726Y-117166726D03*
X102150000Y-116000000D03*
D17*
X100500000Y-116000000D03*
%TD*%
%TO.C,REF\u002A\u002A*%
X194500000Y-116000000D03*
D18*
X196150000Y-116000000D03*
X195666726Y-117166726D03*
X194500000Y-117650000D03*
X193333274Y-117166726D03*
X192850000Y-116000000D03*
X193333274Y-114833274D03*
X194500000Y-114350000D03*
X195666726Y-114833274D03*
%TD*%
D12*
%TO.C,J401*%
X172920000Y-74510000D03*
X167840000Y-74510000D03*
D19*
X162760000Y-74510000D03*
%TD*%
%TO.C,C201*%
G36*
G01*
X100437500Y-99099999D02*
X100437500Y-101300001D01*
G75*
G02*
X100187501Y-101550000I-249999J0D01*
G01*
X99362499Y-101550000D01*
G75*
G02*
X99112500Y-101300001I0J249999D01*
G01*
X99112500Y-99099999D01*
G75*
G02*
X99362499Y-98850000I249999J0D01*
G01*
X100187501Y-98850000D01*
G75*
G02*
X100437500Y-99099999I0J-249999D01*
G01*
G37*
G36*
G01*
X103562500Y-99099999D02*
X103562500Y-101300001D01*
G75*
G02*
X103312501Y-101550000I-249999J0D01*
G01*
X102487499Y-101550000D01*
G75*
G02*
X102237500Y-101300001I0J249999D01*
G01*
X102237500Y-99099999D01*
G75*
G02*
X102487499Y-98850000I249999J0D01*
G01*
X103312501Y-98850000D01*
G75*
G02*
X103562500Y-99099999I0J-249999D01*
G01*
G37*
%TD*%
%TO.C,C202*%
G36*
G01*
X100412500Y-97362500D02*
X100412500Y-97837500D01*
G75*
G02*
X100175000Y-98075000I-237500J0D01*
G01*
X99575000Y-98075000D01*
G75*
G02*
X99337500Y-97837500I0J237500D01*
G01*
X99337500Y-97362500D01*
G75*
G02*
X99575000Y-97125000I237500J0D01*
G01*
X100175000Y-97125000D01*
G75*
G02*
X100412500Y-97362500I0J-237500D01*
G01*
G37*
G36*
G01*
X102137500Y-97362500D02*
X102137500Y-97837500D01*
G75*
G02*
X101900000Y-98075000I-237500J0D01*
G01*
X101300000Y-98075000D01*
G75*
G02*
X101062500Y-97837500I0J237500D01*
G01*
X101062500Y-97362500D01*
G75*
G02*
X101300000Y-97125000I237500J0D01*
G01*
X101900000Y-97125000D01*
G75*
G02*
X102137500Y-97362500I0J-237500D01*
G01*
G37*
%TD*%
%TO.C,C204*%
G36*
G01*
X104950000Y-90437500D02*
X104950000Y-89962500D01*
G75*
G02*
X105187500Y-89725000I237500J0D01*
G01*
X105787500Y-89725000D01*
G75*
G02*
X106025000Y-89962500I0J-237500D01*
G01*
X106025000Y-90437500D01*
G75*
G02*
X105787500Y-90675000I-237500J0D01*
G01*
X105187500Y-90675000D01*
G75*
G02*
X104950000Y-90437500I0J237500D01*
G01*
G37*
G36*
G01*
X106675000Y-90437500D02*
X106675000Y-89962500D01*
G75*
G02*
X106912500Y-89725000I237500J0D01*
G01*
X107512500Y-89725000D01*
G75*
G02*
X107750000Y-89962500I0J-237500D01*
G01*
X107750000Y-90437500D01*
G75*
G02*
X107512500Y-90675000I-237500J0D01*
G01*
X106912500Y-90675000D01*
G75*
G02*
X106675000Y-90437500I0J237500D01*
G01*
G37*
%TD*%
%TO.C,C205*%
G36*
G01*
X112300001Y-107037500D02*
X110099999Y-107037500D01*
G75*
G02*
X109850000Y-106787501I0J249999D01*
G01*
X109850000Y-105962499D01*
G75*
G02*
X110099999Y-105712500I249999J0D01*
G01*
X112300001Y-105712500D01*
G75*
G02*
X112550000Y-105962499I0J-249999D01*
G01*
X112550000Y-106787501D01*
G75*
G02*
X112300001Y-107037500I-249999J0D01*
G01*
G37*
G36*
G01*
X112300001Y-103912500D02*
X110099999Y-103912500D01*
G75*
G02*
X109850000Y-103662501I0J249999D01*
G01*
X109850000Y-102837499D01*
G75*
G02*
X110099999Y-102587500I249999J0D01*
G01*
X112300001Y-102587500D01*
G75*
G02*
X112550000Y-102837499I0J-249999D01*
G01*
X112550000Y-103662501D01*
G75*
G02*
X112300001Y-103912500I-249999J0D01*
G01*
G37*
%TD*%
%TO.C,C206*%
G36*
G01*
X115700001Y-103912500D02*
X113499999Y-103912500D01*
G75*
G02*
X113250000Y-103662501I0J249999D01*
G01*
X113250000Y-102837499D01*
G75*
G02*
X113499999Y-102587500I249999J0D01*
G01*
X115700001Y-102587500D01*
G75*
G02*
X115950000Y-102837499I0J-249999D01*
G01*
X115950000Y-103662501D01*
G75*
G02*
X115700001Y-103912500I-249999J0D01*
G01*
G37*
G36*
G01*
X115700001Y-107037500D02*
X113499999Y-107037500D01*
G75*
G02*
X113250000Y-106787501I0J249999D01*
G01*
X113250000Y-105962499D01*
G75*
G02*
X113499999Y-105712500I249999J0D01*
G01*
X115700001Y-105712500D01*
G75*
G02*
X115950000Y-105962499I0J-249999D01*
G01*
X115950000Y-106787501D01*
G75*
G02*
X115700001Y-107037500I-249999J0D01*
G01*
G37*
%TD*%
%TO.C,C207*%
G36*
G01*
X98837500Y-112400000D02*
X98362500Y-112400000D01*
G75*
G02*
X98125000Y-112162500I0J237500D01*
G01*
X98125000Y-111562500D01*
G75*
G02*
X98362500Y-111325000I237500J0D01*
G01*
X98837500Y-111325000D01*
G75*
G02*
X99075000Y-111562500I0J-237500D01*
G01*
X99075000Y-112162500D01*
G75*
G02*
X98837500Y-112400000I-237500J0D01*
G01*
G37*
G36*
G01*
X98837500Y-110675000D02*
X98362500Y-110675000D01*
G75*
G02*
X98125000Y-110437500I0J237500D01*
G01*
X98125000Y-109837500D01*
G75*
G02*
X98362500Y-109600000I237500J0D01*
G01*
X98837500Y-109600000D01*
G75*
G02*
X99075000Y-109837500I0J-237500D01*
G01*
X99075000Y-110437500D01*
G75*
G02*
X98837500Y-110675000I-237500J0D01*
G01*
G37*
%TD*%
%TO.C,C208*%
G36*
G01*
X124248000Y-86504000D02*
X123148000Y-86504000D01*
G75*
G02*
X122898000Y-86254000I0J250000D01*
G01*
X122898000Y-83754000D01*
G75*
G02*
X123148000Y-83504000I250000J0D01*
G01*
X124248000Y-83504000D01*
G75*
G02*
X124498000Y-83754000I0J-250000D01*
G01*
X124498000Y-86254000D01*
G75*
G02*
X124248000Y-86504000I-250000J0D01*
G01*
G37*
G36*
G01*
X124248000Y-82104000D02*
X123148000Y-82104000D01*
G75*
G02*
X122898000Y-81854000I0J250000D01*
G01*
X122898000Y-79354000D01*
G75*
G02*
X123148000Y-79104000I250000J0D01*
G01*
X124248000Y-79104000D01*
G75*
G02*
X124498000Y-79354000I0J-250000D01*
G01*
X124498000Y-81854000D01*
G75*
G02*
X124248000Y-82104000I-250000J0D01*
G01*
G37*
%TD*%
%TO.C,C601*%
G36*
G01*
X126600000Y-95862500D02*
X126600000Y-96337500D01*
G75*
G02*
X126362500Y-96575000I-237500J0D01*
G01*
X125762500Y-96575000D01*
G75*
G02*
X125525000Y-96337500I0J237500D01*
G01*
X125525000Y-95862500D01*
G75*
G02*
X125762500Y-95625000I237500J0D01*
G01*
X126362500Y-95625000D01*
G75*
G02*
X126600000Y-95862500I0J-237500D01*
G01*
G37*
G36*
G01*
X124875000Y-95862500D02*
X124875000Y-96337500D01*
G75*
G02*
X124637500Y-96575000I-237500J0D01*
G01*
X124037500Y-96575000D01*
G75*
G02*
X123800000Y-96337500I0J237500D01*
G01*
X123800000Y-95862500D01*
G75*
G02*
X124037500Y-95625000I237500J0D01*
G01*
X124637500Y-95625000D01*
G75*
G02*
X124875000Y-95862500I0J-237500D01*
G01*
G37*
%TD*%
%TO.C,C602*%
G36*
G01*
X124875000Y-97562500D02*
X124875000Y-98037500D01*
G75*
G02*
X124637500Y-98275000I-237500J0D01*
G01*
X124037500Y-98275000D01*
G75*
G02*
X123800000Y-98037500I0J237500D01*
G01*
X123800000Y-97562500D01*
G75*
G02*
X124037500Y-97325000I237500J0D01*
G01*
X124637500Y-97325000D01*
G75*
G02*
X124875000Y-97562500I0J-237500D01*
G01*
G37*
G36*
G01*
X126600000Y-97562500D02*
X126600000Y-98037500D01*
G75*
G02*
X126362500Y-98275000I-237500J0D01*
G01*
X125762500Y-98275000D01*
G75*
G02*
X125525000Y-98037500I0J237500D01*
G01*
X125525000Y-97562500D01*
G75*
G02*
X125762500Y-97325000I237500J0D01*
G01*
X126362500Y-97325000D01*
G75*
G02*
X126600000Y-97562500I0J-237500D01*
G01*
G37*
%TD*%
D20*
%TO.C,D201*%
X102500000Y-86600000D03*
X102500000Y-90600000D03*
%TD*%
%TO.C,D202*%
G36*
G01*
X178037500Y-118240000D02*
X177562500Y-118240000D01*
G75*
G02*
X177325000Y-118002500I0J237500D01*
G01*
X177325000Y-117427500D01*
G75*
G02*
X177562500Y-117190000I237500J0D01*
G01*
X178037500Y-117190000D01*
G75*
G02*
X178275000Y-117427500I0J-237500D01*
G01*
X178275000Y-118002500D01*
G75*
G02*
X178037500Y-118240000I-237500J0D01*
G01*
G37*
G36*
G01*
X178037500Y-116490000D02*
X177562500Y-116490000D01*
G75*
G02*
X177325000Y-116252500I0J237500D01*
G01*
X177325000Y-115677500D01*
G75*
G02*
X177562500Y-115440000I237500J0D01*
G01*
X178037500Y-115440000D01*
G75*
G02*
X178275000Y-115677500I0J-237500D01*
G01*
X178275000Y-116252500D01*
G75*
G02*
X178037500Y-116490000I-237500J0D01*
G01*
G37*
%TD*%
%TO.C,D301*%
G36*
G01*
X190229500Y-116490000D02*
X189754500Y-116490000D01*
G75*
G02*
X189517000Y-116252500I0J237500D01*
G01*
X189517000Y-115677500D01*
G75*
G02*
X189754500Y-115440000I237500J0D01*
G01*
X190229500Y-115440000D01*
G75*
G02*
X190467000Y-115677500I0J-237500D01*
G01*
X190467000Y-116252500D01*
G75*
G02*
X190229500Y-116490000I-237500J0D01*
G01*
G37*
G36*
G01*
X190229500Y-118240000D02*
X189754500Y-118240000D01*
G75*
G02*
X189517000Y-118002500I0J237500D01*
G01*
X189517000Y-117427500D01*
G75*
G02*
X189754500Y-117190000I237500J0D01*
G01*
X190229500Y-117190000D01*
G75*
G02*
X190467000Y-117427500I0J-237500D01*
G01*
X190467000Y-118002500D01*
G75*
G02*
X190229500Y-118240000I-237500J0D01*
G01*
G37*
%TD*%
D21*
%TO.C,D302*%
X195614000Y-106934000D03*
X193514000Y-106934000D03*
%TD*%
%TO.C,D401*%
G36*
G01*
X187181500Y-118240000D02*
X186706500Y-118240000D01*
G75*
G02*
X186469000Y-118002500I0J237500D01*
G01*
X186469000Y-117427500D01*
G75*
G02*
X186706500Y-117190000I237500J0D01*
G01*
X187181500Y-117190000D01*
G75*
G02*
X187419000Y-117427500I0J-237500D01*
G01*
X187419000Y-118002500D01*
G75*
G02*
X187181500Y-118240000I-237500J0D01*
G01*
G37*
G36*
G01*
X187181500Y-116490000D02*
X186706500Y-116490000D01*
G75*
G02*
X186469000Y-116252500I0J237500D01*
G01*
X186469000Y-115677500D01*
G75*
G02*
X186706500Y-115440000I237500J0D01*
G01*
X187181500Y-115440000D01*
G75*
G02*
X187419000Y-115677500I0J-237500D01*
G01*
X187419000Y-116252500D01*
G75*
G02*
X187181500Y-116490000I-237500J0D01*
G01*
G37*
%TD*%
%TO.C,D402*%
X193514000Y-109474000D03*
X195614000Y-109474000D03*
%TD*%
%TO.C,D601*%
G36*
G01*
X181085500Y-118240000D02*
X180610500Y-118240000D01*
G75*
G02*
X180373000Y-118002500I0J237500D01*
G01*
X180373000Y-117427500D01*
G75*
G02*
X180610500Y-117190000I237500J0D01*
G01*
X181085500Y-117190000D01*
G75*
G02*
X181323000Y-117427500I0J-237500D01*
G01*
X181323000Y-118002500D01*
G75*
G02*
X181085500Y-118240000I-237500J0D01*
G01*
G37*
G36*
G01*
X181085500Y-116490000D02*
X180610500Y-116490000D01*
G75*
G02*
X180373000Y-116252500I0J237500D01*
G01*
X180373000Y-115677500D01*
G75*
G02*
X180610500Y-115440000I237500J0D01*
G01*
X181085500Y-115440000D01*
G75*
G02*
X181323000Y-115677500I0J-237500D01*
G01*
X181323000Y-116252500D01*
G75*
G02*
X181085500Y-116490000I-237500J0D01*
G01*
G37*
%TD*%
%TO.C,D602*%
G36*
G01*
X184133500Y-116490000D02*
X183658500Y-116490000D01*
G75*
G02*
X183421000Y-116252500I0J237500D01*
G01*
X183421000Y-115677500D01*
G75*
G02*
X183658500Y-115440000I237500J0D01*
G01*
X184133500Y-115440000D01*
G75*
G02*
X184371000Y-115677500I0J-237500D01*
G01*
X184371000Y-116252500D01*
G75*
G02*
X184133500Y-116490000I-237500J0D01*
G01*
G37*
G36*
G01*
X184133500Y-118240000D02*
X183658500Y-118240000D01*
G75*
G02*
X183421000Y-118002500I0J237500D01*
G01*
X183421000Y-117427500D01*
G75*
G02*
X183658500Y-117190000I237500J0D01*
G01*
X184133500Y-117190000D01*
G75*
G02*
X184371000Y-117427500I0J-237500D01*
G01*
X184371000Y-118002500D01*
G75*
G02*
X184133500Y-118240000I-237500J0D01*
G01*
G37*
%TD*%
D13*
%TO.C,J101*%
X120000000Y-110700000D03*
D14*
X120000000Y-108160000D03*
X120000000Y-105620000D03*
X120000000Y-103080000D03*
X120000000Y-100540000D03*
X120000000Y-98000000D03*
%TD*%
%TO.C,J102*%
X160000000Y-113120000D03*
X160000000Y-110580000D03*
X160000000Y-108040000D03*
D13*
X160000000Y-105500000D03*
%TD*%
D22*
%TO.C,J201*%
X108000000Y-83250000D03*
G36*
G01*
X107000000Y-75750000D02*
X109000000Y-75750000D01*
G75*
G02*
X109750000Y-76500000I0J-750000D01*
G01*
X109750000Y-78000000D01*
G75*
G02*
X109000000Y-78750000I-750000J0D01*
G01*
X107000000Y-78750000D01*
G75*
G02*
X106250000Y-78000000I0J750000D01*
G01*
X106250000Y-76500000D01*
G75*
G02*
X107000000Y-75750000I750000J0D01*
G01*
G37*
G36*
G01*
X102425000Y-78500000D02*
X104175000Y-78500000D01*
G75*
G02*
X105050000Y-79375000I0J-875000D01*
G01*
X105050000Y-81125000D01*
G75*
G02*
X104175000Y-82000000I-875000J0D01*
G01*
X102425000Y-82000000D01*
G75*
G02*
X101550000Y-81125000I0J875000D01*
G01*
X101550000Y-79375000D01*
G75*
G02*
X102425000Y-78500000I875000J0D01*
G01*
G37*
%TD*%
D23*
%TO.C,J202*%
X117000000Y-72012500D03*
D24*
X120500000Y-74712500D03*
D25*
X118650000Y-74712500D03*
X119300000Y-74712500D03*
X116700000Y-74712500D03*
X117350000Y-74712500D03*
X118000000Y-74712500D03*
D24*
X115500000Y-74712500D03*
D23*
X119000000Y-72012500D03*
D26*
X121500000Y-72012500D03*
X114500000Y-72012500D03*
D27*
X115100000Y-72012500D03*
X120900000Y-72012500D03*
%TD*%
D13*
%TO.C,J203*%
X111850000Y-89150000D03*
D14*
X114390000Y-89150000D03*
%TD*%
D19*
%TO.C,J301*%
X180010000Y-74510000D03*
D12*
X185090000Y-74510000D03*
X190170000Y-74510000D03*
%TD*%
%TO.C,J502*%
G36*
G01*
X146646000Y-75196000D02*
X146646000Y-76696000D01*
G75*
G02*
X146396000Y-76946000I-250000J0D01*
G01*
X145196000Y-76946000D01*
G75*
G02*
X144946000Y-76696000I0J250000D01*
G01*
X144946000Y-75196000D01*
G75*
G02*
X145196000Y-74946000I250000J0D01*
G01*
X146396000Y-74946000D01*
G75*
G02*
X146646000Y-75196000I0J-250000D01*
G01*
G37*
D15*
X143296000Y-75946000D03*
%TD*%
%TO.C,J701*%
G36*
G01*
X137756000Y-75196000D02*
X137756000Y-76696000D01*
G75*
G02*
X137506000Y-76946000I-250000J0D01*
G01*
X136306000Y-76946000D01*
G75*
G02*
X136056000Y-76696000I0J250000D01*
G01*
X136056000Y-75196000D01*
G75*
G02*
X136306000Y-74946000I250000J0D01*
G01*
X137506000Y-74946000D01*
G75*
G02*
X137756000Y-75196000I0J-250000D01*
G01*
G37*
X134406000Y-75946000D03*
%TD*%
%TO.C,J702*%
X125770000Y-75946000D03*
G36*
G01*
X129120000Y-75196000D02*
X129120000Y-76696000D01*
G75*
G02*
X128870000Y-76946000I-250000J0D01*
G01*
X127670000Y-76946000D01*
G75*
G02*
X127420000Y-76696000I0J250000D01*
G01*
X127420000Y-75196000D01*
G75*
G02*
X127670000Y-74946000I250000J0D01*
G01*
X128870000Y-74946000D01*
G75*
G02*
X129120000Y-75196000I0J-250000D01*
G01*
G37*
%TD*%
D28*
%TO.C,Q301*%
X191404000Y-108220000D03*
X190104000Y-108220000D03*
X190754000Y-110220000D03*
%TD*%
%TO.C,Q401*%
X187452000Y-110220000D03*
X186802000Y-108220000D03*
X188102000Y-108220000D03*
%TD*%
D29*
%TO.C,Q801*%
X151926000Y-83440000D03*
X151926000Y-81540000D03*
X149926000Y-82490000D03*
%TD*%
%TO.C,R301*%
G36*
G01*
X185042000Y-109744500D02*
X185042000Y-110219500D01*
G75*
G02*
X184804500Y-110457000I-237500J0D01*
G01*
X184304500Y-110457000D01*
G75*
G02*
X184067000Y-110219500I0J237500D01*
G01*
X184067000Y-109744500D01*
G75*
G02*
X184304500Y-109507000I237500J0D01*
G01*
X184804500Y-109507000D01*
G75*
G02*
X185042000Y-109744500I0J-237500D01*
G01*
G37*
G36*
G01*
X183217000Y-109744500D02*
X183217000Y-110219500D01*
G75*
G02*
X182979500Y-110457000I-237500J0D01*
G01*
X182479500Y-110457000D01*
G75*
G02*
X182242000Y-110219500I0J237500D01*
G01*
X182242000Y-109744500D01*
G75*
G02*
X182479500Y-109507000I237500J0D01*
G01*
X182979500Y-109507000D01*
G75*
G02*
X183217000Y-109744500I0J-237500D01*
G01*
G37*
%TD*%
%TO.C,R302*%
G36*
G01*
X189754500Y-111884000D02*
X190229500Y-111884000D01*
G75*
G02*
X190467000Y-112121500I0J-237500D01*
G01*
X190467000Y-112621500D01*
G75*
G02*
X190229500Y-112859000I-237500J0D01*
G01*
X189754500Y-112859000D01*
G75*
G02*
X189517000Y-112621500I0J237500D01*
G01*
X189517000Y-112121500D01*
G75*
G02*
X189754500Y-111884000I237500J0D01*
G01*
G37*
G36*
G01*
X189754500Y-113709000D02*
X190229500Y-113709000D01*
G75*
G02*
X190467000Y-113946500I0J-237500D01*
G01*
X190467000Y-114446500D01*
G75*
G02*
X190229500Y-114684000I-237500J0D01*
G01*
X189754500Y-114684000D01*
G75*
G02*
X189517000Y-114446500I0J237500D01*
G01*
X189517000Y-113946500D01*
G75*
G02*
X189754500Y-113709000I237500J0D01*
G01*
G37*
%TD*%
%TO.C,R401*%
G36*
G01*
X183217000Y-107966500D02*
X183217000Y-108441500D01*
G75*
G02*
X182979500Y-108679000I-237500J0D01*
G01*
X182479500Y-108679000D01*
G75*
G02*
X182242000Y-108441500I0J237500D01*
G01*
X182242000Y-107966500D01*
G75*
G02*
X182479500Y-107729000I237500J0D01*
G01*
X182979500Y-107729000D01*
G75*
G02*
X183217000Y-107966500I0J-237500D01*
G01*
G37*
G36*
G01*
X185042000Y-107966500D02*
X185042000Y-108441500D01*
G75*
G02*
X184804500Y-108679000I-237500J0D01*
G01*
X184304500Y-108679000D01*
G75*
G02*
X184067000Y-108441500I0J237500D01*
G01*
X184067000Y-107966500D01*
G75*
G02*
X184304500Y-107729000I237500J0D01*
G01*
X184804500Y-107729000D01*
G75*
G02*
X185042000Y-107966500I0J-237500D01*
G01*
G37*
%TD*%
%TO.C,R402*%
G36*
G01*
X186706500Y-113709000D02*
X187181500Y-113709000D01*
G75*
G02*
X187419000Y-113946500I0J-237500D01*
G01*
X187419000Y-114446500D01*
G75*
G02*
X187181500Y-114684000I-237500J0D01*
G01*
X186706500Y-114684000D01*
G75*
G02*
X186469000Y-114446500I0J237500D01*
G01*
X186469000Y-113946500D01*
G75*
G02*
X186706500Y-113709000I237500J0D01*
G01*
G37*
G36*
G01*
X186706500Y-111884000D02*
X187181500Y-111884000D01*
G75*
G02*
X187419000Y-112121500I0J-237500D01*
G01*
X187419000Y-112621500D01*
G75*
G02*
X187181500Y-112859000I-237500J0D01*
G01*
X186706500Y-112859000D01*
G75*
G02*
X186469000Y-112621500I0J237500D01*
G01*
X186469000Y-112121500D01*
G75*
G02*
X186706500Y-111884000I237500J0D01*
G01*
G37*
%TD*%
%TO.C,R501*%
G36*
G01*
X140445500Y-81974500D02*
X139970500Y-81974500D01*
G75*
G02*
X139733000Y-81737000I0J237500D01*
G01*
X139733000Y-81237000D01*
G75*
G02*
X139970500Y-80999500I237500J0D01*
G01*
X140445500Y-80999500D01*
G75*
G02*
X140683000Y-81237000I0J-237500D01*
G01*
X140683000Y-81737000D01*
G75*
G02*
X140445500Y-81974500I-237500J0D01*
G01*
G37*
G36*
G01*
X140445500Y-83799500D02*
X139970500Y-83799500D01*
G75*
G02*
X139733000Y-83562000I0J237500D01*
G01*
X139733000Y-83062000D01*
G75*
G02*
X139970500Y-82824500I237500J0D01*
G01*
X140445500Y-82824500D01*
G75*
G02*
X140683000Y-83062000I0J-237500D01*
G01*
X140683000Y-83562000D01*
G75*
G02*
X140445500Y-83799500I-237500J0D01*
G01*
G37*
%TD*%
%TO.C,R502*%
G36*
G01*
X143493500Y-83799500D02*
X143018500Y-83799500D01*
G75*
G02*
X142781000Y-83562000I0J237500D01*
G01*
X142781000Y-83062000D01*
G75*
G02*
X143018500Y-82824500I237500J0D01*
G01*
X143493500Y-82824500D01*
G75*
G02*
X143731000Y-83062000I0J-237500D01*
G01*
X143731000Y-83562000D01*
G75*
G02*
X143493500Y-83799500I-237500J0D01*
G01*
G37*
G36*
G01*
X143493500Y-81974500D02*
X143018500Y-81974500D01*
G75*
G02*
X142781000Y-81737000I0J237500D01*
G01*
X142781000Y-81237000D01*
G75*
G02*
X143018500Y-80999500I237500J0D01*
G01*
X143493500Y-80999500D01*
G75*
G02*
X143731000Y-81237000I0J-237500D01*
G01*
X143731000Y-81737000D01*
G75*
G02*
X143493500Y-81974500I-237500J0D01*
G01*
G37*
%TD*%
%TO.C,R601*%
G36*
G01*
X106625500Y-112674000D02*
X106150500Y-112674000D01*
G75*
G02*
X105913000Y-112436500I0J237500D01*
G01*
X105913000Y-111936500D01*
G75*
G02*
X106150500Y-111699000I237500J0D01*
G01*
X106625500Y-111699000D01*
G75*
G02*
X106863000Y-111936500I0J-237500D01*
G01*
X106863000Y-112436500D01*
G75*
G02*
X106625500Y-112674000I-237500J0D01*
G01*
G37*
G36*
G01*
X106625500Y-110849000D02*
X106150500Y-110849000D01*
G75*
G02*
X105913000Y-110611500I0J237500D01*
G01*
X105913000Y-110111500D01*
G75*
G02*
X106150500Y-109874000I237500J0D01*
G01*
X106625500Y-109874000D01*
G75*
G02*
X106863000Y-110111500I0J-237500D01*
G01*
X106863000Y-110611500D01*
G75*
G02*
X106625500Y-110849000I-237500J0D01*
G01*
G37*
%TD*%
%TO.C,R602*%
G36*
G01*
X104847500Y-110849000D02*
X104372500Y-110849000D01*
G75*
G02*
X104135000Y-110611500I0J237500D01*
G01*
X104135000Y-110111500D01*
G75*
G02*
X104372500Y-109874000I237500J0D01*
G01*
X104847500Y-109874000D01*
G75*
G02*
X105085000Y-110111500I0J-237500D01*
G01*
X105085000Y-110611500D01*
G75*
G02*
X104847500Y-110849000I-237500J0D01*
G01*
G37*
G36*
G01*
X104847500Y-112674000D02*
X104372500Y-112674000D01*
G75*
G02*
X104135000Y-112436500I0J237500D01*
G01*
X104135000Y-111936500D01*
G75*
G02*
X104372500Y-111699000I237500J0D01*
G01*
X104847500Y-111699000D01*
G75*
G02*
X105085000Y-111936500I0J-237500D01*
G01*
X105085000Y-112436500D01*
G75*
G02*
X104847500Y-112674000I-237500J0D01*
G01*
G37*
%TD*%
%TO.C,R603*%
G36*
G01*
X109706500Y-109874000D02*
X110181500Y-109874000D01*
G75*
G02*
X110419000Y-110111500I0J-237500D01*
G01*
X110419000Y-110611500D01*
G75*
G02*
X110181500Y-110849000I-237500J0D01*
G01*
X109706500Y-110849000D01*
G75*
G02*
X109469000Y-110611500I0J237500D01*
G01*
X109469000Y-110111500D01*
G75*
G02*
X109706500Y-109874000I237500J0D01*
G01*
G37*
G36*
G01*
X109706500Y-111699000D02*
X110181500Y-111699000D01*
G75*
G02*
X110419000Y-111936500I0J-237500D01*
G01*
X110419000Y-112436500D01*
G75*
G02*
X110181500Y-112674000I-237500J0D01*
G01*
X109706500Y-112674000D01*
G75*
G02*
X109469000Y-112436500I0J237500D01*
G01*
X109469000Y-111936500D01*
G75*
G02*
X109706500Y-111699000I237500J0D01*
G01*
G37*
%TD*%
%TO.C,R604*%
G36*
G01*
X181085500Y-112859000D02*
X180610500Y-112859000D01*
G75*
G02*
X180373000Y-112621500I0J237500D01*
G01*
X180373000Y-112121500D01*
G75*
G02*
X180610500Y-111884000I237500J0D01*
G01*
X181085500Y-111884000D01*
G75*
G02*
X181323000Y-112121500I0J-237500D01*
G01*
X181323000Y-112621500D01*
G75*
G02*
X181085500Y-112859000I-237500J0D01*
G01*
G37*
G36*
G01*
X181085500Y-114684000D02*
X180610500Y-114684000D01*
G75*
G02*
X180373000Y-114446500I0J237500D01*
G01*
X180373000Y-113946500D01*
G75*
G02*
X180610500Y-113709000I237500J0D01*
G01*
X181085500Y-113709000D01*
G75*
G02*
X181323000Y-113946500I0J-237500D01*
G01*
X181323000Y-114446500D01*
G75*
G02*
X181085500Y-114684000I-237500J0D01*
G01*
G37*
%TD*%
%TO.C,R605*%
G36*
G01*
X107928500Y-111699000D02*
X108403500Y-111699000D01*
G75*
G02*
X108641000Y-111936500I0J-237500D01*
G01*
X108641000Y-112436500D01*
G75*
G02*
X108403500Y-112674000I-237500J0D01*
G01*
X107928500Y-112674000D01*
G75*
G02*
X107691000Y-112436500I0J237500D01*
G01*
X107691000Y-111936500D01*
G75*
G02*
X107928500Y-111699000I237500J0D01*
G01*
G37*
G36*
G01*
X107928500Y-109874000D02*
X108403500Y-109874000D01*
G75*
G02*
X108641000Y-110111500I0J-237500D01*
G01*
X108641000Y-110611500D01*
G75*
G02*
X108403500Y-110849000I-237500J0D01*
G01*
X107928500Y-110849000D01*
G75*
G02*
X107691000Y-110611500I0J237500D01*
G01*
X107691000Y-110111500D01*
G75*
G02*
X107928500Y-109874000I237500J0D01*
G01*
G37*
%TD*%
%TO.C,R606*%
G36*
G01*
X111484500Y-111699000D02*
X111959500Y-111699000D01*
G75*
G02*
X112197000Y-111936500I0J-237500D01*
G01*
X112197000Y-112436500D01*
G75*
G02*
X111959500Y-112674000I-237500J0D01*
G01*
X111484500Y-112674000D01*
G75*
G02*
X111247000Y-112436500I0J237500D01*
G01*
X111247000Y-111936500D01*
G75*
G02*
X111484500Y-111699000I237500J0D01*
G01*
G37*
G36*
G01*
X111484500Y-109874000D02*
X111959500Y-109874000D01*
G75*
G02*
X112197000Y-110111500I0J-237500D01*
G01*
X112197000Y-110611500D01*
G75*
G02*
X111959500Y-110849000I-237500J0D01*
G01*
X111484500Y-110849000D01*
G75*
G02*
X111247000Y-110611500I0J237500D01*
G01*
X111247000Y-110111500D01*
G75*
G02*
X111484500Y-109874000I237500J0D01*
G01*
G37*
%TD*%
%TO.C,R607*%
G36*
G01*
X184133500Y-114684000D02*
X183658500Y-114684000D01*
G75*
G02*
X183421000Y-114446500I0J237500D01*
G01*
X183421000Y-113946500D01*
G75*
G02*
X183658500Y-113709000I237500J0D01*
G01*
X184133500Y-113709000D01*
G75*
G02*
X184371000Y-113946500I0J-237500D01*
G01*
X184371000Y-114446500D01*
G75*
G02*
X184133500Y-114684000I-237500J0D01*
G01*
G37*
G36*
G01*
X184133500Y-112859000D02*
X183658500Y-112859000D01*
G75*
G02*
X183421000Y-112621500I0J237500D01*
G01*
X183421000Y-112121500D01*
G75*
G02*
X183658500Y-111884000I237500J0D01*
G01*
X184133500Y-111884000D01*
G75*
G02*
X184371000Y-112121500I0J-237500D01*
G01*
X184371000Y-112621500D01*
G75*
G02*
X184133500Y-112859000I-237500J0D01*
G01*
G37*
%TD*%
%TO.C,R701*%
G36*
G01*
X136922500Y-80896000D02*
X137397500Y-80896000D01*
G75*
G02*
X137635000Y-81133500I0J-237500D01*
G01*
X137635000Y-81633500D01*
G75*
G02*
X137397500Y-81871000I-237500J0D01*
G01*
X136922500Y-81871000D01*
G75*
G02*
X136685000Y-81633500I0J237500D01*
G01*
X136685000Y-81133500D01*
G75*
G02*
X136922500Y-80896000I237500J0D01*
G01*
G37*
G36*
G01*
X136922500Y-82721000D02*
X137397500Y-82721000D01*
G75*
G02*
X137635000Y-82958500I0J-237500D01*
G01*
X137635000Y-83458500D01*
G75*
G02*
X137397500Y-83696000I-237500J0D01*
G01*
X136922500Y-83696000D01*
G75*
G02*
X136685000Y-83458500I0J237500D01*
G01*
X136685000Y-82958500D01*
G75*
G02*
X136922500Y-82721000I237500J0D01*
G01*
G37*
%TD*%
%TO.C,R702*%
G36*
G01*
X133874500Y-80896000D02*
X134349500Y-80896000D01*
G75*
G02*
X134587000Y-81133500I0J-237500D01*
G01*
X134587000Y-81633500D01*
G75*
G02*
X134349500Y-81871000I-237500J0D01*
G01*
X133874500Y-81871000D01*
G75*
G02*
X133637000Y-81633500I0J237500D01*
G01*
X133637000Y-81133500D01*
G75*
G02*
X133874500Y-80896000I237500J0D01*
G01*
G37*
G36*
G01*
X133874500Y-82721000D02*
X134349500Y-82721000D01*
G75*
G02*
X134587000Y-82958500I0J-237500D01*
G01*
X134587000Y-83458500D01*
G75*
G02*
X134349500Y-83696000I-237500J0D01*
G01*
X133874500Y-83696000D01*
G75*
G02*
X133637000Y-83458500I0J237500D01*
G01*
X133637000Y-82958500D01*
G75*
G02*
X133874500Y-82721000I237500J0D01*
G01*
G37*
%TD*%
%TO.C,R703*%
G36*
G01*
X130826500Y-82721000D02*
X131301500Y-82721000D01*
G75*
G02*
X131539000Y-82958500I0J-237500D01*
G01*
X131539000Y-83458500D01*
G75*
G02*
X131301500Y-83696000I-237500J0D01*
G01*
X130826500Y-83696000D01*
G75*
G02*
X130589000Y-83458500I0J237500D01*
G01*
X130589000Y-82958500D01*
G75*
G02*
X130826500Y-82721000I237500J0D01*
G01*
G37*
G36*
G01*
X130826500Y-80896000D02*
X131301500Y-80896000D01*
G75*
G02*
X131539000Y-81133500I0J-237500D01*
G01*
X131539000Y-81633500D01*
G75*
G02*
X131301500Y-81871000I-237500J0D01*
G01*
X130826500Y-81871000D01*
G75*
G02*
X130589000Y-81633500I0J237500D01*
G01*
X130589000Y-81133500D01*
G75*
G02*
X130826500Y-80896000I237500J0D01*
G01*
G37*
%TD*%
%TO.C,R801*%
G36*
G01*
X153957500Y-83890000D02*
X153482500Y-83890000D01*
G75*
G02*
X153245000Y-83652500I0J237500D01*
G01*
X153245000Y-83152500D01*
G75*
G02*
X153482500Y-82915000I237500J0D01*
G01*
X153957500Y-82915000D01*
G75*
G02*
X154195000Y-83152500I0J-237500D01*
G01*
X154195000Y-83652500D01*
G75*
G02*
X153957500Y-83890000I-237500J0D01*
G01*
G37*
G36*
G01*
X153957500Y-82065000D02*
X153482500Y-82065000D01*
G75*
G02*
X153245000Y-81827500I0J237500D01*
G01*
X153245000Y-81327500D01*
G75*
G02*
X153482500Y-81090000I237500J0D01*
G01*
X153957500Y-81090000D01*
G75*
G02*
X154195000Y-81327500I0J-237500D01*
G01*
X154195000Y-81827500D01*
G75*
G02*
X153957500Y-82065000I-237500J0D01*
G01*
G37*
%TD*%
%TO.C,R802*%
G36*
G01*
X148369500Y-82065000D02*
X147894500Y-82065000D01*
G75*
G02*
X147657000Y-81827500I0J237500D01*
G01*
X147657000Y-81327500D01*
G75*
G02*
X147894500Y-81090000I237500J0D01*
G01*
X148369500Y-81090000D01*
G75*
G02*
X148607000Y-81327500I0J-237500D01*
G01*
X148607000Y-81827500D01*
G75*
G02*
X148369500Y-82065000I-237500J0D01*
G01*
G37*
G36*
G01*
X148369500Y-83890000D02*
X147894500Y-83890000D01*
G75*
G02*
X147657000Y-83652500I0J237500D01*
G01*
X147657000Y-83152500D01*
G75*
G02*
X147894500Y-82915000I237500J0D01*
G01*
X148369500Y-82915000D01*
G75*
G02*
X148607000Y-83152500I0J-237500D01*
G01*
X148607000Y-83652500D01*
G75*
G02*
X148369500Y-83890000I-237500J0D01*
G01*
G37*
%TD*%
D30*
%TO.C,SW601*%
X113300000Y-115500000D03*
X118700000Y-115500000D03*
%TD*%
%TO.C,SW602*%
X110200000Y-115500000D03*
X104800000Y-115500000D03*
%TD*%
D31*
%TO.C,TP201*%
X128270000Y-82296000D03*
%TD*%
%TO.C,TP202*%
X102500000Y-95500000D03*
%TD*%
%TO.C,TP203*%
X128250000Y-90678000D03*
%TD*%
%TO.C,TP204*%
X128270000Y-86360000D03*
%TD*%
%TO.C,TP301*%
X179324000Y-110236000D03*
%TD*%
%TO.C,TP401*%
X179324000Y-107442000D03*
%TD*%
%TO.C,TP701*%
X131318000Y-86360000D03*
%TD*%
D32*
%TO.C,U201*%
X125324000Y-91186000D03*
D33*
X119024000Y-91186000D03*
X119024000Y-93486000D03*
X119024000Y-88886000D03*
%TD*%
D34*
%TO.C,U202*%
X105750000Y-103200000D03*
X104800000Y-103200000D03*
X103850000Y-103200000D03*
X103850000Y-105400000D03*
X105750000Y-105400000D03*
X104800000Y-105400000D03*
%TD*%
M02*
