M48
; DRILL file {KiCad 5.1.9-73d0e3b20d~88~ubuntu18.04.1} date Wed Mar 24 04:21:52 2021
; FORMAT={-:-/ absolute / inch / decimal}
; #@! TF.CreationDate,2021-03-24T04:21:52+02:00
; #@! TF.GenerationSoftware,Kicad,Pcbnew,5.1.9-73d0e3b20d~88~ubuntu18.04.1
; #@! TF.FileFunction,Plated,1,2,PTH
FMAT,2
INCH
T1C0.0157
T2C0.0236
T3C0.0335
T4C0.0394
T5C0.0512
T6C0.0598
T7C0.0866
%
G90
G05
T1
X3.8661Y-3.9
X3.8661Y-3.9902
X3.8681Y-3.9409
X3.874Y-4.0374
X3.876Y-4.0768
X3.878Y-4.1142
X3.878Y-4.4567
X3.89Y-3.84
X3.8917Y-2.8937
X3.8917Y-4.5669
X3.9108Y-2.8478
X3.9108Y-2.9396
X3.9108Y-4.521
X3.9108Y-4.6129
X3.9232Y-4.0374
X3.9232Y-4.0787
X3.93Y-3.8
X3.9567Y-2.8287
X3.9567Y-2.9587
X3.9567Y-4.502
X3.9567Y-4.6319
X3.9882Y-3.6496
X3.9921Y-3.3248
X3.9961Y-4.0315
X3.9961Y-4.0709
X4.0026Y-2.8478
X4.0026Y-2.9396
X4.0026Y-4.521
X4.0026Y-4.6129
X4.0157Y-4.4587
X4.0217Y-2.8937
X4.0217Y-4.5669
X4.0295Y-3.3248
X4.0354Y-3.6496
X4.0354Y-4.0315
X4.0354Y-4.0709
X4.0571Y-4.4606
X4.0709Y-3.3248
X4.0709Y-4.3839
X4.0709Y-4.4252
X4.0768Y-4.3268
X4.0787Y-4.2008
X4.0827Y-3.6496
X4.1043Y-2.9035
X4.1043Y-2.9429
X4.1043Y-3.0217
X4.1043Y-3.061
X4.1122Y-3.3268
X4.1122Y-3.3642
X4.1122Y-3.3996
X4.126Y-3.7008
X4.126Y-3.8996
X4.126Y-4.0118
X4.126Y-4.1024
X4.1319Y-4.2539
X4.1339Y-3.4449
X4.1437Y-2.9035
X4.1437Y-2.9429
X4.1496Y-3.3819
X4.1634Y-3.7008
X4.1634Y-3.8996
X4.1713Y-4.2106
X4.1732Y-3.4449
X4.1791Y-3.998
X4.1831Y-2.9035
X4.1831Y-2.9429
X4.1929Y-3.3819
X4.1949Y-4.2894
X4.2008Y-3.7008
X4.2008Y-3.8996
X4.2028Y-4.5276
X4.2028Y-4.5669
X4.2126Y-3.4449
X4.2185Y-3.998
X4.2185Y-4.0335
X4.2185Y-4.0709
X4.2185Y-4.1083
X4.2323Y-2.9035
X4.2323Y-2.9429
X4.2362Y-3.3819
X4.2382Y-3.7008
X4.2382Y-3.9016
X4.2382Y-4.2402
X4.2402Y-4.2776
X4.2421Y-4.5276
X4.2421Y-4.5669
X4.252Y-3.4449
X4.2579Y-3.998
X4.2589Y-4.0335
X4.2598Y-4.0699
X4.2598Y-4.1073
X4.2756Y-3.3819
X4.2815Y-2.9035
X4.2815Y-2.9429
X4.2815Y-4.2756
X4.2913Y-3.4449
X4.2913Y-3.4843
X4.2913Y-3.5236
X4.3Y-4.18
X4.3Y-4.22
X4.3189Y-3.3819
X4.3307Y-2.9035
X4.3307Y-2.9429
X4.34Y-4.14
X4.3701Y-2.9035
X4.3701Y-2.9429
X4.3799Y-3.3465
X4.38Y-4.14
X4.3996Y-3.376
X4.3996Y-3.4154
X4.4094Y-2.9035
X4.4094Y-2.9429
X4.4094Y-2.9921
X4.4094Y-3.0413
X4.4094Y-3.0906
X4.4094Y-3.1398
X4.4094Y-3.189
X4.4094Y-3.2382
X4.4094Y-3.2874
X4.4193Y-3.3465
X4.42Y-4.14
X4.439Y-3.376
X4.4587Y-3.3465
X4.4587Y-4.3406
X4.4587Y-4.3799
X4.4587Y-4.4193
X4.4685Y-3.0413
X4.4685Y-3.1004
X4.4783Y-3.376
X4.48Y-4.14
X4.4882Y-3.0118
X4.4882Y-3.0709
X4.4882Y-3.1299
X4.498Y-4.3406
X4.498Y-4.3799
X4.498Y-4.4193
X4.5079Y-3.0413
X4.5079Y-3.1004
X4.52Y-4.14
X4.5276Y-3.0118
X4.5276Y-3.0709
X4.53Y-3.13
X4.53Y-3.17
X4.53Y-3.21
X4.53Y-3.25
X4.5374Y-4.3406
X4.5374Y-4.3799
X4.5374Y-4.4193
X4.5374Y-4.5276
X4.5374Y-4.5669
X4.5472Y-3.0413
X4.56Y-4.14
X4.5669Y-3.0118
X4.5669Y-3.0709
X4.57Y-3.25
X4.5768Y-4.3406
X4.5768Y-4.3799
X4.5768Y-4.4193
X4.5768Y-4.5276
X4.5768Y-4.5669
X4.58Y-3.43
X4.58Y-3.49
X4.5866Y-3.0413
X4.59Y-4.18
X4.59Y-4.22
X4.5963Y-3.5637
X4.6063Y-3.0118
X4.6063Y-3.0709
X4.61Y-3.25
X4.6161Y-3.7598
X4.6161Y-3.8189
X4.6161Y-3.878
X4.6161Y-3.937
X4.6161Y-3.9961
X4.6161Y-4.3406
X4.6161Y-4.3799
X4.6161Y-4.4193
X4.626Y-3.0413
X4.6457Y-3.0118
X4.6457Y-3.0709
X4.65Y-3.13
X4.65Y-3.17
X4.65Y-3.21
X4.65Y-3.25
X4.6654Y-3.1004
X4.67Y-3.39
X4.67Y-3.43
X4.685Y-3.1299
X4.71Y-3.39
X4.71Y-3.43
X4.7343Y-3.0118
X4.7343Y-3.0512
X4.75Y-3.39
X4.75Y-3.43
X4.75Y-3.47
X4.75Y-3.51
X4.75Y-3.55
X4.75Y-3.59
X4.7539Y-3.0906
X4.7638Y-4.6161
X4.7736Y-3.0118
X4.7736Y-3.0512
X4.7933Y-3.0906
X4.8031Y-4.0453
X4.8031Y-4.1142
X4.8031Y-4.1929
X4.8031Y-4.2421
X4.8031Y-4.2913
X4.8031Y-4.5768
X4.81Y-3.13
X4.81Y-3.17
X4.81Y-3.21
X4.81Y-3.25
X4.813Y-3.0118
X4.813Y-3.0512
X4.8189Y-3.8031
X4.8189Y-3.8819
X4.8228Y-4.6358
X4.8307Y-3.9291
X4.8346Y-3.9764
X4.8386Y-3.7598
X4.8386Y-3.8425
X4.8425Y-4.5374
X4.8461Y-4.289
X4.85Y-3.25
X4.8524Y-4.0453
X4.8524Y-4.1142
X4.8524Y-4.1929
X4.8524Y-4.2421
X4.8622Y-4.5866
X4.8661Y-3.9449
X4.8819Y-4.498
X4.8898Y-3.9094
X4.89Y-3.25
X4.8917Y-4.6457
X4.9114Y-4.5374
X4.9213Y-4.0453
X4.9213Y-4.4587
X4.9272Y-4.1992
X4.93Y-3.13
X4.93Y-3.17
X4.93Y-3.21
X4.93Y-3.25
X4.9311Y-4.5965
X4.9366Y-4.1177
X4.948Y-3.9197
X4.95Y-3.4335
X4.952Y-3.976
X4.9606Y-4.4193
X4.9606Y-4.4882
X4.9606Y-4.6457
X4.97Y-3.3665
X4.9705Y-4.5571
X4.9803Y-4.0453
X4.9823Y-3.9465
X4.9907Y-4.2136
X4.9965Y-4.1157
X5.0Y-4.3307
X5.0Y-4.3799
X5.0Y-4.4488
X5.0Y-4.6063
X5.0098Y-3.1299
X5.0098Y-3.1693
X5.0098Y-4.5177
X5.0492Y-3.1299
X5.0492Y-3.1693
X5.0492Y-3.7106
X5.05Y-3.57
X5.0886Y-3.1791
X5.0984Y-3.4941
X5.1083Y-3.2087
X5.1181Y-3.248
X5.1181Y-3.5531
X5.1181Y-3.5925
X5.1181Y-3.6319
X5.1181Y-3.6713
X5.1772Y-3.9469
X5.1772Y-4.0354
X5.187Y-3.878
X5.2031Y-4.1205
X5.2067Y-3.9764
X5.2067Y-4.311
X5.2138Y-4.2291
X5.2165Y-3.7697
X5.2165Y-3.8386
X5.2165Y-4.0354
X5.2264Y-3.1201
X5.2362Y-3.376
X5.2362Y-3.5335
X5.2362Y-3.6417
X5.2362Y-3.878
X5.2362Y-3.9469
X5.2461Y-3.4252
X5.2461Y-3.4646
X5.2461Y-3.7992
X5.2559Y-4.311
X5.2657Y-3.1201
X5.2657Y-3.1594
X5.2657Y-3.5039
X5.2657Y-3.9764
X5.2657Y-4.0354
X5.272Y-4.1205
X5.2756Y-3.6417
X5.2756Y-3.7697
X5.2854Y-3.376
X5.2854Y-3.878
X5.2854Y-4.2028
X5.2953Y-3.4252
X5.2953Y-3.4744
X5.2953Y-3.9469
X5.3051Y-3.1201
X5.3051Y-3.1594
X5.3051Y-3.7992
X5.3051Y-4.311
X5.3122Y-4.2402
X5.315Y-3.6417
X5.3248Y-3.376
X5.3248Y-3.4449
X5.3248Y-3.5925
X5.3248Y-3.9764
X5.3346Y-3.7697
X5.3346Y-3.878
X5.3445Y-3.1201
X5.3445Y-3.1594
X5.3543Y-3.6417
X5.3543Y-4.311
X5.3626Y-4.1945
X5.3642Y-3.376
X5.3642Y-3.4154
X5.3642Y-3.5433
X5.3642Y-3.7992
X5.374Y-3.5925
X5.3839Y-3.878
X5.3937Y-3.6417
X5.3937Y-3.7697
X5.3937Y-4.0354
X5.3961Y-4.2394
X5.4035Y-3.5433
X5.4134Y-3.5925
X5.4134Y-4.311
X5.4232Y-3.4941
X5.4232Y-3.7992
X5.4331Y-3.1201
X5.4331Y-3.6417
X5.4343Y-4.1209
X5.4358Y-4.1945
X5.4429Y-3.5433
X5.4528Y-3.1496
X5.4528Y-3.5925
X5.4528Y-3.7697
X5.4528Y-3.9764
X5.4626Y-3.4941
X5.4724Y-3.1201
X5.4724Y-3.4547
X5.4724Y-3.6417
X5.4724Y-4.311
X5.4823Y-3.5433
X5.4921Y-3.5925
X5.4921Y-3.937
X5.4921Y-4.2717
X5.502Y-3.4252
X5.502Y-3.4941
X5.5118Y-3.6417
X5.5217Y-3.5433
X5.5315Y-3.3858
X5.5315Y-3.4547
X5.5315Y-3.5925
X5.5315Y-3.8976
X5.5315Y-4.311
X5.535Y-4.228
X5.5413Y-3.1201
X5.5512Y-4.1535
X5.561Y-3.4252
X5.5807Y-3.3858
X5.5906Y-4.2126
X5.5906Y-4.2618
X5.5906Y-4.311
X5.5966Y-4.0809
X5.6004Y-3.1496
X5.6004Y-3.4941
X5.6004Y-3.5433
X5.6004Y-3.5925
X5.6004Y-3.6319
X5.6102Y-3.9665
X5.6173Y-3.8028
X5.6413Y-3.3273
X5.6594Y-3.563
X5.6594Y-3.6024
X5.6594Y-3.6516
X5.6614Y-3.5118
X5.6957Y-3.6705
X5.7087Y-3.7106
X5.7382Y-3.563
X5.7382Y-3.6024
X5.7638Y-3.3031
X5.7677Y-3.061
X5.7756Y-3.2598
X5.7776Y-3.563
X5.7776Y-3.6024
X5.7776Y-3.6417
X5.7776Y-3.7598
X5.7819Y-3.8051
X5.7874Y-3.5157
X5.7972Y-3.1004
X5.8071Y-3.0217
X5.8071Y-3.6713
X5.8071Y-3.878
X5.8071Y-4.4685
X5.8071Y-4.5079
X5.8071Y-4.5571
X5.8071Y-4.6063
X5.8071Y-4.6555
X5.8169Y-2.9823
X5.8169Y-3.061
X5.8169Y-3.563
X5.8169Y-3.6024
X5.8358Y-3.8071
X5.8366Y-3.6417
X5.8366Y-3.7008
X5.8465Y-3.0217
X5.8465Y-3.1004
X5.8465Y-4.3602
X5.8563Y-3.563
X5.8563Y-3.6024
X5.8563Y-4.5079
X5.8563Y-4.5571
X5.8563Y-4.6063
X5.8563Y-4.6555
X5.8661Y-3.061
X5.8661Y-3.7303
X5.876Y-3.6811
X5.8858Y-3.6417
X5.8957Y-3.1004
X5.8957Y-3.563
X5.8957Y-3.6024
X5.8957Y-3.7598
X5.8957Y-4.6555
X5.9055Y-4.5571
X5.9055Y-4.6063
X5.9154Y-3.061
X5.9154Y-3.7205
X5.9154Y-3.7992
X5.9252Y-3.6417
X5.9252Y-3.6811
X5.9252Y-3.8484
X5.935Y-3.9075
X5.935Y-3.9764
X5.935Y-4.0453
X5.935Y-4.1043
X5.935Y-4.1535
X5.935Y-4.2028
X5.935Y-4.6555
X5.9449Y-3.1004
X5.9449Y-3.563
X5.9449Y-3.6024
X5.9449Y-3.7598
X5.9547Y-3.7205
X5.9547Y-3.7992
X5.9547Y-4.6063
X5.9646Y-3.6417
X5.9646Y-3.6811
X5.9646Y-3.8484
X5.9744Y-4.6555
X5.9764Y-3.3386
X5.9843Y-4.3898
X5.9843Y-3.563
X5.9843Y-3.6024
X5.9843Y-3.7598
X5.9843Y-3.9075
X5.9843Y-3.9764
X5.9843Y-4.0453
X5.9843Y-4.1043
X5.9843Y-4.1535
X5.9843Y-4.2028
X5.987Y-4.2551
X5.9941Y-3.1004
X5.9941Y-3.7205
X5.9941Y-3.7992
X5.9941Y-4.5768
X6.0039Y-3.6417
X6.0039Y-3.6811
X6.0039Y-4.4685
X6.0138Y-4.6555
X6.0236Y-3.563
X6.0236Y-3.6024
X6.0236Y-3.7598
X6.0335Y-3.7992
X6.0433Y-3.1004
X6.0433Y-3.7205
X6.0433Y-4.5079
X6.0531Y-3.6417
X6.0531Y-3.6811
X6.063Y-3.563
X6.063Y-3.6024
X6.0728Y-3.7598
X6.0728Y-4.5374
X6.0827Y-3.8484
X6.0925Y-3.1004
X6.1024Y-3.563
X6.1024Y-3.6024
X6.1024Y-3.6417
X6.1024Y-3.6811
X6.1024Y-3.7303
X6.1122Y-3.2972
X6.122Y-3.8189
X6.1319Y-3.8583
X6.1417Y-3.1004
X6.1417Y-3.1496
X6.1417Y-3.2087
X6.1417Y-3.2677
X6.1516Y-2.8346
X6.1516Y-2.8839
X6.1516Y-2.9331
X6.1516Y-2.9724
X6.1516Y-3.0118
X6.1516Y-3.0512
X6.1516Y-3.3071
X6.1575Y-3.4843
X6.1614Y-3.7894
X6.1614Y-3.8287
X6.1654Y-3.5236
X6.1713Y-3.2382
X6.1713Y-3.6024
X6.1713Y-3.6713
X6.1713Y-3.7303
X6.1811Y-3.1004
X6.1811Y-3.1791
X6.1811Y-3.2776
X6.1811Y-4.5866
X6.1913Y-4.3827
X6.2106Y-4.1717
X6.2303Y-4.5472
X6.3386Y-4.5866
X6.3878Y-4.5866
X6.4075Y-4.1535
X6.4075Y-4.1929
X6.4075Y-4.3406
X6.4075Y-4.3799
X6.4173Y-4.498
X6.437Y-4.5866
X6.4567Y-4.3602
X6.4567Y-4.3996
X6.4567Y-4.498
X6.4764Y-4.1535
X6.4764Y-4.1929
X6.4764Y-4.2323
X6.4764Y-4.2717
X6.4862Y-4.5866
X6.4961Y-4.498
X6.5354Y-4.2323
X6.5354Y-4.2717
X6.5354Y-4.311
X6.5354Y-4.5866
X6.5453Y-4.498
X6.5748Y-4.1535
X6.5945Y-4.2717
X6.5945Y-4.311
X6.5945Y-4.3504
X6.6437Y-4.1535
X6.6437Y-4.1929
X6.6437Y-4.311
X6.6437Y-4.3504
X6.6634Y-4.6555
X6.6929Y-4.311
X6.6929Y-4.3504
X6.7028Y-4.6161
X6.7028Y-4.6555
X6.7126Y-4.1535
X6.7126Y-4.1929
X6.7126Y-4.2323
X6.7421Y-4.311
X6.7421Y-4.5768
X6.7421Y-4.6161
X6.7421Y-4.6555
X6.7815Y-4.1535
X6.7815Y-4.1929
X6.7815Y-4.2323
X6.7815Y-4.5374
X6.7815Y-4.5768
X6.7815Y-4.6161
X6.7815Y-4.6555
X6.8209Y-4.498
X6.8209Y-4.5374
X6.8209Y-4.5768
X6.8209Y-4.6161
X6.8209Y-4.6555
X6.8406Y-4.3701
X6.8504Y-4.1535
X6.8504Y-4.1929
X6.8602Y-4.498
X6.8602Y-4.5374
X6.8602Y-4.5768
X6.8602Y-4.6161
X6.8602Y-4.6555
X6.8898Y-4.2815
X6.8996Y-4.3602
X6.8996Y-4.498
X6.8996Y-4.5374
X6.8996Y-4.5768
X6.8996Y-4.6161
X6.8996Y-4.6555
X6.9193Y-4.1535
X6.939Y-4.498
X6.939Y-4.5374
X7.0571Y-4.498
X7.0571Y-4.5374
X7.0571Y-4.5768
X7.126Y-4.2028
X7.1291Y-4.2957
X7.1555Y-4.1339
X7.1555Y-4.1732
X7.1827Y-4.3882
X7.185Y-4.2028
X7.185Y-4.498
X7.185Y-4.5374
X7.185Y-4.5768
X7.2146Y-4.1732
X7.2441Y-4.2028
X7.2736Y-4.1732
X7.2933Y-4.5374
X7.2933Y-4.5768
X7.3031Y-4.2028
X7.3031Y-4.4291
X7.3327Y-4.1732
X7.3622Y-4.2028
X7.3917Y-4.1732
X7.42Y-4.59
X7.4213Y-4.2028
X7.4508Y-4.1732
X7.4803Y-4.2028
X7.5098Y-4.1732
X7.5394Y-4.2028
X7.54Y-4.63
X7.5614Y-4.4843
X7.5717Y-4.6551
X7.5787Y-4.4094
X7.5925Y-4.5669
X7.6083Y-4.1339
X7.6115Y-4.521
X7.6115Y-4.6129
X7.624Y-4.4429
X7.6575Y-4.502
X7.6575Y-4.6319
X7.6638Y-4.1303
X7.6969Y-4.3701
X7.7034Y-4.521
X7.7034Y-4.6129
X7.7161Y-4.4406
X7.7224Y-4.5669
X7.7406Y-4.1295
T3
X4.5472Y-2.9414
X4.7441Y-2.9414
T4
X4.4035Y-3.5098
X4.5035Y-3.5098
X4.7244Y-3.8583
X4.7244Y-3.9583
X4.7244Y-4.0583
X4.7244Y-4.1583
X4.7244Y-4.2583
X4.7244Y-4.3583
X4.9516Y-2.99
X5.05Y-2.99
X5.2916Y-2.99
X5.39Y-2.99
X5.6416Y-2.99
X5.74Y-2.99
X5.8268Y-3.4094
X5.9268Y-3.4094
X5.9916Y-2.99
X6.0268Y-3.4094
X6.09Y-2.99
X6.122Y-3.9551
X6.122Y-4.0551
X6.122Y-4.1551
X6.122Y-4.2551
X6.1268Y-3.4094
X6.2992Y-4.1535
X6.2992Y-4.2535
X6.2992Y-4.3535
X6.2992Y-4.4535
T5
X6.3748Y-3.2992
X6.3748Y-3.7795
X6.611Y-3.8583
X6.8472Y-3.2992
X6.8472Y-3.7795
X7.0835Y-3.2992
X7.0835Y-3.7795
X7.3197Y-3.8583
X7.5559Y-3.2992
X7.5559Y-3.7795
T6
X6.4079Y-2.9335
X6.6079Y-2.9335
X6.8079Y-2.9335
X7.087Y-2.9335
X7.287Y-2.9335
X7.487Y-2.9335
T7
X3.9567Y-2.8937
X3.9567Y-4.5669
X7.6575Y-4.5669
X7.6772Y-2.874
T2
G00X4.5079Y-2.8489
M15
G01X4.5079Y-2.8214
M16
G05
G00X4.7835Y-2.8214
M15
G01X4.7835Y-2.8489
M16
G05
T4
G00X4.0669Y-3.1201
M15
G01X4.0669Y-3.1988
M16
G05
G00X4.2913Y-3.0413
M15
G01X4.2126Y-3.0413
M16
G05
G00X4.2913Y-3.2776
M15
G01X4.2126Y-3.2776
M16
G05
T0
M30
