%TF.GenerationSoftware,KiCad,Pcbnew,5.1.9-73d0e3b20d~88~ubuntu18.04.1*%
%TF.CreationDate,2021-03-24T04:21:48+02:00*%
%TF.ProjectId,Electra,456c6563-7472-4612-9e6b-696361645f70,rev?*%
%TF.SameCoordinates,Original*%
%TF.FileFunction,Legend,Top*%
%TF.FilePolarity,Positive*%
%FSLAX46Y46*%
G04 Gerber Fmt 4.6, Leading zero omitted, Abs format (unit mm)*
G04 Created by KiCad (PCBNEW 5.1.9-73d0e3b20d~88~ubuntu18.04.1) date 2021-03-24 04:21:48*
%MOMM*%
%LPD*%
G01*
G04 APERTURE LIST*
%ADD10C,0.300000*%
%ADD11C,0.150000*%
%ADD12C,0.120000*%
G04 APERTURE END LIST*
D10*
X196035714Y-98158571D02*
X196107142Y-98230000D01*
X196178571Y-98444285D01*
X196178571Y-98587142D01*
X196107142Y-98801428D01*
X195964285Y-98944285D01*
X195821428Y-99015714D01*
X195535714Y-99087142D01*
X195321428Y-99087142D01*
X195035714Y-99015714D01*
X194892857Y-98944285D01*
X194750000Y-98801428D01*
X194678571Y-98587142D01*
X194678571Y-98444285D01*
X194750000Y-98230000D01*
X194821428Y-98158571D01*
X195750000Y-97587142D02*
X195750000Y-96872857D01*
X196178571Y-97730000D02*
X194678571Y-97230000D01*
X196178571Y-96730000D01*
X194678571Y-96230000D02*
X195892857Y-96230000D01*
X196035714Y-96158571D01*
X196107142Y-96087142D01*
X196178571Y-95944285D01*
X196178571Y-95658571D01*
X196107142Y-95515714D01*
X196035714Y-95444285D01*
X195892857Y-95372857D01*
X194678571Y-95372857D01*
X194678571Y-94872857D02*
X194678571Y-94015714D01*
X196178571Y-94444285D02*
X194678571Y-94444285D01*
X196178571Y-93515714D02*
X194678571Y-93515714D01*
X194678571Y-92515714D02*
X194678571Y-92230000D01*
X194750000Y-92087142D01*
X194892857Y-91944285D01*
X195178571Y-91872857D01*
X195678571Y-91872857D01*
X195964285Y-91944285D01*
X196107142Y-92087142D01*
X196178571Y-92230000D01*
X196178571Y-92515714D01*
X196107142Y-92658571D01*
X195964285Y-92801428D01*
X195678571Y-92872857D01*
X195178571Y-92872857D01*
X194892857Y-92801428D01*
X194750000Y-92658571D01*
X194678571Y-92515714D01*
X196178571Y-91230000D02*
X194678571Y-91230000D01*
X196178571Y-90372857D01*
X194678571Y-90372857D01*
X196035714Y-89658571D02*
X196107142Y-89587142D01*
X196178571Y-89658571D01*
X196107142Y-89730000D01*
X196035714Y-89658571D01*
X196178571Y-89658571D01*
X195607142Y-89658571D02*
X194750000Y-89730000D01*
X194678571Y-89658571D01*
X194750000Y-89587142D01*
X195607142Y-89658571D01*
X194678571Y-89658571D01*
X195750000Y-87872857D02*
X195750000Y-87158571D01*
X196178571Y-88015714D02*
X194678571Y-87515714D01*
X196178571Y-87015714D01*
X196035714Y-85658571D02*
X196107142Y-85730000D01*
X196178571Y-85944285D01*
X196178571Y-86087142D01*
X196107142Y-86301428D01*
X195964285Y-86444285D01*
X195821428Y-86515714D01*
X195535714Y-86587142D01*
X195321428Y-86587142D01*
X195035714Y-86515714D01*
X194892857Y-86444285D01*
X194750000Y-86301428D01*
X194678571Y-86087142D01*
X194678571Y-85944285D01*
X194750000Y-85730000D01*
X194821428Y-85658571D01*
X196178571Y-83872857D02*
X194678571Y-83872857D01*
X195750000Y-83372857D01*
X194678571Y-82872857D01*
X196178571Y-82872857D01*
X196178571Y-81515714D02*
X195392857Y-81515714D01*
X195250000Y-81587142D01*
X195178571Y-81730000D01*
X195178571Y-82015714D01*
X195250000Y-82158571D01*
X196107142Y-81515714D02*
X196178571Y-81658571D01*
X196178571Y-82015714D01*
X196107142Y-82158571D01*
X195964285Y-82230000D01*
X195821428Y-82230000D01*
X195678571Y-82158571D01*
X195607142Y-82015714D01*
X195607142Y-81658571D01*
X195535714Y-81515714D01*
X196178571Y-80801428D02*
X195178571Y-80801428D01*
X194678571Y-80801428D02*
X194750000Y-80872857D01*
X194821428Y-80801428D01*
X194750000Y-80730000D01*
X194678571Y-80801428D01*
X194821428Y-80801428D01*
X195178571Y-80087142D02*
X196178571Y-80087142D01*
X195321428Y-80087142D02*
X195250000Y-80015714D01*
X195178571Y-79872857D01*
X195178571Y-79658571D01*
X195250000Y-79515714D01*
X195392857Y-79444285D01*
X196178571Y-79444285D01*
D11*
X110252380Y-83795238D02*
X111252380Y-83461904D01*
X110252380Y-83128571D01*
X111252380Y-82795238D02*
X110252380Y-82795238D01*
X111252380Y-82319047D02*
X110252380Y-82319047D01*
X111252380Y-81747619D01*
X110252380Y-81747619D01*
X110300000Y-77761904D02*
X110252380Y-77857142D01*
X110252380Y-78000000D01*
X110300000Y-78142857D01*
X110395238Y-78238095D01*
X110490476Y-78285714D01*
X110680952Y-78333333D01*
X110823809Y-78333333D01*
X111014285Y-78285714D01*
X111109523Y-78238095D01*
X111204761Y-78142857D01*
X111252380Y-78000000D01*
X111252380Y-77904761D01*
X111204761Y-77761904D01*
X111157142Y-77714285D01*
X110823809Y-77714285D01*
X110823809Y-77904761D01*
X111252380Y-77285714D02*
X110252380Y-77285714D01*
X111252380Y-76714285D01*
X110252380Y-76714285D01*
X111252380Y-76238095D02*
X110252380Y-76238095D01*
X110252380Y-76000000D01*
X110300000Y-75857142D01*
X110395238Y-75761904D01*
X110490476Y-75714285D01*
X110680952Y-75666666D01*
X110823809Y-75666666D01*
X111014285Y-75714285D01*
X111109523Y-75761904D01*
X111204761Y-75857142D01*
X111252380Y-76000000D01*
X111252380Y-76238095D01*
X150907142Y-90807142D02*
X150007142Y-90807142D01*
X150007142Y-90592857D01*
X150050000Y-90464285D01*
X150135714Y-90378571D01*
X150221428Y-90335714D01*
X150392857Y-90292857D01*
X150521428Y-90292857D01*
X150692857Y-90335714D01*
X150778571Y-90378571D01*
X150864285Y-90464285D01*
X150907142Y-90592857D01*
X150907142Y-90807142D01*
X150907142Y-89521428D02*
X150435714Y-89521428D01*
X150350000Y-89564285D01*
X150307142Y-89650000D01*
X150307142Y-89821428D01*
X150350000Y-89907142D01*
X150864285Y-89521428D02*
X150907142Y-89607142D01*
X150907142Y-89821428D01*
X150864285Y-89907142D01*
X150778571Y-89950000D01*
X150692857Y-89950000D01*
X150607142Y-89907142D01*
X150564285Y-89821428D01*
X150564285Y-89607142D01*
X150521428Y-89521428D01*
X150307142Y-89221428D02*
X150307142Y-88878571D01*
X150007142Y-89092857D02*
X150778571Y-89092857D01*
X150864285Y-89050000D01*
X150907142Y-88964285D01*
X150907142Y-88878571D01*
X150907142Y-88192857D02*
X150435714Y-88192857D01*
X150350000Y-88235714D01*
X150307142Y-88321428D01*
X150307142Y-88492857D01*
X150350000Y-88578571D01*
X150864285Y-88192857D02*
X150907142Y-88278571D01*
X150907142Y-88492857D01*
X150864285Y-88578571D01*
X150778571Y-88621428D01*
X150692857Y-88621428D01*
X150607142Y-88578571D01*
X150564285Y-88492857D01*
X150564285Y-88278571D01*
X150521428Y-88192857D01*
X147507142Y-89771428D02*
X147507142Y-90200000D01*
X147935714Y-90242857D01*
X147892857Y-90200000D01*
X147850000Y-90114285D01*
X147850000Y-89900000D01*
X147892857Y-89814285D01*
X147935714Y-89771428D01*
X148021428Y-89728571D01*
X148235714Y-89728571D01*
X148321428Y-89771428D01*
X148364285Y-89814285D01*
X148407142Y-89900000D01*
X148407142Y-90114285D01*
X148364285Y-90200000D01*
X148321428Y-90242857D01*
X147507142Y-89471428D02*
X148407142Y-89171428D01*
X147507142Y-88871428D01*
X155150000Y-90385714D02*
X155107142Y-90471428D01*
X155107142Y-90600000D01*
X155150000Y-90728571D01*
X155235714Y-90814285D01*
X155321428Y-90857142D01*
X155492857Y-90900000D01*
X155621428Y-90900000D01*
X155792857Y-90857142D01*
X155878571Y-90814285D01*
X155964285Y-90728571D01*
X156007142Y-90600000D01*
X156007142Y-90514285D01*
X155964285Y-90385714D01*
X155921428Y-90342857D01*
X155621428Y-90342857D01*
X155621428Y-90514285D01*
X156007142Y-89957142D02*
X155107142Y-89957142D01*
X156007142Y-89442857D01*
X155107142Y-89442857D01*
X156007142Y-89014285D02*
X155107142Y-89014285D01*
X155107142Y-88800000D01*
X155150000Y-88671428D01*
X155235714Y-88585714D01*
X155321428Y-88542857D01*
X155492857Y-88500000D01*
X155621428Y-88500000D01*
X155792857Y-88542857D01*
X155878571Y-88585714D01*
X155964285Y-88671428D01*
X156007142Y-88800000D01*
X156007142Y-89014285D01*
X116328571Y-106064285D02*
X116457142Y-106107142D01*
X116671428Y-106107142D01*
X116757142Y-106064285D01*
X116800000Y-106021428D01*
X116842857Y-105935714D01*
X116842857Y-105850000D01*
X116800000Y-105764285D01*
X116757142Y-105721428D01*
X116671428Y-105678571D01*
X116500000Y-105635714D01*
X116414285Y-105592857D01*
X116371428Y-105550000D01*
X116328571Y-105464285D01*
X116328571Y-105378571D01*
X116371428Y-105292857D01*
X116414285Y-105250000D01*
X116500000Y-105207142D01*
X116714285Y-105207142D01*
X116842857Y-105250000D01*
X117228571Y-106107142D02*
X117228571Y-105207142D01*
X117442857Y-105207142D01*
X117571428Y-105250000D01*
X117657142Y-105335714D01*
X117700000Y-105421428D01*
X117742857Y-105592857D01*
X117742857Y-105721428D01*
X117700000Y-105892857D01*
X117657142Y-105978571D01*
X117571428Y-106064285D01*
X117442857Y-106107142D01*
X117228571Y-106107142D01*
X118557142Y-106107142D02*
X118128571Y-106107142D01*
X118128571Y-105207142D01*
X116207142Y-103564285D02*
X116335714Y-103607142D01*
X116550000Y-103607142D01*
X116635714Y-103564285D01*
X116678571Y-103521428D01*
X116721428Y-103435714D01*
X116721428Y-103350000D01*
X116678571Y-103264285D01*
X116635714Y-103221428D01*
X116550000Y-103178571D01*
X116378571Y-103135714D01*
X116292857Y-103092857D01*
X116250000Y-103050000D01*
X116207142Y-102964285D01*
X116207142Y-102878571D01*
X116250000Y-102792857D01*
X116292857Y-102750000D01*
X116378571Y-102707142D01*
X116592857Y-102707142D01*
X116721428Y-102750000D01*
X117107142Y-103607142D02*
X117107142Y-102707142D01*
X117321428Y-102707142D01*
X117450000Y-102750000D01*
X117535714Y-102835714D01*
X117578571Y-102921428D01*
X117621428Y-103092857D01*
X117621428Y-103221428D01*
X117578571Y-103392857D01*
X117535714Y-103478571D01*
X117450000Y-103564285D01*
X117321428Y-103607142D01*
X117107142Y-103607142D01*
X117964285Y-103350000D02*
X118392857Y-103350000D01*
X117878571Y-103607142D02*
X118178571Y-102707142D01*
X118478571Y-103607142D01*
X116285714Y-100107142D02*
X116842857Y-100107142D01*
X116542857Y-100450000D01*
X116671428Y-100450000D01*
X116757142Y-100492857D01*
X116800000Y-100535714D01*
X116842857Y-100621428D01*
X116842857Y-100835714D01*
X116800000Y-100921428D01*
X116757142Y-100964285D01*
X116671428Y-101007142D01*
X116414285Y-101007142D01*
X116328571Y-100964285D01*
X116285714Y-100921428D01*
X117100000Y-100107142D02*
X117400000Y-101007142D01*
X117700000Y-100107142D01*
X117914285Y-100107142D02*
X118471428Y-100107142D01*
X118171428Y-100450000D01*
X118300000Y-100450000D01*
X118385714Y-100492857D01*
X118428571Y-100535714D01*
X118471428Y-100621428D01*
X118471428Y-100835714D01*
X118428571Y-100921428D01*
X118385714Y-100964285D01*
X118300000Y-101007142D01*
X118042857Y-101007142D01*
X117957142Y-100964285D01*
X117914285Y-100921428D01*
X116614285Y-97550000D02*
X116528571Y-97507142D01*
X116400000Y-97507142D01*
X116271428Y-97550000D01*
X116185714Y-97635714D01*
X116142857Y-97721428D01*
X116100000Y-97892857D01*
X116100000Y-98021428D01*
X116142857Y-98192857D01*
X116185714Y-98278571D01*
X116271428Y-98364285D01*
X116400000Y-98407142D01*
X116485714Y-98407142D01*
X116614285Y-98364285D01*
X116657142Y-98321428D01*
X116657142Y-98021428D01*
X116485714Y-98021428D01*
X117042857Y-98407142D02*
X117042857Y-97507142D01*
X117557142Y-98407142D01*
X117557142Y-97507142D01*
X117985714Y-98407142D02*
X117985714Y-97507142D01*
X118200000Y-97507142D01*
X118328571Y-97550000D01*
X118414285Y-97635714D01*
X118457142Y-97721428D01*
X118500000Y-97892857D01*
X118500000Y-98021428D01*
X118457142Y-98192857D01*
X118414285Y-98278571D01*
X118328571Y-98364285D01*
X118200000Y-98407142D01*
X117985714Y-98407142D01*
X162361904Y-112552380D02*
X162980952Y-112552380D01*
X162647619Y-112933333D01*
X162790476Y-112933333D01*
X162885714Y-112980952D01*
X162933333Y-113028571D01*
X162980952Y-113123809D01*
X162980952Y-113361904D01*
X162933333Y-113457142D01*
X162885714Y-113504761D01*
X162790476Y-113552380D01*
X162504761Y-113552380D01*
X162409523Y-113504761D01*
X162361904Y-113457142D01*
X163266666Y-112552380D02*
X163600000Y-113552380D01*
X163933333Y-112552380D01*
X164171428Y-112552380D02*
X164790476Y-112552380D01*
X164457142Y-112933333D01*
X164600000Y-112933333D01*
X164695238Y-112980952D01*
X164742857Y-113028571D01*
X164790476Y-113123809D01*
X164790476Y-113361904D01*
X164742857Y-113457142D01*
X164695238Y-113504761D01*
X164600000Y-113552380D01*
X164314285Y-113552380D01*
X164219047Y-113504761D01*
X164171428Y-113457142D01*
X162838095Y-110100000D02*
X162742857Y-110052380D01*
X162600000Y-110052380D01*
X162457142Y-110100000D01*
X162361904Y-110195238D01*
X162314285Y-110290476D01*
X162266666Y-110480952D01*
X162266666Y-110623809D01*
X162314285Y-110814285D01*
X162361904Y-110909523D01*
X162457142Y-111004761D01*
X162600000Y-111052380D01*
X162695238Y-111052380D01*
X162838095Y-111004761D01*
X162885714Y-110957142D01*
X162885714Y-110623809D01*
X162695238Y-110623809D01*
X163314285Y-111052380D02*
X163314285Y-110052380D01*
X163885714Y-111052380D01*
X163885714Y-110052380D01*
X164361904Y-111052380D02*
X164361904Y-110052380D01*
X164600000Y-110052380D01*
X164742857Y-110100000D01*
X164838095Y-110195238D01*
X164885714Y-110290476D01*
X164933333Y-110480952D01*
X164933333Y-110623809D01*
X164885714Y-110814285D01*
X164838095Y-110909523D01*
X164742857Y-111004761D01*
X164600000Y-111052380D01*
X164361904Y-111052380D01*
X162933333Y-108452380D02*
X162600000Y-107976190D01*
X162361904Y-108452380D02*
X162361904Y-107452380D01*
X162742857Y-107452380D01*
X162838095Y-107500000D01*
X162885714Y-107547619D01*
X162933333Y-107642857D01*
X162933333Y-107785714D01*
X162885714Y-107880952D01*
X162838095Y-107928571D01*
X162742857Y-107976190D01*
X162361904Y-107976190D01*
X163266666Y-107452380D02*
X163933333Y-108452380D01*
X163933333Y-107452380D02*
X163266666Y-108452380D01*
X162138095Y-104852380D02*
X162709523Y-104852380D01*
X162423809Y-105852380D02*
X162423809Y-104852380D01*
X162947619Y-104852380D02*
X163614285Y-105852380D01*
X163614285Y-104852380D02*
X162947619Y-105852380D01*
D10*
X129592857Y-117535714D02*
X129521428Y-117607142D01*
X129307142Y-117678571D01*
X129164285Y-117678571D01*
X128949999Y-117607142D01*
X128807142Y-117464285D01*
X128735714Y-117321428D01*
X128664285Y-117035714D01*
X128664285Y-116821428D01*
X128735714Y-116535714D01*
X128807142Y-116392857D01*
X128949999Y-116250000D01*
X129164285Y-116178571D01*
X129307142Y-116178571D01*
X129521428Y-116250000D01*
X129592857Y-116321428D01*
X130449999Y-117678571D02*
X130307142Y-117607142D01*
X130235714Y-117535714D01*
X130164285Y-117392857D01*
X130164285Y-116964285D01*
X130235714Y-116821428D01*
X130307142Y-116750000D01*
X130449999Y-116678571D01*
X130664285Y-116678571D01*
X130807142Y-116750000D01*
X130878571Y-116821428D01*
X130949999Y-116964285D01*
X130949999Y-117392857D01*
X130878571Y-117535714D01*
X130807142Y-117607142D01*
X130664285Y-117678571D01*
X130449999Y-117678571D01*
X131592857Y-116678571D02*
X131592857Y-118178571D01*
X131592857Y-116750000D02*
X131735714Y-116678571D01*
X132021428Y-116678571D01*
X132164285Y-116750000D01*
X132235714Y-116821428D01*
X132307142Y-116964285D01*
X132307142Y-117392857D01*
X132235714Y-117535714D01*
X132164285Y-117607142D01*
X132021428Y-117678571D01*
X131735714Y-117678571D01*
X131592857Y-117607142D01*
X132807142Y-116678571D02*
X133164285Y-117678571D01*
X133521428Y-116678571D02*
X133164285Y-117678571D01*
X133021428Y-118035714D01*
X132949999Y-118107142D01*
X132807142Y-118178571D01*
X134092857Y-117678571D02*
X134092857Y-116678571D01*
X134092857Y-116964285D02*
X134164285Y-116821428D01*
X134235714Y-116750000D01*
X134378571Y-116678571D01*
X134521428Y-116678571D01*
X135021428Y-117678571D02*
X135021428Y-116678571D01*
X135021428Y-116178571D02*
X134950000Y-116250000D01*
X135021428Y-116321428D01*
X135092857Y-116250000D01*
X135021428Y-116178571D01*
X135021428Y-116321428D01*
X136378571Y-116678571D02*
X136378571Y-117892857D01*
X136307142Y-118035714D01*
X136235714Y-118107142D01*
X136092857Y-118178571D01*
X135878571Y-118178571D01*
X135735714Y-118107142D01*
X136378571Y-117607142D02*
X136235714Y-117678571D01*
X135950000Y-117678571D01*
X135807142Y-117607142D01*
X135735714Y-117535714D01*
X135664285Y-117392857D01*
X135664285Y-116964285D01*
X135735714Y-116821428D01*
X135807142Y-116750000D01*
X135950000Y-116678571D01*
X136235714Y-116678571D01*
X136378571Y-116750000D01*
X137092857Y-117678571D02*
X137092857Y-116178571D01*
X137735714Y-117678571D02*
X137735714Y-116892857D01*
X137664285Y-116750000D01*
X137521428Y-116678571D01*
X137307142Y-116678571D01*
X137164285Y-116750000D01*
X137092857Y-116821428D01*
X138235714Y-116678571D02*
X138807142Y-116678571D01*
X138450000Y-116178571D02*
X138450000Y-117464285D01*
X138521428Y-117607142D01*
X138664285Y-117678571D01*
X138807142Y-117678571D01*
X141664285Y-116535714D02*
X141521428Y-116464285D01*
X141235714Y-116464285D01*
X141092857Y-116535714D01*
X140950000Y-116678571D01*
X140878571Y-116821428D01*
X140878571Y-117107142D01*
X140950000Y-117250000D01*
X141092857Y-117392857D01*
X141235714Y-117464285D01*
X141521428Y-117464285D01*
X141664285Y-117392857D01*
X141378571Y-115964285D02*
X141021428Y-116035714D01*
X140664285Y-116250000D01*
X140450000Y-116607142D01*
X140378571Y-116964285D01*
X140450000Y-117321428D01*
X140664285Y-117678571D01*
X141021428Y-117892857D01*
X141378571Y-117964285D01*
X141735714Y-117892857D01*
X142092857Y-117678571D01*
X142307142Y-117321428D01*
X142378571Y-116964285D01*
X142307142Y-116607142D01*
X142092857Y-116250000D01*
X141735714Y-116035714D01*
X141378571Y-115964285D01*
X144092857Y-116321428D02*
X144164285Y-116250000D01*
X144307142Y-116178571D01*
X144664285Y-116178571D01*
X144807142Y-116250000D01*
X144878571Y-116321428D01*
X144950000Y-116464285D01*
X144950000Y-116607142D01*
X144878571Y-116821428D01*
X144021428Y-117678571D01*
X144950000Y-117678571D01*
X145878571Y-116178571D02*
X146021428Y-116178571D01*
X146164285Y-116250000D01*
X146235714Y-116321428D01*
X146307142Y-116464285D01*
X146378571Y-116750000D01*
X146378571Y-117107142D01*
X146307142Y-117392857D01*
X146235714Y-117535714D01*
X146164285Y-117607142D01*
X146021428Y-117678571D01*
X145878571Y-117678571D01*
X145735714Y-117607142D01*
X145664285Y-117535714D01*
X145592857Y-117392857D01*
X145521428Y-117107142D01*
X145521428Y-116750000D01*
X145592857Y-116464285D01*
X145664285Y-116321428D01*
X145735714Y-116250000D01*
X145878571Y-116178571D01*
X146950000Y-116321428D02*
X147021428Y-116250000D01*
X147164285Y-116178571D01*
X147521428Y-116178571D01*
X147664285Y-116250000D01*
X147735714Y-116321428D01*
X147807142Y-116464285D01*
X147807142Y-116607142D01*
X147735714Y-116821428D01*
X146878571Y-117678571D01*
X147807142Y-117678571D01*
X149235714Y-117678571D02*
X148378571Y-117678571D01*
X148807142Y-117678571D02*
X148807142Y-116178571D01*
X148664285Y-116392857D01*
X148521428Y-116535714D01*
X148378571Y-116607142D01*
X151807142Y-116250000D02*
X151664285Y-116178571D01*
X151450000Y-116178571D01*
X151235714Y-116250000D01*
X151092857Y-116392857D01*
X151021428Y-116535714D01*
X150950000Y-116821428D01*
X150950000Y-117035714D01*
X151021428Y-117321428D01*
X151092857Y-117464285D01*
X151235714Y-117607142D01*
X151450000Y-117678571D01*
X151592857Y-117678571D01*
X151807142Y-117607142D01*
X151878571Y-117535714D01*
X151878571Y-117035714D01*
X151592857Y-117035714D01*
X152521428Y-117678571D02*
X152521428Y-116678571D01*
X152521428Y-116964285D02*
X152592857Y-116821428D01*
X152664285Y-116750000D01*
X152807142Y-116678571D01*
X152950000Y-116678571D01*
X154021428Y-117607142D02*
X153878571Y-117678571D01*
X153592857Y-117678571D01*
X153450000Y-117607142D01*
X153378571Y-117464285D01*
X153378571Y-116892857D01*
X153450000Y-116750000D01*
X153592857Y-116678571D01*
X153878571Y-116678571D01*
X154021428Y-116750000D01*
X154092857Y-116892857D01*
X154092857Y-117035714D01*
X153378571Y-117178571D01*
X154735714Y-117678571D02*
X154735714Y-116178571D01*
X155378571Y-117678571D02*
X155378571Y-116892857D01*
X155307142Y-116750000D01*
X155164285Y-116678571D01*
X154950000Y-116678571D01*
X154807142Y-116750000D01*
X154735714Y-116821428D01*
X156735714Y-117678571D02*
X156735714Y-116892857D01*
X156664285Y-116750000D01*
X156521428Y-116678571D01*
X156235714Y-116678571D01*
X156092857Y-116750000D01*
X156735714Y-117607142D02*
X156592857Y-117678571D01*
X156235714Y-117678571D01*
X156092857Y-117607142D01*
X156021428Y-117464285D01*
X156021428Y-117321428D01*
X156092857Y-117178571D01*
X156235714Y-117107142D01*
X156592857Y-117107142D01*
X156735714Y-117035714D01*
X157378571Y-117607142D02*
X157521428Y-117678571D01*
X157807142Y-117678571D01*
X157950000Y-117607142D01*
X158021428Y-117464285D01*
X158021428Y-117392857D01*
X157950000Y-117250000D01*
X157807142Y-117178571D01*
X157592857Y-117178571D01*
X157450000Y-117107142D01*
X157378571Y-116964285D01*
X157378571Y-116892857D01*
X157450000Y-116750000D01*
X157592857Y-116678571D01*
X157807142Y-116678571D01*
X157950000Y-116750000D01*
X158878571Y-117678571D02*
X158735714Y-117607142D01*
X158664285Y-117535714D01*
X158592857Y-117392857D01*
X158592857Y-116964285D01*
X158664285Y-116821428D01*
X158735714Y-116750000D01*
X158878571Y-116678571D01*
X159092857Y-116678571D01*
X159235714Y-116750000D01*
X159307142Y-116821428D01*
X159378571Y-116964285D01*
X159378571Y-117392857D01*
X159307142Y-117535714D01*
X159235714Y-117607142D01*
X159092857Y-117678571D01*
X158878571Y-117678571D01*
X160021428Y-116678571D02*
X160021428Y-118178571D01*
X160021428Y-116750000D02*
X160164285Y-116678571D01*
X160450000Y-116678571D01*
X160592857Y-116750000D01*
X160664285Y-116821428D01*
X160735714Y-116964285D01*
X160735714Y-117392857D01*
X160664285Y-117535714D01*
X160592857Y-117607142D01*
X160450000Y-117678571D01*
X160164285Y-117678571D01*
X160021428Y-117607142D01*
X161164285Y-116678571D02*
X161735714Y-116678571D01*
X161378571Y-116178571D02*
X161378571Y-117464285D01*
X161450000Y-117607142D01*
X161592857Y-117678571D01*
X161735714Y-117678571D01*
X128692857Y-113292857D02*
X129192857Y-113292857D01*
X129407142Y-114078571D02*
X128692857Y-114078571D01*
X128692857Y-112578571D01*
X129407142Y-112578571D01*
X130264285Y-114078571D02*
X130121428Y-114007142D01*
X130050000Y-113864285D01*
X130050000Y-112578571D01*
X131407142Y-114007142D02*
X131264285Y-114078571D01*
X130978571Y-114078571D01*
X130835714Y-114007142D01*
X130764285Y-113864285D01*
X130764285Y-113292857D01*
X130835714Y-113150000D01*
X130978571Y-113078571D01*
X131264285Y-113078571D01*
X131407142Y-113150000D01*
X131478571Y-113292857D01*
X131478571Y-113435714D01*
X130764285Y-113578571D01*
X132764285Y-114007142D02*
X132621428Y-114078571D01*
X132335714Y-114078571D01*
X132192857Y-114007142D01*
X132121428Y-113935714D01*
X132050000Y-113792857D01*
X132050000Y-113364285D01*
X132121428Y-113221428D01*
X132192857Y-113150000D01*
X132335714Y-113078571D01*
X132621428Y-113078571D01*
X132764285Y-113150000D01*
X133192857Y-113078571D02*
X133764285Y-113078571D01*
X133407142Y-112578571D02*
X133407142Y-113864285D01*
X133478571Y-114007142D01*
X133621428Y-114078571D01*
X133764285Y-114078571D01*
X134264285Y-114078571D02*
X134264285Y-113078571D01*
X134264285Y-113364285D02*
X134335714Y-113221428D01*
X134407142Y-113150000D01*
X134550000Y-113078571D01*
X134692857Y-113078571D01*
X135835714Y-114078571D02*
X135835714Y-113292857D01*
X135764285Y-113150000D01*
X135621428Y-113078571D01*
X135335714Y-113078571D01*
X135192857Y-113150000D01*
X135835714Y-114007142D02*
X135692857Y-114078571D01*
X135335714Y-114078571D01*
X135192857Y-114007142D01*
X135121428Y-113864285D01*
X135121428Y-113721428D01*
X135192857Y-113578571D01*
X135335714Y-113507142D01*
X135692857Y-113507142D01*
X135835714Y-113435714D01*
X137478571Y-112578571D02*
X137978571Y-114078571D01*
X138478571Y-112578571D01*
X139550000Y-114007142D02*
X139407142Y-114078571D01*
X139121428Y-114078571D01*
X138978571Y-114007142D01*
X138907142Y-113864285D01*
X138907142Y-113292857D01*
X138978571Y-113150000D01*
X139121428Y-113078571D01*
X139407142Y-113078571D01*
X139550000Y-113150000D01*
X139621428Y-113292857D01*
X139621428Y-113435714D01*
X138907142Y-113578571D01*
X140264285Y-114078571D02*
X140264285Y-113078571D01*
X140264285Y-113364285D02*
X140335714Y-113221428D01*
X140407142Y-113150000D01*
X140550000Y-113078571D01*
X140692857Y-113078571D01*
X141192857Y-113935714D02*
X141264285Y-114007142D01*
X141192857Y-114078571D01*
X141121428Y-114007142D01*
X141192857Y-113935714D01*
X141192857Y-114078571D01*
X143835714Y-114078571D02*
X142978571Y-114078571D01*
X143407142Y-114078571D02*
X143407142Y-112578571D01*
X143264285Y-112792857D01*
X143121428Y-112935714D01*
X142978571Y-113007142D01*
X144478571Y-113935714D02*
X144550000Y-114007142D01*
X144478571Y-114078571D01*
X144407142Y-114007142D01*
X144478571Y-113935714D01*
X144478571Y-114078571D01*
X145478571Y-112578571D02*
X145621428Y-112578571D01*
X145764285Y-112650000D01*
X145835714Y-112721428D01*
X145907142Y-112864285D01*
X145978571Y-113150000D01*
X145978571Y-113507142D01*
X145907142Y-113792857D01*
X145835714Y-113935714D01*
X145764285Y-114007142D01*
X145621428Y-114078571D01*
X145478571Y-114078571D01*
X145335714Y-114007142D01*
X145264285Y-113935714D01*
X145192857Y-113792857D01*
X145121428Y-113507142D01*
X145121428Y-113150000D01*
X145192857Y-112864285D01*
X145264285Y-112721428D01*
X145335714Y-112650000D01*
X145478571Y-112578571D01*
D12*
%TO.C,R206*%
X100945276Y-111377500D02*
X101454724Y-111377500D01*
X100945276Y-112422500D02*
X101454724Y-112422500D01*
%TO.C,R205*%
X100945276Y-109827500D02*
X101454724Y-109827500D01*
X100945276Y-110872500D02*
X101454724Y-110872500D01*
%TO.C,R204*%
X101454724Y-109322500D02*
X100945276Y-109322500D01*
X101454724Y-108277500D02*
X100945276Y-108277500D01*
%TO.C,R202*%
X101454724Y-107772500D02*
X100945276Y-107772500D01*
X101454724Y-106727500D02*
X100945276Y-106727500D01*
%TO.C,R201*%
X100982776Y-105227500D02*
X101492224Y-105227500D01*
X100982776Y-106272500D02*
X101492224Y-106272500D01*
%TO.C,K301*%
X187120000Y-99500000D02*
X193620000Y-99500000D01*
X178220000Y-99500000D02*
X184720000Y-99500000D01*
X178220000Y-99500000D02*
X178220000Y-80300000D01*
X178220000Y-80300000D02*
X193620000Y-80300000D01*
X193620000Y-80300000D02*
X193620000Y-99500000D01*
X190220000Y-83800000D02*
X187920000Y-83800000D01*
X181620000Y-83800000D02*
X183920000Y-83800000D01*
X191920000Y-94300000D02*
X191920000Y-92000000D01*
X185920000Y-95400000D02*
X185920000Y-96300000D01*
X179920000Y-92000000D02*
X179920000Y-94300000D01*
X185920000Y-88500000D02*
X185920000Y-87000000D01*
X185920000Y-87000000D02*
X183220000Y-82500000D01*
X189620000Y-88500000D02*
X189620000Y-95400000D01*
X185920000Y-88500000D02*
X189620000Y-88500000D01*
X185920000Y-95400000D02*
X189620000Y-95400000D01*
X179920000Y-92000000D02*
X184420000Y-92000000D01*
X187420000Y-92000000D02*
X191920000Y-92000000D01*
X187420000Y-89500000D02*
X184420000Y-94500000D01*
X187420000Y-94500000D02*
X184420000Y-94500000D01*
X184420000Y-94500000D02*
X184420000Y-89500000D01*
X184420000Y-89500000D02*
X187420000Y-89500000D01*
X187420000Y-89500000D02*
X187420000Y-94500000D01*
%TO.C,J801*%
X146670000Y-87930000D02*
X146670000Y-86600000D01*
X148000000Y-87930000D02*
X146670000Y-87930000D01*
X149270000Y-87930000D02*
X149270000Y-85270000D01*
X149270000Y-85270000D02*
X156950000Y-85270000D01*
X149270000Y-87930000D02*
X156950000Y-87930000D01*
X156950000Y-87930000D02*
X156950000Y-85270000D01*
%TO.C,K401*%
X169420000Y-89500000D02*
X169420000Y-94500000D01*
X166420000Y-89500000D02*
X169420000Y-89500000D01*
X166420000Y-94500000D02*
X166420000Y-89500000D01*
X169420000Y-94500000D02*
X166420000Y-94500000D01*
X169420000Y-89500000D02*
X166420000Y-94500000D01*
X169420000Y-92000000D02*
X173920000Y-92000000D01*
X161920000Y-92000000D02*
X166420000Y-92000000D01*
X167920000Y-95400000D02*
X171620000Y-95400000D01*
X167920000Y-88500000D02*
X171620000Y-88500000D01*
X171620000Y-88500000D02*
X171620000Y-95400000D01*
X167920000Y-87000000D02*
X165220000Y-82500000D01*
X167920000Y-88500000D02*
X167920000Y-87000000D01*
X161920000Y-92000000D02*
X161920000Y-94300000D01*
X167920000Y-95400000D02*
X167920000Y-96300000D01*
X173920000Y-94300000D02*
X173920000Y-92000000D01*
X163620000Y-83800000D02*
X165920000Y-83800000D01*
X172220000Y-83800000D02*
X169920000Y-83800000D01*
X175620000Y-80300000D02*
X175620000Y-99500000D01*
X160220000Y-80300000D02*
X175620000Y-80300000D01*
X160220000Y-99500000D02*
X160220000Y-80300000D01*
X160220000Y-99500000D02*
X166720000Y-99500000D01*
X169120000Y-99500000D02*
X175620000Y-99500000D01*
%TO.C,REF\u002A\u002A*%
X154170000Y-99130000D02*
X155500000Y-99130000D01*
X154170000Y-100460000D02*
X154170000Y-99130000D01*
X154170000Y-101730000D02*
X156830000Y-101730000D01*
X156830000Y-101730000D02*
X156830000Y-109410000D01*
X154170000Y-101730000D02*
X154170000Y-109410000D01*
X154170000Y-109410000D02*
X156830000Y-109410000D01*
%TO.C,J501*%
X157246000Y-78406000D02*
X157246000Y-72436000D01*
X157246000Y-72436000D02*
X149626000Y-72436000D01*
X149626000Y-72436000D02*
X149626000Y-78406000D01*
X149626000Y-78406000D02*
X157246000Y-78406000D01*
X153936000Y-78396000D02*
X153936000Y-77646000D01*
X153936000Y-77646000D02*
X152936000Y-77646000D01*
X152936000Y-77646000D02*
X152936000Y-78396000D01*
X152936000Y-78396000D02*
X153936000Y-78396000D01*
X157236000Y-78396000D02*
X157236000Y-77646000D01*
X157236000Y-77646000D02*
X155436000Y-77646000D01*
X155436000Y-77646000D02*
X155436000Y-78396000D01*
X155436000Y-78396000D02*
X157236000Y-78396000D01*
X151436000Y-78396000D02*
X151436000Y-77646000D01*
X151436000Y-77646000D02*
X149636000Y-77646000D01*
X149636000Y-77646000D02*
X149636000Y-78396000D01*
X149636000Y-78396000D02*
X151436000Y-78396000D01*
X157236000Y-76146000D02*
X156486000Y-76146000D01*
X156486000Y-76146000D02*
X156486000Y-73196000D01*
X156486000Y-73196000D02*
X153436000Y-73196000D01*
X149636000Y-76146000D02*
X150386000Y-76146000D01*
X150386000Y-76146000D02*
X150386000Y-73196000D01*
X150386000Y-73196000D02*
X153436000Y-73196000D01*
X156286000Y-78696000D02*
X157536000Y-78696000D01*
X157536000Y-78696000D02*
X157536000Y-77446000D01*
%TO.C,R203*%
X177277500Y-113538724D02*
X177277500Y-113029276D01*
X178322500Y-113538724D02*
X178322500Y-113029276D01*
%TO.C,C203*%
X119346000Y-80044000D02*
X117646000Y-80044000D01*
X113826000Y-80044000D02*
X115526000Y-80044000D01*
X113826000Y-84499563D02*
X113826000Y-80044000D01*
X119346000Y-84499563D02*
X119346000Y-80044000D01*
X118281563Y-85564000D02*
X117646000Y-85564000D01*
X114890437Y-85564000D02*
X115526000Y-85564000D01*
X114890437Y-85564000D02*
X113826000Y-84499563D01*
X118281563Y-85564000D02*
X119346000Y-84499563D01*
X114901000Y-86429000D02*
X114901000Y-85804000D01*
X114588500Y-86116500D02*
X115213500Y-86116500D01*
%TO.C,L201*%
X115750000Y-91300000D02*
X115750000Y-94500000D01*
X105150000Y-91300000D02*
X115750000Y-91300000D01*
X105150000Y-94500000D02*
X105150000Y-91300000D01*
X105150000Y-101900000D02*
X105150000Y-98700000D01*
X115750000Y-101900000D02*
X105150000Y-101900000D01*
X115750000Y-98700000D02*
X115750000Y-101900000D01*
%TO.C,J401*%
X160220000Y-78320000D02*
X160220000Y-70700000D01*
X175460000Y-78320000D02*
X175460000Y-70700000D01*
X160220000Y-77050000D02*
X175460000Y-77050000D01*
X160220000Y-70700000D02*
X175460000Y-70700000D01*
X160220000Y-78320000D02*
X175460000Y-78320000D01*
%TO.C,C201*%
X102048752Y-101560000D02*
X100626248Y-101560000D01*
X102048752Y-98840000D02*
X100626248Y-98840000D01*
%TO.C,C202*%
X100883767Y-98110000D02*
X100591233Y-98110000D01*
X100883767Y-97090000D02*
X100591233Y-97090000D01*
%TO.C,C204*%
X106203733Y-90710000D02*
X106496267Y-90710000D01*
X106203733Y-89690000D02*
X106496267Y-89690000D01*
%TO.C,C205*%
X112560000Y-105523752D02*
X112560000Y-104101248D01*
X109840000Y-105523752D02*
X109840000Y-104101248D01*
%TO.C,C206*%
X113240000Y-105523752D02*
X113240000Y-104101248D01*
X115960000Y-105523752D02*
X115960000Y-104101248D01*
%TO.C,C207*%
X99110000Y-111146267D02*
X99110000Y-110853733D01*
X98090000Y-111146267D02*
X98090000Y-110853733D01*
%TO.C,C208*%
X121700500Y-86116500D02*
X122325500Y-86116500D01*
X122013000Y-86429000D02*
X122013000Y-85804000D01*
X125393563Y-85564000D02*
X126458000Y-84499563D01*
X122002437Y-85564000D02*
X120938000Y-84499563D01*
X122002437Y-85564000D02*
X122638000Y-85564000D01*
X125393563Y-85564000D02*
X124758000Y-85564000D01*
X126458000Y-84499563D02*
X126458000Y-80044000D01*
X120938000Y-84499563D02*
X120938000Y-80044000D01*
X120938000Y-80044000D02*
X122638000Y-80044000D01*
X126458000Y-80044000D02*
X124758000Y-80044000D01*
%TO.C,C601*%
X125346267Y-95590000D02*
X125053733Y-95590000D01*
X125346267Y-96610000D02*
X125053733Y-96610000D01*
%TO.C,C602*%
X125346267Y-98310000D02*
X125053733Y-98310000D01*
X125346267Y-97290000D02*
X125053733Y-97290000D01*
%TO.C,D201*%
X104150000Y-85200000D02*
X104150000Y-90600000D01*
X100850000Y-85200000D02*
X100850000Y-90600000D01*
X104150000Y-85200000D02*
X100850000Y-85200000D01*
%TO.C,D202*%
X178535000Y-118500000D02*
X178535000Y-116040000D01*
X177065000Y-118500000D02*
X178535000Y-118500000D01*
X177065000Y-116040000D02*
X177065000Y-118500000D01*
%TO.C,D301*%
X189257000Y-116040000D02*
X189257000Y-118500000D01*
X189257000Y-118500000D02*
X190727000Y-118500000D01*
X190727000Y-118500000D02*
X190727000Y-116040000D01*
%TO.C,D302*%
X193064000Y-106084000D02*
X193064000Y-107784000D01*
X193064000Y-107784000D02*
X195614000Y-107784000D01*
X193064000Y-106084000D02*
X195614000Y-106084000D01*
%TO.C,D401*%
X187679000Y-118500000D02*
X187679000Y-116040000D01*
X186209000Y-118500000D02*
X187679000Y-118500000D01*
X186209000Y-116040000D02*
X186209000Y-118500000D01*
%TO.C,D402*%
X193064000Y-108624000D02*
X195614000Y-108624000D01*
X193064000Y-110324000D02*
X195614000Y-110324000D01*
X193064000Y-108624000D02*
X193064000Y-110324000D01*
%TO.C,D601*%
X181583000Y-118500000D02*
X181583000Y-116040000D01*
X180113000Y-118500000D02*
X181583000Y-118500000D01*
X180113000Y-116040000D02*
X180113000Y-118500000D01*
%TO.C,D602*%
X183161000Y-116040000D02*
X183161000Y-118500000D01*
X183161000Y-118500000D02*
X184631000Y-118500000D01*
X184631000Y-118500000D02*
X184631000Y-116040000D01*
%TO.C,J101*%
X121330000Y-112030000D02*
X120000000Y-112030000D01*
X121330000Y-110700000D02*
X121330000Y-112030000D01*
X121330000Y-109430000D02*
X118670000Y-109430000D01*
X118670000Y-109430000D02*
X118670000Y-96670000D01*
X121330000Y-109430000D02*
X121330000Y-96670000D01*
X121330000Y-96670000D02*
X118670000Y-96670000D01*
%TO.C,J102*%
X158670000Y-114450000D02*
X161330000Y-114450000D01*
X158670000Y-106770000D02*
X158670000Y-114450000D01*
X161330000Y-106770000D02*
X161330000Y-114450000D01*
X158670000Y-106770000D02*
X161330000Y-106770000D01*
X158670000Y-105500000D02*
X158670000Y-104170000D01*
X158670000Y-104170000D02*
X160000000Y-104170000D01*
%TO.C,J201*%
X112600000Y-84150000D02*
X110000000Y-84150000D01*
X112600000Y-69450000D02*
X112600000Y-84150000D01*
X103400000Y-84150000D02*
X103400000Y-82250000D01*
X106100000Y-84150000D02*
X103400000Y-84150000D01*
X103400000Y-69450000D02*
X112600000Y-69450000D01*
X103400000Y-78250000D02*
X103400000Y-69450000D01*
X112800000Y-83300000D02*
X112800000Y-84350000D01*
X111750000Y-84350000D02*
X112800000Y-84350000D01*
%TO.C,J202*%
X119700000Y-75562500D02*
X119700000Y-75112500D01*
X119700000Y-75562500D02*
X119250000Y-75562500D01*
X114100000Y-75012500D02*
X114550000Y-75012500D01*
X114100000Y-73162500D02*
X114100000Y-75012500D01*
X121900000Y-70612500D02*
X121900000Y-70862500D01*
X114100000Y-70612500D02*
X114100000Y-70862500D01*
X121900000Y-73162500D02*
X121900000Y-75012500D01*
X121900000Y-75012500D02*
X121450000Y-75012500D01*
%TO.C,J203*%
X110520000Y-87820000D02*
X111850000Y-87820000D01*
X110520000Y-89150000D02*
X110520000Y-87820000D01*
X113120000Y-87820000D02*
X115720000Y-87820000D01*
X113120000Y-90420000D02*
X113120000Y-87820000D01*
X110520000Y-90420000D02*
X113120000Y-90420000D01*
X115720000Y-87820000D02*
X115720000Y-90480000D01*
X110520000Y-90420000D02*
X110520000Y-90480000D01*
X110520000Y-90480000D02*
X115720000Y-90480000D01*
%TO.C,J301*%
X177470000Y-78320000D02*
X192710000Y-78320000D01*
X177470000Y-70700000D02*
X192710000Y-70700000D01*
X177470000Y-77050000D02*
X192710000Y-77050000D01*
X192710000Y-78320000D02*
X192710000Y-70700000D01*
X177470000Y-78320000D02*
X177470000Y-70700000D01*
%TO.C,J502*%
X148646000Y-78696000D02*
X148646000Y-77446000D01*
X147396000Y-78696000D02*
X148646000Y-78696000D01*
X141496000Y-73196000D02*
X144546000Y-73196000D01*
X141496000Y-76146000D02*
X141496000Y-73196000D01*
X140746000Y-76146000D02*
X141496000Y-76146000D01*
X147596000Y-73196000D02*
X144546000Y-73196000D01*
X147596000Y-76146000D02*
X147596000Y-73196000D01*
X148346000Y-76146000D02*
X147596000Y-76146000D01*
X140746000Y-78396000D02*
X142546000Y-78396000D01*
X140746000Y-77646000D02*
X140746000Y-78396000D01*
X142546000Y-77646000D02*
X140746000Y-77646000D01*
X142546000Y-78396000D02*
X142546000Y-77646000D01*
X146546000Y-78396000D02*
X148346000Y-78396000D01*
X146546000Y-77646000D02*
X146546000Y-78396000D01*
X148346000Y-77646000D02*
X146546000Y-77646000D01*
X148346000Y-78396000D02*
X148346000Y-77646000D01*
X144046000Y-78396000D02*
X145046000Y-78396000D01*
X144046000Y-77646000D02*
X144046000Y-78396000D01*
X145046000Y-77646000D02*
X144046000Y-77646000D01*
X145046000Y-78396000D02*
X145046000Y-77646000D01*
X140736000Y-78406000D02*
X148356000Y-78406000D01*
X140736000Y-72436000D02*
X140736000Y-78406000D01*
X148356000Y-72436000D02*
X140736000Y-72436000D01*
X148356000Y-78406000D02*
X148356000Y-72436000D01*
%TO.C,J701*%
X139756000Y-78696000D02*
X139756000Y-77446000D01*
X138506000Y-78696000D02*
X139756000Y-78696000D01*
X132606000Y-73196000D02*
X135656000Y-73196000D01*
X132606000Y-76146000D02*
X132606000Y-73196000D01*
X131856000Y-76146000D02*
X132606000Y-76146000D01*
X138706000Y-73196000D02*
X135656000Y-73196000D01*
X138706000Y-76146000D02*
X138706000Y-73196000D01*
X139456000Y-76146000D02*
X138706000Y-76146000D01*
X131856000Y-78396000D02*
X133656000Y-78396000D01*
X131856000Y-77646000D02*
X131856000Y-78396000D01*
X133656000Y-77646000D02*
X131856000Y-77646000D01*
X133656000Y-78396000D02*
X133656000Y-77646000D01*
X137656000Y-78396000D02*
X139456000Y-78396000D01*
X137656000Y-77646000D02*
X137656000Y-78396000D01*
X139456000Y-77646000D02*
X137656000Y-77646000D01*
X139456000Y-78396000D02*
X139456000Y-77646000D01*
X135156000Y-78396000D02*
X136156000Y-78396000D01*
X135156000Y-77646000D02*
X135156000Y-78396000D01*
X136156000Y-77646000D02*
X135156000Y-77646000D01*
X136156000Y-78396000D02*
X136156000Y-77646000D01*
X131846000Y-78406000D02*
X139466000Y-78406000D01*
X131846000Y-72436000D02*
X131846000Y-78406000D01*
X139466000Y-72436000D02*
X131846000Y-72436000D01*
X139466000Y-78406000D02*
X139466000Y-72436000D01*
%TO.C,J702*%
X130830000Y-78406000D02*
X130830000Y-72436000D01*
X130830000Y-72436000D02*
X123210000Y-72436000D01*
X123210000Y-72436000D02*
X123210000Y-78406000D01*
X123210000Y-78406000D02*
X130830000Y-78406000D01*
X127520000Y-78396000D02*
X127520000Y-77646000D01*
X127520000Y-77646000D02*
X126520000Y-77646000D01*
X126520000Y-77646000D02*
X126520000Y-78396000D01*
X126520000Y-78396000D02*
X127520000Y-78396000D01*
X130820000Y-78396000D02*
X130820000Y-77646000D01*
X130820000Y-77646000D02*
X129020000Y-77646000D01*
X129020000Y-77646000D02*
X129020000Y-78396000D01*
X129020000Y-78396000D02*
X130820000Y-78396000D01*
X125020000Y-78396000D02*
X125020000Y-77646000D01*
X125020000Y-77646000D02*
X123220000Y-77646000D01*
X123220000Y-77646000D02*
X123220000Y-78396000D01*
X123220000Y-78396000D02*
X125020000Y-78396000D01*
X130820000Y-76146000D02*
X130070000Y-76146000D01*
X130070000Y-76146000D02*
X130070000Y-73196000D01*
X130070000Y-73196000D02*
X127020000Y-73196000D01*
X123220000Y-76146000D02*
X123970000Y-76146000D01*
X123970000Y-76146000D02*
X123970000Y-73196000D01*
X123970000Y-73196000D02*
X127020000Y-73196000D01*
X129870000Y-78696000D02*
X131120000Y-78696000D01*
X131120000Y-78696000D02*
X131120000Y-77446000D01*
%TO.C,Q301*%
X189594000Y-108540000D02*
X189594000Y-109950000D01*
X191914000Y-109950000D02*
X191914000Y-107920000D01*
X191914000Y-109950000D02*
X191254000Y-109950000D01*
X190254000Y-109950000D02*
X189594000Y-109950000D01*
%TO.C,Q401*%
X186952000Y-109950000D02*
X186292000Y-109950000D01*
X188612000Y-109950000D02*
X187952000Y-109950000D01*
X188612000Y-109950000D02*
X188612000Y-107920000D01*
X186292000Y-108540000D02*
X186292000Y-109950000D01*
%TO.C,Q801*%
X150166000Y-80910000D02*
X151626000Y-80910000D01*
X150166000Y-84070000D02*
X152326000Y-84070000D01*
X150166000Y-84070000D02*
X150166000Y-83140000D01*
X150166000Y-80910000D02*
X150166000Y-81840000D01*
%TO.C,R301*%
X183896724Y-109459500D02*
X183387276Y-109459500D01*
X183896724Y-110504500D02*
X183387276Y-110504500D01*
%TO.C,R302*%
X189469500Y-113029276D02*
X189469500Y-113538724D01*
X190514500Y-113029276D02*
X190514500Y-113538724D01*
%TO.C,R401*%
X183896724Y-108726500D02*
X183387276Y-108726500D01*
X183896724Y-107681500D02*
X183387276Y-107681500D01*
%TO.C,R402*%
X187466500Y-113029276D02*
X187466500Y-113538724D01*
X186421500Y-113029276D02*
X186421500Y-113538724D01*
%TO.C,R501*%
X139685500Y-82654224D02*
X139685500Y-82144776D01*
X140730500Y-82654224D02*
X140730500Y-82144776D01*
%TO.C,R502*%
X143778500Y-82654224D02*
X143778500Y-82144776D01*
X142733500Y-82654224D02*
X142733500Y-82144776D01*
%TO.C,R601*%
X106910500Y-111528724D02*
X106910500Y-111019276D01*
X105865500Y-111528724D02*
X105865500Y-111019276D01*
%TO.C,R602*%
X104087500Y-111528724D02*
X104087500Y-111019276D01*
X105132500Y-111528724D02*
X105132500Y-111019276D01*
%TO.C,R603*%
X109421500Y-111019276D02*
X109421500Y-111528724D01*
X110466500Y-111019276D02*
X110466500Y-111528724D01*
%TO.C,R604*%
X180325500Y-113538724D02*
X180325500Y-113029276D01*
X181370500Y-113538724D02*
X181370500Y-113029276D01*
%TO.C,R605*%
X108688500Y-111019276D02*
X108688500Y-111528724D01*
X107643500Y-111019276D02*
X107643500Y-111528724D01*
%TO.C,R606*%
X112244500Y-111019276D02*
X112244500Y-111528724D01*
X111199500Y-111019276D02*
X111199500Y-111528724D01*
%TO.C,R607*%
X184418500Y-113538724D02*
X184418500Y-113029276D01*
X183373500Y-113538724D02*
X183373500Y-113029276D01*
%TO.C,R701*%
X136637500Y-82041276D02*
X136637500Y-82550724D01*
X137682500Y-82041276D02*
X137682500Y-82550724D01*
%TO.C,R702*%
X133589500Y-82041276D02*
X133589500Y-82550724D01*
X134634500Y-82041276D02*
X134634500Y-82550724D01*
%TO.C,R703*%
X131586500Y-82041276D02*
X131586500Y-82550724D01*
X130541500Y-82041276D02*
X130541500Y-82550724D01*
%TO.C,R801*%
X154242500Y-82744724D02*
X154242500Y-82235276D01*
X153197500Y-82744724D02*
X153197500Y-82235276D01*
%TO.C,R802*%
X147609500Y-82744724D02*
X147609500Y-82235276D01*
X148654500Y-82744724D02*
X148654500Y-82235276D01*
%TO.C,SW601*%
X119100000Y-113650000D02*
X112900000Y-113650000D01*
X112900000Y-117350000D02*
X119100000Y-117350000D01*
X119100000Y-117350000D02*
X119100000Y-116700000D01*
X119100000Y-114300000D02*
X119100000Y-113650000D01*
X112900000Y-113650000D02*
X112900000Y-114300000D01*
X112900000Y-117350000D02*
X112900000Y-116700000D01*
%TO.C,SW602*%
X104400000Y-117350000D02*
X104400000Y-116700000D01*
X104400000Y-113650000D02*
X104400000Y-114300000D01*
X110600000Y-114300000D02*
X110600000Y-113650000D01*
X110600000Y-117350000D02*
X110600000Y-116700000D01*
X104400000Y-117350000D02*
X110600000Y-117350000D01*
X110600000Y-113650000D02*
X104400000Y-113650000D01*
%TO.C,TP201*%
X129220000Y-82296000D02*
G75*
G03*
X129220000Y-82296000I-950000J0D01*
G01*
%TO.C,TP202*%
X103450000Y-95500000D02*
G75*
G03*
X103450000Y-95500000I-950000J0D01*
G01*
%TO.C,TP203*%
X129200000Y-90678000D02*
G75*
G03*
X129200000Y-90678000I-950000J0D01*
G01*
%TO.C,TP204*%
X129220000Y-86360000D02*
G75*
G03*
X129220000Y-86360000I-950000J0D01*
G01*
%TO.C,TP301*%
X180274000Y-110236000D02*
G75*
G03*
X180274000Y-110236000I-950000J0D01*
G01*
%TO.C,TP401*%
X180274000Y-107442000D02*
G75*
G03*
X180274000Y-107442000I-950000J0D01*
G01*
%TO.C,TP701*%
X132268000Y-86360000D02*
G75*
G03*
X132268000Y-86360000I-950000J0D01*
G01*
%TO.C,U201*%
X118074000Y-87776000D02*
X124084000Y-87776000D01*
X120324000Y-94596000D02*
X124084000Y-94596000D01*
X124084000Y-87776000D02*
X124084000Y-89036000D01*
X124084000Y-94596000D02*
X124084000Y-93336000D01*
%TO.C,U202*%
X106410000Y-105200000D02*
X106410000Y-102750000D01*
X103190000Y-103400000D02*
X103190000Y-105200000D01*
%TD*%
%TO.C,K301*%
D11*
X179229523Y-91452380D02*
X179229523Y-90452380D01*
X179800952Y-91452380D02*
X179372380Y-90880952D01*
X179800952Y-90452380D02*
X179229523Y-91023809D01*
X180134285Y-90452380D02*
X180753333Y-90452380D01*
X180420000Y-90833333D01*
X180562857Y-90833333D01*
X180658095Y-90880952D01*
X180705714Y-90928571D01*
X180753333Y-91023809D01*
X180753333Y-91261904D01*
X180705714Y-91357142D01*
X180658095Y-91404761D01*
X180562857Y-91452380D01*
X180277142Y-91452380D01*
X180181904Y-91404761D01*
X180134285Y-91357142D01*
X181372380Y-90452380D02*
X181467619Y-90452380D01*
X181562857Y-90500000D01*
X181610476Y-90547619D01*
X181658095Y-90642857D01*
X181705714Y-90833333D01*
X181705714Y-91071428D01*
X181658095Y-91261904D01*
X181610476Y-91357142D01*
X181562857Y-91404761D01*
X181467619Y-91452380D01*
X181372380Y-91452380D01*
X181277142Y-91404761D01*
X181229523Y-91357142D01*
X181181904Y-91261904D01*
X181134285Y-91071428D01*
X181134285Y-90833333D01*
X181181904Y-90642857D01*
X181229523Y-90547619D01*
X181277142Y-90500000D01*
X181372380Y-90452380D01*
X182658095Y-91452380D02*
X182086666Y-91452380D01*
X182372380Y-91452380D02*
X182372380Y-90452380D01*
X182277142Y-90595238D01*
X182181904Y-90690476D01*
X182086666Y-90738095D01*
%TO.C,K401*%
X160729523Y-91452380D02*
X160729523Y-90452380D01*
X161300952Y-91452380D02*
X160872380Y-90880952D01*
X161300952Y-90452380D02*
X160729523Y-91023809D01*
X162158095Y-90785714D02*
X162158095Y-91452380D01*
X161920000Y-90404761D02*
X161681904Y-91119047D01*
X162300952Y-91119047D01*
X162872380Y-90452380D02*
X162967619Y-90452380D01*
X163062857Y-90500000D01*
X163110476Y-90547619D01*
X163158095Y-90642857D01*
X163205714Y-90833333D01*
X163205714Y-91071428D01*
X163158095Y-91261904D01*
X163110476Y-91357142D01*
X163062857Y-91404761D01*
X162967619Y-91452380D01*
X162872380Y-91452380D01*
X162777142Y-91404761D01*
X162729523Y-91357142D01*
X162681904Y-91261904D01*
X162634285Y-91071428D01*
X162634285Y-90833333D01*
X162681904Y-90642857D01*
X162729523Y-90547619D01*
X162777142Y-90500000D01*
X162872380Y-90452380D01*
X164158095Y-91452380D02*
X163586666Y-91452380D01*
X163872380Y-91452380D02*
X163872380Y-90452380D01*
X163777142Y-90595238D01*
X163681904Y-90690476D01*
X163586666Y-90738095D01*
%TO.C,C203*%
X119143142Y-84113047D02*
X119190761Y-84160666D01*
X119238380Y-84303523D01*
X119238380Y-84398761D01*
X119190761Y-84541619D01*
X119095523Y-84636857D01*
X119000285Y-84684476D01*
X118809809Y-84732095D01*
X118666952Y-84732095D01*
X118476476Y-84684476D01*
X118381238Y-84636857D01*
X118286000Y-84541619D01*
X118238380Y-84398761D01*
X118238380Y-84303523D01*
X118286000Y-84160666D01*
X118333619Y-84113047D01*
X118333619Y-83732095D02*
X118286000Y-83684476D01*
X118238380Y-83589238D01*
X118238380Y-83351142D01*
X118286000Y-83255904D01*
X118333619Y-83208285D01*
X118428857Y-83160666D01*
X118524095Y-83160666D01*
X118666952Y-83208285D01*
X119238380Y-83779714D01*
X119238380Y-83160666D01*
X118238380Y-82541619D02*
X118238380Y-82446380D01*
X118286000Y-82351142D01*
X118333619Y-82303523D01*
X118428857Y-82255904D01*
X118619333Y-82208285D01*
X118857428Y-82208285D01*
X119047904Y-82255904D01*
X119143142Y-82303523D01*
X119190761Y-82351142D01*
X119238380Y-82446380D01*
X119238380Y-82541619D01*
X119190761Y-82636857D01*
X119143142Y-82684476D01*
X119047904Y-82732095D01*
X118857428Y-82779714D01*
X118619333Y-82779714D01*
X118428857Y-82732095D01*
X118333619Y-82684476D01*
X118286000Y-82636857D01*
X118238380Y-82541619D01*
X118238380Y-81874952D02*
X118238380Y-81255904D01*
X118619333Y-81589238D01*
X118619333Y-81446380D01*
X118666952Y-81351142D01*
X118714571Y-81303523D01*
X118809809Y-81255904D01*
X119047904Y-81255904D01*
X119143142Y-81303523D01*
X119190761Y-81351142D01*
X119238380Y-81446380D01*
X119238380Y-81732095D01*
X119190761Y-81827333D01*
X119143142Y-81874952D01*
%TO.C,L201*%
X109330952Y-97052380D02*
X108854761Y-97052380D01*
X108854761Y-96052380D01*
X109616666Y-96147619D02*
X109664285Y-96100000D01*
X109759523Y-96052380D01*
X109997619Y-96052380D01*
X110092857Y-96100000D01*
X110140476Y-96147619D01*
X110188095Y-96242857D01*
X110188095Y-96338095D01*
X110140476Y-96480952D01*
X109569047Y-97052380D01*
X110188095Y-97052380D01*
X110807142Y-96052380D02*
X110902380Y-96052380D01*
X110997619Y-96100000D01*
X111045238Y-96147619D01*
X111092857Y-96242857D01*
X111140476Y-96433333D01*
X111140476Y-96671428D01*
X111092857Y-96861904D01*
X111045238Y-96957142D01*
X110997619Y-97004761D01*
X110902380Y-97052380D01*
X110807142Y-97052380D01*
X110711904Y-97004761D01*
X110664285Y-96957142D01*
X110616666Y-96861904D01*
X110569047Y-96671428D01*
X110569047Y-96433333D01*
X110616666Y-96242857D01*
X110664285Y-96147619D01*
X110711904Y-96100000D01*
X110807142Y-96052380D01*
X112092857Y-97052380D02*
X111521428Y-97052380D01*
X111807142Y-97052380D02*
X111807142Y-96052380D01*
X111711904Y-96195238D01*
X111616666Y-96290476D01*
X111521428Y-96338095D01*
%TO.C,C201*%
X98655142Y-101195047D02*
X98702761Y-101242666D01*
X98750380Y-101385523D01*
X98750380Y-101480761D01*
X98702761Y-101623619D01*
X98607523Y-101718857D01*
X98512285Y-101766476D01*
X98321809Y-101814095D01*
X98178952Y-101814095D01*
X97988476Y-101766476D01*
X97893238Y-101718857D01*
X97798000Y-101623619D01*
X97750380Y-101480761D01*
X97750380Y-101385523D01*
X97798000Y-101242666D01*
X97845619Y-101195047D01*
X97845619Y-100814095D02*
X97798000Y-100766476D01*
X97750380Y-100671238D01*
X97750380Y-100433142D01*
X97798000Y-100337904D01*
X97845619Y-100290285D01*
X97940857Y-100242666D01*
X98036095Y-100242666D01*
X98178952Y-100290285D01*
X98750380Y-100861714D01*
X98750380Y-100242666D01*
X97750380Y-99623619D02*
X97750380Y-99528380D01*
X97798000Y-99433142D01*
X97845619Y-99385523D01*
X97940857Y-99337904D01*
X98131333Y-99290285D01*
X98369428Y-99290285D01*
X98559904Y-99337904D01*
X98655142Y-99385523D01*
X98702761Y-99433142D01*
X98750380Y-99528380D01*
X98750380Y-99623619D01*
X98702761Y-99718857D01*
X98655142Y-99766476D01*
X98559904Y-99814095D01*
X98369428Y-99861714D01*
X98131333Y-99861714D01*
X97940857Y-99814095D01*
X97845619Y-99766476D01*
X97798000Y-99718857D01*
X97750380Y-99623619D01*
X98750380Y-98337904D02*
X98750380Y-98909333D01*
X98750380Y-98623619D02*
X97750380Y-98623619D01*
X97893238Y-98718857D01*
X97988476Y-98814095D01*
X98036095Y-98909333D01*
%TO.C,C202*%
X99417142Y-96115047D02*
X99464761Y-96162666D01*
X99512380Y-96305523D01*
X99512380Y-96400761D01*
X99464761Y-96543619D01*
X99369523Y-96638857D01*
X99274285Y-96686476D01*
X99083809Y-96734095D01*
X98940952Y-96734095D01*
X98750476Y-96686476D01*
X98655238Y-96638857D01*
X98560000Y-96543619D01*
X98512380Y-96400761D01*
X98512380Y-96305523D01*
X98560000Y-96162666D01*
X98607619Y-96115047D01*
X98607619Y-95734095D02*
X98560000Y-95686476D01*
X98512380Y-95591238D01*
X98512380Y-95353142D01*
X98560000Y-95257904D01*
X98607619Y-95210285D01*
X98702857Y-95162666D01*
X98798095Y-95162666D01*
X98940952Y-95210285D01*
X99512380Y-95781714D01*
X99512380Y-95162666D01*
X98512380Y-94543619D02*
X98512380Y-94448380D01*
X98560000Y-94353142D01*
X98607619Y-94305523D01*
X98702857Y-94257904D01*
X98893333Y-94210285D01*
X99131428Y-94210285D01*
X99321904Y-94257904D01*
X99417142Y-94305523D01*
X99464761Y-94353142D01*
X99512380Y-94448380D01*
X99512380Y-94543619D01*
X99464761Y-94638857D01*
X99417142Y-94686476D01*
X99321904Y-94734095D01*
X99131428Y-94781714D01*
X98893333Y-94781714D01*
X98702857Y-94734095D01*
X98607619Y-94686476D01*
X98560000Y-94638857D01*
X98512380Y-94543619D01*
X98607619Y-93829333D02*
X98560000Y-93781714D01*
X98512380Y-93686476D01*
X98512380Y-93448380D01*
X98560000Y-93353142D01*
X98607619Y-93305523D01*
X98702857Y-93257904D01*
X98798095Y-93257904D01*
X98940952Y-93305523D01*
X99512380Y-93876952D01*
X99512380Y-93257904D01*
%TO.C,C204*%
X105230952Y-89127142D02*
X105183333Y-89174761D01*
X105040476Y-89222380D01*
X104945238Y-89222380D01*
X104802380Y-89174761D01*
X104707142Y-89079523D01*
X104659523Y-88984285D01*
X104611904Y-88793809D01*
X104611904Y-88650952D01*
X104659523Y-88460476D01*
X104707142Y-88365238D01*
X104802380Y-88270000D01*
X104945238Y-88222380D01*
X105040476Y-88222380D01*
X105183333Y-88270000D01*
X105230952Y-88317619D01*
X105611904Y-88317619D02*
X105659523Y-88270000D01*
X105754761Y-88222380D01*
X105992857Y-88222380D01*
X106088095Y-88270000D01*
X106135714Y-88317619D01*
X106183333Y-88412857D01*
X106183333Y-88508095D01*
X106135714Y-88650952D01*
X105564285Y-89222380D01*
X106183333Y-89222380D01*
X106802380Y-88222380D02*
X106897619Y-88222380D01*
X106992857Y-88270000D01*
X107040476Y-88317619D01*
X107088095Y-88412857D01*
X107135714Y-88603333D01*
X107135714Y-88841428D01*
X107088095Y-89031904D01*
X107040476Y-89127142D01*
X106992857Y-89174761D01*
X106897619Y-89222380D01*
X106802380Y-89222380D01*
X106707142Y-89174761D01*
X106659523Y-89127142D01*
X106611904Y-89031904D01*
X106564285Y-88841428D01*
X106564285Y-88603333D01*
X106611904Y-88412857D01*
X106659523Y-88317619D01*
X106707142Y-88270000D01*
X106802380Y-88222380D01*
X107992857Y-88555714D02*
X107992857Y-89222380D01*
X107754761Y-88174761D02*
X107516666Y-88889047D01*
X108135714Y-88889047D01*
%TO.C,C205*%
X109992857Y-108521428D02*
X109950000Y-108564285D01*
X109821428Y-108607142D01*
X109735714Y-108607142D01*
X109607142Y-108564285D01*
X109521428Y-108478571D01*
X109478571Y-108392857D01*
X109435714Y-108221428D01*
X109435714Y-108092857D01*
X109478571Y-107921428D01*
X109521428Y-107835714D01*
X109607142Y-107750000D01*
X109735714Y-107707142D01*
X109821428Y-107707142D01*
X109950000Y-107750000D01*
X109992857Y-107792857D01*
X110335714Y-107792857D02*
X110378571Y-107750000D01*
X110464285Y-107707142D01*
X110678571Y-107707142D01*
X110764285Y-107750000D01*
X110807142Y-107792857D01*
X110850000Y-107878571D01*
X110850000Y-107964285D01*
X110807142Y-108092857D01*
X110292857Y-108607142D01*
X110850000Y-108607142D01*
X111407142Y-107707142D02*
X111492857Y-107707142D01*
X111578571Y-107750000D01*
X111621428Y-107792857D01*
X111664285Y-107878571D01*
X111707142Y-108050000D01*
X111707142Y-108264285D01*
X111664285Y-108435714D01*
X111621428Y-108521428D01*
X111578571Y-108564285D01*
X111492857Y-108607142D01*
X111407142Y-108607142D01*
X111321428Y-108564285D01*
X111278571Y-108521428D01*
X111235714Y-108435714D01*
X111192857Y-108264285D01*
X111192857Y-108050000D01*
X111235714Y-107878571D01*
X111278571Y-107792857D01*
X111321428Y-107750000D01*
X111407142Y-107707142D01*
X112521428Y-107707142D02*
X112092857Y-107707142D01*
X112050000Y-108135714D01*
X112092857Y-108092857D01*
X112178571Y-108050000D01*
X112392857Y-108050000D01*
X112478571Y-108092857D01*
X112521428Y-108135714D01*
X112564285Y-108221428D01*
X112564285Y-108435714D01*
X112521428Y-108521428D01*
X112478571Y-108564285D01*
X112392857Y-108607142D01*
X112178571Y-108607142D01*
X112092857Y-108564285D01*
X112050000Y-108521428D01*
%TO.C,C206*%
X114092857Y-108521428D02*
X114050000Y-108564285D01*
X113921428Y-108607142D01*
X113835714Y-108607142D01*
X113707142Y-108564285D01*
X113621428Y-108478571D01*
X113578571Y-108392857D01*
X113535714Y-108221428D01*
X113535714Y-108092857D01*
X113578571Y-107921428D01*
X113621428Y-107835714D01*
X113707142Y-107750000D01*
X113835714Y-107707142D01*
X113921428Y-107707142D01*
X114050000Y-107750000D01*
X114092857Y-107792857D01*
X114435714Y-107792857D02*
X114478571Y-107750000D01*
X114564285Y-107707142D01*
X114778571Y-107707142D01*
X114864285Y-107750000D01*
X114907142Y-107792857D01*
X114950000Y-107878571D01*
X114950000Y-107964285D01*
X114907142Y-108092857D01*
X114392857Y-108607142D01*
X114950000Y-108607142D01*
X115507142Y-107707142D02*
X115592857Y-107707142D01*
X115678571Y-107750000D01*
X115721428Y-107792857D01*
X115764285Y-107878571D01*
X115807142Y-108050000D01*
X115807142Y-108264285D01*
X115764285Y-108435714D01*
X115721428Y-108521428D01*
X115678571Y-108564285D01*
X115592857Y-108607142D01*
X115507142Y-108607142D01*
X115421428Y-108564285D01*
X115378571Y-108521428D01*
X115335714Y-108435714D01*
X115292857Y-108264285D01*
X115292857Y-108050000D01*
X115335714Y-107878571D01*
X115378571Y-107792857D01*
X115421428Y-107750000D01*
X115507142Y-107707142D01*
X116578571Y-107707142D02*
X116407142Y-107707142D01*
X116321428Y-107750000D01*
X116278571Y-107792857D01*
X116192857Y-107921428D01*
X116150000Y-108092857D01*
X116150000Y-108435714D01*
X116192857Y-108521428D01*
X116235714Y-108564285D01*
X116321428Y-108607142D01*
X116492857Y-108607142D01*
X116578571Y-108564285D01*
X116621428Y-108521428D01*
X116664285Y-108435714D01*
X116664285Y-108221428D01*
X116621428Y-108135714D01*
X116578571Y-108092857D01*
X116492857Y-108050000D01*
X116321428Y-108050000D01*
X116235714Y-108092857D01*
X116192857Y-108135714D01*
X116150000Y-108221428D01*
%TO.C,C207*%
X98957142Y-108219047D02*
X99004761Y-108266666D01*
X99052380Y-108409523D01*
X99052380Y-108504761D01*
X99004761Y-108647619D01*
X98909523Y-108742857D01*
X98814285Y-108790476D01*
X98623809Y-108838095D01*
X98480952Y-108838095D01*
X98290476Y-108790476D01*
X98195238Y-108742857D01*
X98100000Y-108647619D01*
X98052380Y-108504761D01*
X98052380Y-108409523D01*
X98100000Y-108266666D01*
X98147619Y-108219047D01*
X98147619Y-107838095D02*
X98100000Y-107790476D01*
X98052380Y-107695238D01*
X98052380Y-107457142D01*
X98100000Y-107361904D01*
X98147619Y-107314285D01*
X98242857Y-107266666D01*
X98338095Y-107266666D01*
X98480952Y-107314285D01*
X99052380Y-107885714D01*
X99052380Y-107266666D01*
X98052380Y-106647619D02*
X98052380Y-106552380D01*
X98100000Y-106457142D01*
X98147619Y-106409523D01*
X98242857Y-106361904D01*
X98433333Y-106314285D01*
X98671428Y-106314285D01*
X98861904Y-106361904D01*
X98957142Y-106409523D01*
X99004761Y-106457142D01*
X99052380Y-106552380D01*
X99052380Y-106647619D01*
X99004761Y-106742857D01*
X98957142Y-106790476D01*
X98861904Y-106838095D01*
X98671428Y-106885714D01*
X98433333Y-106885714D01*
X98242857Y-106838095D01*
X98147619Y-106790476D01*
X98100000Y-106742857D01*
X98052380Y-106647619D01*
X98052380Y-105980952D02*
X98052380Y-105314285D01*
X99052380Y-105742857D01*
%TO.C,C208*%
X121835142Y-83603047D02*
X121882761Y-83650666D01*
X121930380Y-83793523D01*
X121930380Y-83888761D01*
X121882761Y-84031619D01*
X121787523Y-84126857D01*
X121692285Y-84174476D01*
X121501809Y-84222095D01*
X121358952Y-84222095D01*
X121168476Y-84174476D01*
X121073238Y-84126857D01*
X120978000Y-84031619D01*
X120930380Y-83888761D01*
X120930380Y-83793523D01*
X120978000Y-83650666D01*
X121025619Y-83603047D01*
X121025619Y-83222095D02*
X120978000Y-83174476D01*
X120930380Y-83079238D01*
X120930380Y-82841142D01*
X120978000Y-82745904D01*
X121025619Y-82698285D01*
X121120857Y-82650666D01*
X121216095Y-82650666D01*
X121358952Y-82698285D01*
X121930380Y-83269714D01*
X121930380Y-82650666D01*
X120930380Y-82031619D02*
X120930380Y-81936380D01*
X120978000Y-81841142D01*
X121025619Y-81793523D01*
X121120857Y-81745904D01*
X121311333Y-81698285D01*
X121549428Y-81698285D01*
X121739904Y-81745904D01*
X121835142Y-81793523D01*
X121882761Y-81841142D01*
X121930380Y-81936380D01*
X121930380Y-82031619D01*
X121882761Y-82126857D01*
X121835142Y-82174476D01*
X121739904Y-82222095D01*
X121549428Y-82269714D01*
X121311333Y-82269714D01*
X121120857Y-82222095D01*
X121025619Y-82174476D01*
X120978000Y-82126857D01*
X120930380Y-82031619D01*
X121358952Y-81126857D02*
X121311333Y-81222095D01*
X121263714Y-81269714D01*
X121168476Y-81317333D01*
X121120857Y-81317333D01*
X121025619Y-81269714D01*
X120978000Y-81222095D01*
X120930380Y-81126857D01*
X120930380Y-80936380D01*
X120978000Y-80841142D01*
X121025619Y-80793523D01*
X121120857Y-80745904D01*
X121168476Y-80745904D01*
X121263714Y-80793523D01*
X121311333Y-80841142D01*
X121358952Y-80936380D01*
X121358952Y-81126857D01*
X121406571Y-81222095D01*
X121454190Y-81269714D01*
X121549428Y-81317333D01*
X121739904Y-81317333D01*
X121835142Y-81269714D01*
X121882761Y-81222095D01*
X121930380Y-81126857D01*
X121930380Y-80936380D01*
X121882761Y-80841142D01*
X121835142Y-80793523D01*
X121739904Y-80745904D01*
X121549428Y-80745904D01*
X121454190Y-80793523D01*
X121406571Y-80841142D01*
X121358952Y-80936380D01*
%TO.C,D201*%
X100452380Y-90040476D02*
X99452380Y-90040476D01*
X99452380Y-89802380D01*
X99500000Y-89659523D01*
X99595238Y-89564285D01*
X99690476Y-89516666D01*
X99880952Y-89469047D01*
X100023809Y-89469047D01*
X100214285Y-89516666D01*
X100309523Y-89564285D01*
X100404761Y-89659523D01*
X100452380Y-89802380D01*
X100452380Y-90040476D01*
X99547619Y-89088095D02*
X99500000Y-89040476D01*
X99452380Y-88945238D01*
X99452380Y-88707142D01*
X99500000Y-88611904D01*
X99547619Y-88564285D01*
X99642857Y-88516666D01*
X99738095Y-88516666D01*
X99880952Y-88564285D01*
X100452380Y-89135714D01*
X100452380Y-88516666D01*
X99452380Y-87897619D02*
X99452380Y-87802380D01*
X99500000Y-87707142D01*
X99547619Y-87659523D01*
X99642857Y-87611904D01*
X99833333Y-87564285D01*
X100071428Y-87564285D01*
X100261904Y-87611904D01*
X100357142Y-87659523D01*
X100404761Y-87707142D01*
X100452380Y-87802380D01*
X100452380Y-87897619D01*
X100404761Y-87992857D01*
X100357142Y-88040476D01*
X100261904Y-88088095D01*
X100071428Y-88135714D01*
X99833333Y-88135714D01*
X99642857Y-88088095D01*
X99547619Y-88040476D01*
X99500000Y-87992857D01*
X99452380Y-87897619D01*
X100452380Y-86611904D02*
X100452380Y-87183333D01*
X100452380Y-86897619D02*
X99452380Y-86897619D01*
X99595238Y-86992857D01*
X99690476Y-87088095D01*
X99738095Y-87183333D01*
%TO.C,R501*%
X142184380Y-83518547D02*
X141708190Y-83851880D01*
X142184380Y-84089976D02*
X141184380Y-84089976D01*
X141184380Y-83709023D01*
X141232000Y-83613785D01*
X141279619Y-83566166D01*
X141374857Y-83518547D01*
X141517714Y-83518547D01*
X141612952Y-83566166D01*
X141660571Y-83613785D01*
X141708190Y-83709023D01*
X141708190Y-84089976D01*
X141184380Y-82613785D02*
X141184380Y-83089976D01*
X141660571Y-83137595D01*
X141612952Y-83089976D01*
X141565333Y-82994738D01*
X141565333Y-82756642D01*
X141612952Y-82661404D01*
X141660571Y-82613785D01*
X141755809Y-82566166D01*
X141993904Y-82566166D01*
X142089142Y-82613785D01*
X142136761Y-82661404D01*
X142184380Y-82756642D01*
X142184380Y-82994738D01*
X142136761Y-83089976D01*
X142089142Y-83137595D01*
X141184380Y-81947119D02*
X141184380Y-81851880D01*
X141232000Y-81756642D01*
X141279619Y-81709023D01*
X141374857Y-81661404D01*
X141565333Y-81613785D01*
X141803428Y-81613785D01*
X141993904Y-81661404D01*
X142089142Y-81709023D01*
X142136761Y-81756642D01*
X142184380Y-81851880D01*
X142184380Y-81947119D01*
X142136761Y-82042357D01*
X142089142Y-82089976D01*
X141993904Y-82137595D01*
X141803428Y-82185214D01*
X141565333Y-82185214D01*
X141374857Y-82137595D01*
X141279619Y-82089976D01*
X141232000Y-82042357D01*
X141184380Y-81947119D01*
X142184380Y-80661404D02*
X142184380Y-81232833D01*
X142184380Y-80947119D02*
X141184380Y-80947119D01*
X141327238Y-81042357D01*
X141422476Y-81137595D01*
X141470095Y-81232833D01*
%TO.C,R502*%
X145232380Y-83518547D02*
X144756190Y-83851880D01*
X145232380Y-84089976D02*
X144232380Y-84089976D01*
X144232380Y-83709023D01*
X144280000Y-83613785D01*
X144327619Y-83566166D01*
X144422857Y-83518547D01*
X144565714Y-83518547D01*
X144660952Y-83566166D01*
X144708571Y-83613785D01*
X144756190Y-83709023D01*
X144756190Y-84089976D01*
X144232380Y-82613785D02*
X144232380Y-83089976D01*
X144708571Y-83137595D01*
X144660952Y-83089976D01*
X144613333Y-82994738D01*
X144613333Y-82756642D01*
X144660952Y-82661404D01*
X144708571Y-82613785D01*
X144803809Y-82566166D01*
X145041904Y-82566166D01*
X145137142Y-82613785D01*
X145184761Y-82661404D01*
X145232380Y-82756642D01*
X145232380Y-82994738D01*
X145184761Y-83089976D01*
X145137142Y-83137595D01*
X144232380Y-81947119D02*
X144232380Y-81851880D01*
X144280000Y-81756642D01*
X144327619Y-81709023D01*
X144422857Y-81661404D01*
X144613333Y-81613785D01*
X144851428Y-81613785D01*
X145041904Y-81661404D01*
X145137142Y-81709023D01*
X145184761Y-81756642D01*
X145232380Y-81851880D01*
X145232380Y-81947119D01*
X145184761Y-82042357D01*
X145137142Y-82089976D01*
X145041904Y-82137595D01*
X144851428Y-82185214D01*
X144613333Y-82185214D01*
X144422857Y-82137595D01*
X144327619Y-82089976D01*
X144280000Y-82042357D01*
X144232380Y-81947119D01*
X144327619Y-81232833D02*
X144280000Y-81185214D01*
X144232380Y-81089976D01*
X144232380Y-80851880D01*
X144280000Y-80756642D01*
X144327619Y-80709023D01*
X144422857Y-80661404D01*
X144518095Y-80661404D01*
X144660952Y-80709023D01*
X145232380Y-81280452D01*
X145232380Y-80661404D01*
%TO.C,R701*%
X139136380Y-83415047D02*
X138660190Y-83748380D01*
X139136380Y-83986476D02*
X138136380Y-83986476D01*
X138136380Y-83605523D01*
X138184000Y-83510285D01*
X138231619Y-83462666D01*
X138326857Y-83415047D01*
X138469714Y-83415047D01*
X138564952Y-83462666D01*
X138612571Y-83510285D01*
X138660190Y-83605523D01*
X138660190Y-83986476D01*
X138136380Y-83081714D02*
X138136380Y-82415047D01*
X139136380Y-82843619D01*
X138136380Y-81843619D02*
X138136380Y-81748380D01*
X138184000Y-81653142D01*
X138231619Y-81605523D01*
X138326857Y-81557904D01*
X138517333Y-81510285D01*
X138755428Y-81510285D01*
X138945904Y-81557904D01*
X139041142Y-81605523D01*
X139088761Y-81653142D01*
X139136380Y-81748380D01*
X139136380Y-81843619D01*
X139088761Y-81938857D01*
X139041142Y-81986476D01*
X138945904Y-82034095D01*
X138755428Y-82081714D01*
X138517333Y-82081714D01*
X138326857Y-82034095D01*
X138231619Y-81986476D01*
X138184000Y-81938857D01*
X138136380Y-81843619D01*
X139136380Y-80557904D02*
X139136380Y-81129333D01*
X139136380Y-80843619D02*
X138136380Y-80843619D01*
X138279238Y-80938857D01*
X138374476Y-81034095D01*
X138422095Y-81129333D01*
%TO.C,R702*%
X136088380Y-83415047D02*
X135612190Y-83748380D01*
X136088380Y-83986476D02*
X135088380Y-83986476D01*
X135088380Y-83605523D01*
X135136000Y-83510285D01*
X135183619Y-83462666D01*
X135278857Y-83415047D01*
X135421714Y-83415047D01*
X135516952Y-83462666D01*
X135564571Y-83510285D01*
X135612190Y-83605523D01*
X135612190Y-83986476D01*
X135088380Y-83081714D02*
X135088380Y-82415047D01*
X136088380Y-82843619D01*
X135088380Y-81843619D02*
X135088380Y-81748380D01*
X135136000Y-81653142D01*
X135183619Y-81605523D01*
X135278857Y-81557904D01*
X135469333Y-81510285D01*
X135707428Y-81510285D01*
X135897904Y-81557904D01*
X135993142Y-81605523D01*
X136040761Y-81653142D01*
X136088380Y-81748380D01*
X136088380Y-81843619D01*
X136040761Y-81938857D01*
X135993142Y-81986476D01*
X135897904Y-82034095D01*
X135707428Y-82081714D01*
X135469333Y-82081714D01*
X135278857Y-82034095D01*
X135183619Y-81986476D01*
X135136000Y-81938857D01*
X135088380Y-81843619D01*
X135183619Y-81129333D02*
X135136000Y-81081714D01*
X135088380Y-80986476D01*
X135088380Y-80748380D01*
X135136000Y-80653142D01*
X135183619Y-80605523D01*
X135278857Y-80557904D01*
X135374095Y-80557904D01*
X135516952Y-80605523D01*
X136088380Y-81176952D01*
X136088380Y-80557904D01*
%TO.C,R703*%
X133040380Y-83415047D02*
X132564190Y-83748380D01*
X133040380Y-83986476D02*
X132040380Y-83986476D01*
X132040380Y-83605523D01*
X132088000Y-83510285D01*
X132135619Y-83462666D01*
X132230857Y-83415047D01*
X132373714Y-83415047D01*
X132468952Y-83462666D01*
X132516571Y-83510285D01*
X132564190Y-83605523D01*
X132564190Y-83986476D01*
X132040380Y-83081714D02*
X132040380Y-82415047D01*
X133040380Y-82843619D01*
X132040380Y-81843619D02*
X132040380Y-81748380D01*
X132088000Y-81653142D01*
X132135619Y-81605523D01*
X132230857Y-81557904D01*
X132421333Y-81510285D01*
X132659428Y-81510285D01*
X132849904Y-81557904D01*
X132945142Y-81605523D01*
X132992761Y-81653142D01*
X133040380Y-81748380D01*
X133040380Y-81843619D01*
X132992761Y-81938857D01*
X132945142Y-81986476D01*
X132849904Y-82034095D01*
X132659428Y-82081714D01*
X132421333Y-82081714D01*
X132230857Y-82034095D01*
X132135619Y-81986476D01*
X132088000Y-81938857D01*
X132040380Y-81843619D01*
X132040380Y-81176952D02*
X132040380Y-80557904D01*
X132421333Y-80891238D01*
X132421333Y-80748380D01*
X132468952Y-80653142D01*
X132516571Y-80605523D01*
X132611809Y-80557904D01*
X132849904Y-80557904D01*
X132945142Y-80605523D01*
X132992761Y-80653142D01*
X133040380Y-80748380D01*
X133040380Y-81034095D01*
X132992761Y-81129333D01*
X132945142Y-81176952D01*
%TO.C,U201*%
X121626380Y-92900285D02*
X122435904Y-92900285D01*
X122531142Y-92852666D01*
X122578761Y-92805047D01*
X122626380Y-92709809D01*
X122626380Y-92519333D01*
X122578761Y-92424095D01*
X122531142Y-92376476D01*
X122435904Y-92328857D01*
X121626380Y-92328857D01*
X121721619Y-91900285D02*
X121674000Y-91852666D01*
X121626380Y-91757428D01*
X121626380Y-91519333D01*
X121674000Y-91424095D01*
X121721619Y-91376476D01*
X121816857Y-91328857D01*
X121912095Y-91328857D01*
X122054952Y-91376476D01*
X122626380Y-91947904D01*
X122626380Y-91328857D01*
X121626380Y-90709809D02*
X121626380Y-90614571D01*
X121674000Y-90519333D01*
X121721619Y-90471714D01*
X121816857Y-90424095D01*
X122007333Y-90376476D01*
X122245428Y-90376476D01*
X122435904Y-90424095D01*
X122531142Y-90471714D01*
X122578761Y-90519333D01*
X122626380Y-90614571D01*
X122626380Y-90709809D01*
X122578761Y-90805047D01*
X122531142Y-90852666D01*
X122435904Y-90900285D01*
X122245428Y-90947904D01*
X122007333Y-90947904D01*
X121816857Y-90900285D01*
X121721619Y-90852666D01*
X121674000Y-90805047D01*
X121626380Y-90709809D01*
X122626380Y-89424095D02*
X122626380Y-89995523D01*
X122626380Y-89709809D02*
X121626380Y-89709809D01*
X121769238Y-89805047D01*
X121864476Y-89900285D01*
X121912095Y-89995523D01*
%TO.C,U202*%
X105007142Y-106507142D02*
X105007142Y-107235714D01*
X105050000Y-107321428D01*
X105092857Y-107364285D01*
X105178571Y-107407142D01*
X105350000Y-107407142D01*
X105435714Y-107364285D01*
X105478571Y-107321428D01*
X105521428Y-107235714D01*
X105521428Y-106507142D01*
X105907142Y-106592857D02*
X105950000Y-106550000D01*
X106035714Y-106507142D01*
X106250000Y-106507142D01*
X106335714Y-106550000D01*
X106378571Y-106592857D01*
X106421428Y-106678571D01*
X106421428Y-106764285D01*
X106378571Y-106892857D01*
X105864285Y-107407142D01*
X106421428Y-107407142D01*
X106978571Y-106507142D02*
X107064285Y-106507142D01*
X107150000Y-106550000D01*
X107192857Y-106592857D01*
X107235714Y-106678571D01*
X107278571Y-106850000D01*
X107278571Y-107064285D01*
X107235714Y-107235714D01*
X107192857Y-107321428D01*
X107150000Y-107364285D01*
X107064285Y-107407142D01*
X106978571Y-107407142D01*
X106892857Y-107364285D01*
X106850000Y-107321428D01*
X106807142Y-107235714D01*
X106764285Y-107064285D01*
X106764285Y-106850000D01*
X106807142Y-106678571D01*
X106850000Y-106592857D01*
X106892857Y-106550000D01*
X106978571Y-106507142D01*
X107621428Y-106592857D02*
X107664285Y-106550000D01*
X107750000Y-106507142D01*
X107964285Y-106507142D01*
X108050000Y-106550000D01*
X108092857Y-106592857D01*
X108135714Y-106678571D01*
X108135714Y-106764285D01*
X108092857Y-106892857D01*
X107578571Y-107407142D01*
X108135714Y-107407142D01*
%TD*%
M02*
