%TF.GenerationSoftware,KiCad,Pcbnew,5.1.9-73d0e3b20d~88~ubuntu18.04.1*%
%TF.CreationDate,2021-03-24T04:21:48+02:00*%
%TF.ProjectId,Electra,456c6563-7472-4612-9e6b-696361645f70,rev?*%
%TF.SameCoordinates,Original*%
%TF.FileFunction,Copper,L2,Bot*%
%TF.FilePolarity,Positive*%
%FSLAX46Y46*%
G04 Gerber Fmt 4.6, Leading zero omitted, Abs format (unit mm)*
G04 Created by KiCad (PCBNEW 5.1.9-73d0e3b20d~88~ubuntu18.04.1) date 2021-03-24 04:21:48*
%MOMM*%
%LPD*%
G01*
G04 APERTURE LIST*
%TA.AperFunction,EtchedComponent*%
%ADD10C,0.100000*%
%TD*%
%TA.AperFunction,ComponentPad*%
%ADD11C,2.600000*%
%TD*%
%TA.AperFunction,ComponentPad*%
%ADD12C,3.000000*%
%TD*%
%TA.AperFunction,ComponentPad*%
%ADD13R,1.700000X1.700000*%
%TD*%
%TA.AperFunction,ComponentPad*%
%ADD14O,1.700000X1.700000*%
%TD*%
%TA.AperFunction,ComponentPad*%
%ADD15O,1.700000X2.000000*%
%TD*%
%TA.AperFunction,ComponentPad*%
%ADD16C,4.400000*%
%TD*%
%TA.AperFunction,ComponentPad*%
%ADD17C,0.700000*%
%TD*%
%TA.AperFunction,ComponentPad*%
%ADD18R,3.000000X3.000000*%
%TD*%
%TA.AperFunction,ComponentPad*%
%ADD19R,3.500000X3.500000*%
%TD*%
%TA.AperFunction,ComponentPad*%
%ADD20C,1.450000*%
%TD*%
%TA.AperFunction,ComponentPad*%
%ADD21O,1.200000X1.900000*%
%TD*%
%TA.AperFunction,SMDPad,CuDef*%
%ADD22C,0.100000*%
%TD*%
%TA.AperFunction,SMDPad,CuDef*%
%ADD23R,2.500000X1.000000*%
%TD*%
%TA.AperFunction,SMDPad,CuDef*%
%ADD24R,1.000000X1.800000*%
%TD*%
%TA.AperFunction,ViaPad*%
%ADD25C,0.800000*%
%TD*%
%TA.AperFunction,Conductor*%
%ADD26C,0.250000*%
%TD*%
%TA.AperFunction,Conductor*%
%ADD27C,1.200000*%
%TD*%
%TA.AperFunction,Conductor*%
%ADD28C,0.700000*%
%TD*%
%TA.AperFunction,Conductor*%
%ADD29C,0.500000*%
%TD*%
%TA.AperFunction,Conductor*%
%ADD30C,4.000000*%
%TD*%
%TA.AperFunction,Conductor*%
%ADD31C,0.254000*%
%TD*%
%TA.AperFunction,Conductor*%
%ADD32C,0.100000*%
%TD*%
G04 APERTURE END LIST*
D10*
%TO.C,JP301*%
G36*
X190200000Y-115100000D02*
G01*
X190200000Y-115600000D01*
X189600000Y-115600000D01*
X189600000Y-115100000D01*
X190200000Y-115100000D01*
G37*
%TO.C,JP401*%
G36*
X187244000Y-115066000D02*
G01*
X187244000Y-115566000D01*
X186644000Y-115566000D01*
X186644000Y-115066000D01*
X187244000Y-115066000D01*
G37*
%TD*%
D11*
%TO.P,REF\u002A\u002A,1*%
%TO.N,N/C*%
X195000000Y-73000000D03*
%TD*%
D12*
%TO.P,K301,11*%
%TO.N,/Relay2/Relay-Common*%
X185920000Y-98000000D03*
%TO.P,K301,A2*%
%TO.N,Net-(D302-Pad1)*%
X179920000Y-96000000D03*
%TO.P,K301,12*%
%TO.N,/Relay2/Relay-Normal-Close*%
X179920000Y-83800000D03*
%TO.P,K301,14*%
%TO.N,/Relay2/Relay-Normal-Open*%
X191920000Y-83800000D03*
%TO.P,K301,A1*%
%TO.N,+5V*%
X191920000Y-96000000D03*
%TD*%
D13*
%TO.P,J801,1*%
%TO.N,+5V*%
X148000000Y-86600000D03*
D14*
%TO.P,J801,2*%
%TO.N,Net-(J801-Pad2)*%
X150540000Y-86600000D03*
%TO.P,J801,3*%
%TO.N,Net-(J801-Pad3)*%
X153080000Y-86600000D03*
%TO.P,J801,4*%
%TO.N,GND*%
X155620000Y-86600000D03*
%TD*%
D12*
%TO.P,K401,A1*%
%TO.N,+5V*%
X173920000Y-96000000D03*
%TO.P,K401,14*%
%TO.N,/Relay1/Relay-Normal-Open*%
X173920000Y-83800000D03*
%TO.P,K401,12*%
%TO.N,/Relay1/Relay-Normal-Close*%
X161920000Y-83800000D03*
%TO.P,K401,A2*%
%TO.N,Net-(D402-Pad1)*%
X161920000Y-96000000D03*
%TO.P,K401,11*%
%TO.N,/Relay1/Relay-Common*%
X167920000Y-98000000D03*
%TD*%
D14*
%TO.P,REF\u002A\u002A,4*%
%TO.N,N/C*%
X155500000Y-108080000D03*
%TO.P,REF\u002A\u002A,3*%
X155500000Y-105540000D03*
%TO.P,REF\u002A\u002A,2*%
X155500000Y-103000000D03*
D13*
%TO.P,REF\u002A\u002A,1*%
X155500000Y-100460000D03*
%TD*%
D15*
%TO.P,J501,2*%
%TO.N,GND*%
X152186000Y-75946000D03*
%TO.P,J501,1*%
%TO.N,/Switch1*%
%TA.AperFunction,ComponentPad*%
G36*
G01*
X155536000Y-75196000D02*
X155536000Y-76696000D01*
G75*
G02*
X155286000Y-76946000I-250000J0D01*
G01*
X154086000Y-76946000D01*
G75*
G02*
X153836000Y-76696000I0J250000D01*
G01*
X153836000Y-75196000D01*
G75*
G02*
X154086000Y-74946000I250000J0D01*
G01*
X155286000Y-74946000D01*
G75*
G02*
X155536000Y-75196000I0J-250000D01*
G01*
G37*
%TD.AperFunction*%
%TD*%
D16*
%TO.P,REF\u002A\u002A,1*%
%TO.N,N/C*%
X100500000Y-73500000D03*
D17*
X102150000Y-73500000D03*
X101666726Y-74666726D03*
X100500000Y-75150000D03*
X99333274Y-74666726D03*
X98850000Y-73500000D03*
X99333274Y-72333274D03*
X100500000Y-71850000D03*
X101666726Y-72333274D03*
%TD*%
%TO.P,REF\u002A\u002A,1*%
%TO.N,N/C*%
X101666726Y-114833274D03*
X100500000Y-114350000D03*
X99333274Y-114833274D03*
X98850000Y-116000000D03*
X99333274Y-117166726D03*
X100500000Y-117650000D03*
X101666726Y-117166726D03*
X102150000Y-116000000D03*
D16*
X100500000Y-116000000D03*
%TD*%
%TO.P,REF\u002A\u002A,1*%
%TO.N,N/C*%
X194500000Y-116000000D03*
D17*
X196150000Y-116000000D03*
X195666726Y-117166726D03*
X194500000Y-117650000D03*
X193333274Y-117166726D03*
X192850000Y-116000000D03*
X193333274Y-114833274D03*
X194500000Y-114350000D03*
X195666726Y-114833274D03*
%TD*%
D12*
%TO.P,J401,3*%
%TO.N,/Relay1/Relay-Normal-Open*%
X172920000Y-74510000D03*
%TO.P,J401,2*%
%TO.N,/Relay1/Relay-Common*%
X167840000Y-74510000D03*
D18*
%TO.P,J401,1*%
%TO.N,/Relay1/Relay-Normal-Close*%
X162760000Y-74510000D03*
%TD*%
D13*
%TO.P,J101,1*%
%TO.N,Net-(J101-Pad1)*%
X120000000Y-110700000D03*
D14*
%TO.P,J101,2*%
%TO.N,Net-(J101-Pad2)*%
X120000000Y-108160000D03*
%TO.P,J101,3*%
%TO.N,/L-SDL*%
X120000000Y-105620000D03*
%TO.P,J101,4*%
%TO.N,/L-SDA*%
X120000000Y-103080000D03*
%TO.P,J101,5*%
%TO.N,+3V3*%
X120000000Y-100540000D03*
%TO.P,J101,6*%
%TO.N,GND*%
X120000000Y-98000000D03*
%TD*%
%TO.P,J102,4*%
%TO.N,+3V3*%
X160000000Y-113120000D03*
%TO.P,J102,3*%
%TO.N,GND*%
X160000000Y-110580000D03*
%TO.P,J102,2*%
%TO.N,/RX*%
X160000000Y-108040000D03*
D13*
%TO.P,J102,1*%
%TO.N,/TX*%
X160000000Y-105500000D03*
%TD*%
D19*
%TO.P,J201,1*%
%TO.N,+VDC*%
X108000000Y-83250000D03*
%TO.P,J201,2*%
%TO.N,GND*%
%TA.AperFunction,ComponentPad*%
G36*
G01*
X107000000Y-75750000D02*
X109000000Y-75750000D01*
G75*
G02*
X109750000Y-76500000I0J-750000D01*
G01*
X109750000Y-78000000D01*
G75*
G02*
X109000000Y-78750000I-750000J0D01*
G01*
X107000000Y-78750000D01*
G75*
G02*
X106250000Y-78000000I0J750000D01*
G01*
X106250000Y-76500000D01*
G75*
G02*
X107000000Y-75750000I750000J0D01*
G01*
G37*
%TD.AperFunction*%
%TO.P,J201,3*%
%TO.N,N/C*%
%TA.AperFunction,ComponentPad*%
G36*
G01*
X102425000Y-78500000D02*
X104175000Y-78500000D01*
G75*
G02*
X105050000Y-79375000I0J-875000D01*
G01*
X105050000Y-81125000D01*
G75*
G02*
X104175000Y-82000000I-875000J0D01*
G01*
X102425000Y-82000000D01*
G75*
G02*
X101550000Y-81125000I0J875000D01*
G01*
X101550000Y-79375000D01*
G75*
G02*
X102425000Y-78500000I875000J0D01*
G01*
G37*
%TD.AperFunction*%
%TD*%
D20*
%TO.P,J202,6*%
%TO.N,GND*%
X120500000Y-74712500D03*
X115500000Y-74712500D03*
D21*
X121500000Y-72012500D03*
X114500000Y-72012500D03*
%TD*%
D13*
%TO.P,J203,1*%
%TO.N,Net-(C205-Pad2)*%
X111850000Y-89150000D03*
D14*
%TO.P,J203,2*%
%TO.N,+5V*%
X114390000Y-89150000D03*
%TD*%
D18*
%TO.P,J301,1*%
%TO.N,/Relay2/Relay-Normal-Close*%
X180010000Y-74510000D03*
D12*
%TO.P,J301,2*%
%TO.N,/Relay2/Relay-Common*%
X185090000Y-74510000D03*
%TO.P,J301,3*%
%TO.N,/Relay2/Relay-Normal-Open*%
X190170000Y-74510000D03*
%TD*%
%TO.P,J502,1*%
%TO.N,/Switch2*%
%TA.AperFunction,ComponentPad*%
G36*
G01*
X146646000Y-75196000D02*
X146646000Y-76696000D01*
G75*
G02*
X146396000Y-76946000I-250000J0D01*
G01*
X145196000Y-76946000D01*
G75*
G02*
X144946000Y-76696000I0J250000D01*
G01*
X144946000Y-75196000D01*
G75*
G02*
X145196000Y-74946000I250000J0D01*
G01*
X146396000Y-74946000D01*
G75*
G02*
X146646000Y-75196000I0J-250000D01*
G01*
G37*
%TD.AperFunction*%
D15*
%TO.P,J502,2*%
%TO.N,GND*%
X143296000Y-75946000D03*
%TD*%
%TO.P,J701,1*%
%TO.N,Net-(J701-Pad1)*%
%TA.AperFunction,ComponentPad*%
G36*
G01*
X137756000Y-75196000D02*
X137756000Y-76696000D01*
G75*
G02*
X137506000Y-76946000I-250000J0D01*
G01*
X136306000Y-76946000D01*
G75*
G02*
X136056000Y-76696000I0J250000D01*
G01*
X136056000Y-75196000D01*
G75*
G02*
X136306000Y-74946000I250000J0D01*
G01*
X137506000Y-74946000D01*
G75*
G02*
X137756000Y-75196000I0J-250000D01*
G01*
G37*
%TD.AperFunction*%
%TO.P,J701,2*%
%TO.N,/ESP8266/ADC*%
X134406000Y-75946000D03*
%TD*%
%TO.P,J702,2*%
%TO.N,/ESP8266/ADC*%
X125770000Y-75946000D03*
%TO.P,J702,1*%
%TO.N,Net-(J702-Pad1)*%
%TA.AperFunction,ComponentPad*%
G36*
G01*
X129120000Y-75196000D02*
X129120000Y-76696000D01*
G75*
G02*
X128870000Y-76946000I-250000J0D01*
G01*
X127670000Y-76946000D01*
G75*
G02*
X127420000Y-76696000I0J250000D01*
G01*
X127420000Y-75196000D01*
G75*
G02*
X127670000Y-74946000I250000J0D01*
G01*
X128870000Y-74946000D01*
G75*
G02*
X129120000Y-75196000I0J-250000D01*
G01*
G37*
%TD.AperFunction*%
%TD*%
%TA.AperFunction,SMDPad,CuDef*%
D22*
%TO.P,JP301,2*%
%TO.N,Net-(D302-Pad1)*%
G36*
X189150602Y-114700000D02*
G01*
X189150602Y-114675466D01*
X189155412Y-114626635D01*
X189164984Y-114578510D01*
X189179228Y-114531555D01*
X189198005Y-114486222D01*
X189221136Y-114442949D01*
X189248396Y-114402150D01*
X189279524Y-114364221D01*
X189314221Y-114329524D01*
X189352150Y-114298396D01*
X189392949Y-114271136D01*
X189436222Y-114248005D01*
X189481555Y-114229228D01*
X189528510Y-114214984D01*
X189576635Y-114205412D01*
X189625466Y-114200602D01*
X189650000Y-114200602D01*
X189650000Y-114200000D01*
X190150000Y-114200000D01*
X190150000Y-114200602D01*
X190174534Y-114200602D01*
X190223365Y-114205412D01*
X190271490Y-114214984D01*
X190318445Y-114229228D01*
X190363778Y-114248005D01*
X190407051Y-114271136D01*
X190447850Y-114298396D01*
X190485779Y-114329524D01*
X190520476Y-114364221D01*
X190551604Y-114402150D01*
X190578864Y-114442949D01*
X190601995Y-114486222D01*
X190620772Y-114531555D01*
X190635016Y-114578510D01*
X190644588Y-114626635D01*
X190649398Y-114675466D01*
X190649398Y-114700000D01*
X190650000Y-114700000D01*
X190650000Y-115200000D01*
X189150000Y-115200000D01*
X189150000Y-114700000D01*
X189150602Y-114700000D01*
G37*
%TD.AperFunction*%
%TA.AperFunction,SMDPad,CuDef*%
%TO.P,JP301,1*%
%TO.N,Net-(D301-Pad1)*%
G36*
X190650000Y-115500000D02*
G01*
X190650000Y-116000000D01*
X190649398Y-116000000D01*
X190649398Y-116024534D01*
X190644588Y-116073365D01*
X190635016Y-116121490D01*
X190620772Y-116168445D01*
X190601995Y-116213778D01*
X190578864Y-116257051D01*
X190551604Y-116297850D01*
X190520476Y-116335779D01*
X190485779Y-116370476D01*
X190447850Y-116401604D01*
X190407051Y-116428864D01*
X190363778Y-116451995D01*
X190318445Y-116470772D01*
X190271490Y-116485016D01*
X190223365Y-116494588D01*
X190174534Y-116499398D01*
X190150000Y-116499398D01*
X190150000Y-116500000D01*
X189650000Y-116500000D01*
X189650000Y-116499398D01*
X189625466Y-116499398D01*
X189576635Y-116494588D01*
X189528510Y-116485016D01*
X189481555Y-116470772D01*
X189436222Y-116451995D01*
X189392949Y-116428864D01*
X189352150Y-116401604D01*
X189314221Y-116370476D01*
X189279524Y-116335779D01*
X189248396Y-116297850D01*
X189221136Y-116257051D01*
X189198005Y-116213778D01*
X189179228Y-116168445D01*
X189164984Y-116121490D01*
X189155412Y-116073365D01*
X189150602Y-116024534D01*
X189150602Y-116000000D01*
X189150000Y-116000000D01*
X189150000Y-115500000D01*
X190650000Y-115500000D01*
G37*
%TD.AperFunction*%
%TD*%
%TA.AperFunction,SMDPad,CuDef*%
%TO.P,JP401,1*%
%TO.N,Net-(D401-Pad1)*%
G36*
X187694000Y-115466000D02*
G01*
X187694000Y-115966000D01*
X187693398Y-115966000D01*
X187693398Y-115990534D01*
X187688588Y-116039365D01*
X187679016Y-116087490D01*
X187664772Y-116134445D01*
X187645995Y-116179778D01*
X187622864Y-116223051D01*
X187595604Y-116263850D01*
X187564476Y-116301779D01*
X187529779Y-116336476D01*
X187491850Y-116367604D01*
X187451051Y-116394864D01*
X187407778Y-116417995D01*
X187362445Y-116436772D01*
X187315490Y-116451016D01*
X187267365Y-116460588D01*
X187218534Y-116465398D01*
X187194000Y-116465398D01*
X187194000Y-116466000D01*
X186694000Y-116466000D01*
X186694000Y-116465398D01*
X186669466Y-116465398D01*
X186620635Y-116460588D01*
X186572510Y-116451016D01*
X186525555Y-116436772D01*
X186480222Y-116417995D01*
X186436949Y-116394864D01*
X186396150Y-116367604D01*
X186358221Y-116336476D01*
X186323524Y-116301779D01*
X186292396Y-116263850D01*
X186265136Y-116223051D01*
X186242005Y-116179778D01*
X186223228Y-116134445D01*
X186208984Y-116087490D01*
X186199412Y-116039365D01*
X186194602Y-115990534D01*
X186194602Y-115966000D01*
X186194000Y-115966000D01*
X186194000Y-115466000D01*
X187694000Y-115466000D01*
G37*
%TD.AperFunction*%
%TA.AperFunction,SMDPad,CuDef*%
%TO.P,JP401,2*%
%TO.N,Net-(D402-Pad1)*%
G36*
X186194602Y-114666000D02*
G01*
X186194602Y-114641466D01*
X186199412Y-114592635D01*
X186208984Y-114544510D01*
X186223228Y-114497555D01*
X186242005Y-114452222D01*
X186265136Y-114408949D01*
X186292396Y-114368150D01*
X186323524Y-114330221D01*
X186358221Y-114295524D01*
X186396150Y-114264396D01*
X186436949Y-114237136D01*
X186480222Y-114214005D01*
X186525555Y-114195228D01*
X186572510Y-114180984D01*
X186620635Y-114171412D01*
X186669466Y-114166602D01*
X186694000Y-114166602D01*
X186694000Y-114166000D01*
X187194000Y-114166000D01*
X187194000Y-114166602D01*
X187218534Y-114166602D01*
X187267365Y-114171412D01*
X187315490Y-114180984D01*
X187362445Y-114195228D01*
X187407778Y-114214005D01*
X187451051Y-114237136D01*
X187491850Y-114264396D01*
X187529779Y-114295524D01*
X187564476Y-114330221D01*
X187595604Y-114368150D01*
X187622864Y-114408949D01*
X187645995Y-114452222D01*
X187664772Y-114497555D01*
X187679016Y-114544510D01*
X187688588Y-114592635D01*
X187693398Y-114641466D01*
X187693398Y-114666000D01*
X187694000Y-114666000D01*
X187694000Y-115166000D01*
X186194000Y-115166000D01*
X186194000Y-114666000D01*
X186194602Y-114666000D01*
G37*
%TD.AperFunction*%
%TD*%
D23*
%TO.P,U601,1*%
%TO.N,/ESP8266/~RST*%
X129584000Y-109500000D03*
%TO.P,U601,2*%
%TO.N,/ESP8266/ADC*%
X129584000Y-107500000D03*
%TO.P,U601,3*%
%TO.N,Net-(R603-Pad2)*%
X129584000Y-105500000D03*
%TO.P,U601,4*%
%TO.N,/Switch2*%
X129584000Y-103500000D03*
%TO.P,U601,5*%
%TO.N,/ESP8266/GPIO14*%
X129584000Y-101500000D03*
%TO.P,U601,6*%
%TO.N,/Switch1*%
X129584000Y-99500000D03*
%TO.P,U601,7*%
%TO.N,/Relay1*%
X129584000Y-97500000D03*
%TO.P,U601,8*%
%TO.N,+3V3*%
X129584000Y-95500000D03*
D24*
%TO.P,U601,9*%
%TO.N,Net-(U601-Pad9)*%
X132184000Y-94000000D03*
%TO.P,U601,10*%
%TO.N,Net-(U601-Pad10)*%
X134184000Y-94000000D03*
%TO.P,U601,11*%
%TO.N,Net-(U601-Pad11)*%
X136184000Y-94000000D03*
%TO.P,U601,12*%
%TO.N,/ESP8266/GPIO10*%
X138184000Y-94000000D03*
%TO.P,U601,13*%
%TO.N,Net-(U601-Pad13)*%
X140184000Y-94000000D03*
%TO.P,U601,14*%
%TO.N,Net-(U601-Pad14)*%
X142184000Y-94000000D03*
D23*
%TO.P,U601,15*%
%TO.N,GND*%
X144784000Y-95500000D03*
%TO.P,U601,16*%
%TO.N,/Relay2*%
X144784000Y-97500000D03*
%TO.P,U601,17*%
%TO.N,/ESP8266/GPIO2*%
X144784000Y-99500000D03*
%TO.P,U601,18*%
%TO.N,/ESP8266/GPIO0*%
X144784000Y-101500000D03*
%TO.P,U601,19*%
%TO.N,/L-SDA*%
X144784000Y-103500000D03*
%TO.P,U601,20*%
%TO.N,/L-SDL*%
X144784000Y-105500000D03*
%TO.P,U601,21*%
%TO.N,/RX*%
X144784000Y-107500000D03*
%TO.P,U601,22*%
%TO.N,/TX*%
X144784000Y-109500000D03*
%TD*%
D25*
%TO.N,Net-(C201-Pad1)*%
X102500000Y-102400000D03*
X102500000Y-103400000D03*
X101500000Y-103400000D03*
X101500000Y-102400000D03*
X101300000Y-92700000D03*
X102500000Y-92700000D03*
X103700000Y-92700000D03*
%TO.N,GND*%
X107150000Y-101550000D03*
X107150000Y-102450000D03*
X107150000Y-103400000D03*
X107150000Y-104350000D03*
X106150000Y-101550000D03*
X108150000Y-101550000D03*
X108175000Y-102450000D03*
X108200000Y-103375000D03*
X108200000Y-104325000D03*
X120650000Y-88138000D03*
X120650000Y-89154000D03*
X120650000Y-90170000D03*
X120650000Y-91186000D03*
X120650000Y-87122000D03*
X119634000Y-87122000D03*
X118618000Y-87122000D03*
X118618000Y-86106000D03*
X119634000Y-86106000D03*
X120650000Y-86106000D03*
X115062000Y-80518000D03*
X115062000Y-81534000D03*
X115062000Y-82550000D03*
X118110000Y-82550000D03*
X118110000Y-81534000D03*
X118110000Y-80518000D03*
X118110000Y-79502000D03*
X115062000Y-79502000D03*
X116078000Y-82550000D03*
X117094000Y-82550000D03*
X122174000Y-82550000D03*
X123190000Y-82550000D03*
X124206000Y-82550000D03*
X125222000Y-82550000D03*
X125222000Y-81534000D03*
X125222000Y-80518000D03*
X125222000Y-79502000D03*
X122174000Y-81534000D03*
X122174000Y-80518000D03*
X122174000Y-79502000D03*
%TO.N,Net-(J601-Pad4)*%
X98200000Y-99060000D03*
%TO.N,GND*%
X98250000Y-100100000D03*
X98200000Y-101350000D03*
X98806000Y-97536000D03*
X99822000Y-96520000D03*
X110236000Y-105156000D03*
X111252000Y-105156000D03*
X112268000Y-105156000D03*
X113792000Y-105156000D03*
X114808000Y-105156000D03*
X115824000Y-105156000D03*
X116586000Y-106172000D03*
X109220000Y-106172000D03*
X109220000Y-107188000D03*
X116586000Y-107188000D03*
X113250000Y-110250000D03*
X114250000Y-110250000D03*
X115250000Y-110250000D03*
X116250000Y-110250000D03*
X117250000Y-110250000D03*
X113250000Y-111250000D03*
X113250000Y-112250000D03*
X114250000Y-112250000D03*
X114250000Y-111250000D03*
X115250000Y-111250000D03*
X115250000Y-112250000D03*
X116250000Y-112250000D03*
X116250000Y-111250000D03*
X117250000Y-111250000D03*
X117250000Y-112250000D03*
X162750000Y-105500000D03*
X164500000Y-105500000D03*
X167000000Y-105500000D03*
X168750000Y-105500000D03*
X170500000Y-105500000D03*
X172250000Y-105500000D03*
X174000000Y-105500000D03*
X175750000Y-105500000D03*
X168750000Y-106500000D03*
X170500000Y-106500000D03*
X172250000Y-106500000D03*
X174000000Y-106500000D03*
X170500000Y-107500000D03*
X172250000Y-107500000D03*
X162750000Y-106500000D03*
X164500000Y-106500000D03*
X164500000Y-107500000D03*
X164500000Y-108500000D03*
X166000000Y-107500000D03*
X166000000Y-108500000D03*
X166000000Y-109500000D03*
X167500000Y-108500000D03*
X167500000Y-109500000D03*
X167500000Y-110500000D03*
X168750000Y-110500000D03*
X170000000Y-110500000D03*
X168750000Y-109500000D03*
X170000000Y-109500000D03*
X171250000Y-109500000D03*
X162750000Y-110250000D03*
X162750000Y-111250000D03*
X164000000Y-110750000D03*
X164000000Y-111750000D03*
X183250000Y-106000000D03*
X184750000Y-106000000D03*
X186250000Y-106000000D03*
X181750000Y-106000000D03*
X187750000Y-106000000D03*
X188500000Y-106750000D03*
X189250000Y-106000000D03*
X184000000Y-106750000D03*
X182500000Y-106750000D03*
X185500000Y-106750000D03*
X187000000Y-106750000D03*
X190000000Y-106750000D03*
X190750000Y-106000000D03*
X191500000Y-106750000D03*
X181000000Y-106750000D03*
X173250000Y-114250000D03*
X174250000Y-114250000D03*
X175250000Y-114250000D03*
X176250000Y-114250000D03*
X173250000Y-115250000D03*
X174250000Y-115250000D03*
X175250000Y-115250000D03*
X176250000Y-115250000D03*
X173250000Y-116250000D03*
X174250000Y-116250000D03*
X175250000Y-116250000D03*
X179250000Y-114250000D03*
X179250000Y-115250000D03*
X179250000Y-116250000D03*
X182500000Y-114250000D03*
X182500000Y-115250000D03*
X182500000Y-116250000D03*
X185250000Y-115250000D03*
X185250000Y-116250000D03*
X172250000Y-115250000D03*
X172250000Y-116250000D03*
X171250000Y-116250000D03*
X172250000Y-117250000D03*
X173250000Y-117250000D03*
X174250000Y-117250000D03*
X175250000Y-117250000D03*
X175250000Y-118250000D03*
X174250000Y-118250000D03*
X173250000Y-118250000D03*
X172250000Y-118250000D03*
X171250000Y-118250000D03*
X171250000Y-117250000D03*
X170250000Y-117250000D03*
X170250000Y-118250000D03*
X169250000Y-118250000D03*
X161000000Y-116500000D03*
X162250000Y-116500000D03*
X163500000Y-116500000D03*
X164750000Y-116500000D03*
X166000000Y-116500000D03*
X163000000Y-114250000D03*
X164000000Y-114250000D03*
X165000000Y-114250000D03*
X166250000Y-114250000D03*
X147500000Y-118250000D03*
X148750000Y-118250000D03*
X149750000Y-118250000D03*
X150750000Y-118250000D03*
X151750000Y-118250000D03*
X152750000Y-118250000D03*
X147500000Y-113500000D03*
X147500000Y-114500000D03*
X147500000Y-115750000D03*
X147500000Y-117000000D03*
X150000000Y-115750000D03*
X148750000Y-114500000D03*
X148750000Y-115750000D03*
X148750000Y-117000000D03*
X150000000Y-117000000D03*
X151250000Y-117000000D03*
X150750000Y-106750000D03*
X152000000Y-106750000D03*
X150750000Y-105500000D03*
X152000000Y-105500000D03*
X150750000Y-104250000D03*
X152000000Y-104250000D03*
X150750000Y-102750000D03*
X152000000Y-102750000D03*
X150750000Y-101000000D03*
X152000000Y-101000000D03*
X150750000Y-99250000D03*
X152000000Y-99250000D03*
X121000000Y-117250000D03*
X122000000Y-116250000D03*
X123000000Y-115250000D03*
X124000000Y-114250000D03*
X125000000Y-113250000D03*
X126000000Y-112250000D03*
X127000000Y-111250000D03*
X127000000Y-113000000D03*
X126000000Y-114000000D03*
X124750000Y-115250000D03*
X123500000Y-116500000D03*
X122500000Y-117750000D03*
X124250000Y-118000000D03*
X125250000Y-116750000D03*
X126250000Y-115750000D03*
X127250000Y-114750000D03*
X126000000Y-118000000D03*
X127000000Y-117000000D03*
X132250000Y-109500000D03*
X133500000Y-109500000D03*
X134750000Y-109500000D03*
X136000000Y-109500000D03*
X137500000Y-109500000D03*
X139000000Y-109500000D03*
X140500000Y-109500000D03*
X142000000Y-109500000D03*
X142000000Y-108250000D03*
X142000000Y-107000000D03*
X132500000Y-95750000D03*
X133250000Y-96500000D03*
X134000000Y-95750000D03*
X134750000Y-96500000D03*
X135500000Y-95750000D03*
X136250000Y-96500000D03*
X137000000Y-95750000D03*
X137750000Y-96500000D03*
X138500000Y-95750000D03*
X131750000Y-98500000D03*
X133000000Y-98500000D03*
X134250000Y-98500000D03*
X135500000Y-98500000D03*
X136750000Y-98500000D03*
X131500000Y-100250000D03*
X132250000Y-101000000D03*
X133000000Y-100250000D03*
X133750000Y-101000000D03*
X134500000Y-100250000D03*
X135250000Y-101000000D03*
X131500000Y-102500000D03*
X132500000Y-102500000D03*
X133750000Y-102500000D03*
X137000000Y-102500000D03*
X138500000Y-101000000D03*
X139500000Y-100000000D03*
X140500000Y-99000000D03*
X146750000Y-95500000D03*
X145000000Y-94250000D03*
X152500000Y-113500000D03*
X153500000Y-114500000D03*
X154250000Y-115250000D03*
X106750000Y-115000000D03*
X107750000Y-115000000D03*
X106750000Y-116000000D03*
X107750000Y-116000000D03*
X115250000Y-115000000D03*
X116250000Y-115000000D03*
X115250000Y-116000000D03*
X116250000Y-116000000D03*
X122000000Y-106500000D03*
X123250000Y-106500000D03*
X122000000Y-107750000D03*
X123250000Y-107750000D03*
X122000000Y-109000000D03*
X122000000Y-104500000D03*
X123250000Y-104500000D03*
X122000000Y-102750000D03*
X123250000Y-102750000D03*
X125000000Y-102750000D03*
X126500000Y-102750000D03*
X122800000Y-101000000D03*
X122700000Y-99800000D03*
X122400000Y-98600000D03*
X122900000Y-97600000D03*
X124200000Y-99300000D03*
X122900000Y-95500000D03*
X122400000Y-96600000D03*
X117250000Y-95500000D03*
X117250000Y-97000000D03*
X117250000Y-98500000D03*
X117250000Y-100000000D03*
X117250000Y-101500000D03*
X130000000Y-93250000D03*
X130000000Y-92250000D03*
X130000000Y-91250000D03*
X130000000Y-90250000D03*
X133000000Y-92500000D03*
X134000000Y-92500000D03*
X135000000Y-92500000D03*
X136000000Y-92500000D03*
X137000000Y-92500000D03*
X138000000Y-92500000D03*
X139000000Y-92500000D03*
X140000000Y-92500000D03*
X135250000Y-91250000D03*
X136500000Y-91250000D03*
X137500000Y-91250000D03*
X138500000Y-91250000D03*
X139500000Y-91250000D03*
X140500000Y-91250000D03*
X136250000Y-90000000D03*
X137250000Y-90000000D03*
X138250000Y-90000000D03*
X139250000Y-90000000D03*
X140250000Y-90000000D03*
X137750000Y-88750000D03*
X138750000Y-88750000D03*
X139750000Y-88750000D03*
X139000000Y-87750000D03*
X139750000Y-87000000D03*
X140500000Y-86000000D03*
X141750000Y-86000000D03*
X141250000Y-87000000D03*
X140500000Y-87750000D03*
X142250000Y-88750000D03*
X142250000Y-90000000D03*
X142250000Y-91250000D03*
X142250000Y-92250000D03*
X143750000Y-90500000D03*
X143750000Y-91500000D03*
X143750000Y-92750000D03*
X145750000Y-90500000D03*
X146750000Y-90500000D03*
X147750000Y-90500000D03*
X148750000Y-90500000D03*
X149750000Y-90500000D03*
X151000000Y-90500000D03*
X152000000Y-90500000D03*
X153000000Y-90500000D03*
X154000000Y-90500000D03*
X155000000Y-90500000D03*
X155000000Y-91500000D03*
X154000000Y-91500000D03*
X153000000Y-91500000D03*
X152000000Y-91500000D03*
X151000000Y-91500000D03*
X149750000Y-91500000D03*
X148750000Y-91500000D03*
X147750000Y-91500000D03*
X146750000Y-91500000D03*
X145750000Y-91500000D03*
X146750000Y-92500000D03*
X147500000Y-93250000D03*
X148250000Y-94000000D03*
X149000000Y-94750000D03*
X149750000Y-95500000D03*
X150250000Y-96500000D03*
X150500000Y-97750000D03*
X151500000Y-97750000D03*
X153250000Y-96500000D03*
X154250000Y-95500000D03*
X155000000Y-94750000D03*
X155000000Y-93500000D03*
X155000000Y-92500000D03*
X148250000Y-92500000D03*
X149500000Y-92500000D03*
X150500000Y-92500000D03*
X151500000Y-92500000D03*
X152500000Y-92500000D03*
X153750000Y-92500000D03*
X149250000Y-93500000D03*
X150500000Y-93500000D03*
X151500000Y-93500000D03*
X152500000Y-93500000D03*
X153750000Y-93500000D03*
X150250000Y-94500000D03*
X151250000Y-94500000D03*
X152250000Y-94500000D03*
X153500000Y-94500000D03*
X151000000Y-95500000D03*
X152000000Y-95500000D03*
X153000000Y-95500000D03*
X151250000Y-96500000D03*
X152250000Y-96500000D03*
X134250000Y-85750000D03*
X135250000Y-85750000D03*
X136250000Y-85750000D03*
X136250000Y-86750000D03*
X135250000Y-87500000D03*
X134500000Y-88250000D03*
X133750000Y-89000000D03*
X133000000Y-89750000D03*
X133250000Y-87000000D03*
X134500000Y-87000000D03*
X133250000Y-88000000D03*
X129500000Y-88750000D03*
X127250000Y-80500000D03*
X128250000Y-80500000D03*
X129250000Y-80750000D03*
X129750000Y-81500000D03*
X127250000Y-79500000D03*
X128250000Y-79500000D03*
X132750000Y-79250000D03*
X133750000Y-79250000D03*
X134750000Y-79250000D03*
X135750000Y-79250000D03*
X133750000Y-80250000D03*
X134750000Y-80250000D03*
X135750000Y-80250000D03*
X138000000Y-79250000D03*
X139000000Y-79250000D03*
X138500000Y-80000000D03*
X120250000Y-76500000D03*
X121250000Y-76500000D03*
X122250000Y-76500000D03*
X120250000Y-77500000D03*
X121250000Y-77500000D03*
X122250000Y-77500000D03*
X120750000Y-78500000D03*
X121750000Y-78500000D03*
X114000000Y-76500000D03*
X115000000Y-76500000D03*
X116000000Y-76500000D03*
X117000000Y-76500000D03*
X118000000Y-76500000D03*
X117500000Y-77250000D03*
X116500000Y-77250000D03*
X115500000Y-77250000D03*
X114500000Y-77250000D03*
X113500000Y-77250000D03*
X114000000Y-78000000D03*
X115000000Y-78000000D03*
X116000000Y-78000000D03*
X117000000Y-78000000D03*
X118000000Y-78000000D03*
X113500000Y-78750000D03*
X114500000Y-78750000D03*
X114000000Y-79500000D03*
X118500000Y-78750000D03*
X119000000Y-79500000D03*
X111250000Y-85000000D03*
X112250000Y-85000000D03*
X113250000Y-85000000D03*
X111750000Y-85750000D03*
X112750000Y-85750000D03*
X111750000Y-86750000D03*
X113750000Y-85750000D03*
X105000000Y-87500000D03*
X106000000Y-87500000D03*
X107000000Y-87500000D03*
X108000000Y-87500000D03*
X109000000Y-87500000D03*
X109000000Y-88500000D03*
X109000000Y-89500000D03*
X140750000Y-79250000D03*
X142250000Y-80000000D03*
X154500000Y-97750000D03*
X155500000Y-97000000D03*
X156500000Y-96250000D03*
X155750000Y-98000000D03*
X156500000Y-97250000D03*
X155250000Y-83750000D03*
X156000000Y-83000000D03*
X156750000Y-82250000D03*
X156250000Y-84000000D03*
X157000000Y-83250000D03*
X156000000Y-81500000D03*
X157000000Y-80750000D03*
X156000000Y-80000000D03*
X156000000Y-78750000D03*
X157000000Y-78750000D03*
X154750000Y-78750000D03*
X153500000Y-78750000D03*
X152250000Y-78750000D03*
X151000000Y-78750000D03*
X149750000Y-78750000D03*
X148500000Y-78750000D03*
X147250000Y-78750000D03*
X146500000Y-77750000D03*
X147750000Y-77750000D03*
X149000000Y-77750000D03*
X150250000Y-77750000D03*
X147500000Y-76750000D03*
X148500000Y-76750000D03*
X147750000Y-75750000D03*
X156250000Y-77500000D03*
X156250000Y-76500000D03*
X156250000Y-75500000D03*
X156250000Y-74500000D03*
X156250000Y-73250000D03*
X156250000Y-72000000D03*
X156750000Y-94750000D03*
X156750000Y-93250000D03*
X156750000Y-91500000D03*
X112000000Y-73750000D03*
X111000000Y-73750000D03*
X110000000Y-73750000D03*
X108750000Y-73750000D03*
X107500000Y-73750000D03*
X106250000Y-73750000D03*
X105250000Y-73750000D03*
X104250000Y-73750000D03*
X104250000Y-74750000D03*
X105250000Y-74750000D03*
X106250000Y-74750000D03*
X107500000Y-74750000D03*
X108750000Y-74750000D03*
X110000000Y-74750000D03*
X111000000Y-74750000D03*
X112000000Y-74750000D03*
X112000000Y-76000000D03*
X112000000Y-77250000D03*
X112000000Y-78500000D03*
X112000000Y-79750000D03*
X112000000Y-81000000D03*
X112000000Y-82250000D03*
X112000000Y-83500000D03*
X104250000Y-76750000D03*
X104250000Y-77750000D03*
X156400000Y-88500000D03*
X156600000Y-89500000D03*
X143800000Y-89200000D03*
X146400000Y-83900000D03*
X146700000Y-82800000D03*
X123600000Y-100200000D03*
X125780000Y-100990000D03*
X126550000Y-100240000D03*
X125390000Y-104590000D03*
X126910000Y-104540000D03*
X132160000Y-104660000D03*
X133910000Y-104660000D03*
X138030000Y-104670000D03*
X138070000Y-106540000D03*
X136210000Y-106540000D03*
X137060000Y-107680000D03*
X132430000Y-107420000D03*
X125150000Y-106660000D03*
X123090000Y-108940000D03*
X134930000Y-107700000D03*
X140590000Y-107390000D03*
X142680000Y-96590000D03*
X148230000Y-96700000D03*
X146860000Y-96650000D03*
X144670000Y-93230000D03*
X157260000Y-111320000D03*
X152070000Y-108080000D03*
X157750000Y-105960000D03*
X181080000Y-109110000D03*
X182440000Y-111460000D03*
X195990000Y-112790000D03*
X192060000Y-113900000D03*
X194660000Y-104910000D03*
X196610000Y-104890000D03*
X192320000Y-118240000D03*
X98400000Y-102550000D03*
X99650000Y-102550000D03*
X98450000Y-103550000D03*
X99650000Y-103600000D03*
X98500000Y-104500000D03*
X104950000Y-108050000D03*
X105950000Y-106950000D03*
X106550000Y-108950000D03*
X107650000Y-107700000D03*
X107700000Y-108650000D03*
X108750000Y-108600000D03*
X103050000Y-113300000D03*
X98500000Y-113200000D03*
X103400000Y-111350000D03*
X103400000Y-112400000D03*
X102000000Y-113250000D03*
%TO.N,+3V3*%
X125730000Y-87210000D03*
X126238000Y-85510000D03*
X116332000Y-87122000D03*
X116332000Y-88646000D03*
X116745999Y-90518001D03*
X128270000Y-90678000D03*
X128250000Y-94250000D03*
X151800000Y-84800000D03*
X147000000Y-89300000D03*
%TO.N,Net-(C204-Pad1)*%
X104800000Y-101900000D03*
X104800000Y-104200000D03*
X104800000Y-94000000D03*
X107650000Y-94000000D03*
X105750000Y-94000000D03*
X104800000Y-99050000D03*
X106700000Y-94000000D03*
X105750000Y-99050000D03*
X106700000Y-99050000D03*
X107650000Y-99100000D03*
%TO.N,Net-(C207-Pad1)*%
X103600000Y-106700000D03*
X103550000Y-109900000D03*
%TO.N,+5V*%
X192500000Y-112000000D03*
X195500000Y-111000000D03*
X193250000Y-105000000D03*
X158250000Y-115500000D03*
X181749994Y-105000000D03*
%TO.N,+VDC*%
X104450000Y-85450000D03*
X104450000Y-84500000D03*
X104450000Y-86350000D03*
X101400000Y-84450000D03*
X102350000Y-84450000D03*
X103400000Y-84450000D03*
X106500000Y-85900000D03*
X107600000Y-85900000D03*
X108600000Y-85900000D03*
X109700000Y-85900000D03*
X105400000Y-85900000D03*
%TO.N,Net-(D301-Pad1)*%
X191516000Y-117602000D03*
%TO.N,Net-(D302-Pad1)*%
X193650004Y-112850004D03*
%TO.N,Net-(D401-Pad1)*%
X188468000Y-116586000D03*
%TO.N,Net-(D402-Pad1)*%
X185500000Y-112500000D03*
X175000000Y-108750000D03*
%TO.N,/L-SDL*%
X141000000Y-105500000D03*
%TO.N,/L-SDA*%
X142154653Y-103654653D03*
%TO.N,/RX*%
X151999996Y-111500000D03*
X157000000Y-116500000D03*
%TO.N,/ESP8266/ADC*%
X130000000Y-82499992D03*
X133000000Y-85750006D03*
X125680000Y-99560000D03*
%TO.N,/ESP8266/GPIO14*%
X143289294Y-84513989D03*
%TO.N,/Relay2*%
X134250000Y-106750000D03*
X175250000Y-110750000D03*
X152250000Y-116250000D03*
X147500000Y-98500000D03*
%TO.N,/Relay1*%
X148500000Y-110750000D03*
X132500000Y-97500008D03*
X173750000Y-111000000D03*
%TO.N,/ESP8266/GPIO0*%
X139500000Y-108500000D03*
%TO.N,/ESP8266/~RST*%
X127000000Y-110000000D03*
%TO.N,Net-(R603-Pad2)*%
X126762660Y-107024990D03*
%TO.N,/ESP8266/GPIO2*%
X142500000Y-100750000D03*
%TD*%
D26*
%TO.N,+3V3*%
X125730000Y-86018000D02*
X126238000Y-85510000D01*
X125730000Y-87210000D02*
X125730000Y-86018000D01*
D27*
X119191998Y-92964000D02*
X125984000Y-92964000D01*
X116745999Y-90518001D02*
X119191998Y-92964000D01*
X125984000Y-92964000D02*
X128270000Y-90678000D01*
X126362500Y-92585500D02*
X128270000Y-90678000D01*
D28*
X128334000Y-94250000D02*
X128250000Y-94250000D01*
X126964000Y-92964000D02*
X128250000Y-94250000D01*
X125984000Y-92964000D02*
X126964000Y-92964000D01*
X129584000Y-95500000D02*
X128334000Y-94250000D01*
D29*
X147289998Y-84800000D02*
X145500000Y-86589998D01*
X151800000Y-84800000D02*
X147289998Y-84800000D01*
X145500000Y-86589998D02*
X145500000Y-87800000D01*
X145500000Y-87800000D02*
X147000000Y-89300000D01*
D26*
%TO.N,Net-(C207-Pad1)*%
X103600000Y-106700000D02*
X103600000Y-109850000D01*
X103600000Y-109850000D02*
X103550000Y-109900000D01*
D28*
%TO.N,+5V*%
X192500000Y-112000000D02*
X193000000Y-111500000D01*
X193000000Y-111500000D02*
X195000000Y-111500000D01*
X195000000Y-111500000D02*
X195500000Y-111000000D01*
D29*
X193250000Y-105000000D02*
X181750000Y-105000000D01*
X167000000Y-115500000D02*
X177500000Y-105000000D01*
X177500000Y-105000000D02*
X181749994Y-105000000D01*
X158250000Y-115500000D02*
X167000000Y-115500000D01*
D26*
X181750000Y-105000000D02*
X181749994Y-105000000D01*
%TO.N,Net-(D301-Pad1)*%
X189992000Y-116078000D02*
X189992000Y-115712000D01*
X191502000Y-117602000D02*
X189900000Y-116000000D01*
X191516000Y-117602000D02*
X191502000Y-117602000D01*
%TO.N,Net-(D302-Pad1)*%
X189992000Y-114412000D02*
X190488000Y-114412000D01*
X191600000Y-113000000D02*
X192000000Y-113000000D01*
X189900000Y-114700000D02*
X191600000Y-113000000D01*
X191900000Y-113000000D02*
X192000000Y-113000000D01*
X192000000Y-113000000D02*
X193500008Y-113000000D01*
X193500008Y-113000000D02*
X193650004Y-112850004D01*
%TO.N,Net-(D401-Pad1)*%
X187564000Y-116586000D02*
X186944000Y-115966000D01*
X188468000Y-116586000D02*
X187564000Y-116586000D01*
%TO.N,Net-(D402-Pad1)*%
X186666000Y-114666000D02*
X186944000Y-114666000D01*
X185500000Y-112500000D02*
X185500000Y-113500000D01*
X185500000Y-113500000D02*
X186666000Y-114666000D01*
X185500000Y-112500000D02*
X178750000Y-112500000D01*
X178750000Y-112500000D02*
X175000000Y-108750000D01*
%TO.N,/L-SDL*%
X141000000Y-105500000D02*
X144784000Y-105500000D01*
%TO.N,/L-SDA*%
X144629347Y-103654653D02*
X144784000Y-103500000D01*
X142154653Y-103654653D02*
X144629347Y-103654653D01*
%TO.N,/RX*%
X144784000Y-107500000D02*
X147999996Y-107500000D01*
X147999996Y-107500000D02*
X151999996Y-111500000D01*
X155100000Y-111800000D02*
X155100000Y-114600000D01*
X155100000Y-114600000D02*
X157000000Y-116500000D01*
X160000000Y-108040000D02*
X158860000Y-108040000D01*
X158860000Y-108040000D02*
X155100000Y-111800000D01*
%TO.N,/TX*%
X160000000Y-106250000D02*
X160000000Y-105500000D01*
X153750000Y-112500000D02*
X160000000Y-106250000D01*
X151426998Y-112500000D02*
X153750000Y-112500000D01*
X144784000Y-109500000D02*
X148426998Y-109500000D01*
X148426998Y-109500000D02*
X151426998Y-112500000D01*
D30*
%TO.N,/Relay2/Relay-Normal-Close*%
X179920000Y-74584990D02*
X179994990Y-74510000D01*
X179920000Y-83800000D02*
X179920000Y-74584990D01*
%TO.N,/Relay2/Relay-Common*%
X185780000Y-97860000D02*
X185920000Y-98000000D01*
X185920000Y-87020909D02*
X185920000Y-98000000D01*
X185090000Y-86190909D02*
X185920000Y-87020909D01*
X185090000Y-74510000D02*
X185090000Y-86190909D01*
%TO.N,/Relay2/Relay-Normal-Open*%
X190170000Y-82050000D02*
X191920000Y-83800000D01*
X190170000Y-74510000D02*
X190170000Y-82050000D01*
%TO.N,/Relay1/Relay-Normal-Open*%
X173920000Y-75504990D02*
X172925010Y-74510000D01*
X173920000Y-83800000D02*
X173920000Y-75504990D01*
%TO.N,/Relay1/Relay-Common*%
X167840000Y-97920000D02*
X167840000Y-74510000D01*
X167920000Y-98000000D02*
X167840000Y-97920000D01*
%TO.N,/Relay1/Relay-Normal-Close*%
X161920000Y-83800000D02*
X162560000Y-83160000D01*
X162560000Y-74564990D02*
X162614990Y-74510000D01*
X162560000Y-83160000D02*
X162560000Y-74564990D01*
D26*
%TO.N,/Switch1*%
X153360990Y-77271010D02*
X154686000Y-75946000D01*
X151271010Y-77271010D02*
X153360990Y-77271010D01*
X148620990Y-74620990D02*
X151271010Y-77271010D01*
X144957820Y-74620990D02*
X148620990Y-74620990D01*
X144620990Y-74957820D02*
X144957820Y-74620990D01*
X129584000Y-99500000D02*
X137084501Y-99500000D01*
X141250000Y-88323002D02*
X144620990Y-84952012D01*
X137084501Y-99500000D02*
X141250000Y-95334501D01*
X141250000Y-95334501D02*
X141250000Y-88323002D01*
X144620990Y-84952012D02*
X144620990Y-74957820D01*
%TO.N,/Switch2*%
X143009001Y-95160001D02*
X134669002Y-103500000D01*
X145500000Y-76242000D02*
X145500000Y-85700000D01*
X145796000Y-75946000D02*
X145500000Y-76242000D01*
X145500000Y-85700000D02*
X143000000Y-88200000D01*
X143000000Y-92830998D02*
X143009001Y-92839999D01*
X134669002Y-103500000D02*
X129584000Y-103500000D01*
X143000000Y-88200000D02*
X143000000Y-92830998D01*
X143009001Y-92839999D02*
X143009001Y-95160001D01*
%TO.N,/ESP8266/ADC*%
X133000000Y-85499992D02*
X133000000Y-85750006D01*
X130000000Y-82499992D02*
X133000000Y-85499992D01*
X124270001Y-107270001D02*
X124270001Y-100969999D01*
X124270001Y-100969999D02*
X125680000Y-99560000D01*
X124750000Y-107750000D02*
X124270001Y-107270001D01*
X129334000Y-107750000D02*
X124750000Y-107750000D01*
X129584000Y-107500000D02*
X129334000Y-107750000D01*
%TO.N,/ESP8266/GPIO14*%
X127500000Y-100500000D02*
X128500000Y-101500000D01*
X127500000Y-97248998D02*
X127500000Y-100500000D01*
X128248998Y-96500000D02*
X127500000Y-97248998D01*
X143289294Y-84513989D02*
X143275305Y-84500000D01*
X143275305Y-84500000D02*
X139750000Y-84500000D01*
X139750000Y-84500000D02*
X131159001Y-93090999D01*
X130919002Y-96500000D02*
X128248998Y-96500000D01*
X128500000Y-101500000D02*
X129584000Y-101500000D01*
X131159001Y-96260001D02*
X130919002Y-96500000D01*
X131159001Y-93090999D02*
X131159001Y-96260001D01*
%TO.N,/Relay2*%
X143500000Y-97500000D02*
X144784000Y-97500000D01*
X134250000Y-106750000D02*
X143500000Y-97500000D01*
X154250000Y-118250000D02*
X152250000Y-116250000D01*
X175250000Y-110750000D02*
X167750000Y-118250000D01*
X167750000Y-118250000D02*
X154250000Y-118250000D01*
X144784000Y-97500000D02*
X146500000Y-97500000D01*
X146500000Y-97500000D02*
X147500000Y-98500000D01*
%TO.N,/Relay1*%
X129584000Y-97500000D02*
X132499992Y-97500000D01*
X132499992Y-97500000D02*
X132500000Y-97500008D01*
X167500000Y-117250000D02*
X173750000Y-111000000D01*
X155000000Y-117250000D02*
X167500000Y-117250000D01*
X148500000Y-110750000D02*
X155000000Y-117250000D01*
%TO.N,/ESP8266/GPIO0*%
X141500000Y-101500000D02*
X144784000Y-101500000D01*
X139500000Y-108500000D02*
X139500000Y-103500000D01*
X139500000Y-103500000D02*
X141500000Y-101500000D01*
%TO.N,/ESP8266/~RST*%
X129584000Y-109500000D02*
X127500000Y-109500000D01*
X127500000Y-109500000D02*
X127000000Y-110000000D01*
%TO.N,Net-(R603-Pad2)*%
X128287650Y-105500000D02*
X126762660Y-107024990D01*
X129584000Y-105500000D02*
X128287650Y-105500000D01*
%TO.N,/ESP8266/GPIO2*%
X143750000Y-99500000D02*
X144784000Y-99500000D01*
X142500000Y-100750000D02*
X143750000Y-99500000D01*
%TD*%
D31*
%TO.N,GND*%
X113313507Y-71297004D02*
X113265000Y-71535500D01*
X113265000Y-71885500D01*
X114373000Y-71885500D01*
X114373000Y-71865500D01*
X114627000Y-71865500D01*
X114627000Y-71885500D01*
X115735000Y-71885500D01*
X115735000Y-71535500D01*
X115686493Y-71297004D01*
X115629053Y-71160000D01*
X120370947Y-71160000D01*
X120313507Y-71297004D01*
X120265000Y-71535500D01*
X120265000Y-71885500D01*
X121373000Y-71885500D01*
X121373000Y-71865500D01*
X121627000Y-71865500D01*
X121627000Y-71885500D01*
X122735000Y-71885500D01*
X122735000Y-71535500D01*
X122686493Y-71297004D01*
X122629053Y-71160000D01*
X157373000Y-71160000D01*
X157373000Y-104432848D01*
X157375440Y-104457624D01*
X157382667Y-104481449D01*
X157394403Y-104503405D01*
X157410197Y-104522651D01*
X157429443Y-104538445D01*
X157451399Y-104550181D01*
X157475224Y-104557408D01*
X157502731Y-104559819D01*
X158522971Y-104537876D01*
X158511928Y-104650000D01*
X158511928Y-106350000D01*
X158524188Y-106474482D01*
X158560498Y-106594180D01*
X158567646Y-106607552D01*
X156985000Y-108190198D01*
X156985000Y-107933740D01*
X156927932Y-107646842D01*
X156815990Y-107376589D01*
X156653475Y-107133368D01*
X156446632Y-106926525D01*
X156272240Y-106810000D01*
X156446632Y-106693475D01*
X156653475Y-106486632D01*
X156815990Y-106243411D01*
X156927932Y-105973158D01*
X156985000Y-105686260D01*
X156985000Y-105393740D01*
X156927932Y-105106842D01*
X156815990Y-104836589D01*
X156653475Y-104593368D01*
X156446632Y-104386525D01*
X156272240Y-104270000D01*
X156446632Y-104153475D01*
X156653475Y-103946632D01*
X156815990Y-103703411D01*
X156927932Y-103433158D01*
X156985000Y-103146260D01*
X156985000Y-102853740D01*
X156927932Y-102566842D01*
X156815990Y-102296589D01*
X156653475Y-102053368D01*
X156521620Y-101921513D01*
X156594180Y-101899502D01*
X156704494Y-101840537D01*
X156801185Y-101761185D01*
X156880537Y-101664494D01*
X156939502Y-101554180D01*
X156975812Y-101434482D01*
X156988072Y-101310000D01*
X156988072Y-99610000D01*
X156975812Y-99485518D01*
X156939502Y-99365820D01*
X156880537Y-99255506D01*
X156801185Y-99158815D01*
X156704494Y-99079463D01*
X156594180Y-99020498D01*
X156474482Y-98984188D01*
X156350000Y-98971928D01*
X154650000Y-98971928D01*
X154525518Y-98984188D01*
X154405820Y-99020498D01*
X154295506Y-99079463D01*
X154198815Y-99158815D01*
X154119463Y-99255506D01*
X154060498Y-99365820D01*
X154024188Y-99485518D01*
X154011928Y-99610000D01*
X154011928Y-101310000D01*
X154024188Y-101434482D01*
X154060498Y-101554180D01*
X154119463Y-101664494D01*
X154198815Y-101761185D01*
X154295506Y-101840537D01*
X154405820Y-101899502D01*
X154478380Y-101921513D01*
X154346525Y-102053368D01*
X154184010Y-102296589D01*
X154072068Y-102566842D01*
X154015000Y-102853740D01*
X154015000Y-103146260D01*
X154072068Y-103433158D01*
X154184010Y-103703411D01*
X154346525Y-103946632D01*
X154553368Y-104153475D01*
X154727760Y-104270000D01*
X154553368Y-104386525D01*
X154346525Y-104593368D01*
X154184010Y-104836589D01*
X154072068Y-105106842D01*
X154015000Y-105393740D01*
X154015000Y-105686260D01*
X154072068Y-105973158D01*
X154184010Y-106243411D01*
X154346525Y-106486632D01*
X154553368Y-106693475D01*
X154727760Y-106810000D01*
X154553368Y-106926525D01*
X154346525Y-107133368D01*
X154184010Y-107376589D01*
X154072068Y-107646842D01*
X154015000Y-107933740D01*
X154015000Y-108226260D01*
X154072068Y-108513158D01*
X154184010Y-108783411D01*
X154346525Y-109026632D01*
X154553368Y-109233475D01*
X154796589Y-109395990D01*
X155066842Y-109507932D01*
X155353740Y-109565000D01*
X155610199Y-109565000D01*
X153435199Y-111740000D01*
X153007534Y-111740000D01*
X153034996Y-111601939D01*
X153034996Y-111398061D01*
X152995222Y-111198102D01*
X152917201Y-111009744D01*
X152803933Y-110840226D01*
X152659770Y-110696063D01*
X152490252Y-110582795D01*
X152301894Y-110504774D01*
X152101935Y-110465000D01*
X152039798Y-110465000D01*
X148563800Y-106989003D01*
X148539997Y-106959999D01*
X148424272Y-106865026D01*
X148292243Y-106794454D01*
X148148982Y-106750997D01*
X148037329Y-106740000D01*
X148037318Y-106740000D01*
X147999996Y-106736324D01*
X147962674Y-106740000D01*
X146615046Y-106740000D01*
X146564537Y-106645506D01*
X146485185Y-106548815D01*
X146425704Y-106500000D01*
X146485185Y-106451185D01*
X146564537Y-106354494D01*
X146623502Y-106244180D01*
X146659812Y-106124482D01*
X146672072Y-106000000D01*
X146672072Y-105000000D01*
X146659812Y-104875518D01*
X146623502Y-104755820D01*
X146564537Y-104645506D01*
X146485185Y-104548815D01*
X146425704Y-104500000D01*
X146485185Y-104451185D01*
X146564537Y-104354494D01*
X146623502Y-104244180D01*
X146659812Y-104124482D01*
X146672072Y-104000000D01*
X146672072Y-103000000D01*
X146659812Y-102875518D01*
X146623502Y-102755820D01*
X146564537Y-102645506D01*
X146485185Y-102548815D01*
X146425704Y-102500000D01*
X146485185Y-102451185D01*
X146564537Y-102354494D01*
X146623502Y-102244180D01*
X146659812Y-102124482D01*
X146672072Y-102000000D01*
X146672072Y-101000000D01*
X146659812Y-100875518D01*
X146623502Y-100755820D01*
X146564537Y-100645506D01*
X146485185Y-100548815D01*
X146425704Y-100500000D01*
X146485185Y-100451185D01*
X146564537Y-100354494D01*
X146623502Y-100244180D01*
X146659812Y-100124482D01*
X146672072Y-100000000D01*
X146672072Y-99123869D01*
X146696063Y-99159774D01*
X146840226Y-99303937D01*
X147009744Y-99417205D01*
X147198102Y-99495226D01*
X147398061Y-99535000D01*
X147601939Y-99535000D01*
X147801898Y-99495226D01*
X147990256Y-99417205D01*
X148159774Y-99303937D01*
X148303937Y-99159774D01*
X148417205Y-98990256D01*
X148495226Y-98801898D01*
X148535000Y-98601939D01*
X148535000Y-98398061D01*
X148495226Y-98198102D01*
X148417205Y-98009744D01*
X148303937Y-97840226D01*
X148159774Y-97696063D01*
X147990256Y-97582795D01*
X147801898Y-97504774D01*
X147601939Y-97465000D01*
X147539802Y-97465000D01*
X147063804Y-96989002D01*
X147040001Y-96959999D01*
X146924276Y-96865026D01*
X146792247Y-96794454D01*
X146648986Y-96750997D01*
X146619365Y-96748080D01*
X146564537Y-96645506D01*
X146485185Y-96548815D01*
X146425704Y-96500000D01*
X146485185Y-96451185D01*
X146564537Y-96354494D01*
X146623502Y-96244180D01*
X146659812Y-96124482D01*
X146672072Y-96000000D01*
X146669000Y-95785750D01*
X146510250Y-95627000D01*
X144911000Y-95627000D01*
X144911000Y-95647000D01*
X144657000Y-95647000D01*
X144657000Y-95627000D01*
X144637000Y-95627000D01*
X144637000Y-95373000D01*
X144657000Y-95373000D01*
X144657000Y-94523750D01*
X144911000Y-94523750D01*
X144911000Y-95373000D01*
X146510250Y-95373000D01*
X146669000Y-95214250D01*
X146672072Y-95000000D01*
X146659812Y-94875518D01*
X146623502Y-94755820D01*
X146564537Y-94645506D01*
X146485185Y-94548815D01*
X146388494Y-94469463D01*
X146278180Y-94410498D01*
X146158482Y-94374188D01*
X146034000Y-94361928D01*
X145069750Y-94365000D01*
X144911000Y-94523750D01*
X144657000Y-94523750D01*
X144498250Y-94365000D01*
X143769001Y-94362677D01*
X143769001Y-92877321D01*
X143772677Y-92839998D01*
X143769001Y-92802676D01*
X143769001Y-92802666D01*
X143760000Y-92711278D01*
X143760000Y-88514801D01*
X144615001Y-87659801D01*
X144615001Y-87756522D01*
X144610719Y-87800000D01*
X144627805Y-87973490D01*
X144678412Y-88140313D01*
X144760590Y-88294059D01*
X144843468Y-88395046D01*
X144843471Y-88395049D01*
X144871184Y-88428817D01*
X144904951Y-88456529D01*
X145993465Y-89545044D01*
X146004774Y-89601898D01*
X146082795Y-89790256D01*
X146196063Y-89959774D01*
X146340226Y-90103937D01*
X146509744Y-90217205D01*
X146698102Y-90295226D01*
X146898061Y-90335000D01*
X147101939Y-90335000D01*
X147301898Y-90295226D01*
X147490256Y-90217205D01*
X147659774Y-90103937D01*
X147803937Y-89959774D01*
X147917205Y-89790256D01*
X147995226Y-89601898D01*
X148035000Y-89401939D01*
X148035000Y-89198061D01*
X147995226Y-88998102D01*
X147917205Y-88809744D01*
X147803937Y-88640226D01*
X147659774Y-88496063D01*
X147490256Y-88382795D01*
X147301898Y-88304774D01*
X147245044Y-88293465D01*
X147027595Y-88076017D01*
X147150000Y-88088072D01*
X148850000Y-88088072D01*
X148974482Y-88075812D01*
X149094180Y-88039502D01*
X149204494Y-87980537D01*
X149301185Y-87901185D01*
X149380537Y-87804494D01*
X149439502Y-87694180D01*
X149461513Y-87621620D01*
X149593368Y-87753475D01*
X149836589Y-87915990D01*
X150106842Y-88027932D01*
X150393740Y-88085000D01*
X150686260Y-88085000D01*
X150973158Y-88027932D01*
X151243411Y-87915990D01*
X151486632Y-87753475D01*
X151693475Y-87546632D01*
X151810000Y-87372240D01*
X151926525Y-87546632D01*
X152133368Y-87753475D01*
X152376589Y-87915990D01*
X152646842Y-88027932D01*
X152933740Y-88085000D01*
X153226260Y-88085000D01*
X153513158Y-88027932D01*
X153783411Y-87915990D01*
X154026632Y-87753475D01*
X154233475Y-87546632D01*
X154355195Y-87364466D01*
X154424822Y-87481355D01*
X154619731Y-87697588D01*
X154853080Y-87871641D01*
X155115901Y-87996825D01*
X155263110Y-88041476D01*
X155493000Y-87920155D01*
X155493000Y-86727000D01*
X155747000Y-86727000D01*
X155747000Y-87920155D01*
X155976890Y-88041476D01*
X156124099Y-87996825D01*
X156386920Y-87871641D01*
X156620269Y-87697588D01*
X156815178Y-87481355D01*
X156964157Y-87231252D01*
X157061481Y-86956891D01*
X156940814Y-86727000D01*
X155747000Y-86727000D01*
X155493000Y-86727000D01*
X155473000Y-86727000D01*
X155473000Y-86473000D01*
X155493000Y-86473000D01*
X155493000Y-85279845D01*
X155747000Y-85279845D01*
X155747000Y-86473000D01*
X156940814Y-86473000D01*
X157061481Y-86243109D01*
X156964157Y-85968748D01*
X156815178Y-85718645D01*
X156620269Y-85502412D01*
X156386920Y-85328359D01*
X156124099Y-85203175D01*
X155976890Y-85158524D01*
X155747000Y-85279845D01*
X155493000Y-85279845D01*
X155263110Y-85158524D01*
X155115901Y-85203175D01*
X154853080Y-85328359D01*
X154619731Y-85502412D01*
X154424822Y-85718645D01*
X154355195Y-85835534D01*
X154233475Y-85653368D01*
X154026632Y-85446525D01*
X153783411Y-85284010D01*
X153513158Y-85172068D01*
X153226260Y-85115000D01*
X152933740Y-85115000D01*
X152776874Y-85146203D01*
X152795226Y-85101898D01*
X152835000Y-84901939D01*
X152835000Y-84698061D01*
X152795226Y-84498102D01*
X152717205Y-84309744D01*
X152603937Y-84140226D01*
X152459774Y-83996063D01*
X152290256Y-83882795D01*
X152101898Y-83804774D01*
X151901939Y-83765000D01*
X151698061Y-83765000D01*
X151498102Y-83804774D01*
X151309744Y-83882795D01*
X151261546Y-83915000D01*
X147333463Y-83915000D01*
X147289997Y-83910719D01*
X147246531Y-83915000D01*
X147246521Y-83915000D01*
X147116508Y-83927805D01*
X146949685Y-83978411D01*
X146795939Y-84060589D01*
X146795937Y-84060590D01*
X146795938Y-84060590D01*
X146694951Y-84143468D01*
X146694949Y-84143470D01*
X146661181Y-84171183D01*
X146633468Y-84204951D01*
X146260000Y-84578419D01*
X146260000Y-77584072D01*
X146396000Y-77584072D01*
X146569254Y-77567008D01*
X146735850Y-77516472D01*
X146889386Y-77434405D01*
X147023962Y-77323962D01*
X147134405Y-77189386D01*
X147216472Y-77035850D01*
X147267008Y-76869254D01*
X147284072Y-76696000D01*
X147284072Y-75380990D01*
X148306189Y-75380990D01*
X150707211Y-77782013D01*
X150731009Y-77811011D01*
X150846734Y-77905984D01*
X150978763Y-77976556D01*
X151122024Y-78020013D01*
X151233677Y-78031010D01*
X151233686Y-78031010D01*
X151271009Y-78034686D01*
X151308332Y-78031010D01*
X153323668Y-78031010D01*
X153360990Y-78034686D01*
X153398312Y-78031010D01*
X153398323Y-78031010D01*
X153509976Y-78020013D01*
X153653237Y-77976556D01*
X153785266Y-77905984D01*
X153900991Y-77811011D01*
X153924794Y-77782007D01*
X154122729Y-77584072D01*
X155286000Y-77584072D01*
X155459254Y-77567008D01*
X155625850Y-77516472D01*
X155779386Y-77434405D01*
X155913962Y-77323962D01*
X156024405Y-77189386D01*
X156106472Y-77035850D01*
X156157008Y-76869254D01*
X156174072Y-76696000D01*
X156174072Y-75196000D01*
X156157008Y-75022746D01*
X156106472Y-74856150D01*
X156024405Y-74702614D01*
X155913962Y-74568038D01*
X155779386Y-74457595D01*
X155625850Y-74375528D01*
X155459254Y-74324992D01*
X155286000Y-74307928D01*
X154086000Y-74307928D01*
X153912746Y-74324992D01*
X153746150Y-74375528D01*
X153592614Y-74457595D01*
X153458038Y-74568038D01*
X153347595Y-74702614D01*
X153293086Y-74804593D01*
X153292802Y-74804205D01*
X153078046Y-74607336D01*
X152829009Y-74456146D01*
X152555261Y-74356446D01*
X152542890Y-74354524D01*
X152313000Y-74475845D01*
X152313000Y-75819000D01*
X152333000Y-75819000D01*
X152333000Y-76073000D01*
X152313000Y-76073000D01*
X152313000Y-76093000D01*
X152059000Y-76093000D01*
X152059000Y-76073000D01*
X152039000Y-76073000D01*
X152039000Y-75819000D01*
X152059000Y-75819000D01*
X152059000Y-74475845D01*
X151829110Y-74354524D01*
X151816739Y-74356446D01*
X151542991Y-74456146D01*
X151293954Y-74607336D01*
X151079198Y-74804205D01*
X150906975Y-75039188D01*
X150783904Y-75303255D01*
X150714715Y-75586258D01*
X150801865Y-75727063D01*
X149184794Y-74109993D01*
X149160991Y-74080989D01*
X149045266Y-73986016D01*
X148913237Y-73915444D01*
X148769976Y-73871987D01*
X148658323Y-73860990D01*
X148658312Y-73860990D01*
X148620990Y-73857314D01*
X148583668Y-73860990D01*
X144995153Y-73860990D01*
X144957820Y-73857313D01*
X144920487Y-73860990D01*
X144808834Y-73871987D01*
X144665573Y-73915444D01*
X144533544Y-73986016D01*
X144417819Y-74080989D01*
X144394016Y-74109993D01*
X144109988Y-74394021D01*
X144080990Y-74417819D01*
X144057192Y-74446817D01*
X144057191Y-74446818D01*
X144012780Y-74500932D01*
X143939009Y-74456146D01*
X143665261Y-74356446D01*
X143652890Y-74354524D01*
X143423000Y-74475845D01*
X143423000Y-75819000D01*
X143443000Y-75819000D01*
X143443000Y-76073000D01*
X143423000Y-76073000D01*
X143423000Y-77416155D01*
X143652890Y-77537476D01*
X143665261Y-77535554D01*
X143860991Y-77464269D01*
X143860990Y-83651200D01*
X143779550Y-83596784D01*
X143591192Y-83518763D01*
X143391233Y-83478989D01*
X143187355Y-83478989D01*
X142987396Y-83518763D01*
X142799038Y-83596784D01*
X142629520Y-83710052D01*
X142599572Y-83740000D01*
X139787322Y-83740000D01*
X139749999Y-83736324D01*
X139712676Y-83740000D01*
X139712667Y-83740000D01*
X139601014Y-83750997D01*
X139457753Y-83794454D01*
X139325724Y-83865026D01*
X139209999Y-83959999D01*
X139186201Y-83988997D01*
X130648004Y-92527195D01*
X130619000Y-92550998D01*
X130580377Y-92598061D01*
X130524027Y-92666723D01*
X130468340Y-92770906D01*
X130453455Y-92798753D01*
X130409998Y-92942014D01*
X130399001Y-93053667D01*
X130399001Y-93053677D01*
X130395325Y-93090999D01*
X130399001Y-93128322D01*
X130399001Y-94361928D01*
X129838929Y-94361928D01*
X129064715Y-93587715D01*
X129033870Y-93550130D01*
X128922178Y-93458467D01*
X128909774Y-93446063D01*
X128895188Y-93436317D01*
X128883884Y-93427040D01*
X128870987Y-93420146D01*
X128740256Y-93332795D01*
X128715571Y-93322570D01*
X128043777Y-92650777D01*
X129186173Y-91508381D01*
X129301832Y-91367450D01*
X129416511Y-91152901D01*
X129487130Y-90920103D01*
X129510975Y-90678001D01*
X129487130Y-90435899D01*
X129416511Y-90203101D01*
X129301832Y-89988552D01*
X129147501Y-89800499D01*
X128959448Y-89646168D01*
X128744899Y-89531489D01*
X128512101Y-89460870D01*
X128269999Y-89437025D01*
X128027897Y-89460870D01*
X127795099Y-89531489D01*
X127580550Y-89646168D01*
X127439619Y-89761827D01*
X125472447Y-91729000D01*
X119703552Y-91729000D01*
X117576379Y-89601828D01*
X117435447Y-89486169D01*
X117220898Y-89371490D01*
X117105291Y-89336420D01*
X117135937Y-89305774D01*
X117249205Y-89136256D01*
X117327226Y-88947898D01*
X117367000Y-88747939D01*
X117367000Y-88544061D01*
X117327226Y-88344102D01*
X117249205Y-88155744D01*
X117135937Y-87986226D01*
X117033711Y-87884000D01*
X117135937Y-87781774D01*
X117249205Y-87612256D01*
X117327226Y-87423898D01*
X117367000Y-87223939D01*
X117367000Y-87108061D01*
X124695000Y-87108061D01*
X124695000Y-87311939D01*
X124734774Y-87511898D01*
X124812795Y-87700256D01*
X124926063Y-87869774D01*
X125070226Y-88013937D01*
X125239744Y-88127205D01*
X125428102Y-88205226D01*
X125628061Y-88245000D01*
X125831939Y-88245000D01*
X126031898Y-88205226D01*
X126220256Y-88127205D01*
X126389774Y-88013937D01*
X126533937Y-87869774D01*
X126647205Y-87700256D01*
X126725226Y-87511898D01*
X126765000Y-87311939D01*
X126765000Y-87108061D01*
X126725226Y-86908102D01*
X126647205Y-86719744D01*
X126533937Y-86550226D01*
X126497392Y-86513681D01*
X126539898Y-86505226D01*
X126728256Y-86427205D01*
X126897774Y-86313937D01*
X127041937Y-86169774D01*
X127155205Y-86000256D01*
X127233226Y-85811898D01*
X127273000Y-85611939D01*
X127273000Y-85408061D01*
X127233226Y-85208102D01*
X127155205Y-85019744D01*
X127041937Y-84850226D01*
X126897774Y-84706063D01*
X126728256Y-84592795D01*
X126539898Y-84514774D01*
X126339939Y-84475000D01*
X126136061Y-84475000D01*
X125936102Y-84514774D01*
X125747744Y-84592795D01*
X125578226Y-84706063D01*
X125434063Y-84850226D01*
X125320795Y-85019744D01*
X125242774Y-85208102D01*
X125203000Y-85408061D01*
X125203000Y-85467330D01*
X125190000Y-85477999D01*
X125166202Y-85506997D01*
X125166201Y-85506998D01*
X125095026Y-85593724D01*
X125024454Y-85725754D01*
X125005773Y-85787339D01*
X124980998Y-85869014D01*
X124978045Y-85898992D01*
X124966324Y-86018000D01*
X124970001Y-86055332D01*
X124970001Y-86506288D01*
X124926063Y-86550226D01*
X124812795Y-86719744D01*
X124734774Y-86908102D01*
X124695000Y-87108061D01*
X117367000Y-87108061D01*
X117367000Y-87020061D01*
X117327226Y-86820102D01*
X117249205Y-86631744D01*
X117135937Y-86462226D01*
X116991774Y-86318063D01*
X116822256Y-86204795D01*
X116633898Y-86126774D01*
X116433939Y-86087000D01*
X116230061Y-86087000D01*
X116030102Y-86126774D01*
X115841744Y-86204795D01*
X115672226Y-86318063D01*
X115528063Y-86462226D01*
X115414795Y-86631744D01*
X115336774Y-86820102D01*
X115297000Y-87020061D01*
X115297000Y-87223939D01*
X115336774Y-87423898D01*
X115414795Y-87612256D01*
X115528063Y-87781774D01*
X115630289Y-87884000D01*
X115528063Y-87986226D01*
X115447261Y-88107154D01*
X115336632Y-87996525D01*
X115093411Y-87834010D01*
X114823158Y-87722068D01*
X114536260Y-87665000D01*
X114243740Y-87665000D01*
X113956842Y-87722068D01*
X113686589Y-87834010D01*
X113443368Y-87996525D01*
X113311513Y-88128380D01*
X113289502Y-88055820D01*
X113230537Y-87945506D01*
X113151185Y-87848815D01*
X113054494Y-87769463D01*
X112944180Y-87710498D01*
X112824482Y-87674188D01*
X112700000Y-87661928D01*
X111000000Y-87661928D01*
X110875518Y-87674188D01*
X110755820Y-87710498D01*
X110645506Y-87769463D01*
X110548815Y-87848815D01*
X110469463Y-87945506D01*
X110410498Y-88055820D01*
X110374188Y-88175518D01*
X110361928Y-88300000D01*
X110361928Y-90000000D01*
X110374188Y-90124482D01*
X110410498Y-90244180D01*
X110469463Y-90354494D01*
X110548815Y-90451185D01*
X110645506Y-90530537D01*
X110755820Y-90589502D01*
X110875518Y-90625812D01*
X111000000Y-90638072D01*
X112700000Y-90638072D01*
X112824482Y-90625812D01*
X112944180Y-90589502D01*
X113054494Y-90530537D01*
X113151185Y-90451185D01*
X113230537Y-90354494D01*
X113289502Y-90244180D01*
X113311513Y-90171620D01*
X113443368Y-90303475D01*
X113686589Y-90465990D01*
X113956842Y-90577932D01*
X114243740Y-90635000D01*
X114536260Y-90635000D01*
X114823158Y-90577932D01*
X115093411Y-90465990D01*
X115336632Y-90303475D01*
X115543475Y-90096632D01*
X115680446Y-89891640D01*
X115599488Y-90043102D01*
X115528869Y-90275899D01*
X115505024Y-90518001D01*
X115528869Y-90760103D01*
X115599488Y-90992900D01*
X115714167Y-91207449D01*
X115829826Y-91348381D01*
X118275824Y-93794380D01*
X118314496Y-93841502D01*
X118502549Y-93995833D01*
X118717097Y-94110511D01*
X118833497Y-94145821D01*
X118949895Y-94181130D01*
X119191998Y-94204975D01*
X119252663Y-94199000D01*
X125923335Y-94199000D01*
X125984000Y-94204975D01*
X126044665Y-94199000D01*
X126226102Y-94181130D01*
X126458901Y-94110511D01*
X126627430Y-94020430D01*
X127322570Y-94715571D01*
X127332795Y-94740256D01*
X127446063Y-94909774D01*
X127590226Y-95053937D01*
X127695928Y-95124565D01*
X127695928Y-95975924D01*
X127685199Y-95988998D01*
X126989002Y-96685195D01*
X126959999Y-96708997D01*
X126904871Y-96776172D01*
X126865026Y-96824722D01*
X126805439Y-96936201D01*
X126794454Y-96956752D01*
X126750997Y-97100013D01*
X126740000Y-97211666D01*
X126740000Y-97211676D01*
X126736324Y-97248998D01*
X126740000Y-97286321D01*
X126740001Y-100462668D01*
X126736324Y-100500000D01*
X126740001Y-100537333D01*
X126750998Y-100648986D01*
X126759974Y-100678575D01*
X126794454Y-100792246D01*
X126865026Y-100924276D01*
X126935536Y-101010192D01*
X126960000Y-101040001D01*
X126988998Y-101063799D01*
X127695928Y-101770730D01*
X127695928Y-102000000D01*
X127708188Y-102124482D01*
X127744498Y-102244180D01*
X127803463Y-102354494D01*
X127882815Y-102451185D01*
X127942296Y-102500000D01*
X127882815Y-102548815D01*
X127803463Y-102645506D01*
X127744498Y-102755820D01*
X127708188Y-102875518D01*
X127695928Y-103000000D01*
X127695928Y-104000000D01*
X127708188Y-104124482D01*
X127744498Y-104244180D01*
X127803463Y-104354494D01*
X127882815Y-104451185D01*
X127942296Y-104500000D01*
X127882815Y-104548815D01*
X127803463Y-104645506D01*
X127744498Y-104755820D01*
X127708188Y-104875518D01*
X127695928Y-105000000D01*
X127695928Y-105016920D01*
X126722859Y-105989990D01*
X126660721Y-105989990D01*
X126460762Y-106029764D01*
X126272404Y-106107785D01*
X126102886Y-106221053D01*
X125958723Y-106365216D01*
X125845455Y-106534734D01*
X125767434Y-106723092D01*
X125727660Y-106923051D01*
X125727660Y-106990000D01*
X125064801Y-106990000D01*
X125030001Y-106955200D01*
X125030001Y-101284800D01*
X125719802Y-100595000D01*
X125781939Y-100595000D01*
X125981898Y-100555226D01*
X126170256Y-100477205D01*
X126339774Y-100363937D01*
X126483937Y-100219774D01*
X126597205Y-100050256D01*
X126675226Y-99861898D01*
X126715000Y-99661939D01*
X126715000Y-99458061D01*
X126675226Y-99258102D01*
X126597205Y-99069744D01*
X126483937Y-98900226D01*
X126339774Y-98756063D01*
X126170256Y-98642795D01*
X125981898Y-98564774D01*
X125781939Y-98525000D01*
X125578061Y-98525000D01*
X125378102Y-98564774D01*
X125189744Y-98642795D01*
X125020226Y-98756063D01*
X124876063Y-98900226D01*
X124762795Y-99069744D01*
X124684774Y-99258102D01*
X124645000Y-99458061D01*
X124645000Y-99520198D01*
X123758999Y-100406200D01*
X123730001Y-100429998D01*
X123706203Y-100458996D01*
X123706202Y-100458997D01*
X123635027Y-100545723D01*
X123564455Y-100677753D01*
X123540399Y-100757058D01*
X123520999Y-100821013D01*
X123514407Y-100887938D01*
X123506325Y-100969999D01*
X123510002Y-101007331D01*
X123510001Y-107232678D01*
X123506325Y-107270001D01*
X123510001Y-107307323D01*
X123510001Y-107307333D01*
X123520998Y-107418986D01*
X123550198Y-107515246D01*
X123564455Y-107562247D01*
X123635027Y-107694277D01*
X123668448Y-107735000D01*
X123730000Y-107810002D01*
X123759004Y-107833805D01*
X124186196Y-108260997D01*
X124209999Y-108290001D01*
X124253528Y-108325724D01*
X124325723Y-108384974D01*
X124373475Y-108410498D01*
X124457753Y-108455546D01*
X124601014Y-108499003D01*
X124712667Y-108510000D01*
X124712676Y-108510000D01*
X124749999Y-108513676D01*
X124787322Y-108510000D01*
X127930111Y-108510000D01*
X127882815Y-108548815D01*
X127803463Y-108645506D01*
X127752954Y-108740000D01*
X127537325Y-108740000D01*
X127500000Y-108736324D01*
X127462675Y-108740000D01*
X127462667Y-108740000D01*
X127351014Y-108750997D01*
X127207753Y-108794454D01*
X127075724Y-108865026D01*
X126959999Y-108959999D01*
X126955895Y-108965000D01*
X126898061Y-108965000D01*
X126698102Y-109004774D01*
X126509744Y-109082795D01*
X126340226Y-109196063D01*
X126196063Y-109340226D01*
X126082795Y-109509744D01*
X126004774Y-109698102D01*
X125965000Y-109898061D01*
X125965000Y-110101939D01*
X126004774Y-110301898D01*
X126082795Y-110490256D01*
X126196063Y-110659774D01*
X126340226Y-110803937D01*
X126509744Y-110917205D01*
X126698102Y-110995226D01*
X126898061Y-111035000D01*
X127101939Y-111035000D01*
X127301898Y-110995226D01*
X127490256Y-110917205D01*
X127659000Y-110804454D01*
X127659000Y-118340000D01*
X102100807Y-118340000D01*
X102307207Y-118202088D01*
X102702088Y-117807207D01*
X103012344Y-117342876D01*
X103226052Y-116826939D01*
X103335000Y-116279223D01*
X103335000Y-115720777D01*
X103226052Y-115173061D01*
X103012344Y-114657124D01*
X102702088Y-114192793D01*
X102307207Y-113797912D01*
X101842876Y-113487656D01*
X101326939Y-113273948D01*
X100779223Y-113165000D01*
X100220777Y-113165000D01*
X99673061Y-113273948D01*
X99157124Y-113487656D01*
X98692793Y-113797912D01*
X98297912Y-114192793D01*
X98160000Y-114399193D01*
X98160000Y-109798061D01*
X102515000Y-109798061D01*
X102515000Y-110001939D01*
X102554774Y-110201898D01*
X102632795Y-110390256D01*
X102746063Y-110559774D01*
X102890226Y-110703937D01*
X103059744Y-110817205D01*
X103248102Y-110895226D01*
X103448061Y-110935000D01*
X103651939Y-110935000D01*
X103851898Y-110895226D01*
X104040256Y-110817205D01*
X104209774Y-110703937D01*
X104353937Y-110559774D01*
X104467205Y-110390256D01*
X104545226Y-110201898D01*
X104585000Y-110001939D01*
X104585000Y-109850000D01*
X118511928Y-109850000D01*
X118511928Y-111550000D01*
X118524188Y-111674482D01*
X118560498Y-111794180D01*
X118619463Y-111904494D01*
X118698815Y-112001185D01*
X118795506Y-112080537D01*
X118905820Y-112139502D01*
X119025518Y-112175812D01*
X119150000Y-112188072D01*
X120850000Y-112188072D01*
X120974482Y-112175812D01*
X121094180Y-112139502D01*
X121204494Y-112080537D01*
X121301185Y-112001185D01*
X121380537Y-111904494D01*
X121439502Y-111794180D01*
X121475812Y-111674482D01*
X121488072Y-111550000D01*
X121488072Y-109850000D01*
X121475812Y-109725518D01*
X121439502Y-109605820D01*
X121380537Y-109495506D01*
X121301185Y-109398815D01*
X121204494Y-109319463D01*
X121094180Y-109260498D01*
X121021620Y-109238487D01*
X121153475Y-109106632D01*
X121315990Y-108863411D01*
X121427932Y-108593158D01*
X121485000Y-108306260D01*
X121485000Y-108013740D01*
X121427932Y-107726842D01*
X121315990Y-107456589D01*
X121153475Y-107213368D01*
X120946632Y-107006525D01*
X120772240Y-106890000D01*
X120946632Y-106773475D01*
X121153475Y-106566632D01*
X121315990Y-106323411D01*
X121427932Y-106053158D01*
X121485000Y-105766260D01*
X121485000Y-105473740D01*
X121427932Y-105186842D01*
X121315990Y-104916589D01*
X121153475Y-104673368D01*
X120946632Y-104466525D01*
X120772240Y-104350000D01*
X120946632Y-104233475D01*
X121153475Y-104026632D01*
X121315990Y-103783411D01*
X121427932Y-103513158D01*
X121485000Y-103226260D01*
X121485000Y-102933740D01*
X121427932Y-102646842D01*
X121315990Y-102376589D01*
X121153475Y-102133368D01*
X120946632Y-101926525D01*
X120772240Y-101810000D01*
X120946632Y-101693475D01*
X121153475Y-101486632D01*
X121315990Y-101243411D01*
X121427932Y-100973158D01*
X121485000Y-100686260D01*
X121485000Y-100393740D01*
X121427932Y-100106842D01*
X121315990Y-99836589D01*
X121153475Y-99593368D01*
X120946632Y-99386525D01*
X120764466Y-99264805D01*
X120881355Y-99195178D01*
X121097588Y-99000269D01*
X121271641Y-98766920D01*
X121396825Y-98504099D01*
X121441476Y-98356890D01*
X121320155Y-98127000D01*
X120127000Y-98127000D01*
X120127000Y-98147000D01*
X119873000Y-98147000D01*
X119873000Y-98127000D01*
X118679845Y-98127000D01*
X118558524Y-98356890D01*
X118603175Y-98504099D01*
X118728359Y-98766920D01*
X118902412Y-99000269D01*
X119118645Y-99195178D01*
X119235534Y-99264805D01*
X119053368Y-99386525D01*
X118846525Y-99593368D01*
X118684010Y-99836589D01*
X118572068Y-100106842D01*
X118515000Y-100393740D01*
X118515000Y-100686260D01*
X118572068Y-100973158D01*
X118684010Y-101243411D01*
X118846525Y-101486632D01*
X119053368Y-101693475D01*
X119227760Y-101810000D01*
X119053368Y-101926525D01*
X118846525Y-102133368D01*
X118684010Y-102376589D01*
X118572068Y-102646842D01*
X118515000Y-102933740D01*
X118515000Y-103226260D01*
X118572068Y-103513158D01*
X118684010Y-103783411D01*
X118846525Y-104026632D01*
X119053368Y-104233475D01*
X119227760Y-104350000D01*
X119053368Y-104466525D01*
X118846525Y-104673368D01*
X118684010Y-104916589D01*
X118572068Y-105186842D01*
X118515000Y-105473740D01*
X118515000Y-105766260D01*
X118572068Y-106053158D01*
X118684010Y-106323411D01*
X118846525Y-106566632D01*
X119053368Y-106773475D01*
X119227760Y-106890000D01*
X119053368Y-107006525D01*
X118846525Y-107213368D01*
X118684010Y-107456589D01*
X118572068Y-107726842D01*
X118515000Y-108013740D01*
X118515000Y-108306260D01*
X118572068Y-108593158D01*
X118684010Y-108863411D01*
X118846525Y-109106632D01*
X118978380Y-109238487D01*
X118905820Y-109260498D01*
X118795506Y-109319463D01*
X118698815Y-109398815D01*
X118619463Y-109495506D01*
X118560498Y-109605820D01*
X118524188Y-109725518D01*
X118511928Y-109850000D01*
X104585000Y-109850000D01*
X104585000Y-109798061D01*
X104545226Y-109598102D01*
X104467205Y-109409744D01*
X104360000Y-109249300D01*
X104360000Y-107403711D01*
X104403937Y-107359774D01*
X104517205Y-107190256D01*
X104595226Y-107001898D01*
X104635000Y-106801939D01*
X104635000Y-106598061D01*
X104595226Y-106398102D01*
X104517205Y-106209744D01*
X104403937Y-106040226D01*
X104259774Y-105896063D01*
X104090256Y-105782795D01*
X103901898Y-105704774D01*
X103701939Y-105665000D01*
X103498061Y-105665000D01*
X103298102Y-105704774D01*
X103109744Y-105782795D01*
X102940226Y-105896063D01*
X102796063Y-106040226D01*
X102682795Y-106209744D01*
X102604774Y-106398102D01*
X102565000Y-106598061D01*
X102565000Y-106801939D01*
X102604774Y-107001898D01*
X102682795Y-107190256D01*
X102796063Y-107359774D01*
X102840000Y-107403711D01*
X102840001Y-109146288D01*
X102746063Y-109240226D01*
X102632795Y-109409744D01*
X102554774Y-109598102D01*
X102515000Y-109798061D01*
X98160000Y-109798061D01*
X98160000Y-100095000D01*
X98301939Y-100095000D01*
X98501898Y-100055226D01*
X98690256Y-99977205D01*
X98859774Y-99863937D01*
X99003937Y-99719774D01*
X99117205Y-99550256D01*
X99195226Y-99361898D01*
X99235000Y-99161939D01*
X99235000Y-98958061D01*
X99195226Y-98758102D01*
X99117205Y-98569744D01*
X99003937Y-98400226D01*
X98859774Y-98256063D01*
X98690256Y-98142795D01*
X98501898Y-98064774D01*
X98301939Y-98025000D01*
X98160000Y-98025000D01*
X98160000Y-88650259D01*
X100165000Y-88650259D01*
X100165000Y-104550259D01*
X100177201Y-104674141D01*
X100213336Y-104793263D01*
X100272017Y-104903046D01*
X100350987Y-104999272D01*
X100447213Y-105078242D01*
X100556996Y-105136923D01*
X100676118Y-105173058D01*
X100800000Y-105185259D01*
X101800000Y-105185259D01*
X101923882Y-105173058D01*
X102043004Y-105136923D01*
X102152787Y-105078242D01*
X102249013Y-104999272D01*
X102327983Y-104903046D01*
X102386664Y-104793263D01*
X102422799Y-104674141D01*
X102435000Y-104550259D01*
X102435000Y-104485259D01*
X103801464Y-104485259D01*
X103804774Y-104501898D01*
X103855000Y-104623153D01*
X103855000Y-104701332D01*
X103876142Y-104863822D01*
X103919637Y-104980458D01*
X103985051Y-105086367D01*
X104069870Y-105177479D01*
X104170835Y-105250293D01*
X104284064Y-105302011D01*
X104405208Y-105330645D01*
X104529610Y-105335095D01*
X105329610Y-105285095D01*
X105413882Y-105274131D01*
X105533004Y-105237996D01*
X105642787Y-105179315D01*
X105739013Y-105100345D01*
X105817983Y-105004119D01*
X105876664Y-104894336D01*
X105912799Y-104775214D01*
X105925000Y-104651332D01*
X105925000Y-101486332D01*
X108240000Y-101486332D01*
X108363882Y-101474131D01*
X108483004Y-101437996D01*
X108592787Y-101379315D01*
X108689013Y-101300345D01*
X108767983Y-101204119D01*
X108826664Y-101094336D01*
X108862799Y-100975214D01*
X108875000Y-100851332D01*
X108875000Y-97643110D01*
X118558524Y-97643110D01*
X118679845Y-97873000D01*
X119873000Y-97873000D01*
X119873000Y-96679186D01*
X120127000Y-96679186D01*
X120127000Y-97873000D01*
X121320155Y-97873000D01*
X121441476Y-97643110D01*
X121396825Y-97495901D01*
X121271641Y-97233080D01*
X121097588Y-96999731D01*
X120881355Y-96804822D01*
X120631252Y-96655843D01*
X120356891Y-96558519D01*
X120127000Y-96679186D01*
X119873000Y-96679186D01*
X119643109Y-96558519D01*
X119368748Y-96655843D01*
X119118645Y-96804822D01*
X118902412Y-96999731D01*
X118728359Y-97233080D01*
X118603175Y-97495901D01*
X118558524Y-97643110D01*
X108875000Y-97643110D01*
X108875000Y-89251332D01*
X108861092Y-89119157D01*
X108823372Y-89000528D01*
X108763233Y-88891537D01*
X108682987Y-88796373D01*
X108585717Y-88718692D01*
X108475161Y-88661481D01*
X108355568Y-88626937D01*
X108231534Y-88616388D01*
X104835000Y-88661675D01*
X104835000Y-88652154D01*
X104822868Y-88528619D01*
X104818533Y-88514301D01*
X104827983Y-88502787D01*
X104886664Y-88393004D01*
X104922799Y-88273882D01*
X104935000Y-88150000D01*
X104935000Y-87435000D01*
X110550000Y-87435000D01*
X110673882Y-87422799D01*
X110793004Y-87386664D01*
X110902787Y-87327983D01*
X110999013Y-87249013D01*
X111077983Y-87152787D01*
X111136664Y-87043004D01*
X111172799Y-86923882D01*
X111185000Y-86800000D01*
X111185000Y-82398053D01*
X128965000Y-82398053D01*
X128965000Y-82601931D01*
X129004774Y-82801890D01*
X129082795Y-82990248D01*
X129196063Y-83159766D01*
X129340226Y-83303929D01*
X129509744Y-83417197D01*
X129698102Y-83495218D01*
X129898061Y-83534992D01*
X129960199Y-83534992D01*
X131982964Y-85557757D01*
X131965000Y-85648067D01*
X131965000Y-85851945D01*
X132004774Y-86051904D01*
X132082795Y-86240262D01*
X132196063Y-86409780D01*
X132340226Y-86553943D01*
X132509744Y-86667211D01*
X132698102Y-86745232D01*
X132898061Y-86785006D01*
X133101939Y-86785006D01*
X133301898Y-86745232D01*
X133490256Y-86667211D01*
X133659774Y-86553943D01*
X133803937Y-86409780D01*
X133917205Y-86240262D01*
X133995226Y-86051904D01*
X134035000Y-85851945D01*
X134035000Y-85648067D01*
X133995226Y-85448108D01*
X133917205Y-85259750D01*
X133803937Y-85090232D01*
X133659774Y-84946069D01*
X133490256Y-84832801D01*
X133349171Y-84774361D01*
X131035000Y-82460191D01*
X131035000Y-82398053D01*
X130995226Y-82198094D01*
X130917205Y-82009736D01*
X130803937Y-81840218D01*
X130659774Y-81696055D01*
X130490256Y-81582787D01*
X130301898Y-81504766D01*
X130101939Y-81464992D01*
X129898061Y-81464992D01*
X129698102Y-81504766D01*
X129509744Y-81582787D01*
X129340226Y-81696055D01*
X129196063Y-81840218D01*
X129082795Y-82009736D01*
X129004774Y-82198094D01*
X128965000Y-82398053D01*
X111185000Y-82398053D01*
X111185000Y-80800000D01*
X111172799Y-80676118D01*
X111136664Y-80556996D01*
X111077983Y-80447213D01*
X110999013Y-80350987D01*
X110902787Y-80272017D01*
X110793004Y-80213336D01*
X110673882Y-80177201D01*
X110550000Y-80165000D01*
X105688072Y-80165000D01*
X105688072Y-79375000D01*
X105658999Y-79079814D01*
X105572896Y-78795972D01*
X105548324Y-78750000D01*
X105611928Y-78750000D01*
X105624188Y-78874482D01*
X105660498Y-78994180D01*
X105719463Y-79104494D01*
X105798815Y-79201185D01*
X105895506Y-79280537D01*
X106005820Y-79339502D01*
X106125518Y-79375812D01*
X106250000Y-79388072D01*
X107714250Y-79385000D01*
X107873000Y-79226250D01*
X107873000Y-77377000D01*
X108127000Y-77377000D01*
X108127000Y-79226250D01*
X108285750Y-79385000D01*
X109750000Y-79388072D01*
X109874482Y-79375812D01*
X109994180Y-79339502D01*
X110104494Y-79280537D01*
X110201185Y-79201185D01*
X110280537Y-79104494D01*
X110339502Y-78994180D01*
X110375812Y-78874482D01*
X110388072Y-78750000D01*
X110385000Y-77535750D01*
X110226250Y-77377000D01*
X108127000Y-77377000D01*
X107873000Y-77377000D01*
X105773750Y-77377000D01*
X105615000Y-77535750D01*
X105611928Y-78750000D01*
X105548324Y-78750000D01*
X105433073Y-78534382D01*
X105244903Y-78305097D01*
X105015618Y-78116927D01*
X104754028Y-77977104D01*
X104470186Y-77891001D01*
X104175000Y-77861928D01*
X102425000Y-77861928D01*
X102129814Y-77891001D01*
X101845972Y-77977104D01*
X101584382Y-78116927D01*
X101355097Y-78305097D01*
X101166927Y-78534382D01*
X101027104Y-78795972D01*
X100941001Y-79079814D01*
X100911928Y-79375000D01*
X100911928Y-81125000D01*
X100941001Y-81420186D01*
X101027104Y-81704028D01*
X101166927Y-81965618D01*
X101355097Y-82194903D01*
X101584382Y-82383073D01*
X101845972Y-82522896D01*
X102129814Y-82608999D01*
X102425000Y-82638072D01*
X104175000Y-82638072D01*
X104470186Y-82608999D01*
X104754028Y-82522896D01*
X104965000Y-82410129D01*
X104965000Y-83365000D01*
X100900000Y-83365000D01*
X100776118Y-83377201D01*
X100656996Y-83413336D01*
X100547213Y-83472017D01*
X100450987Y-83550987D01*
X100372017Y-83647213D01*
X100313336Y-83756996D01*
X100277201Y-83876118D01*
X100265000Y-84000000D01*
X100265000Y-88150000D01*
X100277201Y-88273882D01*
X100281027Y-88286494D01*
X100272017Y-88297472D01*
X100213336Y-88407255D01*
X100177201Y-88526377D01*
X100165000Y-88650259D01*
X98160000Y-88650259D01*
X98160000Y-75100807D01*
X98297912Y-75307207D01*
X98692793Y-75702088D01*
X99157124Y-76012344D01*
X99673061Y-76226052D01*
X100220777Y-76335000D01*
X100779223Y-76335000D01*
X101326939Y-76226052D01*
X101842876Y-76012344D01*
X102235501Y-75750000D01*
X105611928Y-75750000D01*
X105615000Y-76964250D01*
X105773750Y-77123000D01*
X107873000Y-77123000D01*
X107873000Y-75273750D01*
X108127000Y-75273750D01*
X108127000Y-77123000D01*
X110226250Y-77123000D01*
X110385000Y-76964250D01*
X110388072Y-75750000D01*
X110378385Y-75651633D01*
X114740472Y-75651633D01*
X114802965Y-75887950D01*
X115045678Y-76001350D01*
X115305849Y-76065219D01*
X115573482Y-76077104D01*
X115838291Y-76036548D01*
X116090100Y-75945109D01*
X116197035Y-75887950D01*
X116259528Y-75651633D01*
X119740472Y-75651633D01*
X119802965Y-75887950D01*
X120045678Y-76001350D01*
X120305849Y-76065219D01*
X120573482Y-76077104D01*
X120838291Y-76036548D01*
X121090100Y-75945109D01*
X121197035Y-75887950D01*
X121240642Y-75723050D01*
X124285000Y-75723050D01*
X124285000Y-76168949D01*
X124306487Y-76387110D01*
X124391401Y-76667033D01*
X124529294Y-76925013D01*
X124714866Y-77151134D01*
X124940986Y-77336706D01*
X125198966Y-77474599D01*
X125478889Y-77559513D01*
X125770000Y-77588185D01*
X126061110Y-77559513D01*
X126341033Y-77474599D01*
X126599013Y-77336706D01*
X126825134Y-77151134D01*
X126877223Y-77087663D01*
X126931595Y-77189386D01*
X127042038Y-77323962D01*
X127176614Y-77434405D01*
X127330150Y-77516472D01*
X127496746Y-77567008D01*
X127670000Y-77584072D01*
X128870000Y-77584072D01*
X129043254Y-77567008D01*
X129209850Y-77516472D01*
X129363386Y-77434405D01*
X129497962Y-77323962D01*
X129608405Y-77189386D01*
X129690472Y-77035850D01*
X129741008Y-76869254D01*
X129758072Y-76696000D01*
X129758072Y-75723050D01*
X132921000Y-75723050D01*
X132921000Y-76168949D01*
X132942487Y-76387110D01*
X133027401Y-76667033D01*
X133165294Y-76925013D01*
X133350866Y-77151134D01*
X133576986Y-77336706D01*
X133834966Y-77474599D01*
X134114889Y-77559513D01*
X134406000Y-77588185D01*
X134697110Y-77559513D01*
X134977033Y-77474599D01*
X135235013Y-77336706D01*
X135461134Y-77151134D01*
X135513223Y-77087663D01*
X135567595Y-77189386D01*
X135678038Y-77323962D01*
X135812614Y-77434405D01*
X135966150Y-77516472D01*
X136132746Y-77567008D01*
X136306000Y-77584072D01*
X137506000Y-77584072D01*
X137679254Y-77567008D01*
X137845850Y-77516472D01*
X137999386Y-77434405D01*
X138133962Y-77323962D01*
X138244405Y-77189386D01*
X138326472Y-77035850D01*
X138377008Y-76869254D01*
X138394072Y-76696000D01*
X138394072Y-76305742D01*
X141824715Y-76305742D01*
X141893904Y-76588745D01*
X142016975Y-76852812D01*
X142189198Y-77087795D01*
X142403954Y-77284664D01*
X142652991Y-77435854D01*
X142926739Y-77535554D01*
X142939110Y-77537476D01*
X143169000Y-77416155D01*
X143169000Y-76073000D01*
X141968768Y-76073000D01*
X141824715Y-76305742D01*
X138394072Y-76305742D01*
X138394072Y-75586258D01*
X141824715Y-75586258D01*
X141968768Y-75819000D01*
X143169000Y-75819000D01*
X143169000Y-74475845D01*
X142939110Y-74354524D01*
X142926739Y-74356446D01*
X142652991Y-74456146D01*
X142403954Y-74607336D01*
X142189198Y-74804205D01*
X142016975Y-75039188D01*
X141893904Y-75303255D01*
X141824715Y-75586258D01*
X138394072Y-75586258D01*
X138394072Y-75196000D01*
X138377008Y-75022746D01*
X138326472Y-74856150D01*
X138244405Y-74702614D01*
X138133962Y-74568038D01*
X137999386Y-74457595D01*
X137845850Y-74375528D01*
X137679254Y-74324992D01*
X137506000Y-74307928D01*
X136306000Y-74307928D01*
X136132746Y-74324992D01*
X135966150Y-74375528D01*
X135812614Y-74457595D01*
X135678038Y-74568038D01*
X135567595Y-74702614D01*
X135513223Y-74804337D01*
X135461134Y-74740866D01*
X135235014Y-74555294D01*
X134977034Y-74417401D01*
X134697111Y-74332487D01*
X134406000Y-74303815D01*
X134114890Y-74332487D01*
X133834967Y-74417401D01*
X133576987Y-74555294D01*
X133350866Y-74740866D01*
X133165294Y-74966986D01*
X133027401Y-75224966D01*
X132942487Y-75504889D01*
X132921000Y-75723050D01*
X129758072Y-75723050D01*
X129758072Y-75196000D01*
X129741008Y-75022746D01*
X129690472Y-74856150D01*
X129608405Y-74702614D01*
X129497962Y-74568038D01*
X129363386Y-74457595D01*
X129209850Y-74375528D01*
X129043254Y-74324992D01*
X128870000Y-74307928D01*
X127670000Y-74307928D01*
X127496746Y-74324992D01*
X127330150Y-74375528D01*
X127176614Y-74457595D01*
X127042038Y-74568038D01*
X126931595Y-74702614D01*
X126877223Y-74804337D01*
X126825134Y-74740866D01*
X126599014Y-74555294D01*
X126341034Y-74417401D01*
X126061111Y-74332487D01*
X125770000Y-74303815D01*
X125478890Y-74332487D01*
X125198967Y-74417401D01*
X124940987Y-74555294D01*
X124714866Y-74740866D01*
X124529294Y-74966986D01*
X124391401Y-75224966D01*
X124306487Y-75504889D01*
X124285000Y-75723050D01*
X121240642Y-75723050D01*
X121259528Y-75651633D01*
X120500000Y-74892105D01*
X119740472Y-75651633D01*
X116259528Y-75651633D01*
X115500000Y-74892105D01*
X114740472Y-75651633D01*
X110378385Y-75651633D01*
X110375812Y-75625518D01*
X110339502Y-75505820D01*
X110280537Y-75395506D01*
X110201185Y-75298815D01*
X110104494Y-75219463D01*
X109994180Y-75160498D01*
X109874482Y-75124188D01*
X109750000Y-75111928D01*
X108285750Y-75115000D01*
X108127000Y-75273750D01*
X107873000Y-75273750D01*
X107714250Y-75115000D01*
X106250000Y-75111928D01*
X106125518Y-75124188D01*
X106005820Y-75160498D01*
X105895506Y-75219463D01*
X105798815Y-75298815D01*
X105719463Y-75395506D01*
X105660498Y-75505820D01*
X105624188Y-75625518D01*
X105611928Y-75750000D01*
X102235501Y-75750000D01*
X102307207Y-75702088D01*
X102702088Y-75307207D01*
X103012344Y-74842876D01*
X103035910Y-74785982D01*
X114135396Y-74785982D01*
X114175952Y-75050791D01*
X114267391Y-75302600D01*
X114324550Y-75409535D01*
X114560867Y-75472028D01*
X115320395Y-74712500D01*
X115679605Y-74712500D01*
X116439133Y-75472028D01*
X116675450Y-75409535D01*
X116788850Y-75166822D01*
X116852719Y-74906651D01*
X116858077Y-74785982D01*
X119135396Y-74785982D01*
X119175952Y-75050791D01*
X119267391Y-75302600D01*
X119324550Y-75409535D01*
X119560867Y-75472028D01*
X120320395Y-74712500D01*
X120679605Y-74712500D01*
X121439133Y-75472028D01*
X121675450Y-75409535D01*
X121788850Y-75166822D01*
X121852719Y-74906651D01*
X121864604Y-74639018D01*
X121824048Y-74374209D01*
X121732609Y-74122400D01*
X121675450Y-74015465D01*
X121439133Y-73952972D01*
X120679605Y-74712500D01*
X120320395Y-74712500D01*
X119560867Y-73952972D01*
X119324550Y-74015465D01*
X119211150Y-74258178D01*
X119147281Y-74518349D01*
X119135396Y-74785982D01*
X116858077Y-74785982D01*
X116864604Y-74639018D01*
X116824048Y-74374209D01*
X116732609Y-74122400D01*
X116675450Y-74015465D01*
X116439133Y-73952972D01*
X115679605Y-74712500D01*
X115320395Y-74712500D01*
X114560867Y-73952972D01*
X114324550Y-74015465D01*
X114211150Y-74258178D01*
X114147281Y-74518349D01*
X114135396Y-74785982D01*
X103035910Y-74785982D01*
X103226052Y-74326939D01*
X103335000Y-73779223D01*
X103335000Y-73220777D01*
X103226052Y-72673061D01*
X103012344Y-72157124D01*
X103000569Y-72139500D01*
X113265000Y-72139500D01*
X113265000Y-72489500D01*
X113313507Y-72727996D01*
X113407610Y-72952446D01*
X113543693Y-73154225D01*
X113716526Y-73325578D01*
X113919467Y-73459921D01*
X114144718Y-73552091D01*
X114182391Y-73555962D01*
X114373000Y-73431231D01*
X114373000Y-72139500D01*
X114627000Y-72139500D01*
X114627000Y-73431231D01*
X114800862Y-73545003D01*
X114740472Y-73773367D01*
X115500000Y-74532895D01*
X116259528Y-73773367D01*
X119740472Y-73773367D01*
X120500000Y-74532895D01*
X121259528Y-73773367D01*
X121199138Y-73545003D01*
X121373000Y-73431231D01*
X121373000Y-72139500D01*
X121627000Y-72139500D01*
X121627000Y-73431231D01*
X121817609Y-73555962D01*
X121855282Y-73552091D01*
X122080533Y-73459921D01*
X122283474Y-73325578D01*
X122456307Y-73154225D01*
X122592390Y-72952446D01*
X122686493Y-72727996D01*
X122735000Y-72489500D01*
X122735000Y-72139500D01*
X121627000Y-72139500D01*
X121373000Y-72139500D01*
X120265000Y-72139500D01*
X120265000Y-72489500D01*
X120313507Y-72727996D01*
X120407610Y-72952446D01*
X120543693Y-73154225D01*
X120716526Y-73325578D01*
X120811836Y-73388671D01*
X120694151Y-73359781D01*
X120426518Y-73347896D01*
X120161709Y-73388452D01*
X119909900Y-73479891D01*
X119802965Y-73537050D01*
X119740472Y-73773367D01*
X116259528Y-73773367D01*
X116197035Y-73537050D01*
X115954322Y-73423650D01*
X115694151Y-73359781D01*
X115426518Y-73347896D01*
X115196558Y-73383115D01*
X115283474Y-73325578D01*
X115456307Y-73154225D01*
X115592390Y-72952446D01*
X115686493Y-72727996D01*
X115735000Y-72489500D01*
X115735000Y-72139500D01*
X114627000Y-72139500D01*
X114373000Y-72139500D01*
X113265000Y-72139500D01*
X103000569Y-72139500D01*
X102702088Y-71692793D01*
X102307207Y-71297912D01*
X102100807Y-71160000D01*
X113370947Y-71160000D01*
X113313507Y-71297004D01*
%TA.AperFunction,Conductor*%
D32*
G36*
X113313507Y-71297004D02*
G01*
X113265000Y-71535500D01*
X113265000Y-71885500D01*
X114373000Y-71885500D01*
X114373000Y-71865500D01*
X114627000Y-71865500D01*
X114627000Y-71885500D01*
X115735000Y-71885500D01*
X115735000Y-71535500D01*
X115686493Y-71297004D01*
X115629053Y-71160000D01*
X120370947Y-71160000D01*
X120313507Y-71297004D01*
X120265000Y-71535500D01*
X120265000Y-71885500D01*
X121373000Y-71885500D01*
X121373000Y-71865500D01*
X121627000Y-71865500D01*
X121627000Y-71885500D01*
X122735000Y-71885500D01*
X122735000Y-71535500D01*
X122686493Y-71297004D01*
X122629053Y-71160000D01*
X157373000Y-71160000D01*
X157373000Y-104432848D01*
X157375440Y-104457624D01*
X157382667Y-104481449D01*
X157394403Y-104503405D01*
X157410197Y-104522651D01*
X157429443Y-104538445D01*
X157451399Y-104550181D01*
X157475224Y-104557408D01*
X157502731Y-104559819D01*
X158522971Y-104537876D01*
X158511928Y-104650000D01*
X158511928Y-106350000D01*
X158524188Y-106474482D01*
X158560498Y-106594180D01*
X158567646Y-106607552D01*
X156985000Y-108190198D01*
X156985000Y-107933740D01*
X156927932Y-107646842D01*
X156815990Y-107376589D01*
X156653475Y-107133368D01*
X156446632Y-106926525D01*
X156272240Y-106810000D01*
X156446632Y-106693475D01*
X156653475Y-106486632D01*
X156815990Y-106243411D01*
X156927932Y-105973158D01*
X156985000Y-105686260D01*
X156985000Y-105393740D01*
X156927932Y-105106842D01*
X156815990Y-104836589D01*
X156653475Y-104593368D01*
X156446632Y-104386525D01*
X156272240Y-104270000D01*
X156446632Y-104153475D01*
X156653475Y-103946632D01*
X156815990Y-103703411D01*
X156927932Y-103433158D01*
X156985000Y-103146260D01*
X156985000Y-102853740D01*
X156927932Y-102566842D01*
X156815990Y-102296589D01*
X156653475Y-102053368D01*
X156521620Y-101921513D01*
X156594180Y-101899502D01*
X156704494Y-101840537D01*
X156801185Y-101761185D01*
X156880537Y-101664494D01*
X156939502Y-101554180D01*
X156975812Y-101434482D01*
X156988072Y-101310000D01*
X156988072Y-99610000D01*
X156975812Y-99485518D01*
X156939502Y-99365820D01*
X156880537Y-99255506D01*
X156801185Y-99158815D01*
X156704494Y-99079463D01*
X156594180Y-99020498D01*
X156474482Y-98984188D01*
X156350000Y-98971928D01*
X154650000Y-98971928D01*
X154525518Y-98984188D01*
X154405820Y-99020498D01*
X154295506Y-99079463D01*
X154198815Y-99158815D01*
X154119463Y-99255506D01*
X154060498Y-99365820D01*
X154024188Y-99485518D01*
X154011928Y-99610000D01*
X154011928Y-101310000D01*
X154024188Y-101434482D01*
X154060498Y-101554180D01*
X154119463Y-101664494D01*
X154198815Y-101761185D01*
X154295506Y-101840537D01*
X154405820Y-101899502D01*
X154478380Y-101921513D01*
X154346525Y-102053368D01*
X154184010Y-102296589D01*
X154072068Y-102566842D01*
X154015000Y-102853740D01*
X154015000Y-103146260D01*
X154072068Y-103433158D01*
X154184010Y-103703411D01*
X154346525Y-103946632D01*
X154553368Y-104153475D01*
X154727760Y-104270000D01*
X154553368Y-104386525D01*
X154346525Y-104593368D01*
X154184010Y-104836589D01*
X154072068Y-105106842D01*
X154015000Y-105393740D01*
X154015000Y-105686260D01*
X154072068Y-105973158D01*
X154184010Y-106243411D01*
X154346525Y-106486632D01*
X154553368Y-106693475D01*
X154727760Y-106810000D01*
X154553368Y-106926525D01*
X154346525Y-107133368D01*
X154184010Y-107376589D01*
X154072068Y-107646842D01*
X154015000Y-107933740D01*
X154015000Y-108226260D01*
X154072068Y-108513158D01*
X154184010Y-108783411D01*
X154346525Y-109026632D01*
X154553368Y-109233475D01*
X154796589Y-109395990D01*
X155066842Y-109507932D01*
X155353740Y-109565000D01*
X155610199Y-109565000D01*
X153435199Y-111740000D01*
X153007534Y-111740000D01*
X153034996Y-111601939D01*
X153034996Y-111398061D01*
X152995222Y-111198102D01*
X152917201Y-111009744D01*
X152803933Y-110840226D01*
X152659770Y-110696063D01*
X152490252Y-110582795D01*
X152301894Y-110504774D01*
X152101935Y-110465000D01*
X152039798Y-110465000D01*
X148563800Y-106989003D01*
X148539997Y-106959999D01*
X148424272Y-106865026D01*
X148292243Y-106794454D01*
X148148982Y-106750997D01*
X148037329Y-106740000D01*
X148037318Y-106740000D01*
X147999996Y-106736324D01*
X147962674Y-106740000D01*
X146615046Y-106740000D01*
X146564537Y-106645506D01*
X146485185Y-106548815D01*
X146425704Y-106500000D01*
X146485185Y-106451185D01*
X146564537Y-106354494D01*
X146623502Y-106244180D01*
X146659812Y-106124482D01*
X146672072Y-106000000D01*
X146672072Y-105000000D01*
X146659812Y-104875518D01*
X146623502Y-104755820D01*
X146564537Y-104645506D01*
X146485185Y-104548815D01*
X146425704Y-104500000D01*
X146485185Y-104451185D01*
X146564537Y-104354494D01*
X146623502Y-104244180D01*
X146659812Y-104124482D01*
X146672072Y-104000000D01*
X146672072Y-103000000D01*
X146659812Y-102875518D01*
X146623502Y-102755820D01*
X146564537Y-102645506D01*
X146485185Y-102548815D01*
X146425704Y-102500000D01*
X146485185Y-102451185D01*
X146564537Y-102354494D01*
X146623502Y-102244180D01*
X146659812Y-102124482D01*
X146672072Y-102000000D01*
X146672072Y-101000000D01*
X146659812Y-100875518D01*
X146623502Y-100755820D01*
X146564537Y-100645506D01*
X146485185Y-100548815D01*
X146425704Y-100500000D01*
X146485185Y-100451185D01*
X146564537Y-100354494D01*
X146623502Y-100244180D01*
X146659812Y-100124482D01*
X146672072Y-100000000D01*
X146672072Y-99123869D01*
X146696063Y-99159774D01*
X146840226Y-99303937D01*
X147009744Y-99417205D01*
X147198102Y-99495226D01*
X147398061Y-99535000D01*
X147601939Y-99535000D01*
X147801898Y-99495226D01*
X147990256Y-99417205D01*
X148159774Y-99303937D01*
X148303937Y-99159774D01*
X148417205Y-98990256D01*
X148495226Y-98801898D01*
X148535000Y-98601939D01*
X148535000Y-98398061D01*
X148495226Y-98198102D01*
X148417205Y-98009744D01*
X148303937Y-97840226D01*
X148159774Y-97696063D01*
X147990256Y-97582795D01*
X147801898Y-97504774D01*
X147601939Y-97465000D01*
X147539802Y-97465000D01*
X147063804Y-96989002D01*
X147040001Y-96959999D01*
X146924276Y-96865026D01*
X146792247Y-96794454D01*
X146648986Y-96750997D01*
X146619365Y-96748080D01*
X146564537Y-96645506D01*
X146485185Y-96548815D01*
X146425704Y-96500000D01*
X146485185Y-96451185D01*
X146564537Y-96354494D01*
X146623502Y-96244180D01*
X146659812Y-96124482D01*
X146672072Y-96000000D01*
X146669000Y-95785750D01*
X146510250Y-95627000D01*
X144911000Y-95627000D01*
X144911000Y-95647000D01*
X144657000Y-95647000D01*
X144657000Y-95627000D01*
X144637000Y-95627000D01*
X144637000Y-95373000D01*
X144657000Y-95373000D01*
X144657000Y-94523750D01*
X144911000Y-94523750D01*
X144911000Y-95373000D01*
X146510250Y-95373000D01*
X146669000Y-95214250D01*
X146672072Y-95000000D01*
X146659812Y-94875518D01*
X146623502Y-94755820D01*
X146564537Y-94645506D01*
X146485185Y-94548815D01*
X146388494Y-94469463D01*
X146278180Y-94410498D01*
X146158482Y-94374188D01*
X146034000Y-94361928D01*
X145069750Y-94365000D01*
X144911000Y-94523750D01*
X144657000Y-94523750D01*
X144498250Y-94365000D01*
X143769001Y-94362677D01*
X143769001Y-92877321D01*
X143772677Y-92839998D01*
X143769001Y-92802676D01*
X143769001Y-92802666D01*
X143760000Y-92711278D01*
X143760000Y-88514801D01*
X144615001Y-87659801D01*
X144615001Y-87756522D01*
X144610719Y-87800000D01*
X144627805Y-87973490D01*
X144678412Y-88140313D01*
X144760590Y-88294059D01*
X144843468Y-88395046D01*
X144843471Y-88395049D01*
X144871184Y-88428817D01*
X144904951Y-88456529D01*
X145993465Y-89545044D01*
X146004774Y-89601898D01*
X146082795Y-89790256D01*
X146196063Y-89959774D01*
X146340226Y-90103937D01*
X146509744Y-90217205D01*
X146698102Y-90295226D01*
X146898061Y-90335000D01*
X147101939Y-90335000D01*
X147301898Y-90295226D01*
X147490256Y-90217205D01*
X147659774Y-90103937D01*
X147803937Y-89959774D01*
X147917205Y-89790256D01*
X147995226Y-89601898D01*
X148035000Y-89401939D01*
X148035000Y-89198061D01*
X147995226Y-88998102D01*
X147917205Y-88809744D01*
X147803937Y-88640226D01*
X147659774Y-88496063D01*
X147490256Y-88382795D01*
X147301898Y-88304774D01*
X147245044Y-88293465D01*
X147027595Y-88076017D01*
X147150000Y-88088072D01*
X148850000Y-88088072D01*
X148974482Y-88075812D01*
X149094180Y-88039502D01*
X149204494Y-87980537D01*
X149301185Y-87901185D01*
X149380537Y-87804494D01*
X149439502Y-87694180D01*
X149461513Y-87621620D01*
X149593368Y-87753475D01*
X149836589Y-87915990D01*
X150106842Y-88027932D01*
X150393740Y-88085000D01*
X150686260Y-88085000D01*
X150973158Y-88027932D01*
X151243411Y-87915990D01*
X151486632Y-87753475D01*
X151693475Y-87546632D01*
X151810000Y-87372240D01*
X151926525Y-87546632D01*
X152133368Y-87753475D01*
X152376589Y-87915990D01*
X152646842Y-88027932D01*
X152933740Y-88085000D01*
X153226260Y-88085000D01*
X153513158Y-88027932D01*
X153783411Y-87915990D01*
X154026632Y-87753475D01*
X154233475Y-87546632D01*
X154355195Y-87364466D01*
X154424822Y-87481355D01*
X154619731Y-87697588D01*
X154853080Y-87871641D01*
X155115901Y-87996825D01*
X155263110Y-88041476D01*
X155493000Y-87920155D01*
X155493000Y-86727000D01*
X155747000Y-86727000D01*
X155747000Y-87920155D01*
X155976890Y-88041476D01*
X156124099Y-87996825D01*
X156386920Y-87871641D01*
X156620269Y-87697588D01*
X156815178Y-87481355D01*
X156964157Y-87231252D01*
X157061481Y-86956891D01*
X156940814Y-86727000D01*
X155747000Y-86727000D01*
X155493000Y-86727000D01*
X155473000Y-86727000D01*
X155473000Y-86473000D01*
X155493000Y-86473000D01*
X155493000Y-85279845D01*
X155747000Y-85279845D01*
X155747000Y-86473000D01*
X156940814Y-86473000D01*
X157061481Y-86243109D01*
X156964157Y-85968748D01*
X156815178Y-85718645D01*
X156620269Y-85502412D01*
X156386920Y-85328359D01*
X156124099Y-85203175D01*
X155976890Y-85158524D01*
X155747000Y-85279845D01*
X155493000Y-85279845D01*
X155263110Y-85158524D01*
X155115901Y-85203175D01*
X154853080Y-85328359D01*
X154619731Y-85502412D01*
X154424822Y-85718645D01*
X154355195Y-85835534D01*
X154233475Y-85653368D01*
X154026632Y-85446525D01*
X153783411Y-85284010D01*
X153513158Y-85172068D01*
X153226260Y-85115000D01*
X152933740Y-85115000D01*
X152776874Y-85146203D01*
X152795226Y-85101898D01*
X152835000Y-84901939D01*
X152835000Y-84698061D01*
X152795226Y-84498102D01*
X152717205Y-84309744D01*
X152603937Y-84140226D01*
X152459774Y-83996063D01*
X152290256Y-83882795D01*
X152101898Y-83804774D01*
X151901939Y-83765000D01*
X151698061Y-83765000D01*
X151498102Y-83804774D01*
X151309744Y-83882795D01*
X151261546Y-83915000D01*
X147333463Y-83915000D01*
X147289997Y-83910719D01*
X147246531Y-83915000D01*
X147246521Y-83915000D01*
X147116508Y-83927805D01*
X146949685Y-83978411D01*
X146795939Y-84060589D01*
X146795937Y-84060590D01*
X146795938Y-84060590D01*
X146694951Y-84143468D01*
X146694949Y-84143470D01*
X146661181Y-84171183D01*
X146633468Y-84204951D01*
X146260000Y-84578419D01*
X146260000Y-77584072D01*
X146396000Y-77584072D01*
X146569254Y-77567008D01*
X146735850Y-77516472D01*
X146889386Y-77434405D01*
X147023962Y-77323962D01*
X147134405Y-77189386D01*
X147216472Y-77035850D01*
X147267008Y-76869254D01*
X147284072Y-76696000D01*
X147284072Y-75380990D01*
X148306189Y-75380990D01*
X150707211Y-77782013D01*
X150731009Y-77811011D01*
X150846734Y-77905984D01*
X150978763Y-77976556D01*
X151122024Y-78020013D01*
X151233677Y-78031010D01*
X151233686Y-78031010D01*
X151271009Y-78034686D01*
X151308332Y-78031010D01*
X153323668Y-78031010D01*
X153360990Y-78034686D01*
X153398312Y-78031010D01*
X153398323Y-78031010D01*
X153509976Y-78020013D01*
X153653237Y-77976556D01*
X153785266Y-77905984D01*
X153900991Y-77811011D01*
X153924794Y-77782007D01*
X154122729Y-77584072D01*
X155286000Y-77584072D01*
X155459254Y-77567008D01*
X155625850Y-77516472D01*
X155779386Y-77434405D01*
X155913962Y-77323962D01*
X156024405Y-77189386D01*
X156106472Y-77035850D01*
X156157008Y-76869254D01*
X156174072Y-76696000D01*
X156174072Y-75196000D01*
X156157008Y-75022746D01*
X156106472Y-74856150D01*
X156024405Y-74702614D01*
X155913962Y-74568038D01*
X155779386Y-74457595D01*
X155625850Y-74375528D01*
X155459254Y-74324992D01*
X155286000Y-74307928D01*
X154086000Y-74307928D01*
X153912746Y-74324992D01*
X153746150Y-74375528D01*
X153592614Y-74457595D01*
X153458038Y-74568038D01*
X153347595Y-74702614D01*
X153293086Y-74804593D01*
X153292802Y-74804205D01*
X153078046Y-74607336D01*
X152829009Y-74456146D01*
X152555261Y-74356446D01*
X152542890Y-74354524D01*
X152313000Y-74475845D01*
X152313000Y-75819000D01*
X152333000Y-75819000D01*
X152333000Y-76073000D01*
X152313000Y-76073000D01*
X152313000Y-76093000D01*
X152059000Y-76093000D01*
X152059000Y-76073000D01*
X152039000Y-76073000D01*
X152039000Y-75819000D01*
X152059000Y-75819000D01*
X152059000Y-74475845D01*
X151829110Y-74354524D01*
X151816739Y-74356446D01*
X151542991Y-74456146D01*
X151293954Y-74607336D01*
X151079198Y-74804205D01*
X150906975Y-75039188D01*
X150783904Y-75303255D01*
X150714715Y-75586258D01*
X150801865Y-75727063D01*
X149184794Y-74109993D01*
X149160991Y-74080989D01*
X149045266Y-73986016D01*
X148913237Y-73915444D01*
X148769976Y-73871987D01*
X148658323Y-73860990D01*
X148658312Y-73860990D01*
X148620990Y-73857314D01*
X148583668Y-73860990D01*
X144995153Y-73860990D01*
X144957820Y-73857313D01*
X144920487Y-73860990D01*
X144808834Y-73871987D01*
X144665573Y-73915444D01*
X144533544Y-73986016D01*
X144417819Y-74080989D01*
X144394016Y-74109993D01*
X144109988Y-74394021D01*
X144080990Y-74417819D01*
X144057192Y-74446817D01*
X144057191Y-74446818D01*
X144012780Y-74500932D01*
X143939009Y-74456146D01*
X143665261Y-74356446D01*
X143652890Y-74354524D01*
X143423000Y-74475845D01*
X143423000Y-75819000D01*
X143443000Y-75819000D01*
X143443000Y-76073000D01*
X143423000Y-76073000D01*
X143423000Y-77416155D01*
X143652890Y-77537476D01*
X143665261Y-77535554D01*
X143860991Y-77464269D01*
X143860990Y-83651200D01*
X143779550Y-83596784D01*
X143591192Y-83518763D01*
X143391233Y-83478989D01*
X143187355Y-83478989D01*
X142987396Y-83518763D01*
X142799038Y-83596784D01*
X142629520Y-83710052D01*
X142599572Y-83740000D01*
X139787322Y-83740000D01*
X139749999Y-83736324D01*
X139712676Y-83740000D01*
X139712667Y-83740000D01*
X139601014Y-83750997D01*
X139457753Y-83794454D01*
X139325724Y-83865026D01*
X139209999Y-83959999D01*
X139186201Y-83988997D01*
X130648004Y-92527195D01*
X130619000Y-92550998D01*
X130580377Y-92598061D01*
X130524027Y-92666723D01*
X130468340Y-92770906D01*
X130453455Y-92798753D01*
X130409998Y-92942014D01*
X130399001Y-93053667D01*
X130399001Y-93053677D01*
X130395325Y-93090999D01*
X130399001Y-93128322D01*
X130399001Y-94361928D01*
X129838929Y-94361928D01*
X129064715Y-93587715D01*
X129033870Y-93550130D01*
X128922178Y-93458467D01*
X128909774Y-93446063D01*
X128895188Y-93436317D01*
X128883884Y-93427040D01*
X128870987Y-93420146D01*
X128740256Y-93332795D01*
X128715571Y-93322570D01*
X128043777Y-92650777D01*
X129186173Y-91508381D01*
X129301832Y-91367450D01*
X129416511Y-91152901D01*
X129487130Y-90920103D01*
X129510975Y-90678001D01*
X129487130Y-90435899D01*
X129416511Y-90203101D01*
X129301832Y-89988552D01*
X129147501Y-89800499D01*
X128959448Y-89646168D01*
X128744899Y-89531489D01*
X128512101Y-89460870D01*
X128269999Y-89437025D01*
X128027897Y-89460870D01*
X127795099Y-89531489D01*
X127580550Y-89646168D01*
X127439619Y-89761827D01*
X125472447Y-91729000D01*
X119703552Y-91729000D01*
X117576379Y-89601828D01*
X117435447Y-89486169D01*
X117220898Y-89371490D01*
X117105291Y-89336420D01*
X117135937Y-89305774D01*
X117249205Y-89136256D01*
X117327226Y-88947898D01*
X117367000Y-88747939D01*
X117367000Y-88544061D01*
X117327226Y-88344102D01*
X117249205Y-88155744D01*
X117135937Y-87986226D01*
X117033711Y-87884000D01*
X117135937Y-87781774D01*
X117249205Y-87612256D01*
X117327226Y-87423898D01*
X117367000Y-87223939D01*
X117367000Y-87108061D01*
X124695000Y-87108061D01*
X124695000Y-87311939D01*
X124734774Y-87511898D01*
X124812795Y-87700256D01*
X124926063Y-87869774D01*
X125070226Y-88013937D01*
X125239744Y-88127205D01*
X125428102Y-88205226D01*
X125628061Y-88245000D01*
X125831939Y-88245000D01*
X126031898Y-88205226D01*
X126220256Y-88127205D01*
X126389774Y-88013937D01*
X126533937Y-87869774D01*
X126647205Y-87700256D01*
X126725226Y-87511898D01*
X126765000Y-87311939D01*
X126765000Y-87108061D01*
X126725226Y-86908102D01*
X126647205Y-86719744D01*
X126533937Y-86550226D01*
X126497392Y-86513681D01*
X126539898Y-86505226D01*
X126728256Y-86427205D01*
X126897774Y-86313937D01*
X127041937Y-86169774D01*
X127155205Y-86000256D01*
X127233226Y-85811898D01*
X127273000Y-85611939D01*
X127273000Y-85408061D01*
X127233226Y-85208102D01*
X127155205Y-85019744D01*
X127041937Y-84850226D01*
X126897774Y-84706063D01*
X126728256Y-84592795D01*
X126539898Y-84514774D01*
X126339939Y-84475000D01*
X126136061Y-84475000D01*
X125936102Y-84514774D01*
X125747744Y-84592795D01*
X125578226Y-84706063D01*
X125434063Y-84850226D01*
X125320795Y-85019744D01*
X125242774Y-85208102D01*
X125203000Y-85408061D01*
X125203000Y-85467330D01*
X125190000Y-85477999D01*
X125166202Y-85506997D01*
X125166201Y-85506998D01*
X125095026Y-85593724D01*
X125024454Y-85725754D01*
X125005773Y-85787339D01*
X124980998Y-85869014D01*
X124978045Y-85898992D01*
X124966324Y-86018000D01*
X124970001Y-86055332D01*
X124970001Y-86506288D01*
X124926063Y-86550226D01*
X124812795Y-86719744D01*
X124734774Y-86908102D01*
X124695000Y-87108061D01*
X117367000Y-87108061D01*
X117367000Y-87020061D01*
X117327226Y-86820102D01*
X117249205Y-86631744D01*
X117135937Y-86462226D01*
X116991774Y-86318063D01*
X116822256Y-86204795D01*
X116633898Y-86126774D01*
X116433939Y-86087000D01*
X116230061Y-86087000D01*
X116030102Y-86126774D01*
X115841744Y-86204795D01*
X115672226Y-86318063D01*
X115528063Y-86462226D01*
X115414795Y-86631744D01*
X115336774Y-86820102D01*
X115297000Y-87020061D01*
X115297000Y-87223939D01*
X115336774Y-87423898D01*
X115414795Y-87612256D01*
X115528063Y-87781774D01*
X115630289Y-87884000D01*
X115528063Y-87986226D01*
X115447261Y-88107154D01*
X115336632Y-87996525D01*
X115093411Y-87834010D01*
X114823158Y-87722068D01*
X114536260Y-87665000D01*
X114243740Y-87665000D01*
X113956842Y-87722068D01*
X113686589Y-87834010D01*
X113443368Y-87996525D01*
X113311513Y-88128380D01*
X113289502Y-88055820D01*
X113230537Y-87945506D01*
X113151185Y-87848815D01*
X113054494Y-87769463D01*
X112944180Y-87710498D01*
X112824482Y-87674188D01*
X112700000Y-87661928D01*
X111000000Y-87661928D01*
X110875518Y-87674188D01*
X110755820Y-87710498D01*
X110645506Y-87769463D01*
X110548815Y-87848815D01*
X110469463Y-87945506D01*
X110410498Y-88055820D01*
X110374188Y-88175518D01*
X110361928Y-88300000D01*
X110361928Y-90000000D01*
X110374188Y-90124482D01*
X110410498Y-90244180D01*
X110469463Y-90354494D01*
X110548815Y-90451185D01*
X110645506Y-90530537D01*
X110755820Y-90589502D01*
X110875518Y-90625812D01*
X111000000Y-90638072D01*
X112700000Y-90638072D01*
X112824482Y-90625812D01*
X112944180Y-90589502D01*
X113054494Y-90530537D01*
X113151185Y-90451185D01*
X113230537Y-90354494D01*
X113289502Y-90244180D01*
X113311513Y-90171620D01*
X113443368Y-90303475D01*
X113686589Y-90465990D01*
X113956842Y-90577932D01*
X114243740Y-90635000D01*
X114536260Y-90635000D01*
X114823158Y-90577932D01*
X115093411Y-90465990D01*
X115336632Y-90303475D01*
X115543475Y-90096632D01*
X115680446Y-89891640D01*
X115599488Y-90043102D01*
X115528869Y-90275899D01*
X115505024Y-90518001D01*
X115528869Y-90760103D01*
X115599488Y-90992900D01*
X115714167Y-91207449D01*
X115829826Y-91348381D01*
X118275824Y-93794380D01*
X118314496Y-93841502D01*
X118502549Y-93995833D01*
X118717097Y-94110511D01*
X118833497Y-94145821D01*
X118949895Y-94181130D01*
X119191998Y-94204975D01*
X119252663Y-94199000D01*
X125923335Y-94199000D01*
X125984000Y-94204975D01*
X126044665Y-94199000D01*
X126226102Y-94181130D01*
X126458901Y-94110511D01*
X126627430Y-94020430D01*
X127322570Y-94715571D01*
X127332795Y-94740256D01*
X127446063Y-94909774D01*
X127590226Y-95053937D01*
X127695928Y-95124565D01*
X127695928Y-95975924D01*
X127685199Y-95988998D01*
X126989002Y-96685195D01*
X126959999Y-96708997D01*
X126904871Y-96776172D01*
X126865026Y-96824722D01*
X126805439Y-96936201D01*
X126794454Y-96956752D01*
X126750997Y-97100013D01*
X126740000Y-97211666D01*
X126740000Y-97211676D01*
X126736324Y-97248998D01*
X126740000Y-97286321D01*
X126740001Y-100462668D01*
X126736324Y-100500000D01*
X126740001Y-100537333D01*
X126750998Y-100648986D01*
X126759974Y-100678575D01*
X126794454Y-100792246D01*
X126865026Y-100924276D01*
X126935536Y-101010192D01*
X126960000Y-101040001D01*
X126988998Y-101063799D01*
X127695928Y-101770730D01*
X127695928Y-102000000D01*
X127708188Y-102124482D01*
X127744498Y-102244180D01*
X127803463Y-102354494D01*
X127882815Y-102451185D01*
X127942296Y-102500000D01*
X127882815Y-102548815D01*
X127803463Y-102645506D01*
X127744498Y-102755820D01*
X127708188Y-102875518D01*
X127695928Y-103000000D01*
X127695928Y-104000000D01*
X127708188Y-104124482D01*
X127744498Y-104244180D01*
X127803463Y-104354494D01*
X127882815Y-104451185D01*
X127942296Y-104500000D01*
X127882815Y-104548815D01*
X127803463Y-104645506D01*
X127744498Y-104755820D01*
X127708188Y-104875518D01*
X127695928Y-105000000D01*
X127695928Y-105016920D01*
X126722859Y-105989990D01*
X126660721Y-105989990D01*
X126460762Y-106029764D01*
X126272404Y-106107785D01*
X126102886Y-106221053D01*
X125958723Y-106365216D01*
X125845455Y-106534734D01*
X125767434Y-106723092D01*
X125727660Y-106923051D01*
X125727660Y-106990000D01*
X125064801Y-106990000D01*
X125030001Y-106955200D01*
X125030001Y-101284800D01*
X125719802Y-100595000D01*
X125781939Y-100595000D01*
X125981898Y-100555226D01*
X126170256Y-100477205D01*
X126339774Y-100363937D01*
X126483937Y-100219774D01*
X126597205Y-100050256D01*
X126675226Y-99861898D01*
X126715000Y-99661939D01*
X126715000Y-99458061D01*
X126675226Y-99258102D01*
X126597205Y-99069744D01*
X126483937Y-98900226D01*
X126339774Y-98756063D01*
X126170256Y-98642795D01*
X125981898Y-98564774D01*
X125781939Y-98525000D01*
X125578061Y-98525000D01*
X125378102Y-98564774D01*
X125189744Y-98642795D01*
X125020226Y-98756063D01*
X124876063Y-98900226D01*
X124762795Y-99069744D01*
X124684774Y-99258102D01*
X124645000Y-99458061D01*
X124645000Y-99520198D01*
X123758999Y-100406200D01*
X123730001Y-100429998D01*
X123706203Y-100458996D01*
X123706202Y-100458997D01*
X123635027Y-100545723D01*
X123564455Y-100677753D01*
X123540399Y-100757058D01*
X123520999Y-100821013D01*
X123514407Y-100887938D01*
X123506325Y-100969999D01*
X123510002Y-101007331D01*
X123510001Y-107232678D01*
X123506325Y-107270001D01*
X123510001Y-107307323D01*
X123510001Y-107307333D01*
X123520998Y-107418986D01*
X123550198Y-107515246D01*
X123564455Y-107562247D01*
X123635027Y-107694277D01*
X123668448Y-107735000D01*
X123730000Y-107810002D01*
X123759004Y-107833805D01*
X124186196Y-108260997D01*
X124209999Y-108290001D01*
X124253528Y-108325724D01*
X124325723Y-108384974D01*
X124373475Y-108410498D01*
X124457753Y-108455546D01*
X124601014Y-108499003D01*
X124712667Y-108510000D01*
X124712676Y-108510000D01*
X124749999Y-108513676D01*
X124787322Y-108510000D01*
X127930111Y-108510000D01*
X127882815Y-108548815D01*
X127803463Y-108645506D01*
X127752954Y-108740000D01*
X127537325Y-108740000D01*
X127500000Y-108736324D01*
X127462675Y-108740000D01*
X127462667Y-108740000D01*
X127351014Y-108750997D01*
X127207753Y-108794454D01*
X127075724Y-108865026D01*
X126959999Y-108959999D01*
X126955895Y-108965000D01*
X126898061Y-108965000D01*
X126698102Y-109004774D01*
X126509744Y-109082795D01*
X126340226Y-109196063D01*
X126196063Y-109340226D01*
X126082795Y-109509744D01*
X126004774Y-109698102D01*
X125965000Y-109898061D01*
X125965000Y-110101939D01*
X126004774Y-110301898D01*
X126082795Y-110490256D01*
X126196063Y-110659774D01*
X126340226Y-110803937D01*
X126509744Y-110917205D01*
X126698102Y-110995226D01*
X126898061Y-111035000D01*
X127101939Y-111035000D01*
X127301898Y-110995226D01*
X127490256Y-110917205D01*
X127659000Y-110804454D01*
X127659000Y-118340000D01*
X102100807Y-118340000D01*
X102307207Y-118202088D01*
X102702088Y-117807207D01*
X103012344Y-117342876D01*
X103226052Y-116826939D01*
X103335000Y-116279223D01*
X103335000Y-115720777D01*
X103226052Y-115173061D01*
X103012344Y-114657124D01*
X102702088Y-114192793D01*
X102307207Y-113797912D01*
X101842876Y-113487656D01*
X101326939Y-113273948D01*
X100779223Y-113165000D01*
X100220777Y-113165000D01*
X99673061Y-113273948D01*
X99157124Y-113487656D01*
X98692793Y-113797912D01*
X98297912Y-114192793D01*
X98160000Y-114399193D01*
X98160000Y-109798061D01*
X102515000Y-109798061D01*
X102515000Y-110001939D01*
X102554774Y-110201898D01*
X102632795Y-110390256D01*
X102746063Y-110559774D01*
X102890226Y-110703937D01*
X103059744Y-110817205D01*
X103248102Y-110895226D01*
X103448061Y-110935000D01*
X103651939Y-110935000D01*
X103851898Y-110895226D01*
X104040256Y-110817205D01*
X104209774Y-110703937D01*
X104353937Y-110559774D01*
X104467205Y-110390256D01*
X104545226Y-110201898D01*
X104585000Y-110001939D01*
X104585000Y-109850000D01*
X118511928Y-109850000D01*
X118511928Y-111550000D01*
X118524188Y-111674482D01*
X118560498Y-111794180D01*
X118619463Y-111904494D01*
X118698815Y-112001185D01*
X118795506Y-112080537D01*
X118905820Y-112139502D01*
X119025518Y-112175812D01*
X119150000Y-112188072D01*
X120850000Y-112188072D01*
X120974482Y-112175812D01*
X121094180Y-112139502D01*
X121204494Y-112080537D01*
X121301185Y-112001185D01*
X121380537Y-111904494D01*
X121439502Y-111794180D01*
X121475812Y-111674482D01*
X121488072Y-111550000D01*
X121488072Y-109850000D01*
X121475812Y-109725518D01*
X121439502Y-109605820D01*
X121380537Y-109495506D01*
X121301185Y-109398815D01*
X121204494Y-109319463D01*
X121094180Y-109260498D01*
X121021620Y-109238487D01*
X121153475Y-109106632D01*
X121315990Y-108863411D01*
X121427932Y-108593158D01*
X121485000Y-108306260D01*
X121485000Y-108013740D01*
X121427932Y-107726842D01*
X121315990Y-107456589D01*
X121153475Y-107213368D01*
X120946632Y-107006525D01*
X120772240Y-106890000D01*
X120946632Y-106773475D01*
X121153475Y-106566632D01*
X121315990Y-106323411D01*
X121427932Y-106053158D01*
X121485000Y-105766260D01*
X121485000Y-105473740D01*
X121427932Y-105186842D01*
X121315990Y-104916589D01*
X121153475Y-104673368D01*
X120946632Y-104466525D01*
X120772240Y-104350000D01*
X120946632Y-104233475D01*
X121153475Y-104026632D01*
X121315990Y-103783411D01*
X121427932Y-103513158D01*
X121485000Y-103226260D01*
X121485000Y-102933740D01*
X121427932Y-102646842D01*
X121315990Y-102376589D01*
X121153475Y-102133368D01*
X120946632Y-101926525D01*
X120772240Y-101810000D01*
X120946632Y-101693475D01*
X121153475Y-101486632D01*
X121315990Y-101243411D01*
X121427932Y-100973158D01*
X121485000Y-100686260D01*
X121485000Y-100393740D01*
X121427932Y-100106842D01*
X121315990Y-99836589D01*
X121153475Y-99593368D01*
X120946632Y-99386525D01*
X120764466Y-99264805D01*
X120881355Y-99195178D01*
X121097588Y-99000269D01*
X121271641Y-98766920D01*
X121396825Y-98504099D01*
X121441476Y-98356890D01*
X121320155Y-98127000D01*
X120127000Y-98127000D01*
X120127000Y-98147000D01*
X119873000Y-98147000D01*
X119873000Y-98127000D01*
X118679845Y-98127000D01*
X118558524Y-98356890D01*
X118603175Y-98504099D01*
X118728359Y-98766920D01*
X118902412Y-99000269D01*
X119118645Y-99195178D01*
X119235534Y-99264805D01*
X119053368Y-99386525D01*
X118846525Y-99593368D01*
X118684010Y-99836589D01*
X118572068Y-100106842D01*
X118515000Y-100393740D01*
X118515000Y-100686260D01*
X118572068Y-100973158D01*
X118684010Y-101243411D01*
X118846525Y-101486632D01*
X119053368Y-101693475D01*
X119227760Y-101810000D01*
X119053368Y-101926525D01*
X118846525Y-102133368D01*
X118684010Y-102376589D01*
X118572068Y-102646842D01*
X118515000Y-102933740D01*
X118515000Y-103226260D01*
X118572068Y-103513158D01*
X118684010Y-103783411D01*
X118846525Y-104026632D01*
X119053368Y-104233475D01*
X119227760Y-104350000D01*
X119053368Y-104466525D01*
X118846525Y-104673368D01*
X118684010Y-104916589D01*
X118572068Y-105186842D01*
X118515000Y-105473740D01*
X118515000Y-105766260D01*
X118572068Y-106053158D01*
X118684010Y-106323411D01*
X118846525Y-106566632D01*
X119053368Y-106773475D01*
X119227760Y-106890000D01*
X119053368Y-107006525D01*
X118846525Y-107213368D01*
X118684010Y-107456589D01*
X118572068Y-107726842D01*
X118515000Y-108013740D01*
X118515000Y-108306260D01*
X118572068Y-108593158D01*
X118684010Y-108863411D01*
X118846525Y-109106632D01*
X118978380Y-109238487D01*
X118905820Y-109260498D01*
X118795506Y-109319463D01*
X118698815Y-109398815D01*
X118619463Y-109495506D01*
X118560498Y-109605820D01*
X118524188Y-109725518D01*
X118511928Y-109850000D01*
X104585000Y-109850000D01*
X104585000Y-109798061D01*
X104545226Y-109598102D01*
X104467205Y-109409744D01*
X104360000Y-109249300D01*
X104360000Y-107403711D01*
X104403937Y-107359774D01*
X104517205Y-107190256D01*
X104595226Y-107001898D01*
X104635000Y-106801939D01*
X104635000Y-106598061D01*
X104595226Y-106398102D01*
X104517205Y-106209744D01*
X104403937Y-106040226D01*
X104259774Y-105896063D01*
X104090256Y-105782795D01*
X103901898Y-105704774D01*
X103701939Y-105665000D01*
X103498061Y-105665000D01*
X103298102Y-105704774D01*
X103109744Y-105782795D01*
X102940226Y-105896063D01*
X102796063Y-106040226D01*
X102682795Y-106209744D01*
X102604774Y-106398102D01*
X102565000Y-106598061D01*
X102565000Y-106801939D01*
X102604774Y-107001898D01*
X102682795Y-107190256D01*
X102796063Y-107359774D01*
X102840000Y-107403711D01*
X102840001Y-109146288D01*
X102746063Y-109240226D01*
X102632795Y-109409744D01*
X102554774Y-109598102D01*
X102515000Y-109798061D01*
X98160000Y-109798061D01*
X98160000Y-100095000D01*
X98301939Y-100095000D01*
X98501898Y-100055226D01*
X98690256Y-99977205D01*
X98859774Y-99863937D01*
X99003937Y-99719774D01*
X99117205Y-99550256D01*
X99195226Y-99361898D01*
X99235000Y-99161939D01*
X99235000Y-98958061D01*
X99195226Y-98758102D01*
X99117205Y-98569744D01*
X99003937Y-98400226D01*
X98859774Y-98256063D01*
X98690256Y-98142795D01*
X98501898Y-98064774D01*
X98301939Y-98025000D01*
X98160000Y-98025000D01*
X98160000Y-88650259D01*
X100165000Y-88650259D01*
X100165000Y-104550259D01*
X100177201Y-104674141D01*
X100213336Y-104793263D01*
X100272017Y-104903046D01*
X100350987Y-104999272D01*
X100447213Y-105078242D01*
X100556996Y-105136923D01*
X100676118Y-105173058D01*
X100800000Y-105185259D01*
X101800000Y-105185259D01*
X101923882Y-105173058D01*
X102043004Y-105136923D01*
X102152787Y-105078242D01*
X102249013Y-104999272D01*
X102327983Y-104903046D01*
X102386664Y-104793263D01*
X102422799Y-104674141D01*
X102435000Y-104550259D01*
X102435000Y-104485259D01*
X103801464Y-104485259D01*
X103804774Y-104501898D01*
X103855000Y-104623153D01*
X103855000Y-104701332D01*
X103876142Y-104863822D01*
X103919637Y-104980458D01*
X103985051Y-105086367D01*
X104069870Y-105177479D01*
X104170835Y-105250293D01*
X104284064Y-105302011D01*
X104405208Y-105330645D01*
X104529610Y-105335095D01*
X105329610Y-105285095D01*
X105413882Y-105274131D01*
X105533004Y-105237996D01*
X105642787Y-105179315D01*
X105739013Y-105100345D01*
X105817983Y-105004119D01*
X105876664Y-104894336D01*
X105912799Y-104775214D01*
X105925000Y-104651332D01*
X105925000Y-101486332D01*
X108240000Y-101486332D01*
X108363882Y-101474131D01*
X108483004Y-101437996D01*
X108592787Y-101379315D01*
X108689013Y-101300345D01*
X108767983Y-101204119D01*
X108826664Y-101094336D01*
X108862799Y-100975214D01*
X108875000Y-100851332D01*
X108875000Y-97643110D01*
X118558524Y-97643110D01*
X118679845Y-97873000D01*
X119873000Y-97873000D01*
X119873000Y-96679186D01*
X120127000Y-96679186D01*
X120127000Y-97873000D01*
X121320155Y-97873000D01*
X121441476Y-97643110D01*
X121396825Y-97495901D01*
X121271641Y-97233080D01*
X121097588Y-96999731D01*
X120881355Y-96804822D01*
X120631252Y-96655843D01*
X120356891Y-96558519D01*
X120127000Y-96679186D01*
X119873000Y-96679186D01*
X119643109Y-96558519D01*
X119368748Y-96655843D01*
X119118645Y-96804822D01*
X118902412Y-96999731D01*
X118728359Y-97233080D01*
X118603175Y-97495901D01*
X118558524Y-97643110D01*
X108875000Y-97643110D01*
X108875000Y-89251332D01*
X108861092Y-89119157D01*
X108823372Y-89000528D01*
X108763233Y-88891537D01*
X108682987Y-88796373D01*
X108585717Y-88718692D01*
X108475161Y-88661481D01*
X108355568Y-88626937D01*
X108231534Y-88616388D01*
X104835000Y-88661675D01*
X104835000Y-88652154D01*
X104822868Y-88528619D01*
X104818533Y-88514301D01*
X104827983Y-88502787D01*
X104886664Y-88393004D01*
X104922799Y-88273882D01*
X104935000Y-88150000D01*
X104935000Y-87435000D01*
X110550000Y-87435000D01*
X110673882Y-87422799D01*
X110793004Y-87386664D01*
X110902787Y-87327983D01*
X110999013Y-87249013D01*
X111077983Y-87152787D01*
X111136664Y-87043004D01*
X111172799Y-86923882D01*
X111185000Y-86800000D01*
X111185000Y-82398053D01*
X128965000Y-82398053D01*
X128965000Y-82601931D01*
X129004774Y-82801890D01*
X129082795Y-82990248D01*
X129196063Y-83159766D01*
X129340226Y-83303929D01*
X129509744Y-83417197D01*
X129698102Y-83495218D01*
X129898061Y-83534992D01*
X129960199Y-83534992D01*
X131982964Y-85557757D01*
X131965000Y-85648067D01*
X131965000Y-85851945D01*
X132004774Y-86051904D01*
X132082795Y-86240262D01*
X132196063Y-86409780D01*
X132340226Y-86553943D01*
X132509744Y-86667211D01*
X132698102Y-86745232D01*
X132898061Y-86785006D01*
X133101939Y-86785006D01*
X133301898Y-86745232D01*
X133490256Y-86667211D01*
X133659774Y-86553943D01*
X133803937Y-86409780D01*
X133917205Y-86240262D01*
X133995226Y-86051904D01*
X134035000Y-85851945D01*
X134035000Y-85648067D01*
X133995226Y-85448108D01*
X133917205Y-85259750D01*
X133803937Y-85090232D01*
X133659774Y-84946069D01*
X133490256Y-84832801D01*
X133349171Y-84774361D01*
X131035000Y-82460191D01*
X131035000Y-82398053D01*
X130995226Y-82198094D01*
X130917205Y-82009736D01*
X130803937Y-81840218D01*
X130659774Y-81696055D01*
X130490256Y-81582787D01*
X130301898Y-81504766D01*
X130101939Y-81464992D01*
X129898061Y-81464992D01*
X129698102Y-81504766D01*
X129509744Y-81582787D01*
X129340226Y-81696055D01*
X129196063Y-81840218D01*
X129082795Y-82009736D01*
X129004774Y-82198094D01*
X128965000Y-82398053D01*
X111185000Y-82398053D01*
X111185000Y-80800000D01*
X111172799Y-80676118D01*
X111136664Y-80556996D01*
X111077983Y-80447213D01*
X110999013Y-80350987D01*
X110902787Y-80272017D01*
X110793004Y-80213336D01*
X110673882Y-80177201D01*
X110550000Y-80165000D01*
X105688072Y-80165000D01*
X105688072Y-79375000D01*
X105658999Y-79079814D01*
X105572896Y-78795972D01*
X105548324Y-78750000D01*
X105611928Y-78750000D01*
X105624188Y-78874482D01*
X105660498Y-78994180D01*
X105719463Y-79104494D01*
X105798815Y-79201185D01*
X105895506Y-79280537D01*
X106005820Y-79339502D01*
X106125518Y-79375812D01*
X106250000Y-79388072D01*
X107714250Y-79385000D01*
X107873000Y-79226250D01*
X107873000Y-77377000D01*
X108127000Y-77377000D01*
X108127000Y-79226250D01*
X108285750Y-79385000D01*
X109750000Y-79388072D01*
X109874482Y-79375812D01*
X109994180Y-79339502D01*
X110104494Y-79280537D01*
X110201185Y-79201185D01*
X110280537Y-79104494D01*
X110339502Y-78994180D01*
X110375812Y-78874482D01*
X110388072Y-78750000D01*
X110385000Y-77535750D01*
X110226250Y-77377000D01*
X108127000Y-77377000D01*
X107873000Y-77377000D01*
X105773750Y-77377000D01*
X105615000Y-77535750D01*
X105611928Y-78750000D01*
X105548324Y-78750000D01*
X105433073Y-78534382D01*
X105244903Y-78305097D01*
X105015618Y-78116927D01*
X104754028Y-77977104D01*
X104470186Y-77891001D01*
X104175000Y-77861928D01*
X102425000Y-77861928D01*
X102129814Y-77891001D01*
X101845972Y-77977104D01*
X101584382Y-78116927D01*
X101355097Y-78305097D01*
X101166927Y-78534382D01*
X101027104Y-78795972D01*
X100941001Y-79079814D01*
X100911928Y-79375000D01*
X100911928Y-81125000D01*
X100941001Y-81420186D01*
X101027104Y-81704028D01*
X101166927Y-81965618D01*
X101355097Y-82194903D01*
X101584382Y-82383073D01*
X101845972Y-82522896D01*
X102129814Y-82608999D01*
X102425000Y-82638072D01*
X104175000Y-82638072D01*
X104470186Y-82608999D01*
X104754028Y-82522896D01*
X104965000Y-82410129D01*
X104965000Y-83365000D01*
X100900000Y-83365000D01*
X100776118Y-83377201D01*
X100656996Y-83413336D01*
X100547213Y-83472017D01*
X100450987Y-83550987D01*
X100372017Y-83647213D01*
X100313336Y-83756996D01*
X100277201Y-83876118D01*
X100265000Y-84000000D01*
X100265000Y-88150000D01*
X100277201Y-88273882D01*
X100281027Y-88286494D01*
X100272017Y-88297472D01*
X100213336Y-88407255D01*
X100177201Y-88526377D01*
X100165000Y-88650259D01*
X98160000Y-88650259D01*
X98160000Y-75100807D01*
X98297912Y-75307207D01*
X98692793Y-75702088D01*
X99157124Y-76012344D01*
X99673061Y-76226052D01*
X100220777Y-76335000D01*
X100779223Y-76335000D01*
X101326939Y-76226052D01*
X101842876Y-76012344D01*
X102235501Y-75750000D01*
X105611928Y-75750000D01*
X105615000Y-76964250D01*
X105773750Y-77123000D01*
X107873000Y-77123000D01*
X107873000Y-75273750D01*
X108127000Y-75273750D01*
X108127000Y-77123000D01*
X110226250Y-77123000D01*
X110385000Y-76964250D01*
X110388072Y-75750000D01*
X110378385Y-75651633D01*
X114740472Y-75651633D01*
X114802965Y-75887950D01*
X115045678Y-76001350D01*
X115305849Y-76065219D01*
X115573482Y-76077104D01*
X115838291Y-76036548D01*
X116090100Y-75945109D01*
X116197035Y-75887950D01*
X116259528Y-75651633D01*
X119740472Y-75651633D01*
X119802965Y-75887950D01*
X120045678Y-76001350D01*
X120305849Y-76065219D01*
X120573482Y-76077104D01*
X120838291Y-76036548D01*
X121090100Y-75945109D01*
X121197035Y-75887950D01*
X121240642Y-75723050D01*
X124285000Y-75723050D01*
X124285000Y-76168949D01*
X124306487Y-76387110D01*
X124391401Y-76667033D01*
X124529294Y-76925013D01*
X124714866Y-77151134D01*
X124940986Y-77336706D01*
X125198966Y-77474599D01*
X125478889Y-77559513D01*
X125770000Y-77588185D01*
X126061110Y-77559513D01*
X126341033Y-77474599D01*
X126599013Y-77336706D01*
X126825134Y-77151134D01*
X126877223Y-77087663D01*
X126931595Y-77189386D01*
X127042038Y-77323962D01*
X127176614Y-77434405D01*
X127330150Y-77516472D01*
X127496746Y-77567008D01*
X127670000Y-77584072D01*
X128870000Y-77584072D01*
X129043254Y-77567008D01*
X129209850Y-77516472D01*
X129363386Y-77434405D01*
X129497962Y-77323962D01*
X129608405Y-77189386D01*
X129690472Y-77035850D01*
X129741008Y-76869254D01*
X129758072Y-76696000D01*
X129758072Y-75723050D01*
X132921000Y-75723050D01*
X132921000Y-76168949D01*
X132942487Y-76387110D01*
X133027401Y-76667033D01*
X133165294Y-76925013D01*
X133350866Y-77151134D01*
X133576986Y-77336706D01*
X133834966Y-77474599D01*
X134114889Y-77559513D01*
X134406000Y-77588185D01*
X134697110Y-77559513D01*
X134977033Y-77474599D01*
X135235013Y-77336706D01*
X135461134Y-77151134D01*
X135513223Y-77087663D01*
X135567595Y-77189386D01*
X135678038Y-77323962D01*
X135812614Y-77434405D01*
X135966150Y-77516472D01*
X136132746Y-77567008D01*
X136306000Y-77584072D01*
X137506000Y-77584072D01*
X137679254Y-77567008D01*
X137845850Y-77516472D01*
X137999386Y-77434405D01*
X138133962Y-77323962D01*
X138244405Y-77189386D01*
X138326472Y-77035850D01*
X138377008Y-76869254D01*
X138394072Y-76696000D01*
X138394072Y-76305742D01*
X141824715Y-76305742D01*
X141893904Y-76588745D01*
X142016975Y-76852812D01*
X142189198Y-77087795D01*
X142403954Y-77284664D01*
X142652991Y-77435854D01*
X142926739Y-77535554D01*
X142939110Y-77537476D01*
X143169000Y-77416155D01*
X143169000Y-76073000D01*
X141968768Y-76073000D01*
X141824715Y-76305742D01*
X138394072Y-76305742D01*
X138394072Y-75586258D01*
X141824715Y-75586258D01*
X141968768Y-75819000D01*
X143169000Y-75819000D01*
X143169000Y-74475845D01*
X142939110Y-74354524D01*
X142926739Y-74356446D01*
X142652991Y-74456146D01*
X142403954Y-74607336D01*
X142189198Y-74804205D01*
X142016975Y-75039188D01*
X141893904Y-75303255D01*
X141824715Y-75586258D01*
X138394072Y-75586258D01*
X138394072Y-75196000D01*
X138377008Y-75022746D01*
X138326472Y-74856150D01*
X138244405Y-74702614D01*
X138133962Y-74568038D01*
X137999386Y-74457595D01*
X137845850Y-74375528D01*
X137679254Y-74324992D01*
X137506000Y-74307928D01*
X136306000Y-74307928D01*
X136132746Y-74324992D01*
X135966150Y-74375528D01*
X135812614Y-74457595D01*
X135678038Y-74568038D01*
X135567595Y-74702614D01*
X135513223Y-74804337D01*
X135461134Y-74740866D01*
X135235014Y-74555294D01*
X134977034Y-74417401D01*
X134697111Y-74332487D01*
X134406000Y-74303815D01*
X134114890Y-74332487D01*
X133834967Y-74417401D01*
X133576987Y-74555294D01*
X133350866Y-74740866D01*
X133165294Y-74966986D01*
X133027401Y-75224966D01*
X132942487Y-75504889D01*
X132921000Y-75723050D01*
X129758072Y-75723050D01*
X129758072Y-75196000D01*
X129741008Y-75022746D01*
X129690472Y-74856150D01*
X129608405Y-74702614D01*
X129497962Y-74568038D01*
X129363386Y-74457595D01*
X129209850Y-74375528D01*
X129043254Y-74324992D01*
X128870000Y-74307928D01*
X127670000Y-74307928D01*
X127496746Y-74324992D01*
X127330150Y-74375528D01*
X127176614Y-74457595D01*
X127042038Y-74568038D01*
X126931595Y-74702614D01*
X126877223Y-74804337D01*
X126825134Y-74740866D01*
X126599014Y-74555294D01*
X126341034Y-74417401D01*
X126061111Y-74332487D01*
X125770000Y-74303815D01*
X125478890Y-74332487D01*
X125198967Y-74417401D01*
X124940987Y-74555294D01*
X124714866Y-74740866D01*
X124529294Y-74966986D01*
X124391401Y-75224966D01*
X124306487Y-75504889D01*
X124285000Y-75723050D01*
X121240642Y-75723050D01*
X121259528Y-75651633D01*
X120500000Y-74892105D01*
X119740472Y-75651633D01*
X116259528Y-75651633D01*
X115500000Y-74892105D01*
X114740472Y-75651633D01*
X110378385Y-75651633D01*
X110375812Y-75625518D01*
X110339502Y-75505820D01*
X110280537Y-75395506D01*
X110201185Y-75298815D01*
X110104494Y-75219463D01*
X109994180Y-75160498D01*
X109874482Y-75124188D01*
X109750000Y-75111928D01*
X108285750Y-75115000D01*
X108127000Y-75273750D01*
X107873000Y-75273750D01*
X107714250Y-75115000D01*
X106250000Y-75111928D01*
X106125518Y-75124188D01*
X106005820Y-75160498D01*
X105895506Y-75219463D01*
X105798815Y-75298815D01*
X105719463Y-75395506D01*
X105660498Y-75505820D01*
X105624188Y-75625518D01*
X105611928Y-75750000D01*
X102235501Y-75750000D01*
X102307207Y-75702088D01*
X102702088Y-75307207D01*
X103012344Y-74842876D01*
X103035910Y-74785982D01*
X114135396Y-74785982D01*
X114175952Y-75050791D01*
X114267391Y-75302600D01*
X114324550Y-75409535D01*
X114560867Y-75472028D01*
X115320395Y-74712500D01*
X115679605Y-74712500D01*
X116439133Y-75472028D01*
X116675450Y-75409535D01*
X116788850Y-75166822D01*
X116852719Y-74906651D01*
X116858077Y-74785982D01*
X119135396Y-74785982D01*
X119175952Y-75050791D01*
X119267391Y-75302600D01*
X119324550Y-75409535D01*
X119560867Y-75472028D01*
X120320395Y-74712500D01*
X120679605Y-74712500D01*
X121439133Y-75472028D01*
X121675450Y-75409535D01*
X121788850Y-75166822D01*
X121852719Y-74906651D01*
X121864604Y-74639018D01*
X121824048Y-74374209D01*
X121732609Y-74122400D01*
X121675450Y-74015465D01*
X121439133Y-73952972D01*
X120679605Y-74712500D01*
X120320395Y-74712500D01*
X119560867Y-73952972D01*
X119324550Y-74015465D01*
X119211150Y-74258178D01*
X119147281Y-74518349D01*
X119135396Y-74785982D01*
X116858077Y-74785982D01*
X116864604Y-74639018D01*
X116824048Y-74374209D01*
X116732609Y-74122400D01*
X116675450Y-74015465D01*
X116439133Y-73952972D01*
X115679605Y-74712500D01*
X115320395Y-74712500D01*
X114560867Y-73952972D01*
X114324550Y-74015465D01*
X114211150Y-74258178D01*
X114147281Y-74518349D01*
X114135396Y-74785982D01*
X103035910Y-74785982D01*
X103226052Y-74326939D01*
X103335000Y-73779223D01*
X103335000Y-73220777D01*
X103226052Y-72673061D01*
X103012344Y-72157124D01*
X103000569Y-72139500D01*
X113265000Y-72139500D01*
X113265000Y-72489500D01*
X113313507Y-72727996D01*
X113407610Y-72952446D01*
X113543693Y-73154225D01*
X113716526Y-73325578D01*
X113919467Y-73459921D01*
X114144718Y-73552091D01*
X114182391Y-73555962D01*
X114373000Y-73431231D01*
X114373000Y-72139500D01*
X114627000Y-72139500D01*
X114627000Y-73431231D01*
X114800862Y-73545003D01*
X114740472Y-73773367D01*
X115500000Y-74532895D01*
X116259528Y-73773367D01*
X119740472Y-73773367D01*
X120500000Y-74532895D01*
X121259528Y-73773367D01*
X121199138Y-73545003D01*
X121373000Y-73431231D01*
X121373000Y-72139500D01*
X121627000Y-72139500D01*
X121627000Y-73431231D01*
X121817609Y-73555962D01*
X121855282Y-73552091D01*
X122080533Y-73459921D01*
X122283474Y-73325578D01*
X122456307Y-73154225D01*
X122592390Y-72952446D01*
X122686493Y-72727996D01*
X122735000Y-72489500D01*
X122735000Y-72139500D01*
X121627000Y-72139500D01*
X121373000Y-72139500D01*
X120265000Y-72139500D01*
X120265000Y-72489500D01*
X120313507Y-72727996D01*
X120407610Y-72952446D01*
X120543693Y-73154225D01*
X120716526Y-73325578D01*
X120811836Y-73388671D01*
X120694151Y-73359781D01*
X120426518Y-73347896D01*
X120161709Y-73388452D01*
X119909900Y-73479891D01*
X119802965Y-73537050D01*
X119740472Y-73773367D01*
X116259528Y-73773367D01*
X116197035Y-73537050D01*
X115954322Y-73423650D01*
X115694151Y-73359781D01*
X115426518Y-73347896D01*
X115196558Y-73383115D01*
X115283474Y-73325578D01*
X115456307Y-73154225D01*
X115592390Y-72952446D01*
X115686493Y-72727996D01*
X115735000Y-72489500D01*
X115735000Y-72139500D01*
X114627000Y-72139500D01*
X114373000Y-72139500D01*
X113265000Y-72139500D01*
X103000569Y-72139500D01*
X102702088Y-71692793D01*
X102307207Y-71297912D01*
X102100807Y-71160000D01*
X113370947Y-71160000D01*
X113313507Y-71297004D01*
G37*
%TD.AperFunction*%
D31*
X192692793Y-118202088D02*
X192899193Y-118340000D01*
X192241711Y-118340000D01*
X192319937Y-118261774D01*
X192433205Y-118092256D01*
X192477068Y-117986363D01*
X192692793Y-118202088D01*
%TA.AperFunction,Conductor*%
D32*
G36*
X192692793Y-118202088D02*
G01*
X192899193Y-118340000D01*
X192241711Y-118340000D01*
X192319937Y-118261774D01*
X192433205Y-118092256D01*
X192477068Y-117986363D01*
X192692793Y-118202088D01*
G37*
%TD.AperFunction*%
D31*
X178186201Y-113011003D02*
X178209999Y-113040001D01*
X178325724Y-113134974D01*
X178457753Y-113205546D01*
X178601014Y-113249003D01*
X178712667Y-113260000D01*
X178712677Y-113260000D01*
X178750000Y-113263676D01*
X178787323Y-113260000D01*
X184740001Y-113260000D01*
X184740001Y-113462668D01*
X184736324Y-113500000D01*
X184740001Y-113537333D01*
X184750998Y-113648986D01*
X184752501Y-113653941D01*
X184794454Y-113792246D01*
X184865026Y-113924276D01*
X184936201Y-114011002D01*
X184960000Y-114040001D01*
X184988998Y-114063799D01*
X185558336Y-114633138D01*
X185558336Y-114641550D01*
X185555928Y-114666000D01*
X185555928Y-115166000D01*
X185568188Y-115290482D01*
X185575929Y-115316000D01*
X185568188Y-115341518D01*
X185555928Y-115466000D01*
X185555928Y-115966000D01*
X185558336Y-115990450D01*
X185558336Y-116015009D01*
X185570596Y-116139490D01*
X185589718Y-116235623D01*
X185626027Y-116355319D01*
X185663536Y-116445875D01*
X185722502Y-116556192D01*
X185776958Y-116637691D01*
X185856310Y-116734382D01*
X185925618Y-116803690D01*
X186022309Y-116883042D01*
X186103808Y-116937498D01*
X186214125Y-116996464D01*
X186304681Y-117033973D01*
X186424377Y-117070282D01*
X186520510Y-117089404D01*
X186644991Y-117101664D01*
X186669550Y-117101664D01*
X186694000Y-117104072D01*
X187006002Y-117104072D01*
X187023999Y-117126001D01*
X187052992Y-117149795D01*
X187052996Y-117149799D01*
X187093974Y-117183428D01*
X187139724Y-117220974D01*
X187271753Y-117291546D01*
X187415014Y-117335003D01*
X187526667Y-117346000D01*
X187526676Y-117346000D01*
X187563999Y-117349676D01*
X187601322Y-117346000D01*
X187764289Y-117346000D01*
X187808226Y-117389937D01*
X187977744Y-117503205D01*
X188166102Y-117581226D01*
X188366061Y-117621000D01*
X188569939Y-117621000D01*
X188769898Y-117581226D01*
X188958256Y-117503205D01*
X189127774Y-117389937D01*
X189271937Y-117245774D01*
X189368821Y-117100777D01*
X189380377Y-117104282D01*
X189476510Y-117123404D01*
X189600991Y-117135664D01*
X189625550Y-117135664D01*
X189650000Y-117138072D01*
X189963271Y-117138072D01*
X190481000Y-117655802D01*
X190481000Y-117703939D01*
X190520774Y-117903898D01*
X190598795Y-118092256D01*
X190712063Y-118261774D01*
X190790289Y-118340000D01*
X168734801Y-118340000D01*
X175289802Y-111785000D01*
X175351939Y-111785000D01*
X175551898Y-111745226D01*
X175740256Y-111667205D01*
X175909774Y-111553937D01*
X176053937Y-111409774D01*
X176167205Y-111240256D01*
X176239916Y-111064717D01*
X178186201Y-113011003D01*
%TA.AperFunction,Conductor*%
D32*
G36*
X178186201Y-113011003D02*
G01*
X178209999Y-113040001D01*
X178325724Y-113134974D01*
X178457753Y-113205546D01*
X178601014Y-113249003D01*
X178712667Y-113260000D01*
X178712677Y-113260000D01*
X178750000Y-113263676D01*
X178787323Y-113260000D01*
X184740001Y-113260000D01*
X184740001Y-113462668D01*
X184736324Y-113500000D01*
X184740001Y-113537333D01*
X184750998Y-113648986D01*
X184752501Y-113653941D01*
X184794454Y-113792246D01*
X184865026Y-113924276D01*
X184936201Y-114011002D01*
X184960000Y-114040001D01*
X184988998Y-114063799D01*
X185558336Y-114633138D01*
X185558336Y-114641550D01*
X185555928Y-114666000D01*
X185555928Y-115166000D01*
X185568188Y-115290482D01*
X185575929Y-115316000D01*
X185568188Y-115341518D01*
X185555928Y-115466000D01*
X185555928Y-115966000D01*
X185558336Y-115990450D01*
X185558336Y-116015009D01*
X185570596Y-116139490D01*
X185589718Y-116235623D01*
X185626027Y-116355319D01*
X185663536Y-116445875D01*
X185722502Y-116556192D01*
X185776958Y-116637691D01*
X185856310Y-116734382D01*
X185925618Y-116803690D01*
X186022309Y-116883042D01*
X186103808Y-116937498D01*
X186214125Y-116996464D01*
X186304681Y-117033973D01*
X186424377Y-117070282D01*
X186520510Y-117089404D01*
X186644991Y-117101664D01*
X186669550Y-117101664D01*
X186694000Y-117104072D01*
X187006002Y-117104072D01*
X187023999Y-117126001D01*
X187052992Y-117149795D01*
X187052996Y-117149799D01*
X187093974Y-117183428D01*
X187139724Y-117220974D01*
X187271753Y-117291546D01*
X187415014Y-117335003D01*
X187526667Y-117346000D01*
X187526676Y-117346000D01*
X187563999Y-117349676D01*
X187601322Y-117346000D01*
X187764289Y-117346000D01*
X187808226Y-117389937D01*
X187977744Y-117503205D01*
X188166102Y-117581226D01*
X188366061Y-117621000D01*
X188569939Y-117621000D01*
X188769898Y-117581226D01*
X188958256Y-117503205D01*
X189127774Y-117389937D01*
X189271937Y-117245774D01*
X189368821Y-117100777D01*
X189380377Y-117104282D01*
X189476510Y-117123404D01*
X189600991Y-117135664D01*
X189625550Y-117135664D01*
X189650000Y-117138072D01*
X189963271Y-117138072D01*
X190481000Y-117655802D01*
X190481000Y-117703939D01*
X190520774Y-117903898D01*
X190598795Y-118092256D01*
X190712063Y-118261774D01*
X190790289Y-118340000D01*
X168734801Y-118340000D01*
X175289802Y-111785000D01*
X175351939Y-111785000D01*
X175551898Y-111745226D01*
X175740256Y-111667205D01*
X175909774Y-111553937D01*
X176053937Y-111409774D01*
X176167205Y-111240256D01*
X176239916Y-111064717D01*
X178186201Y-113011003D01*
G37*
%TD.AperFunction*%
D31*
X147504774Y-110448102D02*
X147465000Y-110648061D01*
X147465000Y-110851939D01*
X147504774Y-111051898D01*
X147582795Y-111240256D01*
X147696063Y-111409774D01*
X147840226Y-111553937D01*
X148009744Y-111667205D01*
X148198102Y-111745226D01*
X148398061Y-111785000D01*
X148460199Y-111785000D01*
X151935282Y-115260084D01*
X151759744Y-115332795D01*
X151590226Y-115446063D01*
X151446063Y-115590226D01*
X151332795Y-115759744D01*
X151254774Y-115948102D01*
X151215000Y-116148061D01*
X151215000Y-116351939D01*
X151254774Y-116551898D01*
X151332795Y-116740256D01*
X151446063Y-116909774D01*
X151590226Y-117053937D01*
X151759744Y-117167205D01*
X151948102Y-117245226D01*
X152148061Y-117285000D01*
X152210199Y-117285000D01*
X153265198Y-118340000D01*
X146963000Y-118340000D01*
X146963000Y-110490000D01*
X146960560Y-110465224D01*
X146953333Y-110441399D01*
X146941597Y-110419443D01*
X146925803Y-110400197D01*
X146906557Y-110384403D01*
X146884601Y-110372667D01*
X146860776Y-110365440D01*
X146836000Y-110363000D01*
X146557556Y-110363000D01*
X146564537Y-110354494D01*
X146615046Y-110260000D01*
X147582689Y-110260000D01*
X147504774Y-110448102D01*
%TA.AperFunction,Conductor*%
D32*
G36*
X147504774Y-110448102D02*
G01*
X147465000Y-110648061D01*
X147465000Y-110851939D01*
X147504774Y-111051898D01*
X147582795Y-111240256D01*
X147696063Y-111409774D01*
X147840226Y-111553937D01*
X148009744Y-111667205D01*
X148198102Y-111745226D01*
X148398061Y-111785000D01*
X148460199Y-111785000D01*
X151935282Y-115260084D01*
X151759744Y-115332795D01*
X151590226Y-115446063D01*
X151446063Y-115590226D01*
X151332795Y-115759744D01*
X151254774Y-115948102D01*
X151215000Y-116148061D01*
X151215000Y-116351939D01*
X151254774Y-116551898D01*
X151332795Y-116740256D01*
X151446063Y-116909774D01*
X151590226Y-117053937D01*
X151759744Y-117167205D01*
X151948102Y-117245226D01*
X152148061Y-117285000D01*
X152210199Y-117285000D01*
X153265198Y-118340000D01*
X146963000Y-118340000D01*
X146963000Y-110490000D01*
X146960560Y-110465224D01*
X146953333Y-110441399D01*
X146941597Y-110419443D01*
X146925803Y-110400197D01*
X146906557Y-110384403D01*
X146884601Y-110372667D01*
X146860776Y-110365440D01*
X146836000Y-110363000D01*
X146557556Y-110363000D01*
X146564537Y-110354494D01*
X146615046Y-110260000D01*
X147582689Y-110260000D01*
X147504774Y-110448102D01*
G37*
%TD.AperFunction*%
D31*
X192692793Y-113797912D02*
X192297912Y-114192793D01*
X191987656Y-114657124D01*
X191773948Y-115173061D01*
X191665000Y-115720777D01*
X191665000Y-116279223D01*
X191726540Y-116588602D01*
X191617939Y-116567000D01*
X191541802Y-116567000D01*
X191251988Y-116277186D01*
X191254282Y-116269623D01*
X191273404Y-116173490D01*
X191285664Y-116049009D01*
X191285664Y-116024450D01*
X191288072Y-116000000D01*
X191288072Y-115500000D01*
X191275812Y-115375518D01*
X191268071Y-115350000D01*
X191275812Y-115324482D01*
X191288072Y-115200000D01*
X191288072Y-114700000D01*
X191285664Y-114675550D01*
X191285664Y-114650991D01*
X191273404Y-114526510D01*
X191254282Y-114430377D01*
X191251988Y-114422814D01*
X191914802Y-113760000D01*
X192749532Y-113760000D01*
X192692793Y-113797912D01*
%TA.AperFunction,Conductor*%
D32*
G36*
X192692793Y-113797912D02*
G01*
X192297912Y-114192793D01*
X191987656Y-114657124D01*
X191773948Y-115173061D01*
X191665000Y-115720777D01*
X191665000Y-116279223D01*
X191726540Y-116588602D01*
X191617939Y-116567000D01*
X191541802Y-116567000D01*
X191251988Y-116277186D01*
X191254282Y-116269623D01*
X191273404Y-116173490D01*
X191285664Y-116049009D01*
X191285664Y-116024450D01*
X191288072Y-116000000D01*
X191288072Y-115500000D01*
X191275812Y-115375518D01*
X191268071Y-115350000D01*
X191275812Y-115324482D01*
X191288072Y-115200000D01*
X191288072Y-114700000D01*
X191285664Y-114675550D01*
X191285664Y-114650991D01*
X191273404Y-114526510D01*
X191254282Y-114430377D01*
X191251988Y-114422814D01*
X191914802Y-113760000D01*
X192749532Y-113760000D01*
X192692793Y-113797912D01*
G37*
%TD.AperFunction*%
D31*
X154340001Y-114562668D02*
X154336324Y-114600000D01*
X154340001Y-114637333D01*
X154350998Y-114748986D01*
X154354518Y-114760589D01*
X154394454Y-114892246D01*
X154465026Y-115024276D01*
X154519896Y-115091134D01*
X154560000Y-115140001D01*
X154588998Y-115163799D01*
X155915198Y-116490000D01*
X155314802Y-116490000D01*
X152084801Y-113260000D01*
X153712678Y-113260000D01*
X153750000Y-113263676D01*
X153787322Y-113260000D01*
X153787333Y-113260000D01*
X153898986Y-113249003D01*
X154042247Y-113205546D01*
X154174276Y-113134974D01*
X154290001Y-113040001D01*
X154313804Y-113010997D01*
X154340000Y-112984801D01*
X154340001Y-114562668D01*
%TA.AperFunction,Conductor*%
D32*
G36*
X154340001Y-114562668D02*
G01*
X154336324Y-114600000D01*
X154340001Y-114637333D01*
X154350998Y-114748986D01*
X154354518Y-114760589D01*
X154394454Y-114892246D01*
X154465026Y-115024276D01*
X154519896Y-115091134D01*
X154560000Y-115140001D01*
X154588998Y-115163799D01*
X155915198Y-116490000D01*
X155314802Y-116490000D01*
X152084801Y-113260000D01*
X153712678Y-113260000D01*
X153750000Y-113263676D01*
X153787322Y-113260000D01*
X153787333Y-113260000D01*
X153898986Y-113249003D01*
X154042247Y-113205546D01*
X154174276Y-113134974D01*
X154290001Y-113040001D01*
X154313804Y-113010997D01*
X154340000Y-112984801D01*
X154340001Y-114562668D01*
G37*
%TD.AperFunction*%
D31*
X196840000Y-114399193D02*
X196702088Y-114192793D01*
X196307207Y-113797912D01*
X195842876Y-113487656D01*
X195326939Y-113273948D01*
X194779223Y-113165000D01*
X194639805Y-113165000D01*
X194645230Y-113151902D01*
X194685004Y-112951943D01*
X194685004Y-112748065D01*
X194645230Y-112548106D01*
X194619090Y-112485000D01*
X194951620Y-112485000D01*
X195000000Y-112489765D01*
X195048380Y-112485000D01*
X195193094Y-112470747D01*
X195378767Y-112414424D01*
X195549884Y-112322960D01*
X195699870Y-112199870D01*
X195730716Y-112162284D01*
X195965569Y-111927431D01*
X195990256Y-111917205D01*
X196159774Y-111803937D01*
X196303937Y-111659774D01*
X196417205Y-111490256D01*
X196495226Y-111301898D01*
X196535000Y-111101939D01*
X196535000Y-110898061D01*
X196495226Y-110698102D01*
X196417205Y-110509744D01*
X196303937Y-110340226D01*
X196159774Y-110196063D01*
X195990256Y-110082795D01*
X195801898Y-110004774D01*
X195601939Y-109965000D01*
X195398061Y-109965000D01*
X195198102Y-110004774D01*
X195009744Y-110082795D01*
X194840226Y-110196063D01*
X194696063Y-110340226D01*
X194582795Y-110509744D01*
X194580618Y-110515000D01*
X193048380Y-110515000D01*
X193000000Y-110510235D01*
X192951620Y-110515000D01*
X192806906Y-110529253D01*
X192621233Y-110585576D01*
X192450116Y-110677040D01*
X192300130Y-110800130D01*
X192269284Y-110837716D01*
X192034431Y-111072569D01*
X192009744Y-111082795D01*
X191840226Y-111196063D01*
X191696063Y-111340226D01*
X191582795Y-111509744D01*
X191504774Y-111698102D01*
X191465000Y-111898061D01*
X191465000Y-112101939D01*
X191493811Y-112246782D01*
X191451014Y-112250997D01*
X191334947Y-112286205D01*
X191307753Y-112294454D01*
X191175723Y-112365026D01*
X191101757Y-112425729D01*
X191059999Y-112459999D01*
X191036201Y-112488997D01*
X189963271Y-113561928D01*
X189650000Y-113561928D01*
X189625550Y-113564336D01*
X189600991Y-113564336D01*
X189476510Y-113576596D01*
X189380377Y-113595718D01*
X189260681Y-113632027D01*
X189170125Y-113669536D01*
X189059808Y-113728502D01*
X188978309Y-113782958D01*
X188881618Y-113862310D01*
X188812310Y-113931618D01*
X188732958Y-114028309D01*
X188678502Y-114109808D01*
X188619536Y-114220125D01*
X188582027Y-114310681D01*
X188545718Y-114430377D01*
X188526596Y-114526510D01*
X188514336Y-114650991D01*
X188514336Y-114675550D01*
X188511928Y-114700000D01*
X188511928Y-115200000D01*
X188524188Y-115324482D01*
X188531929Y-115350000D01*
X188524188Y-115375518D01*
X188511928Y-115500000D01*
X188511928Y-115551000D01*
X188366061Y-115551000D01*
X188332072Y-115557761D01*
X188332072Y-115466000D01*
X188319812Y-115341518D01*
X188312071Y-115316000D01*
X188319812Y-115290482D01*
X188332072Y-115166000D01*
X188332072Y-114666000D01*
X188329664Y-114641550D01*
X188329664Y-114616991D01*
X188317404Y-114492510D01*
X188298282Y-114396377D01*
X188261973Y-114276681D01*
X188224464Y-114186125D01*
X188165498Y-114075808D01*
X188111042Y-113994309D01*
X188031690Y-113897618D01*
X187962382Y-113828310D01*
X187865691Y-113748958D01*
X187784192Y-113694502D01*
X187673875Y-113635536D01*
X187583319Y-113598027D01*
X187463623Y-113561718D01*
X187367490Y-113542596D01*
X187243009Y-113530336D01*
X187218450Y-113530336D01*
X187194000Y-113527928D01*
X186694000Y-113527928D01*
X186669550Y-113530336D01*
X186644991Y-113530336D01*
X186608711Y-113533909D01*
X186269256Y-113194455D01*
X186303937Y-113159774D01*
X186417205Y-112990256D01*
X186495226Y-112801898D01*
X186535000Y-112601939D01*
X186535000Y-112398061D01*
X186495226Y-112198102D01*
X186417205Y-112009744D01*
X186303937Y-111840226D01*
X186159774Y-111696063D01*
X185990256Y-111582795D01*
X185801898Y-111504774D01*
X185601939Y-111465000D01*
X185398061Y-111465000D01*
X185198102Y-111504774D01*
X185009744Y-111582795D01*
X184840226Y-111696063D01*
X184796289Y-111740000D01*
X179064802Y-111740000D01*
X176035000Y-108710199D01*
X176035000Y-108648061D01*
X175995226Y-108448102D01*
X175917205Y-108259744D01*
X175803937Y-108090226D01*
X175732645Y-108018934D01*
X177866579Y-105885000D01*
X181211540Y-105885000D01*
X181259738Y-105917205D01*
X181448096Y-105995226D01*
X181648055Y-106035000D01*
X181851933Y-106035000D01*
X182051892Y-105995226D01*
X182240250Y-105917205D01*
X182288448Y-105885000D01*
X192711546Y-105885000D01*
X192759744Y-105917205D01*
X192948102Y-105995226D01*
X193148061Y-106035000D01*
X193351939Y-106035000D01*
X193551898Y-105995226D01*
X193740256Y-105917205D01*
X193909774Y-105803937D01*
X194053937Y-105659774D01*
X194167205Y-105490256D01*
X194245226Y-105301898D01*
X194285000Y-105101939D01*
X194285000Y-104898061D01*
X194245226Y-104698102D01*
X194167205Y-104509744D01*
X194053937Y-104340226D01*
X193909774Y-104196063D01*
X193740256Y-104082795D01*
X193551898Y-104004774D01*
X193351939Y-103965000D01*
X193148061Y-103965000D01*
X192948102Y-104004774D01*
X192759744Y-104082795D01*
X192711546Y-104115000D01*
X182288448Y-104115000D01*
X182240250Y-104082795D01*
X182113956Y-104030482D01*
X196840000Y-103713755D01*
X196840000Y-114399193D01*
%TA.AperFunction,Conductor*%
D32*
G36*
X196840000Y-114399193D02*
G01*
X196702088Y-114192793D01*
X196307207Y-113797912D01*
X195842876Y-113487656D01*
X195326939Y-113273948D01*
X194779223Y-113165000D01*
X194639805Y-113165000D01*
X194645230Y-113151902D01*
X194685004Y-112951943D01*
X194685004Y-112748065D01*
X194645230Y-112548106D01*
X194619090Y-112485000D01*
X194951620Y-112485000D01*
X195000000Y-112489765D01*
X195048380Y-112485000D01*
X195193094Y-112470747D01*
X195378767Y-112414424D01*
X195549884Y-112322960D01*
X195699870Y-112199870D01*
X195730716Y-112162284D01*
X195965569Y-111927431D01*
X195990256Y-111917205D01*
X196159774Y-111803937D01*
X196303937Y-111659774D01*
X196417205Y-111490256D01*
X196495226Y-111301898D01*
X196535000Y-111101939D01*
X196535000Y-110898061D01*
X196495226Y-110698102D01*
X196417205Y-110509744D01*
X196303937Y-110340226D01*
X196159774Y-110196063D01*
X195990256Y-110082795D01*
X195801898Y-110004774D01*
X195601939Y-109965000D01*
X195398061Y-109965000D01*
X195198102Y-110004774D01*
X195009744Y-110082795D01*
X194840226Y-110196063D01*
X194696063Y-110340226D01*
X194582795Y-110509744D01*
X194580618Y-110515000D01*
X193048380Y-110515000D01*
X193000000Y-110510235D01*
X192951620Y-110515000D01*
X192806906Y-110529253D01*
X192621233Y-110585576D01*
X192450116Y-110677040D01*
X192300130Y-110800130D01*
X192269284Y-110837716D01*
X192034431Y-111072569D01*
X192009744Y-111082795D01*
X191840226Y-111196063D01*
X191696063Y-111340226D01*
X191582795Y-111509744D01*
X191504774Y-111698102D01*
X191465000Y-111898061D01*
X191465000Y-112101939D01*
X191493811Y-112246782D01*
X191451014Y-112250997D01*
X191334947Y-112286205D01*
X191307753Y-112294454D01*
X191175723Y-112365026D01*
X191101757Y-112425729D01*
X191059999Y-112459999D01*
X191036201Y-112488997D01*
X189963271Y-113561928D01*
X189650000Y-113561928D01*
X189625550Y-113564336D01*
X189600991Y-113564336D01*
X189476510Y-113576596D01*
X189380377Y-113595718D01*
X189260681Y-113632027D01*
X189170125Y-113669536D01*
X189059808Y-113728502D01*
X188978309Y-113782958D01*
X188881618Y-113862310D01*
X188812310Y-113931618D01*
X188732958Y-114028309D01*
X188678502Y-114109808D01*
X188619536Y-114220125D01*
X188582027Y-114310681D01*
X188545718Y-114430377D01*
X188526596Y-114526510D01*
X188514336Y-114650991D01*
X188514336Y-114675550D01*
X188511928Y-114700000D01*
X188511928Y-115200000D01*
X188524188Y-115324482D01*
X188531929Y-115350000D01*
X188524188Y-115375518D01*
X188511928Y-115500000D01*
X188511928Y-115551000D01*
X188366061Y-115551000D01*
X188332072Y-115557761D01*
X188332072Y-115466000D01*
X188319812Y-115341518D01*
X188312071Y-115316000D01*
X188319812Y-115290482D01*
X188332072Y-115166000D01*
X188332072Y-114666000D01*
X188329664Y-114641550D01*
X188329664Y-114616991D01*
X188317404Y-114492510D01*
X188298282Y-114396377D01*
X188261973Y-114276681D01*
X188224464Y-114186125D01*
X188165498Y-114075808D01*
X188111042Y-113994309D01*
X188031690Y-113897618D01*
X187962382Y-113828310D01*
X187865691Y-113748958D01*
X187784192Y-113694502D01*
X187673875Y-113635536D01*
X187583319Y-113598027D01*
X187463623Y-113561718D01*
X187367490Y-113542596D01*
X187243009Y-113530336D01*
X187218450Y-113530336D01*
X187194000Y-113527928D01*
X186694000Y-113527928D01*
X186669550Y-113530336D01*
X186644991Y-113530336D01*
X186608711Y-113533909D01*
X186269256Y-113194455D01*
X186303937Y-113159774D01*
X186417205Y-112990256D01*
X186495226Y-112801898D01*
X186535000Y-112601939D01*
X186535000Y-112398061D01*
X186495226Y-112198102D01*
X186417205Y-112009744D01*
X186303937Y-111840226D01*
X186159774Y-111696063D01*
X185990256Y-111582795D01*
X185801898Y-111504774D01*
X185601939Y-111465000D01*
X185398061Y-111465000D01*
X185198102Y-111504774D01*
X185009744Y-111582795D01*
X184840226Y-111696063D01*
X184796289Y-111740000D01*
X179064802Y-111740000D01*
X176035000Y-108710199D01*
X176035000Y-108648061D01*
X175995226Y-108448102D01*
X175917205Y-108259744D01*
X175803937Y-108090226D01*
X175732645Y-108018934D01*
X177866579Y-105885000D01*
X181211540Y-105885000D01*
X181259738Y-105917205D01*
X181448096Y-105995226D01*
X181648055Y-106035000D01*
X181851933Y-106035000D01*
X182051892Y-105995226D01*
X182240250Y-105917205D01*
X182288448Y-105885000D01*
X192711546Y-105885000D01*
X192759744Y-105917205D01*
X192948102Y-105995226D01*
X193148061Y-106035000D01*
X193351939Y-106035000D01*
X193551898Y-105995226D01*
X193740256Y-105917205D01*
X193909774Y-105803937D01*
X194053937Y-105659774D01*
X194167205Y-105490256D01*
X194245226Y-105301898D01*
X194285000Y-105101939D01*
X194285000Y-104898061D01*
X194245226Y-104698102D01*
X194167205Y-104509744D01*
X194053937Y-104340226D01*
X193909774Y-104196063D01*
X193740256Y-104082795D01*
X193551898Y-104004774D01*
X193351939Y-103965000D01*
X193148061Y-103965000D01*
X192948102Y-104004774D01*
X192759744Y-104082795D01*
X192711546Y-104115000D01*
X182288448Y-104115000D01*
X182240250Y-104082795D01*
X182113956Y-104030482D01*
X196840000Y-103713755D01*
X196840000Y-114399193D01*
G37*
%TD.AperFunction*%
D31*
X177159687Y-104178411D02*
X177005941Y-104260589D01*
X177005939Y-104260590D01*
X177005940Y-104260590D01*
X176904953Y-104343468D01*
X176904951Y-104343470D01*
X176871183Y-104371183D01*
X176843470Y-104404951D01*
X166633422Y-114615000D01*
X158788454Y-114615000D01*
X158740256Y-114582795D01*
X158551898Y-114504774D01*
X158351939Y-114465000D01*
X158148061Y-114465000D01*
X157948102Y-114504774D01*
X157759744Y-114582795D01*
X157590226Y-114696063D01*
X157446063Y-114840226D01*
X157332795Y-115009744D01*
X157254774Y-115198102D01*
X157215000Y-115398061D01*
X157215000Y-115487489D01*
X157101939Y-115465000D01*
X157039802Y-115465000D01*
X155860000Y-114285199D01*
X155860000Y-112973740D01*
X158515000Y-112973740D01*
X158515000Y-113266260D01*
X158572068Y-113553158D01*
X158684010Y-113823411D01*
X158846525Y-114066632D01*
X159053368Y-114273475D01*
X159296589Y-114435990D01*
X159566842Y-114547932D01*
X159853740Y-114605000D01*
X160146260Y-114605000D01*
X160433158Y-114547932D01*
X160703411Y-114435990D01*
X160946632Y-114273475D01*
X161153475Y-114066632D01*
X161315990Y-113823411D01*
X161427932Y-113553158D01*
X161485000Y-113266260D01*
X161485000Y-112973740D01*
X161427932Y-112686842D01*
X161315990Y-112416589D01*
X161153475Y-112173368D01*
X160946632Y-111966525D01*
X160764466Y-111844805D01*
X160881355Y-111775178D01*
X161097588Y-111580269D01*
X161271641Y-111346920D01*
X161396825Y-111084099D01*
X161441476Y-110936890D01*
X161320155Y-110707000D01*
X160127000Y-110707000D01*
X160127000Y-110727000D01*
X159873000Y-110727000D01*
X159873000Y-110707000D01*
X158679845Y-110707000D01*
X158558524Y-110936890D01*
X158603175Y-111084099D01*
X158728359Y-111346920D01*
X158902412Y-111580269D01*
X159118645Y-111775178D01*
X159235534Y-111844805D01*
X159053368Y-111966525D01*
X158846525Y-112173368D01*
X158684010Y-112416589D01*
X158572068Y-112686842D01*
X158515000Y-112973740D01*
X155860000Y-112973740D01*
X155860000Y-112114801D01*
X158917347Y-109057454D01*
X159053368Y-109193475D01*
X159235534Y-109315195D01*
X159118645Y-109384822D01*
X158902412Y-109579731D01*
X158728359Y-109813080D01*
X158603175Y-110075901D01*
X158558524Y-110223110D01*
X158679845Y-110453000D01*
X159873000Y-110453000D01*
X159873000Y-110433000D01*
X160127000Y-110433000D01*
X160127000Y-110453000D01*
X161320155Y-110453000D01*
X161441476Y-110223110D01*
X161396825Y-110075901D01*
X161271641Y-109813080D01*
X161097588Y-109579731D01*
X160881355Y-109384822D01*
X160764466Y-109315195D01*
X160946632Y-109193475D01*
X161153475Y-108986632D01*
X161315990Y-108743411D01*
X161427932Y-108473158D01*
X161485000Y-108186260D01*
X161485000Y-107893740D01*
X161427932Y-107606842D01*
X161315990Y-107336589D01*
X161153475Y-107093368D01*
X161021620Y-106961513D01*
X161094180Y-106939502D01*
X161204494Y-106880537D01*
X161301185Y-106801185D01*
X161380537Y-106704494D01*
X161439502Y-106594180D01*
X161475812Y-106474482D01*
X161488072Y-106350000D01*
X161488072Y-104650000D01*
X161475812Y-104525518D01*
X161460396Y-104474698D01*
X177306481Y-104133881D01*
X177159687Y-104178411D01*
%TA.AperFunction,Conductor*%
D32*
G36*
X177159687Y-104178411D02*
G01*
X177005941Y-104260589D01*
X177005939Y-104260590D01*
X177005940Y-104260590D01*
X176904953Y-104343468D01*
X176904951Y-104343470D01*
X176871183Y-104371183D01*
X176843470Y-104404951D01*
X166633422Y-114615000D01*
X158788454Y-114615000D01*
X158740256Y-114582795D01*
X158551898Y-114504774D01*
X158351939Y-114465000D01*
X158148061Y-114465000D01*
X157948102Y-114504774D01*
X157759744Y-114582795D01*
X157590226Y-114696063D01*
X157446063Y-114840226D01*
X157332795Y-115009744D01*
X157254774Y-115198102D01*
X157215000Y-115398061D01*
X157215000Y-115487489D01*
X157101939Y-115465000D01*
X157039802Y-115465000D01*
X155860000Y-114285199D01*
X155860000Y-112973740D01*
X158515000Y-112973740D01*
X158515000Y-113266260D01*
X158572068Y-113553158D01*
X158684010Y-113823411D01*
X158846525Y-114066632D01*
X159053368Y-114273475D01*
X159296589Y-114435990D01*
X159566842Y-114547932D01*
X159853740Y-114605000D01*
X160146260Y-114605000D01*
X160433158Y-114547932D01*
X160703411Y-114435990D01*
X160946632Y-114273475D01*
X161153475Y-114066632D01*
X161315990Y-113823411D01*
X161427932Y-113553158D01*
X161485000Y-113266260D01*
X161485000Y-112973740D01*
X161427932Y-112686842D01*
X161315990Y-112416589D01*
X161153475Y-112173368D01*
X160946632Y-111966525D01*
X160764466Y-111844805D01*
X160881355Y-111775178D01*
X161097588Y-111580269D01*
X161271641Y-111346920D01*
X161396825Y-111084099D01*
X161441476Y-110936890D01*
X161320155Y-110707000D01*
X160127000Y-110707000D01*
X160127000Y-110727000D01*
X159873000Y-110727000D01*
X159873000Y-110707000D01*
X158679845Y-110707000D01*
X158558524Y-110936890D01*
X158603175Y-111084099D01*
X158728359Y-111346920D01*
X158902412Y-111580269D01*
X159118645Y-111775178D01*
X159235534Y-111844805D01*
X159053368Y-111966525D01*
X158846525Y-112173368D01*
X158684010Y-112416589D01*
X158572068Y-112686842D01*
X158515000Y-112973740D01*
X155860000Y-112973740D01*
X155860000Y-112114801D01*
X158917347Y-109057454D01*
X159053368Y-109193475D01*
X159235534Y-109315195D01*
X159118645Y-109384822D01*
X158902412Y-109579731D01*
X158728359Y-109813080D01*
X158603175Y-110075901D01*
X158558524Y-110223110D01*
X158679845Y-110453000D01*
X159873000Y-110453000D01*
X159873000Y-110433000D01*
X160127000Y-110433000D01*
X160127000Y-110453000D01*
X161320155Y-110453000D01*
X161441476Y-110223110D01*
X161396825Y-110075901D01*
X161271641Y-109813080D01*
X161097588Y-109579731D01*
X160881355Y-109384822D01*
X160764466Y-109315195D01*
X160946632Y-109193475D01*
X161153475Y-108986632D01*
X161315990Y-108743411D01*
X161427932Y-108473158D01*
X161485000Y-108186260D01*
X161485000Y-107893740D01*
X161427932Y-107606842D01*
X161315990Y-107336589D01*
X161153475Y-107093368D01*
X161021620Y-106961513D01*
X161094180Y-106939502D01*
X161204494Y-106880537D01*
X161301185Y-106801185D01*
X161380537Y-106704494D01*
X161439502Y-106594180D01*
X161475812Y-106474482D01*
X161488072Y-106350000D01*
X161488072Y-104650000D01*
X161475812Y-104525518D01*
X161460396Y-104474698D01*
X177306481Y-104133881D01*
X177159687Y-104178411D01*
G37*
%TD.AperFunction*%
D31*
X143003463Y-96354494D02*
X143082815Y-96451185D01*
X143142296Y-96500000D01*
X143082815Y-96548815D01*
X143003463Y-96645506D01*
X142944498Y-96755820D01*
X142908188Y-96875518D01*
X142895928Y-97000000D01*
X142895928Y-97029269D01*
X134210199Y-105715000D01*
X134148061Y-105715000D01*
X133948102Y-105754774D01*
X133759744Y-105832795D01*
X133590226Y-105946063D01*
X133446063Y-106090226D01*
X133332795Y-106259744D01*
X133254774Y-106448102D01*
X133215000Y-106648061D01*
X133215000Y-106851939D01*
X133254774Y-107051898D01*
X133332795Y-107240256D01*
X133446063Y-107409774D01*
X133590226Y-107553937D01*
X133759744Y-107667205D01*
X133948102Y-107745226D01*
X134148061Y-107785000D01*
X134351939Y-107785000D01*
X134551898Y-107745226D01*
X134740256Y-107667205D01*
X134909774Y-107553937D01*
X135053937Y-107409774D01*
X135167205Y-107240256D01*
X135245226Y-107051898D01*
X135285000Y-106851939D01*
X135285000Y-106789801D01*
X138762846Y-103311956D01*
X138750998Y-103351014D01*
X138746561Y-103396063D01*
X138736324Y-103500000D01*
X138740001Y-103537332D01*
X138740000Y-107796289D01*
X138696063Y-107840226D01*
X138582795Y-108009744D01*
X138504774Y-108198102D01*
X138465000Y-108398061D01*
X138465000Y-108601939D01*
X138504774Y-108801898D01*
X138582795Y-108990256D01*
X138696063Y-109159774D01*
X138840226Y-109303937D01*
X139009744Y-109417205D01*
X139198102Y-109495226D01*
X139398061Y-109535000D01*
X139601939Y-109535000D01*
X139801898Y-109495226D01*
X139990256Y-109417205D01*
X140159774Y-109303937D01*
X140303937Y-109159774D01*
X140417205Y-108990256D01*
X140495226Y-108801898D01*
X140535000Y-108601939D01*
X140535000Y-108398061D01*
X140495226Y-108198102D01*
X140417205Y-108009744D01*
X140303937Y-107840226D01*
X140260000Y-107796289D01*
X140260000Y-106223711D01*
X140340226Y-106303937D01*
X140509744Y-106417205D01*
X140698102Y-106495226D01*
X140898061Y-106535000D01*
X141101939Y-106535000D01*
X141301898Y-106495226D01*
X141490256Y-106417205D01*
X141659774Y-106303937D01*
X141703711Y-106260000D01*
X142952954Y-106260000D01*
X143003463Y-106354494D01*
X143082815Y-106451185D01*
X143142296Y-106500000D01*
X143082815Y-106548815D01*
X143003463Y-106645506D01*
X142944498Y-106755820D01*
X142908188Y-106875518D01*
X142895928Y-107000000D01*
X142895928Y-108000000D01*
X142908188Y-108124482D01*
X142944498Y-108244180D01*
X143003463Y-108354494D01*
X143082815Y-108451185D01*
X143142296Y-108500000D01*
X143082815Y-108548815D01*
X143003463Y-108645506D01*
X142944498Y-108755820D01*
X142908188Y-108875518D01*
X142895928Y-109000000D01*
X142895928Y-110000000D01*
X142908188Y-110124482D01*
X142944498Y-110244180D01*
X143003463Y-110354494D01*
X143010444Y-110363000D01*
X131357556Y-110363000D01*
X131364537Y-110354494D01*
X131423502Y-110244180D01*
X131459812Y-110124482D01*
X131472072Y-110000000D01*
X131472072Y-109000000D01*
X131459812Y-108875518D01*
X131423502Y-108755820D01*
X131364537Y-108645506D01*
X131285185Y-108548815D01*
X131225704Y-108500000D01*
X131285185Y-108451185D01*
X131364537Y-108354494D01*
X131423502Y-108244180D01*
X131459812Y-108124482D01*
X131472072Y-108000000D01*
X131472072Y-107000000D01*
X131459812Y-106875518D01*
X131423502Y-106755820D01*
X131364537Y-106645506D01*
X131285185Y-106548815D01*
X131225704Y-106500000D01*
X131285185Y-106451185D01*
X131364537Y-106354494D01*
X131423502Y-106244180D01*
X131459812Y-106124482D01*
X131472072Y-106000000D01*
X131472072Y-105000000D01*
X131459812Y-104875518D01*
X131423502Y-104755820D01*
X131364537Y-104645506D01*
X131285185Y-104548815D01*
X131225704Y-104500000D01*
X131285185Y-104451185D01*
X131364537Y-104354494D01*
X131415046Y-104260000D01*
X134631680Y-104260000D01*
X134669002Y-104263676D01*
X134706324Y-104260000D01*
X134706335Y-104260000D01*
X134817988Y-104249003D01*
X134961249Y-104205546D01*
X135093278Y-104134974D01*
X135209003Y-104040001D01*
X135232806Y-104010997D01*
X142963700Y-96280104D01*
X143003463Y-96354494D01*
%TA.AperFunction,Conductor*%
D32*
G36*
X143003463Y-96354494D02*
G01*
X143082815Y-96451185D01*
X143142296Y-96500000D01*
X143082815Y-96548815D01*
X143003463Y-96645506D01*
X142944498Y-96755820D01*
X142908188Y-96875518D01*
X142895928Y-97000000D01*
X142895928Y-97029269D01*
X134210199Y-105715000D01*
X134148061Y-105715000D01*
X133948102Y-105754774D01*
X133759744Y-105832795D01*
X133590226Y-105946063D01*
X133446063Y-106090226D01*
X133332795Y-106259744D01*
X133254774Y-106448102D01*
X133215000Y-106648061D01*
X133215000Y-106851939D01*
X133254774Y-107051898D01*
X133332795Y-107240256D01*
X133446063Y-107409774D01*
X133590226Y-107553937D01*
X133759744Y-107667205D01*
X133948102Y-107745226D01*
X134148061Y-107785000D01*
X134351939Y-107785000D01*
X134551898Y-107745226D01*
X134740256Y-107667205D01*
X134909774Y-107553937D01*
X135053937Y-107409774D01*
X135167205Y-107240256D01*
X135245226Y-107051898D01*
X135285000Y-106851939D01*
X135285000Y-106789801D01*
X138762846Y-103311956D01*
X138750998Y-103351014D01*
X138746561Y-103396063D01*
X138736324Y-103500000D01*
X138740001Y-103537332D01*
X138740000Y-107796289D01*
X138696063Y-107840226D01*
X138582795Y-108009744D01*
X138504774Y-108198102D01*
X138465000Y-108398061D01*
X138465000Y-108601939D01*
X138504774Y-108801898D01*
X138582795Y-108990256D01*
X138696063Y-109159774D01*
X138840226Y-109303937D01*
X139009744Y-109417205D01*
X139198102Y-109495226D01*
X139398061Y-109535000D01*
X139601939Y-109535000D01*
X139801898Y-109495226D01*
X139990256Y-109417205D01*
X140159774Y-109303937D01*
X140303937Y-109159774D01*
X140417205Y-108990256D01*
X140495226Y-108801898D01*
X140535000Y-108601939D01*
X140535000Y-108398061D01*
X140495226Y-108198102D01*
X140417205Y-108009744D01*
X140303937Y-107840226D01*
X140260000Y-107796289D01*
X140260000Y-106223711D01*
X140340226Y-106303937D01*
X140509744Y-106417205D01*
X140698102Y-106495226D01*
X140898061Y-106535000D01*
X141101939Y-106535000D01*
X141301898Y-106495226D01*
X141490256Y-106417205D01*
X141659774Y-106303937D01*
X141703711Y-106260000D01*
X142952954Y-106260000D01*
X143003463Y-106354494D01*
X143082815Y-106451185D01*
X143142296Y-106500000D01*
X143082815Y-106548815D01*
X143003463Y-106645506D01*
X142944498Y-106755820D01*
X142908188Y-106875518D01*
X142895928Y-107000000D01*
X142895928Y-108000000D01*
X142908188Y-108124482D01*
X142944498Y-108244180D01*
X143003463Y-108354494D01*
X143082815Y-108451185D01*
X143142296Y-108500000D01*
X143082815Y-108548815D01*
X143003463Y-108645506D01*
X142944498Y-108755820D01*
X142908188Y-108875518D01*
X142895928Y-109000000D01*
X142895928Y-110000000D01*
X142908188Y-110124482D01*
X142944498Y-110244180D01*
X143003463Y-110354494D01*
X143010444Y-110363000D01*
X131357556Y-110363000D01*
X131364537Y-110354494D01*
X131423502Y-110244180D01*
X131459812Y-110124482D01*
X131472072Y-110000000D01*
X131472072Y-109000000D01*
X131459812Y-108875518D01*
X131423502Y-108755820D01*
X131364537Y-108645506D01*
X131285185Y-108548815D01*
X131225704Y-108500000D01*
X131285185Y-108451185D01*
X131364537Y-108354494D01*
X131423502Y-108244180D01*
X131459812Y-108124482D01*
X131472072Y-108000000D01*
X131472072Y-107000000D01*
X131459812Y-106875518D01*
X131423502Y-106755820D01*
X131364537Y-106645506D01*
X131285185Y-106548815D01*
X131225704Y-106500000D01*
X131285185Y-106451185D01*
X131364537Y-106354494D01*
X131423502Y-106244180D01*
X131459812Y-106124482D01*
X131472072Y-106000000D01*
X131472072Y-105000000D01*
X131459812Y-104875518D01*
X131423502Y-104755820D01*
X131364537Y-104645506D01*
X131285185Y-104548815D01*
X131225704Y-104500000D01*
X131285185Y-104451185D01*
X131364537Y-104354494D01*
X131415046Y-104260000D01*
X134631680Y-104260000D01*
X134669002Y-104263676D01*
X134706324Y-104260000D01*
X134706335Y-104260000D01*
X134817988Y-104249003D01*
X134961249Y-104205546D01*
X135093278Y-104134974D01*
X135209003Y-104040001D01*
X135232806Y-104010997D01*
X142963700Y-96280104D01*
X143003463Y-96354494D01*
G37*
%TD.AperFunction*%
D31*
X134354201Y-102740000D02*
X131415046Y-102740000D01*
X131364537Y-102645506D01*
X131285185Y-102548815D01*
X131225704Y-102500000D01*
X131285185Y-102451185D01*
X131364537Y-102354494D01*
X131423502Y-102244180D01*
X131459812Y-102124482D01*
X131472072Y-102000000D01*
X131472072Y-101000000D01*
X131459812Y-100875518D01*
X131423502Y-100755820D01*
X131364537Y-100645506D01*
X131285185Y-100548815D01*
X131225704Y-100500000D01*
X131285185Y-100451185D01*
X131364537Y-100354494D01*
X131415046Y-100260000D01*
X136834201Y-100260000D01*
X134354201Y-102740000D01*
%TA.AperFunction,Conductor*%
D32*
G36*
X134354201Y-102740000D02*
G01*
X131415046Y-102740000D01*
X131364537Y-102645506D01*
X131285185Y-102548815D01*
X131225704Y-102500000D01*
X131285185Y-102451185D01*
X131364537Y-102354494D01*
X131423502Y-102244180D01*
X131459812Y-102124482D01*
X131472072Y-102000000D01*
X131472072Y-101000000D01*
X131459812Y-100875518D01*
X131423502Y-100755820D01*
X131364537Y-100645506D01*
X131285185Y-100548815D01*
X131225704Y-100500000D01*
X131285185Y-100451185D01*
X131364537Y-100354494D01*
X131415046Y-100260000D01*
X136834201Y-100260000D01*
X134354201Y-102740000D01*
G37*
%TD.AperFunction*%
D31*
X139232815Y-95351185D02*
X139329506Y-95430537D01*
X139439820Y-95489502D01*
X139559518Y-95525812D01*
X139684000Y-95538072D01*
X139971627Y-95538072D01*
X136769700Y-98740000D01*
X131415046Y-98740000D01*
X131364537Y-98645506D01*
X131285185Y-98548815D01*
X131225704Y-98500000D01*
X131285185Y-98451185D01*
X131364537Y-98354494D01*
X131415046Y-98260000D01*
X131796281Y-98260000D01*
X131840226Y-98303945D01*
X132009744Y-98417213D01*
X132198102Y-98495234D01*
X132398061Y-98535008D01*
X132601939Y-98535008D01*
X132801898Y-98495234D01*
X132990256Y-98417213D01*
X133159774Y-98303945D01*
X133303937Y-98159782D01*
X133417205Y-97990264D01*
X133495226Y-97801906D01*
X133535000Y-97601947D01*
X133535000Y-97398069D01*
X133495226Y-97198110D01*
X133417205Y-97009752D01*
X133303937Y-96840234D01*
X133159774Y-96696071D01*
X132990256Y-96582803D01*
X132801898Y-96504782D01*
X132601939Y-96465008D01*
X132398061Y-96465008D01*
X132198102Y-96504782D01*
X132009744Y-96582803D01*
X131840226Y-96696071D01*
X131796297Y-96740000D01*
X131748244Y-96740000D01*
X131793975Y-96684277D01*
X131864547Y-96552248D01*
X131908004Y-96408987D01*
X131919001Y-96297334D01*
X131919001Y-96297324D01*
X131922677Y-96260001D01*
X131919001Y-96222678D01*
X131919001Y-95538072D01*
X132684000Y-95538072D01*
X132808482Y-95525812D01*
X132928180Y-95489502D01*
X133038494Y-95430537D01*
X133135185Y-95351185D01*
X133184000Y-95291704D01*
X133232815Y-95351185D01*
X133329506Y-95430537D01*
X133439820Y-95489502D01*
X133559518Y-95525812D01*
X133684000Y-95538072D01*
X134684000Y-95538072D01*
X134808482Y-95525812D01*
X134928180Y-95489502D01*
X135038494Y-95430537D01*
X135135185Y-95351185D01*
X135184000Y-95291704D01*
X135232815Y-95351185D01*
X135329506Y-95430537D01*
X135439820Y-95489502D01*
X135559518Y-95525812D01*
X135684000Y-95538072D01*
X136684000Y-95538072D01*
X136808482Y-95525812D01*
X136928180Y-95489502D01*
X137038494Y-95430537D01*
X137135185Y-95351185D01*
X137184000Y-95291704D01*
X137232815Y-95351185D01*
X137329506Y-95430537D01*
X137439820Y-95489502D01*
X137559518Y-95525812D01*
X137684000Y-95538072D01*
X138684000Y-95538072D01*
X138808482Y-95525812D01*
X138928180Y-95489502D01*
X139038494Y-95430537D01*
X139135185Y-95351185D01*
X139184000Y-95291704D01*
X139232815Y-95351185D01*
%TA.AperFunction,Conductor*%
D32*
G36*
X139232815Y-95351185D02*
G01*
X139329506Y-95430537D01*
X139439820Y-95489502D01*
X139559518Y-95525812D01*
X139684000Y-95538072D01*
X139971627Y-95538072D01*
X136769700Y-98740000D01*
X131415046Y-98740000D01*
X131364537Y-98645506D01*
X131285185Y-98548815D01*
X131225704Y-98500000D01*
X131285185Y-98451185D01*
X131364537Y-98354494D01*
X131415046Y-98260000D01*
X131796281Y-98260000D01*
X131840226Y-98303945D01*
X132009744Y-98417213D01*
X132198102Y-98495234D01*
X132398061Y-98535008D01*
X132601939Y-98535008D01*
X132801898Y-98495234D01*
X132990256Y-98417213D01*
X133159774Y-98303945D01*
X133303937Y-98159782D01*
X133417205Y-97990264D01*
X133495226Y-97801906D01*
X133535000Y-97601947D01*
X133535000Y-97398069D01*
X133495226Y-97198110D01*
X133417205Y-97009752D01*
X133303937Y-96840234D01*
X133159774Y-96696071D01*
X132990256Y-96582803D01*
X132801898Y-96504782D01*
X132601939Y-96465008D01*
X132398061Y-96465008D01*
X132198102Y-96504782D01*
X132009744Y-96582803D01*
X131840226Y-96696071D01*
X131796297Y-96740000D01*
X131748244Y-96740000D01*
X131793975Y-96684277D01*
X131864547Y-96552248D01*
X131908004Y-96408987D01*
X131919001Y-96297334D01*
X131919001Y-96297324D01*
X131922677Y-96260001D01*
X131919001Y-96222678D01*
X131919001Y-95538072D01*
X132684000Y-95538072D01*
X132808482Y-95525812D01*
X132928180Y-95489502D01*
X133038494Y-95430537D01*
X133135185Y-95351185D01*
X133184000Y-95291704D01*
X133232815Y-95351185D01*
X133329506Y-95430537D01*
X133439820Y-95489502D01*
X133559518Y-95525812D01*
X133684000Y-95538072D01*
X134684000Y-95538072D01*
X134808482Y-95525812D01*
X134928180Y-95489502D01*
X135038494Y-95430537D01*
X135135185Y-95351185D01*
X135184000Y-95291704D01*
X135232815Y-95351185D01*
X135329506Y-95430537D01*
X135439820Y-95489502D01*
X135559518Y-95525812D01*
X135684000Y-95538072D01*
X136684000Y-95538072D01*
X136808482Y-95525812D01*
X136928180Y-95489502D01*
X137038494Y-95430537D01*
X137135185Y-95351185D01*
X137184000Y-95291704D01*
X137232815Y-95351185D01*
X137329506Y-95430537D01*
X137439820Y-95489502D01*
X137559518Y-95525812D01*
X137684000Y-95538072D01*
X138684000Y-95538072D01*
X138808482Y-95525812D01*
X138928180Y-95489502D01*
X139038494Y-95430537D01*
X139135185Y-95351185D01*
X139184000Y-95291704D01*
X139232815Y-95351185D01*
G37*
%TD.AperFunction*%
D31*
X142629520Y-85317926D02*
X142799038Y-85431194D01*
X142987396Y-85509215D01*
X142988722Y-85509479D01*
X140738998Y-87759203D01*
X140710000Y-87783001D01*
X140686202Y-87811999D01*
X140686201Y-87812000D01*
X140615026Y-87898726D01*
X140544454Y-88030756D01*
X140519113Y-88114298D01*
X140500998Y-88174016D01*
X140493178Y-88253411D01*
X140486324Y-88323002D01*
X140490001Y-88360334D01*
X140490000Y-92461928D01*
X139684000Y-92461928D01*
X139559518Y-92474188D01*
X139439820Y-92510498D01*
X139329506Y-92569463D01*
X139232815Y-92648815D01*
X139184000Y-92708296D01*
X139135185Y-92648815D01*
X139038494Y-92569463D01*
X138928180Y-92510498D01*
X138808482Y-92474188D01*
X138684000Y-92461928D01*
X137684000Y-92461928D01*
X137559518Y-92474188D01*
X137439820Y-92510498D01*
X137329506Y-92569463D01*
X137232815Y-92648815D01*
X137184000Y-92708296D01*
X137135185Y-92648815D01*
X137038494Y-92569463D01*
X136928180Y-92510498D01*
X136808482Y-92474188D01*
X136684000Y-92461928D01*
X135684000Y-92461928D01*
X135559518Y-92474188D01*
X135439820Y-92510498D01*
X135329506Y-92569463D01*
X135232815Y-92648815D01*
X135184000Y-92708296D01*
X135135185Y-92648815D01*
X135038494Y-92569463D01*
X134928180Y-92510498D01*
X134808482Y-92474188D01*
X134684000Y-92461928D01*
X133684000Y-92461928D01*
X133559518Y-92474188D01*
X133439820Y-92510498D01*
X133329506Y-92569463D01*
X133232815Y-92648815D01*
X133184000Y-92708296D01*
X133135185Y-92648815D01*
X133038494Y-92569463D01*
X132928180Y-92510498D01*
X132840807Y-92483994D01*
X140064802Y-85260000D01*
X142571594Y-85260000D01*
X142629520Y-85317926D01*
%TA.AperFunction,Conductor*%
D32*
G36*
X142629520Y-85317926D02*
G01*
X142799038Y-85431194D01*
X142987396Y-85509215D01*
X142988722Y-85509479D01*
X140738998Y-87759203D01*
X140710000Y-87783001D01*
X140686202Y-87811999D01*
X140686201Y-87812000D01*
X140615026Y-87898726D01*
X140544454Y-88030756D01*
X140519113Y-88114298D01*
X140500998Y-88174016D01*
X140493178Y-88253411D01*
X140486324Y-88323002D01*
X140490001Y-88360334D01*
X140490000Y-92461928D01*
X139684000Y-92461928D01*
X139559518Y-92474188D01*
X139439820Y-92510498D01*
X139329506Y-92569463D01*
X139232815Y-92648815D01*
X139184000Y-92708296D01*
X139135185Y-92648815D01*
X139038494Y-92569463D01*
X138928180Y-92510498D01*
X138808482Y-92474188D01*
X138684000Y-92461928D01*
X137684000Y-92461928D01*
X137559518Y-92474188D01*
X137439820Y-92510498D01*
X137329506Y-92569463D01*
X137232815Y-92648815D01*
X137184000Y-92708296D01*
X137135185Y-92648815D01*
X137038494Y-92569463D01*
X136928180Y-92510498D01*
X136808482Y-92474188D01*
X136684000Y-92461928D01*
X135684000Y-92461928D01*
X135559518Y-92474188D01*
X135439820Y-92510498D01*
X135329506Y-92569463D01*
X135232815Y-92648815D01*
X135184000Y-92708296D01*
X135135185Y-92648815D01*
X135038494Y-92569463D01*
X134928180Y-92510498D01*
X134808482Y-92474188D01*
X134684000Y-92461928D01*
X133684000Y-92461928D01*
X133559518Y-92474188D01*
X133439820Y-92510498D01*
X133329506Y-92569463D01*
X133232815Y-92648815D01*
X133184000Y-92708296D01*
X133135185Y-92648815D01*
X133038494Y-92569463D01*
X132928180Y-92510498D01*
X132840807Y-92483994D01*
X140064802Y-85260000D01*
X142571594Y-85260000D01*
X142629520Y-85317926D01*
G37*
%TD.AperFunction*%
D31*
X142240001Y-92461928D02*
X142010000Y-92461928D01*
X142010000Y-88637803D01*
X142240000Y-88407803D01*
X142240001Y-92461928D01*
%TA.AperFunction,Conductor*%
D32*
G36*
X142240001Y-92461928D02*
G01*
X142010000Y-92461928D01*
X142010000Y-88637803D01*
X142240000Y-88407803D01*
X142240001Y-92461928D01*
G37*
%TD.AperFunction*%
%TD*%
D31*
%TO.N,Net-(C201-Pad1)*%
X104073000Y-88779083D02*
X104073000Y-103723259D01*
X101800000Y-103723259D01*
X101775224Y-103725699D01*
X101751399Y-103732926D01*
X101729443Y-103744662D01*
X101710197Y-103760456D01*
X101694403Y-103779702D01*
X101682667Y-103801658D01*
X101675440Y-103825483D01*
X101673000Y-103850259D01*
X101673000Y-104423259D01*
X100927000Y-104423259D01*
X100927000Y-88777330D01*
X104073000Y-88779083D01*
%TA.AperFunction,Conductor*%
D32*
G36*
X104073000Y-88779083D02*
G01*
X104073000Y-103723259D01*
X101800000Y-103723259D01*
X101775224Y-103725699D01*
X101751399Y-103732926D01*
X101729443Y-103744662D01*
X101710197Y-103760456D01*
X101694403Y-103779702D01*
X101682667Y-103801658D01*
X101675440Y-103825483D01*
X101673000Y-103850259D01*
X101673000Y-104423259D01*
X100927000Y-104423259D01*
X100927000Y-88777330D01*
X104073000Y-88779083D01*
G37*
%TD.AperFunction*%
%TD*%
D31*
%TO.N,+VDC*%
X110423000Y-86673000D02*
X104300000Y-86673000D01*
X104275224Y-86675440D01*
X104251399Y-86682667D01*
X104229443Y-86694403D01*
X104210197Y-86710197D01*
X104194403Y-86729443D01*
X104182667Y-86751399D01*
X104175440Y-86775224D01*
X104173000Y-86800000D01*
X104173000Y-88023000D01*
X101027000Y-88023000D01*
X101027000Y-85000000D01*
X105820934Y-85000000D01*
X105829178Y-85083707D01*
X105853595Y-85164196D01*
X105893245Y-85238376D01*
X105946605Y-85303395D01*
X106011624Y-85356755D01*
X106085804Y-85396405D01*
X106166293Y-85420822D01*
X106250000Y-85429066D01*
X107766250Y-85427000D01*
X107873000Y-85320250D01*
X107873000Y-83377000D01*
X108127000Y-83377000D01*
X108127000Y-85320250D01*
X108233750Y-85427000D01*
X109750000Y-85429066D01*
X109833707Y-85420822D01*
X109914196Y-85396405D01*
X109988376Y-85356755D01*
X110053395Y-85303395D01*
X110106755Y-85238376D01*
X110146405Y-85164196D01*
X110170822Y-85083707D01*
X110179066Y-85000000D01*
X110177000Y-83483750D01*
X110070250Y-83377000D01*
X108127000Y-83377000D01*
X107873000Y-83377000D01*
X105929750Y-83377000D01*
X105823000Y-83483750D01*
X105820934Y-85000000D01*
X101027000Y-85000000D01*
X101027000Y-84127000D01*
X105600000Y-84127000D01*
X105624776Y-84124560D01*
X105648601Y-84117333D01*
X105670557Y-84105597D01*
X105689803Y-84089803D01*
X105705597Y-84070557D01*
X105717333Y-84048601D01*
X105724560Y-84024776D01*
X105727000Y-84000000D01*
X105727000Y-81500000D01*
X105820934Y-81500000D01*
X105823000Y-83016250D01*
X105929750Y-83123000D01*
X107873000Y-83123000D01*
X107873000Y-81179750D01*
X108127000Y-81179750D01*
X108127000Y-83123000D01*
X110070250Y-83123000D01*
X110177000Y-83016250D01*
X110179066Y-81500000D01*
X110170822Y-81416293D01*
X110146405Y-81335804D01*
X110106755Y-81261624D01*
X110053395Y-81196605D01*
X109988376Y-81143245D01*
X109914196Y-81103595D01*
X109833707Y-81079178D01*
X109750000Y-81070934D01*
X108233750Y-81073000D01*
X108127000Y-81179750D01*
X107873000Y-81179750D01*
X107766250Y-81073000D01*
X106250000Y-81070934D01*
X106166293Y-81079178D01*
X106085804Y-81103595D01*
X106011624Y-81143245D01*
X105946605Y-81196605D01*
X105893245Y-81261624D01*
X105853595Y-81335804D01*
X105829178Y-81416293D01*
X105820934Y-81500000D01*
X105727000Y-81500000D01*
X105727000Y-80927000D01*
X110423000Y-80927000D01*
X110423000Y-86673000D01*
%TA.AperFunction,Conductor*%
D32*
G36*
X110423000Y-86673000D02*
G01*
X104300000Y-86673000D01*
X104275224Y-86675440D01*
X104251399Y-86682667D01*
X104229443Y-86694403D01*
X104210197Y-86710197D01*
X104194403Y-86729443D01*
X104182667Y-86751399D01*
X104175440Y-86775224D01*
X104173000Y-86800000D01*
X104173000Y-88023000D01*
X101027000Y-88023000D01*
X101027000Y-85000000D01*
X105820934Y-85000000D01*
X105829178Y-85083707D01*
X105853595Y-85164196D01*
X105893245Y-85238376D01*
X105946605Y-85303395D01*
X106011624Y-85356755D01*
X106085804Y-85396405D01*
X106166293Y-85420822D01*
X106250000Y-85429066D01*
X107766250Y-85427000D01*
X107873000Y-85320250D01*
X107873000Y-83377000D01*
X108127000Y-83377000D01*
X108127000Y-85320250D01*
X108233750Y-85427000D01*
X109750000Y-85429066D01*
X109833707Y-85420822D01*
X109914196Y-85396405D01*
X109988376Y-85356755D01*
X110053395Y-85303395D01*
X110106755Y-85238376D01*
X110146405Y-85164196D01*
X110170822Y-85083707D01*
X110179066Y-85000000D01*
X110177000Y-83483750D01*
X110070250Y-83377000D01*
X108127000Y-83377000D01*
X107873000Y-83377000D01*
X105929750Y-83377000D01*
X105823000Y-83483750D01*
X105820934Y-85000000D01*
X101027000Y-85000000D01*
X101027000Y-84127000D01*
X105600000Y-84127000D01*
X105624776Y-84124560D01*
X105648601Y-84117333D01*
X105670557Y-84105597D01*
X105689803Y-84089803D01*
X105705597Y-84070557D01*
X105717333Y-84048601D01*
X105724560Y-84024776D01*
X105727000Y-84000000D01*
X105727000Y-81500000D01*
X105820934Y-81500000D01*
X105823000Y-83016250D01*
X105929750Y-83123000D01*
X107873000Y-83123000D01*
X107873000Y-81179750D01*
X108127000Y-81179750D01*
X108127000Y-83123000D01*
X110070250Y-83123000D01*
X110177000Y-83016250D01*
X110179066Y-81500000D01*
X110170822Y-81416293D01*
X110146405Y-81335804D01*
X110106755Y-81261624D01*
X110053395Y-81196605D01*
X109988376Y-81143245D01*
X109914196Y-81103595D01*
X109833707Y-81079178D01*
X109750000Y-81070934D01*
X108233750Y-81073000D01*
X108127000Y-81179750D01*
X107873000Y-81179750D01*
X107766250Y-81073000D01*
X106250000Y-81070934D01*
X106166293Y-81079178D01*
X106085804Y-81103595D01*
X106011624Y-81143245D01*
X105946605Y-81196605D01*
X105893245Y-81261624D01*
X105853595Y-81335804D01*
X105829178Y-81416293D01*
X105820934Y-81500000D01*
X105727000Y-81500000D01*
X105727000Y-80927000D01*
X110423000Y-80927000D01*
X110423000Y-86673000D01*
G37*
%TD.AperFunction*%
%TD*%
D31*
%TO.N,Net-(C204-Pad1)*%
X108113000Y-100724332D02*
X105290000Y-100724332D01*
X105265224Y-100726772D01*
X105241399Y-100733999D01*
X105219443Y-100745735D01*
X105200197Y-100761529D01*
X105184403Y-100780775D01*
X105172667Y-100802731D01*
X105165440Y-100826556D01*
X105163000Y-100851332D01*
X105163000Y-104532021D01*
X104617000Y-104566146D01*
X104617000Y-89426650D01*
X108113000Y-89380037D01*
X108113000Y-100724332D01*
%TA.AperFunction,Conductor*%
D32*
G36*
X108113000Y-100724332D02*
G01*
X105290000Y-100724332D01*
X105265224Y-100726772D01*
X105241399Y-100733999D01*
X105219443Y-100745735D01*
X105200197Y-100761529D01*
X105184403Y-100780775D01*
X105172667Y-100802731D01*
X105165440Y-100826556D01*
X105163000Y-100851332D01*
X105163000Y-104532021D01*
X104617000Y-104566146D01*
X104617000Y-89426650D01*
X108113000Y-89380037D01*
X108113000Y-100724332D01*
G37*
%TD.AperFunction*%
%TD*%
M02*
