G04 #@! TF.GenerationSoftware,KiCad,Pcbnew,5.1.9-73d0e3b20d~88~ubuntu18.04.1*
G04 #@! TF.CreationDate,2021-03-27T22:42:29+02:00*
G04 #@! TF.ProjectId,Electra,456c6563-7472-4612-9e6b-696361645f70,1*
G04 #@! TF.SameCoordinates,Original*
G04 #@! TF.FileFunction,Legend,Top*
G04 #@! TF.FilePolarity,Positive*
%FSLAX46Y46*%
G04 Gerber Fmt 4.6, Leading zero omitted, Abs format (unit mm)*
G04 Created by KiCad (PCBNEW 5.1.9-73d0e3b20d~88~ubuntu18.04.1) date 2021-03-27 22:42:29*
%MOMM*%
%LPD*%
G01*
G04 APERTURE LIST*
%ADD10C,0.150000*%
%ADD11C,0.120000*%
%ADD12C,0.250000*%
%ADD13C,0.300000*%
%ADD14C,0.010000*%
G04 APERTURE END LIST*
D10*
X100271428Y-82330952D02*
X100271428Y-81569047D01*
X99919047Y-78196428D02*
X100680952Y-78196428D01*
X100300000Y-78577380D02*
X100300000Y-77815476D01*
D11*
X100330902Y-79925000D02*
G75*
G03*
X100330902Y-79925000I-55902J0D01*
G01*
X100402475Y-79925000D02*
G75*
G03*
X100402475Y-79925000I-127475J0D01*
G01*
X100512171Y-79925000D02*
G75*
G03*
X100512171Y-79925000I-237171J0D01*
G01*
X100275000Y-79675000D02*
X100275000Y-78850000D01*
X100674999Y-79475001D02*
G75*
G02*
X99875001Y-79475001I-399999J-474999D01*
G01*
X100275000Y-81325000D02*
X100275000Y-80600000D01*
X100912883Y-78187882D02*
G75*
G03*
X100912883Y-78187882I-612883J0D01*
G01*
X100887883Y-81937882D02*
G75*
G03*
X100887883Y-81937882I-612883J0D01*
G01*
D10*
X112182142Y-101632142D02*
X111667857Y-101632142D01*
X111925000Y-101632142D02*
X111925000Y-100732142D01*
X111839285Y-100860714D01*
X111753571Y-100946428D01*
X111667857Y-100989285D01*
X112739285Y-100732142D02*
X112825000Y-100732142D01*
X112910714Y-100775000D01*
X112953571Y-100817857D01*
X112996428Y-100903571D01*
X113039285Y-101075000D01*
X113039285Y-101289285D01*
X112996428Y-101460714D01*
X112953571Y-101546428D01*
X112910714Y-101589285D01*
X112825000Y-101632142D01*
X112739285Y-101632142D01*
X112653571Y-101589285D01*
X112610714Y-101546428D01*
X112567857Y-101460714D01*
X112525000Y-101289285D01*
X112525000Y-101075000D01*
X112567857Y-100903571D01*
X112610714Y-100817857D01*
X112653571Y-100775000D01*
X112739285Y-100732142D01*
X113339285Y-101632142D02*
X113810714Y-101032142D01*
X113339285Y-101032142D02*
X113810714Y-101632142D01*
X114625000Y-101632142D02*
X114110714Y-101632142D01*
X114367857Y-101632142D02*
X114367857Y-100732142D01*
X114282142Y-100860714D01*
X114196428Y-100946428D01*
X114110714Y-100989285D01*
X115182142Y-100732142D02*
X115267857Y-100732142D01*
X115353571Y-100775000D01*
X115396428Y-100817857D01*
X115439285Y-100903571D01*
X115482142Y-101075000D01*
X115482142Y-101289285D01*
X115439285Y-101460714D01*
X115396428Y-101546428D01*
X115353571Y-101589285D01*
X115267857Y-101632142D01*
X115182142Y-101632142D01*
X115096428Y-101589285D01*
X115053571Y-101546428D01*
X115010714Y-101460714D01*
X114967857Y-101289285D01*
X114967857Y-101075000D01*
X115010714Y-100903571D01*
X115053571Y-100817857D01*
X115096428Y-100775000D01*
X115182142Y-100732142D01*
X178114285Y-79977380D02*
X178114285Y-78977380D01*
X178685714Y-79977380D01*
X178685714Y-78977380D01*
X179733333Y-79882142D02*
X179685714Y-79929761D01*
X179542857Y-79977380D01*
X179447619Y-79977380D01*
X179304761Y-79929761D01*
X179209523Y-79834523D01*
X179161904Y-79739285D01*
X179114285Y-79548809D01*
X179114285Y-79405952D01*
X179161904Y-79215476D01*
X179209523Y-79120238D01*
X179304761Y-79025000D01*
X179447619Y-78977380D01*
X179542857Y-78977380D01*
X179685714Y-79025000D01*
X179733333Y-79072619D01*
X160239285Y-80077380D02*
X160239285Y-79077380D01*
X160810714Y-80077380D01*
X160810714Y-79077380D01*
X161858333Y-79982142D02*
X161810714Y-80029761D01*
X161667857Y-80077380D01*
X161572619Y-80077380D01*
X161429761Y-80029761D01*
X161334523Y-79934523D01*
X161286904Y-79839285D01*
X161239285Y-79648809D01*
X161239285Y-79505952D01*
X161286904Y-79315476D01*
X161334523Y-79220238D01*
X161429761Y-79125000D01*
X161572619Y-79077380D01*
X161667857Y-79077380D01*
X161810714Y-79125000D01*
X161858333Y-79172619D01*
X192065476Y-79927380D02*
X192065476Y-78927380D01*
X192636904Y-79927380D01*
X192636904Y-78927380D01*
X193303571Y-78927380D02*
X193494047Y-78927380D01*
X193589285Y-78975000D01*
X193684523Y-79070238D01*
X193732142Y-79260714D01*
X193732142Y-79594047D01*
X193684523Y-79784523D01*
X193589285Y-79879761D01*
X193494047Y-79927380D01*
X193303571Y-79927380D01*
X193208333Y-79879761D01*
X193113095Y-79784523D01*
X193065476Y-79594047D01*
X193065476Y-79260714D01*
X193113095Y-79070238D01*
X193208333Y-78975000D01*
X193303571Y-78927380D01*
X174065476Y-80077380D02*
X174065476Y-79077380D01*
X174636904Y-80077380D01*
X174636904Y-79077380D01*
X175303571Y-79077380D02*
X175494047Y-79077380D01*
X175589285Y-79125000D01*
X175684523Y-79220238D01*
X175732142Y-79410714D01*
X175732142Y-79744047D01*
X175684523Y-79934523D01*
X175589285Y-80029761D01*
X175494047Y-80077380D01*
X175303571Y-80077380D01*
X175208333Y-80029761D01*
X175113095Y-79934523D01*
X175065476Y-79744047D01*
X175065476Y-79410714D01*
X175113095Y-79220238D01*
X175208333Y-79125000D01*
X175303571Y-79077380D01*
X98892857Y-104857142D02*
X98592857Y-104428571D01*
X98378571Y-104857142D02*
X98378571Y-103957142D01*
X98721428Y-103957142D01*
X98807142Y-104000000D01*
X98850000Y-104042857D01*
X98892857Y-104128571D01*
X98892857Y-104257142D01*
X98850000Y-104342857D01*
X98807142Y-104385714D01*
X98721428Y-104428571D01*
X98378571Y-104428571D01*
X99235714Y-104042857D02*
X99278571Y-104000000D01*
X99364285Y-103957142D01*
X99578571Y-103957142D01*
X99664285Y-104000000D01*
X99707142Y-104042857D01*
X99750000Y-104128571D01*
X99750000Y-104214285D01*
X99707142Y-104342857D01*
X99192857Y-104857142D01*
X99750000Y-104857142D01*
X100307142Y-103957142D02*
X100392857Y-103957142D01*
X100478571Y-104000000D01*
X100521428Y-104042857D01*
X100564285Y-104128571D01*
X100607142Y-104300000D01*
X100607142Y-104514285D01*
X100564285Y-104685714D01*
X100521428Y-104771428D01*
X100478571Y-104814285D01*
X100392857Y-104857142D01*
X100307142Y-104857142D01*
X100221428Y-104814285D01*
X100178571Y-104771428D01*
X100135714Y-104685714D01*
X100092857Y-104514285D01*
X100092857Y-104300000D01*
X100135714Y-104128571D01*
X100178571Y-104042857D01*
X100221428Y-104000000D01*
X100307142Y-103957142D01*
X100907142Y-103957142D02*
X101507142Y-104857142D01*
X101507142Y-103957142D02*
X100907142Y-104857142D01*
D12*
X113752380Y-111990476D02*
X113752380Y-112561904D01*
X113752380Y-112276190D02*
X112752380Y-112276190D01*
X112895238Y-112371428D01*
X112990476Y-112466666D01*
X113038095Y-112561904D01*
X112752380Y-111371428D02*
X112752380Y-111276190D01*
X112800000Y-111180952D01*
X112847619Y-111133333D01*
X112942857Y-111085714D01*
X113133333Y-111038095D01*
X113371428Y-111038095D01*
X113561904Y-111085714D01*
X113657142Y-111133333D01*
X113704761Y-111180952D01*
X113752380Y-111276190D01*
X113752380Y-111371428D01*
X113704761Y-111466666D01*
X113657142Y-111514285D01*
X113561904Y-111561904D01*
X113371428Y-111609523D01*
X113133333Y-111609523D01*
X112942857Y-111561904D01*
X112847619Y-111514285D01*
X112800000Y-111466666D01*
X112752380Y-111371428D01*
X113752380Y-110609523D02*
X112752380Y-110609523D01*
X113752380Y-110038095D02*
X113180952Y-110466666D01*
X112752380Y-110038095D02*
X113323809Y-110609523D01*
D13*
X196160714Y-99100000D02*
X196232142Y-99171428D01*
X196303571Y-99385714D01*
X196303571Y-99528571D01*
X196232142Y-99742857D01*
X196089285Y-99885714D01*
X195946428Y-99957142D01*
X195660714Y-100028571D01*
X195446428Y-100028571D01*
X195160714Y-99957142D01*
X195017857Y-99885714D01*
X194875000Y-99742857D01*
X194803571Y-99528571D01*
X194803571Y-99385714D01*
X194875000Y-99171428D01*
X194946428Y-99100000D01*
X195875000Y-98528571D02*
X195875000Y-97814285D01*
X196303571Y-98671428D02*
X194803571Y-98171428D01*
X196303571Y-97671428D01*
X194803571Y-97171428D02*
X196017857Y-97171428D01*
X196160714Y-97100000D01*
X196232142Y-97028571D01*
X196303571Y-96885714D01*
X196303571Y-96600000D01*
X196232142Y-96457142D01*
X196160714Y-96385714D01*
X196017857Y-96314285D01*
X194803571Y-96314285D01*
X194803571Y-95814285D02*
X194803571Y-94957142D01*
X196303571Y-95385714D02*
X194803571Y-95385714D01*
X196303571Y-94457142D02*
X194803571Y-94457142D01*
X194803571Y-93457142D02*
X194803571Y-93171428D01*
X194875000Y-93028571D01*
X195017857Y-92885714D01*
X195303571Y-92814285D01*
X195803571Y-92814285D01*
X196089285Y-92885714D01*
X196232142Y-93028571D01*
X196303571Y-93171428D01*
X196303571Y-93457142D01*
X196232142Y-93600000D01*
X196089285Y-93742857D01*
X195803571Y-93814285D01*
X195303571Y-93814285D01*
X195017857Y-93742857D01*
X194875000Y-93600000D01*
X194803571Y-93457142D01*
X196303571Y-92171428D02*
X194803571Y-92171428D01*
X196303571Y-91314285D01*
X194803571Y-91314285D01*
X196160714Y-90600000D02*
X196232142Y-90528571D01*
X196303571Y-90600000D01*
X196232142Y-90671428D01*
X196160714Y-90600000D01*
X196303571Y-90600000D01*
X195732142Y-90600000D02*
X194875000Y-90671428D01*
X194803571Y-90600000D01*
X194875000Y-90528571D01*
X195732142Y-90600000D01*
X194803571Y-90600000D01*
X195875000Y-88814285D02*
X195875000Y-88100000D01*
X196303571Y-88957142D02*
X194803571Y-88457142D01*
X196303571Y-87957142D01*
X196160714Y-86600000D02*
X196232142Y-86671428D01*
X196303571Y-86885714D01*
X196303571Y-87028571D01*
X196232142Y-87242857D01*
X196089285Y-87385714D01*
X195946428Y-87457142D01*
X195660714Y-87528571D01*
X195446428Y-87528571D01*
X195160714Y-87457142D01*
X195017857Y-87385714D01*
X194875000Y-87242857D01*
X194803571Y-87028571D01*
X194803571Y-86885714D01*
X194875000Y-86671428D01*
X194946428Y-86600000D01*
X194803571Y-85028571D02*
X196303571Y-84528571D01*
X194803571Y-84028571D01*
X196303571Y-83314285D02*
X196232142Y-83457142D01*
X196160714Y-83528571D01*
X196017857Y-83600000D01*
X195589285Y-83600000D01*
X195446428Y-83528571D01*
X195375000Y-83457142D01*
X195303571Y-83314285D01*
X195303571Y-83100000D01*
X195375000Y-82957142D01*
X195446428Y-82885714D01*
X195589285Y-82814285D01*
X196017857Y-82814285D01*
X196160714Y-82885714D01*
X196232142Y-82957142D01*
X196303571Y-83100000D01*
X196303571Y-83314285D01*
X196303571Y-81957142D02*
X196232142Y-82100000D01*
X196089285Y-82171428D01*
X194803571Y-82171428D01*
X195303571Y-81600000D02*
X195303571Y-81028571D01*
X194803571Y-81385714D02*
X196089285Y-81385714D01*
X196232142Y-81314285D01*
X196303571Y-81171428D01*
X196303571Y-81028571D01*
X196303571Y-79885714D02*
X195517857Y-79885714D01*
X195375000Y-79957142D01*
X195303571Y-80100000D01*
X195303571Y-80385714D01*
X195375000Y-80528571D01*
X196232142Y-79885714D02*
X196303571Y-80028571D01*
X196303571Y-80385714D01*
X196232142Y-80528571D01*
X196089285Y-80600000D01*
X195946428Y-80600000D01*
X195803571Y-80528571D01*
X195732142Y-80385714D01*
X195732142Y-80028571D01*
X195660714Y-79885714D01*
X195303571Y-78528571D02*
X196517857Y-78528571D01*
X196660714Y-78600000D01*
X196732142Y-78671428D01*
X196803571Y-78814285D01*
X196803571Y-79028571D01*
X196732142Y-79171428D01*
X196232142Y-78528571D02*
X196303571Y-78671428D01*
X196303571Y-78957142D01*
X196232142Y-79100000D01*
X196160714Y-79171428D01*
X196017857Y-79242857D01*
X195589285Y-79242857D01*
X195446428Y-79171428D01*
X195375000Y-79100000D01*
X195303571Y-78957142D01*
X195303571Y-78671428D01*
X195375000Y-78528571D01*
X196232142Y-77242857D02*
X196303571Y-77385714D01*
X196303571Y-77671428D01*
X196232142Y-77814285D01*
X196089285Y-77885714D01*
X195517857Y-77885714D01*
X195375000Y-77814285D01*
X195303571Y-77671428D01*
X195303571Y-77385714D01*
X195375000Y-77242857D01*
X195517857Y-77171428D01*
X195660714Y-77171428D01*
X195803571Y-77885714D01*
D10*
X110127380Y-82120238D02*
X111127380Y-81786904D01*
X110127380Y-81453571D01*
X111127380Y-81120238D02*
X110127380Y-81120238D01*
X111127380Y-80644047D02*
X110127380Y-80644047D01*
X111127380Y-80072619D01*
X110127380Y-80072619D01*
X110175000Y-76086904D02*
X110127380Y-76182142D01*
X110127380Y-76325000D01*
X110175000Y-76467857D01*
X110270238Y-76563095D01*
X110365476Y-76610714D01*
X110555952Y-76658333D01*
X110698809Y-76658333D01*
X110889285Y-76610714D01*
X110984523Y-76563095D01*
X111079761Y-76467857D01*
X111127380Y-76325000D01*
X111127380Y-76229761D01*
X111079761Y-76086904D01*
X111032142Y-76039285D01*
X110698809Y-76039285D01*
X110698809Y-76229761D01*
X111127380Y-75610714D02*
X110127380Y-75610714D01*
X111127380Y-75039285D01*
X110127380Y-75039285D01*
X111127380Y-74563095D02*
X110127380Y-74563095D01*
X110127380Y-74325000D01*
X110175000Y-74182142D01*
X110270238Y-74086904D01*
X110365476Y-74039285D01*
X110555952Y-73991666D01*
X110698809Y-73991666D01*
X110889285Y-74039285D01*
X110984523Y-74086904D01*
X111079761Y-74182142D01*
X111127380Y-74325000D01*
X111127380Y-74563095D01*
X149507142Y-90807142D02*
X148607142Y-90807142D01*
X148607142Y-90592857D01*
X148650000Y-90464285D01*
X148735714Y-90378571D01*
X148821428Y-90335714D01*
X148992857Y-90292857D01*
X149121428Y-90292857D01*
X149292857Y-90335714D01*
X149378571Y-90378571D01*
X149464285Y-90464285D01*
X149507142Y-90592857D01*
X149507142Y-90807142D01*
X149507142Y-89521428D02*
X149035714Y-89521428D01*
X148950000Y-89564285D01*
X148907142Y-89650000D01*
X148907142Y-89821428D01*
X148950000Y-89907142D01*
X149464285Y-89521428D02*
X149507142Y-89607142D01*
X149507142Y-89821428D01*
X149464285Y-89907142D01*
X149378571Y-89950000D01*
X149292857Y-89950000D01*
X149207142Y-89907142D01*
X149164285Y-89821428D01*
X149164285Y-89607142D01*
X149121428Y-89521428D01*
X148907142Y-89221428D02*
X148907142Y-88878571D01*
X148607142Y-89092857D02*
X149378571Y-89092857D01*
X149464285Y-89050000D01*
X149507142Y-88964285D01*
X149507142Y-88878571D01*
X149507142Y-88192857D02*
X149035714Y-88192857D01*
X148950000Y-88235714D01*
X148907142Y-88321428D01*
X148907142Y-88492857D01*
X148950000Y-88578571D01*
X149464285Y-88192857D02*
X149507142Y-88278571D01*
X149507142Y-88492857D01*
X149464285Y-88578571D01*
X149378571Y-88621428D01*
X149292857Y-88621428D01*
X149207142Y-88578571D01*
X149164285Y-88492857D01*
X149164285Y-88278571D01*
X149121428Y-88192857D01*
X146107142Y-89171428D02*
X146107142Y-89600000D01*
X146535714Y-89642857D01*
X146492857Y-89600000D01*
X146450000Y-89514285D01*
X146450000Y-89300000D01*
X146492857Y-89214285D01*
X146535714Y-89171428D01*
X146621428Y-89128571D01*
X146835714Y-89128571D01*
X146921428Y-89171428D01*
X146964285Y-89214285D01*
X147007142Y-89300000D01*
X147007142Y-89514285D01*
X146964285Y-89600000D01*
X146921428Y-89642857D01*
X146107142Y-88871428D02*
X147007142Y-88571428D01*
X146107142Y-88271428D01*
X153750000Y-90085714D02*
X153707142Y-90171428D01*
X153707142Y-90300000D01*
X153750000Y-90428571D01*
X153835714Y-90514285D01*
X153921428Y-90557142D01*
X154092857Y-90600000D01*
X154221428Y-90600000D01*
X154392857Y-90557142D01*
X154478571Y-90514285D01*
X154564285Y-90428571D01*
X154607142Y-90300000D01*
X154607142Y-90214285D01*
X154564285Y-90085714D01*
X154521428Y-90042857D01*
X154221428Y-90042857D01*
X154221428Y-90214285D01*
X154607142Y-89657142D02*
X153707142Y-89657142D01*
X154607142Y-89142857D01*
X153707142Y-89142857D01*
X154607142Y-88714285D02*
X153707142Y-88714285D01*
X153707142Y-88500000D01*
X153750000Y-88371428D01*
X153835714Y-88285714D01*
X153921428Y-88242857D01*
X154092857Y-88200000D01*
X154221428Y-88200000D01*
X154392857Y-88242857D01*
X154478571Y-88285714D01*
X154564285Y-88371428D01*
X154607142Y-88500000D01*
X154607142Y-88714285D01*
X121678571Y-106064285D02*
X121807142Y-106107142D01*
X122021428Y-106107142D01*
X122107142Y-106064285D01*
X122150000Y-106021428D01*
X122192857Y-105935714D01*
X122192857Y-105850000D01*
X122150000Y-105764285D01*
X122107142Y-105721428D01*
X122021428Y-105678571D01*
X121850000Y-105635714D01*
X121764285Y-105592857D01*
X121721428Y-105550000D01*
X121678571Y-105464285D01*
X121678571Y-105378571D01*
X121721428Y-105292857D01*
X121764285Y-105250000D01*
X121850000Y-105207142D01*
X122064285Y-105207142D01*
X122192857Y-105250000D01*
X122578571Y-106107142D02*
X122578571Y-105207142D01*
X122792857Y-105207142D01*
X122921428Y-105250000D01*
X123007142Y-105335714D01*
X123050000Y-105421428D01*
X123092857Y-105592857D01*
X123092857Y-105721428D01*
X123050000Y-105892857D01*
X123007142Y-105978571D01*
X122921428Y-106064285D01*
X122792857Y-106107142D01*
X122578571Y-106107142D01*
X123907142Y-106107142D02*
X123478571Y-106107142D01*
X123478571Y-105207142D01*
X121557142Y-103264285D02*
X121685714Y-103307142D01*
X121900000Y-103307142D01*
X121985714Y-103264285D01*
X122028571Y-103221428D01*
X122071428Y-103135714D01*
X122071428Y-103050000D01*
X122028571Y-102964285D01*
X121985714Y-102921428D01*
X121900000Y-102878571D01*
X121728571Y-102835714D01*
X121642857Y-102792857D01*
X121600000Y-102750000D01*
X121557142Y-102664285D01*
X121557142Y-102578571D01*
X121600000Y-102492857D01*
X121642857Y-102450000D01*
X121728571Y-102407142D01*
X121942857Y-102407142D01*
X122071428Y-102450000D01*
X122457142Y-103307142D02*
X122457142Y-102407142D01*
X122671428Y-102407142D01*
X122800000Y-102450000D01*
X122885714Y-102535714D01*
X122928571Y-102621428D01*
X122971428Y-102792857D01*
X122971428Y-102921428D01*
X122928571Y-103092857D01*
X122885714Y-103178571D01*
X122800000Y-103264285D01*
X122671428Y-103307142D01*
X122457142Y-103307142D01*
X123314285Y-103050000D02*
X123742857Y-103050000D01*
X123228571Y-103307142D02*
X123528571Y-102407142D01*
X123828571Y-103307142D01*
X121435714Y-100207142D02*
X121992857Y-100207142D01*
X121692857Y-100550000D01*
X121821428Y-100550000D01*
X121907142Y-100592857D01*
X121950000Y-100635714D01*
X121992857Y-100721428D01*
X121992857Y-100935714D01*
X121950000Y-101021428D01*
X121907142Y-101064285D01*
X121821428Y-101107142D01*
X121564285Y-101107142D01*
X121478571Y-101064285D01*
X121435714Y-101021428D01*
X122250000Y-100207142D02*
X122550000Y-101107142D01*
X122850000Y-100207142D01*
X123064285Y-100207142D02*
X123621428Y-100207142D01*
X123321428Y-100550000D01*
X123450000Y-100550000D01*
X123535714Y-100592857D01*
X123578571Y-100635714D01*
X123621428Y-100721428D01*
X123621428Y-100935714D01*
X123578571Y-101021428D01*
X123535714Y-101064285D01*
X123450000Y-101107142D01*
X123192857Y-101107142D01*
X123107142Y-101064285D01*
X123064285Y-101021428D01*
X121964285Y-97650000D02*
X121878571Y-97607142D01*
X121750000Y-97607142D01*
X121621428Y-97650000D01*
X121535714Y-97735714D01*
X121492857Y-97821428D01*
X121450000Y-97992857D01*
X121450000Y-98121428D01*
X121492857Y-98292857D01*
X121535714Y-98378571D01*
X121621428Y-98464285D01*
X121750000Y-98507142D01*
X121835714Y-98507142D01*
X121964285Y-98464285D01*
X122007142Y-98421428D01*
X122007142Y-98121428D01*
X121835714Y-98121428D01*
X122392857Y-98507142D02*
X122392857Y-97607142D01*
X122907142Y-98507142D01*
X122907142Y-97607142D01*
X123335714Y-98507142D02*
X123335714Y-97607142D01*
X123550000Y-97607142D01*
X123678571Y-97650000D01*
X123764285Y-97735714D01*
X123807142Y-97821428D01*
X123850000Y-97992857D01*
X123850000Y-98121428D01*
X123807142Y-98292857D01*
X123764285Y-98378571D01*
X123678571Y-98464285D01*
X123550000Y-98507142D01*
X123335714Y-98507142D01*
X162361904Y-112552380D02*
X162980952Y-112552380D01*
X162647619Y-112933333D01*
X162790476Y-112933333D01*
X162885714Y-112980952D01*
X162933333Y-113028571D01*
X162980952Y-113123809D01*
X162980952Y-113361904D01*
X162933333Y-113457142D01*
X162885714Y-113504761D01*
X162790476Y-113552380D01*
X162504761Y-113552380D01*
X162409523Y-113504761D01*
X162361904Y-113457142D01*
X163266666Y-112552380D02*
X163600000Y-113552380D01*
X163933333Y-112552380D01*
X164171428Y-112552380D02*
X164790476Y-112552380D01*
X164457142Y-112933333D01*
X164600000Y-112933333D01*
X164695238Y-112980952D01*
X164742857Y-113028571D01*
X164790476Y-113123809D01*
X164790476Y-113361904D01*
X164742857Y-113457142D01*
X164695238Y-113504761D01*
X164600000Y-113552380D01*
X164314285Y-113552380D01*
X164219047Y-113504761D01*
X164171428Y-113457142D01*
X162838095Y-110100000D02*
X162742857Y-110052380D01*
X162600000Y-110052380D01*
X162457142Y-110100000D01*
X162361904Y-110195238D01*
X162314285Y-110290476D01*
X162266666Y-110480952D01*
X162266666Y-110623809D01*
X162314285Y-110814285D01*
X162361904Y-110909523D01*
X162457142Y-111004761D01*
X162600000Y-111052380D01*
X162695238Y-111052380D01*
X162838095Y-111004761D01*
X162885714Y-110957142D01*
X162885714Y-110623809D01*
X162695238Y-110623809D01*
X163314285Y-111052380D02*
X163314285Y-110052380D01*
X163885714Y-111052380D01*
X163885714Y-110052380D01*
X164361904Y-111052380D02*
X164361904Y-110052380D01*
X164600000Y-110052380D01*
X164742857Y-110100000D01*
X164838095Y-110195238D01*
X164885714Y-110290476D01*
X164933333Y-110480952D01*
X164933333Y-110623809D01*
X164885714Y-110814285D01*
X164838095Y-110909523D01*
X164742857Y-111004761D01*
X164600000Y-111052380D01*
X164361904Y-111052380D01*
X162933333Y-108452380D02*
X162600000Y-107976190D01*
X162361904Y-108452380D02*
X162361904Y-107452380D01*
X162742857Y-107452380D01*
X162838095Y-107500000D01*
X162885714Y-107547619D01*
X162933333Y-107642857D01*
X162933333Y-107785714D01*
X162885714Y-107880952D01*
X162838095Y-107928571D01*
X162742857Y-107976190D01*
X162361904Y-107976190D01*
X163266666Y-107452380D02*
X163933333Y-108452380D01*
X163933333Y-107452380D02*
X163266666Y-108452380D01*
X162138095Y-104852380D02*
X162709523Y-104852380D01*
X162423809Y-105852380D02*
X162423809Y-104852380D01*
X162947619Y-104852380D02*
X163614285Y-105852380D01*
X163614285Y-104852380D02*
X162947619Y-105852380D01*
D13*
X128992857Y-117242857D02*
X129492857Y-117242857D01*
X129707142Y-118028571D02*
X128992857Y-118028571D01*
X128992857Y-116528571D01*
X129707142Y-116528571D01*
X130564285Y-118028571D02*
X130421428Y-117957142D01*
X130350000Y-117814285D01*
X130350000Y-116528571D01*
X131707142Y-117957142D02*
X131564285Y-118028571D01*
X131278571Y-118028571D01*
X131135714Y-117957142D01*
X131064285Y-117814285D01*
X131064285Y-117242857D01*
X131135714Y-117100000D01*
X131278571Y-117028571D01*
X131564285Y-117028571D01*
X131707142Y-117100000D01*
X131778571Y-117242857D01*
X131778571Y-117385714D01*
X131064285Y-117528571D01*
X133064285Y-117957142D02*
X132921428Y-118028571D01*
X132635714Y-118028571D01*
X132492857Y-117957142D01*
X132421428Y-117885714D01*
X132350000Y-117742857D01*
X132350000Y-117314285D01*
X132421428Y-117171428D01*
X132492857Y-117100000D01*
X132635714Y-117028571D01*
X132921428Y-117028571D01*
X133064285Y-117100000D01*
X133492857Y-117028571D02*
X134064285Y-117028571D01*
X133707142Y-116528571D02*
X133707142Y-117814285D01*
X133778571Y-117957142D01*
X133921428Y-118028571D01*
X134064285Y-118028571D01*
X134564285Y-118028571D02*
X134564285Y-117028571D01*
X134564285Y-117314285D02*
X134635714Y-117171428D01*
X134707142Y-117100000D01*
X134850000Y-117028571D01*
X134992857Y-117028571D01*
X136135714Y-118028571D02*
X136135714Y-117242857D01*
X136064285Y-117100000D01*
X135921428Y-117028571D01*
X135635714Y-117028571D01*
X135492857Y-117100000D01*
X136135714Y-117957142D02*
X135992857Y-118028571D01*
X135635714Y-118028571D01*
X135492857Y-117957142D01*
X135421428Y-117814285D01*
X135421428Y-117671428D01*
X135492857Y-117528571D01*
X135635714Y-117457142D01*
X135992857Y-117457142D01*
X136135714Y-117385714D01*
X137778571Y-116528571D02*
X138278571Y-118028571D01*
X138778571Y-116528571D01*
X139850000Y-117957142D02*
X139707142Y-118028571D01*
X139421428Y-118028571D01*
X139278571Y-117957142D01*
X139207142Y-117814285D01*
X139207142Y-117242857D01*
X139278571Y-117100000D01*
X139421428Y-117028571D01*
X139707142Y-117028571D01*
X139850000Y-117100000D01*
X139921428Y-117242857D01*
X139921428Y-117385714D01*
X139207142Y-117528571D01*
X140564285Y-118028571D02*
X140564285Y-117028571D01*
X140564285Y-117314285D02*
X140635714Y-117171428D01*
X140707142Y-117100000D01*
X140850000Y-117028571D01*
X140992857Y-117028571D01*
X141492857Y-117885714D02*
X141564285Y-117957142D01*
X141492857Y-118028571D01*
X141421428Y-117957142D01*
X141492857Y-117885714D01*
X141492857Y-118028571D01*
X144135714Y-118028571D02*
X143278571Y-118028571D01*
X143707142Y-118028571D02*
X143707142Y-116528571D01*
X143564285Y-116742857D01*
X143421428Y-116885714D01*
X143278571Y-116957142D01*
X144778571Y-117885714D02*
X144850000Y-117957142D01*
X144778571Y-118028571D01*
X144707142Y-117957142D01*
X144778571Y-117885714D01*
X144778571Y-118028571D01*
X145778571Y-116528571D02*
X145921428Y-116528571D01*
X146064285Y-116600000D01*
X146135714Y-116671428D01*
X146207142Y-116814285D01*
X146278571Y-117100000D01*
X146278571Y-117457142D01*
X146207142Y-117742857D01*
X146135714Y-117885714D01*
X146064285Y-117957142D01*
X145921428Y-118028571D01*
X145778571Y-118028571D01*
X145635714Y-117957142D01*
X145564285Y-117885714D01*
X145492857Y-117742857D01*
X145421428Y-117457142D01*
X145421428Y-117100000D01*
X145492857Y-116814285D01*
X145564285Y-116671428D01*
X145635714Y-116600000D01*
X145778571Y-116528571D01*
D11*
X148181000Y-78806000D02*
X148181000Y-72836000D01*
X148181000Y-72836000D02*
X140561000Y-72836000D01*
X140561000Y-72836000D02*
X140561000Y-78806000D01*
X140561000Y-78806000D02*
X148181000Y-78806000D01*
X144871000Y-78796000D02*
X144871000Y-78046000D01*
X144871000Y-78046000D02*
X143871000Y-78046000D01*
X143871000Y-78046000D02*
X143871000Y-78796000D01*
X143871000Y-78796000D02*
X144871000Y-78796000D01*
X148171000Y-78796000D02*
X148171000Y-78046000D01*
X148171000Y-78046000D02*
X146371000Y-78046000D01*
X146371000Y-78046000D02*
X146371000Y-78796000D01*
X146371000Y-78796000D02*
X148171000Y-78796000D01*
X142371000Y-78796000D02*
X142371000Y-78046000D01*
X142371000Y-78046000D02*
X140571000Y-78046000D01*
X140571000Y-78046000D02*
X140571000Y-78796000D01*
X140571000Y-78796000D02*
X142371000Y-78796000D01*
X148171000Y-76546000D02*
X147421000Y-76546000D01*
X147421000Y-76546000D02*
X147421000Y-73596000D01*
X147421000Y-73596000D02*
X144371000Y-73596000D01*
X140571000Y-76546000D02*
X141321000Y-76546000D01*
X141321000Y-76546000D02*
X141321000Y-73596000D01*
X141321000Y-73596000D02*
X144371000Y-73596000D01*
X147221000Y-79096000D02*
X148471000Y-79096000D01*
X148471000Y-79096000D02*
X148471000Y-77846000D01*
X112600000Y-81925000D02*
X110000000Y-81925000D01*
X112600000Y-67225000D02*
X112600000Y-81925000D01*
X103400000Y-81925000D02*
X103400000Y-80025000D01*
X106100000Y-81925000D02*
X103400000Y-81925000D01*
X103400000Y-67225000D02*
X112600000Y-67225000D01*
X103400000Y-76025000D02*
X103400000Y-67225000D01*
X112800000Y-81075000D02*
X112800000Y-82125000D01*
X111750000Y-82125000D02*
X112800000Y-82125000D01*
D14*
G36*
X194248918Y-102697471D02*
G01*
X194249888Y-102655538D01*
X194251365Y-102622416D01*
X194253234Y-102600673D01*
X194255375Y-102592880D01*
X194264204Y-102595739D01*
X194286966Y-102603944D01*
X194322170Y-102616935D01*
X194368325Y-102634154D01*
X194423940Y-102655043D01*
X194487525Y-102679043D01*
X194557588Y-102705595D01*
X194632639Y-102734140D01*
X194649669Y-102740632D01*
X194725461Y-102769449D01*
X194796477Y-102796290D01*
X194861245Y-102820611D01*
X194918294Y-102841866D01*
X194966150Y-102859510D01*
X195003342Y-102872997D01*
X195028399Y-102881783D01*
X195039847Y-102885322D01*
X195040400Y-102885337D01*
X195038461Y-102877138D01*
X195031464Y-102855270D01*
X195020044Y-102821565D01*
X195004839Y-102777857D01*
X194986482Y-102725979D01*
X194965609Y-102667763D01*
X194950455Y-102625910D01*
X194928256Y-102564430D01*
X194908171Y-102508019D01*
X194890833Y-102458516D01*
X194876873Y-102417759D01*
X194866925Y-102387589D01*
X194861620Y-102369843D01*
X194860981Y-102365818D01*
X194869006Y-102368354D01*
X194890855Y-102376945D01*
X194925217Y-102391037D01*
X194970783Y-102410075D01*
X195026241Y-102433507D01*
X195090281Y-102460776D01*
X195161592Y-102491331D01*
X195238863Y-102524617D01*
X195320784Y-102560079D01*
X195326641Y-102562621D01*
X195788589Y-102763138D01*
X195790949Y-102681548D01*
X195792565Y-102647471D01*
X195795033Y-102620936D01*
X195797966Y-102605309D01*
X195799987Y-102602613D01*
X195808394Y-102608432D01*
X195827459Y-102622920D01*
X195855224Y-102644511D01*
X195889729Y-102671638D01*
X195929015Y-102702736D01*
X195971123Y-102736240D01*
X196014095Y-102770582D01*
X196055971Y-102804199D01*
X196094793Y-102835522D01*
X196128601Y-102862988D01*
X196155437Y-102885030D01*
X196173341Y-102900082D01*
X196180354Y-102906578D01*
X196180386Y-102906665D01*
X196172721Y-102909273D01*
X196150838Y-102914659D01*
X196116718Y-102922390D01*
X196072344Y-102932028D01*
X196019697Y-102943138D01*
X195960757Y-102955286D01*
X195939271Y-102959649D01*
X195877666Y-102972140D01*
X195820796Y-102983725D01*
X195770822Y-102993959D01*
X195729906Y-103002399D01*
X195700209Y-103008600D01*
X195683891Y-103012117D01*
X195681928Y-103012582D01*
X195677746Y-103010013D01*
X195683466Y-102997176D01*
X195699506Y-102973320D01*
X195717022Y-102949763D01*
X195738299Y-102921473D01*
X195755214Y-102898341D01*
X195765642Y-102883308D01*
X195767945Y-102879191D01*
X195760507Y-102875449D01*
X195739491Y-102866802D01*
X195706848Y-102853975D01*
X195664527Y-102837689D01*
X195614477Y-102818669D01*
X195558648Y-102797637D01*
X195498990Y-102775317D01*
X195437451Y-102752431D01*
X195375982Y-102729703D01*
X195316532Y-102707857D01*
X195261050Y-102687614D01*
X195211486Y-102669699D01*
X195169790Y-102654835D01*
X195137910Y-102643744D01*
X195117797Y-102637150D01*
X195111379Y-102635640D01*
X195113110Y-102644023D01*
X195119744Y-102665947D01*
X195130617Y-102699407D01*
X195145061Y-102742397D01*
X195162412Y-102792910D01*
X195182003Y-102848942D01*
X195185041Y-102857549D01*
X195204978Y-102914116D01*
X195222930Y-102965332D01*
X195238210Y-103009212D01*
X195250130Y-103043776D01*
X195258003Y-103067041D01*
X195261143Y-103077023D01*
X195261163Y-103077253D01*
X195253079Y-103076061D01*
X195230135Y-103072176D01*
X195193722Y-103065843D01*
X195145232Y-103057310D01*
X195086056Y-103046823D01*
X195017586Y-103034628D01*
X194941212Y-103020973D01*
X194858326Y-103006104D01*
X194770319Y-102990268D01*
X194760533Y-102988504D01*
X194671873Y-102972539D01*
X194588043Y-102957477D01*
X194510454Y-102943570D01*
X194440515Y-102931068D01*
X194379638Y-102920224D01*
X194329232Y-102911288D01*
X194290708Y-102904511D01*
X194265478Y-102900145D01*
X194254950Y-102898440D01*
X194254763Y-102898426D01*
X194252810Y-102890591D01*
X194251110Y-102868812D01*
X194249767Y-102835660D01*
X194248885Y-102793706D01*
X194248570Y-102745644D01*
X194248918Y-102697471D01*
G37*
X194248918Y-102697471D02*
X194249888Y-102655538D01*
X194251365Y-102622416D01*
X194253234Y-102600673D01*
X194255375Y-102592880D01*
X194264204Y-102595739D01*
X194286966Y-102603944D01*
X194322170Y-102616935D01*
X194368325Y-102634154D01*
X194423940Y-102655043D01*
X194487525Y-102679043D01*
X194557588Y-102705595D01*
X194632639Y-102734140D01*
X194649669Y-102740632D01*
X194725461Y-102769449D01*
X194796477Y-102796290D01*
X194861245Y-102820611D01*
X194918294Y-102841866D01*
X194966150Y-102859510D01*
X195003342Y-102872997D01*
X195028399Y-102881783D01*
X195039847Y-102885322D01*
X195040400Y-102885337D01*
X195038461Y-102877138D01*
X195031464Y-102855270D01*
X195020044Y-102821565D01*
X195004839Y-102777857D01*
X194986482Y-102725979D01*
X194965609Y-102667763D01*
X194950455Y-102625910D01*
X194928256Y-102564430D01*
X194908171Y-102508019D01*
X194890833Y-102458516D01*
X194876873Y-102417759D01*
X194866925Y-102387589D01*
X194861620Y-102369843D01*
X194860981Y-102365818D01*
X194869006Y-102368354D01*
X194890855Y-102376945D01*
X194925217Y-102391037D01*
X194970783Y-102410075D01*
X195026241Y-102433507D01*
X195090281Y-102460776D01*
X195161592Y-102491331D01*
X195238863Y-102524617D01*
X195320784Y-102560079D01*
X195326641Y-102562621D01*
X195788589Y-102763138D01*
X195790949Y-102681548D01*
X195792565Y-102647471D01*
X195795033Y-102620936D01*
X195797966Y-102605309D01*
X195799987Y-102602613D01*
X195808394Y-102608432D01*
X195827459Y-102622920D01*
X195855224Y-102644511D01*
X195889729Y-102671638D01*
X195929015Y-102702736D01*
X195971123Y-102736240D01*
X196014095Y-102770582D01*
X196055971Y-102804199D01*
X196094793Y-102835522D01*
X196128601Y-102862988D01*
X196155437Y-102885030D01*
X196173341Y-102900082D01*
X196180354Y-102906578D01*
X196180386Y-102906665D01*
X196172721Y-102909273D01*
X196150838Y-102914659D01*
X196116718Y-102922390D01*
X196072344Y-102932028D01*
X196019697Y-102943138D01*
X195960757Y-102955286D01*
X195939271Y-102959649D01*
X195877666Y-102972140D01*
X195820796Y-102983725D01*
X195770822Y-102993959D01*
X195729906Y-103002399D01*
X195700209Y-103008600D01*
X195683891Y-103012117D01*
X195681928Y-103012582D01*
X195677746Y-103010013D01*
X195683466Y-102997176D01*
X195699506Y-102973320D01*
X195717022Y-102949763D01*
X195738299Y-102921473D01*
X195755214Y-102898341D01*
X195765642Y-102883308D01*
X195767945Y-102879191D01*
X195760507Y-102875449D01*
X195739491Y-102866802D01*
X195706848Y-102853975D01*
X195664527Y-102837689D01*
X195614477Y-102818669D01*
X195558648Y-102797637D01*
X195498990Y-102775317D01*
X195437451Y-102752431D01*
X195375982Y-102729703D01*
X195316532Y-102707857D01*
X195261050Y-102687614D01*
X195211486Y-102669699D01*
X195169790Y-102654835D01*
X195137910Y-102643744D01*
X195117797Y-102637150D01*
X195111379Y-102635640D01*
X195113110Y-102644023D01*
X195119744Y-102665947D01*
X195130617Y-102699407D01*
X195145061Y-102742397D01*
X195162412Y-102792910D01*
X195182003Y-102848942D01*
X195185041Y-102857549D01*
X195204978Y-102914116D01*
X195222930Y-102965332D01*
X195238210Y-103009212D01*
X195250130Y-103043776D01*
X195258003Y-103067041D01*
X195261143Y-103077023D01*
X195261163Y-103077253D01*
X195253079Y-103076061D01*
X195230135Y-103072176D01*
X195193722Y-103065843D01*
X195145232Y-103057310D01*
X195086056Y-103046823D01*
X195017586Y-103034628D01*
X194941212Y-103020973D01*
X194858326Y-103006104D01*
X194770319Y-102990268D01*
X194760533Y-102988504D01*
X194671873Y-102972539D01*
X194588043Y-102957477D01*
X194510454Y-102943570D01*
X194440515Y-102931068D01*
X194379638Y-102920224D01*
X194329232Y-102911288D01*
X194290708Y-102904511D01*
X194265478Y-102900145D01*
X194254950Y-102898440D01*
X194254763Y-102898426D01*
X194252810Y-102890591D01*
X194251110Y-102868812D01*
X194249767Y-102835660D01*
X194248885Y-102793706D01*
X194248570Y-102745644D01*
X194248918Y-102697471D01*
G36*
X193560273Y-102669488D02*
G01*
X193579231Y-102622090D01*
X193612682Y-102581548D01*
X193617870Y-102577041D01*
X193628651Y-102569962D01*
X193652888Y-102555348D01*
X193689691Y-102533703D01*
X193738170Y-102505528D01*
X193797435Y-102471326D01*
X193866595Y-102431602D01*
X193944759Y-102386856D01*
X194031037Y-102337592D01*
X194124539Y-102284313D01*
X194224375Y-102227522D01*
X194329653Y-102167721D01*
X194439484Y-102105412D01*
X194552977Y-102041100D01*
X194669241Y-101975286D01*
X194787387Y-101908473D01*
X194906523Y-101841165D01*
X195025760Y-101773863D01*
X195144207Y-101707071D01*
X195260973Y-101641292D01*
X195375168Y-101577027D01*
X195485903Y-101514781D01*
X195592285Y-101455055D01*
X195693425Y-101398353D01*
X195788433Y-101345177D01*
X195876417Y-101296030D01*
X195956488Y-101251414D01*
X196027756Y-101211833D01*
X196089329Y-101177790D01*
X196140317Y-101149786D01*
X196179831Y-101128326D01*
X196206978Y-101113911D01*
X196220870Y-101107044D01*
X196222107Y-101106583D01*
X196277676Y-101098288D01*
X196328938Y-101105476D01*
X196374309Y-101127491D01*
X196412205Y-101163678D01*
X196431411Y-101193238D01*
X196449187Y-101226268D01*
X196450587Y-102708485D01*
X196450699Y-102863972D01*
X196450740Y-103015167D01*
X196450711Y-103161232D01*
X196450617Y-103301325D01*
X196450459Y-103434605D01*
X196450241Y-103560232D01*
X196449964Y-103677366D01*
X196449633Y-103785166D01*
X196449250Y-103882791D01*
X196448817Y-103969400D01*
X196448337Y-104044154D01*
X196447814Y-104106211D01*
X196447249Y-104154731D01*
X196446646Y-104188874D01*
X196446007Y-104207798D01*
X196445646Y-104211399D01*
X196427979Y-104253483D01*
X196404067Y-104289224D01*
X196394121Y-104299720D01*
X196354905Y-104325698D01*
X196307898Y-104340050D01*
X196277845Y-104341174D01*
X196277845Y-104178197D01*
X196279179Y-104175271D01*
X196280400Y-104166054D01*
X196281514Y-104149934D01*
X196282523Y-104126300D01*
X196283433Y-104094538D01*
X196284247Y-104054039D01*
X196284971Y-104004190D01*
X196285608Y-103944379D01*
X196286162Y-103873995D01*
X196286639Y-103792426D01*
X196287042Y-103699061D01*
X196287375Y-103593287D01*
X196287644Y-103474492D01*
X196287852Y-103342066D01*
X196288004Y-103195397D01*
X196288104Y-103033872D01*
X196288156Y-102856880D01*
X196288166Y-102720871D01*
X196288147Y-102533330D01*
X196288085Y-102361676D01*
X196287977Y-102205280D01*
X196287818Y-102063516D01*
X196287603Y-101935755D01*
X196287327Y-101821369D01*
X196286987Y-101719730D01*
X196286578Y-101630211D01*
X196286095Y-101552183D01*
X196285533Y-101485018D01*
X196284889Y-101428089D01*
X196284157Y-101380767D01*
X196283333Y-101342425D01*
X196282412Y-101312434D01*
X196281391Y-101290167D01*
X196280264Y-101274996D01*
X196279026Y-101266293D01*
X196277674Y-101263429D01*
X196277633Y-101263427D01*
X196269580Y-101267409D01*
X196248038Y-101279022D01*
X196213895Y-101297767D01*
X196168035Y-101323145D01*
X196111346Y-101354658D01*
X196044713Y-101391804D01*
X195969024Y-101434086D01*
X195885165Y-101481005D01*
X195794022Y-101532061D01*
X195696480Y-101586754D01*
X195593428Y-101644587D01*
X195485751Y-101705059D01*
X195374335Y-101767672D01*
X195260067Y-101831926D01*
X195143833Y-101897322D01*
X195026520Y-101963362D01*
X194909014Y-102029545D01*
X194792201Y-102095373D01*
X194676967Y-102160347D01*
X194564200Y-102223967D01*
X194454785Y-102285734D01*
X194349609Y-102345150D01*
X194249559Y-102401715D01*
X194155519Y-102454929D01*
X194068378Y-102504294D01*
X193989021Y-102549311D01*
X193918335Y-102589480D01*
X193857205Y-102624302D01*
X193806519Y-102653279D01*
X193767163Y-102675910D01*
X193740023Y-102691697D01*
X193725985Y-102700141D01*
X193724220Y-102701367D01*
X193722049Y-102711466D01*
X193728348Y-102717127D01*
X193744474Y-102726746D01*
X193773494Y-102743731D01*
X193814530Y-102767577D01*
X193866701Y-102797780D01*
X193929128Y-102833836D01*
X194000932Y-102875242D01*
X194081233Y-102921492D01*
X194169152Y-102972084D01*
X194263809Y-103026513D01*
X194364324Y-103084275D01*
X194469819Y-103144866D01*
X194579414Y-103207782D01*
X194692229Y-103272519D01*
X194807385Y-103338573D01*
X194924003Y-103405440D01*
X195041202Y-103472617D01*
X195158103Y-103539598D01*
X195273828Y-103605880D01*
X195387496Y-103670959D01*
X195498227Y-103734331D01*
X195605143Y-103795492D01*
X195707365Y-103853938D01*
X195804011Y-103909165D01*
X195894204Y-103960669D01*
X195977063Y-104007945D01*
X196051709Y-104050490D01*
X196117262Y-104087801D01*
X196172844Y-104119372D01*
X196217574Y-104144699D01*
X196250573Y-104163280D01*
X196270962Y-104174609D01*
X196277845Y-104178197D01*
X196277845Y-104341174D01*
X196257821Y-104341924D01*
X196213849Y-104332174D01*
X196204035Y-104327111D01*
X196180798Y-104314313D01*
X196145027Y-104294291D01*
X196097610Y-104267553D01*
X196039435Y-104234608D01*
X195971391Y-104195966D01*
X195894364Y-104152137D01*
X195809245Y-104103630D01*
X195716919Y-104050954D01*
X195618277Y-103994618D01*
X195514205Y-103935131D01*
X195405592Y-103873004D01*
X195293326Y-103808745D01*
X195178295Y-103742864D01*
X195061387Y-103675870D01*
X194943490Y-103608272D01*
X194825493Y-103540580D01*
X194708283Y-103473304D01*
X194592749Y-103406951D01*
X194479779Y-103342033D01*
X194370261Y-103279057D01*
X194265082Y-103218534D01*
X194165132Y-103160972D01*
X194071298Y-103106882D01*
X193984468Y-103056772D01*
X193905531Y-103011152D01*
X193835374Y-102970531D01*
X193774885Y-102935418D01*
X193724954Y-102906323D01*
X193686467Y-102883756D01*
X193660313Y-102868224D01*
X193647947Y-102860614D01*
X193602562Y-102823243D01*
X193572631Y-102780455D01*
X193557861Y-102731801D01*
X193556722Y-102721585D01*
X193560273Y-102669488D01*
G37*
X193560273Y-102669488D02*
X193579231Y-102622090D01*
X193612682Y-102581548D01*
X193617870Y-102577041D01*
X193628651Y-102569962D01*
X193652888Y-102555348D01*
X193689691Y-102533703D01*
X193738170Y-102505528D01*
X193797435Y-102471326D01*
X193866595Y-102431602D01*
X193944759Y-102386856D01*
X194031037Y-102337592D01*
X194124539Y-102284313D01*
X194224375Y-102227522D01*
X194329653Y-102167721D01*
X194439484Y-102105412D01*
X194552977Y-102041100D01*
X194669241Y-101975286D01*
X194787387Y-101908473D01*
X194906523Y-101841165D01*
X195025760Y-101773863D01*
X195144207Y-101707071D01*
X195260973Y-101641292D01*
X195375168Y-101577027D01*
X195485903Y-101514781D01*
X195592285Y-101455055D01*
X195693425Y-101398353D01*
X195788433Y-101345177D01*
X195876417Y-101296030D01*
X195956488Y-101251414D01*
X196027756Y-101211833D01*
X196089329Y-101177790D01*
X196140317Y-101149786D01*
X196179831Y-101128326D01*
X196206978Y-101113911D01*
X196220870Y-101107044D01*
X196222107Y-101106583D01*
X196277676Y-101098288D01*
X196328938Y-101105476D01*
X196374309Y-101127491D01*
X196412205Y-101163678D01*
X196431411Y-101193238D01*
X196449187Y-101226268D01*
X196450587Y-102708485D01*
X196450699Y-102863972D01*
X196450740Y-103015167D01*
X196450711Y-103161232D01*
X196450617Y-103301325D01*
X196450459Y-103434605D01*
X196450241Y-103560232D01*
X196449964Y-103677366D01*
X196449633Y-103785166D01*
X196449250Y-103882791D01*
X196448817Y-103969400D01*
X196448337Y-104044154D01*
X196447814Y-104106211D01*
X196447249Y-104154731D01*
X196446646Y-104188874D01*
X196446007Y-104207798D01*
X196445646Y-104211399D01*
X196427979Y-104253483D01*
X196404067Y-104289224D01*
X196394121Y-104299720D01*
X196354905Y-104325698D01*
X196307898Y-104340050D01*
X196277845Y-104341174D01*
X196277845Y-104178197D01*
X196279179Y-104175271D01*
X196280400Y-104166054D01*
X196281514Y-104149934D01*
X196282523Y-104126300D01*
X196283433Y-104094538D01*
X196284247Y-104054039D01*
X196284971Y-104004190D01*
X196285608Y-103944379D01*
X196286162Y-103873995D01*
X196286639Y-103792426D01*
X196287042Y-103699061D01*
X196287375Y-103593287D01*
X196287644Y-103474492D01*
X196287852Y-103342066D01*
X196288004Y-103195397D01*
X196288104Y-103033872D01*
X196288156Y-102856880D01*
X196288166Y-102720871D01*
X196288147Y-102533330D01*
X196288085Y-102361676D01*
X196287977Y-102205280D01*
X196287818Y-102063516D01*
X196287603Y-101935755D01*
X196287327Y-101821369D01*
X196286987Y-101719730D01*
X196286578Y-101630211D01*
X196286095Y-101552183D01*
X196285533Y-101485018D01*
X196284889Y-101428089D01*
X196284157Y-101380767D01*
X196283333Y-101342425D01*
X196282412Y-101312434D01*
X196281391Y-101290167D01*
X196280264Y-101274996D01*
X196279026Y-101266293D01*
X196277674Y-101263429D01*
X196277633Y-101263427D01*
X196269580Y-101267409D01*
X196248038Y-101279022D01*
X196213895Y-101297767D01*
X196168035Y-101323145D01*
X196111346Y-101354658D01*
X196044713Y-101391804D01*
X195969024Y-101434086D01*
X195885165Y-101481005D01*
X195794022Y-101532061D01*
X195696480Y-101586754D01*
X195593428Y-101644587D01*
X195485751Y-101705059D01*
X195374335Y-101767672D01*
X195260067Y-101831926D01*
X195143833Y-101897322D01*
X195026520Y-101963362D01*
X194909014Y-102029545D01*
X194792201Y-102095373D01*
X194676967Y-102160347D01*
X194564200Y-102223967D01*
X194454785Y-102285734D01*
X194349609Y-102345150D01*
X194249559Y-102401715D01*
X194155519Y-102454929D01*
X194068378Y-102504294D01*
X193989021Y-102549311D01*
X193918335Y-102589480D01*
X193857205Y-102624302D01*
X193806519Y-102653279D01*
X193767163Y-102675910D01*
X193740023Y-102691697D01*
X193725985Y-102700141D01*
X193724220Y-102701367D01*
X193722049Y-102711466D01*
X193728348Y-102717127D01*
X193744474Y-102726746D01*
X193773494Y-102743731D01*
X193814530Y-102767577D01*
X193866701Y-102797780D01*
X193929128Y-102833836D01*
X194000932Y-102875242D01*
X194081233Y-102921492D01*
X194169152Y-102972084D01*
X194263809Y-103026513D01*
X194364324Y-103084275D01*
X194469819Y-103144866D01*
X194579414Y-103207782D01*
X194692229Y-103272519D01*
X194807385Y-103338573D01*
X194924003Y-103405440D01*
X195041202Y-103472617D01*
X195158103Y-103539598D01*
X195273828Y-103605880D01*
X195387496Y-103670959D01*
X195498227Y-103734331D01*
X195605143Y-103795492D01*
X195707365Y-103853938D01*
X195804011Y-103909165D01*
X195894204Y-103960669D01*
X195977063Y-104007945D01*
X196051709Y-104050490D01*
X196117262Y-104087801D01*
X196172844Y-104119372D01*
X196217574Y-104144699D01*
X196250573Y-104163280D01*
X196270962Y-104174609D01*
X196277845Y-104178197D01*
X196277845Y-104341174D01*
X196257821Y-104341924D01*
X196213849Y-104332174D01*
X196204035Y-104327111D01*
X196180798Y-104314313D01*
X196145027Y-104294291D01*
X196097610Y-104267553D01*
X196039435Y-104234608D01*
X195971391Y-104195966D01*
X195894364Y-104152137D01*
X195809245Y-104103630D01*
X195716919Y-104050954D01*
X195618277Y-103994618D01*
X195514205Y-103935131D01*
X195405592Y-103873004D01*
X195293326Y-103808745D01*
X195178295Y-103742864D01*
X195061387Y-103675870D01*
X194943490Y-103608272D01*
X194825493Y-103540580D01*
X194708283Y-103473304D01*
X194592749Y-103406951D01*
X194479779Y-103342033D01*
X194370261Y-103279057D01*
X194265082Y-103218534D01*
X194165132Y-103160972D01*
X194071298Y-103106882D01*
X193984468Y-103056772D01*
X193905531Y-103011152D01*
X193835374Y-102970531D01*
X193774885Y-102935418D01*
X193724954Y-102906323D01*
X193686467Y-102883756D01*
X193660313Y-102868224D01*
X193647947Y-102860614D01*
X193602562Y-102823243D01*
X193572631Y-102780455D01*
X193557861Y-102731801D01*
X193556722Y-102721585D01*
X193560273Y-102669488D01*
D11*
X130945000Y-79096000D02*
X130945000Y-77846000D01*
X129695000Y-79096000D02*
X130945000Y-79096000D01*
X123795000Y-73596000D02*
X126845000Y-73596000D01*
X123795000Y-76546000D02*
X123795000Y-73596000D01*
X123045000Y-76546000D02*
X123795000Y-76546000D01*
X129895000Y-73596000D02*
X126845000Y-73596000D01*
X129895000Y-76546000D02*
X129895000Y-73596000D01*
X130645000Y-76546000D02*
X129895000Y-76546000D01*
X123045000Y-78796000D02*
X124845000Y-78796000D01*
X123045000Y-78046000D02*
X123045000Y-78796000D01*
X124845000Y-78046000D02*
X123045000Y-78046000D01*
X124845000Y-78796000D02*
X124845000Y-78046000D01*
X128845000Y-78796000D02*
X130645000Y-78796000D01*
X128845000Y-78046000D02*
X128845000Y-78796000D01*
X130645000Y-78046000D02*
X128845000Y-78046000D01*
X130645000Y-78796000D02*
X130645000Y-78046000D01*
X126345000Y-78796000D02*
X127345000Y-78796000D01*
X126345000Y-78046000D02*
X126345000Y-78796000D01*
X127345000Y-78046000D02*
X126345000Y-78046000D01*
X127345000Y-78796000D02*
X127345000Y-78046000D01*
X123035000Y-78806000D02*
X130655000Y-78806000D01*
X123035000Y-72836000D02*
X123035000Y-78806000D01*
X130655000Y-72836000D02*
X123035000Y-72836000D01*
X130655000Y-78806000D02*
X130655000Y-72836000D01*
X100945276Y-111377500D02*
X101454724Y-111377500D01*
X100945276Y-112422500D02*
X101454724Y-112422500D01*
X100945276Y-110872500D02*
X101454724Y-110872500D01*
X100945276Y-109827500D02*
X101454724Y-109827500D01*
X101454724Y-108277500D02*
X100945276Y-108277500D01*
X101454724Y-109322500D02*
X100945276Y-109322500D01*
X101454724Y-106727500D02*
X100945276Y-106727500D01*
X101454724Y-107772500D02*
X100945276Y-107772500D01*
X100945276Y-106247500D02*
X101454724Y-106247500D01*
X100945276Y-105202500D02*
X101454724Y-105202500D01*
X187420000Y-89500000D02*
X187420000Y-94500000D01*
X184420000Y-89500000D02*
X187420000Y-89500000D01*
X184420000Y-94500000D02*
X184420000Y-89500000D01*
X187420000Y-94500000D02*
X184420000Y-94500000D01*
X187420000Y-89500000D02*
X184420000Y-94500000D01*
X187420000Y-92000000D02*
X191920000Y-92000000D01*
X179920000Y-92000000D02*
X184420000Y-92000000D01*
X185920000Y-95400000D02*
X189620000Y-95400000D01*
X185920000Y-88500000D02*
X189620000Y-88500000D01*
X189620000Y-88500000D02*
X189620000Y-95400000D01*
X185920000Y-87000000D02*
X183220000Y-82500000D01*
X185920000Y-88500000D02*
X185920000Y-87000000D01*
X179920000Y-92000000D02*
X179920000Y-94300000D01*
X185920000Y-95400000D02*
X185920000Y-96300000D01*
X191920000Y-94300000D02*
X191920000Y-92000000D01*
X181620000Y-83800000D02*
X183920000Y-83800000D01*
X190220000Y-83800000D02*
X187920000Y-83800000D01*
X193620000Y-80300000D02*
X193620000Y-99500000D01*
X178220000Y-80300000D02*
X193620000Y-80300000D01*
X178220000Y-99500000D02*
X178220000Y-80300000D01*
X178220000Y-99500000D02*
X184720000Y-99500000D01*
X187120000Y-99500000D02*
X193620000Y-99500000D01*
X155550000Y-88030000D02*
X155550000Y-85370000D01*
X147870000Y-88030000D02*
X155550000Y-88030000D01*
X147870000Y-85370000D02*
X155550000Y-85370000D01*
X147870000Y-88030000D02*
X147870000Y-85370000D01*
X146600000Y-88030000D02*
X145270000Y-88030000D01*
X145270000Y-88030000D02*
X145270000Y-86700000D01*
X169120000Y-99500000D02*
X175620000Y-99500000D01*
X160220000Y-99500000D02*
X166720000Y-99500000D01*
X160220000Y-99500000D02*
X160220000Y-80300000D01*
X160220000Y-80300000D02*
X175620000Y-80300000D01*
X175620000Y-80300000D02*
X175620000Y-99500000D01*
X172220000Y-83800000D02*
X169920000Y-83800000D01*
X163620000Y-83800000D02*
X165920000Y-83800000D01*
X173920000Y-94300000D02*
X173920000Y-92000000D01*
X167920000Y-95400000D02*
X167920000Y-96300000D01*
X161920000Y-92000000D02*
X161920000Y-94300000D01*
X167920000Y-88500000D02*
X167920000Y-87000000D01*
X167920000Y-87000000D02*
X165220000Y-82500000D01*
X171620000Y-88500000D02*
X171620000Y-95400000D01*
X167920000Y-88500000D02*
X171620000Y-88500000D01*
X167920000Y-95400000D02*
X171620000Y-95400000D01*
X161920000Y-92000000D02*
X166420000Y-92000000D01*
X169420000Y-92000000D02*
X173920000Y-92000000D01*
X169420000Y-89500000D02*
X166420000Y-94500000D01*
X169420000Y-94500000D02*
X166420000Y-94500000D01*
X166420000Y-94500000D02*
X166420000Y-89500000D01*
X166420000Y-89500000D02*
X169420000Y-89500000D01*
X169420000Y-89500000D02*
X169420000Y-94500000D01*
X154170000Y-109410000D02*
X156830000Y-109410000D01*
X154170000Y-101730000D02*
X154170000Y-109410000D01*
X156830000Y-101730000D02*
X156830000Y-109410000D01*
X154170000Y-101730000D02*
X156830000Y-101730000D01*
X154170000Y-100460000D02*
X154170000Y-99130000D01*
X154170000Y-99130000D02*
X155500000Y-99130000D01*
X157361000Y-79096000D02*
X157361000Y-77846000D01*
X156111000Y-79096000D02*
X157361000Y-79096000D01*
X150211000Y-73596000D02*
X153261000Y-73596000D01*
X150211000Y-76546000D02*
X150211000Y-73596000D01*
X149461000Y-76546000D02*
X150211000Y-76546000D01*
X156311000Y-73596000D02*
X153261000Y-73596000D01*
X156311000Y-76546000D02*
X156311000Y-73596000D01*
X157061000Y-76546000D02*
X156311000Y-76546000D01*
X149461000Y-78796000D02*
X151261000Y-78796000D01*
X149461000Y-78046000D02*
X149461000Y-78796000D01*
X151261000Y-78046000D02*
X149461000Y-78046000D01*
X151261000Y-78796000D02*
X151261000Y-78046000D01*
X155261000Y-78796000D02*
X157061000Y-78796000D01*
X155261000Y-78046000D02*
X155261000Y-78796000D01*
X157061000Y-78046000D02*
X155261000Y-78046000D01*
X157061000Y-78796000D02*
X157061000Y-78046000D01*
X152761000Y-78796000D02*
X153761000Y-78796000D01*
X152761000Y-78046000D02*
X152761000Y-78796000D01*
X153761000Y-78046000D02*
X152761000Y-78046000D01*
X153761000Y-78796000D02*
X153761000Y-78046000D01*
X149451000Y-78806000D02*
X157071000Y-78806000D01*
X149451000Y-72836000D02*
X149451000Y-78806000D01*
X157071000Y-72836000D02*
X149451000Y-72836000D01*
X157071000Y-78806000D02*
X157071000Y-72836000D01*
X178322500Y-113538724D02*
X178322500Y-113029276D01*
X177277500Y-113538724D02*
X177277500Y-113029276D01*
X114838500Y-86616500D02*
X115463500Y-86616500D01*
X115151000Y-86929000D02*
X115151000Y-86304000D01*
X118531563Y-86064000D02*
X119596000Y-84999563D01*
X115140437Y-86064000D02*
X114076000Y-84999563D01*
X115140437Y-86064000D02*
X115776000Y-86064000D01*
X118531563Y-86064000D02*
X117896000Y-86064000D01*
X119596000Y-84999563D02*
X119596000Y-80544000D01*
X114076000Y-84999563D02*
X114076000Y-80544000D01*
X114076000Y-80544000D02*
X115776000Y-80544000D01*
X119596000Y-80544000D02*
X117896000Y-80544000D01*
X115750000Y-98700000D02*
X115750000Y-101900000D01*
X115750000Y-101900000D02*
X105150000Y-101900000D01*
X105150000Y-101900000D02*
X105150000Y-98700000D01*
X105150000Y-94500000D02*
X105150000Y-91300000D01*
X105150000Y-91300000D02*
X115750000Y-91300000D01*
X115750000Y-91300000D02*
X115750000Y-94500000D01*
X160220000Y-78320000D02*
X175460000Y-78320000D01*
X160220000Y-70700000D02*
X175460000Y-70700000D01*
X160220000Y-77050000D02*
X175460000Y-77050000D01*
X175460000Y-78320000D02*
X175460000Y-70700000D01*
X160220000Y-78320000D02*
X160220000Y-70700000D01*
X102048752Y-98840000D02*
X100626248Y-98840000D01*
X102048752Y-101560000D02*
X100626248Y-101560000D01*
X100883767Y-97090000D02*
X100591233Y-97090000D01*
X100883767Y-98110000D02*
X100591233Y-98110000D01*
X106203733Y-89690000D02*
X106496267Y-89690000D01*
X106203733Y-90710000D02*
X106496267Y-90710000D01*
X109840000Y-105523752D02*
X109840000Y-104101248D01*
X112560000Y-105523752D02*
X112560000Y-104101248D01*
X115960000Y-105523752D02*
X115960000Y-104101248D01*
X113240000Y-105523752D02*
X113240000Y-104101248D01*
X98090000Y-111146267D02*
X98090000Y-110853733D01*
X99110000Y-111146267D02*
X99110000Y-110853733D01*
X125983000Y-80544000D02*
X124283000Y-80544000D01*
X120463000Y-80544000D02*
X122163000Y-80544000D01*
X120463000Y-84999563D02*
X120463000Y-80544000D01*
X125983000Y-84999563D02*
X125983000Y-80544000D01*
X124918563Y-86064000D02*
X124283000Y-86064000D01*
X121527437Y-86064000D02*
X122163000Y-86064000D01*
X121527437Y-86064000D02*
X120463000Y-84999563D01*
X124918563Y-86064000D02*
X125983000Y-84999563D01*
X121538000Y-86929000D02*
X121538000Y-86304000D01*
X121225500Y-86616500D02*
X121850500Y-86616500D01*
X126246267Y-96485000D02*
X125953733Y-96485000D01*
X126246267Y-95465000D02*
X125953733Y-95465000D01*
X126246267Y-97165000D02*
X125953733Y-97165000D01*
X126246267Y-98185000D02*
X125953733Y-98185000D01*
X104150000Y-85200000D02*
X100850000Y-85200000D01*
X100850000Y-85200000D02*
X100850000Y-90600000D01*
X104150000Y-85200000D02*
X104150000Y-90600000D01*
X177065000Y-116040000D02*
X177065000Y-118500000D01*
X177065000Y-118500000D02*
X178535000Y-118500000D01*
X178535000Y-118500000D02*
X178535000Y-116040000D01*
X190727000Y-118500000D02*
X190727000Y-116040000D01*
X189257000Y-118500000D02*
X190727000Y-118500000D01*
X189257000Y-116040000D02*
X189257000Y-118500000D01*
X193064000Y-106084000D02*
X195614000Y-106084000D01*
X193064000Y-107784000D02*
X195614000Y-107784000D01*
X193064000Y-106084000D02*
X193064000Y-107784000D01*
X186209000Y-116040000D02*
X186209000Y-118500000D01*
X186209000Y-118500000D02*
X187679000Y-118500000D01*
X187679000Y-118500000D02*
X187679000Y-116040000D01*
X193064000Y-108624000D02*
X193064000Y-110324000D01*
X193064000Y-110324000D02*
X195614000Y-110324000D01*
X193064000Y-108624000D02*
X195614000Y-108624000D01*
X180113000Y-116040000D02*
X180113000Y-118500000D01*
X180113000Y-118500000D02*
X181583000Y-118500000D01*
X181583000Y-118500000D02*
X181583000Y-116040000D01*
X184631000Y-118500000D02*
X184631000Y-116040000D01*
X183161000Y-118500000D02*
X184631000Y-118500000D01*
X183161000Y-116040000D02*
X183161000Y-118500000D01*
X121330000Y-96670000D02*
X118670000Y-96670000D01*
X121330000Y-109430000D02*
X121330000Y-96670000D01*
X118670000Y-109430000D02*
X118670000Y-96670000D01*
X121330000Y-109430000D02*
X118670000Y-109430000D01*
X121330000Y-110700000D02*
X121330000Y-112030000D01*
X121330000Y-112030000D02*
X120000000Y-112030000D01*
X158670000Y-104170000D02*
X160000000Y-104170000D01*
X158670000Y-105500000D02*
X158670000Y-104170000D01*
X158670000Y-106770000D02*
X161330000Y-106770000D01*
X161330000Y-106770000D02*
X161330000Y-114450000D01*
X158670000Y-106770000D02*
X158670000Y-114450000D01*
X158670000Y-114450000D02*
X161330000Y-114450000D01*
X121900000Y-75012500D02*
X121450000Y-75012500D01*
X121900000Y-73162500D02*
X121900000Y-75012500D01*
X114100000Y-70612500D02*
X114100000Y-70862500D01*
X121900000Y-70612500D02*
X121900000Y-70862500D01*
X114100000Y-73162500D02*
X114100000Y-75012500D01*
X114100000Y-75012500D02*
X114550000Y-75012500D01*
X119700000Y-75562500D02*
X119250000Y-75562500D01*
X119700000Y-75562500D02*
X119700000Y-75112500D01*
X110520000Y-90480000D02*
X115720000Y-90480000D01*
X110520000Y-90420000D02*
X110520000Y-90480000D01*
X115720000Y-87820000D02*
X115720000Y-90480000D01*
X110520000Y-90420000D02*
X113120000Y-90420000D01*
X113120000Y-90420000D02*
X113120000Y-87820000D01*
X113120000Y-87820000D02*
X115720000Y-87820000D01*
X110520000Y-89150000D02*
X110520000Y-87820000D01*
X110520000Y-87820000D02*
X111850000Y-87820000D01*
X177470000Y-78320000D02*
X177470000Y-70700000D01*
X192710000Y-78320000D02*
X192710000Y-70700000D01*
X177470000Y-77050000D02*
X192710000Y-77050000D01*
X177470000Y-70700000D02*
X192710000Y-70700000D01*
X177470000Y-78320000D02*
X192710000Y-78320000D01*
X139291000Y-78806000D02*
X139291000Y-72836000D01*
X139291000Y-72836000D02*
X131671000Y-72836000D01*
X131671000Y-72836000D02*
X131671000Y-78806000D01*
X131671000Y-78806000D02*
X139291000Y-78806000D01*
X135981000Y-78796000D02*
X135981000Y-78046000D01*
X135981000Y-78046000D02*
X134981000Y-78046000D01*
X134981000Y-78046000D02*
X134981000Y-78796000D01*
X134981000Y-78796000D02*
X135981000Y-78796000D01*
X139281000Y-78796000D02*
X139281000Y-78046000D01*
X139281000Y-78046000D02*
X137481000Y-78046000D01*
X137481000Y-78046000D02*
X137481000Y-78796000D01*
X137481000Y-78796000D02*
X139281000Y-78796000D01*
X133481000Y-78796000D02*
X133481000Y-78046000D01*
X133481000Y-78046000D02*
X131681000Y-78046000D01*
X131681000Y-78046000D02*
X131681000Y-78796000D01*
X131681000Y-78796000D02*
X133481000Y-78796000D01*
X139281000Y-76546000D02*
X138531000Y-76546000D01*
X138531000Y-76546000D02*
X138531000Y-73596000D01*
X138531000Y-73596000D02*
X135481000Y-73596000D01*
X131681000Y-76546000D02*
X132431000Y-76546000D01*
X132431000Y-76546000D02*
X132431000Y-73596000D01*
X132431000Y-73596000D02*
X135481000Y-73596000D01*
X138331000Y-79096000D02*
X139581000Y-79096000D01*
X139581000Y-79096000D02*
X139581000Y-77846000D01*
X190254000Y-109950000D02*
X189594000Y-109950000D01*
X191914000Y-109950000D02*
X191254000Y-109950000D01*
X191914000Y-109950000D02*
X191914000Y-107920000D01*
X189594000Y-108540000D02*
X189594000Y-109950000D01*
X186292000Y-108540000D02*
X186292000Y-109950000D01*
X188612000Y-109950000D02*
X188612000Y-107920000D01*
X188612000Y-109950000D02*
X187952000Y-109950000D01*
X186952000Y-109950000D02*
X186292000Y-109950000D01*
X150166000Y-80910000D02*
X150166000Y-81840000D01*
X150166000Y-84070000D02*
X150166000Y-83140000D01*
X150166000Y-84070000D02*
X152326000Y-84070000D01*
X150166000Y-80910000D02*
X151626000Y-80910000D01*
X183896724Y-110504500D02*
X183387276Y-110504500D01*
X183896724Y-109459500D02*
X183387276Y-109459500D01*
X190514500Y-113029276D02*
X190514500Y-113538724D01*
X189469500Y-113029276D02*
X189469500Y-113538724D01*
X183896724Y-107681500D02*
X183387276Y-107681500D01*
X183896724Y-108726500D02*
X183387276Y-108726500D01*
X186421500Y-113029276D02*
X186421500Y-113538724D01*
X187466500Y-113029276D02*
X187466500Y-113538724D01*
X140730500Y-82654224D02*
X140730500Y-82144776D01*
X139685500Y-82654224D02*
X139685500Y-82144776D01*
X142733500Y-82654224D02*
X142733500Y-82144776D01*
X143778500Y-82654224D02*
X143778500Y-82144776D01*
X105865500Y-111528724D02*
X105865500Y-111019276D01*
X106910500Y-111528724D02*
X106910500Y-111019276D01*
X105132500Y-111528724D02*
X105132500Y-111019276D01*
X104087500Y-111528724D02*
X104087500Y-111019276D01*
X110466500Y-111019276D02*
X110466500Y-111528724D01*
X109421500Y-111019276D02*
X109421500Y-111528724D01*
X181370500Y-113538724D02*
X181370500Y-113029276D01*
X180325500Y-113538724D02*
X180325500Y-113029276D01*
X107643500Y-111019276D02*
X107643500Y-111528724D01*
X108688500Y-111019276D02*
X108688500Y-111528724D01*
X111199500Y-111019276D02*
X111199500Y-111528724D01*
X112244500Y-111019276D02*
X112244500Y-111528724D01*
X183373500Y-113538724D02*
X183373500Y-113029276D01*
X184418500Y-113538724D02*
X184418500Y-113029276D01*
X137682500Y-82041276D02*
X137682500Y-82550724D01*
X136637500Y-82041276D02*
X136637500Y-82550724D01*
X134634500Y-82041276D02*
X134634500Y-82550724D01*
X133589500Y-82041276D02*
X133589500Y-82550724D01*
X130541500Y-82041276D02*
X130541500Y-82550724D01*
X131586500Y-82041276D02*
X131586500Y-82550724D01*
X153197500Y-82744724D02*
X153197500Y-82235276D01*
X154242500Y-82744724D02*
X154242500Y-82235276D01*
X148654500Y-82744724D02*
X148654500Y-82235276D01*
X147609500Y-82744724D02*
X147609500Y-82235276D01*
X112900000Y-117350000D02*
X112900000Y-116700000D01*
X112900000Y-113650000D02*
X112900000Y-114300000D01*
X119100000Y-114300000D02*
X119100000Y-113650000D01*
X119100000Y-117350000D02*
X119100000Y-116700000D01*
X112900000Y-117350000D02*
X119100000Y-117350000D01*
X119100000Y-113650000D02*
X112900000Y-113650000D01*
X110600000Y-113650000D02*
X104400000Y-113650000D01*
X104400000Y-117350000D02*
X110600000Y-117350000D01*
X110600000Y-117350000D02*
X110600000Y-116700000D01*
X110600000Y-114300000D02*
X110600000Y-113650000D01*
X104400000Y-113650000D02*
X104400000Y-114300000D01*
X104400000Y-117350000D02*
X104400000Y-116700000D01*
X129220000Y-82296000D02*
G75*
G03*
X129220000Y-82296000I-950000J0D01*
G01*
X103450000Y-95500000D02*
G75*
G03*
X103450000Y-95500000I-950000J0D01*
G01*
X129200000Y-90678000D02*
G75*
G03*
X129200000Y-90678000I-950000J0D01*
G01*
X129220000Y-86360000D02*
G75*
G03*
X129220000Y-86360000I-950000J0D01*
G01*
X179225000Y-109125000D02*
G75*
G03*
X179225000Y-109125000I-950000J0D01*
G01*
X179200000Y-106525000D02*
G75*
G03*
X179200000Y-106525000I-950000J0D01*
G01*
X132268000Y-86360000D02*
G75*
G03*
X132268000Y-86360000I-950000J0D01*
G01*
X124084000Y-94596000D02*
X124084000Y-93336000D01*
X124084000Y-87776000D02*
X124084000Y-89036000D01*
X120324000Y-94596000D02*
X124084000Y-94596000D01*
X118074000Y-87776000D02*
X124084000Y-87776000D01*
X103190000Y-103400000D02*
X103190000Y-105200000D01*
X106410000Y-105200000D02*
X106410000Y-102750000D01*
D10*
X101371428Y-111407142D02*
X101200000Y-111407142D01*
X101114285Y-111450000D01*
X101071428Y-111492857D01*
X100985714Y-111621428D01*
X100942857Y-111792857D01*
X100942857Y-112135714D01*
X100985714Y-112221428D01*
X101028571Y-112264285D01*
X101114285Y-112307142D01*
X101285714Y-112307142D01*
X101371428Y-112264285D01*
X101414285Y-112221428D01*
X101457142Y-112135714D01*
X101457142Y-111921428D01*
X101414285Y-111835714D01*
X101371428Y-111792857D01*
X101285714Y-111750000D01*
X101114285Y-111750000D01*
X101028571Y-111792857D01*
X100985714Y-111835714D01*
X100942857Y-111921428D01*
X101414285Y-109857142D02*
X100985714Y-109857142D01*
X100942857Y-110285714D01*
X100985714Y-110242857D01*
X101071428Y-110200000D01*
X101285714Y-110200000D01*
X101371428Y-110242857D01*
X101414285Y-110285714D01*
X101457142Y-110371428D01*
X101457142Y-110585714D01*
X101414285Y-110671428D01*
X101371428Y-110714285D01*
X101285714Y-110757142D01*
X101071428Y-110757142D01*
X100985714Y-110714285D01*
X100942857Y-110671428D01*
X101371428Y-108607142D02*
X101371428Y-109207142D01*
X101157142Y-108264285D02*
X100942857Y-108907142D01*
X101500000Y-108907142D01*
X100942857Y-106842857D02*
X100985714Y-106800000D01*
X101071428Y-106757142D01*
X101285714Y-106757142D01*
X101371428Y-106800000D01*
X101414285Y-106842857D01*
X101457142Y-106928571D01*
X101457142Y-107014285D01*
X101414285Y-107142857D01*
X100900000Y-107657142D01*
X101457142Y-107657142D01*
X101457142Y-106132142D02*
X100942857Y-106132142D01*
X101200000Y-106132142D02*
X101200000Y-105232142D01*
X101114285Y-105360714D01*
X101028571Y-105446428D01*
X100942857Y-105489285D01*
X179229523Y-91452380D02*
X179229523Y-90452380D01*
X179800952Y-91452380D02*
X179372380Y-90880952D01*
X179800952Y-90452380D02*
X179229523Y-91023809D01*
X180134285Y-90452380D02*
X180753333Y-90452380D01*
X180420000Y-90833333D01*
X180562857Y-90833333D01*
X180658095Y-90880952D01*
X180705714Y-90928571D01*
X180753333Y-91023809D01*
X180753333Y-91261904D01*
X180705714Y-91357142D01*
X180658095Y-91404761D01*
X180562857Y-91452380D01*
X180277142Y-91452380D01*
X180181904Y-91404761D01*
X180134285Y-91357142D01*
X181372380Y-90452380D02*
X181467619Y-90452380D01*
X181562857Y-90500000D01*
X181610476Y-90547619D01*
X181658095Y-90642857D01*
X181705714Y-90833333D01*
X181705714Y-91071428D01*
X181658095Y-91261904D01*
X181610476Y-91357142D01*
X181562857Y-91404761D01*
X181467619Y-91452380D01*
X181372380Y-91452380D01*
X181277142Y-91404761D01*
X181229523Y-91357142D01*
X181181904Y-91261904D01*
X181134285Y-91071428D01*
X181134285Y-90833333D01*
X181181904Y-90642857D01*
X181229523Y-90547619D01*
X181277142Y-90500000D01*
X181372380Y-90452380D01*
X182658095Y-91452380D02*
X182086666Y-91452380D01*
X182372380Y-91452380D02*
X182372380Y-90452380D01*
X182277142Y-90595238D01*
X182181904Y-90690476D01*
X182086666Y-90738095D01*
X160729523Y-91452380D02*
X160729523Y-90452380D01*
X161300952Y-91452380D02*
X160872380Y-90880952D01*
X161300952Y-90452380D02*
X160729523Y-91023809D01*
X162158095Y-90785714D02*
X162158095Y-91452380D01*
X161920000Y-90404761D02*
X161681904Y-91119047D01*
X162300952Y-91119047D01*
X162872380Y-90452380D02*
X162967619Y-90452380D01*
X163062857Y-90500000D01*
X163110476Y-90547619D01*
X163158095Y-90642857D01*
X163205714Y-90833333D01*
X163205714Y-91071428D01*
X163158095Y-91261904D01*
X163110476Y-91357142D01*
X163062857Y-91404761D01*
X162967619Y-91452380D01*
X162872380Y-91452380D01*
X162777142Y-91404761D01*
X162729523Y-91357142D01*
X162681904Y-91261904D01*
X162634285Y-91071428D01*
X162634285Y-90833333D01*
X162681904Y-90642857D01*
X162729523Y-90547619D01*
X162777142Y-90500000D01*
X162872380Y-90452380D01*
X164158095Y-91452380D02*
X163586666Y-91452380D01*
X163872380Y-91452380D02*
X163872380Y-90452380D01*
X163777142Y-90595238D01*
X163681904Y-90690476D01*
X163586666Y-90738095D01*
X115680952Y-83707142D02*
X115633333Y-83754761D01*
X115490476Y-83802380D01*
X115395238Y-83802380D01*
X115252380Y-83754761D01*
X115157142Y-83659523D01*
X115109523Y-83564285D01*
X115061904Y-83373809D01*
X115061904Y-83230952D01*
X115109523Y-83040476D01*
X115157142Y-82945238D01*
X115252380Y-82850000D01*
X115395238Y-82802380D01*
X115490476Y-82802380D01*
X115633333Y-82850000D01*
X115680952Y-82897619D01*
X116061904Y-82897619D02*
X116109523Y-82850000D01*
X116204761Y-82802380D01*
X116442857Y-82802380D01*
X116538095Y-82850000D01*
X116585714Y-82897619D01*
X116633333Y-82992857D01*
X116633333Y-83088095D01*
X116585714Y-83230952D01*
X116014285Y-83802380D01*
X116633333Y-83802380D01*
X117252380Y-82802380D02*
X117347619Y-82802380D01*
X117442857Y-82850000D01*
X117490476Y-82897619D01*
X117538095Y-82992857D01*
X117585714Y-83183333D01*
X117585714Y-83421428D01*
X117538095Y-83611904D01*
X117490476Y-83707142D01*
X117442857Y-83754761D01*
X117347619Y-83802380D01*
X117252380Y-83802380D01*
X117157142Y-83754761D01*
X117109523Y-83707142D01*
X117061904Y-83611904D01*
X117014285Y-83421428D01*
X117014285Y-83183333D01*
X117061904Y-82992857D01*
X117109523Y-82897619D01*
X117157142Y-82850000D01*
X117252380Y-82802380D01*
X117919047Y-82802380D02*
X118538095Y-82802380D01*
X118204761Y-83183333D01*
X118347619Y-83183333D01*
X118442857Y-83230952D01*
X118490476Y-83278571D01*
X118538095Y-83373809D01*
X118538095Y-83611904D01*
X118490476Y-83707142D01*
X118442857Y-83754761D01*
X118347619Y-83802380D01*
X118061904Y-83802380D01*
X117966666Y-83754761D01*
X117919047Y-83707142D01*
X109330952Y-97052380D02*
X108854761Y-97052380D01*
X108854761Y-96052380D01*
X109616666Y-96147619D02*
X109664285Y-96100000D01*
X109759523Y-96052380D01*
X109997619Y-96052380D01*
X110092857Y-96100000D01*
X110140476Y-96147619D01*
X110188095Y-96242857D01*
X110188095Y-96338095D01*
X110140476Y-96480952D01*
X109569047Y-97052380D01*
X110188095Y-97052380D01*
X110807142Y-96052380D02*
X110902380Y-96052380D01*
X110997619Y-96100000D01*
X111045238Y-96147619D01*
X111092857Y-96242857D01*
X111140476Y-96433333D01*
X111140476Y-96671428D01*
X111092857Y-96861904D01*
X111045238Y-96957142D01*
X110997619Y-97004761D01*
X110902380Y-97052380D01*
X110807142Y-97052380D01*
X110711904Y-97004761D01*
X110664285Y-96957142D01*
X110616666Y-96861904D01*
X110569047Y-96671428D01*
X110569047Y-96433333D01*
X110616666Y-96242857D01*
X110664285Y-96147619D01*
X110711904Y-96100000D01*
X110807142Y-96052380D01*
X112092857Y-97052380D02*
X111521428Y-97052380D01*
X111807142Y-97052380D02*
X111807142Y-96052380D01*
X111711904Y-96195238D01*
X111616666Y-96290476D01*
X111521428Y-96338095D01*
X98655142Y-101195047D02*
X98702761Y-101242666D01*
X98750380Y-101385523D01*
X98750380Y-101480761D01*
X98702761Y-101623619D01*
X98607523Y-101718857D01*
X98512285Y-101766476D01*
X98321809Y-101814095D01*
X98178952Y-101814095D01*
X97988476Y-101766476D01*
X97893238Y-101718857D01*
X97798000Y-101623619D01*
X97750380Y-101480761D01*
X97750380Y-101385523D01*
X97798000Y-101242666D01*
X97845619Y-101195047D01*
X97845619Y-100814095D02*
X97798000Y-100766476D01*
X97750380Y-100671238D01*
X97750380Y-100433142D01*
X97798000Y-100337904D01*
X97845619Y-100290285D01*
X97940857Y-100242666D01*
X98036095Y-100242666D01*
X98178952Y-100290285D01*
X98750380Y-100861714D01*
X98750380Y-100242666D01*
X97750380Y-99623619D02*
X97750380Y-99528380D01*
X97798000Y-99433142D01*
X97845619Y-99385523D01*
X97940857Y-99337904D01*
X98131333Y-99290285D01*
X98369428Y-99290285D01*
X98559904Y-99337904D01*
X98655142Y-99385523D01*
X98702761Y-99433142D01*
X98750380Y-99528380D01*
X98750380Y-99623619D01*
X98702761Y-99718857D01*
X98655142Y-99766476D01*
X98559904Y-99814095D01*
X98369428Y-99861714D01*
X98131333Y-99861714D01*
X97940857Y-99814095D01*
X97845619Y-99766476D01*
X97798000Y-99718857D01*
X97750380Y-99623619D01*
X98750380Y-98337904D02*
X98750380Y-98909333D01*
X98750380Y-98623619D02*
X97750380Y-98623619D01*
X97893238Y-98718857D01*
X97988476Y-98814095D01*
X98036095Y-98909333D01*
X99417142Y-96115047D02*
X99464761Y-96162666D01*
X99512380Y-96305523D01*
X99512380Y-96400761D01*
X99464761Y-96543619D01*
X99369523Y-96638857D01*
X99274285Y-96686476D01*
X99083809Y-96734095D01*
X98940952Y-96734095D01*
X98750476Y-96686476D01*
X98655238Y-96638857D01*
X98560000Y-96543619D01*
X98512380Y-96400761D01*
X98512380Y-96305523D01*
X98560000Y-96162666D01*
X98607619Y-96115047D01*
X98607619Y-95734095D02*
X98560000Y-95686476D01*
X98512380Y-95591238D01*
X98512380Y-95353142D01*
X98560000Y-95257904D01*
X98607619Y-95210285D01*
X98702857Y-95162666D01*
X98798095Y-95162666D01*
X98940952Y-95210285D01*
X99512380Y-95781714D01*
X99512380Y-95162666D01*
X98512380Y-94543619D02*
X98512380Y-94448380D01*
X98560000Y-94353142D01*
X98607619Y-94305523D01*
X98702857Y-94257904D01*
X98893333Y-94210285D01*
X99131428Y-94210285D01*
X99321904Y-94257904D01*
X99417142Y-94305523D01*
X99464761Y-94353142D01*
X99512380Y-94448380D01*
X99512380Y-94543619D01*
X99464761Y-94638857D01*
X99417142Y-94686476D01*
X99321904Y-94734095D01*
X99131428Y-94781714D01*
X98893333Y-94781714D01*
X98702857Y-94734095D01*
X98607619Y-94686476D01*
X98560000Y-94638857D01*
X98512380Y-94543619D01*
X98607619Y-93829333D02*
X98560000Y-93781714D01*
X98512380Y-93686476D01*
X98512380Y-93448380D01*
X98560000Y-93353142D01*
X98607619Y-93305523D01*
X98702857Y-93257904D01*
X98798095Y-93257904D01*
X98940952Y-93305523D01*
X99512380Y-93876952D01*
X99512380Y-93257904D01*
X105230952Y-89127142D02*
X105183333Y-89174761D01*
X105040476Y-89222380D01*
X104945238Y-89222380D01*
X104802380Y-89174761D01*
X104707142Y-89079523D01*
X104659523Y-88984285D01*
X104611904Y-88793809D01*
X104611904Y-88650952D01*
X104659523Y-88460476D01*
X104707142Y-88365238D01*
X104802380Y-88270000D01*
X104945238Y-88222380D01*
X105040476Y-88222380D01*
X105183333Y-88270000D01*
X105230952Y-88317619D01*
X105611904Y-88317619D02*
X105659523Y-88270000D01*
X105754761Y-88222380D01*
X105992857Y-88222380D01*
X106088095Y-88270000D01*
X106135714Y-88317619D01*
X106183333Y-88412857D01*
X106183333Y-88508095D01*
X106135714Y-88650952D01*
X105564285Y-89222380D01*
X106183333Y-89222380D01*
X106802380Y-88222380D02*
X106897619Y-88222380D01*
X106992857Y-88270000D01*
X107040476Y-88317619D01*
X107088095Y-88412857D01*
X107135714Y-88603333D01*
X107135714Y-88841428D01*
X107088095Y-89031904D01*
X107040476Y-89127142D01*
X106992857Y-89174761D01*
X106897619Y-89222380D01*
X106802380Y-89222380D01*
X106707142Y-89174761D01*
X106659523Y-89127142D01*
X106611904Y-89031904D01*
X106564285Y-88841428D01*
X106564285Y-88603333D01*
X106611904Y-88412857D01*
X106659523Y-88317619D01*
X106707142Y-88270000D01*
X106802380Y-88222380D01*
X107992857Y-88555714D02*
X107992857Y-89222380D01*
X107754761Y-88174761D02*
X107516666Y-88889047D01*
X108135714Y-88889047D01*
X109992857Y-108521428D02*
X109950000Y-108564285D01*
X109821428Y-108607142D01*
X109735714Y-108607142D01*
X109607142Y-108564285D01*
X109521428Y-108478571D01*
X109478571Y-108392857D01*
X109435714Y-108221428D01*
X109435714Y-108092857D01*
X109478571Y-107921428D01*
X109521428Y-107835714D01*
X109607142Y-107750000D01*
X109735714Y-107707142D01*
X109821428Y-107707142D01*
X109950000Y-107750000D01*
X109992857Y-107792857D01*
X110335714Y-107792857D02*
X110378571Y-107750000D01*
X110464285Y-107707142D01*
X110678571Y-107707142D01*
X110764285Y-107750000D01*
X110807142Y-107792857D01*
X110850000Y-107878571D01*
X110850000Y-107964285D01*
X110807142Y-108092857D01*
X110292857Y-108607142D01*
X110850000Y-108607142D01*
X111407142Y-107707142D02*
X111492857Y-107707142D01*
X111578571Y-107750000D01*
X111621428Y-107792857D01*
X111664285Y-107878571D01*
X111707142Y-108050000D01*
X111707142Y-108264285D01*
X111664285Y-108435714D01*
X111621428Y-108521428D01*
X111578571Y-108564285D01*
X111492857Y-108607142D01*
X111407142Y-108607142D01*
X111321428Y-108564285D01*
X111278571Y-108521428D01*
X111235714Y-108435714D01*
X111192857Y-108264285D01*
X111192857Y-108050000D01*
X111235714Y-107878571D01*
X111278571Y-107792857D01*
X111321428Y-107750000D01*
X111407142Y-107707142D01*
X112521428Y-107707142D02*
X112092857Y-107707142D01*
X112050000Y-108135714D01*
X112092857Y-108092857D01*
X112178571Y-108050000D01*
X112392857Y-108050000D01*
X112478571Y-108092857D01*
X112521428Y-108135714D01*
X112564285Y-108221428D01*
X112564285Y-108435714D01*
X112521428Y-108521428D01*
X112478571Y-108564285D01*
X112392857Y-108607142D01*
X112178571Y-108607142D01*
X112092857Y-108564285D01*
X112050000Y-108521428D01*
X114092857Y-108521428D02*
X114050000Y-108564285D01*
X113921428Y-108607142D01*
X113835714Y-108607142D01*
X113707142Y-108564285D01*
X113621428Y-108478571D01*
X113578571Y-108392857D01*
X113535714Y-108221428D01*
X113535714Y-108092857D01*
X113578571Y-107921428D01*
X113621428Y-107835714D01*
X113707142Y-107750000D01*
X113835714Y-107707142D01*
X113921428Y-107707142D01*
X114050000Y-107750000D01*
X114092857Y-107792857D01*
X114435714Y-107792857D02*
X114478571Y-107750000D01*
X114564285Y-107707142D01*
X114778571Y-107707142D01*
X114864285Y-107750000D01*
X114907142Y-107792857D01*
X114950000Y-107878571D01*
X114950000Y-107964285D01*
X114907142Y-108092857D01*
X114392857Y-108607142D01*
X114950000Y-108607142D01*
X115507142Y-107707142D02*
X115592857Y-107707142D01*
X115678571Y-107750000D01*
X115721428Y-107792857D01*
X115764285Y-107878571D01*
X115807142Y-108050000D01*
X115807142Y-108264285D01*
X115764285Y-108435714D01*
X115721428Y-108521428D01*
X115678571Y-108564285D01*
X115592857Y-108607142D01*
X115507142Y-108607142D01*
X115421428Y-108564285D01*
X115378571Y-108521428D01*
X115335714Y-108435714D01*
X115292857Y-108264285D01*
X115292857Y-108050000D01*
X115335714Y-107878571D01*
X115378571Y-107792857D01*
X115421428Y-107750000D01*
X115507142Y-107707142D01*
X116578571Y-107707142D02*
X116407142Y-107707142D01*
X116321428Y-107750000D01*
X116278571Y-107792857D01*
X116192857Y-107921428D01*
X116150000Y-108092857D01*
X116150000Y-108435714D01*
X116192857Y-108521428D01*
X116235714Y-108564285D01*
X116321428Y-108607142D01*
X116492857Y-108607142D01*
X116578571Y-108564285D01*
X116621428Y-108521428D01*
X116664285Y-108435714D01*
X116664285Y-108221428D01*
X116621428Y-108135714D01*
X116578571Y-108092857D01*
X116492857Y-108050000D01*
X116321428Y-108050000D01*
X116235714Y-108092857D01*
X116192857Y-108135714D01*
X116150000Y-108221428D01*
X98935714Y-108695238D02*
X98973809Y-108733333D01*
X99011904Y-108847619D01*
X99011904Y-108923809D01*
X98973809Y-109038095D01*
X98897619Y-109114285D01*
X98821428Y-109152380D01*
X98669047Y-109190476D01*
X98554761Y-109190476D01*
X98402380Y-109152380D01*
X98326190Y-109114285D01*
X98250000Y-109038095D01*
X98211904Y-108923809D01*
X98211904Y-108847619D01*
X98250000Y-108733333D01*
X98288095Y-108695238D01*
X98288095Y-108390476D02*
X98250000Y-108352380D01*
X98211904Y-108276190D01*
X98211904Y-108085714D01*
X98250000Y-108009523D01*
X98288095Y-107971428D01*
X98364285Y-107933333D01*
X98440476Y-107933333D01*
X98554761Y-107971428D01*
X99011904Y-108428571D01*
X99011904Y-107933333D01*
X98211904Y-107438095D02*
X98211904Y-107361904D01*
X98250000Y-107285714D01*
X98288095Y-107247619D01*
X98364285Y-107209523D01*
X98516666Y-107171428D01*
X98707142Y-107171428D01*
X98859523Y-107209523D01*
X98935714Y-107247619D01*
X98973809Y-107285714D01*
X99011904Y-107361904D01*
X99011904Y-107438095D01*
X98973809Y-107514285D01*
X98935714Y-107552380D01*
X98859523Y-107590476D01*
X98707142Y-107628571D01*
X98516666Y-107628571D01*
X98364285Y-107590476D01*
X98288095Y-107552380D01*
X98250000Y-107514285D01*
X98211904Y-107438095D01*
X98211904Y-106904761D02*
X98211904Y-106371428D01*
X99011904Y-106714285D01*
X122205952Y-83707142D02*
X122158333Y-83754761D01*
X122015476Y-83802380D01*
X121920238Y-83802380D01*
X121777380Y-83754761D01*
X121682142Y-83659523D01*
X121634523Y-83564285D01*
X121586904Y-83373809D01*
X121586904Y-83230952D01*
X121634523Y-83040476D01*
X121682142Y-82945238D01*
X121777380Y-82850000D01*
X121920238Y-82802380D01*
X122015476Y-82802380D01*
X122158333Y-82850000D01*
X122205952Y-82897619D01*
X122586904Y-82897619D02*
X122634523Y-82850000D01*
X122729761Y-82802380D01*
X122967857Y-82802380D01*
X123063095Y-82850000D01*
X123110714Y-82897619D01*
X123158333Y-82992857D01*
X123158333Y-83088095D01*
X123110714Y-83230952D01*
X122539285Y-83802380D01*
X123158333Y-83802380D01*
X123777380Y-82802380D02*
X123872619Y-82802380D01*
X123967857Y-82850000D01*
X124015476Y-82897619D01*
X124063095Y-82992857D01*
X124110714Y-83183333D01*
X124110714Y-83421428D01*
X124063095Y-83611904D01*
X124015476Y-83707142D01*
X123967857Y-83754761D01*
X123872619Y-83802380D01*
X123777380Y-83802380D01*
X123682142Y-83754761D01*
X123634523Y-83707142D01*
X123586904Y-83611904D01*
X123539285Y-83421428D01*
X123539285Y-83183333D01*
X123586904Y-82992857D01*
X123634523Y-82897619D01*
X123682142Y-82850000D01*
X123777380Y-82802380D01*
X124682142Y-83230952D02*
X124586904Y-83183333D01*
X124539285Y-83135714D01*
X124491666Y-83040476D01*
X124491666Y-82992857D01*
X124539285Y-82897619D01*
X124586904Y-82850000D01*
X124682142Y-82802380D01*
X124872619Y-82802380D01*
X124967857Y-82850000D01*
X125015476Y-82897619D01*
X125063095Y-82992857D01*
X125063095Y-83040476D01*
X125015476Y-83135714D01*
X124967857Y-83183333D01*
X124872619Y-83230952D01*
X124682142Y-83230952D01*
X124586904Y-83278571D01*
X124539285Y-83326190D01*
X124491666Y-83421428D01*
X124491666Y-83611904D01*
X124539285Y-83707142D01*
X124586904Y-83754761D01*
X124682142Y-83802380D01*
X124872619Y-83802380D01*
X124967857Y-83754761D01*
X125015476Y-83707142D01*
X125063095Y-83611904D01*
X125063095Y-83421428D01*
X125015476Y-83326190D01*
X124967857Y-83278571D01*
X124872619Y-83230952D01*
X128680952Y-96332142D02*
X128633333Y-96379761D01*
X128490476Y-96427380D01*
X128395238Y-96427380D01*
X128252380Y-96379761D01*
X128157142Y-96284523D01*
X128109523Y-96189285D01*
X128061904Y-95998809D01*
X128061904Y-95855952D01*
X128109523Y-95665476D01*
X128157142Y-95570238D01*
X128252380Y-95475000D01*
X128395238Y-95427380D01*
X128490476Y-95427380D01*
X128633333Y-95475000D01*
X128680952Y-95522619D01*
X129538095Y-95427380D02*
X129347619Y-95427380D01*
X129252380Y-95475000D01*
X129204761Y-95522619D01*
X129109523Y-95665476D01*
X129061904Y-95855952D01*
X129061904Y-96236904D01*
X129109523Y-96332142D01*
X129157142Y-96379761D01*
X129252380Y-96427380D01*
X129442857Y-96427380D01*
X129538095Y-96379761D01*
X129585714Y-96332142D01*
X129633333Y-96236904D01*
X129633333Y-95998809D01*
X129585714Y-95903571D01*
X129538095Y-95855952D01*
X129442857Y-95808333D01*
X129252380Y-95808333D01*
X129157142Y-95855952D01*
X129109523Y-95903571D01*
X129061904Y-95998809D01*
X130252380Y-95427380D02*
X130347619Y-95427380D01*
X130442857Y-95475000D01*
X130490476Y-95522619D01*
X130538095Y-95617857D01*
X130585714Y-95808333D01*
X130585714Y-96046428D01*
X130538095Y-96236904D01*
X130490476Y-96332142D01*
X130442857Y-96379761D01*
X130347619Y-96427380D01*
X130252380Y-96427380D01*
X130157142Y-96379761D01*
X130109523Y-96332142D01*
X130061904Y-96236904D01*
X130014285Y-96046428D01*
X130014285Y-95808333D01*
X130061904Y-95617857D01*
X130109523Y-95522619D01*
X130157142Y-95475000D01*
X130252380Y-95427380D01*
X131538095Y-96427380D02*
X130966666Y-96427380D01*
X131252380Y-96427380D02*
X131252380Y-95427380D01*
X131157142Y-95570238D01*
X131061904Y-95665476D01*
X130966666Y-95713095D01*
X128680952Y-97932142D02*
X128633333Y-97979761D01*
X128490476Y-98027380D01*
X128395238Y-98027380D01*
X128252380Y-97979761D01*
X128157142Y-97884523D01*
X128109523Y-97789285D01*
X128061904Y-97598809D01*
X128061904Y-97455952D01*
X128109523Y-97265476D01*
X128157142Y-97170238D01*
X128252380Y-97075000D01*
X128395238Y-97027380D01*
X128490476Y-97027380D01*
X128633333Y-97075000D01*
X128680952Y-97122619D01*
X129538095Y-97027380D02*
X129347619Y-97027380D01*
X129252380Y-97075000D01*
X129204761Y-97122619D01*
X129109523Y-97265476D01*
X129061904Y-97455952D01*
X129061904Y-97836904D01*
X129109523Y-97932142D01*
X129157142Y-97979761D01*
X129252380Y-98027380D01*
X129442857Y-98027380D01*
X129538095Y-97979761D01*
X129585714Y-97932142D01*
X129633333Y-97836904D01*
X129633333Y-97598809D01*
X129585714Y-97503571D01*
X129538095Y-97455952D01*
X129442857Y-97408333D01*
X129252380Y-97408333D01*
X129157142Y-97455952D01*
X129109523Y-97503571D01*
X129061904Y-97598809D01*
X130252380Y-97027380D02*
X130347619Y-97027380D01*
X130442857Y-97075000D01*
X130490476Y-97122619D01*
X130538095Y-97217857D01*
X130585714Y-97408333D01*
X130585714Y-97646428D01*
X130538095Y-97836904D01*
X130490476Y-97932142D01*
X130442857Y-97979761D01*
X130347619Y-98027380D01*
X130252380Y-98027380D01*
X130157142Y-97979761D01*
X130109523Y-97932142D01*
X130061904Y-97836904D01*
X130014285Y-97646428D01*
X130014285Y-97408333D01*
X130061904Y-97217857D01*
X130109523Y-97122619D01*
X130157142Y-97075000D01*
X130252380Y-97027380D01*
X130966666Y-97122619D02*
X131014285Y-97075000D01*
X131109523Y-97027380D01*
X131347619Y-97027380D01*
X131442857Y-97075000D01*
X131490476Y-97122619D01*
X131538095Y-97217857D01*
X131538095Y-97313095D01*
X131490476Y-97455952D01*
X130919047Y-98027380D01*
X131538095Y-98027380D01*
X100452380Y-90040476D02*
X99452380Y-90040476D01*
X99452380Y-89802380D01*
X99500000Y-89659523D01*
X99595238Y-89564285D01*
X99690476Y-89516666D01*
X99880952Y-89469047D01*
X100023809Y-89469047D01*
X100214285Y-89516666D01*
X100309523Y-89564285D01*
X100404761Y-89659523D01*
X100452380Y-89802380D01*
X100452380Y-90040476D01*
X99547619Y-89088095D02*
X99500000Y-89040476D01*
X99452380Y-88945238D01*
X99452380Y-88707142D01*
X99500000Y-88611904D01*
X99547619Y-88564285D01*
X99642857Y-88516666D01*
X99738095Y-88516666D01*
X99880952Y-88564285D01*
X100452380Y-89135714D01*
X100452380Y-88516666D01*
X99452380Y-87897619D02*
X99452380Y-87802380D01*
X99500000Y-87707142D01*
X99547619Y-87659523D01*
X99642857Y-87611904D01*
X99833333Y-87564285D01*
X100071428Y-87564285D01*
X100261904Y-87611904D01*
X100357142Y-87659523D01*
X100404761Y-87707142D01*
X100452380Y-87802380D01*
X100452380Y-87897619D01*
X100404761Y-87992857D01*
X100357142Y-88040476D01*
X100261904Y-88088095D01*
X100071428Y-88135714D01*
X99833333Y-88135714D01*
X99642857Y-88088095D01*
X99547619Y-88040476D01*
X99500000Y-87992857D01*
X99452380Y-87897619D01*
X100452380Y-86611904D02*
X100452380Y-87183333D01*
X100452380Y-86897619D02*
X99452380Y-86897619D01*
X99595238Y-86992857D01*
X99690476Y-87088095D01*
X99738095Y-87183333D01*
X139002380Y-84019047D02*
X138526190Y-84352380D01*
X139002380Y-84590476D02*
X138002380Y-84590476D01*
X138002380Y-84209523D01*
X138050000Y-84114285D01*
X138097619Y-84066666D01*
X138192857Y-84019047D01*
X138335714Y-84019047D01*
X138430952Y-84066666D01*
X138478571Y-84114285D01*
X138526190Y-84209523D01*
X138526190Y-84590476D01*
X138002380Y-83685714D02*
X138002380Y-83019047D01*
X139002380Y-83447619D01*
X138002380Y-82447619D02*
X138002380Y-82352380D01*
X138050000Y-82257142D01*
X138097619Y-82209523D01*
X138192857Y-82161904D01*
X138383333Y-82114285D01*
X138621428Y-82114285D01*
X138811904Y-82161904D01*
X138907142Y-82209523D01*
X138954761Y-82257142D01*
X139002380Y-82352380D01*
X139002380Y-82447619D01*
X138954761Y-82542857D01*
X138907142Y-82590476D01*
X138811904Y-82638095D01*
X138621428Y-82685714D01*
X138383333Y-82685714D01*
X138192857Y-82638095D01*
X138097619Y-82590476D01*
X138050000Y-82542857D01*
X138002380Y-82447619D01*
X139002380Y-81161904D02*
X139002380Y-81733333D01*
X139002380Y-81447619D02*
X138002380Y-81447619D01*
X138145238Y-81542857D01*
X138240476Y-81638095D01*
X138288095Y-81733333D01*
X135952380Y-84019047D02*
X135476190Y-84352380D01*
X135952380Y-84590476D02*
X134952380Y-84590476D01*
X134952380Y-84209523D01*
X135000000Y-84114285D01*
X135047619Y-84066666D01*
X135142857Y-84019047D01*
X135285714Y-84019047D01*
X135380952Y-84066666D01*
X135428571Y-84114285D01*
X135476190Y-84209523D01*
X135476190Y-84590476D01*
X134952380Y-83685714D02*
X134952380Y-83019047D01*
X135952380Y-83447619D01*
X134952380Y-82447619D02*
X134952380Y-82352380D01*
X135000000Y-82257142D01*
X135047619Y-82209523D01*
X135142857Y-82161904D01*
X135333333Y-82114285D01*
X135571428Y-82114285D01*
X135761904Y-82161904D01*
X135857142Y-82209523D01*
X135904761Y-82257142D01*
X135952380Y-82352380D01*
X135952380Y-82447619D01*
X135904761Y-82542857D01*
X135857142Y-82590476D01*
X135761904Y-82638095D01*
X135571428Y-82685714D01*
X135333333Y-82685714D01*
X135142857Y-82638095D01*
X135047619Y-82590476D01*
X135000000Y-82542857D01*
X134952380Y-82447619D01*
X135047619Y-81733333D02*
X135000000Y-81685714D01*
X134952380Y-81590476D01*
X134952380Y-81352380D01*
X135000000Y-81257142D01*
X135047619Y-81209523D01*
X135142857Y-81161904D01*
X135238095Y-81161904D01*
X135380952Y-81209523D01*
X135952380Y-81780952D01*
X135952380Y-81161904D01*
X132902380Y-84019047D02*
X132426190Y-84352380D01*
X132902380Y-84590476D02*
X131902380Y-84590476D01*
X131902380Y-84209523D01*
X131950000Y-84114285D01*
X131997619Y-84066666D01*
X132092857Y-84019047D01*
X132235714Y-84019047D01*
X132330952Y-84066666D01*
X132378571Y-84114285D01*
X132426190Y-84209523D01*
X132426190Y-84590476D01*
X131902380Y-83685714D02*
X131902380Y-83019047D01*
X132902380Y-83447619D01*
X131902380Y-82447619D02*
X131902380Y-82352380D01*
X131950000Y-82257142D01*
X131997619Y-82209523D01*
X132092857Y-82161904D01*
X132283333Y-82114285D01*
X132521428Y-82114285D01*
X132711904Y-82161904D01*
X132807142Y-82209523D01*
X132854761Y-82257142D01*
X132902380Y-82352380D01*
X132902380Y-82447619D01*
X132854761Y-82542857D01*
X132807142Y-82590476D01*
X132711904Y-82638095D01*
X132521428Y-82685714D01*
X132283333Y-82685714D01*
X132092857Y-82638095D01*
X131997619Y-82590476D01*
X131950000Y-82542857D01*
X131902380Y-82447619D01*
X131902380Y-81780952D02*
X131902380Y-81161904D01*
X132283333Y-81495238D01*
X132283333Y-81352380D01*
X132330952Y-81257142D01*
X132378571Y-81209523D01*
X132473809Y-81161904D01*
X132711904Y-81161904D01*
X132807142Y-81209523D01*
X132854761Y-81257142D01*
X132902380Y-81352380D01*
X132902380Y-81638095D01*
X132854761Y-81733333D01*
X132807142Y-81780952D01*
X121626380Y-92900285D02*
X122435904Y-92900285D01*
X122531142Y-92852666D01*
X122578761Y-92805047D01*
X122626380Y-92709809D01*
X122626380Y-92519333D01*
X122578761Y-92424095D01*
X122531142Y-92376476D01*
X122435904Y-92328857D01*
X121626380Y-92328857D01*
X121721619Y-91900285D02*
X121674000Y-91852666D01*
X121626380Y-91757428D01*
X121626380Y-91519333D01*
X121674000Y-91424095D01*
X121721619Y-91376476D01*
X121816857Y-91328857D01*
X121912095Y-91328857D01*
X122054952Y-91376476D01*
X122626380Y-91947904D01*
X122626380Y-91328857D01*
X121626380Y-90709809D02*
X121626380Y-90614571D01*
X121674000Y-90519333D01*
X121721619Y-90471714D01*
X121816857Y-90424095D01*
X122007333Y-90376476D01*
X122245428Y-90376476D01*
X122435904Y-90424095D01*
X122531142Y-90471714D01*
X122578761Y-90519333D01*
X122626380Y-90614571D01*
X122626380Y-90709809D01*
X122578761Y-90805047D01*
X122531142Y-90852666D01*
X122435904Y-90900285D01*
X122245428Y-90947904D01*
X122007333Y-90947904D01*
X121816857Y-90900285D01*
X121721619Y-90852666D01*
X121674000Y-90805047D01*
X121626380Y-90709809D01*
X122626380Y-89424095D02*
X122626380Y-89995523D01*
X122626380Y-89709809D02*
X121626380Y-89709809D01*
X121769238Y-89805047D01*
X121864476Y-89900285D01*
X121912095Y-89995523D01*
X105207142Y-106307142D02*
X105207142Y-107035714D01*
X105250000Y-107121428D01*
X105292857Y-107164285D01*
X105378571Y-107207142D01*
X105550000Y-107207142D01*
X105635714Y-107164285D01*
X105678571Y-107121428D01*
X105721428Y-107035714D01*
X105721428Y-106307142D01*
X106107142Y-106392857D02*
X106150000Y-106350000D01*
X106235714Y-106307142D01*
X106450000Y-106307142D01*
X106535714Y-106350000D01*
X106578571Y-106392857D01*
X106621428Y-106478571D01*
X106621428Y-106564285D01*
X106578571Y-106692857D01*
X106064285Y-107207142D01*
X106621428Y-107207142D01*
X107178571Y-106307142D02*
X107264285Y-106307142D01*
X107350000Y-106350000D01*
X107392857Y-106392857D01*
X107435714Y-106478571D01*
X107478571Y-106650000D01*
X107478571Y-106864285D01*
X107435714Y-107035714D01*
X107392857Y-107121428D01*
X107350000Y-107164285D01*
X107264285Y-107207142D01*
X107178571Y-107207142D01*
X107092857Y-107164285D01*
X107050000Y-107121428D01*
X107007142Y-107035714D01*
X106964285Y-106864285D01*
X106964285Y-106650000D01*
X107007142Y-106478571D01*
X107050000Y-106392857D01*
X107092857Y-106350000D01*
X107178571Y-106307142D01*
X107821428Y-106392857D02*
X107864285Y-106350000D01*
X107950000Y-106307142D01*
X108164285Y-106307142D01*
X108250000Y-106350000D01*
X108292857Y-106392857D01*
X108335714Y-106478571D01*
X108335714Y-106564285D01*
X108292857Y-106692857D01*
X107778571Y-107207142D01*
X108335714Y-107207142D01*
M02*
