G04 #@! TF.GenerationSoftware,KiCad,Pcbnew,5.1.9-73d0e3b20d~88~ubuntu18.04.1*
G04 #@! TF.CreationDate,2021-04-01T19:01:26+03:00*
G04 #@! TF.ProjectId,Electra,456c6563-7472-4612-9e6b-696361645f70,1*
G04 #@! TF.SameCoordinates,Original*
G04 #@! TF.FileFunction,Legend,Bot*
G04 #@! TF.FilePolarity,Positive*
%FSLAX46Y46*%
G04 Gerber Fmt 4.6, Leading zero omitted, Abs format (unit mm)*
G04 Created by KiCad (PCBNEW 5.1.9-73d0e3b20d~88~ubuntu18.04.1) date 2021-04-01 19:01:26*
%MOMM*%
%LPD*%
G01*
G04 APERTURE LIST*
%ADD10C,0.150000*%
%ADD11C,0.010000*%
%ADD12C,0.120000*%
G04 APERTURE END LIST*
D10*
X156600404Y-72159380D02*
X156600404Y-71159380D01*
X156267071Y-71492714D02*
X155886119Y-71492714D01*
X156124214Y-72159380D02*
X156124214Y-71302238D01*
X156076595Y-71207000D01*
X155981357Y-71159380D01*
X155886119Y-71159380D01*
X154886119Y-71492714D02*
X154648023Y-72159380D01*
X154409928Y-71492714D02*
X154648023Y-72159380D01*
X154743261Y-72397476D01*
X154790880Y-72445095D01*
X154886119Y-72492714D01*
X153886119Y-72159380D02*
X153981357Y-72111761D01*
X154028976Y-72064142D01*
X154076595Y-71968904D01*
X154076595Y-71683190D01*
X154028976Y-71587952D01*
X153981357Y-71540333D01*
X153886119Y-71492714D01*
X153743261Y-71492714D01*
X153648023Y-71540333D01*
X153600404Y-71587952D01*
X153552785Y-71683190D01*
X153552785Y-71968904D01*
X153600404Y-72064142D01*
X153648023Y-72111761D01*
X153743261Y-72159380D01*
X153886119Y-72159380D01*
X152695642Y-71492714D02*
X152695642Y-72159380D01*
X153124214Y-71492714D02*
X153124214Y-72016523D01*
X153076595Y-72111761D01*
X152981357Y-72159380D01*
X152838500Y-72159380D01*
X152743261Y-72111761D01*
X152695642Y-72064142D01*
X151028976Y-72159380D02*
X151028976Y-71635571D01*
X151076595Y-71540333D01*
X151171833Y-71492714D01*
X151362309Y-71492714D01*
X151457547Y-71540333D01*
X151028976Y-72111761D02*
X151124214Y-72159380D01*
X151362309Y-72159380D01*
X151457547Y-72111761D01*
X151505166Y-72016523D01*
X151505166Y-71921285D01*
X151457547Y-71826047D01*
X151362309Y-71778428D01*
X151124214Y-71778428D01*
X151028976Y-71730809D01*
X150552785Y-72159380D02*
X150552785Y-71492714D01*
X150552785Y-71683190D02*
X150505166Y-71587952D01*
X150457547Y-71540333D01*
X150362309Y-71492714D01*
X150267071Y-71492714D01*
X149552785Y-72111761D02*
X149648023Y-72159380D01*
X149838500Y-72159380D01*
X149933738Y-72111761D01*
X149981357Y-72016523D01*
X149981357Y-71635571D01*
X149933738Y-71540333D01*
X149838500Y-71492714D01*
X149648023Y-71492714D01*
X149552785Y-71540333D01*
X149505166Y-71635571D01*
X149505166Y-71730809D01*
X149981357Y-71826047D01*
X148314690Y-72159380D02*
X148314690Y-71492714D01*
X148314690Y-71683190D02*
X148267071Y-71587952D01*
X148219452Y-71540333D01*
X148124214Y-71492714D01*
X148028976Y-71492714D01*
X147314690Y-72111761D02*
X147409928Y-72159380D01*
X147600404Y-72159380D01*
X147695642Y-72111761D01*
X147743261Y-72016523D01*
X147743261Y-71635571D01*
X147695642Y-71540333D01*
X147600404Y-71492714D01*
X147409928Y-71492714D01*
X147314690Y-71540333D01*
X147267071Y-71635571D01*
X147267071Y-71730809D01*
X147743261Y-71826047D01*
X146409928Y-72159380D02*
X146409928Y-71635571D01*
X146457547Y-71540333D01*
X146552785Y-71492714D01*
X146743261Y-71492714D01*
X146838500Y-71540333D01*
X146409928Y-72111761D02*
X146505166Y-72159380D01*
X146743261Y-72159380D01*
X146838500Y-72111761D01*
X146886119Y-72016523D01*
X146886119Y-71921285D01*
X146838500Y-71826047D01*
X146743261Y-71778428D01*
X146505166Y-71778428D01*
X146409928Y-71730809D01*
X145505166Y-72159380D02*
X145505166Y-71159380D01*
X145505166Y-72111761D02*
X145600404Y-72159380D01*
X145790880Y-72159380D01*
X145886119Y-72111761D01*
X145933738Y-72064142D01*
X145981357Y-71968904D01*
X145981357Y-71683190D01*
X145933738Y-71587952D01*
X145886119Y-71540333D01*
X145790880Y-71492714D01*
X145600404Y-71492714D01*
X145505166Y-71540333D01*
X145028976Y-72159380D02*
X145028976Y-71492714D01*
X145028976Y-71159380D02*
X145076595Y-71207000D01*
X145028976Y-71254619D01*
X144981357Y-71207000D01*
X145028976Y-71159380D01*
X145028976Y-71254619D01*
X144552785Y-71492714D02*
X144552785Y-72159380D01*
X144552785Y-71587952D02*
X144505166Y-71540333D01*
X144409928Y-71492714D01*
X144267071Y-71492714D01*
X144171833Y-71540333D01*
X144124214Y-71635571D01*
X144124214Y-72159380D01*
X143219452Y-71492714D02*
X143219452Y-72302238D01*
X143267071Y-72397476D01*
X143314690Y-72445095D01*
X143409928Y-72492714D01*
X143552785Y-72492714D01*
X143648023Y-72445095D01*
X143219452Y-72111761D02*
X143314690Y-72159380D01*
X143505166Y-72159380D01*
X143600404Y-72111761D01*
X143648023Y-72064142D01*
X143695642Y-71968904D01*
X143695642Y-71683190D01*
X143648023Y-71587952D01*
X143600404Y-71540333D01*
X143505166Y-71492714D01*
X143314690Y-71492714D01*
X143219452Y-71540333D01*
X142124214Y-71492714D02*
X141743261Y-71492714D01*
X141981357Y-71159380D02*
X141981357Y-72016523D01*
X141933738Y-72111761D01*
X141838500Y-72159380D01*
X141743261Y-72159380D01*
X141409928Y-72159380D02*
X141409928Y-71159380D01*
X140981357Y-72159380D02*
X140981357Y-71635571D01*
X141028976Y-71540333D01*
X141124214Y-71492714D01*
X141267071Y-71492714D01*
X141362309Y-71540333D01*
X141409928Y-71587952D01*
X140505166Y-72159380D02*
X140505166Y-71492714D01*
X140505166Y-71159380D02*
X140552785Y-71207000D01*
X140505166Y-71254619D01*
X140457547Y-71207000D01*
X140505166Y-71159380D01*
X140505166Y-71254619D01*
X140076595Y-72111761D02*
X139981357Y-72159380D01*
X139790880Y-72159380D01*
X139695642Y-72111761D01*
X139648023Y-72016523D01*
X139648023Y-71968904D01*
X139695642Y-71873666D01*
X139790880Y-71826047D01*
X139933738Y-71826047D01*
X140028976Y-71778428D01*
X140076595Y-71683190D01*
X140076595Y-71635571D01*
X140028976Y-71540333D01*
X139933738Y-71492714D01*
X139790880Y-71492714D01*
X139695642Y-71540333D01*
X139171833Y-72111761D02*
X139171833Y-72159380D01*
X139219452Y-72254619D01*
X139267071Y-72302238D01*
X156600404Y-73809380D02*
X156600404Y-72809380D01*
X155362309Y-73809380D02*
X155362309Y-72809380D01*
X154933738Y-73809380D02*
X154933738Y-73285571D01*
X154981357Y-73190333D01*
X155076595Y-73142714D01*
X155219452Y-73142714D01*
X155314690Y-73190333D01*
X155362309Y-73237952D01*
X154314690Y-73809380D02*
X154409928Y-73761761D01*
X154457547Y-73714142D01*
X154505166Y-73618904D01*
X154505166Y-73333190D01*
X154457547Y-73237952D01*
X154409928Y-73190333D01*
X154314690Y-73142714D01*
X154171833Y-73142714D01*
X154076595Y-73190333D01*
X154028976Y-73237952D01*
X153981357Y-73333190D01*
X153981357Y-73618904D01*
X154028976Y-73714142D01*
X154076595Y-73761761D01*
X154171833Y-73809380D01*
X154314690Y-73809380D01*
X153552785Y-73142714D02*
X153552785Y-74142714D01*
X153552785Y-73190333D02*
X153457547Y-73142714D01*
X153267071Y-73142714D01*
X153171833Y-73190333D01*
X153124214Y-73237952D01*
X153076595Y-73333190D01*
X153076595Y-73618904D01*
X153124214Y-73714142D01*
X153171833Y-73761761D01*
X153267071Y-73809380D01*
X153457547Y-73809380D01*
X153552785Y-73761761D01*
X152267071Y-73761761D02*
X152362309Y-73809380D01*
X152552785Y-73809380D01*
X152648023Y-73761761D01*
X152695642Y-73666523D01*
X152695642Y-73285571D01*
X152648023Y-73190333D01*
X152552785Y-73142714D01*
X152362309Y-73142714D01*
X152267071Y-73190333D01*
X152219452Y-73285571D01*
X152219452Y-73380809D01*
X152695642Y-73476047D01*
X151124214Y-73142714D02*
X150886119Y-73809380D01*
X150648023Y-73142714D02*
X150886119Y-73809380D01*
X150981357Y-74047476D01*
X151028976Y-74095095D01*
X151124214Y-74142714D01*
X150124214Y-73809380D02*
X150219452Y-73761761D01*
X150267071Y-73714142D01*
X150314690Y-73618904D01*
X150314690Y-73333190D01*
X150267071Y-73237952D01*
X150219452Y-73190333D01*
X150124214Y-73142714D01*
X149981357Y-73142714D01*
X149886119Y-73190333D01*
X149838500Y-73237952D01*
X149790880Y-73333190D01*
X149790880Y-73618904D01*
X149838500Y-73714142D01*
X149886119Y-73761761D01*
X149981357Y-73809380D01*
X150124214Y-73809380D01*
X148933738Y-73142714D02*
X148933738Y-73809380D01*
X149362309Y-73142714D02*
X149362309Y-73666523D01*
X149314690Y-73761761D01*
X149219452Y-73809380D01*
X149076595Y-73809380D01*
X148981357Y-73761761D01*
X148933738Y-73714142D01*
X147695642Y-73809380D02*
X147695642Y-72809380D01*
X147267071Y-73809380D02*
X147267071Y-73285571D01*
X147314690Y-73190333D01*
X147409928Y-73142714D01*
X147552785Y-73142714D01*
X147648023Y-73190333D01*
X147695642Y-73237952D01*
X146362309Y-73809380D02*
X146362309Y-73285571D01*
X146409928Y-73190333D01*
X146505166Y-73142714D01*
X146695642Y-73142714D01*
X146790880Y-73190333D01*
X146362309Y-73761761D02*
X146457547Y-73809380D01*
X146695642Y-73809380D01*
X146790880Y-73761761D01*
X146838500Y-73666523D01*
X146838500Y-73571285D01*
X146790880Y-73476047D01*
X146695642Y-73428428D01*
X146457547Y-73428428D01*
X146362309Y-73380809D01*
X145981357Y-73142714D02*
X145743261Y-73809380D01*
X145505166Y-73142714D01*
X144743261Y-73761761D02*
X144838500Y-73809380D01*
X145028976Y-73809380D01*
X145124214Y-73761761D01*
X145171833Y-73666523D01*
X145171833Y-73285571D01*
X145124214Y-73190333D01*
X145028976Y-73142714D01*
X144838500Y-73142714D01*
X144743261Y-73190333D01*
X144695642Y-73285571D01*
X144695642Y-73380809D01*
X145171833Y-73476047D01*
X143076595Y-73809380D02*
X143076595Y-73285571D01*
X143124214Y-73190333D01*
X143219452Y-73142714D01*
X143409928Y-73142714D01*
X143505166Y-73190333D01*
X143076595Y-73761761D02*
X143171833Y-73809380D01*
X143409928Y-73809380D01*
X143505166Y-73761761D01*
X143552785Y-73666523D01*
X143552785Y-73571285D01*
X143505166Y-73476047D01*
X143409928Y-73428428D01*
X143171833Y-73428428D01*
X143076595Y-73380809D01*
X141838500Y-73142714D02*
X141838500Y-73809380D01*
X141838500Y-73237952D02*
X141790880Y-73190333D01*
X141695642Y-73142714D01*
X141552785Y-73142714D01*
X141457547Y-73190333D01*
X141409928Y-73285571D01*
X141409928Y-73809380D01*
X140933738Y-73809380D02*
X140933738Y-73142714D01*
X140933738Y-72809380D02*
X140981357Y-72857000D01*
X140933738Y-72904619D01*
X140886119Y-72857000D01*
X140933738Y-72809380D01*
X140933738Y-72904619D01*
X140028976Y-73761761D02*
X140124214Y-73809380D01*
X140314690Y-73809380D01*
X140409928Y-73761761D01*
X140457547Y-73714142D01*
X140505166Y-73618904D01*
X140505166Y-73333190D01*
X140457547Y-73237952D01*
X140409928Y-73190333D01*
X140314690Y-73142714D01*
X140124214Y-73142714D01*
X140028976Y-73190333D01*
X139219452Y-73761761D02*
X139314690Y-73809380D01*
X139505166Y-73809380D01*
X139600404Y-73761761D01*
X139648023Y-73666523D01*
X139648023Y-73285571D01*
X139600404Y-73190333D01*
X139505166Y-73142714D01*
X139314690Y-73142714D01*
X139219452Y-73190333D01*
X139171833Y-73285571D01*
X139171833Y-73380809D01*
X139648023Y-73476047D01*
X137552785Y-73809380D02*
X137552785Y-72809380D01*
X137552785Y-73761761D02*
X137648023Y-73809380D01*
X137838500Y-73809380D01*
X137933738Y-73761761D01*
X137981357Y-73714142D01*
X138028976Y-73618904D01*
X138028976Y-73333190D01*
X137981357Y-73237952D01*
X137933738Y-73190333D01*
X137838500Y-73142714D01*
X137648023Y-73142714D01*
X137552785Y-73190333D01*
X136648023Y-73809380D02*
X136648023Y-73285571D01*
X136695642Y-73190333D01*
X136790880Y-73142714D01*
X136981357Y-73142714D01*
X137076595Y-73190333D01*
X136648023Y-73761761D02*
X136743261Y-73809380D01*
X136981357Y-73809380D01*
X137076595Y-73761761D01*
X137124214Y-73666523D01*
X137124214Y-73571285D01*
X137076595Y-73476047D01*
X136981357Y-73428428D01*
X136743261Y-73428428D01*
X136648023Y-73380809D01*
X136267071Y-73142714D02*
X136028976Y-73809380D01*
X135790880Y-73142714D02*
X136028976Y-73809380D01*
X136124214Y-74047476D01*
X136171833Y-74095095D01*
X136267071Y-74142714D01*
X135409928Y-73714142D02*
X135362309Y-73761761D01*
X135409928Y-73809380D01*
X135457547Y-73761761D01*
X135409928Y-73714142D01*
X135409928Y-73809380D01*
X135409928Y-73428428D02*
X135457547Y-72857000D01*
X135409928Y-72809380D01*
X135362309Y-72857000D01*
X135409928Y-73428428D01*
X135409928Y-72809380D01*
X186426966Y-112036880D02*
X186760300Y-111560690D01*
X186998395Y-112036880D02*
X186998395Y-111036880D01*
X186617442Y-111036880D01*
X186522204Y-111084500D01*
X186474585Y-111132119D01*
X186426966Y-111227357D01*
X186426966Y-111370214D01*
X186474585Y-111465452D01*
X186522204Y-111513071D01*
X186617442Y-111560690D01*
X186998395Y-111560690D01*
X185474585Y-112036880D02*
X186046014Y-112036880D01*
X185760300Y-112036880D02*
X185760300Y-111036880D01*
X185855538Y-111179738D01*
X185950776Y-111274976D01*
X186046014Y-111322595D01*
X168189766Y-112049580D02*
X168523100Y-111573390D01*
X168761195Y-112049580D02*
X168761195Y-111049580D01*
X168380242Y-111049580D01*
X168285004Y-111097200D01*
X168237385Y-111144819D01*
X168189766Y-111240057D01*
X168189766Y-111382914D01*
X168237385Y-111478152D01*
X168285004Y-111525771D01*
X168380242Y-111573390D01*
X168761195Y-111573390D01*
X167808814Y-111144819D02*
X167761195Y-111097200D01*
X167665957Y-111049580D01*
X167427861Y-111049580D01*
X167332623Y-111097200D01*
X167285004Y-111144819D01*
X167237385Y-111240057D01*
X167237385Y-111335295D01*
X167285004Y-111478152D01*
X167856433Y-112049580D01*
X167237385Y-112049580D01*
X120447380Y-76183571D02*
X121256904Y-76183571D01*
X121352142Y-76231190D01*
X121399761Y-76278809D01*
X121447380Y-76374047D01*
X121447380Y-76564523D01*
X121399761Y-76659761D01*
X121352142Y-76707380D01*
X121256904Y-76755000D01*
X120447380Y-76755000D01*
X121399761Y-77183571D02*
X121447380Y-77326428D01*
X121447380Y-77564523D01*
X121399761Y-77659761D01*
X121352142Y-77707380D01*
X121256904Y-77755000D01*
X121161666Y-77755000D01*
X121066428Y-77707380D01*
X121018809Y-77659761D01*
X120971190Y-77564523D01*
X120923571Y-77374047D01*
X120875952Y-77278809D01*
X120828333Y-77231190D01*
X120733095Y-77183571D01*
X120637857Y-77183571D01*
X120542619Y-77231190D01*
X120495000Y-77278809D01*
X120447380Y-77374047D01*
X120447380Y-77612142D01*
X120495000Y-77755000D01*
X120923571Y-78516904D02*
X120971190Y-78659761D01*
X121018809Y-78707380D01*
X121114047Y-78755000D01*
X121256904Y-78755000D01*
X121352142Y-78707380D01*
X121399761Y-78659761D01*
X121447380Y-78564523D01*
X121447380Y-78183571D01*
X120447380Y-78183571D01*
X120447380Y-78516904D01*
X120495000Y-78612142D01*
X120542619Y-78659761D01*
X120637857Y-78707380D01*
X120733095Y-78707380D01*
X120828333Y-78659761D01*
X120875952Y-78612142D01*
X120923571Y-78516904D01*
X120923571Y-78183571D01*
X121066428Y-79183571D02*
X121066428Y-79945476D01*
X121447380Y-80421666D02*
X120447380Y-80421666D01*
X120780714Y-80897857D02*
X121447380Y-80897857D01*
X120875952Y-80897857D02*
X120828333Y-80945476D01*
X120780714Y-81040714D01*
X120780714Y-81183571D01*
X120828333Y-81278809D01*
X120923571Y-81326428D01*
X121447380Y-81326428D01*
X115429357Y-117933714D02*
X115129357Y-117933714D01*
X115000785Y-118405142D02*
X115429357Y-118405142D01*
X115429357Y-117505142D01*
X115000785Y-117505142D01*
X114486500Y-118405142D02*
X114572214Y-118362285D01*
X114615071Y-118276571D01*
X114615071Y-117505142D01*
X113800785Y-118362285D02*
X113886500Y-118405142D01*
X114057928Y-118405142D01*
X114143642Y-118362285D01*
X114186500Y-118276571D01*
X114186500Y-117933714D01*
X114143642Y-117848000D01*
X114057928Y-117805142D01*
X113886500Y-117805142D01*
X113800785Y-117848000D01*
X113757928Y-117933714D01*
X113757928Y-118019428D01*
X114186500Y-118105142D01*
X112986500Y-118362285D02*
X113072214Y-118405142D01*
X113243642Y-118405142D01*
X113329357Y-118362285D01*
X113372214Y-118319428D01*
X113415071Y-118233714D01*
X113415071Y-117976571D01*
X113372214Y-117890857D01*
X113329357Y-117848000D01*
X113243642Y-117805142D01*
X113072214Y-117805142D01*
X112986500Y-117848000D01*
X112729357Y-117805142D02*
X112386500Y-117805142D01*
X112600785Y-117505142D02*
X112600785Y-118276571D01*
X112557928Y-118362285D01*
X112472214Y-118405142D01*
X112386500Y-118405142D01*
X112086500Y-118405142D02*
X112086500Y-117805142D01*
X112086500Y-117976571D02*
X112043642Y-117890857D01*
X112000785Y-117848000D01*
X111915071Y-117805142D01*
X111829357Y-117805142D01*
X111143642Y-118405142D02*
X111143642Y-117933714D01*
X111186500Y-117848000D01*
X111272214Y-117805142D01*
X111443642Y-117805142D01*
X111529357Y-117848000D01*
X111143642Y-118362285D02*
X111229357Y-118405142D01*
X111443642Y-118405142D01*
X111529357Y-118362285D01*
X111572214Y-118276571D01*
X111572214Y-118190857D01*
X111529357Y-118105142D01*
X111443642Y-118062285D01*
X111229357Y-118062285D01*
X111143642Y-118019428D01*
X109515071Y-118405142D02*
X109815071Y-117976571D01*
X110029357Y-118405142D02*
X110029357Y-117505142D01*
X109686500Y-117505142D01*
X109600785Y-117548000D01*
X109557928Y-117590857D01*
X109515071Y-117676571D01*
X109515071Y-117805142D01*
X109557928Y-117890857D01*
X109600785Y-117933714D01*
X109686500Y-117976571D01*
X110029357Y-117976571D01*
X108786500Y-118362285D02*
X108872214Y-118405142D01*
X109043642Y-118405142D01*
X109129357Y-118362285D01*
X109172214Y-118276571D01*
X109172214Y-117933714D01*
X109129357Y-117848000D01*
X109043642Y-117805142D01*
X108872214Y-117805142D01*
X108786500Y-117848000D01*
X108743642Y-117933714D01*
X108743642Y-118019428D01*
X109172214Y-118105142D01*
X108443642Y-117805142D02*
X108229357Y-118405142D01*
X108015071Y-117805142D01*
X107672214Y-118319428D02*
X107629357Y-118362285D01*
X107672214Y-118405142D01*
X107715071Y-118362285D01*
X107672214Y-118319428D01*
X107672214Y-118405142D01*
X106600785Y-117590857D02*
X106557928Y-117548000D01*
X106472214Y-117505142D01*
X106257928Y-117505142D01*
X106172214Y-117548000D01*
X106129357Y-117590857D01*
X106086500Y-117676571D01*
X106086500Y-117762285D01*
X106129357Y-117890857D01*
X106643642Y-118405142D01*
X106086500Y-118405142D01*
X105700785Y-118319428D02*
X105657928Y-118362285D01*
X105700785Y-118405142D01*
X105743642Y-118362285D01*
X105700785Y-118319428D01*
X105700785Y-118405142D01*
X105100785Y-117505142D02*
X105015071Y-117505142D01*
X104929357Y-117548000D01*
X104886500Y-117590857D01*
X104843642Y-117676571D01*
X104800785Y-117848000D01*
X104800785Y-118062285D01*
X104843642Y-118233714D01*
X104886500Y-118319428D01*
X104929357Y-118362285D01*
X105015071Y-118405142D01*
X105100785Y-118405142D01*
X105186500Y-118362285D01*
X105229357Y-118319428D01*
X105272214Y-118233714D01*
X105315071Y-118062285D01*
X105315071Y-117848000D01*
X105272214Y-117676571D01*
X105229357Y-117590857D01*
X105186500Y-117548000D01*
X105100785Y-117505142D01*
X178887695Y-100478314D02*
X178925790Y-100516409D01*
X179040076Y-100554504D01*
X179116266Y-100554504D01*
X179230552Y-100516409D01*
X179306742Y-100440219D01*
X179344838Y-100364028D01*
X179382933Y-100211647D01*
X179382933Y-100097361D01*
X179344838Y-99944980D01*
X179306742Y-99868790D01*
X179230552Y-99792600D01*
X179116266Y-99754504D01*
X179040076Y-99754504D01*
X178925790Y-99792600D01*
X178887695Y-99830695D01*
X178582933Y-100325933D02*
X178201980Y-100325933D01*
X178659123Y-100554504D02*
X178392457Y-99754504D01*
X178125790Y-100554504D01*
X177859123Y-99754504D02*
X177859123Y-100402123D01*
X177821028Y-100478314D01*
X177782933Y-100516409D01*
X177706742Y-100554504D01*
X177554361Y-100554504D01*
X177478171Y-100516409D01*
X177440076Y-100478314D01*
X177401980Y-100402123D01*
X177401980Y-99754504D01*
X177135314Y-99754504D02*
X176678171Y-99754504D01*
X176906742Y-100554504D02*
X176906742Y-99754504D01*
X176411504Y-100554504D02*
X176411504Y-99754504D01*
X175878171Y-99754504D02*
X175725790Y-99754504D01*
X175649600Y-99792600D01*
X175573409Y-99868790D01*
X175535314Y-100021171D01*
X175535314Y-100287838D01*
X175573409Y-100440219D01*
X175649600Y-100516409D01*
X175725790Y-100554504D01*
X175878171Y-100554504D01*
X175954361Y-100516409D01*
X176030552Y-100440219D01*
X176068647Y-100287838D01*
X176068647Y-100021171D01*
X176030552Y-99868790D01*
X175954361Y-99792600D01*
X175878171Y-99754504D01*
X175192457Y-100554504D02*
X175192457Y-99754504D01*
X174735314Y-100554504D01*
X174735314Y-99754504D01*
X174354361Y-100478314D02*
X174316266Y-100516409D01*
X174354361Y-100554504D01*
X174392457Y-100516409D01*
X174354361Y-100478314D01*
X174354361Y-100554504D01*
X174354361Y-100249742D02*
X174392457Y-99792600D01*
X174354361Y-99754504D01*
X174316266Y-99792600D01*
X174354361Y-100249742D01*
X174354361Y-99754504D01*
X181478152Y-101735633D02*
X181097200Y-101735633D01*
X181554342Y-101964204D02*
X181287676Y-101164204D01*
X181021009Y-101964204D01*
X180297200Y-101888014D02*
X180335295Y-101926109D01*
X180449580Y-101964204D01*
X180525771Y-101964204D01*
X180640057Y-101926109D01*
X180716247Y-101849919D01*
X180754342Y-101773728D01*
X180792438Y-101621347D01*
X180792438Y-101507061D01*
X180754342Y-101354680D01*
X180716247Y-101278490D01*
X180640057Y-101202300D01*
X180525771Y-101164204D01*
X180449580Y-101164204D01*
X180335295Y-101202300D01*
X180297200Y-101240395D01*
X179344819Y-101964204D02*
X179344819Y-101164204D01*
X179078152Y-101735633D01*
X178811485Y-101164204D01*
X178811485Y-101964204D01*
X178087676Y-101964204D02*
X178087676Y-101545157D01*
X178125771Y-101468966D01*
X178201961Y-101430871D01*
X178354342Y-101430871D01*
X178430533Y-101468966D01*
X178087676Y-101926109D02*
X178163866Y-101964204D01*
X178354342Y-101964204D01*
X178430533Y-101926109D01*
X178468628Y-101849919D01*
X178468628Y-101773728D01*
X178430533Y-101697538D01*
X178354342Y-101659442D01*
X178163866Y-101659442D01*
X178087676Y-101621347D01*
X177706723Y-101964204D02*
X177706723Y-101430871D01*
X177706723Y-101164204D02*
X177744819Y-101202300D01*
X177706723Y-101240395D01*
X177668628Y-101202300D01*
X177706723Y-101164204D01*
X177706723Y-101240395D01*
X177325771Y-101430871D02*
X177325771Y-101964204D01*
X177325771Y-101507061D02*
X177287676Y-101468966D01*
X177211485Y-101430871D01*
X177097200Y-101430871D01*
X177021009Y-101468966D01*
X176982914Y-101545157D01*
X176982914Y-101964204D01*
X176106723Y-101164204D02*
X175840057Y-101964204D01*
X175573390Y-101164204D01*
X175192438Y-101964204D02*
X175268628Y-101926109D01*
X175306723Y-101888014D01*
X175344819Y-101811823D01*
X175344819Y-101583252D01*
X175306723Y-101507061D01*
X175268628Y-101468966D01*
X175192438Y-101430871D01*
X175078152Y-101430871D01*
X175001961Y-101468966D01*
X174963866Y-101507061D01*
X174925771Y-101583252D01*
X174925771Y-101811823D01*
X174963866Y-101888014D01*
X175001961Y-101926109D01*
X175078152Y-101964204D01*
X175192438Y-101964204D01*
X174468628Y-101964204D02*
X174544819Y-101926109D01*
X174582914Y-101849919D01*
X174582914Y-101164204D01*
X174278152Y-101430871D02*
X173973390Y-101430871D01*
X174163866Y-101164204D02*
X174163866Y-101849919D01*
X174125771Y-101926109D01*
X174049580Y-101964204D01*
X173973390Y-101964204D01*
X173363866Y-101964204D02*
X173363866Y-101545157D01*
X173401961Y-101468966D01*
X173478152Y-101430871D01*
X173630533Y-101430871D01*
X173706723Y-101468966D01*
X173363866Y-101926109D02*
X173440057Y-101964204D01*
X173630533Y-101964204D01*
X173706723Y-101926109D01*
X173744819Y-101849919D01*
X173744819Y-101773728D01*
X173706723Y-101697538D01*
X173630533Y-101659442D01*
X173440057Y-101659442D01*
X173363866Y-101621347D01*
X172640057Y-101430871D02*
X172640057Y-102078490D01*
X172678152Y-102154680D01*
X172716247Y-102192776D01*
X172792438Y-102230871D01*
X172906723Y-102230871D01*
X172982914Y-102192776D01*
X172640057Y-101926109D02*
X172716247Y-101964204D01*
X172868628Y-101964204D01*
X172944819Y-101926109D01*
X172982914Y-101888014D01*
X173021009Y-101811823D01*
X173021009Y-101583252D01*
X172982914Y-101507061D01*
X172944819Y-101468966D01*
X172868628Y-101430871D01*
X172716247Y-101430871D01*
X172640057Y-101468966D01*
X171954342Y-101926109D02*
X172030533Y-101964204D01*
X172182914Y-101964204D01*
X172259104Y-101926109D01*
X172297200Y-101849919D01*
X172297200Y-101545157D01*
X172259104Y-101468966D01*
X172182914Y-101430871D01*
X172030533Y-101430871D01*
X171954342Y-101468966D01*
X171916247Y-101545157D01*
X171916247Y-101621347D01*
X172297200Y-101697538D01*
D11*
G36*
X176824172Y-90703249D02*
G01*
X176746750Y-90705040D01*
X176685594Y-90707766D01*
X176645450Y-90711217D01*
X176631062Y-90715170D01*
X176636341Y-90731472D01*
X176651489Y-90773499D01*
X176675475Y-90838497D01*
X176707268Y-90923714D01*
X176745836Y-91026399D01*
X176790147Y-91143797D01*
X176839171Y-91273158D01*
X176891876Y-91411727D01*
X176903861Y-91443171D01*
X176957067Y-91583108D01*
X177006626Y-91714228D01*
X177051530Y-91833812D01*
X177090774Y-91939142D01*
X177123350Y-92027502D01*
X177148252Y-92096172D01*
X177164474Y-92142434D01*
X177171009Y-92163571D01*
X177171036Y-92164592D01*
X177155898Y-92161012D01*
X177115521Y-92148093D01*
X177053291Y-92127009D01*
X176972591Y-92098934D01*
X176876806Y-92065041D01*
X176769322Y-92026503D01*
X176692047Y-91998524D01*
X176578533Y-91957537D01*
X176474379Y-91920454D01*
X176382979Y-91888441D01*
X176307730Y-91862666D01*
X176252025Y-91844298D01*
X176219260Y-91834504D01*
X176211828Y-91833324D01*
X176216511Y-91848140D01*
X176232373Y-91888481D01*
X176258391Y-91951926D01*
X176293542Y-92036056D01*
X176336804Y-92138450D01*
X176387154Y-92256689D01*
X176443568Y-92388354D01*
X176505025Y-92531022D01*
X176570501Y-92682276D01*
X176575194Y-92693091D01*
X176945415Y-93546003D01*
X176794773Y-93550359D01*
X176731854Y-93553344D01*
X176682862Y-93557900D01*
X176654010Y-93563317D01*
X176649031Y-93567048D01*
X176659776Y-93582570D01*
X176686526Y-93617770D01*
X176726389Y-93669033D01*
X176776476Y-93732740D01*
X176833894Y-93805276D01*
X176895752Y-93883022D01*
X176959160Y-93962363D01*
X177021227Y-94039681D01*
X177079062Y-94111359D01*
X177129772Y-94173780D01*
X177170469Y-94223328D01*
X177198260Y-94256384D01*
X177210254Y-94269333D01*
X177210414Y-94269392D01*
X177215229Y-94255240D01*
X177225175Y-94214836D01*
X177239448Y-94151840D01*
X177257243Y-94069911D01*
X177277757Y-93972706D01*
X177300186Y-93863883D01*
X177308241Y-93824213D01*
X177331303Y-93710469D01*
X177352693Y-93605467D01*
X177371590Y-93513199D01*
X177387173Y-93437654D01*
X177398621Y-93382823D01*
X177405114Y-93352695D01*
X177405973Y-93349069D01*
X177401231Y-93341349D01*
X177377528Y-93351909D01*
X177333482Y-93381524D01*
X177289988Y-93413865D01*
X177237756Y-93453151D01*
X177195046Y-93484381D01*
X177167290Y-93503634D01*
X177159689Y-93507887D01*
X177152780Y-93494154D01*
X177136815Y-93455352D01*
X177113131Y-93395082D01*
X177083062Y-93316942D01*
X177047944Y-93224533D01*
X177009112Y-93121454D01*
X176967902Y-93011304D01*
X176925647Y-92897683D01*
X176883684Y-92784190D01*
X176843347Y-92674425D01*
X176805973Y-92571987D01*
X176772896Y-92480475D01*
X176745451Y-92403490D01*
X176724973Y-92344629D01*
X176712798Y-92307494D01*
X176710012Y-92295645D01*
X176725489Y-92298840D01*
X176765969Y-92311089D01*
X176827747Y-92331163D01*
X176907120Y-92357832D01*
X177000385Y-92389867D01*
X177103838Y-92426039D01*
X177119730Y-92431648D01*
X177224172Y-92468460D01*
X177318733Y-92501605D01*
X177399752Y-92529816D01*
X177463568Y-92551824D01*
X177506522Y-92566361D01*
X177524954Y-92572159D01*
X177525378Y-92572196D01*
X177523178Y-92557269D01*
X177516003Y-92514907D01*
X177504311Y-92447677D01*
X177488556Y-92358148D01*
X177469193Y-92248889D01*
X177446678Y-92122469D01*
X177421466Y-91981457D01*
X177394013Y-91828422D01*
X177364774Y-91665931D01*
X177361518Y-91647863D01*
X177332040Y-91484167D01*
X177304231Y-91329389D01*
X177278553Y-91186132D01*
X177255471Y-91057002D01*
X177235449Y-90944601D01*
X177218950Y-90851535D01*
X177206437Y-90780408D01*
X177198376Y-90733823D01*
X177195230Y-90714386D01*
X177195203Y-90714040D01*
X177180737Y-90710434D01*
X177140526Y-90707295D01*
X177079316Y-90704816D01*
X177001854Y-90703188D01*
X176913115Y-90702605D01*
X176824172Y-90703249D01*
G37*
X176824172Y-90703249D02*
X176746750Y-90705040D01*
X176685594Y-90707766D01*
X176645450Y-90711217D01*
X176631062Y-90715170D01*
X176636341Y-90731472D01*
X176651489Y-90773499D01*
X176675475Y-90838497D01*
X176707268Y-90923714D01*
X176745836Y-91026399D01*
X176790147Y-91143797D01*
X176839171Y-91273158D01*
X176891876Y-91411727D01*
X176903861Y-91443171D01*
X176957067Y-91583108D01*
X177006626Y-91714228D01*
X177051530Y-91833812D01*
X177090774Y-91939142D01*
X177123350Y-92027502D01*
X177148252Y-92096172D01*
X177164474Y-92142434D01*
X177171009Y-92163571D01*
X177171036Y-92164592D01*
X177155898Y-92161012D01*
X177115521Y-92148093D01*
X177053291Y-92127009D01*
X176972591Y-92098934D01*
X176876806Y-92065041D01*
X176769322Y-92026503D01*
X176692047Y-91998524D01*
X176578533Y-91957537D01*
X176474379Y-91920454D01*
X176382979Y-91888441D01*
X176307730Y-91862666D01*
X176252025Y-91844298D01*
X176219260Y-91834504D01*
X176211828Y-91833324D01*
X176216511Y-91848140D01*
X176232373Y-91888481D01*
X176258391Y-91951926D01*
X176293542Y-92036056D01*
X176336804Y-92138450D01*
X176387154Y-92256689D01*
X176443568Y-92388354D01*
X176505025Y-92531022D01*
X176570501Y-92682276D01*
X176575194Y-92693091D01*
X176945415Y-93546003D01*
X176794773Y-93550359D01*
X176731854Y-93553344D01*
X176682862Y-93557900D01*
X176654010Y-93563317D01*
X176649031Y-93567048D01*
X176659776Y-93582570D01*
X176686526Y-93617770D01*
X176726389Y-93669033D01*
X176776476Y-93732740D01*
X176833894Y-93805276D01*
X176895752Y-93883022D01*
X176959160Y-93962363D01*
X177021227Y-94039681D01*
X177079062Y-94111359D01*
X177129772Y-94173780D01*
X177170469Y-94223328D01*
X177198260Y-94256384D01*
X177210254Y-94269333D01*
X177210414Y-94269392D01*
X177215229Y-94255240D01*
X177225175Y-94214836D01*
X177239448Y-94151840D01*
X177257243Y-94069911D01*
X177277757Y-93972706D01*
X177300186Y-93863883D01*
X177308241Y-93824213D01*
X177331303Y-93710469D01*
X177352693Y-93605467D01*
X177371590Y-93513199D01*
X177387173Y-93437654D01*
X177398621Y-93382823D01*
X177405114Y-93352695D01*
X177405973Y-93349069D01*
X177401231Y-93341349D01*
X177377528Y-93351909D01*
X177333482Y-93381524D01*
X177289988Y-93413865D01*
X177237756Y-93453151D01*
X177195046Y-93484381D01*
X177167290Y-93503634D01*
X177159689Y-93507887D01*
X177152780Y-93494154D01*
X177136815Y-93455352D01*
X177113131Y-93395082D01*
X177083062Y-93316942D01*
X177047944Y-93224533D01*
X177009112Y-93121454D01*
X176967902Y-93011304D01*
X176925647Y-92897683D01*
X176883684Y-92784190D01*
X176843347Y-92674425D01*
X176805973Y-92571987D01*
X176772896Y-92480475D01*
X176745451Y-92403490D01*
X176724973Y-92344629D01*
X176712798Y-92307494D01*
X176710012Y-92295645D01*
X176725489Y-92298840D01*
X176765969Y-92311089D01*
X176827747Y-92331163D01*
X176907120Y-92357832D01*
X177000385Y-92389867D01*
X177103838Y-92426039D01*
X177119730Y-92431648D01*
X177224172Y-92468460D01*
X177318733Y-92501605D01*
X177399752Y-92529816D01*
X177463568Y-92551824D01*
X177506522Y-92566361D01*
X177524954Y-92572159D01*
X177525378Y-92572196D01*
X177523178Y-92557269D01*
X177516003Y-92514907D01*
X177504311Y-92447677D01*
X177488556Y-92358148D01*
X177469193Y-92248889D01*
X177446678Y-92122469D01*
X177421466Y-91981457D01*
X177394013Y-91828422D01*
X177364774Y-91665931D01*
X177361518Y-91647863D01*
X177332040Y-91484167D01*
X177304231Y-91329389D01*
X177278553Y-91186132D01*
X177255471Y-91057002D01*
X177235449Y-90944601D01*
X177218950Y-90851535D01*
X177206437Y-90780408D01*
X177198376Y-90733823D01*
X177195230Y-90714386D01*
X177195203Y-90714040D01*
X177180737Y-90710434D01*
X177140526Y-90707295D01*
X177079316Y-90704816D01*
X177001854Y-90703188D01*
X176913115Y-90702605D01*
X176824172Y-90703249D01*
G36*
X176772506Y-89431777D02*
G01*
X176684994Y-89466779D01*
X176610138Y-89528541D01*
X176601818Y-89538121D01*
X176588747Y-89558025D01*
X176561765Y-89602775D01*
X176521800Y-89670727D01*
X176469780Y-89760236D01*
X176406632Y-89869658D01*
X176333287Y-89997350D01*
X176250671Y-90141668D01*
X176159714Y-90300967D01*
X176061343Y-90473604D01*
X175956487Y-90657934D01*
X175846073Y-90852313D01*
X175731031Y-91055098D01*
X175612289Y-91264644D01*
X175490774Y-91479307D01*
X175367415Y-91697444D01*
X175243141Y-91917411D01*
X175118879Y-92137562D01*
X174995559Y-92356255D01*
X174874107Y-92571845D01*
X174755454Y-92782688D01*
X174640525Y-92987141D01*
X174530251Y-93183559D01*
X174425560Y-93370298D01*
X174327379Y-93545714D01*
X174236636Y-93708163D01*
X174154261Y-93856002D01*
X174081182Y-93987585D01*
X174018326Y-94101270D01*
X173966622Y-94195412D01*
X173926999Y-94268367D01*
X173900384Y-94318491D01*
X173887706Y-94344140D01*
X173886854Y-94346423D01*
X173871538Y-94449023D01*
X173884810Y-94543670D01*
X173925457Y-94627439D01*
X173992270Y-94697409D01*
X174046849Y-94732870D01*
X174107833Y-94765690D01*
X176844508Y-94768276D01*
X177131588Y-94768483D01*
X177410747Y-94768557D01*
X177680431Y-94768504D01*
X177939090Y-94768330D01*
X178185171Y-94768038D01*
X178417121Y-94767635D01*
X178633390Y-94767125D01*
X178832424Y-94766514D01*
X179012673Y-94765806D01*
X179172584Y-94765007D01*
X179310604Y-94764121D01*
X179425183Y-94763155D01*
X179514768Y-94762112D01*
X179577806Y-94760998D01*
X179612747Y-94759819D01*
X179619396Y-94759153D01*
X179697097Y-94726534D01*
X179763086Y-94682383D01*
X179782465Y-94664020D01*
X179830430Y-94591614D01*
X179856928Y-94504822D01*
X179859005Y-94449334D01*
X179558093Y-94449334D01*
X179552691Y-94451797D01*
X179535674Y-94454053D01*
X179505911Y-94456109D01*
X179462273Y-94457972D01*
X179403631Y-94459652D01*
X179328856Y-94461156D01*
X179236817Y-94462491D01*
X179126387Y-94463667D01*
X178996434Y-94464691D01*
X178845830Y-94465571D01*
X178673445Y-94466315D01*
X178478151Y-94466931D01*
X178258816Y-94467427D01*
X178014313Y-94467811D01*
X177743512Y-94468092D01*
X177445282Y-94468276D01*
X177118496Y-94468372D01*
X176867377Y-94468392D01*
X176521112Y-94468355D01*
X176204180Y-94468242D01*
X175915421Y-94468042D01*
X175653677Y-94467748D01*
X175417786Y-94467351D01*
X175206591Y-94466842D01*
X175018932Y-94466215D01*
X174853649Y-94465459D01*
X174709582Y-94464567D01*
X174585574Y-94463530D01*
X174480463Y-94462340D01*
X174393091Y-94460988D01*
X174322298Y-94459467D01*
X174266925Y-94457768D01*
X174225813Y-94455881D01*
X174197802Y-94453800D01*
X174181732Y-94451516D01*
X174176445Y-94449020D01*
X174176440Y-94448943D01*
X174183793Y-94434074D01*
X174205235Y-94394301D01*
X174239845Y-94331261D01*
X174286702Y-94246588D01*
X174344884Y-94141921D01*
X174413469Y-94018895D01*
X174491536Y-93879147D01*
X174578164Y-93724315D01*
X174672430Y-93556033D01*
X174773413Y-93375939D01*
X174880191Y-93185669D01*
X174991843Y-92986861D01*
X175107447Y-92781149D01*
X175226082Y-92570172D01*
X175346826Y-92355565D01*
X175468757Y-92138965D01*
X175590954Y-91922009D01*
X175712495Y-91706332D01*
X175832459Y-91493573D01*
X175949923Y-91285366D01*
X176063967Y-91083350D01*
X176173668Y-90889159D01*
X176278106Y-90704431D01*
X176376358Y-90530803D01*
X176467503Y-90369911D01*
X176550619Y-90223391D01*
X176624784Y-90092880D01*
X176689078Y-89980014D01*
X176742578Y-89886431D01*
X176784363Y-89813766D01*
X176813511Y-89763656D01*
X176829101Y-89737738D01*
X176831366Y-89734478D01*
X176850010Y-89730470D01*
X176860464Y-89742101D01*
X176878224Y-89771874D01*
X176909584Y-89825455D01*
X176953611Y-89901221D01*
X177009376Y-89997546D01*
X177075948Y-90112808D01*
X177152397Y-90245382D01*
X177237791Y-90393645D01*
X177331200Y-90555973D01*
X177431694Y-90730742D01*
X177538342Y-90916328D01*
X177650214Y-91111108D01*
X177766378Y-91313457D01*
X177885905Y-91521752D01*
X178007863Y-91734369D01*
X178131323Y-91949684D01*
X178255353Y-92166073D01*
X178379023Y-92381913D01*
X178501402Y-92595579D01*
X178621560Y-92805448D01*
X178738567Y-93009897D01*
X178851491Y-93207300D01*
X178959402Y-93396035D01*
X179061369Y-93574477D01*
X179156462Y-93741003D01*
X179243751Y-93893989D01*
X179322304Y-94031810D01*
X179391191Y-94152844D01*
X179449482Y-94255467D01*
X179496245Y-94338054D01*
X179530552Y-94398982D01*
X179551469Y-94436626D01*
X179558093Y-94449334D01*
X179859005Y-94449334D01*
X179860390Y-94412364D01*
X179842388Y-94331177D01*
X179833039Y-94313056D01*
X179809410Y-94270153D01*
X179772442Y-94204108D01*
X179723074Y-94116560D01*
X179662247Y-94009150D01*
X179590902Y-93883516D01*
X179509978Y-93741300D01*
X179420417Y-93584140D01*
X179323159Y-93413676D01*
X179219144Y-93231548D01*
X179109312Y-93039396D01*
X178994604Y-92838860D01*
X178875960Y-92631579D01*
X178754321Y-92419192D01*
X178630628Y-92203341D01*
X178505820Y-91985664D01*
X178380837Y-91767801D01*
X178256622Y-91551393D01*
X178134112Y-91338078D01*
X178014251Y-91129497D01*
X177897976Y-90927289D01*
X177786230Y-90733094D01*
X177679952Y-90548552D01*
X177580083Y-90375302D01*
X177487563Y-90214985D01*
X177403333Y-90069239D01*
X177328333Y-89939706D01*
X177263503Y-89828024D01*
X177209784Y-89735833D01*
X177168116Y-89664773D01*
X177139440Y-89616484D01*
X177125389Y-89593654D01*
X177056390Y-89509856D01*
X176977389Y-89454595D01*
X176887556Y-89427324D01*
X176868695Y-89425220D01*
X176772506Y-89431777D01*
G37*
X176772506Y-89431777D02*
X176684994Y-89466779D01*
X176610138Y-89528541D01*
X176601818Y-89538121D01*
X176588747Y-89558025D01*
X176561765Y-89602775D01*
X176521800Y-89670727D01*
X176469780Y-89760236D01*
X176406632Y-89869658D01*
X176333287Y-89997350D01*
X176250671Y-90141668D01*
X176159714Y-90300967D01*
X176061343Y-90473604D01*
X175956487Y-90657934D01*
X175846073Y-90852313D01*
X175731031Y-91055098D01*
X175612289Y-91264644D01*
X175490774Y-91479307D01*
X175367415Y-91697444D01*
X175243141Y-91917411D01*
X175118879Y-92137562D01*
X174995559Y-92356255D01*
X174874107Y-92571845D01*
X174755454Y-92782688D01*
X174640525Y-92987141D01*
X174530251Y-93183559D01*
X174425560Y-93370298D01*
X174327379Y-93545714D01*
X174236636Y-93708163D01*
X174154261Y-93856002D01*
X174081182Y-93987585D01*
X174018326Y-94101270D01*
X173966622Y-94195412D01*
X173926999Y-94268367D01*
X173900384Y-94318491D01*
X173887706Y-94344140D01*
X173886854Y-94346423D01*
X173871538Y-94449023D01*
X173884810Y-94543670D01*
X173925457Y-94627439D01*
X173992270Y-94697409D01*
X174046849Y-94732870D01*
X174107833Y-94765690D01*
X176844508Y-94768276D01*
X177131588Y-94768483D01*
X177410747Y-94768557D01*
X177680431Y-94768504D01*
X177939090Y-94768330D01*
X178185171Y-94768038D01*
X178417121Y-94767635D01*
X178633390Y-94767125D01*
X178832424Y-94766514D01*
X179012673Y-94765806D01*
X179172584Y-94765007D01*
X179310604Y-94764121D01*
X179425183Y-94763155D01*
X179514768Y-94762112D01*
X179577806Y-94760998D01*
X179612747Y-94759819D01*
X179619396Y-94759153D01*
X179697097Y-94726534D01*
X179763086Y-94682383D01*
X179782465Y-94664020D01*
X179830430Y-94591614D01*
X179856928Y-94504822D01*
X179859005Y-94449334D01*
X179558093Y-94449334D01*
X179552691Y-94451797D01*
X179535674Y-94454053D01*
X179505911Y-94456109D01*
X179462273Y-94457972D01*
X179403631Y-94459652D01*
X179328856Y-94461156D01*
X179236817Y-94462491D01*
X179126387Y-94463667D01*
X178996434Y-94464691D01*
X178845830Y-94465571D01*
X178673445Y-94466315D01*
X178478151Y-94466931D01*
X178258816Y-94467427D01*
X178014313Y-94467811D01*
X177743512Y-94468092D01*
X177445282Y-94468276D01*
X177118496Y-94468372D01*
X176867377Y-94468392D01*
X176521112Y-94468355D01*
X176204180Y-94468242D01*
X175915421Y-94468042D01*
X175653677Y-94467748D01*
X175417786Y-94467351D01*
X175206591Y-94466842D01*
X175018932Y-94466215D01*
X174853649Y-94465459D01*
X174709582Y-94464567D01*
X174585574Y-94463530D01*
X174480463Y-94462340D01*
X174393091Y-94460988D01*
X174322298Y-94459467D01*
X174266925Y-94457768D01*
X174225813Y-94455881D01*
X174197802Y-94453800D01*
X174181732Y-94451516D01*
X174176445Y-94449020D01*
X174176440Y-94448943D01*
X174183793Y-94434074D01*
X174205235Y-94394301D01*
X174239845Y-94331261D01*
X174286702Y-94246588D01*
X174344884Y-94141921D01*
X174413469Y-94018895D01*
X174491536Y-93879147D01*
X174578164Y-93724315D01*
X174672430Y-93556033D01*
X174773413Y-93375939D01*
X174880191Y-93185669D01*
X174991843Y-92986861D01*
X175107447Y-92781149D01*
X175226082Y-92570172D01*
X175346826Y-92355565D01*
X175468757Y-92138965D01*
X175590954Y-91922009D01*
X175712495Y-91706332D01*
X175832459Y-91493573D01*
X175949923Y-91285366D01*
X176063967Y-91083350D01*
X176173668Y-90889159D01*
X176278106Y-90704431D01*
X176376358Y-90530803D01*
X176467503Y-90369911D01*
X176550619Y-90223391D01*
X176624784Y-90092880D01*
X176689078Y-89980014D01*
X176742578Y-89886431D01*
X176784363Y-89813766D01*
X176813511Y-89763656D01*
X176829101Y-89737738D01*
X176831366Y-89734478D01*
X176850010Y-89730470D01*
X176860464Y-89742101D01*
X176878224Y-89771874D01*
X176909584Y-89825455D01*
X176953611Y-89901221D01*
X177009376Y-89997546D01*
X177075948Y-90112808D01*
X177152397Y-90245382D01*
X177237791Y-90393645D01*
X177331200Y-90555973D01*
X177431694Y-90730742D01*
X177538342Y-90916328D01*
X177650214Y-91111108D01*
X177766378Y-91313457D01*
X177885905Y-91521752D01*
X178007863Y-91734369D01*
X178131323Y-91949684D01*
X178255353Y-92166073D01*
X178379023Y-92381913D01*
X178501402Y-92595579D01*
X178621560Y-92805448D01*
X178738567Y-93009897D01*
X178851491Y-93207300D01*
X178959402Y-93396035D01*
X179061369Y-93574477D01*
X179156462Y-93741003D01*
X179243751Y-93893989D01*
X179322304Y-94031810D01*
X179391191Y-94152844D01*
X179449482Y-94255467D01*
X179496245Y-94338054D01*
X179530552Y-94398982D01*
X179551469Y-94436626D01*
X179558093Y-94449334D01*
X179859005Y-94449334D01*
X179860390Y-94412364D01*
X179842388Y-94331177D01*
X179833039Y-94313056D01*
X179809410Y-94270153D01*
X179772442Y-94204108D01*
X179723074Y-94116560D01*
X179662247Y-94009150D01*
X179590902Y-93883516D01*
X179509978Y-93741300D01*
X179420417Y-93584140D01*
X179323159Y-93413676D01*
X179219144Y-93231548D01*
X179109312Y-93039396D01*
X178994604Y-92838860D01*
X178875960Y-92631579D01*
X178754321Y-92419192D01*
X178630628Y-92203341D01*
X178505820Y-91985664D01*
X178380837Y-91767801D01*
X178256622Y-91551393D01*
X178134112Y-91338078D01*
X178014251Y-91129497D01*
X177897976Y-90927289D01*
X177786230Y-90733094D01*
X177679952Y-90548552D01*
X177580083Y-90375302D01*
X177487563Y-90214985D01*
X177403333Y-90069239D01*
X177328333Y-89939706D01*
X177263503Y-89828024D01*
X177209784Y-89735833D01*
X177168116Y-89664773D01*
X177139440Y-89616484D01*
X177125389Y-89593654D01*
X177056390Y-89509856D01*
X176977389Y-89454595D01*
X176887556Y-89427324D01*
X176868695Y-89425220D01*
X176772506Y-89431777D01*
D12*
X168710400Y-108717600D02*
X167310400Y-108717600D01*
X166610400Y-109417600D02*
X166610400Y-110017600D01*
X167310400Y-110717600D02*
X168710400Y-110717600D01*
X169410400Y-110017600D02*
X169410400Y-109417600D01*
X167310400Y-108717600D02*
G75*
G03*
X166610400Y-109417600I0J-700000D01*
G01*
X166610400Y-110017600D02*
G75*
G03*
X167310400Y-110717600I700000J0D01*
G01*
X168710400Y-110717600D02*
G75*
G03*
X169410400Y-110017600I0J700000D01*
G01*
X169410400Y-109417600D02*
G75*
G03*
X168710400Y-108717600I-700000J0D01*
G01*
X186960300Y-108692200D02*
X185560300Y-108692200D01*
X184860300Y-109392200D02*
X184860300Y-109992200D01*
X185560300Y-110692200D02*
X186960300Y-110692200D01*
X187660300Y-109992200D02*
X187660300Y-109392200D01*
X185560300Y-108692200D02*
G75*
G03*
X184860300Y-109392200I0J-700000D01*
G01*
X184860300Y-109992200D02*
G75*
G03*
X185560300Y-110692200I700000J0D01*
G01*
X186960300Y-110692200D02*
G75*
G03*
X187660300Y-109992200I0J700000D01*
G01*
X187660300Y-109392200D02*
G75*
G03*
X186960300Y-108692200I-700000J0D01*
G01*
X131239200Y-111271200D02*
X130629200Y-111271200D01*
X131239200Y-111271200D02*
X131239200Y-118891200D01*
X131239200Y-94651200D02*
X131239200Y-95271200D01*
X133359200Y-94651200D02*
X131239200Y-94651200D01*
X147479200Y-94651200D02*
X145359200Y-94651200D01*
X147479200Y-95271200D02*
X147479200Y-94651200D01*
X147479200Y-118891200D02*
X147479200Y-111271200D01*
X131239200Y-118891200D02*
X147479200Y-118891200D01*
X118090000Y-77928000D02*
X118090000Y-79328000D01*
X118790000Y-80028000D02*
X119390000Y-80028000D01*
X120090000Y-79328000D02*
X120090000Y-77928000D01*
X119390000Y-77228000D02*
X118790000Y-77228000D01*
X118090000Y-79328000D02*
G75*
G03*
X118790000Y-80028000I700000J0D01*
G01*
X119390000Y-80028000D02*
G75*
G03*
X120090000Y-79328000I0J700000D01*
G01*
X120090000Y-77928000D02*
G75*
G03*
X119390000Y-77228000I-700000J0D01*
G01*
X118790000Y-77228000D02*
G75*
G03*
X118090000Y-77928000I0J-700000D01*
G01*
D10*
X168177066Y-112069980D02*
X168510400Y-111593790D01*
X168748495Y-112069980D02*
X168748495Y-111069980D01*
X168367542Y-111069980D01*
X168272304Y-111117600D01*
X168224685Y-111165219D01*
X168177066Y-111260457D01*
X168177066Y-111403314D01*
X168224685Y-111498552D01*
X168272304Y-111546171D01*
X168367542Y-111593790D01*
X168748495Y-111593790D01*
X167796114Y-111165219D02*
X167748495Y-111117600D01*
X167653257Y-111069980D01*
X167415161Y-111069980D01*
X167319923Y-111117600D01*
X167272304Y-111165219D01*
X167224685Y-111260457D01*
X167224685Y-111355695D01*
X167272304Y-111498552D01*
X167843733Y-112069980D01*
X167224685Y-112069980D01*
X186426966Y-112044580D02*
X186760300Y-111568390D01*
X186998395Y-112044580D02*
X186998395Y-111044580D01*
X186617442Y-111044580D01*
X186522204Y-111092200D01*
X186474585Y-111139819D01*
X186426966Y-111235057D01*
X186426966Y-111377914D01*
X186474585Y-111473152D01*
X186522204Y-111520771D01*
X186617442Y-111568390D01*
X186998395Y-111568390D01*
X185474585Y-112044580D02*
X186046014Y-112044580D01*
X185760300Y-112044580D02*
X185760300Y-111044580D01*
X185855538Y-111187438D01*
X185950776Y-111282676D01*
X186046014Y-111330295D01*
X148625428Y-118369076D02*
X148625428Y-118035742D01*
X148101619Y-117892885D02*
X148101619Y-118369076D01*
X149101619Y-118369076D01*
X149101619Y-117892885D01*
X148149238Y-117511933D02*
X148101619Y-117369076D01*
X148101619Y-117130980D01*
X148149238Y-117035742D01*
X148196857Y-116988123D01*
X148292095Y-116940504D01*
X148387333Y-116940504D01*
X148482571Y-116988123D01*
X148530190Y-117035742D01*
X148577809Y-117130980D01*
X148625428Y-117321457D01*
X148673047Y-117416695D01*
X148720666Y-117464314D01*
X148815904Y-117511933D01*
X148911142Y-117511933D01*
X149006380Y-117464314D01*
X149054000Y-117416695D01*
X149101619Y-117321457D01*
X149101619Y-117083361D01*
X149054000Y-116940504D01*
X148101619Y-116511933D02*
X149101619Y-116511933D01*
X149101619Y-116130980D01*
X149054000Y-116035742D01*
X149006380Y-115988123D01*
X148911142Y-115940504D01*
X148768285Y-115940504D01*
X148673047Y-115988123D01*
X148625428Y-116035742D01*
X148577809Y-116130980D01*
X148577809Y-116511933D01*
X148482571Y-115511933D02*
X148482571Y-114750028D01*
X148101619Y-113750028D02*
X148101619Y-114321457D01*
X148101619Y-114035742D02*
X149101619Y-114035742D01*
X148958761Y-114130980D01*
X148863523Y-114226219D01*
X148815904Y-114321457D01*
X149006380Y-113369076D02*
X149054000Y-113321457D01*
X149101619Y-113226219D01*
X149101619Y-112988123D01*
X149054000Y-112892885D01*
X149006380Y-112845266D01*
X148911142Y-112797647D01*
X148815904Y-112797647D01*
X148673047Y-112845266D01*
X148101619Y-113416695D01*
X148101619Y-112797647D01*
X148625428Y-112035742D02*
X148625428Y-112369076D01*
X148101619Y-112369076D02*
X149101619Y-112369076D01*
X149101619Y-111892885D01*
X120442380Y-76056571D02*
X121251904Y-76056571D01*
X121347142Y-76104190D01*
X121394761Y-76151809D01*
X121442380Y-76247047D01*
X121442380Y-76437523D01*
X121394761Y-76532761D01*
X121347142Y-76580380D01*
X121251904Y-76628000D01*
X120442380Y-76628000D01*
X121394761Y-77056571D02*
X121442380Y-77199428D01*
X121442380Y-77437523D01*
X121394761Y-77532761D01*
X121347142Y-77580380D01*
X121251904Y-77628000D01*
X121156666Y-77628000D01*
X121061428Y-77580380D01*
X121013809Y-77532761D01*
X120966190Y-77437523D01*
X120918571Y-77247047D01*
X120870952Y-77151809D01*
X120823333Y-77104190D01*
X120728095Y-77056571D01*
X120632857Y-77056571D01*
X120537619Y-77104190D01*
X120490000Y-77151809D01*
X120442380Y-77247047D01*
X120442380Y-77485142D01*
X120490000Y-77628000D01*
X120918571Y-78389904D02*
X120966190Y-78532761D01*
X121013809Y-78580380D01*
X121109047Y-78628000D01*
X121251904Y-78628000D01*
X121347142Y-78580380D01*
X121394761Y-78532761D01*
X121442380Y-78437523D01*
X121442380Y-78056571D01*
X120442380Y-78056571D01*
X120442380Y-78389904D01*
X120490000Y-78485142D01*
X120537619Y-78532761D01*
X120632857Y-78580380D01*
X120728095Y-78580380D01*
X120823333Y-78532761D01*
X120870952Y-78485142D01*
X120918571Y-78389904D01*
X120918571Y-78056571D01*
X121061428Y-79056571D02*
X121061428Y-79818476D01*
X121442380Y-80294666D02*
X120442380Y-80294666D01*
X120775714Y-80770857D02*
X121442380Y-80770857D01*
X120870952Y-80770857D02*
X120823333Y-80818476D01*
X120775714Y-80913714D01*
X120775714Y-81056571D01*
X120823333Y-81151809D01*
X120918571Y-81199428D01*
X121442380Y-81199428D01*
M02*
