G04 #@! TF.GenerationSoftware,KiCad,Pcbnew,5.1.9-73d0e3b20d~88~ubuntu18.04.1*
G04 #@! TF.CreationDate,2021-04-01T23:05:10+03:00*
G04 #@! TF.ProjectId,Electra,456c6563-7472-4612-9e6b-696361645f70,1*
G04 #@! TF.SameCoordinates,Original*
G04 #@! TF.FileFunction,Soldermask,Top*
G04 #@! TF.FilePolarity,Negative*
%FSLAX46Y46*%
G04 Gerber Fmt 4.6, Leading zero omitted, Abs format (unit mm)*
G04 Created by KiCad (PCBNEW 5.1.9-73d0e3b20d~88~ubuntu18.04.1) date 2021-04-01 23:05:10*
%MOMM*%
%LPD*%
G01*
G04 APERTURE LIST*
%ADD10C,3.500000*%
%ADD11C,2.600000*%
%ADD12O,1.700000X1.700000*%
%ADD13R,1.700000X1.700000*%
%ADD14C,4.400000*%
%ADD15C,0.700000*%
%ADD16R,1.800000X3.500000*%
%ADD17C,3.000000*%
%ADD18R,3.000000X3.000000*%
%ADD19O,1.700000X2.000000*%
%ADD20R,0.700000X0.450000*%
%ADD21R,1.500000X1.500000*%
%ADD22C,1.500000*%
%ADD23R,2.000000X3.800000*%
%ADD24R,2.000000X1.500000*%
%ADD25R,1.300000X1.700000*%
%ADD26R,3.500000X1.800000*%
%ADD27R,1.500000X1.900000*%
%ADD28C,1.450000*%
%ADD29R,0.400000X1.350000*%
%ADD30O,1.200000X1.900000*%
%ADD31R,1.200000X1.900000*%
%ADD32R,3.500000X3.500000*%
G04 APERTURE END LIST*
D10*
X195264600Y-72735200D03*
D11*
X195264600Y-72735200D03*
D12*
X154916700Y-108460300D03*
X154916700Y-105920300D03*
X154916700Y-103380300D03*
D13*
X154916700Y-100840300D03*
D14*
X100500000Y-73500000D03*
D15*
X102150000Y-73500000D03*
X101666726Y-74666726D03*
X100500000Y-75150000D03*
X99333274Y-74666726D03*
X98850000Y-73500000D03*
X99333274Y-72333274D03*
X100500000Y-71850000D03*
X101666726Y-72333274D03*
X101666726Y-114833274D03*
X100500000Y-114350000D03*
X99333274Y-114833274D03*
X98850000Y-116000000D03*
X99333274Y-117166726D03*
X100500000Y-117650000D03*
X101666726Y-117166726D03*
X102150000Y-116000000D03*
D14*
X100500000Y-116000000D03*
X194500000Y-116000000D03*
D15*
X196150000Y-116000000D03*
X195666726Y-117166726D03*
X194500000Y-117650000D03*
X193333274Y-117166726D03*
X192850000Y-116000000D03*
X193333274Y-114833274D03*
X194500000Y-114350000D03*
X195666726Y-114833274D03*
G36*
G01*
X132250200Y-90277700D02*
X132250200Y-90752700D01*
G75*
G02*
X132012700Y-90990200I-237500J0D01*
G01*
X131412700Y-90990200D01*
G75*
G02*
X131175200Y-90752700I0J237500D01*
G01*
X131175200Y-90277700D01*
G75*
G02*
X131412700Y-90040200I237500J0D01*
G01*
X132012700Y-90040200D01*
G75*
G02*
X132250200Y-90277700I0J-237500D01*
G01*
G37*
G36*
G01*
X130525200Y-90277700D02*
X130525200Y-90752700D01*
G75*
G02*
X130287700Y-90990200I-237500J0D01*
G01*
X129687700Y-90990200D01*
G75*
G02*
X129450200Y-90752700I0J237500D01*
G01*
X129450200Y-90277700D01*
G75*
G02*
X129687700Y-90040200I237500J0D01*
G01*
X130287700Y-90040200D01*
G75*
G02*
X130525200Y-90277700I0J-237500D01*
G01*
G37*
G36*
G01*
X132274700Y-91795597D02*
X132274700Y-93095603D01*
G75*
G02*
X132024703Y-93345600I-249997J0D01*
G01*
X131199697Y-93345600D01*
G75*
G02*
X130949700Y-93095603I0J249997D01*
G01*
X130949700Y-91795597D01*
G75*
G02*
X131199697Y-91545600I249997J0D01*
G01*
X132024703Y-91545600D01*
G75*
G02*
X132274700Y-91795597I0J-249997D01*
G01*
G37*
G36*
G01*
X129149700Y-91795597D02*
X129149700Y-93095603D01*
G75*
G02*
X128899703Y-93345600I-249997J0D01*
G01*
X128074697Y-93345600D01*
G75*
G02*
X127824700Y-93095603I0J249997D01*
G01*
X127824700Y-91795597D01*
G75*
G02*
X128074697Y-91545600I249997J0D01*
G01*
X128899703Y-91545600D01*
G75*
G02*
X129149700Y-91795597I0J-249997D01*
G01*
G37*
D16*
X101242000Y-89550000D03*
X101242000Y-84550000D03*
X104782000Y-84600000D03*
X104782000Y-89600000D03*
G36*
G01*
X177289500Y-118636000D02*
X176814500Y-118636000D01*
G75*
G02*
X176577000Y-118398500I0J237500D01*
G01*
X176577000Y-117823500D01*
G75*
G02*
X176814500Y-117586000I237500J0D01*
G01*
X177289500Y-117586000D01*
G75*
G02*
X177527000Y-117823500I0J-237500D01*
G01*
X177527000Y-118398500D01*
G75*
G02*
X177289500Y-118636000I-237500J0D01*
G01*
G37*
G36*
G01*
X177289500Y-116886000D02*
X176814500Y-116886000D01*
G75*
G02*
X176577000Y-116648500I0J237500D01*
G01*
X176577000Y-116073500D01*
G75*
G02*
X176814500Y-115836000I237500J0D01*
G01*
X177289500Y-115836000D01*
G75*
G02*
X177527000Y-116073500I0J-237500D01*
G01*
X177527000Y-116648500D01*
G75*
G02*
X177289500Y-116886000I-237500J0D01*
G01*
G37*
G36*
G01*
X186637500Y-118636000D02*
X186162500Y-118636000D01*
G75*
G02*
X185925000Y-118398500I0J237500D01*
G01*
X185925000Y-117823500D01*
G75*
G02*
X186162500Y-117586000I237500J0D01*
G01*
X186637500Y-117586000D01*
G75*
G02*
X186875000Y-117823500I0J-237500D01*
G01*
X186875000Y-118398500D01*
G75*
G02*
X186637500Y-118636000I-237500J0D01*
G01*
G37*
G36*
G01*
X186637500Y-116886000D02*
X186162500Y-116886000D01*
G75*
G02*
X185925000Y-116648500I0J237500D01*
G01*
X185925000Y-116073500D01*
G75*
G02*
X186162500Y-115836000I237500J0D01*
G01*
X186637500Y-115836000D01*
G75*
G02*
X186875000Y-116073500I0J-237500D01*
G01*
X186875000Y-116648500D01*
G75*
G02*
X186637500Y-116886000I-237500J0D01*
G01*
G37*
G36*
G01*
X183589500Y-116886000D02*
X183114500Y-116886000D01*
G75*
G02*
X182877000Y-116648500I0J237500D01*
G01*
X182877000Y-116073500D01*
G75*
G02*
X183114500Y-115836000I237500J0D01*
G01*
X183589500Y-115836000D01*
G75*
G02*
X183827000Y-116073500I0J-237500D01*
G01*
X183827000Y-116648500D01*
G75*
G02*
X183589500Y-116886000I-237500J0D01*
G01*
G37*
G36*
G01*
X183589500Y-118636000D02*
X183114500Y-118636000D01*
G75*
G02*
X182877000Y-118398500I0J237500D01*
G01*
X182877000Y-117823500D01*
G75*
G02*
X183114500Y-117586000I237500J0D01*
G01*
X183589500Y-117586000D01*
G75*
G02*
X183827000Y-117823500I0J-237500D01*
G01*
X183827000Y-118398500D01*
G75*
G02*
X183589500Y-118636000I-237500J0D01*
G01*
G37*
G36*
G01*
X180541500Y-118636000D02*
X180066500Y-118636000D01*
G75*
G02*
X179829000Y-118398500I0J237500D01*
G01*
X179829000Y-117823500D01*
G75*
G02*
X180066500Y-117586000I237500J0D01*
G01*
X180541500Y-117586000D01*
G75*
G02*
X180779000Y-117823500I0J-237500D01*
G01*
X180779000Y-118398500D01*
G75*
G02*
X180541500Y-118636000I-237500J0D01*
G01*
G37*
G36*
G01*
X180541500Y-116886000D02*
X180066500Y-116886000D01*
G75*
G02*
X179829000Y-116648500I0J237500D01*
G01*
X179829000Y-116073500D01*
G75*
G02*
X180066500Y-115836000I237500J0D01*
G01*
X180541500Y-115836000D01*
G75*
G02*
X180779000Y-116073500I0J-237500D01*
G01*
X180779000Y-116648500D01*
G75*
G02*
X180541500Y-116886000I-237500J0D01*
G01*
G37*
G36*
G01*
X189685500Y-116886000D02*
X189210500Y-116886000D01*
G75*
G02*
X188973000Y-116648500I0J237500D01*
G01*
X188973000Y-116073500D01*
G75*
G02*
X189210500Y-115836000I237500J0D01*
G01*
X189685500Y-115836000D01*
G75*
G02*
X189923000Y-116073500I0J-237500D01*
G01*
X189923000Y-116648500D01*
G75*
G02*
X189685500Y-116886000I-237500J0D01*
G01*
G37*
G36*
G01*
X189685500Y-118636000D02*
X189210500Y-118636000D01*
G75*
G02*
X188973000Y-118398500I0J237500D01*
G01*
X188973000Y-117823500D01*
G75*
G02*
X189210500Y-117586000I237500J0D01*
G01*
X189685500Y-117586000D01*
G75*
G02*
X189923000Y-117823500I0J-237500D01*
G01*
X189923000Y-118398500D01*
G75*
G02*
X189685500Y-118636000I-237500J0D01*
G01*
G37*
D17*
X172670000Y-75720000D03*
X167590000Y-75720000D03*
D18*
X162510000Y-75720000D03*
G36*
G01*
X155677800Y-75693600D02*
X155677800Y-77193600D01*
G75*
G02*
X155427800Y-77443600I-250000J0D01*
G01*
X154227800Y-77443600D01*
G75*
G02*
X153977800Y-77193600I0J250000D01*
G01*
X153977800Y-75693600D01*
G75*
G02*
X154227800Y-75443600I250000J0D01*
G01*
X155427800Y-75443600D01*
G75*
G02*
X155677800Y-75693600I0J-250000D01*
G01*
G37*
D19*
X152327800Y-76443600D03*
X143818800Y-76443600D03*
G36*
G01*
X147168800Y-75693600D02*
X147168800Y-77193600D01*
G75*
G02*
X146918800Y-77443600I-250000J0D01*
G01*
X145718800Y-77443600D01*
G75*
G02*
X145468800Y-77193600I0J250000D01*
G01*
X145468800Y-75693600D01*
G75*
G02*
X145718800Y-75443600I250000J0D01*
G01*
X146918800Y-75443600D01*
G75*
G02*
X147168800Y-75693600I0J-250000D01*
G01*
G37*
X135335200Y-76443600D03*
G36*
G01*
X138685200Y-75693600D02*
X138685200Y-77193600D01*
G75*
G02*
X138435200Y-77443600I-250000J0D01*
G01*
X137235200Y-77443600D01*
G75*
G02*
X136985200Y-77193600I0J250000D01*
G01*
X136985200Y-75693600D01*
G75*
G02*
X137235200Y-75443600I250000J0D01*
G01*
X138435200Y-75443600D01*
G75*
G02*
X138685200Y-75693600I0J-250000D01*
G01*
G37*
G36*
G01*
X130201600Y-75693600D02*
X130201600Y-77193600D01*
G75*
G02*
X129951600Y-77443600I-250000J0D01*
G01*
X128751600Y-77443600D01*
G75*
G02*
X128501600Y-77193600I0J250000D01*
G01*
X128501600Y-75693600D01*
G75*
G02*
X128751600Y-75443600I250000J0D01*
G01*
X129951600Y-75443600D01*
G75*
G02*
X130201600Y-75693600I0J-250000D01*
G01*
G37*
X126851600Y-76443600D03*
D13*
X145506000Y-87518000D03*
D12*
X148046000Y-87518000D03*
X150586000Y-87518000D03*
X153126000Y-87518000D03*
D18*
X180260000Y-75720000D03*
D17*
X185340000Y-75720000D03*
X190420000Y-75720000D03*
X173730000Y-96960000D03*
X173730000Y-84760000D03*
X161730000Y-84760000D03*
X161730000Y-96960000D03*
X167730000Y-98960000D03*
X185900000Y-98870000D03*
X179900000Y-96870000D03*
X179900000Y-84670000D03*
X191900000Y-84670000D03*
X191900000Y-96870000D03*
D20*
X173274800Y-107099100D03*
X173274800Y-108399100D03*
X175274800Y-107749100D03*
X193661100Y-107774500D03*
X191661100Y-108424500D03*
X191661100Y-107124500D03*
G36*
G01*
X177239500Y-113509000D02*
X176764500Y-113509000D01*
G75*
G02*
X176527000Y-113271500I0J237500D01*
G01*
X176527000Y-112771500D01*
G75*
G02*
X176764500Y-112534000I237500J0D01*
G01*
X177239500Y-112534000D01*
G75*
G02*
X177477000Y-112771500I0J-237500D01*
G01*
X177477000Y-113271500D01*
G75*
G02*
X177239500Y-113509000I-237500J0D01*
G01*
G37*
G36*
G01*
X177239500Y-115334000D02*
X176764500Y-115334000D01*
G75*
G02*
X176527000Y-115096500I0J237500D01*
G01*
X176527000Y-114596500D01*
G75*
G02*
X176764500Y-114359000I237500J0D01*
G01*
X177239500Y-114359000D01*
G75*
G02*
X177477000Y-114596500I0J-237500D01*
G01*
X177477000Y-115096500D01*
G75*
G02*
X177239500Y-115334000I-237500J0D01*
G01*
G37*
G36*
G01*
X169486600Y-108299000D02*
X169486600Y-108774000D01*
G75*
G02*
X169249100Y-109011500I-237500J0D01*
G01*
X168749100Y-109011500D01*
G75*
G02*
X168511600Y-108774000I0J237500D01*
G01*
X168511600Y-108299000D01*
G75*
G02*
X168749100Y-108061500I237500J0D01*
G01*
X169249100Y-108061500D01*
G75*
G02*
X169486600Y-108299000I0J-237500D01*
G01*
G37*
G36*
G01*
X167661600Y-108299000D02*
X167661600Y-108774000D01*
G75*
G02*
X167424100Y-109011500I-237500J0D01*
G01*
X166924100Y-109011500D01*
G75*
G02*
X166686600Y-108774000I0J237500D01*
G01*
X166686600Y-108299000D01*
G75*
G02*
X166924100Y-108061500I237500J0D01*
G01*
X167424100Y-108061500D01*
G75*
G02*
X167661600Y-108299000I0J-237500D01*
G01*
G37*
G36*
G01*
X186162500Y-112534000D02*
X186637500Y-112534000D01*
G75*
G02*
X186875000Y-112771500I0J-237500D01*
G01*
X186875000Y-113271500D01*
G75*
G02*
X186637500Y-113509000I-237500J0D01*
G01*
X186162500Y-113509000D01*
G75*
G02*
X185925000Y-113271500I0J237500D01*
G01*
X185925000Y-112771500D01*
G75*
G02*
X186162500Y-112534000I237500J0D01*
G01*
G37*
G36*
G01*
X186162500Y-114359000D02*
X186637500Y-114359000D01*
G75*
G02*
X186875000Y-114596500I0J-237500D01*
G01*
X186875000Y-115096500D01*
G75*
G02*
X186637500Y-115334000I-237500J0D01*
G01*
X186162500Y-115334000D01*
G75*
G02*
X185925000Y-115096500I0J237500D01*
G01*
X185925000Y-114596500D01*
G75*
G02*
X186162500Y-114359000I237500J0D01*
G01*
G37*
G36*
G01*
X144727500Y-82013000D02*
X144252500Y-82013000D01*
G75*
G02*
X144015000Y-81775500I0J237500D01*
G01*
X144015000Y-81275500D01*
G75*
G02*
X144252500Y-81038000I237500J0D01*
G01*
X144727500Y-81038000D01*
G75*
G02*
X144965000Y-81275500I0J-237500D01*
G01*
X144965000Y-81775500D01*
G75*
G02*
X144727500Y-82013000I-237500J0D01*
G01*
G37*
G36*
G01*
X144727500Y-83838000D02*
X144252500Y-83838000D01*
G75*
G02*
X144015000Y-83600500I0J237500D01*
G01*
X144015000Y-83100500D01*
G75*
G02*
X144252500Y-82863000I237500J0D01*
G01*
X144727500Y-82863000D01*
G75*
G02*
X144965000Y-83100500I0J-237500D01*
G01*
X144965000Y-83600500D01*
G75*
G02*
X144727500Y-83838000I-237500J0D01*
G01*
G37*
G36*
G01*
X143203500Y-82013000D02*
X142728500Y-82013000D01*
G75*
G02*
X142491000Y-81775500I0J237500D01*
G01*
X142491000Y-81275500D01*
G75*
G02*
X142728500Y-81038000I237500J0D01*
G01*
X143203500Y-81038000D01*
G75*
G02*
X143441000Y-81275500I0J-237500D01*
G01*
X143441000Y-81775500D01*
G75*
G02*
X143203500Y-82013000I-237500J0D01*
G01*
G37*
G36*
G01*
X143203500Y-83838000D02*
X142728500Y-83838000D01*
G75*
G02*
X142491000Y-83600500I0J237500D01*
G01*
X142491000Y-83100500D01*
G75*
G02*
X142728500Y-82863000I237500J0D01*
G01*
X143203500Y-82863000D01*
G75*
G02*
X143441000Y-83100500I0J-237500D01*
G01*
X143441000Y-83600500D01*
G75*
G02*
X143203500Y-83838000I-237500J0D01*
G01*
G37*
G36*
G01*
X149299500Y-83838000D02*
X148824500Y-83838000D01*
G75*
G02*
X148587000Y-83600500I0J237500D01*
G01*
X148587000Y-83100500D01*
G75*
G02*
X148824500Y-82863000I237500J0D01*
G01*
X149299500Y-82863000D01*
G75*
G02*
X149537000Y-83100500I0J-237500D01*
G01*
X149537000Y-83600500D01*
G75*
G02*
X149299500Y-83838000I-237500J0D01*
G01*
G37*
G36*
G01*
X149299500Y-82013000D02*
X148824500Y-82013000D01*
G75*
G02*
X148587000Y-81775500I0J237500D01*
G01*
X148587000Y-81275500D01*
G75*
G02*
X148824500Y-81038000I237500J0D01*
G01*
X149299500Y-81038000D01*
G75*
G02*
X149537000Y-81275500I0J-237500D01*
G01*
X149537000Y-81775500D01*
G75*
G02*
X149299500Y-82013000I-237500J0D01*
G01*
G37*
G36*
G01*
X147775500Y-82013000D02*
X147300500Y-82013000D01*
G75*
G02*
X147063000Y-81775500I0J237500D01*
G01*
X147063000Y-81275500D01*
G75*
G02*
X147300500Y-81038000I237500J0D01*
G01*
X147775500Y-81038000D01*
G75*
G02*
X148013000Y-81275500I0J-237500D01*
G01*
X148013000Y-81775500D01*
G75*
G02*
X147775500Y-82013000I-237500J0D01*
G01*
G37*
G36*
G01*
X147775500Y-83838000D02*
X147300500Y-83838000D01*
G75*
G02*
X147063000Y-83600500I0J237500D01*
G01*
X147063000Y-83100500D01*
G75*
G02*
X147300500Y-82863000I237500J0D01*
G01*
X147775500Y-82863000D01*
G75*
G02*
X148013000Y-83100500I0J-237500D01*
G01*
X148013000Y-83600500D01*
G75*
G02*
X147775500Y-83838000I-237500J0D01*
G01*
G37*
G36*
G01*
X145776500Y-81038000D02*
X146251500Y-81038000D01*
G75*
G02*
X146489000Y-81275500I0J-237500D01*
G01*
X146489000Y-81775500D01*
G75*
G02*
X146251500Y-82013000I-237500J0D01*
G01*
X145776500Y-82013000D01*
G75*
G02*
X145539000Y-81775500I0J237500D01*
G01*
X145539000Y-81275500D01*
G75*
G02*
X145776500Y-81038000I237500J0D01*
G01*
G37*
G36*
G01*
X145776500Y-82863000D02*
X146251500Y-82863000D01*
G75*
G02*
X146489000Y-83100500I0J-237500D01*
G01*
X146489000Y-83600500D01*
G75*
G02*
X146251500Y-83838000I-237500J0D01*
G01*
X145776500Y-83838000D01*
G75*
G02*
X145539000Y-83600500I0J237500D01*
G01*
X145539000Y-83100500D01*
G75*
G02*
X145776500Y-82863000I237500J0D01*
G01*
G37*
G36*
G01*
X183802001Y-115280000D02*
X182901999Y-115280000D01*
G75*
G02*
X182652000Y-115030001I0J249999D01*
G01*
X182652000Y-114329999D01*
G75*
G02*
X182901999Y-114080000I249999J0D01*
G01*
X183802001Y-114080000D01*
G75*
G02*
X184052000Y-114329999I0J-249999D01*
G01*
X184052000Y-115030001D01*
G75*
G02*
X183802001Y-115280000I-249999J0D01*
G01*
G37*
G36*
G01*
X183802001Y-113280000D02*
X182901999Y-113280000D01*
G75*
G02*
X182652000Y-113030001I0J249999D01*
G01*
X182652000Y-112329999D01*
G75*
G02*
X182901999Y-112080000I249999J0D01*
G01*
X183802001Y-112080000D01*
G75*
G02*
X184052000Y-112329999I0J-249999D01*
G01*
X184052000Y-113030001D01*
G75*
G02*
X183802001Y-113280000I-249999J0D01*
G01*
G37*
G36*
G01*
X150348500Y-81038000D02*
X150823500Y-81038000D01*
G75*
G02*
X151061000Y-81275500I0J-237500D01*
G01*
X151061000Y-81775500D01*
G75*
G02*
X150823500Y-82013000I-237500J0D01*
G01*
X150348500Y-82013000D01*
G75*
G02*
X150111000Y-81775500I0J237500D01*
G01*
X150111000Y-81275500D01*
G75*
G02*
X150348500Y-81038000I237500J0D01*
G01*
G37*
G36*
G01*
X150348500Y-82863000D02*
X150823500Y-82863000D01*
G75*
G02*
X151061000Y-83100500I0J-237500D01*
G01*
X151061000Y-83600500D01*
G75*
G02*
X150823500Y-83838000I-237500J0D01*
G01*
X150348500Y-83838000D01*
G75*
G02*
X150111000Y-83600500I0J237500D01*
G01*
X150111000Y-83100500D01*
G75*
G02*
X150348500Y-82863000I237500J0D01*
G01*
G37*
G36*
G01*
X151872500Y-82863000D02*
X152347500Y-82863000D01*
G75*
G02*
X152585000Y-83100500I0J-237500D01*
G01*
X152585000Y-83600500D01*
G75*
G02*
X152347500Y-83838000I-237500J0D01*
G01*
X151872500Y-83838000D01*
G75*
G02*
X151635000Y-83600500I0J237500D01*
G01*
X151635000Y-83100500D01*
G75*
G02*
X151872500Y-82863000I237500J0D01*
G01*
G37*
G36*
G01*
X151872500Y-81038000D02*
X152347500Y-81038000D01*
G75*
G02*
X152585000Y-81275500I0J-237500D01*
G01*
X152585000Y-81775500D01*
G75*
G02*
X152347500Y-82013000I-237500J0D01*
G01*
X151872500Y-82013000D01*
G75*
G02*
X151635000Y-81775500I0J237500D01*
G01*
X151635000Y-81275500D01*
G75*
G02*
X151872500Y-81038000I237500J0D01*
G01*
G37*
G36*
G01*
X180754001Y-113280000D02*
X179853999Y-113280000D01*
G75*
G02*
X179604000Y-113030001I0J249999D01*
G01*
X179604000Y-112329999D01*
G75*
G02*
X179853999Y-112080000I249999J0D01*
G01*
X180754001Y-112080000D01*
G75*
G02*
X181004000Y-112329999I0J-249999D01*
G01*
X181004000Y-113030001D01*
G75*
G02*
X180754001Y-113280000I-249999J0D01*
G01*
G37*
G36*
G01*
X180754001Y-115280000D02*
X179853999Y-115280000D01*
G75*
G02*
X179604000Y-115030001I0J249999D01*
G01*
X179604000Y-114329999D01*
G75*
G02*
X179853999Y-114080000I249999J0D01*
G01*
X180754001Y-114080000D01*
G75*
G02*
X181004000Y-114329999I0J-249999D01*
G01*
X181004000Y-115030001D01*
G75*
G02*
X180754001Y-115280000I-249999J0D01*
G01*
G37*
G36*
G01*
X140950500Y-81038000D02*
X141425500Y-81038000D01*
G75*
G02*
X141663000Y-81275500I0J-237500D01*
G01*
X141663000Y-81775500D01*
G75*
G02*
X141425500Y-82013000I-237500J0D01*
G01*
X140950500Y-82013000D01*
G75*
G02*
X140713000Y-81775500I0J237500D01*
G01*
X140713000Y-81275500D01*
G75*
G02*
X140950500Y-81038000I237500J0D01*
G01*
G37*
G36*
G01*
X140950500Y-82863000D02*
X141425500Y-82863000D01*
G75*
G02*
X141663000Y-83100500I0J-237500D01*
G01*
X141663000Y-83600500D01*
G75*
G02*
X141425500Y-83838000I-237500J0D01*
G01*
X140950500Y-83838000D01*
G75*
G02*
X140713000Y-83600500I0J237500D01*
G01*
X140713000Y-83100500D01*
G75*
G02*
X140950500Y-82863000I237500J0D01*
G01*
G37*
G36*
G01*
X139426500Y-82863000D02*
X139901500Y-82863000D01*
G75*
G02*
X140139000Y-83100500I0J-237500D01*
G01*
X140139000Y-83600500D01*
G75*
G02*
X139901500Y-83838000I-237500J0D01*
G01*
X139426500Y-83838000D01*
G75*
G02*
X139189000Y-83600500I0J237500D01*
G01*
X139189000Y-83100500D01*
G75*
G02*
X139426500Y-82863000I237500J0D01*
G01*
G37*
G36*
G01*
X139426500Y-81038000D02*
X139901500Y-81038000D01*
G75*
G02*
X140139000Y-81275500I0J-237500D01*
G01*
X140139000Y-81775500D01*
G75*
G02*
X139901500Y-82013000I-237500J0D01*
G01*
X139426500Y-82013000D01*
G75*
G02*
X139189000Y-81775500I0J237500D01*
G01*
X139189000Y-81275500D01*
G75*
G02*
X139426500Y-81038000I237500J0D01*
G01*
G37*
G36*
G01*
X137902500Y-81038000D02*
X138377500Y-81038000D01*
G75*
G02*
X138615000Y-81275500I0J-237500D01*
G01*
X138615000Y-81775500D01*
G75*
G02*
X138377500Y-82013000I-237500J0D01*
G01*
X137902500Y-82013000D01*
G75*
G02*
X137665000Y-81775500I0J237500D01*
G01*
X137665000Y-81275500D01*
G75*
G02*
X137902500Y-81038000I237500J0D01*
G01*
G37*
G36*
G01*
X137902500Y-82863000D02*
X138377500Y-82863000D01*
G75*
G02*
X138615000Y-83100500I0J-237500D01*
G01*
X138615000Y-83600500D01*
G75*
G02*
X138377500Y-83838000I-237500J0D01*
G01*
X137902500Y-83838000D01*
G75*
G02*
X137665000Y-83600500I0J237500D01*
G01*
X137665000Y-83100500D01*
G75*
G02*
X137902500Y-82863000I237500J0D01*
G01*
G37*
G36*
G01*
X154920500Y-82875000D02*
X155395500Y-82875000D01*
G75*
G02*
X155633000Y-83112500I0J-237500D01*
G01*
X155633000Y-83612500D01*
G75*
G02*
X155395500Y-83850000I-237500J0D01*
G01*
X154920500Y-83850000D01*
G75*
G02*
X154683000Y-83612500I0J237500D01*
G01*
X154683000Y-83112500D01*
G75*
G02*
X154920500Y-82875000I237500J0D01*
G01*
G37*
G36*
G01*
X154920500Y-81050000D02*
X155395500Y-81050000D01*
G75*
G02*
X155633000Y-81287500I0J-237500D01*
G01*
X155633000Y-81787500D01*
G75*
G02*
X155395500Y-82025000I-237500J0D01*
G01*
X154920500Y-82025000D01*
G75*
G02*
X154683000Y-81787500I0J237500D01*
G01*
X154683000Y-81287500D01*
G75*
G02*
X154920500Y-81050000I237500J0D01*
G01*
G37*
G36*
G01*
X153875500Y-83850000D02*
X153400500Y-83850000D01*
G75*
G02*
X153163000Y-83612500I0J237500D01*
G01*
X153163000Y-83112500D01*
G75*
G02*
X153400500Y-82875000I237500J0D01*
G01*
X153875500Y-82875000D01*
G75*
G02*
X154113000Y-83112500I0J-237500D01*
G01*
X154113000Y-83612500D01*
G75*
G02*
X153875500Y-83850000I-237500J0D01*
G01*
G37*
G36*
G01*
X153875500Y-82025000D02*
X153400500Y-82025000D01*
G75*
G02*
X153163000Y-81787500I0J237500D01*
G01*
X153163000Y-81287500D01*
G75*
G02*
X153400500Y-81050000I237500J0D01*
G01*
X153875500Y-81050000D01*
G75*
G02*
X154113000Y-81287500I0J-237500D01*
G01*
X154113000Y-81787500D01*
G75*
G02*
X153875500Y-82025000I-237500J0D01*
G01*
G37*
G36*
G01*
X187622200Y-108260900D02*
X187622200Y-108735900D01*
G75*
G02*
X187384700Y-108973400I-237500J0D01*
G01*
X186884700Y-108973400D01*
G75*
G02*
X186647200Y-108735900I0J237500D01*
G01*
X186647200Y-108260900D01*
G75*
G02*
X186884700Y-108023400I237500J0D01*
G01*
X187384700Y-108023400D01*
G75*
G02*
X187622200Y-108260900I0J-237500D01*
G01*
G37*
G36*
G01*
X185797200Y-108260900D02*
X185797200Y-108735900D01*
G75*
G02*
X185559700Y-108973400I-237500J0D01*
G01*
X185059700Y-108973400D01*
G75*
G02*
X184822200Y-108735900I0J237500D01*
G01*
X184822200Y-108260900D01*
G75*
G02*
X185059700Y-108023400I237500J0D01*
G01*
X185559700Y-108023400D01*
G75*
G02*
X185797200Y-108260900I0J-237500D01*
G01*
G37*
G36*
G01*
X189210500Y-114359000D02*
X189685500Y-114359000D01*
G75*
G02*
X189923000Y-114596500I0J-237500D01*
G01*
X189923000Y-115096500D01*
G75*
G02*
X189685500Y-115334000I-237500J0D01*
G01*
X189210500Y-115334000D01*
G75*
G02*
X188973000Y-115096500I0J237500D01*
G01*
X188973000Y-114596500D01*
G75*
G02*
X189210500Y-114359000I237500J0D01*
G01*
G37*
G36*
G01*
X189210500Y-112534000D02*
X189685500Y-112534000D01*
G75*
G02*
X189923000Y-112771500I0J-237500D01*
G01*
X189923000Y-113271500D01*
G75*
G02*
X189685500Y-113509000I-237500J0D01*
G01*
X189210500Y-113509000D01*
G75*
G02*
X188973000Y-113271500I0J237500D01*
G01*
X188973000Y-112771500D01*
G75*
G02*
X189210500Y-112534000I237500J0D01*
G01*
G37*
D21*
X173282000Y-116855000D03*
X165482000Y-116855000D03*
X165482000Y-112613200D03*
X173282000Y-112613200D03*
D22*
X127726000Y-81930000D03*
X106326500Y-93233000D03*
X130418400Y-81904600D03*
X133085400Y-81879200D03*
X130443800Y-85562200D03*
X127751400Y-85562200D03*
X133085400Y-85562200D03*
D23*
X113604000Y-110632000D03*
D24*
X107304000Y-110632000D03*
X107304000Y-112932000D03*
X107304000Y-108332000D03*
D25*
X169912800Y-106148900D03*
X166412800Y-106148900D03*
X184383300Y-106148900D03*
X187883300Y-106148900D03*
G36*
G01*
X111258000Y-94100000D02*
X110158000Y-94100000D01*
G75*
G02*
X109908000Y-93850000I0J250000D01*
G01*
X109908000Y-90850000D01*
G75*
G02*
X110158000Y-90600000I250000J0D01*
G01*
X111258000Y-90600000D01*
G75*
G02*
X111508000Y-90850000I0J-250000D01*
G01*
X111508000Y-93850000D01*
G75*
G02*
X111258000Y-94100000I-250000J0D01*
G01*
G37*
G36*
G01*
X111258000Y-88500000D02*
X110158000Y-88500000D01*
G75*
G02*
X109908000Y-88250000I0J250000D01*
G01*
X109908000Y-85250000D01*
G75*
G02*
X110158000Y-85000000I250000J0D01*
G01*
X111258000Y-85000000D01*
G75*
G02*
X111508000Y-85250000I0J-250000D01*
G01*
X111508000Y-88250000D01*
G75*
G02*
X111258000Y-88500000I-250000J0D01*
G01*
G37*
G36*
G01*
X115567000Y-112838500D02*
X116517000Y-112838500D01*
G75*
G02*
X116767000Y-113088500I0J-250000D01*
G01*
X116767000Y-113763500D01*
G75*
G02*
X116517000Y-114013500I-250000J0D01*
G01*
X115567000Y-114013500D01*
G75*
G02*
X115317000Y-113763500I0J250000D01*
G01*
X115317000Y-113088500D01*
G75*
G02*
X115567000Y-112838500I250000J0D01*
G01*
G37*
G36*
G01*
X115567000Y-110763500D02*
X116517000Y-110763500D01*
G75*
G02*
X116767000Y-111013500I0J-250000D01*
G01*
X116767000Y-111688500D01*
G75*
G02*
X116517000Y-111938500I-250000J0D01*
G01*
X115567000Y-111938500D01*
G75*
G02*
X115317000Y-111688500I0J250000D01*
G01*
X115317000Y-111013500D01*
G75*
G02*
X115567000Y-110763500I250000J0D01*
G01*
G37*
G36*
G01*
X116517000Y-102859000D02*
X115567000Y-102859000D01*
G75*
G02*
X115317000Y-102609000I0J250000D01*
G01*
X115317000Y-101934000D01*
G75*
G02*
X115567000Y-101684000I250000J0D01*
G01*
X116517000Y-101684000D01*
G75*
G02*
X116767000Y-101934000I0J-250000D01*
G01*
X116767000Y-102609000D01*
G75*
G02*
X116517000Y-102859000I-250000J0D01*
G01*
G37*
G36*
G01*
X116517000Y-100784000D02*
X115567000Y-100784000D01*
G75*
G02*
X115317000Y-100534000I0J250000D01*
G01*
X115317000Y-99859000D01*
G75*
G02*
X115567000Y-99609000I250000J0D01*
G01*
X116517000Y-99609000D01*
G75*
G02*
X116767000Y-99859000I0J-250000D01*
G01*
X116767000Y-100534000D01*
G75*
G02*
X116517000Y-100784000I-250000J0D01*
G01*
G37*
G36*
G01*
X115556000Y-89846000D02*
X115556000Y-88746000D01*
G75*
G02*
X115806000Y-88496000I250000J0D01*
G01*
X118806000Y-88496000D01*
G75*
G02*
X119056000Y-88746000I0J-250000D01*
G01*
X119056000Y-89846000D01*
G75*
G02*
X118806000Y-90096000I-250000J0D01*
G01*
X115806000Y-90096000D01*
G75*
G02*
X115556000Y-89846000I0J250000D01*
G01*
G37*
G36*
G01*
X121156000Y-89846000D02*
X121156000Y-88746000D01*
G75*
G02*
X121406000Y-88496000I250000J0D01*
G01*
X124406000Y-88496000D01*
G75*
G02*
X124656000Y-88746000I0J-250000D01*
G01*
X124656000Y-89846000D01*
G75*
G02*
X124406000Y-90096000I-250000J0D01*
G01*
X121406000Y-90096000D01*
G75*
G02*
X121156000Y-89846000I0J250000D01*
G01*
G37*
G36*
G01*
X121156000Y-82226000D02*
X121156000Y-81126000D01*
G75*
G02*
X121406000Y-80876000I250000J0D01*
G01*
X124406000Y-80876000D01*
G75*
G02*
X124656000Y-81126000I0J-250000D01*
G01*
X124656000Y-82226000D01*
G75*
G02*
X124406000Y-82476000I-250000J0D01*
G01*
X121406000Y-82476000D01*
G75*
G02*
X121156000Y-82226000I0J250000D01*
G01*
G37*
G36*
G01*
X115556000Y-82226000D02*
X115556000Y-81126000D01*
G75*
G02*
X115806000Y-80876000I250000J0D01*
G01*
X118806000Y-80876000D01*
G75*
G02*
X119056000Y-81126000I0J-250000D01*
G01*
X119056000Y-82226000D01*
G75*
G02*
X118806000Y-82476000I-250000J0D01*
G01*
X115806000Y-82476000D01*
G75*
G02*
X115556000Y-82226000I0J250000D01*
G01*
G37*
D26*
X112954000Y-97424000D03*
X107954000Y-97424000D03*
D13*
X100040000Y-100472000D03*
D12*
X100040000Y-97932000D03*
X100040000Y-95392000D03*
D13*
X119369400Y-110911400D03*
D12*
X119369400Y-108371400D03*
X119369400Y-105831400D03*
X119369400Y-103291400D03*
X119369400Y-100751400D03*
X119369400Y-98211400D03*
X100040000Y-109362000D03*
X100040000Y-106822000D03*
D13*
X100040000Y-104282000D03*
X160136400Y-106110800D03*
D12*
X160136400Y-108650800D03*
X160136400Y-111190800D03*
X160136400Y-113730800D03*
D27*
X118060000Y-71930000D03*
D28*
X121560000Y-74630000D03*
D29*
X119710000Y-74630000D03*
X120360000Y-74630000D03*
X117760000Y-74630000D03*
X118410000Y-74630000D03*
X119060000Y-74630000D03*
D28*
X116560000Y-74630000D03*
D27*
X120060000Y-71930000D03*
D30*
X122560000Y-71930000D03*
X115560000Y-71930000D03*
D31*
X116160000Y-71930000D03*
X121960000Y-71930000D03*
D32*
X109050000Y-80750000D03*
G36*
G01*
X108050000Y-73250000D02*
X110050000Y-73250000D01*
G75*
G02*
X110800000Y-74000000I0J-750000D01*
G01*
X110800000Y-75500000D01*
G75*
G02*
X110050000Y-76250000I-750000J0D01*
G01*
X108050000Y-76250000D01*
G75*
G02*
X107300000Y-75500000I0J750000D01*
G01*
X107300000Y-74000000D01*
G75*
G02*
X108050000Y-73250000I750000J0D01*
G01*
G37*
G36*
G01*
X103475000Y-76000000D02*
X105225000Y-76000000D01*
G75*
G02*
X106100000Y-76875000I0J-875000D01*
G01*
X106100000Y-78625000D01*
G75*
G02*
X105225000Y-79500000I-875000J0D01*
G01*
X103475000Y-79500000D01*
G75*
G02*
X102600000Y-78625000I0J875000D01*
G01*
X102600000Y-76875000D01*
G75*
G02*
X103475000Y-76000000I875000J0D01*
G01*
G37*
D23*
X113604000Y-103012000D03*
D24*
X107304000Y-103012000D03*
X107304000Y-105312000D03*
X107304000Y-100712000D03*
M02*
