M48
; DRILL file {KiCad 5.1.9-73d0e3b20d~88~ubuntu18.04.1} date Thu Apr  1 19:01:29 2021
; FORMAT={-:-/ absolute / inch / decimal}
; #@! TF.CreationDate,2021-04-01T19:01:29+03:00
; #@! TF.GenerationSoftware,Kicad,Pcbnew,5.1.9-73d0e3b20d~88~ubuntu18.04.1
; #@! TF.FileFunction,Plated,1,2,PTH
FMAT,2
INCH
T1C0.0157
T2C0.0236
T3C0.0335
T4C0.0394
T5C0.0512
T6C0.0598
T7C0.0866
%
G90
G05
T1
X3.8917Y-2.8937
X3.8917Y-4.5669
X3.9108Y-2.8478
X3.9108Y-2.9396
X3.9108Y-4.521
X3.9108Y-4.6129
X3.9567Y-2.8287
X3.9567Y-2.9587
X3.9567Y-4.502
X3.9567Y-4.6319
X3.9586Y-3.1956
X3.9586Y-3.2356
X4.0026Y-2.8478
X4.0026Y-2.9396
X4.0026Y-4.521
X4.0026Y-4.6129
X4.0086Y-3.1956
X4.0086Y-3.2356
X4.0217Y-2.8937
X4.0217Y-4.5669
X4.0586Y-3.1956
X4.0586Y-3.2356
X4.1036Y-4.5481
X4.1061Y-4.6131
X4.1086Y-3.1956
X4.1086Y-3.2356
X4.1436Y-4.2976
X4.1446Y-3.9216
X4.1446Y-4.2556
X4.1456Y-3.9616
X4.1456Y-4.0016
X4.1456Y-4.2136
X4.1461Y-4.0406
X4.1461Y-4.0806
X4.1576Y-4.3496
X4.1586Y-3.1956
X4.1586Y-3.2356
X4.1936Y-4.5481
X4.1936Y-4.6131
X4.2961Y-4.5456
X4.2961Y-4.6131
X4.3006Y-3.3566
X4.3016Y-3.3906
X4.3016Y-3.4266
X4.3026Y-3.4616
X4.3026Y-3.4966
X4.3076Y-3.9226
X4.3086Y-3.9626
X4.3106Y-4.0036
X4.3311Y-4.3056
X4.3336Y-4.2706
X4.3361Y-4.1106
X4.3361Y-4.1506
X4.3361Y-4.1906
X4.3361Y-4.2331
X4.3511Y-3.9206
X4.3511Y-3.9606
X4.3511Y-4.0031
X4.3606Y-3.5056
X4.3616Y-3.3186
X4.3661Y-4.1306
X4.3686Y-4.1706
X4.3686Y-4.2131
X4.3686Y-4.2531
X4.3686Y-4.2906
X4.3836Y-4.5431
X4.3836Y-4.6106
X4.3936Y-3.9206
X4.3936Y-3.9606
X4.3936Y-4.0031
X4.3986Y-4.1106
X4.3986Y-4.1506
X4.4011Y-4.1906
X4.4011Y-4.2331
X4.4011Y-4.2706
X4.4011Y-4.3056
X4.4166Y-3.3526
X4.4176Y-3.3856
X4.4176Y-3.4186
X4.4176Y-3.4516
X4.4176Y-3.4866
X4.4411Y-4.1656
X4.4411Y-4.2056
X4.4411Y-4.2456
X4.4586Y-3.2731
X4.4736Y-4.5431
X4.4736Y-4.6106
X4.4821Y-4.1776
X4.4821Y-4.2256
X4.4946Y-4.4781
X4.5146Y-3.6676
X4.5156Y-3.5886
X4.5186Y-3.7531
X4.5196Y-3.1631
X4.5206Y-3.1081
X4.5221Y-3.0541
X4.5416Y-3.7116
X4.5426Y-3.6256
X4.5436Y-3.8396
X4.5456Y-3.7996
X4.5456Y-4.5176
X4.5521Y-4.1151
X4.5521Y-4.1651
X4.5521Y-4.2116
X4.5521Y-4.2576
X4.5536Y-3.8866
X4.5576Y-3.3656
X4.5686Y-3.0521
X4.5706Y-3.1081
X4.5886Y-4.5166
X4.6186Y-3.1616
X4.6351Y-4.4831
X4.6411Y-4.5531
X4.6411Y-4.6406
X4.7286Y-3.6781
X4.7411Y-4.5556
X4.7411Y-4.6406
X4.7446Y-3.0466
X4.7446Y-3.2316
X4.7456Y-3.1966
X4.7466Y-3.4996
X4.7466Y-3.5356
X4.7466Y-3.5736
X4.7476Y-3.4626
X4.7506Y-3.1616
X4.7711Y-3.6756
X4.7811Y-4.2631
X4.7811Y-4.3231
X4.7811Y-4.3806
X4.7816Y-3.2716
X4.7826Y-3.5736
X4.7836Y-3.4636
X4.7836Y-3.7356
X4.7856Y-3.1596
X4.8031Y-4.0221
X4.8041Y-3.8676
X4.8041Y-3.9146
X4.8056Y-4.0776
X4.8076Y-4.1236
X4.8111Y-3.6731
X4.8166Y-3.2716
X4.8176Y-3.4656
X4.8186Y-3.5706
X4.8236Y-3.1586
X4.8236Y-4.3606
X4.8236Y-4.5556
X4.8261Y-4.6381
X4.8286Y-4.3131
X4.8311Y-3.7306
X4.8311Y-4.2631
X4.8396Y-3.3836
X4.8476Y-3.8636
X4.8501Y-3.9091
X4.8506Y-3.2706
X4.8516Y-3.4666
X4.8526Y-3.5666
X4.8536Y-3.6731
X4.8556Y-4.0191
X4.8556Y-4.0786
X4.8566Y-4.1246
X4.8586Y-3.1586
X4.8761Y-4.3081
X4.8836Y-4.2631
X4.8866Y-3.2706
X4.8916Y-3.1586
X4.8976Y-2.8276
X4.8986Y-2.9456
X4.8986Y-3.3681
X4.9111Y-4.4681
X4.9111Y-4.5531
X4.9111Y-4.6381
X4.9261Y-4.1481
X4.9396Y-2.8286
X4.9426Y-3.3956
X4.9486Y-2.9456
X4.9511Y-4.0186
X4.9586Y-3.7006
X4.9601Y-3.6161
X4.9661Y-3.8381
X4.9696Y-3.5286
X4.9726Y-2.9011
X4.9796Y-3.1586
X4.9816Y-2.8276
X4.9836Y-4.1481
X4.9886Y-3.8781
X4.9896Y-4.2912
X4.9911Y-3.6586
X4.9916Y-4.0496
X4.9936Y-3.9901
X4.9941Y-3.5791
X4.9986Y-3.7356
X4.9986Y-4.5531
X4.9986Y-4.6381
X5.0011Y-4.3781
X5.0011Y-4.4681
X5.0186Y-2.9356
X5.0256Y-2.8286
X5.0346Y-4.1376
X5.0346Y-3.9186
X5.0511Y-2.8956
X5.0646Y-4.3266
X5.0726Y-2.8276
X5.0746Y-4.0721
X5.0761Y-4.3781
X5.0786Y-4.4681
X5.0786Y-4.5531
X5.0801Y-3.7216
X5.0811Y-4.6406
X5.0831Y-3.8871
X5.0836Y-3.4161
X5.0836Y-3.5081
X5.0836Y-3.8431
X5.0886Y-2.9356
X5.0976Y-3.7916
X5.1001Y-4.0336
X5.1136Y-3.1436
X5.1246Y-2.8956
X5.1256Y-2.8276
X5.1306Y-3.5081
X5.1346Y-3.3646
X5.1746Y-2.8276
X5.1756Y-3.5071
X5.2296Y-2.8276
X5.2396Y-3.3686
X5.2431Y-3.5436
X5.2456Y-3.1446
X5.2511Y-3.5921
X5.2671Y-3.8651
X5.2686Y-3.6511
X5.2731Y-3.9371
X5.2761Y-3.5015
X5.2826Y-2.8276
X5.2901Y-3.5906
X5.2936Y-3.1436
X5.3006Y-3.5391
X5.3061Y-4.0186
X5.3076Y-3.2146
X5.3101Y-4.0741
X5.3151Y-4.3586
X5.3166Y-3.9011
X5.3176Y-3.1796
X5.3206Y-4.1946
X5.3266Y-3.2486
X5.3276Y-2.8276
X5.3286Y-3.3781
X5.3416Y-3.1436
X5.3461Y-3.9866
X5.3486Y-3.2116
X5.3526Y-4.0371
X5.3656Y-3.8156
X5.3661Y-3.5346
X5.3666Y-4.2306
X5.3676Y-3.6466
X5.3696Y-3.5851
X5.3716Y-3.2476
X5.3726Y-3.1796
X5.3736Y-2.8276
X5.3761Y-4.1446
X5.3766Y-4.3571
X5.3861Y-3.3756
X5.3916Y-3.2136
X5.4026Y-3.9421
X5.4031Y-3.9966
X5.4136Y-4.1106
X5.4206Y-2.8276
X5.4286Y-2.9356
X5.4376Y-4.3586
X5.4446Y-3.8146
X5.4451Y-3.5321
X5.4451Y-3.5841
X5.4456Y-3.6446
X5.4461Y-3.3756
X5.4476Y-3.9681
X5.4486Y-4.1371
X5.4531Y-4.0731
X5.4826Y-4.1041
X5.4886Y-2.9356
X5.4936Y-3.3971
X5.4946Y-4.0401
X5.5006Y-4.3206
X5.5251Y-4.3586
X5.5276Y-3.5291
X5.5276Y-4.1636
X5.5296Y-3.6296
X5.5311Y-3.5831
X5.5486Y-2.9356
X5.5511Y-4.3206
X5.5721Y-3.1436
X5.5786Y-3.3601
X5.5786Y-4.1211
X5.5786Y-4.3651
X5.5976Y-4.2896
X5.6051Y-3.9191
X5.6061Y-3.8166
X5.6081Y-4.2376
X5.6126Y-3.9656
X5.6156Y-4.0871
X5.6256Y-3.5015
X5.6286Y-3.138
X5.6306Y-3.329
X5.6371Y-3.5851
X5.6386Y-2.9356
X5.6461Y-4.3616
X5.6531Y-3.6361
X5.6551Y-3.9371
X5.6586Y-4.2331
X5.6596Y-3.9966
X5.6686Y-4.0806
X5.6806Y-3.6081
X5.6826Y-3.1486
X5.7061Y-4.2331
X5.7086Y-2.9356
X5.7311Y-3.1671
X5.7516Y-3.6441
X5.7516Y-3.7331
X5.7786Y-2.9356
X5.7786Y-3.5256
X5.7891Y-3.6766
X5.7946Y-3.7331
X5.8186Y-3.3321
X5.8376Y-3.7301
X5.8586Y-2.9356
X5.8586Y-2.9956
X5.8586Y-3.0456
X5.8586Y-3.3381
X5.8646Y-3.7726
X5.8686Y-3.5256
X5.8686Y-3.5731
X5.8686Y-3.6231
X5.8686Y-3.8161
X5.8766Y-4.3161
X5.8856Y-3.8616
X5.9036Y-4.5181
X5.9061Y-4.6231
X5.9071Y-3.7741
X5.9126Y-3.3401
X5.9131Y-3.1496
X5.9131Y-3.8171
X5.9186Y-3.5281
X5.9186Y-3.5731
X5.9186Y-3.6231
X5.9186Y-3.6706
X5.9186Y-4.4606
X5.9261Y-4.0361
X5.9261Y-4.4106
X5.9271Y-4.2521
X5.9271Y-4.2521
X5.9276Y-3.9786
X5.9286Y-2.9356
X5.9286Y-2.9956
X5.9286Y-3.0456
X5.9301Y-3.9131
X5.9316Y-3.8626
X5.9511Y-4.5706
X5.9586Y-3.7056
X5.9596Y-3.1486
X5.9601Y-4.1281
X5.9736Y-3.5281
X5.9736Y-3.5706
X5.9736Y-3.6231
X5.9761Y-4.5206
X5.9811Y-4.4631
X5.9861Y-3.3421
X5.9886Y-2.9356
X6.0021Y-3.1481
X6.0061Y-4.6306
X6.0211Y-3.8706
X6.0236Y-3.7006
X6.0236Y-3.7581
X6.0236Y-3.8156
X6.0236Y-4.5781
X6.0361Y-4.5231
X6.0481Y-3.1481
X6.0711Y-3.6381
X6.0736Y-3.7006
X6.0736Y-3.7581
X6.0736Y-3.8156
X6.0736Y-3.8681
X6.0736Y-4.6281
X6.0786Y-3.5256
X6.0841Y-4.4121
X6.0861Y-4.5731
X6.0886Y-2.9356
X6.1186Y-3.7581
X6.1186Y-3.8156
X6.1186Y-3.8706
X6.1196Y-4.4556
X6.1211Y-3.7056
X6.1236Y-3.6381
X6.1261Y-3.5756
X6.1361Y-4.6256
X6.1571Y-4.4866
X6.1671Y-3.2261
X6.1686Y-2.9356
X6.1686Y-3.0056
X6.1711Y-3.5181
X6.1711Y-3.5756
X6.1711Y-3.6381
X6.1711Y-3.7056
X6.1711Y-3.7581
X6.1736Y-3.4556
X6.1736Y-3.8156
X6.1736Y-3.8731
X6.1761Y-3.3506
X6.1761Y-3.4006
X6.1858Y-4.3228
X6.1941Y-4.6516
X6.1966Y-4.1711
X6.1996Y-4.2726
X6.2021Y-4.5316
X6.2031Y-4.4096
X6.2111Y-4.2241
X6.2826Y-4.6496
X6.3726Y-4.6496
X6.3936Y-4.1781
X6.4231Y-4.2116
X6.4261Y-4.5031
X6.4346Y-4.3681
X6.4646Y-4.2391
X6.5011Y-4.222
X6.5701Y-4.6566
X6.5731Y-4.5501
X6.5856Y-4.4786
X6.6786Y-4.4381
X6.7086Y-4.3831
X6.7236Y-4.5006
X6.7451Y-4.1791
X6.7611Y-4.4356
X6.7626Y-4.6531
X6.8211Y-4.3706
X6.8211Y-4.5006
X6.8636Y-4.1456
X6.8886Y-4.3616
X6.9086Y-4.6556
X6.9611Y-4.3606
X6.9761Y-4.2296
X6.9786Y-4.1456
X7.0276Y-4.6211
X7.0461Y-4.2286
X7.0461Y-4.3596
X7.0886Y-4.1456
X7.1091Y-4.3586
X7.1106Y-4.2281
X7.1561Y-4.5456
X7.1811Y-4.2281
X7.1886Y-4.3606
X7.2358Y-4.2398
X7.2786Y-4.5406
X7.3326Y-4.1766
X7.3986Y-4.5381
X7.4486Y-4.3756
X7.4496Y-4.3246
X7.5081Y-4.3221
X7.5086Y-4.3731
X7.5161Y-4.5456
X7.5661Y-4.3806
X7.5666Y-4.3211
X7.5786Y-4.1481
X7.5886Y-4.4581
X7.5925Y-4.5669
X7.6115Y-4.521
X7.6115Y-4.6129
X7.6146Y-4.3181
X7.6486Y-4.3981
X7.6575Y-4.502
X7.6575Y-4.6319
X7.7034Y-4.521
X7.7034Y-4.6129
X7.7086Y-4.1426
X7.7086Y-4.3406
X7.7224Y-4.5669
X7.7336Y-4.2231
X7.7361Y-4.2781
T3
X4.589Y-2.9382
X4.7858Y-2.9382
T4
X3.9386Y-3.7556
X3.9386Y-3.8556
X3.9386Y-3.9556
X3.9386Y-4.1056
X3.9386Y-4.2056
X3.9386Y-4.3056
X4.6996Y-3.8666
X4.6996Y-3.9666
X4.6996Y-4.0666
X4.6996Y-4.1666
X4.6996Y-4.2666
X4.6996Y-4.3666
X4.9942Y-3.0096
X5.0926Y-3.0096
X5.3282Y-3.0096
X5.4266Y-3.0096
X5.6622Y-3.0096
X5.7286Y-3.4456
X5.7606Y-3.0096
X5.8286Y-3.4456
X5.9286Y-3.4456
X5.9972Y-3.0096
X6.0286Y-3.4456
X6.0956Y-3.0096
X6.0991Y-3.9701
X6.0991Y-4.0701
X6.0991Y-4.1701
X6.0991Y-4.2701
X6.3046Y-4.1776
X6.3046Y-4.2776
X6.3046Y-4.3776
X6.3046Y-4.4776
T5
X6.3673Y-3.337
X6.3673Y-3.8173
X6.6035Y-3.8961
X6.8398Y-3.337
X6.8398Y-3.8173
X7.0827Y-3.3335
X7.0827Y-3.8138
X7.3189Y-3.8925
X7.5551Y-3.3335
X7.5551Y-3.8138
T6
X6.398Y-2.9811
X6.598Y-2.9811
X6.798Y-2.9811
X7.0969Y-2.9811
X7.2969Y-2.9811
X7.4969Y-2.9811
T7
X3.9567Y-2.8937
X3.9567Y-4.5669
X7.6575Y-4.5669
X7.6876Y-2.8636
T2
G00X4.5496Y-2.8457
M15
G01X4.5496Y-2.8181
M16
G05
G00X4.8252Y-2.8181
M15
G01X4.8252Y-2.8457
M16
G05
T4
G00X4.1083Y-3.0217
M15
G01X4.1083Y-3.1004
M16
G05
G00X4.3327Y-2.9429
M15
G01X4.2539Y-2.9429
M16
G05
G00X4.3327Y-3.1791
M15
G01X4.2539Y-3.1791
M16
G05
T0
M30
