G04 #@! TF.GenerationSoftware,KiCad,Pcbnew,5.1.9-73d0e3b20d~88~ubuntu18.04.1*
G04 #@! TF.CreationDate,2021-04-01T23:05:10+03:00*
G04 #@! TF.ProjectId,Electra,456c6563-7472-4612-9e6b-696361645f70,1*
G04 #@! TF.SameCoordinates,Original*
G04 #@! TF.FileFunction,Profile,NP*
%FSLAX46Y46*%
G04 Gerber Fmt 4.6, Leading zero omitted, Abs format (unit mm)*
G04 Created by KiCad (PCBNEW 5.1.9-73d0e3b20d~88~ubuntu18.04.1) date 2021-04-01 23:05:10*
%MOMM*%
%LPD*%
G01*
G04 APERTURE LIST*
G04 #@! TA.AperFunction,Profile*
%ADD10C,0.050000*%
G04 #@! TD*
G04 APERTURE END LIST*
D10*
X170354000Y-102170000D02*
G75*
G02*
X170129000Y-102395000I-225000J0D01*
G01*
X170360000Y-90730000D02*
G75*
G02*
X170585000Y-90505000I225000J0D01*
G01*
X165498000Y-102395000D02*
X170129000Y-102395000D01*
X170585000Y-90505000D02*
X171310000Y-90505000D01*
X170354000Y-102170000D02*
X170360000Y-90730000D01*
X171535000Y-90730000D02*
X171535000Y-103070000D01*
X164323000Y-103295000D02*
G75*
G02*
X164098000Y-103070000I0J225000D01*
G01*
X171535000Y-103070000D02*
G75*
G02*
X171310000Y-103295000I-225000J0D01*
G01*
X165048000Y-90475000D02*
G75*
G02*
X165273000Y-90700000I0J-225000D01*
G01*
X164323000Y-90475000D02*
X165048000Y-90475000D01*
X165498000Y-102395000D02*
G75*
G02*
X165273000Y-102170000I0J225000D01*
G01*
X164098000Y-103070000D02*
X164098000Y-90700000D01*
X165273000Y-90700000D02*
X165273000Y-102170000D01*
X171310000Y-103295000D02*
X164323000Y-103295000D01*
X171310000Y-90505000D02*
G75*
G02*
X171535000Y-90730000I0J-225000D01*
G01*
X164098000Y-90700000D02*
G75*
G02*
X164323000Y-90475000I225000J0D01*
G01*
X183544000Y-102395000D02*
G75*
G02*
X183319000Y-102170000I0J225000D01*
G01*
X188400000Y-102170000D02*
G75*
G02*
X188175000Y-102395000I-225000J0D01*
G01*
X177163000Y-71844000D02*
G75*
G02*
X177388000Y-72069000I0J-225000D01*
G01*
X176438000Y-71844000D02*
X177163000Y-71844000D01*
X177388000Y-72069000D02*
X177388000Y-87869000D01*
X177163000Y-88094000D02*
X176438000Y-88094000D01*
X176213000Y-87869000D02*
X176213000Y-72069000D01*
X176213000Y-72069000D02*
G75*
G02*
X176438000Y-71844000I225000J0D01*
G01*
X176438000Y-88094000D02*
G75*
G02*
X176213000Y-87869000I0J225000D01*
G01*
X177388000Y-87869000D02*
G75*
G02*
X177163000Y-88094000I-225000J0D01*
G01*
X188631000Y-90505000D02*
X189356000Y-90505000D01*
X189581000Y-90730000D02*
X189581000Y-103070000D01*
X188400000Y-102170000D02*
X188406000Y-90730000D01*
X188406000Y-90730000D02*
G75*
G02*
X188631000Y-90505000I225000J0D01*
G01*
X189356000Y-90505000D02*
G75*
G02*
X189581000Y-90730000I0J-225000D01*
G01*
X182369000Y-90475000D02*
X183094000Y-90475000D01*
X183319000Y-90700000D02*
X183319000Y-102170000D01*
X182144000Y-103070000D02*
X182144000Y-90700000D01*
X182144000Y-90700000D02*
G75*
G02*
X182369000Y-90475000I225000J0D01*
G01*
X183094000Y-90475000D02*
G75*
G02*
X183319000Y-90700000I0J-225000D01*
G01*
X189581000Y-103070000D02*
G75*
G02*
X189356000Y-103295000I-225000J0D01*
G01*
X182369000Y-103295000D02*
G75*
G02*
X182144000Y-103070000I0J225000D01*
G01*
X183544000Y-102395000D02*
X188175000Y-102395000D01*
X189356000Y-103295000D02*
X182369000Y-103295000D01*
X187959000Y-73516000D02*
G75*
G02*
X188184000Y-73741000I0J-225000D01*
G01*
X187594000Y-73746000D02*
G75*
G02*
X187819000Y-73521000I225000J0D01*
G01*
X187819000Y-78101000D02*
G75*
G02*
X187594000Y-77876000I0J225000D01*
G01*
X187954000Y-78101000D02*
X187819000Y-78101000D01*
X187594000Y-77876000D02*
X187594000Y-73746000D01*
X188184000Y-77876000D02*
G75*
G02*
X187959000Y-78101000I-225000J0D01*
G01*
X187819000Y-73521000D02*
X187959000Y-73516000D01*
X188184000Y-73741000D02*
X188184000Y-77876000D01*
X182839000Y-73466000D02*
G75*
G02*
X183064000Y-73691000I0J-225000D01*
G01*
X182474000Y-73696000D02*
G75*
G02*
X182699000Y-73471000I225000J0D01*
G01*
X182699000Y-78051000D02*
G75*
G02*
X182474000Y-77826000I0J225000D01*
G01*
X182834000Y-78051000D02*
X182699000Y-78051000D01*
X182474000Y-77826000D02*
X182474000Y-73696000D01*
X183064000Y-77826000D02*
G75*
G02*
X182839000Y-78051000I-225000J0D01*
G01*
X182699000Y-73471000D02*
X182839000Y-73466000D01*
X183064000Y-73691000D02*
X183064000Y-77826000D01*
X170201000Y-73526000D02*
G75*
G02*
X170426000Y-73751000I0J-225000D01*
G01*
X169836000Y-73756000D02*
G75*
G02*
X170061000Y-73531000I225000J0D01*
G01*
X170061000Y-78111000D02*
G75*
G02*
X169836000Y-77886000I0J225000D01*
G01*
X170196000Y-78111000D02*
X170061000Y-78111000D01*
X169836000Y-77886000D02*
X169836000Y-73756000D01*
X170426000Y-77886000D02*
G75*
G02*
X170201000Y-78111000I-225000J0D01*
G01*
X170061000Y-73531000D02*
X170201000Y-73526000D01*
X170426000Y-73751000D02*
X170426000Y-77886000D01*
X165135000Y-73526000D02*
G75*
G02*
X165360000Y-73751000I0J-225000D01*
G01*
X164770000Y-73756000D02*
G75*
G02*
X164995000Y-73531000I225000J0D01*
G01*
X165130000Y-78111000D02*
X164995000Y-78111000D01*
X165360000Y-77886000D02*
G75*
G02*
X165135000Y-78111000I-225000J0D01*
G01*
X164995000Y-73531000D02*
X165135000Y-73526000D01*
X164995000Y-78111000D02*
G75*
G02*
X164770000Y-77886000I0J225000D01*
G01*
X165360000Y-73751000D02*
X165360000Y-77886000D01*
X164770000Y-77886000D02*
X164770000Y-73756000D01*
X159175000Y-87960000D02*
G75*
G02*
X158950000Y-88185000I-225000J0D01*
G01*
X158225000Y-88185000D02*
G75*
G02*
X158000000Y-87960000I0J225000D01*
G01*
X158950000Y-71935000D02*
G75*
G02*
X159175000Y-72160000I0J-225000D01*
G01*
X158000000Y-72160000D02*
G75*
G02*
X158225000Y-71935000I225000J0D01*
G01*
X158000000Y-87960000D02*
X158000000Y-72160000D01*
X158950000Y-88185000D02*
X158225000Y-88185000D01*
X159175000Y-72160000D02*
X159175000Y-87960000D01*
X158225000Y-71935000D02*
X158950000Y-71935000D01*
X196250000Y-70500000D02*
G75*
G02*
X197500000Y-71750000I0J-1250000D01*
G01*
X197500000Y-117750000D02*
G75*
G02*
X196250000Y-119000000I-1250000J0D01*
G01*
X98750000Y-119000000D02*
G75*
G02*
X97500000Y-117750000I0J1250000D01*
G01*
X97500000Y-71750000D02*
G75*
G02*
X98750000Y-70500000I1250000J0D01*
G01*
X196250000Y-70500000D02*
X98750000Y-70500000D01*
X197500000Y-117750000D02*
X197500000Y-71750000D01*
X98750000Y-119000000D02*
X196250000Y-119000000D01*
X97500000Y-71750000D02*
X97500000Y-117750000D01*
M02*
